<?xml version="1.0" encoding="iso-8859-1"?>
<!-- Generator: Adobe Illustrator 19.0.0, SVG Export Plug-In . SVG Version: 6.00 Build 0)  -->
<svg xmlns="http://www.w3.org/2000/svg" xmlns:xlink="http://www.w3.org/1999/xlink" version="1.1" id="Layer_1" x="0px" y="0px" viewBox="0 0 512.001 512.001" style="enable-background:new 0 0 512.001 512.001;" xml:space="preserve">
<g>
	<g>
		<path d="M511.95,197.986c-0.988-18.873-17.282-33.656-37.095-33.656l-139.21,0.001v-0.517c0-21.816-17.748-39.564-39.564-39.564    h-31.943c-22.463,0-44.405,6.293-63.454,18.198l-92.566,57.853c-4.053-7.113-11.701-11.923-20.456-11.923h-64.13    C10.557,188.378,0,198.935,0,211.911v144.29c0,12.977,10.557,23.533,23.532,23.533h64.129c9.676,0,18.003-5.871,21.615-14.237    l55.765,15.209c17.134,4.674,34.829,7.044,52.594,7.044h105.057c19.772,0,36.006-14.824,36.956-33.749    c0.318-6.326-1.069-12.538-3.928-18.052c11.94-5.783,20.006-17.96,20.006-31.853c0-5.76-1.365-11.291-3.949-16.256    c11.926-5.788,19.981-17.958,19.981-31.841c0-7.652-2.431-14.749-6.56-20.557h91.245c9.708,0,19.11-4.04,25.795-11.084    C509.018,217.215,512.467,207.849,511.95,197.986z M491.357,214.034c-3.922,4.133-9.219,6.409-14.914,6.409H356.202    c-4.143,0-7.5,3.357-7.5,7.5s3.357,7.5,7.5,7.5c11.334,0,20.556,9.222,20.556,20.557c0,10.378-7.838,19.099-18.232,20.285    c-2.899,0.33-5.344,2.313-6.266,5.082c-0.922,2.769-0.153,5.821,1.969,7.824c4.189,3.953,6.497,9.247,6.497,14.905    c0,10.378-7.838,19.099-18.232,20.285c-2.899,0.33-5.344,2.313-6.266,5.082c-0.922,2.77-0.153,5.821,1.969,7.824    c4.478,4.225,6.775,9.893,6.471,15.96c-0.541,10.753-10.398,19.502-21.976,19.502H217.635c-16.432,0-32.798-2.192-48.646-6.515    l-57.795-15.762v-90.464c0-4.143-3.357-7.5-7.5-7.5c-4.143,0-7.5,3.357-7.5,7.5V356.2c0,4.705-3.827,8.533-8.532,8.533h-64.13    c-4.705,0-8.532-3.828-8.532-8.533V211.91c0-4.705,3.827-8.532,8.532-8.532h64.129c4.705,0,8.532,3.827,8.532,8.532v16.032    c0,4.143,3.357,7.5,7.5,7.5s7.5-3.357,7.5-7.5v-11.875l97.439-60.899c16.663-10.414,35.856-15.919,55.505-15.919h31.943    c13.545,0,24.564,11.02,24.564,24.564v0.517h-32.581c-4.143,0-7.5,3.357-7.5,7.5s3.357,7.5,7.5,7.5l186.791-0.001    c11.633,0,21.554,8.721,22.114,19.44C497.27,204.483,495.276,209.904,491.357,214.034z"/>
	</g>
</g>
<g>
	<g>
		<path d="M328.146,276.556h-16.032c-4.143,0-7.5,3.357-7.5,7.5s3.357,7.5,7.5,7.5h16.032c4.143,0,7.5-3.357,7.5-7.5    S332.288,276.556,328.146,276.556z"/>
	</g>
</g>
<g>
	<g>
		<path d="M328.146,220.443h-16.032c-4.143,0-7.5,3.357-7.5,7.5s3.357,7.5,7.5,7.5h16.032c4.143,0,7.5-3.357,7.5-7.5    S332.288,220.443,328.146,220.443z"/>
	</g>
</g>
<g>
	<g>
		<path d="M73.239,325.662c-3.585-2.073-8.173-0.849-10.248,2.736c-1.523,2.635-4.357,4.271-7.395,4.271    c-4.705,0-8.532-3.827-8.532-8.532s3.827-8.532,8.532-8.532c4.143,0,7.5-3.357,7.5-7.5s-3.357-7.5-7.5-7.5    c-12.976,0-23.532,10.557-23.532,23.532c0,12.975,10.557,23.532,23.532,23.532c8.374,0,16.183-4.506,20.379-11.759    C78.05,332.324,76.824,327.736,73.239,325.662z"/>
	</g>
</g>
<g>
	<g>
		<circle cx="312.18" cy="332.169" r="7.5"/>
	</g>
</g>
<g>
</g>
<g>
</g>
<g>
</g>
<g>
</g>
<g>
</g>
<g>
</g>
<g>
</g>
<g>
</g>
<g>
</g>
<g>
</g>
<g>
</g>
<g>
</g>
<g>
</g>
<g>
</g>
<g>
</g>
</svg>
