<?xml version="1.0" encoding="iso-8859-1"?>
<!-- Generator: Adobe Illustrator 19.0.0, SVG Export Plug-In . SVG Version: 6.00 Build 0)  -->
<svg xmlns="http://www.w3.org/2000/svg" xmlns:xlink="http://www.w3.org/1999/xlink" version="1.1" id="Layer_1" x="0px" y="0px" viewBox="0 0 512 512" style="enable-background:new 0 0 512 512;" xml:space="preserve">
<g>
	<g>
		<path d="M426.846,461.296l-18.769-9.385c-0.177-0.088-0.287-0.266-0.287-0.462v-11.36c9.72-7.216,16.032-18.775,16.032-31.783    v-16.032c0-17.396-14.152-31.549-31.548-31.549h-16.032c-0.173,0-0.344,0.01-0.517,0.013v-6.653    c0-8.971-4.984-17.036-13.008-21.048l-18.771-9.387c-0.176-0.088-0.285-0.265-0.285-0.461V311.83    c9.72-7.216,16.032-18.775,16.032-31.784v-16.032c0-14.811-10.262-27.264-24.048-30.64v-25.989h0.516    c12.976,0,23.532-10.557,23.532-23.532c0-12.975-10.557-23.532-23.532-23.532h-0.515V31.032h84.572l-10.604,21.21    c-1.056,2.112-1.056,4.597,0,6.709l10.605,21.21h-60.01c-4.143,0-7.5,3.357-7.5,7.5s3.357,7.5,7.5,7.5h72.145    c2.6,0,5.014-1.346,6.38-3.557c1.366-2.212,1.491-4.973,0.328-7.298l-14.355-28.71l14.355-28.71    c1.163-2.325,1.038-5.086-0.328-7.298c-1.366-2.211-3.78-3.557-6.38-3.557h-96.708V7.5c0-4.143-3.357-7.5-7.5-7.5    s-7.5,3.357-7.5,7.5v154.055c-9.309,3.139-16.033,11.946-16.033,22.3s6.724,19.16,16.032,22.3v26.314h-8.532    c-0.173,0-0.344,0.01-0.517,0.013v-6.653c0-8.971-4.984-17.036-13.008-21.048l-18.771-9.387c-0.174-0.086-0.285-0.268-0.285-0.461    v-11.36c9.72-7.216,16.032-18.775,16.032-31.783v-16.032c0-17.396-14.152-31.548-31.548-31.548h-16.033    c-17.396,0-31.548,14.152-31.548,31.548v16.032c0,13.008,6.312,24.567,16.032,31.783v11.36c0,0.197-0.109,0.374-0.285,0.462    l-18.771,9.386c-8.024,4.012-13.008,12.077-13.008,21.048v6.653c-0.172-0.003-0.343-0.013-0.516-0.013h-16.032    c-17.396,0-31.548,14.152-31.548,31.548v16.032c0,13.008,6.312,24.568,16.032,31.784v11.359c0,0.196-0.109,0.373-0.286,0.462    l-18.771,9.386c-8.024,4.012-13.009,12.077-13.009,21.048v6.653c-0.172-0.003-0.343-0.013-0.516-0.013h-16.032    c-17.396,0-31.548,14.152-31.548,31.549v16.032c0,13.008,6.312,24.567,16.032,31.783v11.36c0,0.197-0.11,0.374-0.285,0.462    l-18.771,9.385c-8.023,4.012-13.008,12.077-13.008,21.048V504.5c0,4.143,3.358,7.5,7.5,7.5c4.142,0,7.5-3.357,7.5-7.5v-22.156    c0-3.253,1.807-6.177,4.716-7.632l13.023-6.511l11.885,11.885c2.931,2.932,6.827,4.546,10.972,4.546    c4.145,0,8.041-1.614,10.971-4.545l11.886-11.886l13.023,6.511c2.909,1.455,4.717,4.379,4.717,7.632V504.5    c0,4.143,3.358,7.5,7.5,7.5c4.142,0,7.5-3.357,7.5-7.5v-22.156c0-8.971-4.985-17.036-13.009-21.048l-18.77-9.385    c-0.177-0.088-0.287-0.266-0.287-0.462V440.09c9.72-7.216,16.033-18.775,16.033-31.783v-16.032    c0-11.758-6.47-22.027-16.033-27.453v-10.735c0-3.253,1.808-6.177,4.717-7.632l13.022-6.511l11.887,11.886    c3.024,3.024,6.998,4.536,10.971,4.536c3.973,0,7.947-1.512,10.972-4.536l11.886-11.886l13.022,6.511    c2.91,1.455,4.717,4.379,4.717,7.632v10.735c-9.562,5.426-16.032,15.695-16.032,27.453v16.032    c0,13.008,6.312,24.567,16.032,31.783v11.36c0,0.197-0.11,0.374-0.285,0.462l-18.771,9.385    c-8.024,4.012-13.008,12.077-13.008,21.048V504.5c0,4.143,3.358,7.5,7.5,7.5c4.142,0,7.5-3.357,7.5-7.5v-22.156    c0-3.253,1.807-6.177,4.716-7.632l13.023-6.511l11.886,11.886c2.931,2.931,6.827,4.545,10.972,4.545    c4.146,0,8.042-1.615,10.972-4.545l11.886-11.886l13.022,6.511c2.909,1.455,4.717,4.379,4.717,7.632V504.5    c0,4.143,3.357,7.5,7.5,7.5s7.5-3.357,7.5-7.5v-22.156c0-8.971-4.984-17.036-13.009-21.048l-18.769-9.385    c-0.177-0.088-0.287-0.266-0.287-0.462v-11.36c9.72-7.216,16.032-18.775,16.032-31.783v-16.032    c0-11.758-6.47-22.027-16.032-27.453v-10.735c0-3.253,1.808-6.177,4.717-7.632l13.022-6.511l11.886,11.886    c3.025,3.024,6.998,4.537,10.972,4.537s7.946-1.513,10.972-4.537l11.886-11.886l13.022,6.511c2.909,1.455,4.717,4.379,4.717,7.632    v10.735c-9.562,5.426-16.032,15.695-16.032,27.453v16.032c0,13.008,6.312,24.567,16.032,31.783v11.36    c0,0.197-0.109,0.374-0.284,0.462l-18.772,9.385c-8.023,4.012-13.008,12.077-13.008,21.048V504.5c0,4.143,3.357,7.5,7.5,7.5    s7.5-3.357,7.5-7.5v-22.156c0-3.253,1.808-6.177,4.716-7.632l13.024-6.51l11.885,11.885c3.025,3.024,6.999,4.537,10.972,4.537    c3.974,0,7.947-1.513,10.973-4.537l11.886-11.886l13.021,6.511c2.909,1.455,4.717,4.379,4.717,7.632V504.5    c0,4.143,3.357,7.5,7.5,7.5s7.5-3.357,7.5-7.5v-22.156C439.855,473.373,434.87,465.308,426.846,461.296z M128.106,469.48    c-0.037,0.037-0.151,0.151-0.364,0.151c-0.214,0-0.328-0.114-0.365-0.152l-10.252-10.251c1.339-2.313,2.084-4.977,2.084-7.779    v-3.578h17.065v3.578c0,2.802,0.745,5.466,2.084,7.779L128.106,469.48z M152.307,392.275v16.032    c0,13.545-11.02,24.564-24.565,24.564s-24.564-11.02-24.564-24.564v-16.032c0-9.125,7.423-16.549,16.548-16.549h16.032    C144.883,375.726,152.307,383.15,152.307,392.275z M319.614,183.854c0-4.705,3.827-8.532,8.532-8.532h8.016    c4.705,0,8.532,3.827,8.532,8.532s-3.827,8.532-8.532,8.532h-8.016C323.441,192.386,319.614,188.559,319.614,183.854z     M231.437,151.79v-16.032h-0.001c0-9.124,7.423-16.548,16.548-16.548h16.033c9.124,0,16.548,7.424,16.548,16.548v16.032    c0,13.545-11.02,24.564-24.564,24.564C242.456,176.354,231.437,165.334,231.437,151.79z M266.616,202.712l-10.253,10.251    c-0.037,0.037-0.15,0.151-0.364,0.151c-0.214,0-0.328-0.114-0.365-0.152l-10.251-10.25c1.339-2.313,2.084-4.977,2.084-7.78v-3.578    h17.065v3.578C264.532,197.735,265.277,200.398,266.616,202.712z M192.236,341.222c-0.201,0.2-0.528,0.202-0.73,0l-10.251-10.251    c1.339-2.313,2.084-4.977,2.084-7.78v-3.577h17.064v3.577c0,2.802,0.745,5.466,2.084,7.78L192.236,341.222z M191.871,304.613    c-13.544,0-24.564-11.02-24.564-24.565v-16.032c0-9.125,7.423-16.548,16.548-16.548h16.032c9.125,0,16.548,7.423,16.548,16.548    v16.032C216.435,293.594,205.415,304.613,191.871,304.613z M256.363,469.48c-0.037,0.037-0.15,0.151-0.364,0.151    c-0.214,0-0.328-0.114-0.365-0.152l-10.251-10.251c1.339-2.313,2.084-4.977,2.084-7.779v-3.578h17.065v3.578    c0,2.802,0.745,5.465,2.084,7.778L256.363,469.48z M280.566,392.275v16.032h-0.001c0,13.545-11.02,24.564-24.564,24.564    c-13.545,0-24.564-11.02-24.564-24.564v-16.032c0-9.125,7.423-16.549,16.548-16.549h16.033    C273.142,375.726,280.566,383.15,280.566,392.275z M296.598,323.19c0,0.197-0.109,0.374-0.285,0.462l-18.773,9.386    c-8.023,4.012-13.008,12.077-13.008,21.048v6.653c-0.172-0.003-0.343-0.013-0.516-0.013h-16.033c-0.173,0-0.344,0.01-0.516,0.013    v-6.653c0-8.971-4.984-17.036-13.008-21.048l-18.772-9.387c-0.175-0.087-0.284-0.264-0.284-0.461v-11.359    c9.72-7.216,16.032-18.775,16.032-31.784v-16.032c0-11.758-6.47-22.026-16.032-27.452v-10.735c0-3.253,1.807-6.177,4.716-7.632    l13.023-6.511l11.886,11.885c2.931,2.931,6.827,4.545,10.972,4.545c4.146,0,8.042-1.615,10.971-4.545l11.887-11.886l13.023,6.512    c2.909,1.455,4.717,4.379,4.717,7.632v10.735c-9.562,5.426-16.032,15.695-16.032,27.452v16.032    c0,13.008,6.312,24.568,16.032,31.784V323.19z M320.493,341.221c-0.201,0.202-0.527,0.202-0.728,0.001l-10.252-10.252    c1.339-2.314,2.084-4.977,2.084-7.78v-3.577h17.064v3.577c0,2.802,0.745,5.466,2.084,7.779L320.493,341.221z M320.13,304.613    c-13.544,0-24.564-11.02-24.564-24.565v-16.032c0-9.125,7.424-16.548,16.549-16.548h16.031v0c9.124,0,16.548,7.423,16.548,16.548    v16.032C344.694,293.594,333.674,304.613,320.13,304.613z M384.623,469.478c-0.199,0.205-0.526,0.207-0.729,0.001l-10.252-10.252    c1.339-2.313,2.084-4.977,2.084-7.779v-3.578h17.064v3.578c0,2.802,0.745,5.465,2.084,7.779L384.623,469.478z M384.259,432.87    c-13.544,0-24.564-11.02-24.564-24.564v-16.032h-0.001c0-9.125,7.424-16.549,16.549-16.549h16.032    c9.124,0,16.548,7.424,16.548,16.549v16.032C408.823,421.851,397.803,432.87,384.259,432.87z"/>
	</g>
</g>
<g>
</g>
<g>
</g>
<g>
</g>
<g>
</g>
<g>
</g>
<g>
</g>
<g>
</g>
<g>
</g>
<g>
</g>
<g>
</g>
<g>
</g>
<g>
</g>
<g>
</g>
<g>
</g>
<g>
</g>
</svg>
