<?xml version="1.0" encoding="iso-8859-1"?>
<!-- Generator: Adobe Illustrator 19.0.0, SVG Export Plug-In . SVG Version: 6.00 Build 0)  -->
<svg xmlns="http://www.w3.org/2000/svg" xmlns:xlink="http://www.w3.org/1999/xlink" version="1.1" id="Layer_1" x="0px" y="0px" viewBox="0 0 512.001 512.001" style="enable-background:new 0 0 512.001 512.001;" xml:space="preserve">
<g>
	<g>
		<path d="M508.841,498.384l-245.34-174.113v-108.27l7.2-5.759c5.399-4.316,8.615-10.76,8.823-17.676    c0.208-6.911-2.645-13.561-7.827-18.242c-2.398-2.166-5.204-3.704-8.196-4.654V31.032h100.606l-10.605,21.21    c-1.056,2.112-1.056,4.597,0,6.709l10.605,21.21h-76.042c-4.142,0-7.5,3.357-7.5,7.5s3.358,7.5,7.5,7.5h88.177    c2.599,0,5.013-1.346,6.38-3.557c1.367-2.212,1.491-4.973,0.328-7.298l-14.355-28.71l14.355-28.71    c1.163-2.325,1.039-5.086-0.328-7.298c-1.367-2.211-3.781-3.557-6.38-3.557H263.501V7.5c0-4.143-3.358-7.5-7.5-7.5    c-4.142,0-7.5,3.357-7.5,7.5v162.289c-2.793,0.913-5.473,2.321-7.878,4.245l-21.027,16.819l-17.365-21.698    c-4.484-5.607-11.179-8.827-18.375-8.833c-4.705,0-8.532-3.827-8.532-8.532v-8.297c9.72-7.216,16.032-18.775,16.032-31.783V95.678    c0-17.396-14.152-31.549-31.548-31.549h-16.032c-17.396,0-31.549,14.152-31.549,31.549v16.032    c0,13.008,6.312,24.567,16.033,31.783v11.359c0,0.196-0.109,0.373-0.285,0.461l-18.771,9.386    c-8.024,4.012-13.009,12.077-13.009,21.048v76.823c0,7.349,1.737,14.706,5.023,21.279l7.569,15.139    c2.25,4.5,3.439,9.538,3.439,14.57v107.423L3.16,498.384c-3.377,2.397-4.173,7.079-1.775,10.457    c2.397,3.378,7.079,4.172,10.457,1.775l244.159-173.274L500.16,510.616c1.318,0.936,2.833,1.385,4.334,1.385    c2.348,0,4.66-1.1,6.123-3.16C513.014,505.463,512.219,500.781,508.841,498.384z M127.226,111.71V95.678    c0-9.125,7.424-16.549,16.549-16.549h16.032c9.125,0,16.548,7.424,16.548,16.549v16.032c0,13.545-11.02,24.564-24.564,24.564    S127.226,125.254,127.226,111.71z M162.785,162.253l-10.63,10.631c-0.037,0.037-0.151,0.151-0.365,0.151    c-0.213,0-0.327-0.114-0.365-0.152l-10.251-10.251c1.339-2.313,2.084-4.977,2.084-7.779v-3.578h17.065v0.515    C160.323,155.547,161.213,159.099,162.785,162.253z M248.502,324.271L248.502,324.271l-49.13,34.866V238.728    c4.212,2.884,9.094,4.71,14.308,5.291c1.955,0.223,4.013,0.254,6.115,0.1c6.171-0.459,12.123-2.854,17.215-6.925l11.492-9.193    V324.271z M261.334,198.528L227.64,225.48c-2.718,2.174-5.816,3.446-8.955,3.68c-1.171,0.087-2.288,0.072-3.331-0.047    c-4.403-0.49-8.349-2.664-11.112-6.123l-6.513-8.143c-1.99-2.487-5.332-3.446-8.339-2.393c-3.006,1.054-5.018,3.892-5.018,7.077    v150.251l-17.064,12.11v-69.779c0-4.143-3.358-7.5-7.5-7.5c-4.142,0-7.5,3.357-7.5,7.5v80.424l-25.081,17.8v-96.778    c-0.001-7.349-1.738-14.706-5.024-21.28l-7.569-15.139c-2.25-4.5-3.439-9.538-3.439-14.57v-76.823    c0-3.253,1.808-6.177,4.717-7.632l13.023-6.511l11.886,11.885c2.931,2.932,6.827,4.546,10.972,4.546    c4.145,0,8.042-1.614,10.972-4.545l10.63-10.63c3.153,1.572,6.703,2.462,10.458,2.462c2.611,0.002,5.04,1.169,6.667,3.203    l22.052,27.555c2.586,3.231,7.305,3.757,10.541,1.17l26.882-21.503c3.562-2.846,8.678-2.976,11.649-0.292    c1.939,1.752,2.966,4.117,2.889,6.66C264.457,194.626,263.292,196.963,261.334,198.528z"/>
	</g>
</g>
<g>
	<g>
		<path d="M373.293,442.269l-72.856-51.703c-3.377-2.398-8.06-1.603-10.457,1.775c-2.397,3.378-1.602,8.06,1.776,10.457    l72.856,51.703c1.317,0.936,2.833,1.385,4.334,1.385c2.348,0,4.661-1.1,6.123-3.16    C377.466,449.348,376.671,444.666,373.293,442.269z"/>
	</g>
</g>
<g>
	<g>
		<path d="M276.359,373.478l-16.018-11.368c-3.377-2.396-8.06-1.603-10.457,1.775c-2.397,3.378-1.603,8.06,1.775,10.457    l16.018,11.368c1.317,0.935,2.833,1.385,4.334,1.385c2.348,0,4.66-1.1,6.123-3.16    C280.532,380.557,279.737,375.875,276.359,373.478z"/>
	</g>
</g>
<g>
</g>
<g>
</g>
<g>
</g>
<g>
</g>
<g>
</g>
<g>
</g>
<g>
</g>
<g>
</g>
<g>
</g>
<g>
</g>
<g>
</g>
<g>
</g>
<g>
</g>
<g>
</g>
<g>
</g>
</svg>
