<?xml version="1.0" encoding="iso-8859-1"?>
<!-- Generator: Adobe Illustrator 19.0.0, SVG Export Plug-In . SVG Version: 6.00 Build 0)  -->
<svg xmlns="http://www.w3.org/2000/svg" xmlns:xlink="http://www.w3.org/1999/xlink" version="1.1" id="Layer_1" x="0px" y="0px" viewBox="0 0 511.999 511.999" style="enable-background:new 0 0 511.999 511.999;" xml:space="preserve">
<g>
	<g>
		<path d="M480.452,80.161h-16.548V63.612c0-8.556-6.96-15.517-15.516-15.517h-16.032c-8.556,0-15.516,6.961-15.516,15.517v16.548    H95.161V63.612c0-8.556-6.96-15.517-15.516-15.517H63.613c-8.556,0-15.516,6.961-15.516,15.517v16.548H31.548    C14.152,80.161,0,94.313,0,111.71v320.645c0,17.396,14.152,31.549,31.548,31.549h448.903c17.396,0,31.548-14.152,31.548-31.549    V111.71C512,94.313,497.848,80.161,480.452,80.161z M431.839,63.612c0-0.285,0.231-0.516,0.516-0.516h16.032    c0.285,0,0.516,0.231,0.516,0.517v32.064c0,0.284-0.231,0.516-0.516,0.516h-16.032c-0.285,0-0.516-0.231-0.516-0.516V63.612z     M63.097,63.612c0-0.285,0.231-0.516,0.516-0.516h16.032c0.285,0,0.516,0.231,0.516,0.517v32.064c0,0.284-0.231,0.516-0.516,0.516    H63.613c-0.285,0-0.516-0.231-0.516-0.516V63.612z M480.452,448.903H31.548c-9.125,0-16.548-7.424-16.548-16.549V111.71    c0-9.125,7.423-16.549,16.548-16.549h16.548v0.517c0,8.556,6.96,15.516,15.516,15.516h16.032c8.556,0,15.516-6.96,15.516-15.516    v-0.517h321.678v0.517c0,8.556,6.96,15.516,15.516,15.516h16.032c8.556,0,15.516-6.96,15.516-15.516v-0.517h16.548    c9.125,0,16.548,7.424,16.548,16.549v320.644H497C497,441.479,489.577,448.903,480.452,448.903z"/>
	</g>
</g>
<g>
	<g>
		<path d="M472.436,128.258H39.564c-4.142,0-7.5,3.357-7.5,7.5s3.358,7.5,7.5,7.5h432.871c4.142,0,7.5-3.357,7.5-7.5    S476.578,128.258,472.436,128.258z"/>
	</g>
</g>
<g>
	<g>
		<path d="M111.71,192.386H63.613c-4.142,0-7.5,3.357-7.5,7.5s3.358,7.5,7.5,7.5h48.097c4.142,0,7.5-3.357,7.5-7.5    S115.852,192.386,111.71,192.386z"/>
	</g>
</g>
<g>
	<g>
		<path d="M223.936,192.386h-48.097c-4.142,0-7.5,3.357-7.5,7.5s3.358,7.5,7.5,7.5h48.097c4.142,0,7.5-3.357,7.5-7.5    S228.078,192.386,223.936,192.386z"/>
	</g>
</g>
<g>
	<g>
		<path d="M448.387,192.386H400.29c-4.142,0-7.5,3.357-7.5,7.5s3.358,7.5,7.5,7.5h48.097c4.142,0,7.5-3.357,7.5-7.5    S452.529,192.386,448.387,192.386z"/>
	</g>
</g>
<g>
	<g>
		<path d="M111.71,256.516H63.613c-4.142,0-7.5,3.357-7.5,7.5s3.358,7.5,7.5,7.5h48.097c4.142,0,7.5-3.357,7.5-7.5    S115.852,256.516,111.71,256.516z"/>
	</g>
</g>
<g>
	<g>
		<path d="M336.161,256.516h-48.097c-4.142,0-7.5,3.357-7.5,7.5s3.358,7.5,7.5,7.5h48.097c4.142,0,7.5-3.357,7.5-7.5    S340.303,256.516,336.161,256.516z"/>
	</g>
</g>
<g>
	<g>
		<path d="M111.71,320.646H63.613c-4.142,0-7.5,3.357-7.5,7.5s3.358,7.5,7.5,7.5h48.097c4.142,0,7.5-3.357,7.5-7.5    S115.852,320.646,111.71,320.646z"/>
	</g>
</g>
<g>
	<g>
		<path d="M223.936,320.646h-48.097c-4.142,0-7.5,3.357-7.5,7.5s3.358,7.5,7.5,7.5h48.097c4.142,0,7.5-3.357,7.5-7.5    S228.078,320.646,223.936,320.646z"/>
	</g>
</g>
<g>
	<g>
		<path d="M448.387,320.646H400.29c-4.142,0-7.5,3.357-7.5,7.5s3.358,7.5,7.5,7.5h48.097c4.142,0,7.5-3.357,7.5-7.5    S452.529,320.646,448.387,320.646z"/>
	</g>
</g>
<g>
	<g>
		<path d="M223.936,384.773h-48.097c-4.142,0-7.5,3.357-7.5,7.5s3.358,7.5,7.5,7.5h48.097c4.142,0,7.5-3.357,7.5-7.5    S228.078,384.773,223.936,384.773z"/>
	</g>
</g>
<g>
	<g>
		<path d="M336.161,384.773h-48.097c-4.142,0-7.5,3.357-7.5,7.5s3.358,7.5,7.5,7.5h48.097c4.142,0,7.5-3.357,7.5-7.5    S340.303,384.773,336.161,384.773z"/>
	</g>
</g>
<g>
	<g>
		<path d="M448.387,384.773H400.29c-4.142,0-7.5,3.357-7.5,7.5s3.358,7.5,7.5,7.5h48.097c4.142,0,7.5-3.357,7.5-7.5    S452.529,384.773,448.387,384.773z"/>
	</g>
</g>
<g>
	<g>
		<path d="M229.238,242.681c-2.928-2.929-7.677-2.929-10.606-0.001l-26.761,26.763l-10.729-10.729    c-2.929-2.928-7.678-2.928-10.606,0c-2.929,2.93-2.929,7.678,0,10.607l16.032,16.032c1.406,1.406,3.314,2.196,5.303,2.196    c1.989,0,3.897-0.79,5.303-2.197l32.064-32.064C232.167,250.358,232.167,245.61,229.238,242.681z"/>
	</g>
</g>
<g>
	<g>
		<path d="M453.69,242.681c-2.928-2.929-7.677-2.929-10.606-0.001l-26.761,26.763l-10.729-10.729c-2.929-2.928-7.678-2.928-10.606,0    c-2.929,2.93-2.929,7.678,0,10.607l16.032,16.032c1.406,1.406,3.314,2.196,5.303,2.196s3.897-0.79,5.303-2.197l32.064-32.064    C456.619,250.358,456.619,245.61,453.69,242.681z"/>
	</g>
</g>
<g>
	<g>
		<path d="M341.464,306.81c-2.928-2.929-7.677-2.929-10.606-0.001l-26.761,26.762l-10.729-10.729c-2.929-2.928-7.678-2.928-10.606,0    c-2.929,2.93-2.929,7.678,0,10.607l16.032,16.032c1.464,1.464,3.384,2.196,5.303,2.196s3.839-0.732,5.303-2.196l32.064-32.064    C344.393,314.487,344.393,309.74,341.464,306.81z"/>
	</g>
</g>
<g>
	<g>
		<path d="M117.012,370.939c-2.928-2.928-7.677-2.928-10.606-0.001L79.645,397.7l-10.729-10.729c-2.929-2.928-7.678-2.928-10.606,0    c-2.929,2.93-2.929,7.678,0,10.607l16.032,16.032c1.464,1.464,3.384,2.196,5.303,2.196s3.839-0.732,5.303-2.196l32.064-32.064    C119.941,378.616,119.941,373.867,117.012,370.939z"/>
	</g>
</g>
<g>
	<g>
		<path d="M341.464,178.552c-2.928-2.929-7.677-2.929-10.606-0.001l-26.761,26.762l-10.729-10.729    c-2.929-2.928-7.678-2.928-10.606,0c-2.929,2.93-2.929,7.678,0,10.607l16.032,16.032c1.464,1.464,3.384,2.196,5.303,2.196    s3.839-0.732,5.303-2.196l32.064-32.064C344.393,186.229,344.393,181.48,341.464,178.552z"/>
	</g>
</g>
<g>
</g>
<g>
</g>
<g>
</g>
<g>
</g>
<g>
</g>
<g>
</g>
<g>
</g>
<g>
</g>
<g>
</g>
<g>
</g>
<g>
</g>
<g>
</g>
<g>
</g>
<g>
</g>
<g>
</g>
</svg>
