<?xml version="1.0" encoding="iso-8859-1"?>
<!-- Generator: Adobe Illustrator 19.0.0, SVG Export Plug-In . SVG Version: 6.00 Build 0)  -->
<svg xmlns="http://www.w3.org/2000/svg" xmlns:xlink="http://www.w3.org/1999/xlink" version="1.1" id="Layer_1" x="0px" y="0px" viewBox="0 0 512.002 512.002" style="enable-background:new 0 0 512.002 512.002;" xml:space="preserve">
<g>
	<g>
		<path d="M371.502,134.245c-33.719-31.997-77.945-48.275-124.528-45.83c-41.996,2.202-81.522,20.375-111.297,51.171    c-29.762,30.782-46.618,70.899-47.463,112.962c-0.747,37.123,10.39,72.525,32.207,102.378    c19.973,27.329,48.219,48.289,79.983,59.464v26.716c0,6.25,1.832,12.301,5.299,17.5l7.954,11.932    c1.818,2.728,2.779,5.901,2.779,9.18v16.767c0,8.556,6.96,15.517,15.516,15.517h48.098c8.556,0,15.516-6.961,15.516-15.517    v-16.767c0-3.278,0.961-6.452,2.779-9.18l7.954-11.932c3.465-5.197,5.298-11.247,5.299-17.495l0.003-20.832    c0.001-3.461,2.115-6.609,5.262-7.834c31.159-12.13,57.769-33.102,76.95-60.647c19.634-28.193,30.011-61.319,30.011-95.797    C423.823,209.503,405.242,166.263,371.502,134.245z M280.565,496.483c0,0.286-0.231,0.517-0.515,0.517h-48.098    c-0.284,0-0.516-0.231-0.516-0.517v-16.548h49.129V496.483z M381.503,343.225c-17.474,25.094-41.708,44.195-70.082,55.241    c-8.863,3.451-14.819,12.216-14.82,21.811l-0.003,20.831c-0.001,3.277-0.962,6.451-2.779,9.178l-7.954,11.932    c-0.587,0.88-1.109,1.793-1.601,2.719H227.74c-0.492-0.926-1.015-1.838-1.602-2.719l-7.954-11.932    c-1.818-2.728-2.779-5.901-2.779-9.18v-70.987c0-3.253,1.808-6.177,4.717-7.632l13.022-6.511l11.886,11.885    c2.93,2.931,6.826,4.546,10.972,4.546s8.042-1.615,10.972-4.545l11.886-11.886l13.022,6.511c2.909,1.455,4.717,4.379,4.717,7.632    v6.122c0,4.143,3.357,7.5,7.5,7.5s7.5-3.357,7.5-7.5v-6.122c0-8.971-4.984-17.036-13.008-21.048l-18.771-9.386    c-0.174-0.087-0.285-0.268-0.285-0.462v-11.359c9.72-7.216,16.032-18.775,16.032-31.783v-16.032    c0-17.396-14.152-31.549-31.548-31.549h-16.033c-17.396,0-31.548,14.152-31.548,31.549v16.032    c0,13.008,6.312,24.567,16.032,31.783v11.359c0,0.194-0.111,0.375-0.285,0.462l-18.771,9.386    c-8.023,4.012-13.008,12.077-13.008,21.048v28.271c-26.896-10.548-50.727-28.854-67.873-52.315    c-19.862-27.177-30.001-59.414-29.321-93.226c0.77-38.264,16.13-74.785,43.251-102.837    c27.128-28.059,63.104-44.614,101.298-46.618c42.425-2.224,82.713,12.595,113.418,41.732    c30.726,29.157,47.646,68.532,47.646,110.874C408.823,287.397,399.376,317.56,381.503,343.225z M266.617,347.003l-10.252,10.253    c-0.038,0.037-0.151,0.151-0.364,0.151s-0.326-0.114-0.364-0.152l-10.252-10.252c1.339-2.314,2.084-4.977,2.084-7.78v-3.577    h17.064v0v3.577C264.533,342.025,265.278,344.689,266.617,347.003z M256.001,320.646c-13.545,0-24.564-11.02-24.564-24.564V280.05    c0-9.125,7.424-16.549,16.548-16.549h16.033c9.124,0,16.548,7.424,16.548,16.549v16.032    C280.565,309.626,269.546,320.646,256.001,320.646z"/>
	</g>
</g>
<g>
	<g>
		<path d="M63.614,248.5H7.501c-4.143,0-7.5,3.357-7.5,7.5s3.357,7.5,7.5,7.5h56.113c4.143,0,7.5-3.357,7.5-7.5    S67.757,248.5,63.614,248.5z"/>
	</g>
</g>
<g>
	<g>
		<path d="M504.501,248.5h-56.113c-4.143,0-7.5,3.357-7.5,7.5s3.357,7.5,7.5,7.5h56.113c4.143,0,7.5-3.357,7.5-7.5    S508.644,248.5,504.501,248.5z"/>
	</g>
</g>
<g>
	<g>
		<path d="M256.001,0c-4.143,0-7.5,3.357-7.5,7.5v56.113c0,4.143,3.357,7.5,7.5,7.5s7.5-3.357,7.5-7.5V7.5    C263.501,3.357,260.144,0,256.001,0z"/>
	</g>
</g>
<g>
	<g>
		<path d="M163.558,416.117c-3.59-2.07-8.175-0.843-10.245,2.745l-16.032,27.769c-2.071,3.587-0.842,8.174,2.745,10.245    c1.182,0.682,2.471,1.006,3.743,1.006c2.592,0,5.113-1.345,6.502-3.751l16.032-27.769    C168.374,422.775,167.145,418.188,163.558,416.117z"/>
	</g>
</g>
<g>
	<g>
		<path d="M371.976,55.124c-3.59-2.071-8.175-0.843-10.245,2.745l-16.032,27.769c-2.071,3.587-0.842,8.174,2.745,10.245    c1.182,0.682,2.471,1.006,3.743,1.006c2.592,0,5.113-1.345,6.502-3.751l16.032-27.769    C376.792,61.782,375.563,57.195,371.976,55.124z"/>
	</g>
</g>
<g>
	<g>
		<path d="M93.139,153.312L65.37,137.28c-3.59-2.071-8.176-0.843-10.245,2.745c-2.071,3.586-0.842,8.173,2.745,10.245l27.769,16.032    c1.182,0.682,2.471,1.006,3.743,1.006c2.592,0,5.113-1.345,6.502-3.751C97.955,159.97,96.726,155.383,93.139,153.312z"/>
	</g>
</g>
<g>
	<g>
		<path d="M454.132,361.73l-27.769-16.032c-3.589-2.071-8.175-0.843-10.245,2.745c-2.071,3.587-0.842,8.174,2.745,10.245    l27.769,16.032c1.182,0.682,2.471,1.006,3.743,1.006c2.592,0,5.113-1.345,6.502-3.751    C458.948,368.389,457.719,363.802,454.132,361.73z"/>
	</g>
</g>
<g>
	<g>
		<path d="M374.721,446.631l-16.032-27.769c-2.071-3.588-6.66-4.814-10.245-2.745c-3.587,2.071-4.816,6.658-2.745,10.245    l16.032,27.769c1.389,2.406,3.91,3.751,6.502,3.751c1.272,0,2.563-0.324,3.743-1.006    C375.563,454.805,376.792,450.218,374.721,446.631z"/>
	</g>
</g>
<g>
	<g>
		<path d="M166.303,85.638l-16.032-27.769c-2.07-3.588-6.659-4.815-10.245-2.745c-3.587,2.071-4.816,6.658-2.745,10.245    l16.032,27.769c1.39,2.406,3.91,3.751,6.502,3.751c1.272,0,2.563-0.324,3.743-1.006C167.145,93.812,168.374,89.225,166.303,85.638    z"/>
	</g>
</g>
<g>
	<g>
		<path d="M456.877,140.025c-2.071-3.588-6.659-4.815-10.245-2.745l-27.769,16.032c-3.587,2.071-4.816,6.658-2.745,10.245    c1.389,2.406,3.91,3.751,6.502,3.751c1.272,0,2.563-0.324,3.743-1.006l27.769-16.032    C457.719,148.199,458.948,143.612,456.877,140.025z"/>
	</g>
</g>
<g>
	<g>
		<path d="M95.884,348.443c-2.07-3.587-6.659-4.815-10.245-2.745L57.87,361.73c-3.587,2.071-4.816,6.658-2.745,10.245    c1.39,2.406,3.91,3.751,6.502,3.751c1.272,0,2.563-0.324,3.743-1.006l27.769-16.032C96.726,356.617,97.955,352.03,95.884,348.443z    "/>
	</g>
</g>
<g>
	<g>
		<path d="M381.893,205.1c-16.097-39.772-50.465-69.895-91.938-80.574c-4.009-1.035-8.101,1.382-9.133,5.393    c-1.033,4.011,1.381,8.1,5.393,9.133c36.885,9.499,67.454,36.294,81.773,71.676c1.181,2.918,3.989,4.688,6.955,4.688    c0.937,0,1.889-0.177,2.811-0.55C381.594,213.312,383.446,208.939,381.893,205.1z"/>
	</g>
</g>
<g>
</g>
<g>
</g>
<g>
</g>
<g>
</g>
<g>
</g>
<g>
</g>
<g>
</g>
<g>
</g>
<g>
</g>
<g>
</g>
<g>
</g>
<g>
</g>
<g>
</g>
<g>
</g>
<g>
</g>
</svg>
