<?xml version="1.0" encoding="iso-8859-1"?>
<!-- Generator: Adobe Illustrator 19.0.0, SVG Export Plug-In . SVG Version: 6.00 Build 0)  -->
<svg xmlns="http://www.w3.org/2000/svg" xmlns:xlink="http://www.w3.org/1999/xlink" version="1.1" id="Layer_1" x="0px" y="0px" viewBox="0 0 512.004 512.004" style="enable-background:new 0 0 512.004 512.004;" xml:space="preserve">
<g>
	<g>
		<path d="M403.774,418.079v-9.764c0-12.976-10.556-23.531-23.53-23.531h-8.439c1.012-43.498,10.734-71.655,20.158-98.924    c9.748-28.205,19.827-57.37,19.827-101.979c0-43.222-13.698-78.226-40.713-104.041c-21.418-20.467-48.053-32.219-72.547-38.949    c-5.111-21.908-17.072-31.896-26.391-36.424c-10.483-5.094-19.754-4.486-20.773-4.401c-3.885,0.327-6.871,3.575-6.871,7.474    v24.782c-9.697-0.498-15.961-0.255-16.888-0.213c-4.138,0.188-7.34,3.695-7.151,7.833c0.188,4.138,3.698,7.338,7.833,7.151    c0.824-0.043,83.432-3.226,132.425,43.592c23.938,22.875,36.076,54.23,36.076,93.196c0,42.09-9.231,68.801-19.005,97.08    c-9.834,28.457-19.979,57.845-20.984,103.823H184.176c-1.919-4.008-4.818-12.109-4.837-24.572    c-0.029-19.762,12.143-65.135,93.99-146.98c2.384-2.384,2.884-6.065,1.223-8.999c-1.661-2.935-5.072-4.399-8.346-3.581    c-0.229,0.059-23.352,5.597-49.013-8.984c-8.311-4.72-18.763-3.701-26.63,2.593c-11.871,9.498-37.271,23.753-76.443,15.465    l-6.279-31.395l77.317-77.316c1.406-1.407,2.196-3.314,2.196-5.304v-9.914c0-4.43,3.325-8.084,7.734-8.499    c15.068-1.42,54.326-3.398,93.337,8.856c3.96,1.246,8.163-0.956,9.403-4.907c1.241-3.952-0.956-8.162-4.907-9.403    c-41.62-13.073-83.269-10.986-99.239-9.479c-12.159,1.146-21.328,11.219-21.328,23.433v6.808l-77.959,77.958    c-1.772,1.773-2.542,4.315-2.051,6.774l8.016,40.077c0.568,2.842,2.724,5.103,5.535,5.806    c48.058,12.013,79.545-5.649,94.039-17.246c2.998-2.397,6.954-2.906,9.849-1.264c14.588,8.289,28.553,11.148,39.345,11.83    c-69.718,73.137-84.826,118.289-84.789,143.694c0.016,10.667,1.767,18.898,3.776,24.848    c-11.212,1.791-19.807,11.525-19.807,23.234v9.764c-9.308,3.139-16.031,11.945-16.031,22.299v48.093    c0,12.976,10.556,23.531,23.531,23.531h240.466c12.976,0,23.531-10.556,23.531-23.531V440.38    C419.805,430.024,413.082,421.218,403.774,418.079z M259.494,33.53V15.792c1.848,0.439,3.935,1.119,6.088,2.165    c7.304,3.55,12.702,9.917,16.125,18.971C273.739,35.35,266.235,34.267,259.494,33.53z M396.274,497.001H155.808    c-4.704,0-8.531-3.827-8.531-8.531v-48.093c0-4.704,3.827-8.531,8.531-8.531h192.373c4.143,0,7.5-3.357,7.5-7.5    s-3.357-7.5-7.5-7.5H163.308v-8.531c0-4.704,3.827-8.531,8.531-8.531h208.404c4.703,0,8.53,3.827,8.53,8.531v8.531h-8.533    c-4.143,0-7.5,3.357-7.5,7.5s3.357,7.5,7.5,7.5h16.033c4.704,0,8.531,3.827,8.531,8.531v48.093h0.001    C404.805,493.174,400.978,497.001,396.274,497.001z"/>
	</g>
</g>
<g>
	<g>
		<path d="M336.811,92.475c-4.184-2.789-8.614-5.435-13.171-7.864c-3.656-1.95-8.198-0.564-10.146,3.09    c-1.948,3.655-0.565,8.197,3.09,10.146c4.124,2.199,8.13,4.591,11.905,7.108c1.279,0.853,2.725,1.261,4.154,1.261    c2.423,0,4.802-1.173,6.247-3.34C341.188,99.43,340.257,94.772,336.811,92.475z"/>
	</g>
</g>
<g>
	<g>
		<path d="M211.917,96.225c-4.143,0-7.5,3.357-7.5,7.5v8.016c0,4.143,3.357,7.5,7.5,7.5s7.5-3.357,7.5-7.5v-8.016    C219.417,99.582,216.06,96.225,211.917,96.225z"/>
	</g>
</g>
<g>
</g>
<g>
</g>
<g>
</g>
<g>
</g>
<g>
</g>
<g>
</g>
<g>
</g>
<g>
</g>
<g>
</g>
<g>
</g>
<g>
</g>
<g>
</g>
<g>
</g>
<g>
</g>
<g>
</g>
</svg>
