<?xml version="1.0" encoding="iso-8859-1"?>
<!-- Generator: Adobe Illustrator 19.0.0, SVG Export Plug-In . SVG Version: 6.00 Build 0)  -->
<svg xmlns="http://www.w3.org/2000/svg" xmlns:xlink="http://www.w3.org/1999/xlink" version="1.1" id="Layer_1" x="0px" y="0px" viewBox="0 0 512 512" style="enable-background:new 0 0 512 512;" xml:space="preserve">
<g>
	<g>
		<path d="M472.436,0H39.564C17.749,0,0,17.749,0,39.564v432.871C0,494.251,17.749,512,39.564,512h432.871    C494.251,512,512,494.251,512,472.436V39.564C512,17.749,494.251,0,472.436,0z M248.5,497H39.564C26.02,497,15,485.98,15,472.436    V263.5h80.678c12.976,0,23.532-10.546,23.532-23.508v-16.059c0-9.58-3.904-18.289-10.711-23.896    c-8.476-6.98-13.337-17.262-13.337-28.207c0-11.066,4.932-21.422,13.532-28.411c8.599-6.988,19.907-9.665,31.03-7.342    c14.075,2.938,25.308,14.456,27.953,28.658c2.482,13.334-2.141,26.436-12.366,35.045c-7.003,5.896-11.019,14.605-11.019,23.894    v16.304c0,12.97,10.552,23.521,23.521,23.521H248.5v80.678c0,4.705-3.816,8.532-8.508,8.532h-16.371    c-4.819,0-9.326-2.07-12.365-5.68c-12.134-14.412-30.549-20.938-49.266-17.452c-20.114,3.745-36.428,19.673-40.596,39.633    c-3.25,15.563,0.536,31.438,10.385,43.557c9.85,12.12,24.448,19.071,40.051,19.071c15.443,0,29.945-6.853,39.787-18.802    c2.746-3.334,7.235-5.247,12.316-5.247h16.059c4.691,0,8.508,3.827,8.508,8.532V497z M497,248.5h-8.532    c-4.143,0-7.5,3.357-7.5,7.5s3.357,7.5,7.5,7.5H497v208.936C497,485.98,485.98,497,472.436,497H263.5v-80.678    c0-12.976-10.545-23.532-23.508-23.532h-16.059c-9.579,0-18.289,3.904-23.895,10.711c-6.981,8.477-17.263,13.338-28.208,13.338    c-11.066,0-21.422-4.932-28.411-13.531c-6.988-8.599-9.665-19.909-7.342-31.03c2.939-14.075,14.456-25.309,28.658-27.953    c13.333-2.484,26.435,2.14,35.046,12.367c5.896,7.002,14.585,11.019,23.839,11.019h16.371c12.962,0,23.508-10.557,23.508-23.532    V263.5h80.678c4.705,0,8.532,3.827,8.532,8.532v16.293c0,4.853-2.07,9.379-5.682,12.419    c-14.411,12.135-20.935,30.552-17.45,49.266c3.745,20.113,19.672,36.428,39.633,40.596c3.654,0.763,7.325,1.138,10.961,1.138    c11.849,0,23.323-3.985,32.596-11.522c12.12-9.851,19.071-24.448,19.071-40.052c0-15.444-6.853-29.945-18.801-39.785    c-3.286-2.706-5.248-7.328-5.248-12.363v-15.988c0-4.705,3.827-8.532,8.532-8.532h40.081c4.143,0,7.5-3.357,7.5-7.5    s-3.357-7.5-7.5-7.5h-40.081c-12.976,0-23.532,10.557-23.532,23.532v15.988c0,9.608,3.904,18.335,10.712,23.941    c8.476,6.98,13.337,17.262,13.337,28.207c0,11.066-4.932,21.423-13.531,28.411c-8.599,6.99-19.911,9.668-31.03,7.342    c-14.075-2.938-25.309-14.456-27.953-28.658c-2.482-13.334,2.141-26.436,12.365-35.045c7.004-5.896,11.021-14.605,11.021-23.894    v-16.293c0-12.976-10.557-23.532-23.532-23.532H263.5v-80.688c0-4.699,3.822-8.521,8.521-8.521h16.304    c4.853,0,9.38,2.07,12.419,5.68c12.134,14.412,30.55,20.938,49.266,17.452c20.113-3.745,36.428-19.672,40.596-39.633    c3.25-15.562-0.535-31.438-10.385-43.557c-9.851-12.12-24.448-19.071-40.052-19.071c-15.444,0-29.945,6.853-39.785,18.801    c-2.747,3.335-7.236,5.248-12.317,5.248h-16.059c-4.691,0-8.508-3.827-8.508-8.532V55.597c0-4.143-3.357-7.5-7.5-7.5    c-4.142,0-7.5,3.357-7.5,7.5v40.081c0,12.976,10.546,23.532,23.508,23.532h16.059c9.579,0,18.289-3.904,23.896-10.712    c6.98-8.476,17.262-13.337,28.207-13.337c11.066,0,21.422,4.932,28.411,13.532c6.988,8.598,9.665,19.908,7.342,31.029    c-2.938,14.075-14.456,25.309-28.658,27.953c-13.334,2.485-26.436-2.141-35.045-12.367c-5.896-7.002-14.605-11.019-23.894-11.019    h-16.304c-12.97,0-23.521,10.552-23.521,23.521v80.69h-80.688c-4.699,0-8.521-3.822-8.521-8.521v-16.304    c0-4.854,2.07-9.38,5.68-12.419c14.412-12.135,20.936-30.552,17.451-49.266c-3.745-20.113-19.672-36.428-39.632-40.596    c-15.563-3.249-31.438,0.535-43.558,10.385c-12.12,9.851-19.071,24.448-19.071,40.052c0,15.444,6.853,29.945,18.802,39.785    c3.334,2.746,5.247,7.236,5.247,12.318v16.058c0,4.691-3.828,8.508-8.532,8.508H15V39.564C15,26.02,26.02,15,39.564,15H248.5    v8.532c0,4.143,3.358,7.5,7.5,7.5c4.143,0,7.5-3.357,7.5-7.5V15h208.936C485.98,15,497,26.02,497,39.564V248.5z"/>
	</g>
</g>
<g>
</g>
<g>
</g>
<g>
</g>
<g>
</g>
<g>
</g>
<g>
</g>
<g>
</g>
<g>
</g>
<g>
</g>
<g>
</g>
<g>
</g>
<g>
</g>
<g>
</g>
<g>
</g>
<g>
</g>
</svg>
