<?xml version="1.0" encoding="iso-8859-1"?>
<!-- Generator: Adobe Illustrator 19.0.0, SVG Export Plug-In . SVG Version: 6.00 Build 0)  -->
<svg xmlns="http://www.w3.org/2000/svg" xmlns:xlink="http://www.w3.org/1999/xlink" version="1.1" id="Layer_1" x="0px" y="0px" viewBox="0 0 512 512" style="enable-background:new 0 0 512 512;" xml:space="preserve">
<g>
	<g>
		<path d="M180.291,433.482c-39.601-16.915-72.83-47.065-93.567-84.898c-1.99-3.631-6.545-4.963-10.183-2.972    c-3.632,1.991-4.962,6.549-2.972,10.182c22.346,40.765,58.154,73.254,100.829,91.482c0.961,0.41,1.96,0.605,2.942,0.605    c2.913,0,5.685-1.708,6.901-4.556C185.869,439.516,184.1,435.109,180.291,433.482z"/>
	</g>
</g>
<g>
	<g>
		<path d="M435.454,345.621c-3.634-1.992-8.191-0.661-10.182,2.971c-20.735,37.823-53.958,67.968-93.548,84.883    c-3.81,1.627-5.578,6.035-3.95,9.844c1.217,2.848,3.987,4.555,6.9,4.555c0.982,0,1.982-0.195,2.942-0.605    c42.665-18.229,78.466-50.712,100.808-91.466C440.415,352.171,439.085,347.612,435.454,345.621z"/>
	</g>
</g>
<g>
	<g>
		<path d="M433.616,147.887c-25.464-41.748-64.908-73.323-111.066-88.908c-3.926-1.324-8.181,0.782-9.505,4.707    c-1.325,3.925,0.781,8.18,4.706,9.505c42.826,14.46,79.427,43.762,103.059,82.507c1.413,2.317,3.882,3.595,6.41,3.595    c1.331,0,2.679-0.354,3.898-1.098C434.654,156.038,435.772,151.423,433.616,147.887z"/>
	</g>
</g>
<g>
	<g>
		<path d="M198.98,63.676c-1.325-3.924-5.58-6.031-9.504-4.707c-46.17,15.583-85.622,47.161-111.092,88.916    c-2.156,3.536-1.038,8.151,2.498,10.308c1.22,0.744,2.567,1.098,3.898,1.098c2.528,0,4.997-1.279,6.41-3.595    c23.637-38.752,60.245-68.057,103.082-82.515C198.197,71.856,200.304,67.601,198.98,63.676z"/>
	</g>
</g>
<g>
	<g>
		<path d="M298.588,100.57l-18.771-9.385c-0.177-0.088-0.286-0.265-0.286-0.462v-11.36c9.72-7.216,16.032-18.775,16.032-31.783    V31.548C295.564,14.153,281.411,0,264.017,0h-16.032c-17.396,0-31.549,14.153-31.549,31.548V47.58    c0,13.008,6.312,24.567,16.032,31.783v11.36c0,0.197-0.109,0.374-0.286,0.462l-18.77,9.385    c-8.024,4.011-13.009,12.077-13.009,21.048v22.156c0,4.142,3.357,7.5,7.5,7.5s7.5-3.358,7.5-7.5v-22.156    c0-3.253,1.807-6.177,4.717-7.631l13.023-6.511l11.885,11.885c2.931,2.931,6.827,4.545,10.972,4.545    c4.145,0,8.041-1.614,10.972-4.544l11.886-11.886l13.023,6.512c2.909,1.454,4.716,4.379,4.716,7.631v22.156    c0,4.142,3.357,7.5,7.5,7.5s7.5-3.358,7.5-7.5v-22.156C311.596,112.647,306.611,104.582,298.588,100.57z M256.363,108.754    c-0.037,0.038-0.15,0.151-0.364,0.151c-0.214,0-0.327-0.113-0.364-0.151l-10.252-10.252c1.339-2.313,2.084-4.977,2.084-7.779    v-4.515c2.75,0.607,5.603,0.937,8.532,0.937c2.929,0,5.782-0.33,8.532-0.937v4.515c0,2.802,0.745,5.466,2.084,7.779    L256.363,108.754z M256.001,72.145c-13.544,0-24.564-11.02-24.564-24.565V31.548h-0.001c0-9.125,7.424-16.548,16.549-16.548    h16.032c9.124,0,16.548,7.424,16.548,16.548V47.58C280.564,61.125,269.545,72.145,256.001,72.145z"/>
	</g>
</g>
<g>
	<g>
		<path d="M298.588,461.296l-18.771-9.385c-0.177-0.088-0.286-0.265-0.286-0.462v-11.36c9.72-7.216,16.032-18.775,16.032-31.783    v-16.032c0-17.396-14.152-31.548-31.548-31.548h-16.032c-17.396,0-31.549,14.153-31.549,31.548v16.032    c0,13.008,6.312,24.567,16.032,31.783v11.36c0,0.197-0.109,0.374-0.286,0.462l-18.77,9.385    c-8.024,4.011-13.009,12.076-13.009,21.048V504.5c0,4.142,3.357,7.5,7.5,7.5s7.5-3.358,7.5-7.5v-22.156    c0-3.253,1.807-6.177,4.717-7.631l13.023-6.511l11.885,11.885c2.931,2.931,6.827,4.545,10.972,4.545    c4.145,0,8.041-1.614,10.972-4.545l11.886-11.885l13.023,6.511c2.909,1.454,4.716,4.378,4.716,7.631V504.5    c0,4.142,3.357,7.5,7.5,7.5s7.5-3.358,7.5-7.5v-22.156C311.596,473.373,306.611,465.308,298.588,461.296z M256.363,469.48    c-0.037,0.038-0.15,0.151-0.364,0.151c-0.214,0-0.327-0.113-0.364-0.151l-10.252-10.252c1.339-2.313,2.084-4.977,2.084-7.779    v-4.515c2.75,0.607,5.603,0.937,8.532,0.937c2.929,0,5.782-0.33,8.532-0.937v4.515c0,2.802,0.745,5.466,2.084,7.779    L256.363,469.48z M256.001,432.87c-13.544,0-24.564-11.02-24.564-24.564v-16.032h-0.001c0-9.125,7.424-16.548,16.549-16.548    h16.032c9.124,0,16.548,7.424,16.548,16.548v16.032C280.564,421.851,269.545,432.87,256.001,432.87z"/>
	</g>
</g>
<g>
	<g>
		<path d="M106.201,276.925l-18.771-9.385c-0.176-0.088-0.285-0.265-0.285-0.461v-11.36c9.72-7.216,16.032-18.775,16.032-31.783    v-16.032c0-17.396-14.152-31.549-31.549-31.549H55.596c-17.396,0-31.548,14.153-31.548,31.549v16.032    c0,13.008,6.312,24.567,16.032,31.783v11.36c0,0.197-0.109,0.373-0.286,0.461l-18.771,9.385    c-8.024,4.012-13.008,12.077-13.008,21.048v22.156c0,4.142,3.357,7.5,7.5,7.5s7.5-3.358,7.5-7.5v-22.156    c0-3.252,1.808-6.177,4.718-7.631l13.022-6.511l11.886,11.885c3.024,3.025,6.998,4.537,10.971,4.537    c3.974,0,7.947-1.512,10.973-4.537L86.47,283.83l13.023,6.511c2.909,1.455,4.717,4.379,4.717,7.632v22.156    c0,4.142,3.357,7.5,7.5,7.5s7.5-3.358,7.5-7.5v-22.156C119.209,289.003,114.225,280.938,106.201,276.925z M63.978,285.108    c-0.202,0.202-0.528,0.203-0.73,0.001l-10.251-10.251c1.339-2.314,2.084-4.977,2.084-7.78v-4.515    c2.75,0.607,5.603,0.937,8.532,0.937c2.929,0,5.782-0.33,8.532-0.937v4.515c0,2.802,0.745,5.466,2.084,7.779L63.978,285.108z     M63.613,248.499c-13.544,0-24.564-11.02-24.564-24.564v-16.032h-0.001c0-9.125,7.424-16.549,16.548-16.549h16.032    c9.125,0,16.549,7.424,16.549,16.549v16.032C88.177,237.48,77.157,248.499,63.613,248.499z"/>
	</g>
</g>
<g>
	<g>
		<path d="M490.975,276.925l-18.771-9.385c-0.177-0.088-0.286-0.265-0.286-0.461v-11.36c9.72-7.216,16.032-18.775,16.032-31.783    v-16.032c0-17.396-14.152-31.549-31.548-31.549h-16.032c-17.396,0-31.549,14.153-31.549,31.549v16.032    c0,13.008,6.312,24.567,16.032,31.783v11.36c0,0.197-0.109,0.374-0.285,0.461l-18.771,9.386    c-8.023,4.012-13.008,12.077-13.008,21.048v22.156c0,4.142,3.357,7.5,7.5,7.5s7.5-3.358,7.5-7.5v-22.156    c0-3.252,1.808-6.177,4.717-7.631l13.023-6.511l11.886,11.885c3.024,3.025,6.998,4.537,10.971,4.537    c3.974,0,7.947-1.512,10.973-4.537l11.885-11.885l13.022,6.511c2.91,1.455,4.718,4.379,4.718,7.631v22.156    c0,4.142,3.357,7.5,7.5,7.5s7.5-3.358,7.5-7.5v-22.156C503.983,289.002,498.999,280.937,490.975,276.925z M448.752,285.109    c-0.201,0.201-0.527,0.202-0.73,0l-10.252-10.252c1.339-2.313,2.084-4.977,2.084-7.779v-4.515c2.75,0.607,5.603,0.937,8.532,0.937    s5.782-0.33,8.532-0.937v4.515c0,2.802,0.746,5.466,2.084,7.78L448.752,285.109z M448.387,248.499    c-13.544,0-24.564-11.02-24.564-24.564v-16.032h-0.001c0-9.125,7.424-16.549,16.549-16.549h16.032    c9.124,0,16.548,7.424,16.548,16.549v16.032C472.951,237.48,461.931,248.499,448.387,248.499z"/>
	</g>
</g>
<g>
</g>
<g>
</g>
<g>
</g>
<g>
</g>
<g>
</g>
<g>
</g>
<g>
</g>
<g>
</g>
<g>
</g>
<g>
</g>
<g>
</g>
<g>
</g>
<g>
</g>
<g>
</g>
<g>
</g>
</svg>
