<?xml version="1.0" encoding="iso-8859-1"?>
<!-- Generator: Adobe Illustrator 19.0.0, SVG Export Plug-In . SVG Version: 6.00 Build 0)  -->
<svg xmlns="http://www.w3.org/2000/svg" xmlns:xlink="http://www.w3.org/1999/xlink" version="1.1" id="Layer_1" x="0px" y="0px" viewBox="0 0 512.001 512.001" style="enable-background:new 0 0 512.001 512.001;" xml:space="preserve">
<g>
	<g>
		<path d="M345.011,78.947c-57.135-45.148-139.108-40.306-190.674,11.26c-51.569,51.569-56.408,133.544-11.256,190.681    c1.48,1.873,3.674,2.851,5.889,2.85c1.628,0,3.269-0.527,4.646-1.615c3.25-2.568,3.802-7.285,1.234-10.535    c-40.436-51.168-36.097-124.585,10.093-170.774c46.188-46.188,119.602-50.527,170.769-10.098    c3.247,2.567,7.965,2.017,10.534-1.235C348.814,86.232,348.261,81.515,345.011,78.947z"/>
	</g>
</g>
<g>
	<g>
		<path d="M256,0C150.202,0,64.129,86.073,64.129,191.871c0,44.953,9.916,89.732,29.471,133.095    c15.583,34.553,37.285,68.274,64.505,100.229c46.265,54.311,91.879,84.336,93.798,85.588c1.245,0.812,2.671,1.218,4.097,1.218    c1.426,0,2.852-0.406,4.097-1.218c1.92-1.252,47.534-31.277,93.798-85.588c27.22-31.954,48.923-65.676,64.506-100.229    c19.556-43.362,29.471-88.142,29.471-133.095C447.871,86.073,361.798,0,256,0z M404.832,318.564    c-14.955,33.226-35.839,65.716-62.071,96.568c-37.057,43.582-74.568,71.646-86.763,80.265    c-12.155-8.582-49.444-36.461-86.474-79.931c-26.304-30.878-47.248-63.402-62.25-96.668    c-18.676-41.411-28.145-84.115-28.145-126.928C79.129,94.344,158.473,15,256,15s176.871,79.344,176.871,176.871    C432.871,234.602,423.438,277.228,404.832,318.564z"/>
	</g>
</g>
<g>
	<g>
		<path d="M292.225,153.567c-1.087-0.725-27.121-17.654-69.76-9.131c-3.506,0.701-6.029,3.779-6.029,7.354v8.017    c0,4.143,3.358,7.5,7.5,7.5c4.142,0,7.5-3.358,7.5-7.5v-1.696c16.065-2.296,28.779-0.413,36.939,1.735    c9.832,2.587,15.375,6.103,15.56,6.222c1.271,0.839,2.705,1.24,4.123,1.24c2.424,0,4.802-1.173,6.247-3.341    C296.603,160.521,295.671,155.864,292.225,153.567z"/>
	</g>
</g>
<g>
	<g>
		<path d="M368.923,102.86c-2.568-3.251-7.284-3.803-10.533-1.235c-3.25,2.568-3.804,7.284-1.235,10.534    c40.431,51.167,36.09,124.581-10.098,170.769c-0.919,0.919-1.853,1.815-2.792,2.701c-1.599-0.95-3.281-1.762-5.042-2.423    l-38.121-14.295c-3.313-1.242-5.537-4.452-5.537-7.989v-19.231c1.633-1.302,3.213-2.69,4.733-4.166    c12.456-12.087,19.315-28.301,19.315-45.654v-14.262l2.146-4.294c3.84-7.68,5.869-16.277,5.869-24.863v-44.759    c0-4.143-3.357-7.5-7.5-7.5H236.6c-28.8,0-52.23,23.431-52.23,52.259c0,8.587,2.03,17.185,5.87,24.864l2.146,4.293v11.908    c0,20.629,9.437,39.284,24.048,51.452v19.952c0,3.537-2.225,6.747-5.536,7.989l-29.261,10.973    c-7.521,2.821-13.675,8.663-16.881,16.028c-1.359,3.122-0.445,6.768,2.227,8.879c26.197,20.701,57.607,30.895,88.922,30.893    c36.985-0.002,73.833-14.224,101.758-42.148C409.228,241.968,414.069,159.995,368.923,102.86z M207.387,189.518v-13.679    c0-1.164-0.271-2.313-0.792-3.354l-2.938-5.877c-2.804-5.607-4.286-11.886-4.286-18.184c0-20.529,16.701-37.23,37.23-37.23h76.028    v37.259c0,6.27-1.481,12.548-4.285,18.155l-2.938,5.877c-0.521,1.042-0.792,2.19-0.792,3.354v16.032    c0,13.262-5.242,25.652-14.762,34.89c-9.516,9.233-22.063,14.109-35.353,13.7C228.521,239.682,207.387,216.828,207.387,189.518z     M248.499,320.466c-23.382-1.344-46.535-9.055-66.69-23.311c1.452-1.401,3.186-2.509,5.096-3.226l29.261-10.973    c2.063-0.774,3.963-1.837,5.684-3.113l26.649,19.988V320.466z M230.458,267.549c0.63-2.123,0.977-4.349,0.977-6.627v-10.63    c7.008,3.093,14.632,4.923,22.613,5.163c0.661,0.02,1.317,0.029,1.975,0.029c8.565,0,16.864-1.691,24.541-4.906v10.343    c0,2.279,0.347,4.504,0.977,6.627L256,286.706L230.458,267.549z M263.5,320.458v-20.627l26.65-19.988    c1.721,1.276,3.621,2.339,5.684,3.113l35.554,13.332C311.151,310.931,287.518,319.046,263.5,320.458z"/>
	</g>
</g>
<g>
</g>
<g>
</g>
<g>
</g>
<g>
</g>
<g>
</g>
<g>
</g>
<g>
</g>
<g>
</g>
<g>
</g>
<g>
</g>
<g>
</g>
<g>
</g>
<g>
</g>
<g>
</g>
<g>
</g>
</svg>
