<?xml version="1.0" encoding="iso-8859-1"?>
<!-- Generator: Adobe Illustrator 19.0.0, SVG Export Plug-In . SVG Version: 6.00 Build 0)  -->
<svg xmlns="http://www.w3.org/2000/svg" xmlns:xlink="http://www.w3.org/1999/xlink" version="1.1" id="Layer_1" x="0px" y="0px" viewBox="0 0 512 512" style="enable-background:new 0 0 512 512;" xml:space="preserve">
<g>
	<g>
		<path d="M504.5,352.711h-32.607c0.006-0.173,0.026-0.342,0.026-0.517v-56.112c0-5.836-3.242-10.925-8.016-13.574v-16.599    c0-8.971-4.984-17.036-13.008-21.048l-18.77-9.385c-0.176-0.088-0.286-0.265-0.286-0.462v-11.36    c9.72-7.216,16.032-18.775,16.032-31.783v-16.032c0-17.396-14.152-31.549-31.548-31.549h-16.032    c-17.396,0-31.549,14.152-31.549,31.549v16.032c0,13.008,6.312,24.567,16.033,31.783v11.359c0,0.196-0.11,0.374-0.286,0.462    l-18.771,9.385c-8.024,4.012-13.009,12.077-13.009,21.048v16.599c-4.774,2.649-8.016,7.738-8.016,13.574v56.112    c0,0.174,0.02,0.344,0.026,0.517h-25.133c0.006-0.173,0.026-0.342,0.026-0.517v-56.112c0-5.836-3.242-10.925-8.016-13.574v-16.599    c0-8.971-4.984-17.036-13.008-21.048l-18.77-9.385c-0.176-0.088-0.286-0.265-0.286-0.462v-11.36    c9.72-7.216,16.032-18.775,16.032-31.783v-16.032c0-17.396-14.152-31.549-31.548-31.549h-16.032    c-17.396,0-31.548,14.152-31.548,31.549v16.032c0,13.008,6.312,24.567,16.032,31.783v11.36c0,0.197-0.11,0.374-0.285,0.462    l-18.771,9.385c-8.024,4.012-13.008,12.077-13.008,21.048v16.599c-4.774,2.649-8.016,7.738-8.016,13.574v56.112    c0,0.174,0.02,0.344,0.026,0.517H167.28c0.006-0.173,0.026-0.342,0.026-0.517v-56.112c0-5.836-3.242-10.925-8.016-13.574v-16.599    c0-8.971-4.985-17.036-13.009-21.048l-18.77-9.385c-0.177-0.088-0.287-0.266-0.287-0.462v-11.359    c9.72-7.216,16.033-18.775,16.033-31.783v-16.032c0-17.396-14.153-31.549-31.549-31.549H95.677    c-17.396,0-31.548,14.152-31.548,31.549v16.032c0,13.008,6.312,24.567,16.032,31.783v11.36c0,0.197-0.11,0.374-0.285,0.462    l-18.771,9.385c-8.023,4.012-13.008,12.077-13.008,21.048v16.599c-4.774,2.649-8.016,7.738-8.016,13.574v56.112    c0,0.174,0.02,0.344,0.026,0.517H7.5c-4.142,0-7.5,3.357-7.5,7.5s3.358,7.5,7.5,7.5h497c4.142,0,7.5-3.357,7.5-7.5    S508.642,352.711,504.5,352.711z M79.129,191.872V175.84c0-9.125,7.423-16.549,16.548-16.549h16.032    c9.125,0,16.549,7.424,16.549,16.549v16.032c0,13.545-11.02,24.564-24.565,24.564S79.129,205.416,79.129,191.872z M114.31,242.794    l-10.252,10.252c-0.037,0.037-0.151,0.151-0.365,0.151c-0.213,0-0.327-0.114-0.365-0.152l-10.252-10.251    c1.339-2.313,2.084-4.977,2.084-7.779v-3.578h17.066v3.578C112.226,237.817,112.971,240.481,114.31,242.794z M63.097,265.909    c0-3.253,1.807-6.177,4.716-7.632l13.023-6.511l11.885,11.885c2.931,2.932,6.827,4.546,10.972,4.546    c4.145,0,8.042-1.614,10.972-4.545l11.886-11.886l13.023,6.511c2.909,1.455,4.717,4.379,4.717,7.632v14.656H63.097V265.909z     M152.307,352.194c0,0.285-0.231,0.517-0.516,0.517H55.597c-0.285,0-0.516-0.231-0.516-0.517v-56.112    c0-0.285,0.231-0.517,0.516-0.517h96.194c0.285,0,0.516,0.231,0.516,0.517V352.194z M231.436,191.872V175.84    c0-9.125,7.423-16.549,16.548-16.549h16.032c9.125,0,16.548,7.424,16.548,16.549v16.032c0,13.545-11.02,24.564-24.564,24.564    S231.436,205.416,231.436,191.872z M266.616,242.794l-10.251,10.251c-0.201,0.203-0.529,0.202-0.73,0.001l-10.251-10.252    c1.339-2.314,2.084-4.977,2.084-7.78v-3.578h17.064v0.001v3.578C264.532,237.817,265.277,240.481,266.616,242.794z     M215.405,265.909c-0.002-3.253,1.805-6.177,4.715-7.632l13.024-6.511l11.885,11.886c3.025,3.024,6.998,4.537,10.972,4.537    s7.947-1.513,10.972-4.538l11.885-11.885l13.024,6.511c2.909,1.455,4.716,4.379,4.716,7.632v14.656h-81.193V265.909z     M304.612,352.194c0,0.285-0.231,0.517-0.516,0.517h-96.193c-0.285,0-0.516-0.231-0.516-0.517v-56.112    c0-0.285,0.231-0.517,0.516-0.517h96.193c0.285,0,0.516,0.231,0.516,0.517V352.194z M383.742,191.872V175.84h0    c0-9.125,7.424-16.549,16.549-16.549h16.032c9.125,0,16.548,7.424,16.548,16.549v16.032c0,13.545-11.02,24.564-24.564,24.564    C394.762,216.436,383.742,205.416,383.742,191.872z M418.923,242.794l-10.252,10.252c-0.037,0.037-0.151,0.151-0.364,0.151    c-0.214,0-0.328-0.114-0.365-0.152l-10.251-10.251c1.339-2.313,2.084-4.977,2.084-7.779v-3.578h17.064v3.578    C416.839,237.817,417.584,240.48,418.923,242.794z M367.709,265.909c0-3.253,1.808-6.177,4.717-7.632l13.023-6.511l11.885,11.885    c2.931,2.932,6.827,4.546,10.972,4.546s8.041-1.614,10.971-4.545l11.886-11.886l13.023,6.511c2.91,1.455,4.717,4.379,4.717,7.632    v14.656h-81.194V265.909z M456.919,352.194c0,0.285-0.231,0.517-0.516,0.517h-96.194c-0.285,0-0.516-0.231-0.516-0.517v-56.112    c0-0.285,0.231-0.517,0.516-0.517h96.194c0.285,0,0.516,0.231,0.516,0.517V352.194z"/>
	</g>
</g>
<g>
	<g>
		<path d="M264.016,320.647h-16.032c-4.142,0-7.5,3.357-7.5,7.5s3.358,7.5,7.5,7.5h16.032c4.142,0,7.5-3.357,7.5-7.5    S268.158,320.647,264.016,320.647z"/>
	</g>
</g>
<g>
	<g>
		<path d="M111.709,320.647H95.677c-4.142,0-7.5,3.357-7.5,7.5s3.358,7.5,7.5,7.5h16.032c4.142,0,7.5-3.357,7.5-7.5    S115.852,320.647,111.709,320.647z"/>
	</g>
</g>
<g>
	<g>
		<path d="M416.323,320.647h-16.032c-4.142,0-7.5,3.357-7.5,7.5s3.358,7.5,7.5,7.5h16.032c4.142,0,7.5-3.357,7.5-7.5    S420.465,320.647,416.323,320.647z"/>
	</g>
</g>
<g>
</g>
<g>
</g>
<g>
</g>
<g>
</g>
<g>
</g>
<g>
</g>
<g>
</g>
<g>
</g>
<g>
</g>
<g>
</g>
<g>
</g>
<g>
</g>
<g>
</g>
<g>
</g>
<g>
</g>
</svg>
