<?xml version="1.0" encoding="iso-8859-1"?>
<!-- Generator: Adobe Illustrator 19.0.0, SVG Export Plug-In . SVG Version: 6.00 Build 0)  -->
<svg xmlns="http://www.w3.org/2000/svg" xmlns:xlink="http://www.w3.org/1999/xlink" version="1.1" id="Layer_1" x="0px" y="0px" viewBox="0 0 512.001 512.001" style="enable-background:new 0 0 512.001 512.001;" xml:space="preserve">
<g>
	<g>
		<path d="M115.718,408.822c-4.143,0-7.5,3.357-7.5,7.5v32.064c0,4.143,3.357,7.5,7.5,7.5s7.5-3.357,7.5-7.5v-32.064    C123.218,412.18,119.86,408.822,115.718,408.822z"/>
	</g>
</g>
<g>
	<g>
		<path d="M359.736,287.906c-7.037-40.896-13.008-94.175-17.746-158.357c-2.858-38.728-16.768-71.414-40.224-94.525    C278.516,12.11,247.442,0,211.911,0s-66.604,12.11-89.855,35.022C98.6,58.134,84.69,90.82,81.833,129.548    C77.094,193.73,71.123,247.01,64.086,287.904c-1.137,6.605,1.8,13.211,7.483,16.828c7.504,4.776,31.776,15.377,54.13,23.573    l-47.914,20.534c-20.47,8.772-33.696,28.831-33.696,51.102v48.446c0,4.143,3.357,7.5,7.5,7.5s7.5-3.357,7.5-7.5V399.94    c0-16.262,9.658-30.908,24.604-37.314l25.71-11.018c20.56,39.711,59.468,64.199,102.508,64.199c15.489,0,30.535-3.135,44.72-9.317    c3.798-1.654,5.534-6.074,3.879-9.871c-1.653-3.798-6.075-5.535-9.871-3.879c-12.283,5.353-25.313,8.067-38.728,8.067    c-37.016,0-70.571-21.004-88.668-55.13l14.785-6.336c14.435,27.185,42.71,44.401,73.883,44.401    c17.225,0,33.769-5.195,47.843-15.023c13.405-9.361,23.661-22.255,29.744-37.338c24.346-8.388,54.22-21.216,62.753-26.647    C357.935,301.118,360.873,294.511,359.736,287.906z M211.911,368.742c-25.159,0-48.018-13.663-60.039-35.335l0.322-0.138    c11.615-4.979,19.12-16.361,19.12-28.998v-25.004c12.475,5.328,26.197,8.281,40.597,8.281c14.4,0,28.122-2.953,40.597-8.281    v25.004c0,12.637,7.505,24.019,19.122,28.998l0.305,0.131C259.953,354.859,236.89,368.742,211.911,368.742z M344.198,292.079    c-7.696,4.897-41.132,19.308-66.563,27.445l-0.097-0.041c-6.093-2.611-10.03-8.582-10.03-15.211v-32.924    c28.894-18.425,48.097-50.758,48.097-87.493V171.39c0-10.823-4.48-21.303-12.293-28.75    c-41.016-39.096-127.252-46.144-130.903-46.424c-4.109-0.332-7.732,2.771-8.052,6.9c-0.319,4.129,2.771,7.735,6.899,8.055    c0.841,0.065,84.573,6.932,121.706,42.326c4.856,4.63,7.643,11.151,7.643,17.893v12.465c0,48.906-39.788,88.694-88.693,88.694    c-48.905,0-88.693-39.788-88.693-88.694v-6.122c0-3.03,1.535-5.752,4.104-7.279c10.065-5.983,24.34-17.669,35.185-39.356    c1.853-3.705,0.351-8.21-3.354-10.063c-3.707-1.852-8.211-0.351-10.063,3.354c-9.704,19.407-22.605,29.113-29.434,33.172    c-7.056,4.195-11.439,11.925-11.439,20.173v6.122c0,36.736,19.203,69.068,48.097,87.493v32.924c0,6.629-3.938,12.6-10.029,15.211    l-0.097,0.042c-25.436-8.148-58.918-22.581-66.566-27.448c-0.602-0.383-0.869-0.961-0.754-1.63    c7.118-41.37,13.148-95.133,17.922-159.797c2.588-35.048,14.964-64.422,35.792-84.944C152.971,25.618,180.401,15,211.911,15    s58.94,10.618,79.328,30.707c20.828,20.522,33.204,49.896,35.792,84.944c4.773,64.664,10.804,118.427,17.922,159.797    C345.101,291.304,344.625,291.807,344.198,292.079z"/>
	</g>
</g>
<g>
	<g>
		<path d="M372.234,320.646c-52.757,0-95.677,42.921-95.677,95.677c0,52.757,42.92,95.678,95.677,95.678    c52.757,0,95.678-42.921,95.678-95.678C467.911,363.566,424.99,320.646,372.234,320.646z M372.234,497    c-44.485,0-80.677-36.192-80.677-80.678c0-44.486,36.191-80.677,80.677-80.677c44.486,0,80.678,36.191,80.678,80.677    C452.911,460.808,416.721,497,372.234,497z"/>
	</g>
</g>
<g>
	<g>
		<path d="M425.635,386.971c-2.928-2.927-7.676-2.929-10.607,0l-50.81,50.81l-26.761-26.762c-2.93-2.928-7.678-2.928-10.607,0    c-2.929,2.93-2.929,7.678,0,10.607l32.064,32.064c1.465,1.464,3.384,2.196,5.304,2.196c1.919,0,3.839-0.732,5.304-2.196    l56.113-56.112C428.563,394.648,428.563,389.9,425.635,386.971z"/>
	</g>
</g>
<g>
</g>
<g>
</g>
<g>
</g>
<g>
</g>
<g>
</g>
<g>
</g>
<g>
</g>
<g>
</g>
<g>
</g>
<g>
</g>
<g>
</g>
<g>
</g>
<g>
</g>
<g>
</g>
<g>
</g>
</svg>
