<?xml version="1.0" encoding="iso-8859-1"?>
<!-- Generator: Adobe Illustrator 19.0.0, SVG Export Plug-In . SVG Version: 6.00 Build 0)  -->
<svg xmlns="http://www.w3.org/2000/svg" xmlns:xlink="http://www.w3.org/1999/xlink" version="1.1" id="Layer_1" x="0px" y="0px" viewBox="0 0 511.999 511.999" style="enable-background:new 0 0 511.999 511.999;" xml:space="preserve">
<g>
	<g>
		<path d="M428.347,176.354c-1.004,0-2.012,0.02-3.03,0.059c-6.712-17.536-18.485-33.155-33.603-44.439    c-17.309-12.919-37.904-19.748-59.561-19.748c-8.724,0-17.426,1.169-25.943,3.479c-22.437-32.405-58.769-51.576-98.307-51.576    c-26.312,0-51.273,8.381-72.188,24.235c-18.738,14.205-33.082,33.949-40.817,56.039C42.145,146.908,0,190.612,0,243.976    c0,54.967,44.719,99.686,99.686,99.686h36.073c4.142,0,7.5-3.357,7.5-7.5s-3.358-7.5-7.5-7.5H99.686    C52.99,328.661,15,290.67,15,243.976c0-46.645,37.903-84.603,84.529-84.686c0.26,0.019,0.521,0.032,0.786,0.035    c0.021,0,0.042,0,0.063,0c3.315,0,6.241-2.179,7.188-5.361c6.301-21.18,19.516-40.231,37.211-53.646    c18.285-13.861,40.114-21.188,63.126-21.188c36.255,0,69.437,18.447,88.761,49.347c1.836,2.936,5.441,4.236,8.729,3.139    c8.74-2.912,17.743-4.389,26.76-4.389c37.217,0,69.695,23.844,80.816,59.332c1.071,3.414,4.396,5.602,7.958,5.214    c2.614-0.28,5.042-0.417,7.419-0.417c37.855,0,68.653,30.798,68.653,68.653c0,37.855-30.798,68.653-68.653,68.653h-52.105    c-4.143,0-7.5,3.357-7.5,7.5s3.357,7.5,7.5,7.5h52.105c46.127,0,83.653-37.526,83.653-83.653S474.474,176.354,428.347,176.354z"/>
	</g>
</g>
<g>
	<g>
		<path d="M344.785,246l-46.721-46.722c-4.445-4.444-10.355-6.893-16.641-6.893H175.839c-8.556,0-15.516,6.961-15.516,15.517    v224.451c0,8.556,6.96,15.517,15.516,15.517h160.322c8.556,0,15.517-6.961,15.517-15.517V262.641    C351.678,256.354,349.23,250.445,344.785,246z M336.678,432.354c0,0.285-0.231,0.517-0.517,0.517H175.839    c-0.285,0-0.516-0.231-0.516-0.517V207.903c0-0.285,0.231-0.517,0.516-0.517h96.71V256c0,8.556,6.96,15.517,15.516,15.517h24.049    c4.143,0,7.5-3.357,7.5-7.5s-3.357-7.5-7.5-7.5h-24.049c-0.284,0-0.516-0.231-0.516-0.517v-46.021l46.63,46.63    c1.611,1.611,2.499,3.753,2.499,6.032V432.354z"/>
	</g>
</g>
<g>
	<g>
		<path d="M293.922,339.49l-32.066-40.08c-1.423-1.778-3.578-2.814-5.856-2.814s-4.433,1.036-5.856,2.814l-32.064,40.081    c-2.588,3.234-2.063,7.954,1.171,10.542c3.234,2.589,7.955,2.063,10.542-1.171l18.708-23.386v66.797c0,4.143,3.358,7.5,7.5,7.5    c4.143,0,7.5-3.357,7.5-7.5v-66.797l18.708,23.386c1.481,1.852,3.661,2.814,5.861,2.814c1.643,0,3.298-0.537,4.681-1.644    C295.985,347.444,296.51,342.724,293.922,339.49z"/>
	</g>
</g>
<g>
	<g>
		<path d="M278.042,131.264c-12.932-17.224-31.617-29.055-52.613-33.317c-4.058-0.816-8.018,1.799-8.842,5.858    c-0.824,4.06,1.799,8.019,5.858,8.843c17.393,3.53,32.878,13.339,43.603,27.622c1.474,1.963,3.724,2.997,6.003,2.997    c1.567,0,3.147-0.489,4.497-1.503C279.861,139.279,280.529,134.576,278.042,131.264z"/>
	</g>
</g>
<g>
	<g>
		<path d="M391.971,180.349c-7.981-15.099-21.224-26.539-37.288-32.214c-3.905-1.382-8.189,0.667-9.569,4.573    c-1.381,3.906,0.666,8.19,4.573,9.57c12.501,4.417,22.808,13.324,29.022,25.081c1.346,2.545,3.946,3.997,6.638,3.997    c1.182,0,2.381-0.28,3.498-0.871C392.507,188.549,393.907,184.011,391.971,180.349z"/>
	</g>
</g>
<g>
</g>
<g>
</g>
<g>
</g>
<g>
</g>
<g>
</g>
<g>
</g>
<g>
</g>
<g>
</g>
<g>
</g>
<g>
</g>
<g>
</g>
<g>
</g>
<g>
</g>
<g>
</g>
<g>
</g>
</svg>
