<?xml version="1.0" encoding="iso-8859-1"?>
<!-- Generator: Adobe Illustrator 19.0.0, SVG Export Plug-In . SVG Version: 6.00 Build 0)  -->
<svg xmlns="http://www.w3.org/2000/svg" xmlns:xlink="http://www.w3.org/1999/xlink" version="1.1" id="Layer_1" x="0px" y="0px" viewBox="0 0 512 512" style="enable-background:new 0 0 512 512;" xml:space="preserve">
<g>
	<g>
		<path d="M360.21,184.371h-0.517V39.565c0-4.142-3.357-7.5-7.5-7.5H159.807c-4.143,0-7.5,3.358-7.5,7.5v144.807h-0.517    c-4.143,0-7.5,3.358-7.5,7.5c0,4.142,3.357,7.5,7.5,7.5h208.42c4.143,0,7.5-3.358,7.5-7.5    C367.71,187.73,364.353,184.371,360.21,184.371z M184.371,184.373h-17.064v-25.081h17.064V184.373z M216.436,184.373h-17.064    v-25.081h17.064V184.373z M248.5,184.373h-17.064v-25.081H248.5V184.373z M280.564,184.373H263.5v-25.081h17.064V184.373z     M312.629,184.373h-17.064v-25.081h17.064V184.373z M344.693,184.371h-17.064V159.29h17.064V184.371z M344.693,144.29H167.307    V47.065h177.386V144.29z"/>
	</g>
</g>
<g>
	<g>
		<path d="M223.936,104.211c-4.143,0-7.5,3.358-7.5,7.5v8.016c0,4.142,3.357,7.5,7.5,7.5s7.5-3.358,7.5-7.5v-8.016    C231.436,107.569,228.079,104.211,223.936,104.211z"/>
	</g>
</g>
<g>
	<g>
		<path d="M256,104.211c-4.143,0-7.5,3.358-7.5,7.5v8.016c0,4.142,3.357,7.5,7.5,7.5s7.5-3.358,7.5-7.5v-8.016    C263.5,107.569,260.143,104.211,256,104.211z"/>
	</g>
</g>
<g>
	<g>
		<path d="M288.064,104.211c-4.143,0-7.5,3.358-7.5,7.5v8.016c0,4.142,3.358,7.5,7.5,7.5c4.143,0,7.5-3.358,7.5-7.5v-8.016    C295.564,107.569,292.207,104.211,288.064,104.211z"/>
	</g>
</g>
<g>
	<g>
		<path d="M320.129,104.211c-4.143,0-7.5,3.358-7.5,7.5v8.016c0,4.142,3.357,7.5,7.5,7.5s7.5-3.358,7.5-7.5v-8.016    C327.629,107.569,324.272,104.211,320.129,104.211z"/>
	</g>
</g>
<g>
	<g>
		<path d="M191.871,104.211c-4.143,0-7.5,3.358-7.5,7.5v8.016c0,4.142,3.358,7.5,7.5,7.5c4.143,0,7.5-3.358,7.5-7.5v-8.016    C199.371,107.569,196.014,104.211,191.871,104.211z"/>
	</g>
</g>
<g>
	<g>
		<path d="M223.936,64.129c-4.143,0-7.5,3.358-7.5,7.5v8.016c0,4.142,3.357,7.5,7.5,7.5s7.5-3.358,7.5-7.5v-8.016    C231.436,67.488,228.079,64.129,223.936,64.129z"/>
	</g>
</g>
<g>
	<g>
		<path d="M256,64.129c-4.143,0-7.5,3.358-7.5,7.5v8.016c0,4.142,3.357,7.5,7.5,7.5s7.5-3.358,7.5-7.5v-8.016    C263.5,67.488,260.143,64.129,256,64.129z"/>
	</g>
</g>
<g>
	<g>
		<path d="M288.064,64.129c-4.143,0-7.5,3.358-7.5,7.5v8.016c0,4.142,3.358,7.5,7.5,7.5c4.143,0,7.5-3.358,7.5-7.5v-8.016    C295.564,67.488,292.207,64.129,288.064,64.129z"/>
	</g>
</g>
<g>
	<g>
		<path d="M320.129,64.129c-4.143,0-7.5,3.358-7.5,7.5v8.016c0,4.142,3.357,7.5,7.5,7.5s7.5-3.358,7.5-7.5v-8.016    C327.629,67.488,324.272,64.129,320.129,64.129z"/>
	</g>
</g>
<g>
	<g>
		<path d="M191.871,64.129c-4.143,0-7.5,3.358-7.5,7.5v8.016c0,4.142,3.358,7.5,7.5,7.5c4.143,0,7.5-3.358,7.5-7.5v-8.016    C199.371,67.488,196.014,64.129,191.871,64.129z"/>
	</g>
</g>
<g>
	<g>
		<path d="M151.79,464.936h-0.516V360.21c0-4.142-3.357-7.5-7.5-7.5H15.517c-4.143,0-7.5,3.358-7.5,7.5v104.726H7.5    c-4.143,0-7.5,3.358-7.5,7.5c0,4.142,3.357,7.5,7.5,7.5h144.29c4.143,0,7.5-3.358,7.5-7.5    C159.29,468.293,155.933,464.936,151.79,464.936z M40.081,464.936H23.017v-25.081h17.064V464.936z M72.146,464.936H55.081v-25.081    h17.065V464.936z M104.21,464.936H87.146v-25.081h17.064V464.936z M136.274,464.936H119.21v-25.081h17.064V464.936z     M136.274,424.855H23.017V367.71h113.257V424.855z"/>
	</g>
</g>
<g>
	<g>
		<path d="M47.581,384.775c-4.143,0-7.5,3.358-7.5,7.5v8.016c0,4.142,3.357,7.5,7.5,7.5s7.5-3.358,7.5-7.5v-8.016    C55.081,388.134,51.724,384.775,47.581,384.775z"/>
	</g>
</g>
<g>
	<g>
		<path d="M79.646,384.775c-4.143,0-7.5,3.358-7.5,7.5v8.016c0,4.142,3.357,7.5,7.5,7.5s7.5-3.358,7.5-7.5v-8.016    C87.146,388.134,83.789,384.775,79.646,384.775z"/>
	</g>
</g>
<g>
	<g>
		<path d="M111.71,384.775c-4.143,0-7.5,3.358-7.5,7.5v8.016c0,4.142,3.357,7.5,7.5,7.5s7.5-3.358,7.5-7.5v-8.016    C119.21,388.134,115.853,384.775,111.71,384.775z"/>
	</g>
</g>
<g>
	<g>
		<path d="M385.782,323.788l-44.339-62.075c-5.909-8.272-15.506-13.211-25.672-13.211H263.5v-24.564c0-4.142-3.357-7.5-7.5-7.5    s-7.5,3.358-7.5,7.5v24.563h-52.27c-10.166,0-19.763,4.938-25.673,13.211l-44.338,62.075c-2.407,3.371-1.626,8.055,1.744,10.463    c3.372,2.408,8.056,1.627,10.463-1.744l44.338-62.075c3.1-4.339,8.135-6.93,13.467-6.93h52.27v64.645c0,4.142,3.357,7.5,7.5,7.5    s7.5-3.358,7.5-7.5v-64.645h52.27c5.332,0,10.367,2.591,13.467,6.93l44.338,62.075c1.464,2.049,3.77,3.141,6.11,3.141    c1.508,0,3.031-0.454,4.353-1.397C387.409,331.842,388.19,327.158,385.782,323.788z"/>
	</g>
</g>
<g>
	<g>
		<path d="M328.146,464.936h-0.517V360.21c0-4.142-3.357-7.5-7.5-7.5H191.871c-4.143,0-7.5,3.358-7.5,7.5v104.726h-0.517    c-4.143,0-7.5,3.358-7.5,7.5c0,4.142,3.357,7.5,7.5,7.5h144.291c4.143,0,7.5-3.358,7.5-7.5    C335.645,468.293,332.288,464.936,328.146,464.936z M216.435,464.936h-17.064v-25.081h17.064V464.936z M248.5,464.936h-17.064    v-25.081H248.5V464.936z M280.564,464.936H263.5v-25.081h17.064V464.936z M312.628,464.936h-17.064v-25.081h17.064V464.936z     M312.629,424.855H199.371V367.71h113.258V424.855z"/>
	</g>
</g>
<g>
	<g>
		<path d="M223.936,384.775c-4.143,0-7.5,3.358-7.5,7.5v8.016c0,4.142,3.357,7.5,7.5,7.5s7.5-3.358,7.5-7.5v-8.016    C231.436,388.134,228.079,384.775,223.936,384.775z"/>
	</g>
</g>
<g>
	<g>
		<path d="M256,384.775c-4.143,0-7.5,3.358-7.5,7.5v8.016c0,4.142,3.357,7.5,7.5,7.5s7.5-3.358,7.5-7.5v-8.016    C263.5,388.134,260.143,384.775,256,384.775z"/>
	</g>
</g>
<g>
	<g>
		<path d="M288.064,384.775c-4.143,0-7.5,3.358-7.5,7.5v8.016c0,4.142,3.358,7.5,7.5,7.5c4.143,0,7.5-3.358,7.5-7.5v-8.016    C295.564,388.134,292.207,384.775,288.064,384.775z"/>
	</g>
</g>
<g>
	<g>
		<path d="M504.5,464.936h-0.517V360.21c0-4.142-3.357-7.5-7.5-7.5H368.226c-4.143,0-7.5,3.358-7.5,7.5v104.726h-0.516    c-4.143,0-7.5,3.358-7.5,7.5c0,4.142,3.357,7.5,7.5,7.5H504.5c4.143,0,7.5-3.358,7.5-7.5    C512,468.293,508.643,464.936,504.5,464.936z M392.79,464.936h-17.064v-25.081h17.064V464.936z M424.854,464.936H407.79v-25.081    h17.064V464.936z M456.918,464.936h-17.064v-25.081h17.064V464.936z M488.983,464.936h-17.064v-25.081h17.064V464.936z     M488.983,424.855H375.726V367.71h113.257V424.855z"/>
	</g>
</g>
<g>
	<g>
		<path d="M400.29,384.775c-4.143,0-7.5,3.358-7.5,7.5v8.016c0,4.142,3.357,7.5,7.5,7.5s7.5-3.358,7.5-7.5v-8.016    C407.79,388.134,404.433,384.775,400.29,384.775z"/>
	</g>
</g>
<g>
	<g>
		<path d="M432.354,384.775c-4.143,0-7.5,3.358-7.5,7.5v8.016c0,4.142,3.358,7.5,7.5,7.5c4.143,0,7.5-3.358,7.5-7.5v-8.016    C439.854,388.134,436.497,384.775,432.354,384.775z"/>
	</g>
</g>
<g>
	<g>
		<path d="M464.419,384.775c-4.143,0-7.5,3.358-7.5,7.5v8.016c0,4.142,3.357,7.5,7.5,7.5s7.5-3.358,7.5-7.5v-8.016    C471.919,388.134,468.562,384.775,464.419,384.775z"/>
	</g>
</g>
<g>
</g>
<g>
</g>
<g>
</g>
<g>
</g>
<g>
</g>
<g>
</g>
<g>
</g>
<g>
</g>
<g>
</g>
<g>
</g>
<g>
</g>
<g>
</g>
<g>
</g>
<g>
</g>
<g>
</g>
</svg>
