<?xml version="1.0" encoding="iso-8859-1"?>
<!-- Generator: Adobe Illustrator 19.0.0, SVG Export Plug-In . SVG Version: 6.00 Build 0)  -->
<svg xmlns="http://www.w3.org/2000/svg" xmlns:xlink="http://www.w3.org/1999/xlink" version="1.1" id="Layer_1" x="0px" y="0px" viewBox="0 0 512 512" style="enable-background:new 0 0 512 512;" xml:space="preserve">
<g>
	<g>
		<path d="M347.531,217.913l-45.885-13.766c-3.638-1.091-6.081-4.375-6.081-8.172v-16.532c3.299-2.2,6.453-4.674,9.412-7.448    c14.396-13.494,22.652-32.545,22.652-52.269v-14.261l2.993-5.987c3.286-6.573,5.023-13.931,5.023-21.278V7.5    c0-4.142-3.357-7.5-7.5-7.5h-96.194c-30.656,0-55.597,24.94-55.597,55.597v22.604c0,7.345,1.736,14.702,5.022,21.278l2.994,5.986    v12.065c0,25.568,12.703,48.313,32.064,61.584v16.861c0,3.797-2.443,7.081-6.081,8.172l-45.885,13.766    c-16.864,5.059-28.195,20.289-28.195,37.896v56.304c0.001,4.142,3.359,7.5,7.501,7.5c4.143,0,7.5-3.358,7.5-7.5v-56.304    c0-10.932,7.035-20.387,17.506-23.529l45.885-13.766c2.431-0.729,4.664-1.82,6.659-3.194l25.365,19.024    c2.741,2.056,6.025,3.084,9.311,3.084c3.284,0,6.569-1.028,9.31-3.084l25.366-19.024c1.995,1.374,4.228,2.465,6.659,3.194    l45.885,13.766c10.471,3.141,17.506,12.597,17.506,23.529v56.304c0,4.142,3.357,7.5,7.5,7.5s7.5-3.358,7.5-7.5v-56.304    C375.726,238.202,364.395,222.973,347.531,217.913z M256.308,222.345c-0.182,0.136-0.435,0.137-0.618,0l-25.406-19.054    c0.746-2.312,1.151-4.77,1.151-7.315v-9.042c6.239,2.342,12.885,3.818,19.812,4.267c1.614,0.104,3.219,0.156,4.818,0.156    c8.488,0,16.741-1.482,24.499-4.31v8.928c0,2.545,0.405,5.003,1.151,7.315L256.308,222.345z M252.217,176.231    c-29.634-1.918-52.846-27.703-52.846-58.702l-0.001-13.836c0-1.164-0.271-2.313-0.792-3.354l-3.784-7.569    c-2.25-4.502-3.439-9.541-3.439-14.57V55.597c0-22.385,18.212-40.597,40.597-40.597h88.694v63.199    c0,5.031-1.189,10.07-3.439,14.57l-3.785,7.57c-0.521,1.041-0.792,2.19-0.792,3.354v16.032c0,15.823-6.36,30.499-17.911,41.325    C283.179,171.868,268.073,177.26,252.217,176.231z"/>
	</g>
</g>
<g>
	<g>
		<path d="M256,248.5c-4.143,0-7.5,3.358-7.5,7.5v56.113c0,4.142,3.357,7.5,7.5,7.5s7.5-3.358,7.5-7.5V256    C263.5,251.858,260.143,248.5,256,248.5z"/>
	</g>
</g>
<g>
	<g>
		<path d="M183.854,264.532c-4.143,0-7.5,3.358-7.5,7.5v40.081c0,4.142,3.357,7.5,7.5,7.5s7.5-3.358,7.5-7.5v-40.081    C191.354,267.89,187.997,264.532,183.854,264.532z"/>
	</g>
</g>
<g>
	<g>
		<path d="M328.146,264.532c-4.143,0-7.5,3.358-7.5,7.5v40.081c0,4.142,3.357,7.5,7.5,7.5s7.5-3.358,7.5-7.5v-40.081    C335.646,267.89,332.289,264.532,328.146,264.532z"/>
	</g>
</g>
<g>
	<g>
		<path d="M256,464.936c-12.976,0-23.532,10.557-23.532,23.532C232.468,501.443,243.024,512,256,512s23.532-10.557,23.532-23.532    C279.532,475.493,268.976,464.936,256,464.936z M256,497c-4.705,0-8.532-3.828-8.532-8.532c0-4.704,3.827-8.532,8.532-8.532    s8.532,3.828,8.532,8.532C264.532,493.172,260.705,497,256,497z"/>
	</g>
</g>
<g>
	<g>
		<path d="M103.693,464.936c-12.976,0-23.532,10.557-23.532,23.532c0,12.975,10.557,23.532,23.532,23.532    c12.975,0,23.532-10.557,23.532-23.532C127.225,475.493,116.669,464.936,103.693,464.936z M103.693,497    c-4.705,0-8.532-3.828-8.532-8.532c0-4.704,3.827-8.532,8.532-8.532c4.705,0,8.532,3.828,8.532,8.532    C112.225,493.172,108.398,497,103.693,497z"/>
	</g>
</g>
<g>
	<g>
		<path d="M408.307,464.936c-12.976,0-23.532,10.557-23.532,23.532c0,12.975,10.556,23.532,23.532,23.532    s23.532-10.557,23.532-23.532C431.839,475.493,421.282,464.936,408.307,464.936z M408.307,497c-4.705,0-8.532-3.828-8.532-8.532    c0-4.704,3.827-8.532,8.532-8.532s8.532,3.828,8.532,8.532C416.839,493.172,413.012,497,408.307,497z"/>
	</g>
</g>
<g>
	<g>
		<path d="M385.78,444.028l-44.339-62.075c-5.909-8.272-15.506-13.211-25.672-13.211H263.5v-24.564c0-4.142-3.357-7.5-7.5-7.5    s-7.5,3.358-7.5,7.5v24.564h-52.27c-10.166,0-19.763,4.939-25.673,13.211l-44.338,62.075c-2.408,3.371-1.627,8.055,1.743,10.462    c3.372,2.408,8.056,1.626,10.463-1.744l44.338-62.074c3.101-4.339,8.135-6.93,13.467-6.93h52.27v56.629c0,4.142,3.357,7.5,7.5,7.5    s7.5-3.358,7.5-7.5v-56.629h52.27c5.332,0,10.366,2.591,13.467,6.93l44.338,62.075c1.464,2.05,3.77,3.141,6.11,3.141    c1.508,0,3.031-0.454,4.353-1.397C387.407,452.083,388.188,447.399,385.78,444.028z"/>
	</g>
</g>
<g>
	<g>
		<path d="M300.581,73.646c-34.809-26.106-84.917-9.837-87.034-9.131c-3.063,1.021-5.128,3.887-5.128,7.115v16.032    c0,4.142,3.357,7.5,7.5,7.5s7.5-3.359,7.5-7.501V77.327c12.532-3.079,45.34-8.799,68.162,8.319c3.316,2.486,8.015,1.813,10.5-1.5    C304.566,80.832,303.894,76.131,300.581,73.646z"/>
	</g>
</g>
<g>
</g>
<g>
</g>
<g>
</g>
<g>
</g>
<g>
</g>
<g>
</g>
<g>
</g>
<g>
</g>
<g>
</g>
<g>
</g>
<g>
</g>
<g>
</g>
<g>
</g>
<g>
</g>
<g>
</g>
</svg>
