<?xml version="1.0" encoding="iso-8859-1"?>
<!-- Generator: Adobe Illustrator 19.0.0, SVG Export Plug-In . SVG Version: 6.00 Build 0)  -->
<svg xmlns="http://www.w3.org/2000/svg" xmlns:xlink="http://www.w3.org/1999/xlink" version="1.1" id="Layer_1" x="0px" y="0px" viewBox="0 0 512 512" style="enable-background:new 0 0 512 512;" xml:space="preserve">
<g>
	<g>
		<path d="M472.325,159.807l39.29-117.871c0.762-2.287,0.379-4.801-1.031-6.757c-1.41-1.956-3.674-3.115-6.084-3.115H47.064v-8.532    C47.064,10.557,36.508,0,23.532,0C10.556,0,0,10.557,0,23.532V504.5c0,4.142,3.358,7.5,7.5,7.5s7.5-3.358,7.5-7.5V23.532    C15,18.828,18.828,15,23.532,15c4.704,0,8.532,3.828,8.532,8.532v32.064c0,4.142,3.358,7.5,7.5,7.5c4.142,0,7.5-3.358,7.5-7.5    v-8.532h447.03l-36.79,110.371c-0.513,1.54-0.513,3.204,0,4.743l36.79,110.37H47.064V87.661c0-4.142-3.358-7.5-7.5-7.5    c-4.142,0-7.5,3.358-7.5,7.5V504.5c0,4.142,3.358,7.5,7.5,7.5c4.142,0,7.5-3.358,7.5-7.5V287.548H504.5    c2.411,0,4.675-1.159,6.084-3.115c1.41-1.956,1.793-4.47,1.031-6.757L472.325,159.807z"/>
	</g>
</g>
<g>
	<g>
		<path d="M151.794,112.225H87.666c-4.142,0-7.5,3.358-7.5,7.5c0,4.142,3.358,7.5,7.5,7.5h24.565v72.662    c-0.001,4.142,3.357,7.5,7.499,7.5c4.142,0,7.5-3.358,7.5-7.5v-72.662h24.564c4.142,0,7.5-3.358,7.5-7.5    C159.294,115.583,155.936,112.225,151.794,112.225z"/>
	</g>
</g>
<g>
	<g>
		<path d="M223.94,192.388h-40.597v-25.081h24.564c4.142,0,7.5-3.358,7.5-7.5c0-4.142-3.358-7.5-7.5-7.5h-24.564v-25.081h40.597    c4.142,0,7.5-3.358,7.5-7.5c0-4.142-3.358-7.5-7.5-7.5h-48.097c-4.142,0-7.5,3.358-7.5,7.5v80.162c0,4.142,3.358,7.5,7.5,7.5    h48.097c4.142,0,7.5-3.358,7.5-7.5C231.44,195.746,228.082,192.388,223.94,192.388z"/>
	</g>
</g>
<g>
	<g>
		<path d="M319.301,197.733l-24.048-80.162c-0.952-3.172-3.872-5.345-7.184-5.345h-16.032c-3.312,0-6.232,2.172-7.184,5.345    l-24.048,80.162c-1.19,3.968,1.061,8.149,5.028,9.339c3.968,1.191,8.149-1.062,9.339-5.029l5.611-18.704h38.54l5.611,18.704    c0.975,3.249,3.955,5.347,7.181,5.347c0.713,0,1.439-0.103,2.158-0.318C318.24,205.882,320.492,201.701,319.301,197.733z     M265.283,168.339l12.334-41.113h4.872l12.334,41.113H265.283z"/>
	</g>
</g>
<g>
	<g>
		<path d="M416.323,112.226h-7.211c-3.163,0-5.985,1.984-7.057,4.959l-21.802,60.558l-21.8-60.558    c-1.071-2.976-3.894-4.959-7.057-4.959h-7.214c-4.142,0-7.5,3.358-7.5,7.5v80.162c0,4.142,3.358,7.5,7.5,7.5    c4.142,0,7.5-3.358,7.5-7.5v-57.226l21.186,58.849c0.166,0.735,0.487,1.473,0.995,2.299c1.405,2.29,3.861,3.578,6.396,3.578    c1.093,0,2.2-0.239,3.244-0.741c1.855-0.891,3.188-2.457,3.827-4.273c0.426-1.191,13.09-36.365,21.493-59.706v57.218    c0,4.143,3.358,7.501,7.5,7.501c4.142,0,7.5-3.358,7.5-7.5v-80.161C423.823,115.584,420.465,112.226,416.323,112.226z"/>
	</g>
</g>
<g>
</g>
<g>
</g>
<g>
</g>
<g>
</g>
<g>
</g>
<g>
</g>
<g>
</g>
<g>
</g>
<g>
</g>
<g>
</g>
<g>
</g>
<g>
</g>
<g>
</g>
<g>
</g>
<g>
</g>
</svg>
