<?xml version="1.0" encoding="iso-8859-1"?>
<!-- Generator: Adobe Illustrator 19.0.0, SVG Export Plug-In . SVG Version: 6.00 Build 0)  -->
<svg xmlns="http://www.w3.org/2000/svg" xmlns:xlink="http://www.w3.org/1999/xlink" version="1.1" id="Layer_1" x="0px" y="0px" viewBox="0 0 512 512" style="enable-background:new 0 0 512 512;" xml:space="preserve">
<g>
	<g>
		<path d="M488.468,144.291H291.991l11.544-103.898c0.235-2.12-0.442-4.24-1.865-5.83c-1.423-1.589-3.455-2.498-5.589-2.498h-80.162    c-2.134,0-4.166,0.909-5.589,2.498c-1.423,1.59-2.101,3.71-1.865,5.83l11.544,103.898H23.532C10.557,144.291,0,154.846,0,167.823    v288.581c0,12.976,10.557,23.532,23.532,23.532h464.936c12.976,0,23.532-10.557,23.532-23.532V167.823    C512,154.846,501.443,144.291,488.468,144.291z M287.701,47.064l-14.314,128.831c-0.029,0.262-0.249,0.459-0.513,0.459h-33.748    c-0.264,0-0.483-0.197-0.513-0.459L224.299,47.064H287.701z M497,456.403L497,456.403c0,4.705-3.827,8.532-8.532,8.532H23.532    c-4.705,0-8.532-3.828-8.532-8.532v-288.58c0-4.705,3.827-8.532,8.532-8.532h198.144l2.029,18.262    c0.874,7.869,7.504,13.802,15.421,13.802h33.748c7.917,0,14.547-5.934,15.421-13.803l2.029-18.262h198.144    c4.705,0,8.532,3.828,8.532,8.532V456.403z"/>
	</g>
</g>
<g>
	<g>
		<path d="M207.903,208.419H63.613c-8.556,0-15.517,6.96-15.517,15.516v192.387c0,8.556,6.961,15.516,15.517,15.516h144.29    c8.556,0,15.516-6.96,15.516-15.516V223.935C223.419,215.38,216.459,208.419,207.903,208.419z M176.357,416.839H95.161v-46.721    c0-3.252,1.807-6.176,4.717-7.631l13.023-6.512l11.887,11.886c3.024,3.024,6.998,4.537,10.971,4.537    c3.974,0,7.947-1.513,10.973-4.537l11.886-11.886l13.023,6.512c2.909,1.455,4.716,4.378,4.716,7.631V416.839z M146.375,347.001    l-10.251,10.251c-0.2,0.201-0.528,0.203-0.73,0L125.142,347c1.339-2.314,2.084-4.977,2.084-7.78v-4.514    c2.749,0.608,5.602,0.938,8.532,0.938s5.782-0.33,8.532-0.937v4.514C144.29,342.023,145.036,344.688,146.375,347.001z     M135.758,320.644c-13.545,0-24.564-11.02-24.564-24.564v-16.032c0-9.125,7.424-16.548,16.549-16.548h16.032    c9.124,0,16.548,7.423,16.548,16.548v16.032C160.322,309.625,149.303,320.644,135.758,320.644z M208.419,416.323    c0,0.285-0.231,0.516-0.516,0.516h-16.549v-46.721c0-8.971-4.984-17.036-13.007-21.047l-18.771-9.386    c-0.177-0.088-0.286-0.265-0.286-0.462v-11.078c0-0.092-0.01-0.181-0.014-0.272c9.728-7.215,16.046-18.779,16.046-31.793v-16.032    c0-17.396-14.152-31.548-31.548-31.548h-16.032c-17.396,0-31.549,14.152-31.549,31.548v16.032    c0,13.014,6.318,24.578,16.046,31.793c-0.003,0.091-0.014,0.18-0.014,0.272v11.078c0,0.197-0.109,0.374-0.285,0.462l-18.77,9.385    c-8.024,4.011-13.009,12.076-13.009,21.047v46.721H63.613c-0.285,0-0.517-0.231-0.517-0.516V223.935    c0-0.285,0.231-0.516,0.517-0.516h144.29c0.284,0,0.516,0.231,0.516,0.516V416.323z"/>
	</g>
</g>
<g>
	<g>
		<path d="M448.387,208.419H272.032c-8.556,0-15.516,6.96-15.516,15.516v16.032c0,8.556,6.96,15.516,15.516,15.516h176.354    c8.556,0,15.517-6.96,15.517-15.516v-16.032C463.903,215.38,456.942,208.419,448.387,208.419z M448.903,239.968    c0,0.285-0.231,0.516-0.517,0.516H272.032c-0.284,0-0.516-0.231-0.516-0.516v-16.032c0-0.285,0.231-0.516,0.516-0.516h176.354    c0.285,0,0.517,0.231,0.517,0.516V239.968z"/>
	</g>
</g>
<g>
	<g>
		<path d="M400.29,272.547H272.032c-8.556,0-15.516,6.96-15.516,15.516v16.032c0,8.556,6.96,15.516,15.516,15.516H400.29    c8.556,0,15.517-6.96,15.517-15.516v-16.032C415.807,279.508,408.846,272.547,400.29,272.547z M400.807,304.096    c0,0.285-0.231,0.516-0.517,0.516H272.032c-0.284,0-0.516-0.231-0.516-0.516v-16.032c0-0.285,0.231-0.516,0.516-0.516H400.29    c0.285,0,0.517,0.231,0.517,0.516V304.096z"/>
	</g>
</g>
<g>
	<g>
		<path d="M344.178,336.677h-80.161c-4.143,0-7.5,3.358-7.5,7.5c0,4.142,3.357,7.5,7.5,7.5h80.161c4.143,0,7.5-3.358,7.5-7.5    C351.678,340.034,348.321,336.677,344.178,336.677z"/>
	</g>
</g>
<g>
	<g>
		<path d="M408.307,336.677h-32.064c-4.143,0-7.5,3.358-7.5,7.5c0,4.142,3.357,7.5,7.5,7.5h32.064c4.143,0,7.5-3.358,7.5-7.5    C415.807,340.034,412.449,336.677,408.307,336.677z"/>
	</g>
</g>
<g>
	<g>
		<path d="M280.049,384.773h-16.032c-4.143,0-7.5,3.358-7.5,7.5c0,4.142,3.357,7.5,7.5,7.5h16.032c4.143,0,7.5-3.358,7.5-7.5    C287.549,388.131,284.191,384.773,280.049,384.773z"/>
	</g>
</g>
<g>
	<g>
		<path d="M376.242,384.773h-64.129c-4.143,0-7.5,3.358-7.5,7.5c0,4.142,3.357,7.5,7.5,7.5h64.129c4.143,0,7.5-3.358,7.5-7.5    C383.742,388.131,380.385,384.773,376.242,384.773z"/>
	</g>
</g>
<g>
	<g>
		<path d="M280.049,416.839h-16.032c-4.143,0-7.5,3.358-7.5,7.5c0,4.142,3.357,7.5,7.5,7.5h16.032c4.143,0,7.5-3.358,7.5-7.5    C287.549,420.196,284.191,416.839,280.049,416.839z"/>
	</g>
</g>
<g>
	<g>
		<path d="M376.242,416.839h-64.129c-4.143,0-7.5,3.358-7.5,7.5c0,4.142,3.357,7.5,7.5,7.5h64.129c4.143,0,7.5-3.358,7.5-7.5    C383.742,420.196,380.385,416.839,376.242,416.839z"/>
	</g>
</g>
<g>
	<g>
		<path d="M256.04,144.291h-0.08c-4.143,0-7.46,3.358-7.46,7.5c0,4.142,3.397,7.5,7.54,7.5s7.5-3.358,7.5-7.5    C263.54,147.648,260.183,144.291,256.04,144.291z"/>
	</g>
</g>
<g>
</g>
<g>
</g>
<g>
</g>
<g>
</g>
<g>
</g>
<g>
</g>
<g>
</g>
<g>
</g>
<g>
</g>
<g>
</g>
<g>
</g>
<g>
</g>
<g>
</g>
<g>
</g>
<g>
</g>
</svg>
