<?xml version="1.0" encoding="iso-8859-1"?>
<!-- Generator: Adobe Illustrator 19.0.0, SVG Export Plug-In . SVG Version: 6.00 Build 0)  -->
<svg xmlns="http://www.w3.org/2000/svg" xmlns:xlink="http://www.w3.org/1999/xlink" version="1.1" id="Layer_1" x="0px" y="0px" viewBox="0 0 512 512" style="enable-background:new 0 0 512 512;" xml:space="preserve">
<g>
	<g>
		<path d="M170.33,357.086l-18.771-9.385c-0.176-0.088-0.285-0.265-0.285-0.462v-11.36c9.72-7.216,16.032-18.775,16.032-31.783    v-16.032c0-17.396-14.152-31.548-31.548-31.548h-16.033c-17.396,0-31.548,14.152-31.548,31.548v16.032    c0,13.008,6.312,24.567,16.032,31.783v11.36c0,0.197-0.109,0.374-0.285,0.462l-18.771,9.385    c-8.024,4.012-13.009,12.077-13.009,21.048v70.988c0,6.25,1.833,12.301,5.299,17.5l7.954,11.931    c1.818,2.728,2.779,5.902,2.779,9.18V504.5c0,4.142,3.358,7.5,7.5,7.5c4.142,0,7.5-3.358,7.5-7.5v-16.767    c0-6.249-1.832-12.3-5.298-17.5l-7.955-11.932c-1.818-2.727-2.779-5.901-2.779-9.179v-70.988c0-3.252,1.808-6.177,4.717-7.632    l13.023-6.511l11.886,11.886c3.025,3.025,6.998,4.538,10.971,4.538c3.974,0,7.947-1.513,10.972-4.538l11.886-11.886l13.023,6.511    c2.909,1.455,4.717,4.379,4.717,7.632v70.988c0,3.278-0.961,6.452-2.779,9.179l-7.955,11.932c-3.466,5.2-5.298,11.251-5.298,17.5    V504.5c0,4.142,3.358,7.5,7.5,7.5c4.142,0,7.5-3.358,7.5-7.5v-16.767c0-3.278,0.961-6.452,2.779-9.18l7.955-11.931    c3.466-5.199,5.299-11.25,5.299-17.5v-70.988C183.339,369.164,178.354,361.098,170.33,357.086z M128.106,365.271    c-0.2,0.2-0.527,0.201-0.729,0l-10.252-10.252c1.339-2.314,2.084-4.977,2.084-7.78v-3.578h17.065v3.578    c0,2.802,0.745,5.466,2.084,7.78L128.106,365.271z M127.742,328.66c-13.545,0-24.564-11.02-24.564-24.564v-16.032h-0.001    c0-9.125,7.423-16.548,16.548-16.548h16.033c9.125,0,16.548,7.423,16.548,16.548v16.032    C152.306,317.641,141.286,328.66,127.742,328.66z"/>
	</g>
</g>
<g>
	<g>
		<path d="M298.588,357.086l-18.771-9.385c-0.176-0.088-0.285-0.265-0.285-0.462v-11.36c9.72-7.216,16.032-18.775,16.032-31.783    v-16.032c0-17.396-14.152-31.548-31.548-31.548h-16.032c-17.396,0-31.548,14.152-31.548,31.548v16.032    c0,13.008,6.312,24.567,16.032,31.783v11.36c0,0.197-0.109,0.374-0.285,0.462l-18.771,9.385    c-8.024,4.012-13.008,12.077-13.008,21.048v70.988c0,6.25,1.833,12.301,5.299,17.5l7.954,11.932    c1.818,2.728,2.779,5.902,2.779,9.18V504.5c0,4.142,3.358,7.5,7.5,7.5c4.142,0,7.5-3.358,7.5-7.5v-16.767    c0-6.249-1.832-12.3-5.299-17.5l-7.954-11.932c-1.818-2.727-2.779-5.901-2.779-9.179v-70.988c0-3.253,1.807-6.177,4.716-7.632    l13.023-6.511l11.886,11.886c3.025,3.024,6.998,4.537,10.971,4.537c3.973,0,7.947-1.513,10.972-4.537l11.885-11.886l13.023,6.511    c2.909,1.455,4.716,4.379,4.716,7.632v70.988c0,3.278-0.961,6.452-2.779,9.179l-7.954,11.932c-3.467,5.2-5.299,11.251-5.299,17.5    V504.5c0,4.142,3.358,7.5,7.5,7.5c4.142,0,7.5-3.358,7.5-7.5v-16.767c0-3.278,0.961-6.452,2.779-9.18l7.954-11.931    c3.466-5.199,5.299-11.25,5.299-17.5v-70.988C311.597,369.163,306.612,361.098,298.588,357.086z M256.365,365.27    c-0.201,0.202-0.529,0.202-0.73,0.001l-10.251-10.252c1.339-2.314,2.084-4.977,2.084-7.78v-3.578h17.064v3.578    c0,2.802,0.745,5.466,2.084,7.78L256.365,365.27z M256,328.66c-13.544,0-24.564-11.02-24.564-24.564v-16.032    c0-9.125,7.423-16.548,16.548-16.548h16.032c9.125,0,16.548,7.423,16.548,16.548v16.032    C280.564,317.641,269.544,328.66,256,328.66z"/>
	</g>
</g>
<g>
	<g>
		<path d="M426.846,357.086l-18.771-9.385c-0.176-0.088-0.285-0.265-0.285-0.462v-11.36c9.72-7.216,16.032-18.775,16.032-31.783    v-16.032c0-17.396-14.152-31.548-31.548-31.548h-16.033c-17.396,0-31.548,14.152-31.548,31.548v16.032    c0,13.008,6.312,24.567,16.032,31.783v11.36c0,0.197-0.109,0.374-0.285,0.462l-18.771,9.385    c-8.024,4.012-13.009,12.077-13.009,21.048v70.988c0,6.25,1.833,12.301,5.299,17.5l7.954,11.931    c1.818,2.728,2.779,5.902,2.779,9.18V504.5c0,4.142,3.358,7.5,7.5,7.5c4.142,0,7.5-3.358,7.5-7.5v-16.767    c0-6.249-1.832-12.3-5.298-17.5l-7.955-11.932c-1.818-2.727-2.779-5.901-2.779-9.179v-70.988c0-3.252,1.808-6.177,4.717-7.632    l13.023-6.511l11.886,11.886c3.025,3.025,6.998,4.538,10.972,4.538c3.973,0,7.946-1.513,10.971-4.538l11.886-11.886l13.023,6.511    c2.909,1.455,4.717,4.379,4.717,7.632v70.988c0,3.278-0.961,6.452-2.779,9.179l-7.955,11.932c-3.466,5.2-5.298,11.251-5.298,17.5    V504.5c0,4.142,3.358,7.5,7.5,7.5c4.142,0,7.5-3.358,7.5-7.5v-16.767c0-3.278,0.961-6.452,2.779-9.18l7.955-11.931    c3.466-5.199,5.299-11.25,5.299-17.5v-70.988C439.855,369.164,434.87,361.098,426.846,357.086z M384.622,365.271    c-0.201,0.201-0.529,0.2-0.729,0l-10.252-10.252c1.339-2.314,2.084-4.977,2.084-7.78v-3.578h17.065v3.578    c0,2.802,0.745,5.466,2.084,7.78L384.622,365.271z M384.258,328.66c-13.545,0-24.564-11.02-24.564-24.564v-16.032h-0.001    c0-9.125,7.423-16.548,16.548-16.548h16.033c9.125,0,16.548,7.423,16.548,16.548v16.032    C408.822,317.641,397.802,328.66,384.258,328.66z"/>
	</g>
</g>
<g>
	<g>
		<path d="M408.678,63.241C367.896,22.459,313.674,0,256,0S144.104,22.459,103.322,63.241    c-40.782,40.782-63.241,95.004-63.241,152.678c0,28.767,5.567,56.704,16.546,83.035c1.594,3.823,5.987,5.629,9.809,4.036    c3.823-1.594,5.63-5.985,4.036-9.809c-9.256-22.199-14.361-45.634-15.239-69.763h57.087c0.067,2.979,0.167,5.954,0.313,8.903    c0.207,4.137,3.74,7.322,7.863,7.118c4.137-0.206,7.324-3.727,7.118-7.863c-0.134-2.702-0.23-5.428-0.295-8.158H248.5v8.532    c0,4.142,3.358,7.5,7.5,7.5c4.142,0,7.5-3.358,7.5-7.5v-8.532h121.181c-0.065,2.734-0.161,5.462-0.295,8.166    c-0.206,4.137,2.98,7.658,7.118,7.864c0.127,0.006,0.253,0.009,0.379,0.009c3.97,0,7.285-3.117,7.484-7.127    c0.147-2.95,0.246-5.929,0.314-8.912h57.087c-0.878,24.133-5.986,47.572-15.245,69.775c-1.594,3.823,0.212,8.214,4.036,9.809    c0.943,0.394,1.921,0.58,2.884,0.58c2.936,0,5.724-1.736,6.925-4.615c10.982-26.335,16.551-54.277,16.551-83.048    C471.919,158.245,449.46,104.023,408.678,63.241z M184.815,28.039c-11.418,9.758-22,21.943-31.453,36.401    c-6.441,9.85-12.172,20.485-17.169,31.753H94.748C117.48,65.657,148.67,41.78,184.815,28.039z M112.321,208.419H55.235    c1.31-35.517,11.875-68.71,29.363-97.226h45.516C119.227,140.73,113.098,173.881,112.321,208.419z M248.5,208.419H127.324    c0.84-35.518,7.611-68.71,18.819-97.226H248.5V208.419z M248.5,96.194h-95.85c22.093-46.307,56.648-77.314,95.85-80.844V96.194z     M417.252,96.193h-41.445c-4.997-11.267-10.728-21.903-17.169-31.753c-9.457-14.464-20.044-26.649-31.467-36.407    C363.322,41.774,394.517,65.653,417.252,96.193z M263.5,15.35c39.202,3.53,73.757,34.538,95.85,80.844H263.5V15.35z     M263.5,208.419v-97.226h102.356c11.208,28.516,17.979,61.708,18.819,97.226H263.5z M399.68,208.419    c-0.777-34.538-6.906-67.689-17.793-97.226h45.516c17.487,28.516,28.052,61.709,29.362,97.226H399.68z"/>
	</g>
</g>
<g>
</g>
<g>
</g>
<g>
</g>
<g>
</g>
<g>
</g>
<g>
</g>
<g>
</g>
<g>
</g>
<g>
</g>
<g>
</g>
<g>
</g>
<g>
</g>
<g>
</g>
<g>
</g>
<g>
</g>
</svg>
