<?xml version="1.0" encoding="iso-8859-1"?>
<!-- Generator: Adobe Illustrator 19.0.0, SVG Export Plug-In . SVG Version: 6.00 Build 0)  -->
<svg xmlns="http://www.w3.org/2000/svg" xmlns:xlink="http://www.w3.org/1999/xlink" version="1.1" id="Layer_1" x="0px" y="0px" viewBox="0 0 512 512" style="enable-background:new 0 0 512 512;" xml:space="preserve">
<g>
	<g>
		<path d="M336.161,0c-96.958,0-175.839,78.881-175.839,175.839c0,45.504,17.376,87.026,45.839,118.281l-31.665,31.665    c-12.047-6.887-27.698-5.201-37.971,5.073L9.24,458.144C3.282,464.102,0,472.025,0,480.452s3.282,16.35,9.241,22.308    c5.958,5.958,13.881,9.24,22.308,9.24s16.349-3.282,22.308-9.24l127.286-127.286c5.958-5.958,9.24-13.881,9.24-22.308    c0-6.141-1.751-12.01-5.002-17.051l31.348-31.349c31.384,29.094,73.364,46.911,119.432,46.911    c96.958,0,175.839-78.881,175.839-175.838C512,78.881,433.119,0,336.161,0z M43.249,492.153c-3.125,3.125-7.28,4.847-11.7,4.847    s-8.576-1.721-11.701-4.847C16.722,489.028,15,484.872,15,480.452c0-4.42,1.722-8.576,4.848-11.702l114.937-114.939l23.403,23.403    L43.249,492.153z M170.535,364.868l-1.74,1.74l-23.404-23.403l1.74-1.74c3.227-3.227,7.465-4.84,11.703-4.84    c4.237,0,8.476,1.613,11.701,4.839c3.126,3.125,4.848,7.281,4.848,11.702C175.383,357.587,173.661,361.742,170.535,364.868z     M336.161,336.677c-88.687,0-160.839-72.152-160.839-160.838C175.322,87.152,247.475,15,336.161,15S497,87.152,497,175.839    C497,264.525,424.848,336.677,336.161,336.677z"/>
	</g>
</g>
<g>
	<g>
		<path d="M449.086,86.828c-2.568-3.25-7.286-3.804-10.534-1.235c-3.25,2.568-3.804,7.285-1.235,10.535    c40.43,51.167,36.089,124.582-10.098,170.769c-4.177,4.177-8.578,8.006-13.164,11.496c-2.645-7.634-8.165-14.059-15.689-17.821    l-30.372-15.184c-0.177-0.088-0.286-0.265-0.286-0.462l0.002-15.265c12.468-8.585,21.292-22.157,23.5-38.085    c5.608-9.691,8.564-20.638,8.564-31.767c0-20.755-9.994-39.217-25.419-50.835c0.904-3.01,1.37-6.117,1.37-9.286    c0-19.606-17.748-35.557-39.564-35.557c-21.816,0-39.564,15.951-39.564,35.557c0,3.172,0.462,6.28,1.366,9.29    c-15.422,11.619-25.414,30.079-25.414,50.832c0,11.13,2.955,22.077,8.563,31.767c2.208,15.928,11.033,29.5,23.501,38.085v15.264    c0,0.197-0.109,0.374-0.286,0.462l-30.371,15.186c-7.524,3.762-13.045,10.187-15.689,17.823c-0.609-0.464-1.219-0.928-1.822-1.405    c-3.249-2.568-7.966-2.016-10.535,1.234c-2.567,3.25-2.016,7.966,1.234,10.534c26.197,20.702,57.607,30.893,88.923,30.893    c36.984,0,73.834-14.224,101.759-42.148C489.392,225.937,494.232,143.964,449.086,86.828z M336.161,79.129    c13.544,0,24.564,9.222,24.564,20.557c0,0.475-0.038,0.946-0.076,1.416c-7.542-3.158-15.814-4.908-24.488-4.908    c-8.673,0-16.943,1.75-24.484,4.907c-0.039-0.471-0.08-0.94-0.08-1.415C311.597,88.351,322.617,79.129,336.161,79.129z     M295.817,188.28c-0.119-1.104-0.483-2.169-1.064-3.116c-4.713-7.677-7.204-16.445-7.204-25.358    c0-26.806,21.808-48.613,48.612-48.613c26.806,0,48.613,21.808,48.613,48.613c0,5.167-0.843,10.285-2.466,15.172    c-21.296-21.635-58.759-30.114-60.565-30.512c-2.219-0.49-4.54,0.055-6.313,1.478c-1.771,1.424-2.802,3.574-2.802,5.846    c0,0.049-0.342,5.251-5.819,10.729c-2.929,2.929-2.929,7.678,0.001,10.606c2.928,2.93,7.677,2.929,10.606,0    c4.234-4.235,6.714-8.532,8.166-12.156c14.685,4.348,39.507,14.363,50.55,29.885c-3.339,19.325-20.081,33.597-39.972,33.597    C315.396,224.452,298.052,208.901,295.817,188.28z M328.661,304.433c-19.743-1.135-39.322-6.81-57.071-17.131    c0.504-5.703,3.879-10.717,9.074-13.314l25.051-12.526l22.946,21.805V304.433z M317.791,252.246    c1.177-2.204,1.823-4.704,1.823-7.322v-7.981c5.237,1.624,10.793,2.509,16.547,2.509c5.754,0,11.31-0.884,16.548-2.509    l-0.001,7.979c-0.001,2.619,0.645,5.12,1.823,7.325l-18.369,17.456L317.791,252.246z M343.661,304.428v-21.161l22.945-21.804    l25.052,12.525c5.189,2.594,8.562,7.599,9.073,13.292C383.104,297.508,363.515,303.261,343.661,304.428z"/>
	</g>
</g>
<g>
	<g>
		<path d="M425.173,62.915c-57.136-45.146-139.109-40.307-190.676,11.26c-51.568,51.568-56.406,133.543-11.255,190.68    c1.48,1.874,3.674,2.851,5.89,2.851c1.628,0,3.269-0.528,4.646-1.616c3.25-2.568,3.802-7.285,1.234-10.534    c-40.436-51.169-36.097-124.585,10.092-170.774c46.186-46.186,119.601-50.528,170.77-10.097c3.249,2.567,7.965,2.016,10.534-1.235    C428.976,70.2,428.423,65.483,425.173,62.915z"/>
	</g>
</g>
<g>
</g>
<g>
</g>
<g>
</g>
<g>
</g>
<g>
</g>
<g>
</g>
<g>
</g>
<g>
</g>
<g>
</g>
<g>
</g>
<g>
</g>
<g>
</g>
<g>
</g>
<g>
</g>
<g>
</g>
</svg>
