<?xml version="1.0" encoding="iso-8859-1"?>
<!-- Generator: Adobe Illustrator 19.0.0, SVG Export Plug-In . SVG Version: 6.00 Build 0)  -->
<svg xmlns="http://www.w3.org/2000/svg" xmlns:xlink="http://www.w3.org/1999/xlink" version="1.1" id="Layer_1" x="0px" y="0px" viewBox="0 0 512 512" style="enable-background:new 0 0 512 512;" xml:space="preserve">
<g>
	<g>
		<path d="M139.918,233.727c-1.086-0.725-27.122-17.657-69.76-9.13c-3.506,0.701-6.029,3.779-6.029,7.354v8.016    c0,4.142,3.357,7.5,7.5,7.5s7.5-3.358,7.5-7.5v-1.696c16.066-2.295,28.78-0.412,36.939,1.735    c9.862,2.595,15.409,6.125,15.562,6.223c1.271,0.838,2.703,1.239,4.121,1.239c2.424,0,4.802-1.173,6.247-3.341    C144.296,240.681,143.364,236.024,139.918,233.727z"/>
	</g>
</g>
<g>
	<g>
		<path d="M186.916,363.367l-38.121-14.295c-3.313-1.242-5.537-4.453-5.537-7.989v-19.231c1.633-1.302,3.213-2.69,4.733-4.165    c12.456-12.088,19.315-28.302,19.315-45.655V257.77l2.146-4.293c3.84-7.68,5.869-16.277,5.869-24.863v-44.759    c0-4.142-3.357-7.5-7.5-7.5H84.295c-28.8,0-52.23,23.43-52.23,52.259c0,8.587,2.03,17.185,5.87,24.863l2.146,4.293v11.909    c0,20.629,9.436,39.283,24.048,51.451v19.952c0,3.537-2.225,6.748-5.536,7.989l-38.122,14.295C8.227,367.958,0,379.83,0,392.907    v55.479c0,4.142,3.357,7.5,7.5,7.5s7.5-3.358,7.5-7.5v-55.479c0-6.859,4.315-13.086,10.738-15.495l38.122-14.295    c2.063-0.774,3.963-1.837,5.684-3.112l26.649,19.987v68.396c0,4.142,3.357,7.5,7.5,7.5s7.5-3.358,7.5-7.5v-68.396l26.649-19.987    c1.721,1.276,3.621,2.339,5.685,3.113l38.121,14.295c6.423,2.409,10.738,8.636,10.738,15.495v55.479c0,4.142,3.357,7.5,7.5,7.5    s7.5-3.358,7.5-7.5v-55.479C207.387,379.83,199.16,367.958,186.916,363.367z M103.693,366.867l-25.542-19.156    c0.63-2.123,0.977-4.349,0.977-6.628v-10.63c7.008,3.092,14.632,4.922,22.614,5.162c0.66,0.02,1.317,0.03,1.975,0.03    c8.565,0,16.864-1.691,24.541-4.905v10.343c0,2.279,0.347,4.505,0.977,6.628L103.693,366.867z M137.545,306.921    c-9.516,9.233-22.055,14.101-35.354,13.7c-25.976-0.779-47.11-23.632-47.11-50.943v-13.679c0-1.165-0.271-2.312-0.792-3.354    l-2.938-5.877c-2.804-5.607-4.286-11.885-4.286-18.184c0-20.529,16.701-37.23,37.23-37.23h76.027v37.259    c0,6.27-1.481,12.548-4.285,18.155l-2.938,5.877c-0.521,1.042-0.792,2.189-0.792,3.354v16.032    C152.307,285.292,147.065,297.683,137.545,306.921z"/>
	</g>
</g>
<g>
	<g>
		<path d="M47.581,400.806c-4.143,0-7.5,3.358-7.5,7.5v40.081c0,4.142,3.357,7.5,7.5,7.5s7.5-3.358,7.5-7.5v-40.081    C55.081,404.164,51.724,400.806,47.581,400.806z"/>
	</g>
</g>
<g>
	<g>
		<path d="M159.807,400.806c-4.143,0-7.5,3.358-7.5,7.5v40.081c0,4.142,3.357,7.5,7.5,7.5s7.5-3.358,7.5-7.5v-40.081    C167.307,404.164,163.949,400.806,159.807,400.806z"/>
	</g>
</g>
<g>
	<g>
		<path d="M488.468,56.112H103.693c-12.976,0-23.532,10.557-23.532,23.532v72.143c0,4.142,3.357,7.5,7.5,7.5s7.5-3.358,7.5-7.5    V79.644c0-4.705,3.827-8.532,8.532-8.532h384.774c4.705,0,8.532,3.828,8.532,8.532v288.581c0,4.705-3.827,8.533-8.532,8.533    H231.949c-4.143,0-7.5,3.358-7.5,7.5c0,4.142,3.357,7.5,7.5,7.5h256.519c12.976,0,23.532-10.557,23.532-23.533V79.644    C512,66.668,501.443,56.112,488.468,56.112z"/>
	</g>
</g>
<g>
	<g>
		<path d="M456.403,296.596h-8.532V111.708c0-4.142-3.357-7.5-7.5-7.5h-32.064c-4.143,0-7.5,3.358-7.5,7.5v184.887h-17.064V175.838    c0-4.142-3.357-7.5-7.5-7.5h-32.064c-4.143,0-7.5,3.358-7.5,7.5v120.758h-17.064V143.773c0-4.142-3.357-7.5-7.5-7.5h-32.064    c-4.143,0-7.5,3.358-7.5,7.5v152.822h-17.065v-88.693c0-4.142-3.357-7.5-7.5-7.5h-32.064c-4.143,0-7.5,3.358-7.5,7.5v88.693    h-24.564c-4.143,0-7.5,3.358-7.5,7.5c0,4.142,3.357,7.5,7.5,7.5h272.545v0.001c4.143,0,7.5-3.358,7.5-7.5    C463.903,299.954,460.546,296.596,456.403,296.596z M240.483,296.596h-17.064v-81.193h17.064V296.596z M304.613,296.595h-17.064    V151.273h17.064V296.595z M368.742,296.596h-17.064V183.338h17.064V296.596z M432.871,296.595h-17.064V119.208h17.064V296.595z"/>
	</g>
</g>
<g>
	<g>
		<path d="M432.354,328.66h-16.032c-4.143,0-7.5,3.358-7.5,7.5c0,4.142,3.357,7.5,7.5,7.5h16.032c4.143,0,7.5-3.358,7.5-7.5    C439.854,332.018,436.497,328.66,432.354,328.66z"/>
	</g>
</g>
<g>
	<g>
		<path d="M304.096,328.66h-16.032c-4.143,0-7.5,3.358-7.5,7.5c0,4.142,3.357,7.5,7.5,7.5h16.032c4.143,0,7.5-3.358,7.5-7.5    C311.596,332.018,308.239,328.66,304.096,328.66z"/>
	</g>
</g>
<g>
	<g>
		<path d="M368.225,328.66h-16.032c-4.143,0-7.5,3.358-7.5,7.5c0,4.142,3.357,7.5,7.5,7.5h16.032c4.143,0,7.5-3.358,7.5-7.5    C375.725,332.018,372.368,328.66,368.225,328.66z"/>
	</g>
</g>
<g>
	<g>
		<path d="M239.968,328.66h-16.032c-4.143,0-7.5,3.358-7.5,7.5c0,4.142,3.357,7.5,7.5,7.5h16.032c4.142,0,7.5-3.358,7.5-7.5    C247.468,332.018,244.111,328.66,239.968,328.66z"/>
	</g>
</g>
<g>
</g>
<g>
</g>
<g>
</g>
<g>
</g>
<g>
</g>
<g>
</g>
<g>
</g>
<g>
</g>
<g>
</g>
<g>
</g>
<g>
</g>
<g>
</g>
<g>
</g>
<g>
</g>
<g>
</g>
</svg>
