<?xml version="1.0" encoding="iso-8859-1"?>
<!-- Generator: Adobe Illustrator 19.0.0, SVG Export Plug-In . SVG Version: 6.00 Build 0)  -->
<svg xmlns="http://www.w3.org/2000/svg" xmlns:xlink="http://www.w3.org/1999/xlink" version="1.1" id="Layer_1" x="0px" y="0px" viewBox="0 0 512 512" style="enable-background:new 0 0 512 512;" xml:space="preserve">
<g>
	<g>
		<path d="M39.564,422.74c-4.143,0-7.5,3.358-7.5,7.5v46.203c0,4.142,3.357,7.5,7.5,7.5s7.5-3.358,7.5-7.5V430.24    C47.064,426.099,43.707,422.74,39.564,422.74z"/>
	</g>
</g>
<g>
	<g>
		<path d="M268.255,250.055l4.912-4.63c3.016-2.841,3.156-7.588,0.315-10.602c-2.844-3.014-7.59-3.154-10.603-0.313L153.096,337.992    c-5.148-17.892-8.974-42.04-9.857-54.469c-2.556-35.962-29.895-63.082-63.594-63.082c-33.698,0-61.038,27.119-63.595,63.082    c-1.044,14.695-6.2,45.769-12.791,63.516c-2.883,7.759,0.557,16.195,7.999,19.623c5.682,2.617,14.195,5.867,25.548,8.474    L17.44,384.82C6.683,390.2,0,401.011,0,413.039v63.404c0,4.142,3.357,7.5,7.5,7.5s7.5-3.358,7.5-7.5v-63.404    c0-6.309,3.505-11.98,9.148-14.801L49.2,385.711l8.712,8.28c6.088,5.785,13.896,8.68,21.715,8.68    c7.834,0,15.677-2.908,21.801-8.729l14.929-14.454c1.101,0.158,2.225,0.245,3.369,0.245h1.615c6.059,0,11.815-2.298,16.187-6.451    l93.204-87.855l10.653,10.653L123.813,413.651c-7.473,7.474-11.588,17.409-11.588,27.976v34.815c0,4.142,3.357,7.5,7.5,7.5    c4.143,0,7.5-3.358,7.5-7.5v-34.815c0-6.561,2.556-12.73,7.195-17.37L266.907,291.77c5.813-5.811,8.184-14.375,6.19-22.347    L268.255,250.055z M48.096,362.12c-14.222-2.478-24.339-6.215-30.563-9.082c-0.406-0.187-0.248-0.679-0.213-0.775    c3.197-8.609,6.039-19.825,8.309-31.027c3.266,13.432,11.418,24.967,22.467,32.611V362.12z M91.044,383.118    c-6.391,6.075-16.406,6.075-22.799,0l-6.971-6.624c1.176-2.204,1.822-4.703,1.822-7.321v-7.987    c5.229,1.634,10.788,2.515,16.549,2.515c5.938,0,11.666-0.94,17.049-2.667c0.884,4.216,2.9,8.02,5.714,11.08L91.044,383.118z     M79.645,348.701c-22.385,0-40.597-18.211-40.597-40.597c0-4.142-3.357-7.5-7.5-7.5c-0.842,0-1.649,0.145-2.405,0.401    c0.914-6.313,1.555-11.996,1.87-16.418c0.958-13.468,6.341-25.882,15.157-34.952c8.896-9.152,20.784-14.192,33.476-14.192    s24.58,5.04,33.476,14.192c8.816,9.07,14.198,21.483,15.155,34.953c0.337,4.739,1.051,10.932,2.072,17.794    c-8.078-13.721-21.189-23.783-38.426-29.321c-15.042-4.833-27.98-4.533-28.518-4.518c-1.964,0.055-3.827,0.877-5.19,2.291    l-13.527,14.028c-2.876,2.981-2.789,7.729,0.192,10.605c2.981,2.875,7.729,2.79,10.604-0.193l11.255-11.671    c9.696,0.474,40.876,4.101,53.003,30.804C116.69,334.086,99.775,348.701,79.645,348.701z M127.217,362.388    c-1.592,1.513-3.679,2.346-5.876,2.346h-1.615c-4.705,0-8.532-3.828-8.532-8.532c0-0.131,0.006-1.059,0.013-2.294    c11.025-7.595,19.186-19.096,22.453-32.672c2.029,10.013,4.516,20.03,7.305,28.194L127.217,362.388z M256.302,281.164l-4.31,4.31    l-10.34-10.34l14.092-13.283l2.802,11.211C259.27,275.953,258.409,279.057,256.302,281.164z"/>
	</g>
</g>
<g>
	<g>
		<path d="M488.468,28.057H231.951c-12.976,0-23.532,10.557-23.532,23.532V246c0,4.142,3.357,7.5,7.5,7.5s7.5-3.358,7.5-7.5V51.589    c0-4.705,3.827-8.532,8.532-8.532h256.517c4.705,0,8.532,3.828,8.532,8.532v208.419c0,4.705-3.827,8.532-8.532,8.532H299    c-4.143,0-7.5,3.358-7.5,7.5c0,4.142,3.357,7.5,7.5,7.5h189.468c12.976,0,23.532-10.557,23.532-23.532V51.589    C512,38.612,501.443,28.057,488.468,28.057z"/>
	</g>
</g>
<g>
	<g>
		<path d="M448.386,84.169h-5.941l11.245-11.245c2.929-2.929,2.929-7.678,0-10.606c-2.93-2.929-7.678-2.929-10.607,0l-11.244,11.244    V67.62c0-4.142-3.358-7.5-7.5-7.5c-4.143,0-7.5,3.358-7.5,7.5v20.941l-5.892,5.892c-13.788-11.424-31.474-18.301-50.737-18.301    c-43.917,0-79.646,35.729-79.646,79.645c0,43.916,35.729,79.645,79.646,79.645c43.916,0,79.645-35.729,79.645-79.645    c0-19.263-6.876-36.949-18.301-50.737l5.891-5.892h20.941c4.143,0,7.5-3.358,7.5-7.5    C455.886,87.526,452.529,84.169,448.386,84.169z M424.854,155.797c0,35.646-28.999,64.645-64.645,64.645s-64.646-29-64.646-64.645    c0-35.645,29-64.645,64.646-64.645c15.125,0,29.043,5.236,40.067,13.971l-45.371,45.371c-2.929,2.929-2.929,7.678,0,10.606    c1.465,1.464,3.385,2.197,5.304,2.197c1.919,0,3.839-0.732,5.304-2.197l22.416-22.416c3.182,5.13,4.86,10.986,4.86,17.113    c0,17.965-14.615,32.581-32.58,32.581s-32.581-14.616-32.581-32.581c0-17.965,14.616-32.581,32.581-32.581    c4.143,0,7.5-3.358,7.5-7.5c0-4.142-3.357-7.5-7.5-7.5c-26.236,0-47.581,21.345-47.581,47.581s21.345,47.581,47.581,47.581    c26.235,0,47.58-21.345,47.58-47.581c0-10.129-3.134-19.76-9.057-27.916l12.151-12.151    C419.619,126.755,424.854,140.672,424.854,155.797z"/>
	</g>
</g>
<g>
</g>
<g>
</g>
<g>
</g>
<g>
</g>
<g>
</g>
<g>
</g>
<g>
</g>
<g>
</g>
<g>
</g>
<g>
</g>
<g>
</g>
<g>
</g>
<g>
</g>
<g>
</g>
<g>
</g>
</svg>
