<?xml version="1.0" encoding="iso-8859-1"?>
<!-- Generator: Adobe Illustrator 19.0.0, SVG Export Plug-In . SVG Version: 6.00 Build 0)  -->
<svg xmlns="http://www.w3.org/2000/svg" xmlns:xlink="http://www.w3.org/1999/xlink" version="1.1" id="Layer_1" x="0px" y="0px" viewBox="0 0 512 512" style="enable-background:new 0 0 512 512;" xml:space="preserve">
<g>
	<g>
		<path d="M115.064,269.332c-17.416-8.708-50.069-8.808-51.451-8.808c-4.142,0-7.497,3.356-7.499,7.498    c-0.001,4.141,3.355,7.5,7.497,7.502c8.437,0.005,32.923,1.313,44.744,7.224c1.077,0.539,2.222,0.793,3.349,0.793    c2.751,0,5.4-1.52,6.714-4.147C120.271,275.689,118.769,271.184,115.064,269.332z"/>
	</g>
</g>
<g>
	<g>
		<path d="M39.564,412.83c-4.143,0-7.5,3.358-7.5,7.5v56.113c0,4.142,3.357,7.5,7.5,7.5s7.5-3.358,7.5-7.5V420.33    C47.064,416.187,43.707,412.83,39.564,412.83z"/>
	</g>
</g>
<g>
	<g>
		<path d="M288.301,238.048l4.92-4.661c3.008-2.848,3.137-7.596,0.289-10.602c-2.851-3.008-7.597-3.135-10.604-0.287    L135.234,362.386c-1.594,1.514-3.681,2.347-5.878,2.347h-1.614c-4.705,0-8.532-3.828-8.532-8.532c0-0.125,0.006-1.069,0.012-2.326    c2.514-1.743,4.912-3.693,7.155-5.869c10.886-10.564,16.881-24.735,16.881-39.901v-14.262l2.993-5.986    c3.286-6.573,5.023-13.931,5.023-21.278v-38.635c0-4.142-3.357-7.5-7.5-7.5H71.629c-26.235,0-47.58,21.345-47.58,47.581v0.446    c0,6.112,1.444,12.23,4.177,17.694l3.839,7.679v12.245c0,19.406,9.563,36.819,24.049,47.298v6.754c0,3.79-2.545,7.163-6.188,8.204    l-27.043,7.727C9.409,379.92,0,392.395,0,406.405v70.037c0,4.142,3.357,7.5,7.5,7.5s7.5-3.358,7.5-7.5v-70.037    c0-7.349,4.936-13.893,12.003-15.912l27.043-7.727c2.347-0.67,4.52-1.704,6.485-3.009l4.821,4.822    c6.151,6.151,14.229,9.226,22.309,9.226c8.078,0,16.158-3.076,22.308-9.225l7.044-7.043c0.089-0.089,0.166-0.184,0.249-0.275    c3.158,1.578,6.716,2.472,10.481,2.472h1.614c6.059,0,11.814-2.298,16.201-6.464l105.316-99.765l10.551,10.551l-121.58,121.58    c-7.473,7.474-11.588,17.409-11.588,27.976v42.831c0,4.142,3.357,7.5,7.5,7.5s7.5-3.358,7.5-7.5v-42.831    c0-6.561,2.556-12.729,7.195-17.37l136.495-136.496c5.812-5.811,8.184-14.374,6.191-22.348L288.301,238.048z M106.408,366.93    l-7.046,7.043c-6.453,6.453-16.951,6.452-23.402,0l-6.154-6.154c0.75-2.152,1.178-4.432,1.27-6.778    c4.73,1.556,9.719,2.479,14.881,2.634c0.576,0.018,1.151,0.026,1.725,0.026c5.87,0,11.595-0.917,17.031-2.661    c0.416,1.984,1.086,3.875,1.969,5.642C106.591,366.765,106.496,366.842,106.408,366.93z M115.931,337.24    c-7.945,7.71-18.42,11.767-29.524,11.441c-21.694-0.65-39.343-19.757-39.343-42.593v-14.016c0-1.164-0.271-2.313-0.792-3.354    l-4.631-9.263c-1.696-3.392-2.593-7.19-2.593-10.985v-0.446c0-17.965,14.615-32.581,32.58-32.581h64.646v31.135    c0,5.031-1.189,10.07-3.439,14.57l-3.785,7.569c-0.521,1.042-0.792,2.19-0.792,3.354v16.032    C128.258,319.178,123.88,329.525,115.931,337.24z M276.342,269.139l-4.31,4.31l-10.264-10.264l14.033-13.293l2.786,11.143    C279.31,263.927,278.449,267.033,276.342,269.139z"/>
	</g>
</g>
<g>
	<g>
		<path d="M488.468,28.056H231.951c-12.976,0-23.532,10.557-23.532,23.532v203.411c0,4.142,3.357,7.5,7.5,7.5s7.5-3.358,7.5-7.5    V51.588c0-4.705,3.827-8.532,8.532-8.532h256.517c4.705,0,8.532,3.828,8.532,8.532v208.419c0,4.705-3.827,8.532-8.532,8.532H317    c-4.143,0-7.5,3.358-7.5,7.5c0,4.142,3.357,7.5,7.5,7.5h171.468c12.976,0,23.532-10.557,23.532-23.532V51.588    C512,38.612,501.443,28.056,488.468,28.056z"/>
	</g>
</g>
<g>
	<g>
		<path d="M464.418,76.152h-40.08c-4.143,0-7.5,3.358-7.5,7.5c0,4.142,3.357,7.5,7.5,7.5h21.973l-82.094,82.095L329.44,138.47    c-2.93-2.929-7.678-2.929-10.607,0l-68.137,68.137c-2.929,2.929-2.929,7.678,0,10.606c1.465,1.464,3.385,2.197,5.304,2.197    s3.839-0.732,5.304-2.197l62.833-62.833l34.777,34.777c2.93,2.928,7.678,2.93,10.607,0l87.397-87.398v21.974    c0,4.142,3.357,7.5,7.5,7.5s7.5-3.358,7.5-7.5V83.652C471.918,79.51,468.561,76.152,464.418,76.152z"/>
	</g>
</g>
<g>
</g>
<g>
</g>
<g>
</g>
<g>
</g>
<g>
</g>
<g>
</g>
<g>
</g>
<g>
</g>
<g>
</g>
<g>
</g>
<g>
</g>
<g>
</g>
<g>
</g>
<g>
</g>
<g>
</g>
</svg>
