<?xml version="1.0" encoding="iso-8859-1"?>
<!-- Generator: Adobe Illustrator 19.0.0, SVG Export Plug-In . SVG Version: 6.00 Build 0)  -->
<svg xmlns="http://www.w3.org/2000/svg" xmlns:xlink="http://www.w3.org/1999/xlink" version="1.1" id="Layer_1" x="0px" y="0px" viewBox="0 0 512 512" style="enable-background:new 0 0 512 512;" xml:space="preserve">
<g>
	<g>
		<path d="M403.645,121.033c-17.416-8.708-50.07-8.808-51.451-8.808c-4.142,0-7.5,3.358-7.5,7.5c0,4.142,3.358,7.5,7.5,7.5    c8.426,0,32.889,1.297,44.743,7.224c1.077,0.539,2.221,0.793,3.348,0.793c2.751,0,5.4-1.52,6.714-4.147    C408.852,127.39,407.35,122.885,403.645,121.033z"/>
	</g>
</g>
<g>
	<g>
		<path d="M504.5,344.692h-45.3c2.979-4.814,4.703-10.483,4.703-16.548v-70.037c0-14.012-9.41-26.486-22.882-30.335l-27.044-7.726    c-3.644-1.041-6.188-4.415-6.188-8.205l0.001-6.256c2.519-1.745,4.921-3.698,7.167-5.878    c10.886-10.564,16.881-24.734,16.881-39.901v-14.262l2.993-5.986c3.287-6.572,5.023-13.93,5.023-21.278V79.644    c0-4.142-3.358-7.5-7.5-7.5h-72.146c-26.236,0-47.581,21.345-47.581,47.581v0.447c0,6.11,1.444,12.229,4.177,17.694l3.839,7.679    v12.245c0,19.406,9.563,36.819,24.048,47.298v6.755c0,3.79-2.544,7.163-6.188,8.204l-27.043,7.727    c-13.472,3.85-22.881,16.324-22.881,30.335v6.424h-0.516c-8.556,0-15.516,6.96-15.516,15.516v64.129    c0,0.174,0.02,0.343,0.026,0.516h-33.149c0.006-0.173,0.026-0.342,0.026-0.516v-64.129c0-8.556-6.96-15.516-15.516-15.516H207.38    c-0.077-11.942-6.738-22.662-17.433-28.01l-19.368-9.683c11.357-2.609,19.872-5.86,25.549-8.474    c7.443-3.428,10.882-11.864,8-19.623c-6.591-17.747-11.748-48.821-12.792-63.516c-2.556-35.962-29.896-63.082-63.594-63.082    s-61.039,27.119-63.594,63.082c-1.044,14.695-6.201,45.769-12.792,63.516c-2.882,7.759,0.557,16.195,8,19.623    c5.682,2.617,14.196,5.866,25.547,8.474l-19.367,9.684c-10.757,5.378-17.439,16.191-17.439,28.218v63.404    c0,6.065,1.725,11.734,4.703,16.548H7.5c-4.142,0-7.5,3.358-7.5,7.5c0,4.142,3.358,7.5,7.5,7.5h8.532v72.662    c0,4.142,3.358,7.5,7.5,7.5c4.142,0,7.5-3.358,7.5-7.5v-40.597h449.936v40.597c0,4.142,3.358,7.5,7.5,7.5    c4.142,0,7.5-3.358,7.5-7.5v-72.662h8.532c4.142,0,7.5-3.358,7.5-7.5C512,348.052,508.642,344.692,504.5,344.692z     M335.645,157.789v-14.016c0-1.164-0.271-2.313-0.792-3.354l-4.631-9.262c-1.696-3.394-2.593-7.192-2.593-10.986v-0.447    c0-17.965,14.616-32.581,32.581-32.581h64.646v31.135c0,5.031-1.189,10.07-3.44,14.57l-3.785,7.57    c-0.521,1.042-0.792,2.19-0.792,3.354v16.032c0,11.074-4.378,21.422-12.328,29.136c-7.946,7.711-18.448,11.771-29.523,11.441    C353.294,199.732,335.645,180.624,335.645,157.789z M394.097,219.522l-6.153,6.153c-3.125,3.125-7.281,4.847-11.702,4.847    c-4.42,0-8.576-1.721-11.701-4.847l-6.154-6.154c0.75-2.152,1.178-4.433,1.269-6.778c4.73,1.555,9.719,2.479,14.882,2.633    c0.577,0.018,1.151,0.026,1.726,0.026c5.704,0,11.272-0.864,16.57-2.512C392.938,215.184,393.363,217.415,394.097,219.522z     M303.58,258.107L303.58,258.107c0.001-7.349,4.937-13.893,12.003-15.912l27.043-7.727c2.347-0.67,4.52-1.704,6.485-3.009    l4.823,4.822c5.958,5.959,13.881,9.24,22.308,9.24s16.35-3.281,22.308-9.24l4.822-4.822c1.965,1.305,4.138,2.338,6.484,3.009    l27.044,7.726c7.067,2.019,12.003,8.563,12.003,15.912v70.037c0,9.125-7.423,16.548-16.548,16.548h-32.607    c0.006-0.173,0.026-0.342,0.026-0.516v-16.548h24.564c4.142,0,7.5-3.358,7.5-7.5V272.03c0-4.142-3.358-7.5-7.5-7.5    c-4.142,0-7.5,3.358-7.5,7.5v40.597h-17.064v-32.581c0-8.556-6.96-15.516-15.516-15.516H303.58V258.107z M287.548,280.047    c0-0.285,0.231-0.516,0.516-0.516h96.194c0.285,0,0.516,0.231,0.516,0.516v64.129c0,0.285-0.231,0.516-0.516,0.516h-96.194    c-0.284,0-0.516-0.231-0.516-0.516V280.047z M223.936,279.531c0.284,0,0.516,0.232,0.516,0.516v64.129    c0,0.285-0.231,0.516-0.516,0.516h-96.194c-0.285,0-0.516-0.231-0.516-0.516v-64.129c0-0.285,0.231-0.516,0.516-0.516H223.936z     M190.066,203.964c0.037,0.097,0.195,0.588-0.213,0.776c-6.218,2.864-16.337,6.602-30.564,9.081l0.001-8.204    c11.032-7.595,19.199-19.101,22.466-32.684C184.026,184.136,186.868,195.354,190.066,203.964z M79.109,136.287    c0.958-13.468,6.341-25.881,15.157-34.951c8.896-9.152,20.784-14.192,33.476-14.192s24.58,5.04,33.476,14.192    c8.816,9.07,14.199,21.483,15.156,34.953c0.337,4.74,1.051,10.934,2.073,17.797c-8.078-13.723-21.189-23.786-38.428-29.325    c-15.04-4.833-27.975-4.535-28.518-4.518c-1.964,0.055-3.828,0.877-5.191,2.291l-13.527,14.028    c-2.875,2.982-2.789,7.73,0.193,10.605s7.73,2.788,10.605-0.193l11.25-11.667c4.151,0.207,12.224,0.987,21.013,3.868    c15.434,5.06,26.188,14.116,31.994,26.93c-3.051,19.68-19.966,34.295-40.097,34.295c-22.385,0-40.597-18.211-40.597-40.597    c0-4.142-3.358-7.5-7.5-7.5c-0.842,0-1.649,0.145-2.404,0.401C78.154,146.391,78.795,140.708,79.109,136.287z M146.11,228.196    l-6.969,6.623c-6.393,6.075-16.407,6.074-22.799,0l-6.971-6.625c1.176-2.203,1.822-4.702,1.822-7.32v-7.987    c5.229,1.634,10.788,2.515,16.548,2.515c5.754,0,11.31-0.885,16.548-2.51l-0.001,7.981    C144.288,223.491,144.934,225.992,146.11,228.196z M65.63,204.739c-0.407-0.187-0.249-0.678-0.213-0.775    c3.197-8.608,6.039-19.824,8.309-31.025c3.266,13.432,11.419,24.966,22.467,32.61v8.273    C81.973,211.344,71.855,207.607,65.63,204.739z M63.097,264.74c0-6.309,3.505-11.98,9.147-14.801l25.052-12.526l8.713,8.28    c6.094,5.792,13.912,8.686,21.733,8.686c7.818,0,15.64-2.896,21.732-8.686l8.712-8.279l25.052,12.524    c5.58,2.791,9.064,8.369,9.141,14.593h-64.638c-8.556,0-15.516,6.96-15.516,15.516v32.581H95.161v-30.687    c0-4.142-3.358-7.5-7.5-7.5c-4.142,0-7.5,3.358-7.5,7.5v38.187c0,4.142,3.358,7.5,7.5,7.5h24.564v16.548    c0,0.174,0.02,0.343,0.026,0.516H79.645c-9.125,0-16.548-7.423-16.548-16.548V264.74z M480.968,376.757H31.032v-17.065h449.936    V376.757z"/>
	</g>
</g>
<g>
	<g>
		<path d="M183.855,304.612h-16.032c-4.142,0-7.5,3.358-7.5,7.5c0,4.142,3.358,7.5,7.5,7.5h16.032c4.142,0,7.5-3.358,7.5-7.5    C191.355,307.97,187.997,304.612,183.855,304.612z"/>
	</g>
</g>
<g>
	<g>
		<path d="M336.201,304.612h-0.08c-4.142,0-7.46,3.358-7.46,7.5c0,4.142,3.398,7.5,7.54,7.5c4.142,0,7.5-3.358,7.5-7.5    C343.701,307.97,340.343,304.612,336.201,304.612z"/>
	</g>
</g>
<g>
</g>
<g>
</g>
<g>
</g>
<g>
</g>
<g>
</g>
<g>
</g>
<g>
</g>
<g>
</g>
<g>
</g>
<g>
</g>
<g>
</g>
<g>
</g>
<g>
</g>
<g>
</g>
<g>
</g>
</svg>
