<?xml version="1.0" encoding="iso-8859-1"?>
<!-- Generator: Adobe Illustrator 19.0.0, SVG Export Plug-In . SVG Version: 6.00 Build 0)  -->
<svg xmlns="http://www.w3.org/2000/svg" xmlns:xlink="http://www.w3.org/1999/xlink" version="1.1" id="Layer_1" x="0px" y="0px" viewBox="0 0 512 512" style="enable-background:new 0 0 512 512;" xml:space="preserve">
<g>
	<g>
		<path d="M256,168.339c-48.337,0-87.661,39.325-87.661,87.661s39.324,87.661,87.661,87.661c48.337,0,87.661-39.325,87.661-87.661    S304.337,168.339,256,168.339z M256,328.661c-40.065,0-72.661-32.596-72.661-72.661s32.596-72.661,72.661-72.661    s72.661,32.596,72.661,72.661S296.065,328.661,256,328.661z"/>
	</g>
</g>
<g>
	<g>
		<path d="M39.565,216.436C17.749,216.436,0,234.184,0,256s17.748,39.564,39.564,39.564c21.816,0,39.565-17.748,39.565-39.564    S61.381,216.436,39.565,216.436z M39.564,280.564C26.02,280.564,15,269.545,15,256c0-13.545,11.02-24.564,24.564-24.564    c13.544,0,24.565,11.019,24.565,24.564S53.109,280.564,39.564,280.564z"/>
	</g>
</g>
<g>
	<g>
		<path d="M472.436,216.436c-21.816,0-39.564,17.749-39.564,39.564s17.748,39.564,39.564,39.564    C494.252,295.564,512,277.816,512,256C512,234.184,494.252,216.436,472.436,216.436z M472.436,280.564    c-13.545,0-24.564-11.02-24.564-24.564s11.02-24.564,24.564-24.564S497,242.455,497,256S485.98,280.564,472.436,280.564z"/>
	</g>
</g>
<g>
	<g>
		<path d="M256,0c-21.816,0-39.564,17.749-39.564,39.564c0,21.815,17.748,39.565,39.564,39.565    c21.816,0,39.564-17.749,39.564-39.564S277.816,0,256,0z M256,64.129c-13.545,0-24.564-11.02-24.564-24.564S242.455,15,256,15    c13.545,0,24.564,11.02,24.564,24.564C280.564,53.108,269.545,64.129,256,64.129z"/>
	</g>
</g>
<g>
	<g>
		<path d="M256,432.871c-21.816,0-39.564,17.749-39.564,39.564S234.184,512,256,512s39.564-17.749,39.564-39.564    S277.816,432.871,256,432.871z M256,497c-13.545,0-24.564-11.02-24.564-24.564s11.02-24.564,24.564-24.564    s24.564,11.02,24.564,24.564S269.545,497,256,497z"/>
	</g>
</g>
<g>
	<g>
		<path d="M130.934,74.981c-7.473-7.473-17.408-11.588-27.977-11.588c-10.569,0-20.504,4.116-27.976,11.588    c-7.474,7.473-11.589,17.408-11.589,27.976s4.115,20.503,11.588,27.976c7.473,7.473,17.409,11.588,27.977,11.588    c10.568,0,20.504-4.116,27.976-11.588c7.474-7.473,11.589-17.408,11.589-27.976S138.407,82.454,130.934,74.981z M120.327,120.327    c-0.001,0-0.001,0-0.001,0c-4.639,4.64-10.808,7.195-17.369,7.195c-6.561,0-12.73-2.555-17.37-7.195    c-4.64-4.64-7.194-10.809-7.194-17.37c0-6.561,2.554-12.73,7.195-17.37c4.639-4.64,10.808-7.195,17.369-7.195    c6.561,0,12.73,2.555,17.37,7.195c4.64,4.64,7.194,10.809,7.194,17.37C127.521,109.518,124.966,115.687,120.327,120.327z"/>
	</g>
</g>
<g>
	<g>
		<path d="M437.02,381.067c-7.473-7.473-17.409-11.588-27.977-11.588s-20.504,4.116-27.976,11.588    c-7.474,7.473-11.589,17.408-11.589,27.976c0,10.568,4.115,20.503,11.588,27.976s17.408,11.588,27.977,11.588    c10.569,0,20.504-4.116,27.976-11.588c7.474-7.473,11.589-17.408,11.589-27.976C448.608,398.475,444.493,388.54,437.02,381.067z     M426.413,426.413c-4.64,4.64-10.809,7.195-17.37,7.195c-6.561,0-12.73-2.555-17.37-7.195c-4.64-4.64-7.194-10.809-7.194-17.37    c0-6.561,2.555-12.73,7.195-17.37c4.639-4.64,10.808-7.195,17.369-7.195s12.73,2.555,17.37,7.195    c4.64,4.64,7.194,10.809,7.194,17.37C433.607,415.604,431.053,421.773,426.413,426.413z"/>
	</g>
</g>
<g>
	<g>
		<path d="M437.02,74.981c-7.473-7.473-17.408-11.588-27.977-11.588c-10.569,0-20.504,4.116-27.976,11.588    c-7.474,7.473-11.589,17.408-11.589,27.976s4.115,20.503,11.588,27.976c7.473,7.473,17.409,11.588,27.977,11.588    s20.504-4.116,27.976-11.588c7.474-7.473,11.589-17.408,11.589-27.976S444.493,82.454,437.02,74.981z M426.412,120.327    c-4.639,4.64-10.808,7.195-17.369,7.195s-12.73-2.555-17.369-7.195c0,0,0,0-0.001,0c-4.64-4.64-7.194-10.809-7.194-17.37    c0-6.561,2.554-12.73,7.195-17.37c4.639-4.64,10.808-7.195,17.369-7.195s12.73,2.555,17.37,7.195    c4.64,4.64,7.194,10.809,7.194,17.37C433.607,109.518,431.052,115.687,426.412,120.327z"/>
	</g>
</g>
<g>
	<g>
		<path d="M130.934,381.067c-7.473-7.473-17.409-11.588-27.977-11.588c-10.568,0-20.504,4.116-27.976,11.588    c-7.474,7.473-11.589,17.408-11.589,27.976c0,10.568,4.115,20.503,11.588,27.976c7.473,7.473,17.408,11.588,27.977,11.588    c10.569,0,20.504-4.116,27.976-11.588c7.474-7.473,11.589-17.408,11.589-27.976C142.522,398.475,138.407,388.54,130.934,381.067z     M120.326,426.413c-4.639,4.64-10.808,7.195-17.369,7.195c-6.561,0-12.73-2.555-17.369-7.195c0,0,0,0-0.001,0    c-4.64-4.64-7.194-10.809-7.194-17.37c0-6.561,2.555-12.73,7.195-17.37c4.639-4.64,10.808-7.195,17.369-7.195    c6.561,0,12.73,2.555,17.37,7.195s7.194,10.809,7.194,17.37C127.521,415.604,124.967,421.773,120.326,426.413z"/>
	</g>
</g>
<g>
	<g>
		<path d="M143.774,248.5h-40.081c-4.143,0-7.5,3.358-7.5,7.5c0,4.142,3.357,7.5,7.5,7.5h40.081c4.143,0,7.5-3.358,7.5-7.5    C151.274,251.858,147.917,248.5,143.774,248.5z"/>
	</g>
</g>
<g>
	<g>
		<path d="M408.307,248.5h-40.081c-4.143,0-7.5,3.358-7.5,7.5c0,4.142,3.357,7.5,7.5,7.5h40.081c4.143,0,7.5-3.358,7.5-7.5    C415.807,251.858,412.45,248.5,408.307,248.5z"/>
	</g>
</g>
<g>
	<g>
		<path d="M256,96.193c-4.143,0-7.5,3.358-7.5,7.5v40.081c0,4.142,3.357,7.5,7.5,7.5s7.5-3.358,7.5-7.5v-40.081    C263.5,99.551,260.143,96.193,256,96.193z"/>
	</g>
</g>
<g>
	<g>
		<path d="M256,360.726c-4.143,0-7.5,3.358-7.5,7.5v40.081c0,4.142,3.357,7.5,7.5,7.5s7.5-3.358,7.5-7.5v-40.081    C263.5,364.084,260.143,360.726,256,360.726z"/>
	</g>
</g>
<g>
	<g>
		<path d="M306.169,232.013c-1.787-3.738-6.265-5.317-10.002-3.532c-3.736,1.787-5.317,6.265-3.531,10.001    c7.408,15.495,4.221,34.07-7.932,46.223c-12.146,12.147-30.718,15.338-46.209,7.938c-3.737-1.785-8.215-0.204-10,3.535    c-1.785,3.738-0.202,8.215,3.535,10c7.625,3.642,15.793,5.411,23.902,5.411c14.456,0,28.723-5.622,39.379-16.277    C311.951,278.671,316.314,253.233,306.169,232.013z"/>
	</g>
</g>
<g>
	<g>
		<path d="M279.965,205.819c-21.215-10.133-46.646-5.767-63.279,10.867c-16.628,16.626-20.998,42.049-10.876,63.261    c1.286,2.696,3.974,4.272,6.773,4.272c1.083,0,2.183-0.236,3.225-0.733c3.739-1.784,5.323-6.261,3.539-9.999    c-7.391-15.488-4.197-34.052,7.944-46.194c12.148-12.147,30.717-15.338,46.209-7.939c3.734,1.783,8.215,0.203,10-3.535    C285.285,212.081,283.702,207.604,279.965,205.819z"/>
	</g>
</g>
<g>
	<g>
		<path d="M181.949,171.341L153.606,143c-2.93-2.929-7.678-2.929-10.607,0s-2.929,7.678,0,10.606l28.342,28.341    c1.465,1.464,3.385,2.197,5.304,2.197s3.839-0.732,5.304-2.197C184.878,179.018,184.878,174.269,181.949,171.341z"/>
	</g>
</g>
<g>
	<g>
		<path d="M369.001,358.394l-28.342-28.341c-2.93-2.929-7.678-2.929-10.607,0c-2.929,2.929-2.929,7.678,0,10.606L358.394,369    c1.465,1.464,3.385,2.197,5.304,2.197c1.919,0,3.839-0.732,5.304-2.197C371.93,366.071,371.93,361.322,369.001,358.394z"/>
	</g>
</g>
<g>
	<g>
		<path d="M369.001,143.001c-2.93-2.929-7.678-2.929-10.607,0l-28.342,28.341c-2.929,2.929-2.929,7.678,0,10.606    c1.465,1.465,3.384,2.197,5.303,2.197s3.839-0.732,5.304-2.197l28.342-28.341C371.93,150.678,371.93,145.929,369.001,143.001z"/>
	</g>
</g>
<g>
	<g>
		<path d="M181.949,330.052c-2.929-2.928-7.678-2.929-10.608,0l-28.342,28.341c-2.929,2.929-2.929,7.678,0,10.606    c1.465,1.465,3.384,2.197,5.304,2.197c1.919,0,3.839-0.732,5.304-2.197l28.342-28.341    C184.878,337.729,184.878,332.98,181.949,330.052z"/>
	</g>
</g>
<g>
</g>
<g>
</g>
<g>
</g>
<g>
</g>
<g>
</g>
<g>
</g>
<g>
</g>
<g>
</g>
<g>
</g>
<g>
</g>
<g>
</g>
<g>
</g>
<g>
</g>
<g>
</g>
<g>
</g>
</svg>
