<?xml version="1.0" encoding="iso-8859-1"?>
<!-- Generator: Adobe Illustrator 19.0.0, SVG Export Plug-In . SVG Version: 6.00 Build 0)  -->
<svg xmlns="http://www.w3.org/2000/svg" xmlns:xlink="http://www.w3.org/1999/xlink" version="1.1" id="Layer_1" x="0px" y="0px" viewBox="0 0 512 512" style="enable-background:new 0 0 512 512;" xml:space="preserve">
<g>
	<g>
		<path d="M256,448.903c-17.396,0-31.549,14.152-31.549,31.548S238.604,512,256,512s31.549-14.152,31.549-31.548    S273.396,448.903,256,448.903z M256,497c-9.125,0-16.549-7.423-16.549-16.548s7.424-16.548,16.549-16.548    s16.549,7.423,16.549,16.548S265.125,497,256,497z"/>
	</g>
</g>
<g>
	<g>
		<path d="M368.226,216.436c-21.816,0-39.565,17.748-39.565,39.564s17.748,39.564,39.565,39.564    c21.816,0,39.564-17.749,39.564-39.564S390.042,216.436,368.226,216.436z M368.226,280.564c-13.544,0-24.564-11.02-24.564-24.564    s11.019-24.564,24.564-24.564c13.545,0,24.564,11.02,24.564,24.564S381.77,280.564,368.226,280.564z"/>
	</g>
</g>
<g>
	<g>
		<path d="M143.774,216.436c-21.816,0-39.564,17.748-39.564,39.564s17.748,39.564,39.564,39.564    c21.816,0,39.564-17.749,39.564-39.564S165.59,216.436,143.774,216.436z M143.774,280.564c-13.544,0-24.564-11.019-24.564-24.564    c0-13.545,11.019-24.564,24.564-24.564c13.545,0,24.564,11.02,24.564,24.564S157.318,280.564,143.774,280.564z"/>
	</g>
</g>
<g>
	<g>
		<path d="M31.549,448.903C14.152,448.903,0,463.056,0,480.452S14.152,512,31.549,512c17.396,0,31.548-14.152,31.548-31.548    S48.944,448.903,31.549,448.903z M31.549,497C22.424,497,15,489.577,15,480.452s7.424-16.548,16.549-16.548    s16.548,7.423,16.548,16.548S40.674,497,31.549,497z"/>
	</g>
</g>
<g>
	<g>
		<path d="M480.451,448.903c-17.396,0-31.548,14.152-31.548,31.548S463.056,512,480.451,512C497.848,512,512,497.848,512,480.452    S497.848,448.903,480.451,448.903z M480.451,497c-9.125,0-16.548-7.423-16.548-16.548s7.423-16.548,16.548-16.548    S497,471.327,497,480.452S489.576,497,480.451,497z"/>
	</g>
</g>
<g>
	<g>
		<path d="M256,0c-30.656,0-55.597,24.94-55.597,55.597s24.941,55.596,55.597,55.596s55.597-24.94,55.597-55.597S286.656,0,256,0z     M256,96.193c-22.385,0-40.597-18.211-40.597-40.597S233.615,15,256,15s40.597,18.211,40.597,40.597S278.385,96.193,256,96.193z"/>
	</g>
</g>
<g>
	<g>
		<path d="M237.219,428.844l-18.643-35.287c-5.479-10.371-16.167-16.812-27.895-16.812c-0.001,0-0.004,0-0.005,0l-39.402,0.005    v-56.623c0-4.142-3.357-7.5-7.5-7.5s-7.5,3.358-7.5,7.5v56.625l-39.418,0.005c-11.727,0.001-22.413,6.443-27.892,16.812    l-18.637,35.278c-1.935,3.663-0.534,8.2,3.129,10.135c1.117,0.59,2.315,0.87,3.496,0.87c2.691,0,5.294-1.453,6.639-3.998    l18.637-35.278c2.873-5.438,8.479-8.818,14.63-8.818l93.82-0.013c0.001,0,0.002,0,0.003,0c6.151,0,11.758,3.379,14.631,8.818    l18.643,35.287c1.936,3.663,6.472,5.066,10.136,3.129C237.753,437.044,239.154,432.506,237.219,428.844z"/>
	</g>
</g>
<g>
	<g>
		<path d="M338.862,196.384l-12.425-23.519c-4.087-7.735-12.06-12.54-20.808-12.54H263.5v-24.567c0-4.142-3.357-7.5-7.5-7.5    s-7.5,3.358-7.5,7.5v24.567h-42.128c-8.748,0-16.721,4.805-20.808,12.54l-12.425,23.519c-1.934,3.662-0.534,8.2,3.13,10.135    c3.664,1.937,8.2,0.535,10.135-3.128l12.425-23.519c1.481-2.805,4.372-4.547,7.544-4.547h99.256c3.172,0,6.063,1.742,7.544,4.547    l12.425,23.519c1.345,2.545,3.946,3.998,6.639,3.998c1.181,0,2.38-0.28,3.496-0.87    C339.396,204.584,340.796,200.047,338.862,196.384z"/>
	</g>
</g>
<g>
	<g>
		<path d="M461.672,428.849l-18.637-35.278c-5.479-10.369-16.165-16.81-27.892-16.812l-39.418-0.005v-56.625    c0-4.142-3.357-7.5-7.5-7.5s-7.5,3.358-7.5,7.5v56.623l-39.402-0.005c-0.002,0-0.003,0-0.005,0    c-11.728,0-22.416,6.442-27.895,16.812l-18.643,35.287c-1.935,3.662-0.534,8.2,3.128,10.135c3.664,1.937,8.201,0.534,10.136-3.128    l18.643-35.287c2.873-5.44,8.479-8.818,14.631-8.818c0.001,0,0.002,0,0.003,0l93.82,0.013c6.151,0,11.757,3.38,14.63,8.818    l18.637,35.278c1.345,2.544,3.946,3.997,6.639,3.997c1.181,0,2.38-0.28,3.496-0.87    C462.206,437.049,463.606,432.512,461.672,428.849z"/>
	</g>
</g>
<g>
</g>
<g>
</g>
<g>
</g>
<g>
</g>
<g>
</g>
<g>
</g>
<g>
</g>
<g>
</g>
<g>
</g>
<g>
</g>
<g>
</g>
<g>
</g>
<g>
</g>
<g>
</g>
<g>
</g>
</svg>
