<?xml version="1.0" encoding="iso-8859-1"?>
<!-- Generator: Adobe Illustrator 19.0.0, SVG Export Plug-In . SVG Version: 6.00 Build 0)  -->
<svg xmlns="http://www.w3.org/2000/svg" xmlns:xlink="http://www.w3.org/1999/xlink" version="1.1" id="Layer_1" x="0px" y="0px" viewBox="0 0 512.001 512.001" style="enable-background:new 0 0 512.001 512.001;" xml:space="preserve">
<g>
	<g>
		<path d="M392.275,28.057c-39.496,0-71.629,32.133-71.629,71.629c0,28.179,16.362,52.599,40.08,64.286v23.891    c0,8.556,6.961,15.516,15.517,15.516h8.532v0.516c0,4.142,3.357,7.5,7.5,7.5s7.5-3.358,7.5-7.5v-0.516h8.532    c8.556,0,15.516-6.96,15.516-15.516v-23.89c23.718-11.687,40.081-36.108,40.081-64.287    C463.904,60.19,431.771,28.057,392.275,28.057z M408.822,187.863c0,0.285-0.231,0.516-0.516,0.516h-32.064    c-0.285,0-0.517-0.231-0.517-0.516v-18.499c5.316,1.262,10.852,1.951,16.549,1.951c5.696,0,11.232-0.688,16.548-1.951V187.863z     M379.927,115.203h24.693l-10.485,41.065c-0.619,0.02-1.237,0.047-1.861,0.047c-0.625,0-1.242-0.027-1.862-0.047L379.927,115.203z     M410.365,153.334l13.224-51.793c1.025-4.014-1.397-8.098-5.411-9.123c-4.012-1.021-8.098,1.397-9.122,5.412l-0.607,2.379    c-0.048-0.001-0.094-0.007-0.142-0.007h-32.064c-0.048,0-0.095,0.006-0.143,0.007l-0.607-2.379    c-1.023-4.013-5.11-6.433-9.122-5.412c-4.014,1.025-6.437,5.109-5.411,9.123l13.224,51.792    c-22.377-7.567-38.537-28.749-38.537-53.648c-0.001-31.225,25.402-56.628,56.627-56.628c31.226,0,56.629,25.404,56.629,56.629    C448.903,124.586,432.743,145.768,410.365,153.334z"/>
	</g>
</g>
<g>
	<g>
		<path d="M263.969,388.998l-67.528-29.825c-3.089-1.365-5.085-4.428-5.085-7.805v-25.785c17.089-11.087,30.092-27.958,36.213-47.82    c18.006-20.411,27.916-46.602,27.916-73.867c0-41.619-22.881-77.99-56.721-97.208c0.397-2.312,0.608-4.656,0.608-7.002    c0-26.236-24.94-47.581-55.597-47.581c-30.657,0-55.598,21.345-55.598,47.581c0,2.348,0.224,4.684,0.621,6.995    c-33.847,19.216-56.734,55.591-56.734,97.215c0,27.299,9.903,53.453,27.917,73.87c6.121,19.861,19.124,36.73,36.212,47.817v25.785    c0,3.377-1.996,6.44-5.085,7.805L23.58,388.998C9.255,395.324,0,409.53,0,425.189v51.254c0,4.142,3.358,7.5,7.5,7.5    s7.5-3.358,7.5-7.5v-51.254c0-9.722,5.747-18.542,14.64-22.47l42.88-18.939c13.437,26.908,40.895,44.05,71.255,44.05    c30.472,0,57.838-17.104,71.266-44.045l42.868,18.933c8.894,3.928,14.641,12.748,14.641,22.47v51.254c0,4.142,3.357,7.5,7.5,7.5    s7.5-3.358,7.5-7.5v-51.254C287.549,409.53,278.293,395.324,263.969,388.998z M143.774,67.105    c22.385,0,40.597,14.616,40.597,32.581c0,0.045-0.004,0.091-0.004,0.136c-12.588-4.927-26.28-7.636-40.593-7.636    c-14.313,0-28.004,2.709-40.592,7.636c0-0.046-0.005-0.091-0.005-0.136C103.177,81.721,121.389,67.105,143.774,67.105z     M71.113,251.992v-6.273c0-2.882,1.598-5.523,4.274-7.064c9.377-5.399,21.744-15.401,27.406-32.388    c1.31-3.93-0.814-8.177-4.744-9.487c-3.931-1.31-8.178,0.814-9.487,4.744c-4.171,12.516-13.538,20.031-20.66,24.132    c-6.998,4.029-11.433,11.302-11.758,19.142c-5.929-12.687-9.08-26.609-9.08-40.902c0-53.326,43.384-96.709,96.71-96.709    s96.709,43.384,96.709,96.709c0,14.246-3.146,28.144-9.048,40.817v-6.784c0-9.14-3.886-17.762-10.662-23.654    c-15.071-13.106-49.183-35.977-108.318-41.891c-4.121-0.418-7.797,2.595-8.209,6.717s2.595,7.797,6.717,8.209    c55.003,5.5,86.242,26.347,99.967,38.284c3.499,3.042,5.505,7.539,5.505,12.335v14.063c0,40.065-32.596,72.661-72.662,72.661    C103.708,324.654,71.113,292.058,71.113,251.992z M143.774,412.831c-24.403,0-46.502-13.64-57.523-35.115l10.917-4.822    c8.52-3.763,14.024-12.212,14.024-21.526v-17.997c10.078,4.049,21.073,6.282,32.581,6.282s22.503-2.233,32.581-6.282v17.997    c0,9.313,5.505,17.763,14.024,21.526l10.915,4.821C190.282,399.214,168.267,412.831,143.774,412.831z"/>
	</g>
</g>
<g>
	<g>
		<path d="M63.613,436.879c-4.142,0-7.5,3.358-7.5,7.5v32.064c0,4.142,3.358,7.5,7.5,7.5c4.142,0,7.5-3.358,7.5-7.5v-32.064    C71.113,440.237,67.755,436.879,63.613,436.879z"/>
	</g>
</g>
<g>
	<g>
		<path d="M223.936,436.879c-4.142,0-7.5,3.358-7.5,7.5v32.064c0,4.142,3.358,7.5,7.5,7.5c4.142,0,7.5-3.358,7.5-7.5v-32.064    C231.436,440.237,228.078,436.879,223.936,436.879z"/>
	</g>
</g>
<g>
	<g>
		<path d="M480.451,52.105c-4.143,0-7.5,3.358-7.5,7.5c0,4.142,3.357,7.5,7.5,7.5c9.125,0,16.549,7.423,16.549,16.548v128.258    c0,9.125-7.424,16.548-16.549,16.548H400.29c-1.585,0-3.13,0.502-4.411,1.435l-71.483,51.988l11.026-44.104    c0.56-2.24,0.057-4.614-1.365-6.435c-1.421-1.82-3.602-2.884-5.911-2.884h-24.049c-9.125,0-16.548-7.423-16.548-16.548V83.654    c0-9.125,7.423-16.548,16.548-16.548c4.143,0,7.5-3.358,7.5-7.5c0-4.142-3.357-7.5-7.5-7.5c-17.396,0-31.548,14.152-31.548,31.548    v128.258c0,17.396,14.152,31.548,31.548,31.548h14.443l-11.028,44.108c-1.188,4.751,0.668,9.592,4.729,12.331    c1.972,1.33,4.208,1.993,6.44,1.993c2.365,0,4.727-0.744,6.765-2.226l77.283-56.207h77.723c17.396,0,31.549-14.152,31.549-31.548    V83.654C512,66.258,497.848,52.105,480.451,52.105z"/>
	</g>
</g>
<g>
</g>
<g>
</g>
<g>
</g>
<g>
</g>
<g>
</g>
<g>
</g>
<g>
</g>
<g>
</g>
<g>
</g>
<g>
</g>
<g>
</g>
<g>
</g>
<g>
</g>
<g>
</g>
<g>
</g>
</svg>
