<?xml version="1.0" encoding="iso-8859-1"?>
<!-- Generator: Adobe Illustrator 19.0.0, SVG Export Plug-In . SVG Version: 6.00 Build 0)  -->
<svg xmlns="http://www.w3.org/2000/svg" xmlns:xlink="http://www.w3.org/1999/xlink" version="1.1" id="Layer_1" x="0px" y="0px" viewBox="0 0 511.999 511.999" style="enable-background:new 0 0 511.999 511.999;" xml:space="preserve">
<g>
	<g>
		<path d="M205.264,210.602c-28.366-28.367-87.715-22.944-111.917-19.295c-7.623,1.149-13.155,7.6-13.155,15.339v17.279    c0,4.142,3.358,7.5,7.5,7.5c4.142,0,7.5-3.358,7.5-7.5v-17.28c0-0.255,0.168-0.473,0.392-0.507    c9.666-1.457,28.851-3.705,48.725-2.38c23.388,1.557,40.327,7.428,50.349,17.45c2.929,2.929,7.678,2.929,10.606,0    C208.193,218.279,208.193,213.529,205.264,210.602z"/>
	</g>
</g>
<g>
	<g>
		<path d="M261.601,393.638l-46.145-16.78c0.157-2.063-0.539-4.161-2.044-5.742l-13.971-14.678v-24.64    c1.477-1.217,2.933-2.467,4.344-3.789c17.625-16.521,27.733-39.844,27.733-63.991V244.34c5.322-11.581,8.019-23.837,8.019-36.457    v-80.192c0-4.142-3.358-7.5-7.5-7.5H119.769c-39.51,0-71.653,32.144-71.653,71.654v16.038c0,12.62,2.697,24.876,8.019,36.457    v16.931c0,28.036,12.466,53.294,32.077,69.946v25.219l-13.972,14.68c-1.505,1.581-2.201,3.679-2.044,5.742l-46.145,16.78    C10.469,399.303,0,414.25,0,430.831v57.725c0,4.142,3.358,7.5,7.5,7.5s7.5-3.358,7.5-7.5v-57.725    c0-10.296,6.501-19.579,16.178-23.097l48.652-17.692l20.254,30.382c2.589,3.883,6.738,6.375,11.384,6.834    c0.517,0.051,1.033,0.077,1.546,0.077c4.098,0,8.023-1.613,10.957-4.546l12.357-12.357v78.124c0,4.142,3.358,7.5,7.5,7.5    c4.142,0,7.5-3.358,7.5-7.5v-78.124l12.357,12.357c2.933,2.934,6.858,4.546,10.957,4.546c0.513,0,1.029-0.025,1.546-0.077    c4.646-0.459,8.794-2.951,11.384-6.835l20.254-30.381l48.652,17.692c9.676,3.519,16.178,12.801,16.178,23.097v57.725    c0,4.142,3.358,7.5,7.5,7.5c4.142,0,7.5-3.358,7.5-7.5v-57.725C287.652,414.25,277.183,399.303,261.601,393.638z M71.134,261.271    v-18.608c0-1.129-0.255-2.244-0.746-3.261c-4.826-9.994-7.273-20.599-7.273-31.518v-16.038c0-31.239,25.415-56.654,56.653-56.654    h104.769v72.692c0,10.919-2.447,21.524-7.273,31.518c-0.491,1.017-0.746,2.132-0.746,3.261v21.355    c0,20.311-8.165,39.15-22.991,53.047c-14.814,13.885-34.185,20.806-54.555,19.488C100.932,334.091,71.134,301.023,71.134,261.271z     M113.363,412.182c-0.052,0.052-0.172,0.17-0.418,0.149c-0.245-0.024-0.34-0.167-0.381-0.229l-23.325-34.988l7.506-7.887    l35.385,24.187L113.363,412.182z M143.826,383.24l-40.615-27.762v-14c10.51,5.681,22.277,9.234,34.792,10.044    c1.976,0.128,3.941,0.191,5.899,0.191c14.341,0,28.143-3.428,40.539-9.935v13.7L143.826,383.24z M175.089,412.104    c-0.041,0.062-0.136,0.205-0.381,0.229c-0.245,0.021-0.366-0.098-0.418-0.149l-18.767-18.767l35.385-24.187l7.506,7.887    L175.089,412.104z"/>
	</g>
</g>
<g>
	<g>
		<path d="M55.615,448.979c-4.142,0-7.5,3.358-7.5,7.5v32.077c0,4.142,3.358,7.5,7.5,7.5c4.142,0,7.5-3.358,7.5-7.5v-32.077    C63.115,452.336,59.757,448.979,55.615,448.979z"/>
	</g>
</g>
<g>
	<g>
		<path d="M232.037,448.979c-4.142,0-7.5,3.358-7.5,7.5v32.077c0,4.142,3.358,7.5,7.5,7.5c4.142,0,7.5-3.358,7.5-7.5v-32.077    C239.537,452.336,236.179,448.979,232.037,448.979z"/>
	</g>
</g>
<g>
	<g>
		<path d="M480.442,64.059h-40.095c-4.142,0-7.5,3.358-7.5,7.5c0,4.142,3.358,7.5,7.5,7.5h40.095c9.13,0,16.558,7.428,16.558,16.558    v128.307c0,9.13-7.428,16.558-16.558,16.558H400.25c-1.585,0-3.129,0.502-4.411,1.435l-71.518,52.012l11.032-44.128    c0.561-2.24,0.057-4.614-1.364-6.435s-3.602-2.884-5.912-2.884h-24.058c-9.13,0-16.558-7.428-16.558-16.558V95.615    c0-9.13,7.428-16.558,16.558-16.558h40.096c4.142,0,7.5-3.358,7.5-7.5c0-4.142-3.358-7.5-7.5-7.5h-40.096    c-17.401,0-31.558,14.157-31.558,31.558v128.307c0,17.401,14.157,31.558,31.558,31.558h14.452l-11.033,44.129    c-1.188,4.752,0.669,9.593,4.73,12.333c1.972,1.33,4.208,1.993,6.441,1.993c2.366,0,4.728-0.744,6.765-2.226l77.314-56.228h77.753    c17.401,0,31.558-14.157,31.558-31.558V95.615C512,78.214,497.843,64.059,480.442,64.059z"/>
	</g>
</g>
<g>
	<g>
		<path d="M413.735,18.307c-1.417-1.509-3.396-2.365-5.466-2.365h-32.077c-2.07,0-4.049,0.856-5.466,2.365    c-1.417,1.509-2.148,3.537-2.019,5.603l8.02,128.307c0.247,3.953,3.525,7.032,7.485,7.032h16.038c3.96,0,7.238-3.08,7.485-7.032    l8.019-128.307C415.883,21.844,415.152,19.817,413.735,18.307z M393.204,144.25h-1.946l-7.082-113.307h16.11L393.204,144.25z"/>
	</g>
</g>
<g>
	<g>
		<path d="M392.231,168.307c-12.979,0-23.539,10.56-23.539,23.539s10.56,23.538,23.539,23.538s23.538-10.559,23.538-23.538    S405.21,168.307,392.231,168.307z M392.231,200.385c-4.708,0-8.539-3.83-8.539-8.538s3.831-8.539,8.539-8.539    s8.538,3.831,8.538,8.539S396.939,200.385,392.231,200.385z"/>
	</g>
</g>
<g>
</g>
<g>
</g>
<g>
</g>
<g>
</g>
<g>
</g>
<g>
</g>
<g>
</g>
<g>
</g>
<g>
</g>
<g>
</g>
<g>
</g>
<g>
</g>
<g>
</g>
<g>
</g>
<g>
</g>
</svg>
