<?xml version="1.0" encoding="iso-8859-1"?>
<!-- Generator: Adobe Illustrator 19.0.0, SVG Export Plug-In . SVG Version: 6.00 Build 0)  -->
<svg xmlns="http://www.w3.org/2000/svg" xmlns:xlink="http://www.w3.org/1999/xlink" version="1.1" id="Layer_1" x="0px" y="0px" viewBox="0 0 512 512" style="enable-background:new 0 0 512 512;" xml:space="preserve">
<g>
	<g>
		<path d="M481.205,142.431c-7.328-10.879-19.583-17.373-32.784-17.373H63.59c-13.198,0-25.454,6.495-32.785,17.376    C10.652,172.371,0,207.333,0,243.54c0,36.207,10.652,71.169,30.804,101.106c5.736,8.525,14.499,14.342,24.369,16.473v17.406    c0,4.649,3.768,8.417,8.417,8.417c4.65,0,8.417-3.769,8.417-8.417v-16.491h27.171c4.65,0,8.417-3.769,8.417-8.417    s-3.768-8.417-8.417-8.417H63.59c-7.591,0-14.626-3.721-18.82-9.953c-18.276-27.15-27.936-58.861-27.936-91.707    c0-32.846,9.66-64.557,27.934-91.703c4.195-6.227,11.232-9.945,18.822-9.945h384.831c7.591,0,14.626,3.717,18.82,9.941    c18.269,27.136,27.925,58.849,27.925,91.707c0,32.858-9.656,64.569-27.927,91.709c-4.192,6.231-11.227,9.95-18.819,9.95H129.481    c-4.65,0-8.417,3.769-8.417,8.417s3.768,8.417,8.417,8.417h310.522v16.491c0,4.649,3.768,8.417,8.417,8.417    s8.417-3.769,8.417-8.417v-17.406c9.87-2.131,18.634-7.948,24.368-16.472C501.351,314.722,512,279.759,512,243.54    C512,207.321,501.351,172.358,481.205,142.431z"/>
	</g>
</g>
<g>
	<g>
		<path d="M229.797,208.609c-1.797-4.287-6.732-6.305-11.017-4.507c-4.287,1.798-6.305,6.73-4.507,11.018    c3.775,9.004,5.69,18.565,5.69,28.42c0,40.559-32.997,73.557-73.556,73.557c-40.554,0-73.545-32.997-73.545-73.557    c0-40.553,32.992-73.545,73.545-73.545c19.811,0,38.392,7.76,52.319,21.85c3.267,3.307,8.597,3.337,11.903,0.07    c3.305-3.268,3.338-8.597,0.07-11.903c-17.114-17.315-39.947-26.851-64.292-26.851c-49.835,0-90.38,40.545-90.38,90.38    c0,49.842,40.545,90.391,90.38,90.391c49.842,0,90.391-40.549,90.391-90.391C236.798,231.438,234.443,219.686,229.797,208.609z"/>
	</g>
</g>
<g>
	<g>
		<path d="M146.406,186.268c-31.58,0-57.272,25.692-57.272,57.272c0,31.58,25.693,57.272,57.272,57.272    c31.579,0,57.272-25.692,57.272-57.272C203.678,211.96,177.986,186.268,146.406,186.268z M146.406,283.977    c-22.297,0-40.437-18.14-40.437-40.437c0-22.297,18.14-40.437,40.437-40.437c22.297,0,40.437,18.14,40.437,40.437    C186.843,265.837,168.703,283.977,146.406,283.977z"/>
	</g>
</g>
<g>
	<g>
		<path d="M439.834,171.999H263.078c-4.65,0-8.417,3.769-8.417,8.417s3.768,8.417,8.417,8.417h176.756    c4.65,0,8.417-3.769,8.417-8.417S444.484,171.999,439.834,171.999z"/>
	</g>
</g>
<g>
	<g>
		<path d="M451.057,214.084h-20.761c-4.65,0-8.417,3.769-8.417,8.417s3.768,8.417,8.417,8.417h20.761    c4.65,0,8.417-3.769,8.417-8.417S455.707,214.084,451.057,214.084z"/>
	</g>
</g>
<g>
	<g>
		<path d="M402.239,214.084H274.302c-4.65,0-8.417,3.769-8.417,8.417s3.769,8.417,8.417,8.417h127.937    c4.65,0,8.417-3.769,8.417-8.417S406.888,214.084,402.239,214.084z"/>
	</g>
</g>
<g>
	<g>
		<path d="M451.057,256.168H274.302c-4.65,0-8.417,3.769-8.417,8.417s3.768,8.417,8.417,8.417h176.756    c4.65,0,8.417-3.769,8.417-8.417S455.707,256.168,451.057,256.168z"/>
	</g>
</g>
<g>
	<g>
		<path d="M439.834,298.253h-84.729c-4.65,0-8.417,3.769-8.417,8.417s3.768,8.417,8.417,8.417h84.729    c4.65,0,8.417-3.769,8.417-8.417S444.484,298.253,439.834,298.253z"/>
	</g>
</g>
<g>
	<g>
		<path d="M327.047,298.253h-63.969c-4.65,0-8.417,3.769-8.417,8.417s3.769,8.417,8.417,8.417h63.969    c4.65,0,8.417-3.769,8.417-8.417S331.697,298.253,327.047,298.253z"/>
	</g>
</g>
<g>
</g>
<g>
</g>
<g>
</g>
<g>
</g>
<g>
</g>
<g>
</g>
<g>
</g>
<g>
</g>
<g>
</g>
<g>
</g>
<g>
</g>
<g>
</g>
<g>
</g>
<g>
</g>
<g>
</g>
</svg>
