<?xml version="1.0" encoding="iso-8859-1"?>
<!-- Generator: Adobe Illustrator 19.0.0, SVG Export Plug-In . SVG Version: 6.00 Build 0)  -->
<svg xmlns="http://www.w3.org/2000/svg" xmlns:xlink="http://www.w3.org/1999/xlink" version="1.1" id="Layer_1" x="0px" y="0px" viewBox="0 0 512 512" style="enable-background:new 0 0 512 512;" xml:space="preserve">
<g>
	<g>
		<path d="M439.775,58.49c-5.051,0-9.143,4.094-9.143,9.143v426.08H81.369V18.287h349.263v18.869    c-0.001,5.049,4.093,9.143,9.142,9.143c5.051,0,9.143-4.094,9.143-9.143V9.143c0-5.05-4.093-9.143-9.143-9.143H72.225    c-5.05,0-9.143,4.094-9.143,9.143v493.713c0,5.05,4.094,9.143,9.143,9.143h367.549c5.051,0,9.143-4.094,9.143-9.143V67.634    C448.918,62.584,444.825,58.49,439.775,58.49z"/>
	</g>
</g>
<g>
	<g>
		<path d="M244.461,297.425c-20.49,0-37.158,16.669-37.158,37.158s16.669,37.158,37.158,37.158c20.49,0,37.158-16.669,37.158-37.158    S264.95,297.425,244.461,297.425z M244.461,353.455c-10.406,0-18.872-8.466-18.872-18.872c0-10.406,8.465-18.872,18.872-18.872    c10.406,0,18.872,8.465,18.872,18.872S254.867,353.455,244.461,353.455z"/>
	</g>
</g>
<g>
	<g>
		<path d="M336.198,216.691l42.263-26.078c15.468-9.537,24.703-26.105,24.703-44.321c0-13.862-5.412-26.902-15.235-36.712    c-11.316-11.316-26.924-16.741-42.814-14.884c-15.891,1.857-29.824,10.733-38.226,24.35l-41.715,67.606    c-6.834-0.95-13.776-1.435-20.713-1.435c-31.413,0-61.469,9.643-86.92,27.888c-4.105,2.942-5.046,8.654-2.104,12.758    c1.786,2.491,4.591,3.817,7.439,3.817c1.845,0,3.706-0.556,5.319-1.713c22.326-16.004,48.698-24.464,76.266-24.464    c3.36,0,6.716,0.156,10.06,0.411l-42.663,69.142c-2.225,3.606-1.68,8.269,1.317,11.266c1.764,1.764,4.105,2.678,6.469,2.678    c1.652,0,3.313-0.446,4.798-1.362l94.966-58.589c35.248,24.558,56.133,64.337,56.133,107.532    c0,72.27-58.801,131.066-131.078,131.066c-72.27,0-131.066-58.796-131.066-131.066c0-29.035,9.296-56.541,26.883-79.543    c3.067-4.012,2.302-9.75-1.71-12.816c-4.01-3.066-9.75-2.302-12.816,1.71c-20.047,26.219-30.642,57.565-30.642,90.65    c0,82.353,67,149.353,149.353,149.353c82.36,0,149.365-67,149.365-149.353C393.827,287.999,372.524,244.895,336.198,216.691z     M247.685,249.812L322.45,128.65c5.449-8.831,14.483-14.587,24.786-15.79c1.331-0.155,2.658-0.232,3.976-0.232    c8.896,0,17.398,3.494,23.792,9.888c6.367,6.36,9.875,14.804,9.875,23.776c-0.001,11.823-5.987,22.572-16.019,28.755    L247.685,249.812z"/>
	</g>
</g>
<g>
	<g>
		<path d="M244.461,81.643h-75.158v-3.45c0-20.455-16.642-37.097-37.097-37.097c-9.903,0-19.217,3.861-26.227,10.871    c-7.01,7.01-10.871,16.325-10.871,26.227v78.425c0,5.049,4.094,9.143,9.143,9.143h140.209c5.049,0,9.143-4.094,9.143-9.143V90.787    C253.604,85.737,249.511,81.643,244.461,81.643z M235.317,147.475H113.395V78.193c0-5.018,1.958-9.741,5.514-13.297    c3.556-3.556,8.279-5.514,13.297-5.514c10.372,0,18.811,8.439,18.811,18.811v12.593c0,5.05,4.094,9.143,9.143,9.143h75.158    V147.475z"/>
	</g>
</g>
<g>
	<g>
		<path d="M395.605,49.349h-201.14c-5.049,0-9.143,4.094-9.143,9.143c0,5.05,4.094,9.143,9.143,9.143h201.14    c5.051,0,9.143-4.094,9.143-9.143C404.749,53.443,400.655,49.349,395.605,49.349z"/>
	</g>
</g>
<g>
</g>
<g>
</g>
<g>
</g>
<g>
</g>
<g>
</g>
<g>
</g>
<g>
</g>
<g>
</g>
<g>
</g>
<g>
</g>
<g>
</g>
<g>
</g>
<g>
</g>
<g>
</g>
<g>
</g>
</svg>
