<?xml version="1.0" encoding="iso-8859-1"?>
<!-- Generator: Adobe Illustrator 19.0.0, SVG Export Plug-In . SVG Version: 6.00 Build 0)  -->
<svg xmlns="http://www.w3.org/2000/svg" xmlns:xlink="http://www.w3.org/1999/xlink" version="1.1" id="Layer_1" x="0px" y="0px" viewBox="0 0 512 512" style="enable-background:new 0 0 512 512;" xml:space="preserve">
<g>
	<g>
		<path d="M455.489,160.381c16.544,0,30.003-13.459,30.003-30.003V29.992C485.492,13.455,472.033,0,455.489,0h-72.363    c-4.851,0-8.783,3.932-8.783,8.783s3.932,8.783,8.783,8.783h72.363c6.858,0,12.437,5.574,12.437,12.425v100.386    c0,6.858-5.579,12.437-12.437,12.437H56.511c-6.858,0-12.437-5.579-12.437-12.437V29.992c0-6.851,5.579-12.425,12.437-12.425    h291.483c4.851,0,8.783-3.933,8.783-8.783S352.844,0,347.994,0H56.511C39.967,0,26.508,13.455,26.508,29.992v100.386    c0,16.544,13.459,30.003,30.003,30.003h31.432v15.423H56.511c-16.544,0-30.003,13.459-30.003,30.003v100.374    c0,16.544,13.459,30.003,30.003,30.003h31.432v15.435H56.511c-16.544,0-30.003,13.459-30.003,30.003v100.374    c0,16.544,13.459,30.003,30.003,30.003h58.437c4.851,0,8.783-3.933,8.783-8.783s-3.933-8.783-8.783-8.783H56.511    c-6.858,0-12.437-5.579-12.437-12.437V381.623c0-6.858,5.579-12.437,12.437-12.437h398.978c6.858,0,12.437,5.579,12.437,12.437    v100.374c0,6.858-5.579,12.437-12.437,12.437H150.081c-4.851,0-8.783,3.932-8.783,8.783S145.23,512,150.081,512h305.408    c16.544,0,30.003-13.459,30.003-30.003V381.623c0-16.544-13.459-30.003-30.003-30.003h-31.444v-15.435h31.444    c16.544,0,30.003-13.459,30.003-30.003V205.807c0-16.544-13.459-30.003-30.003-30.003h-31.444v-15.423H455.489z M105.509,160.381    h300.97v15.423h-300.97V160.381z M406.479,351.619h-300.97v-15.435h300.97V351.619z M455.489,193.37    c6.858,0,12.437,5.579,12.437,12.437v100.374c0,6.858-5.579,12.437-12.437,12.437H56.511c-6.858,0-12.437-5.579-12.437-12.437    V205.807c0-6.858,5.579-12.437,12.437-12.437H455.489z"/>
	</g>
</g>
<g>
	<g>
		<path d="M89.219,105.948h-4.345c-3.764,0-6.945-2.279-6.945-4.977V59.398c0-2.698,3.181-4.977,6.945-4.977h4.345    c4.851,0,8.783-3.932,8.783-8.783s-3.933-8.783-8.783-8.783h-4.345c-13.516,0-24.511,10.112-24.511,22.543v41.574    c0,12.431,10.995,22.543,24.511,22.543h4.345c4.851,0,8.783-3.932,8.783-8.783S94.07,105.948,89.219,105.948z"/>
	</g>
</g>
<g>
	<g>
		<path d="M427.125,36.854h-4.345c-4.851,0-8.783,3.932-8.783,8.783s3.932,8.783,8.783,8.783h4.345c3.764,0,6.945,2.279,6.945,4.977    v41.574c0,2.698-3.18,4.977-6.945,4.977h-4.345c-4.851,0-8.783,3.932-8.783,8.783s3.932,8.783,8.783,8.783h4.345    c13.516,0,24.511-10.112,24.511-22.543V59.398C451.636,46.966,440.641,36.854,427.125,36.854z"/>
	</g>
</g>
<g>
	<g>
		<path d="M89.219,281.764h-4.345c-3.764,0-6.945-2.285-6.945-4.989v-41.562c0-2.698,3.181-4.977,6.945-4.977h4.345    c4.851,0,8.783-3.932,8.783-8.783s-3.933-8.783-8.783-8.783h-4.345c-13.516,0-24.511,10.112-24.511,22.543v41.562    c0,12.437,10.995,22.555,24.511,22.555h4.345c4.851,0,8.783-3.932,8.783-8.783S94.07,281.764,89.219,281.764z"/>
	</g>
</g>
<g>
	<g>
		<path d="M427.125,212.67h-4.345c-4.851,0-8.783,3.932-8.783,8.783s3.932,8.783,8.783,8.783h4.345c3.764,0,6.945,2.279,6.945,4.977    v41.562c0,2.704-3.18,4.989-6.945,4.989h-4.345c-4.851,0-8.783,3.932-8.783,8.783s3.932,8.783,8.783,8.783h4.345    c13.516,0,24.511-10.118,24.511-22.555v-41.562C451.636,222.782,440.641,212.67,427.125,212.67z"/>
	</g>
</g>
<g>
	<g>
		<path d="M89.219,457.568h-4.345c-3.764,0-6.945-2.279-6.945-4.977v-41.562c0-2.657,3.245-4.989,6.945-4.989h4.345    c4.851,0,8.783-3.932,8.783-8.783s-3.933-8.783-8.783-8.783h-4.345c-13.516,0-24.511,10.118-24.511,22.555v41.562    c0,12.431,10.995,22.543,24.511,22.543h4.345c4.851,0,8.783-3.932,8.783-8.783S94.07,457.568,89.219,457.568z"/>
	</g>
</g>
<g>
	<g>
		<path d="M427.125,388.474h-4.345c-4.851,0-8.783,3.932-8.783,8.783s3.932,8.783,8.783,8.783h4.345    c3.699,0,6.945,2.332,6.945,4.989v41.562c0,2.698-3.18,4.977-6.945,4.977h-4.345c-4.851,0-8.783,3.933-8.783,8.783    s3.932,8.783,8.783,8.783h4.345c13.516,0,24.511-10.112,24.511-22.543v-41.562C451.636,398.592,440.641,388.474,427.125,388.474z"/>
	</g>
</g>
<g>
	<g>
		<path d="M268.361,38.4H145.397c-4.851,0-8.783,3.932-8.783,8.783s3.933,8.783,8.783,8.783h122.964    c4.851,0,8.783-3.932,8.783-8.783S273.211,38.4,268.361,38.4z"/>
	</g>
</g>
<g>
	<g>
		<path d="M268.361,71.401H145.397c-4.851,0-8.783,3.932-8.783,8.783s3.933,8.783,8.783,8.783h122.964    c4.851,0,8.783-3.932,8.783-8.783S273.211,71.401,268.361,71.401z"/>
	</g>
</g>
<g>
	<g>
		<path d="M268.361,104.403H145.397c-4.851,0-8.783,3.932-8.783,8.783s3.933,8.783,8.783,8.783h122.964    c4.851,0,8.783-3.932,8.783-8.783S273.211,104.403,268.361,104.403z"/>
	</g>
</g>
<g>
	<g>
		<path d="M374.824,54.912c-13.942,0-25.284,11.342-25.284,25.284c0,13.935,11.342,25.272,25.284,25.272    c13.942,0,25.284-11.337,25.284-25.272C400.108,66.254,388.766,54.912,374.824,54.912z M374.824,87.902    c-4.256,0-7.717-3.457-7.717-7.706c0-4.256,3.462-7.717,7.717-7.717s7.717,3.462,7.717,7.717    C382.542,84.445,379.08,87.902,374.824,87.902z"/>
	</g>
</g>
<g>
	<g>
		<path d="M268.361,214.216H145.397c-4.851,0-8.783,3.933-8.783,8.783s3.933,8.783,8.783,8.783h122.964    c4.851,0,8.783-3.932,8.783-8.783S273.211,214.216,268.361,214.216z"/>
	</g>
</g>
<g>
	<g>
		<path d="M268.361,247.217h-67.923c-4.851,0-8.783,3.932-8.783,8.783s3.932,8.783,8.783,8.783h67.923    c4.851,0,8.783-3.932,8.783-8.783S273.211,247.217,268.361,247.217z"/>
	</g>
</g>
<g>
	<g>
		<path d="M165.305,247.217h-19.909c-4.851,0-8.783,3.932-8.783,8.783s3.933,8.783,8.783,8.783h19.909    c4.851,0,8.783-3.932,8.783-8.783S170.156,247.217,165.305,247.217z"/>
	</g>
</g>
<g>
	<g>
		<path d="M268.361,280.206H145.397c-4.851,0-8.783,3.932-8.783,8.783s3.933,8.783,8.783,8.783h122.964    c4.851,0,8.783-3.932,8.783-8.783S273.211,280.206,268.361,280.206z"/>
	</g>
</g>
<g>
	<g>
		<path d="M374.824,230.71c-13.942,0-25.284,11.342-25.284,25.284s11.342,25.284,25.284,25.284    c13.942,0,25.284-11.342,25.284-25.284S388.766,230.71,374.824,230.71z M374.824,263.712c-4.256,0-7.717-3.462-7.717-7.717    s3.462-7.717,7.717-7.717s7.717,3.462,7.717,7.717S379.08,263.712,374.824,263.712z"/>
	</g>
</g>
<g>
	<g>
		<path d="M268.361,390.031h-19.909c-4.851,0-8.783,3.933-8.783,8.783s3.933,8.783,8.783,8.783h19.909    c4.851,0,8.783-3.932,8.783-8.783S273.211,390.031,268.361,390.031z"/>
	</g>
</g>
<g>
	<g>
		<path d="M217.418,390.031h-72.022c-4.851,0-8.783,3.933-8.783,8.783s3.933,8.783,8.783,8.783h72.022    c4.851,0,8.783-3.932,8.783-8.783S222.269,390.031,217.418,390.031z"/>
	</g>
</g>
<g>
	<g>
		<path d="M268.361,423.021H145.397c-4.851,0-8.783,3.933-8.783,8.783s3.933,8.783,8.783,8.783h122.964    c4.851,0,8.783-3.932,8.783-8.783S273.211,423.021,268.361,423.021z"/>
	</g>
</g>
<g>
	<g>
		<path d="M268.361,456.022H145.397c-4.851,0-8.783,3.933-8.783,8.783s3.933,8.783,8.783,8.783h122.964    c4.851,0,8.783-3.932,8.783-8.783S273.211,456.022,268.361,456.022z"/>
	</g>
</g>
<g>
	<g>
		<path d="M374.824,406.526c-13.942,0-25.284,11.342-25.284,25.284s11.342,25.284,25.284,25.284    c13.942,0,25.284-11.342,25.284-25.284S388.766,406.526,374.824,406.526z M374.824,439.527c-4.256,0-7.717-3.462-7.717-7.717    s3.462-7.717,7.717-7.717s7.717,3.462,7.717,7.717S379.08,439.527,374.824,439.527z"/>
	</g>
</g>
<g>
</g>
<g>
</g>
<g>
</g>
<g>
</g>
<g>
</g>
<g>
</g>
<g>
</g>
<g>
</g>
<g>
</g>
<g>
</g>
<g>
</g>
<g>
</g>
<g>
</g>
<g>
</g>
<g>
</g>
</svg>
