<?xml version="1.0" encoding="iso-8859-1"?>
<!-- Generator: Adobe Illustrator 19.0.0, SVG Export Plug-In . SVG Version: 6.00 Build 0)  -->
<svg xmlns="http://www.w3.org/2000/svg" xmlns:xlink="http://www.w3.org/1999/xlink" version="1.1" id="Layer_1" x="0px" y="0px" viewBox="0 0 512.001 512.001" style="enable-background:new 0 0 512.001 512.001;" xml:space="preserve">
<g>
	<g>
		<path d="M441.114,313.409l-8.695-123.551c-0.358-5.064-4.767-8.884-9.814-8.524c-5.064,0.357-8.88,4.75-8.523,9.814l8.695,123.551    c3.39,48.195-14.225,95.477-48.327,129.724c-31.589,31.724-73.653,49.195-118.442,49.195c-46.892,0-90.324-18.89-122.295-53.19    c-31.97-34.3-47.765-78.951-44.472-125.728l14.449-205.337c3.593-51.017,46.468-90.981,97.613-90.981h109.415    c51.144,0,94.02,39.963,97.611,90.978l3.335,47.383c0.357,5.064,4.749,8.88,9.814,8.524c5.064-0.357,8.88-4.75,8.523-9.814    l-3.335-47.383c-2.071-29.44-15.105-56.737-36.695-76.861C368.378,11.084,340.233,0,310.717,0H201.302    c-29.516,0-57.662,11.084-79.254,31.209s-34.622,47.422-36.696,76.862L70.904,313.409    c-3.655,51.919,13.875,101.481,49.362,139.553c35.488,38.072,83.695,59.04,135.743,59.04c49.713,0,96.404-19.393,131.467-54.607    C425.327,419.382,444.878,366.903,441.114,313.409z"/>
	</g>
</g>
<g>
	<g>
		<path d="M389.983,110.658c-2.909-41.435-37.729-73.892-79.268-73.892H201.3c-21.064,0-40.942,8.237-55.959,23.181    c-13.694,13.579-21.972,31.59-23.311,50.711l-6.9,97.969c-0.244,3.472,1.494,6.784,4.489,8.557    c4.996,2.956,10.207,5.802,15.477,8.456c14.494,7.316,29.768,13.324,45.396,17.853c4.876,1.414,9.973-1.393,11.386-6.269    c1.413-4.875-1.393-9.973-6.269-11.388c-14.538-4.215-28.747-9.803-42.238-16.612c-3.207-1.615-6.387-3.305-9.5-5.048    l6.495-92.232c1.027-14.676,7.39-28.506,17.928-38.957c11.56-11.504,26.833-17.839,43.004-17.839h45.518v16.194    c-15.221,0.101-27.574,12.515-27.574,27.766v54.254c0,15.244,12.353,27.654,27.574,27.753v54.438    c-8.97-0.317-17.907-1.097-26.675-2.332c-5.02-0.703-9.677,2.793-10.384,7.82c-0.707,5.027,2.793,9.676,7.82,10.384    c12.608,1.776,25.536,2.675,38.426,2.675c48.362,0,95.522-12.766,136.385-36.918c2.996-1.772,4.735-5.085,4.492-8.558    L389.983,110.658z M247.001,162.738c-5.169,0-9.375-4.206-9.375-9.375V99.108c0-5.177,4.206-9.388,9.375-9.388h18.015    c5.169,0,9.374,4.211,9.374,9.388v54.254c0,5.169-4.206,9.375-9.374,9.375H247.001z M265.201,235.537v-54.422    c15.221-0.099,27.574-12.509,27.574-27.753V99.108c0-15.252-12.353-27.666-27.574-27.766V55.149h45.514    c31.93,0,58.694,24.948,60.932,56.799l6.495,92.227C343.885,223.357,305.121,234.102,265.201,235.537z"/>
	</g>
</g>
<g>
</g>
<g>
</g>
<g>
</g>
<g>
</g>
<g>
</g>
<g>
</g>
<g>
</g>
<g>
</g>
<g>
</g>
<g>
</g>
<g>
</g>
<g>
</g>
<g>
</g>
<g>
</g>
<g>
</g>
</svg>
