<?xml version="1.0" encoding="iso-8859-1"?>
<!-- Generator: Adobe Illustrator 19.0.0, SVG Export Plug-In . SVG Version: 6.00 Build 0)  -->
<svg xmlns="http://www.w3.org/2000/svg" xmlns:xlink="http://www.w3.org/1999/xlink" version="1.1" id="Layer_1" x="0px" y="0px" viewBox="0 0 512 512" style="enable-background:new 0 0 512 512;" xml:space="preserve">
<g>
	<g>
		<path d="M466.427,378.491h-70.436v-2.31c0-24.373-19.823-44.201-44.188-44.201h-42.759V226.02c0-5.285-4.284-9.57-9.57-9.57    c-5.287,0-9.57,4.285-9.57,9.57v105.96h-67.809V207.44c10.851,3.658,22.203,5.514,33.904,5.514    c16.625,0,32.549-3.729,47.322-11.08c36.485-18.118,59.148-54.676,59.148-95.404c0-9.764-1.324-19.444-3.935-28.769    c-1.425-5.089-6.7-8.062-11.797-6.635c-5.089,1.425-8.059,6.707-6.634,11.797c2.141,7.646,3.226,15.589,3.226,23.607    c0,33.41-18.593,63.399-48.528,78.264c-12.107,6.024-25.163,9.079-38.802,9.079s-26.695-3.055-38.809-9.081    c-29.929-14.863-48.522-44.852-48.522-78.262c0-48.154,39.176-87.33,87.33-87.33c26.212,0,50.807,11.624,67.481,31.891    c3.358,4.082,9.386,4.668,13.471,1.312c4.082-3.358,4.669-9.389,1.31-13.471C317.94,14.169,287.956,0,256,0    c-58.708,0-106.47,47.762-106.47,106.471c0,38.553,20.317,73.358,53.427,92.332V331.98h-42.759    c-24.365,0-44.188,19.829-44.188,44.201v2.31H45.573c-20.257,0-36.736,16.486-36.736,36.749v87.19c0,5.285,4.284,9.57,9.57,9.57    h31.845c5.286,0,9.57-4.285,9.57-9.57c0-5.285-4.284-9.57-9.57-9.57H27.977v-77.62c0-9.709,7.895-17.609,17.596-17.609h420.854    c9.703,0,17.596,7.9,17.596,17.609v77.62H88.532c-5.286,0-9.57,4.285-9.57,9.57c0,5.285,4.284,9.57,9.57,9.57h405.061    c5.287,0,9.57-4.285,9.57-9.57v-87.19C503.164,394.977,486.684,378.491,466.427,378.491z M376.851,378.491H135.149v-2.31h0    c0-13.819,11.237-25.061,25.048-25.061h191.606c13.812,0,25.048,11.243,25.048,25.061V378.491z"/>
	</g>
</g>
<g>
</g>
<g>
</g>
<g>
</g>
<g>
</g>
<g>
</g>
<g>
</g>
<g>
</g>
<g>
</g>
<g>
</g>
<g>
</g>
<g>
</g>
<g>
</g>
<g>
</g>
<g>
</g>
<g>
</g>
</svg>
