<?xml version="1.0" encoding="iso-8859-1"?>
<!-- Generator: Adobe Illustrator 19.0.0, SVG Export Plug-In . SVG Version: 6.00 Build 0)  -->
<svg xmlns="http://www.w3.org/2000/svg" xmlns:xlink="http://www.w3.org/1999/xlink" version="1.1" id="Layer_1" x="0px" y="0px" viewBox="0 0 512 512" style="enable-background:new 0 0 512 512;" xml:space="preserve">
<g>
	<g>
		<path d="M446.831,440.433c-4.81,0-8.707,3.898-8.707,8.707v45.446H73.876V17.414h266.538l97.71,97.71v288.698    c0,4.809,3.898,8.707,8.707,8.707c4.81,0,8.707-3.898,8.707-8.707V111.518c0-2.309-0.917-4.524-2.549-6.156L350.178,2.551    C348.545,0.917,346.331,0,344.022,0H65.169c-4.81,0-8.707,3.898-8.707,8.707v494.586c0,4.809,3.897,8.707,8.707,8.707h381.662    c4.81,0,8.707-3.898,8.707-8.707V449.14C455.538,444.331,451.641,440.433,446.831,440.433z"/>
	</g>
</g>
<g>
	<g>
		<path d="M341.298,164.061H234.676c-4.81,0-8.707,3.898-8.707,8.707c0,4.809,3.897,8.707,8.707,8.707h58.082v245.328h-73.516    v-171.39c0-4.809-3.897-8.707-8.707-8.707H146.88v-41.407c0-13.137,10.686-23.824,23.823-23.824h26.824    c4.81,0,8.707-3.898,8.707-8.707c0-4.809-3.897-8.707-8.707-8.707h-26.824c-22.738,0-41.237,18.498-41.237,41.237v197.683    c0,22.737,18.498,41.237,41.237,41.237h170.596c22.738,0,41.238-18.498,41.238-41.237V205.298    C382.536,182.559,364.036,164.061,341.298,164.061z M201.828,426.803h-31.126c-13.135,0-23.823-10.686-23.823-23.823v-41.407    h54.949V426.803z M201.828,344.158H146.88v-80.039h54.949V344.158z M365.12,402.981c0,13.135-10.686,23.823-23.824,23.823h-31.126    v-65.23h0.001h54.949V402.981z M365.12,344.158h-54.949v-80.039h54.949V344.158z M365.122,246.705h-54.949v-65.231h31.125v0.001    c13.136,0,23.824,10.686,23.824,23.823V246.705z"/>
	</g>
</g>
<g>
</g>
<g>
</g>
<g>
</g>
<g>
</g>
<g>
</g>
<g>
</g>
<g>
</g>
<g>
</g>
<g>
</g>
<g>
</g>
<g>
</g>
<g>
</g>
<g>
</g>
<g>
</g>
<g>
</g>
</svg>
