<?xml version="1.0" encoding="iso-8859-1"?>
<!-- Generator: Adobe Illustrator 19.0.0, SVG Export Plug-In . SVG Version: 6.00 Build 0)  -->
<svg xmlns="http://www.w3.org/2000/svg" xmlns:xlink="http://www.w3.org/1999/xlink" version="1.1" id="Layer_1" x="0px" y="0px" viewBox="0 0 512 512" style="enable-background:new 0 0 512 512;" xml:space="preserve">
<g>
	<g>
		<path d="M478.366,186.986H33.634C15.088,186.986,0,202.074,0,220.619v193.716c0,18.545,15.088,33.634,33.634,33.634h45.613    c4.723,0,8.552-3.829,8.552-8.552c0-4.723-3.829-8.552-8.552-8.552H33.634c-9.114,0-16.529-7.414-16.529-16.529V220.619    c0-9.114,7.414-16.528,16.529-16.528h444.732c9.114,0,16.529,7.414,16.529,16.528v193.716c0,9.114-7.416,16.529-16.529,16.529    h-370.61c-4.723,0-8.552,3.829-8.552,8.552c0,4.723,3.829,8.552,8.552,8.552h370.61c18.546,0,33.634-15.088,33.634-33.634V220.619    C512,202.074,496.911,186.986,478.366,186.986z"/>
	</g>
</g>
<g>
	<g>
		<path d="M467.757,302.007c4.724,0,8.552-3.829,8.552-8.552v-62.226c0-4.723-3.828-8.552-8.552-8.552H44.241    c-4.723,0-8.552,3.829-8.552,8.552v172.499c0,4.723,3.829,8.552,8.552,8.552h423.515c4.724,0,8.552-3.829,8.552-8.552v-81.765    c0-4.723-3.828-8.552-8.552-8.552c-4.724,0-8.552,3.829-8.552,8.552v30.088h-39.997v-26.02h12.468    c4.724,0,8.552-3.829,8.552-8.552v-34.573h18.977v10.548C459.205,298.178,463.033,302.007,467.757,302.007z M367.656,239.78    h34.447v26.02h-34.447V239.78z M371.57,308.925h-34.446v-26.02h34.446V308.925z M402.103,326.03v26.02h-34.447v-26.02H402.103z     M130.918,308.925v-26.02h34.447v26.02H130.918z M144.346,326.03v26.02h-34.447v-26.02H144.346z M161.449,326.03h34.447v26.02    h-34.447V326.03z M182.469,308.925v-26.02h34.447v26.02H182.469z M213.001,326.03h34.446v26.02h-34.446V326.03z M234.021,308.925    v-26.02h34.446v26.02H234.021z M264.552,326.03H299v26.02h-34.447V326.03z M285.572,308.925v-26.02h34.447v26.02H285.572z     M316.105,326.03h34.446v26.02h-34.446V326.03z M316.105,239.78h34.446v26.02h-34.446V239.78z M264.552,239.78H299v26.02h-34.447    V239.78z M213.001,239.78h34.446v26.02h-34.446V239.78z M161.449,239.78h34.447v26.02h-34.447V239.78z M109.898,239.78h34.447    v26.02h-0.001h-34.446V239.78z M52.794,239.78h39.999v26.02H52.794V239.78z M52.794,282.905h61.019v26.02H52.794V282.905z     M52.794,326.03h39.999v26.02H52.794V326.03z M113.813,395.175H52.794v-26.02h61.019V395.175z M165.365,395.175h-34.447v-26.02    h34.447V395.175z M320.021,395.175H182.47v-26.02h137.55V395.175z M371.57,395.174h-34.446v-26.02h34.446V395.174z     M440.227,369.154h18.977v26.02h-18.977V369.154z M423.122,369.155v26.02h-34.447v-26.02H423.122z M423.122,308.925h-34.447    v-26.02h34.447V308.925z M419.208,265.8v-26.02h39.997v26.02H419.208z"/>
	</g>
</g>
<g>
	<g>
		<path d="M340.282,98.885c-46.473-46.472-122.087-46.473-168.56,0c-3.34,3.34-3.34,8.754,0,12.094    c3.338,3.341,8.753,3.341,12.093,0c39.804-39.803,104.568-39.802,144.371,0c1.671,1.671,3.86,2.505,6.048,2.505    c2.189,0,4.378-0.835,6.048-2.505C343.622,107.639,343.622,102.225,340.282,98.885z"/>
	</g>
</g>
<g>
	<g>
		<path d="M315.044,124.122c-32.558-32.556-85.531-32.558-118.088,0c-3.34,3.34-3.34,8.754,0,12.094c3.34,3.34,8.755,3.34,12.094,0    c25.889-25.888,68.012-25.887,93.897,0c1.671,1.671,3.86,2.505,6.048,2.505s4.378-0.835,6.048-2.505    C318.384,132.876,318.384,127.462,315.044,124.122z"/>
	</g>
</g>
<g>
	<g>
		<path d="M289.809,149.357c-9.03-9.03-21.037-14.003-33.807-14.003s-24.778,4.973-33.809,14.003c-3.34,3.34-3.34,8.754,0,12.094    c3.339,3.34,8.754,3.34,12.094,0c5.8-5.8,13.511-8.994,21.713-8.994s15.913,3.194,21.712,8.994    c1.671,1.671,3.859,2.505,6.048,2.505c2.188,0,4.378-0.835,6.048-2.505C293.149,158.112,293.149,152.697,289.809,149.357z"/>
	</g>
</g>
<g>
</g>
<g>
</g>
<g>
</g>
<g>
</g>
<g>
</g>
<g>
</g>
<g>
</g>
<g>
</g>
<g>
</g>
<g>
</g>
<g>
</g>
<g>
</g>
<g>
</g>
<g>
</g>
<g>
</g>
</svg>
