<?xml version="1.0" encoding="iso-8859-1"?>
<!-- Generator: Adobe Illustrator 19.0.0, SVG Export Plug-In . SVG Version: 6.00 Build 0)  -->
<svg xmlns="http://www.w3.org/2000/svg" xmlns:xlink="http://www.w3.org/1999/xlink" version="1.1" id="Layer_1" x="0px" y="0px" viewBox="0 0 512 512" style="enable-background:new 0 0 512 512;" xml:space="preserve">
<g>
	<g>
		<path d="M142.998,55.542V9.377c0-5.178-4.197-9.377-9.377-9.377H60.928c-5.18,0-9.377,4.198-9.377,9.377v46.165    c-13.082,0.929-23.45,11.842-23.45,25.157v21.398c0,5.178,4.197,9.377,9.377,9.377c5.18,0,9.377-4.198,9.377-9.377V80.698    c0-3.581,2.914-6.495,6.495-6.495H141.2c3.581,0,6.495,2.914,6.495,6.495v160.461c0,3.581-2.914,6.495-6.495,6.495H53.349    c-3.581,0-6.495-2.914-6.495-6.495V133.353c0-5.178-4.197-9.377-9.377-9.377c-5.18,0-9.377,4.198-9.377,9.377v107.806    c0,13.921,11.327,25.248,25.248,25.248H141.2c13.921-0.001,25.248-11.327,25.248-25.248V80.698    C166.448,67.384,156.081,56.47,142.998,55.542z M124.245,55.45h-53.94V18.753h53.94V55.45z"/>
	</g>
</g>
<g>
	<g>
		<path d="M474.522,311.651c-5.18,0-9.377,4.198-9.377,9.377v110.274c0,3.581-2.913,6.495-6.494,6.495H370.8    c-3.581,0-6.494-2.914-6.494-6.495V270.841c0-3.581,2.913-6.495,6.494-6.495h87.852c3.581,0,6.494,2.914,6.494,6.495v15.181    c-0.001,5.178,4.196,9.377,9.375,9.377c5.18,0,9.377-4.198,9.377-9.377v-15.181c0-13.921-11.327-25.248-25.247-25.248H422.72    V88.393C422.719,39.653,383.066,0,334.325,0c-48.74,0-88.393,39.653-88.393,88.393v335.214c0,38.4-31.241,69.64-69.641,69.64    s-69.64-31.24-69.64-69.64V286.022c0-5.178-4.197-9.377-9.377-9.377c-5.18,0-9.377,4.198-9.377,9.377v137.585    c0,48.74,39.654,88.393,88.394,88.393c48.739,0,88.393-39.653,88.393-88.393V88.393c0-38.4,31.24-69.64,69.64-69.64    s69.64,31.24,69.64,69.64v157.2h-33.167c-13.921,0-25.247,11.327-25.247,25.248v160.461c0,13.315,10.368,24.228,23.45,25.157    v46.165c0,5.178,4.197,9.377,9.377,9.377h72.693c5.18,0,9.377-4.198,9.377-9.377v-46.165c13.082-0.929,23.45-11.842,23.45-25.157    V321.028C483.899,315.849,479.702,311.651,474.522,311.651z M441.694,493.247h-53.94V456.55h53.94V493.247z"/>
	</g>
</g>
<g>
</g>
<g>
</g>
<g>
</g>
<g>
</g>
<g>
</g>
<g>
</g>
<g>
</g>
<g>
</g>
<g>
</g>
<g>
</g>
<g>
</g>
<g>
</g>
<g>
</g>
<g>
</g>
<g>
</g>
</svg>
