<?xml version="1.0" encoding="iso-8859-1"?>
<!-- Generator: Adobe Illustrator 19.0.0, SVG Export Plug-In . SVG Version: 6.00 Build 0)  -->
<svg xmlns="http://www.w3.org/2000/svg" xmlns:xlink="http://www.w3.org/1999/xlink" version="1.1" id="Layer_1" x="0px" y="0px" viewBox="0 0 512 512" style="enable-background:new 0 0 512 512;" xml:space="preserve">
<g>
	<g>
		<path d="M503.179,100.238h-65.372c-4.873,0-8.821,3.95-8.821,8.821c0,4.872,3.948,8.821,8.821,8.821h56.551v194.252H17.643    V117.881h390.759c4.873,0,8.821-3.95,8.821-8.821c0-4.872-3.948-8.821-8.821-8.821H8.821c-4.872,0-8.821,3.95-8.821,8.821v211.894    c0,4.872,3.95,8.821,8.821,8.821h17.834v73.165c0,4.872,3.95,8.821,8.821,8.821h441.045c4.873,0,8.821-3.95,8.821-8.821v-54.343    c0-4.872-3.948-8.821-8.821-8.821s-8.821,3.95-8.821,8.821v45.522h-15.683v-40.576c0-4.872-3.948-8.821-8.821-8.821    c-4.873,0-8.821,3.95-8.821,8.821v40.576h-19.758v-40.576c0-4.872-3.948-8.821-8.821-8.821c-4.873,0-8.821,3.95-8.821,8.821    v40.576h-19.759v-40.576c0-4.872-3.948-8.821-8.821-8.821c-4.873,0-8.821,3.95-8.821,8.821v40.576h-19.758v-40.576    c0-4.872-3.948-8.821-8.821-8.821c-4.873,0-8.821,3.95-8.821,8.821v40.576h-19.759v-40.576c0-4.872-3.948-8.821-8.821-8.821    c-4.873,0-8.821,3.95-8.821,8.821v40.576h-19.759v-40.576c0-4.872-3.948-8.821-8.821-8.821c-4.872,0-8.821,3.95-8.821,8.821    v40.576h-19.756v-40.576c0-4.872-3.95-8.821-8.821-8.821c-4.872,0-8.821,3.95-8.821,8.821v40.576h-19.759v-40.576    c0-4.872-3.95-8.821-8.821-8.821c-4.872,0-8.821,3.95-8.821,8.821v40.576h-19.757v-40.576c0-4.872-3.95-8.821-8.821-8.821    s-8.821,3.95-8.821,8.821v40.576h-19.759v-40.576c0-4.872-3.95-8.821-8.821-8.821c-4.872,0-8.821,3.95-8.821,8.821v40.576H78.011    v-40.576c0-4.872-3.95-8.821-8.821-8.821s-8.821,3.95-8.821,8.821v40.576h-16.07v-64.344h458.88c4.873,0,8.821-3.95,8.821-8.821    V109.059C512,104.188,508.05,100.238,503.179,100.238z"/>
	</g>
</g>
<g>
	<g>
		<path d="M60.493,155.025h49.149c3.959,0,7.179,3.221,7.179,7.181c0,4.872,3.95,8.821,8.821,8.821c4.872,0,8.821-3.95,8.821-8.821    v-0.621c0-0.309-0.016-0.616-0.047-0.917c-0.797-12.973-11.605-23.284-24.775-23.284H60.493    c-13.687,0-24.823,11.136-24.823,24.823v105.603c0,13.687,11.136,24.822,24.823,24.822h49.149    c13.687,0,24.822-11.135,24.822-24.822v-76.822c0-4.872-3.95-8.821-8.821-8.821c-4.872,0-8.821,3.95-8.821,8.821v76.82    c0,3.959-3.22,7.179-7.179,7.179H60.493c-3.959,0-7.181-3.22-7.181-7.179V162.204C53.313,158.245,56.533,155.025,60.493,155.025z"/>
	</g>
</g>
<g>
	<g>
		<path d="M225.951,137.382h-49.149c-13.687,0-24.823,11.136-24.823,24.823v105.603c0,13.687,11.136,24.822,24.823,24.822h49.149    c13.687,0,24.823-11.135,24.823-24.822V162.205C250.774,148.518,239.638,137.382,225.951,137.382z M233.132,267.808    c0,3.959-3.222,7.179-7.181,7.179h-49.149c-3.959,0-7.181-3.22-7.181-7.179V162.205c0-3.959,3.222-7.181,7.181-7.181h49.149    c3.959,0,7.181,3.22,7.181,7.181V267.808z"/>
	</g>
</g>
<g>
	<g>
		<path d="M448.487,137.382h-49.149c-13.686,0-24.822,11.135-24.822,24.823v105.603c0,13.687,11.136,24.822,24.822,24.822h49.149    c13.687,0,24.822-11.135,24.822-24.822V162.205C473.31,148.518,462.174,137.382,448.487,137.382z M455.668,267.808    c0,3.959-3.22,7.179-7.179,7.179H399.34c-3.959,0-7.179-3.22-7.179-7.179V162.205c0-3.959,3.22-7.181,7.179-7.181h49.149    c3.959,0,7.179,3.22,7.179,7.181V267.808z"/>
	</g>
</g>
<g>
</g>
<g>
</g>
<g>
</g>
<g>
</g>
<g>
</g>
<g>
</g>
<g>
</g>
<g>
</g>
<g>
</g>
<g>
</g>
<g>
</g>
<g>
</g>
<g>
</g>
<g>
</g>
<g>
</g>
</svg>
