<?xml version="1.0" encoding="iso-8859-1"?>
<!-- Generator: Adobe Illustrator 19.0.0, SVG Export Plug-In . SVG Version: 6.00 Build 0)  -->
<svg xmlns="http://www.w3.org/2000/svg" xmlns:xlink="http://www.w3.org/1999/xlink" version="1.1" id="Layer_1" x="0px" y="0px" viewBox="0 0 512 512" style="enable-background:new 0 0 512 512;" xml:space="preserve">
<g>
	<g>
		<path d="M411.362,179.508H45.171c-4.989,0-9.034,4.045-9.034,9.034v134.912c0,4.989,4.045,9.034,9.034,9.034h41.137    c4.989,0,9.034-4.045,9.034-9.034c0-4.989-4.045-9.034-9.034-9.034H54.206V197.577h348.122v116.844H116.423    c-4.989,0-9.034,4.045-9.034,9.034c0,4.989,4.045,9.034,9.034,9.034h294.938c4.989,0,9.034-4.045,9.034-9.034V188.543    C420.396,183.553,416.351,179.508,411.362,179.508z"/>
	</g>
</g>
<g>
	<g>
		<path d="M502.966,193h-25.353c-4.989,0-9.034,4.045-9.034,9.034s4.045,9.034,9.034,9.034h16.318v89.862h-37.398V152.407    c0-4.989-4.045-9.034-9.034-9.034H9.034c-4.989,0-9.034,4.045-9.034,9.034v207.186c0,4.989,4.045,9.034,9.034,9.034h438.464    c4.989,0,9.034-4.045,9.034-9.034v-40.594h46.433c4.989,0,9.034-4.045,9.034-9.034V202.034C512,197.045,507.955,193,502.966,193z     M438.464,350.558H18.069V161.44h420.396V350.558z"/>
	</g>
</g>
<g>
</g>
<g>
</g>
<g>
</g>
<g>
</g>
<g>
</g>
<g>
</g>
<g>
</g>
<g>
</g>
<g>
</g>
<g>
</g>
<g>
</g>
<g>
</g>
<g>
</g>
<g>
</g>
<g>
</g>
</svg>
