<?xml version="1.0" encoding="iso-8859-1"?>
<!-- Generator: Adobe Illustrator 19.0.0, SVG Export Plug-In . SVG Version: 6.00 Build 0)  -->
<svg xmlns="http://www.w3.org/2000/svg" xmlns:xlink="http://www.w3.org/1999/xlink" version="1.1" id="Layer_1" x="0px" y="0px" viewBox="0 0 512.001 512.001" style="enable-background:new 0 0 512.001 512.001;" xml:space="preserve">
<g>
	<g>
		<path d="M136.174,31.269c-5.069,0-9.177,4.109-9.177,9.177v84.862c0,5.068,4.107,9.177,9.177,9.177s9.177-4.109,9.177-9.177    V40.446C145.35,35.378,141.243,31.269,136.174,31.269z"/>
	</g>
</g>
<g>
	<g>
		<path d="M192.528,102.779c-5.069,0-9.177,4.109-9.177,9.177v13.353c0,5.068,4.107,9.177,9.177,9.177s9.177-4.109,9.177-9.177    v-13.353C201.705,106.888,197.596,102.779,192.528,102.779z"/>
	</g>
</g>
<g>
	<g>
		<path d="M192.528,31.269c-5.069,0-9.177,4.109-9.177,9.177v40.921c0,5.068,4.107,9.177,9.177,9.177s9.177-4.109,9.177-9.177    V40.446C201.705,35.378,197.598,31.269,192.528,31.269z"/>
	</g>
</g>
<g>
	<g>
		<path d="M248.882,31.269c-5.069,0-9.177,4.109-9.177,9.177v84.862c0,5.068,4.107,9.177,9.177,9.177s9.177-4.109,9.177-9.177    V40.446C258.059,35.378,253.951,31.269,248.882,31.269z"/>
	</g>
</g>
<g>
	<g>
		<path d="M305.237,31.269c-5.069,0-9.177,4.109-9.177,9.177v84.862c0,5.068,4.107,9.177,9.177,9.177s9.177-4.109,9.177-9.177    V40.446C314.413,35.378,310.306,31.269,305.237,31.269z"/>
	</g>
</g>
<g>
	<g>
		<path d="M361.59,74.81c-5.069,0-9.177,4.109-9.177,9.177v41.322c0,5.068,4.107,9.177,9.177,9.177s9.177-4.109,9.177-9.177V83.986    C370.767,78.918,366.659,74.81,361.59,74.81z"/>
	</g>
</g>
<g>
	<g>
		<path d="M446.47,412.719c5.069,0,9.177-4.109,9.177-9.177V111.792c0-2.434-0.967-4.768-2.687-6.489L350.343,2.688    C348.622,0.967,346.288,0,343.853,0H65.531c-5.069,0-9.177,4.109-9.177,9.177v207.408c0,5.068,4.107,9.177,9.177,9.177h21.686    v42.642H65.531c-5.069,0-9.177,4.109-9.177,9.177v225.244c0,5.068,4.107,9.177,9.177,9.177H446.47    c5.069,0,9.177-4.109,9.177-9.177v-54.051c0-5.068-4.107-9.177-9.177-9.177s-9.177,4.109-9.177,9.177v44.874H74.708V286.756    h21.686c5.069,0,9.177-4.109,9.177-9.177v-60.996c0-5.068-4.107-9.177-9.177-9.177H74.708V18.353h265.345l97.24,97.239v287.95    C437.293,408.61,441.401,412.719,446.47,412.719z"/>
	</g>
</g>
<g>
	<g>
		<path d="M293.385,442.83l-29.374-52.564c-1.621-2.902-4.686-4.7-8.011-4.7s-6.389,1.799-8.011,4.7l-29.374,52.564    c-1.588,2.841-1.553,6.312,0.095,9.12c1.648,2.808,4.659,4.533,7.915,4.533h58.748c3.256,0,6.267-1.725,7.915-4.533    C294.938,449.142,294.973,445.672,293.385,442.83z M242.267,438.129l13.733-24.576l13.734,24.576H242.267z"/>
	</g>
</g>
<g>
</g>
<g>
</g>
<g>
</g>
<g>
</g>
<g>
</g>
<g>
</g>
<g>
</g>
<g>
</g>
<g>
</g>
<g>
</g>
<g>
</g>
<g>
</g>
<g>
</g>
<g>
</g>
<g>
</g>
</svg>
