<?xml version="1.0" encoding="iso-8859-1"?>
<!-- Generator: Adobe Illustrator 19.0.0, SVG Export Plug-In . SVG Version: 6.00 Build 0)  -->
<svg xmlns="http://www.w3.org/2000/svg" xmlns:xlink="http://www.w3.org/1999/xlink" version="1.1" id="Layer_1" x="0px" y="0px" viewBox="0 0 512 512" style="enable-background:new 0 0 512 512;" xml:space="preserve">
<g>
	<g>
		<path d="M490.384,417.723c5.217,0,9.444-4.228,9.444-9.444V131.233c0-2.504-0.995-4.907-2.765-6.677l-94.678-94.677V9.444    c0-5.215-4.227-9.444-9.444-9.444H119.057c-5.217,0-9.444,4.228-9.444,9.444v14.902H21.616c-5.217,0-9.444,4.228-9.444,9.444    v468.767c0,5.215,4.227,9.444,9.444,9.444h468.768c5.217,0,9.444-4.228,9.444-9.444v-51.326c0-5.215-4.227-9.444-9.444-9.444    c-5.217,0-9.444,4.228-9.444,9.444v41.882h-66.764V277.907c0-23.662-19.25-42.913-42.912-42.913H140.733    c-23.662,0-42.912,19.251-42.912,42.913v215.206H31.06V43.233h78.554V175.33c0,5.215,4.227,9.444,9.444,9.444h41.835    c5.217,0,9.444-4.228,9.444-9.444s-4.227-9.444-9.444-9.444H128.5V18.887h254.997v146.999H201.798    c-5.217,0-9.444,4.228-9.444,9.444c0,5.215,4.227,9.444,9.444,9.444h191.142c5.217,0,9.444-4.228,9.444-9.444V56.589    l78.557,78.555v273.135C480.94,413.495,485.169,417.723,490.384,417.723z M116.709,277.907c0-13.248,10.778-24.026,24.025-24.026    h230.531c13.248,0,24.025,10.778,24.025,24.026v215.206h-278.58V277.907z"/>
	</g>
</g>
<g>
	<g>
		<path d="M355.879,41.013H304.69c-5.217,0-9.444,4.228-9.444,9.444v83.858c0,5.215,4.227,9.444,9.444,9.444h51.188    c5.217,0,9.444-4.228,9.444-9.444V50.457C365.322,45.241,361.095,41.013,355.879,41.013z M346.434,124.872h-32.3V59.901h32.3    V124.872z"/>
	</g>
</g>
<g>
	<g>
		<path d="M351.105,302.695H235.888c-5.217,0-9.444,4.228-9.444,9.444c0,5.215,4.227,9.444,9.444,9.444h115.218    c5.217,0,9.444-4.228,9.444-9.444C360.549,306.923,356.321,302.695,351.105,302.695z"/>
	</g>
</g>
<g>
	<g>
		<path d="M201.797,302.695h-40.906c-5.217,0-9.444,4.228-9.444,9.444c0,5.215,4.228,9.444,9.444,9.444h40.906    c5.217,0,9.444-4.228,9.444-9.444C211.241,306.923,207.014,302.695,201.797,302.695z"/>
	</g>
</g>
<g>
	<g>
		<path d="M351.105,425.413H160.891c-5.217,0-9.444,4.228-9.444,9.444c0,5.215,4.227,9.444,9.444,9.444h190.213    c5.217,0,9.444-4.228,9.444-9.444C360.548,429.641,356.321,425.413,351.105,425.413z"/>
	</g>
</g>
<g>
	<g>
		<path d="M351.105,364.053H160.891c-5.217,0-9.444,4.228-9.444,9.444c0,5.215,4.227,9.444,9.444,9.444h190.213    c5.217,0,9.444-4.228,9.444-9.444C360.548,368.281,356.321,364.053,351.105,364.053z"/>
	</g>
</g>
<g>
</g>
<g>
</g>
<g>
</g>
<g>
</g>
<g>
</g>
<g>
</g>
<g>
</g>
<g>
</g>
<g>
</g>
<g>
</g>
<g>
</g>
<g>
</g>
<g>
</g>
<g>
</g>
<g>
</g>
</svg>
