<?xml version="1.0" encoding="iso-8859-1"?>
<!-- Generator: Adobe Illustrator 19.0.0, SVG Export Plug-In . SVG Version: 6.00 Build 0)  -->
<svg xmlns="http://www.w3.org/2000/svg" xmlns:xlink="http://www.w3.org/1999/xlink" version="1.1" id="Layer_1" x="0px" y="0px" viewBox="0 0 512 512" style="enable-background:new 0 0 512 512;" xml:space="preserve">
<g>
	<g>
		<path d="M372.652,128.929H183.278V17.655h145.445v92.681c0,4.875,3.951,8.828,8.828,8.828c4.876,0,8.828-3.952,8.828-8.828V8.828    c0-4.875-3.951-8.828-8.828-8.828h-163.1c-4.875,0-8.828,3.952-8.828,8.828v120.101h-26.274c-4.875,0-8.828,3.952-8.828,8.828    v227.164c0,4.875,3.952,8.828,8.828,8.828s8.828-3.952,8.828-8.828V146.584h215.648v284.87c0,34.678-28.213,62.891-62.891,62.891    h-89.867c-34.678,0-62.891-28.213-62.891-62.891v-37.108c0-4.875-3.952-8.828-8.828-8.828s-8.828,3.952-8.828,8.828v37.108    c0,44.413,36.133,80.546,80.546,80.546h89.867c44.412,0,80.546-36.133,80.546-80.546V137.756    C381.48,132.88,377.528,128.929,372.652,128.929z"/>
	</g>
</g>
<g>
	<g>
		<path d="M216.013,47.052c-4.875,0-8.828,3.952-8.828,8.828v33.73c0,4.875,3.952,8.828,8.828,8.828s8.828-3.952,8.828-8.828V55.88    C224.841,51.005,220.889,47.052,216.013,47.052z"/>
	</g>
</g>
<g>
	<g>
		<path d="M295.988,47.052c-4.876,0-8.828,3.952-8.828,8.828v33.73c0,4.875,3.951,8.828,8.828,8.828s8.828-3.952,8.828-8.828V55.88    C304.815,51.005,300.864,47.052,295.988,47.052z"/>
	</g>
</g>
<g>
	<g>
		<path d="M327.614,256.2h-28.133c-4.876,0-8.828,3.952-8.828,8.828v28.133c0,4.875,3.951,8.828,8.828,8.828h4.438v22.915    l-35.866,10.116v-93.873h16.559c3.132,0,6.029-1.66,7.614-4.361c1.585-2.701,1.62-6.039,0.092-8.773l-26.073-46.659    c-1.56-2.792-4.508-4.521-7.706-4.521s-6.146,1.73-7.706,4.521l-26.074,46.659c-1.528,2.734-1.494,6.072,0.092,8.773    s4.482,4.361,7.614,4.361h17.933v121.544l-39.983-10.471v-20.212c10.021-3.624,17.203-13.232,17.203-24.488    c0-14.354-11.677-26.031-26.031-26.031c-14.352,0-26.03,11.677-26.03,26.031c0,11.256,7.182,20.862,17.202,24.487v27.024    c0,4.014,2.708,7.522,6.591,8.539l51.047,13.37v20.771c-14.218,3.885-24.702,16.909-24.702,32.342    c0,18.488,15.041,33.529,33.53,33.529c18.488,0,33.53-15.041,33.53-33.529c0-15.433-10.484-28.457-24.702-32.342v-48.348    l47.09-13.283c3.803-1.073,6.431-4.543,6.431-8.496v-29.597h6.039c4.876,0,8.828-3.952,8.828-8.828v-28.133    C336.442,260.152,332.49,256.2,327.614,256.2z M201.588,315.897c-4.617,0-8.374-3.757-8.374-8.374    c0-4.619,3.757-8.376,8.374-8.376c4.619,0,8.376,3.757,8.376,8.376C209.964,312.14,206.207,315.897,201.588,315.897z     M275.102,434.054c0,8.753-7.122,15.874-15.874,15.874c-8.753,0-15.874-7.121-15.874-15.874c0-8.753,7.121-15.874,15.874-15.874    C267.98,418.18,275.102,425.301,275.102,434.054z M247.511,223.492l11.029-19.735l11.029,19.735H247.511z M318.786,284.333    h-10.478v-10.478h10.478V284.333z"/>
	</g>
</g>
<g>
</g>
<g>
</g>
<g>
</g>
<g>
</g>
<g>
</g>
<g>
</g>
<g>
</g>
<g>
</g>
<g>
</g>
<g>
</g>
<g>
</g>
<g>
</g>
<g>
</g>
<g>
</g>
<g>
</g>
</svg>
