<?xml version="1.0" encoding="iso-8859-1"?>
<!-- Generator: Adobe Illustrator 19.0.0, SVG Export Plug-In . SVG Version: 6.00 Build 0)  -->
<svg xmlns="http://www.w3.org/2000/svg" xmlns:xlink="http://www.w3.org/1999/xlink" version="1.1" id="Layer_1" x="0px" y="0px" viewBox="0 0 511.999 511.999" style="enable-background:new 0 0 511.999 511.999;" xml:space="preserve">
<g>
	<g>
		<path d="M256,190.793c-19.4,0-35.183,15.783-35.183,35.182s15.782,35.182,35.183,35.182c19.4,0,35.182-15.783,35.182-35.182    S275.398,190.793,256,190.793z M256,243.171c-9.482,0-17.197-7.715-17.197-17.196s7.714-17.197,17.197-17.197    c9.482,0,17.196,7.715,17.196,17.196C273.196,235.455,265.481,243.171,256,243.171z"/>
	</g>
</g>
<g>
	<g>
		<path d="M407.645,433.962H344.33c80.834-34.46,137.643-114.712,137.643-207.989C481.974,101.371,380.602,0,256,0    S30.025,101.371,30.025,225.974c0,93.277,56.809,173.529,137.643,207.989h-63.32c-25.792,0-46.774,20.984-46.774,46.774v22.269    c0,4.966,4.026,8.993,8.993,8.993h54.555c4.967,0,8.993-4.026,8.993-8.993c0-4.967-4.026-8.993-8.993-8.993H75.561v-13.276    c0-15.873,12.915-28.788,28.788-28.788h303.297c15.874,0,28.788,12.915,28.788,28.788v13.276H151.099    c-4.967,0-8.993,4.026-8.993,8.993c0,4.966,4.026,8.993,8.993,8.993h294.328c4.967,0,8.993-4.026,8.993-8.993v-22.269    C454.42,454.946,433.437,433.962,407.645,433.962z M48.217,234.967h125.415c4.498,41.476,39.715,73.87,82.366,73.87    c45.69,0,82.863-37.172,82.863-82.863c0-45.69-37.172-82.863-82.863-82.863c-12.566,0-24.641,2.745-35.888,8.156    c-4.475,2.154-6.357,7.528-4.204,12.003c2.154,4.475,7.527,6.357,12.003,4.204c8.794-4.232,18.245-6.377,28.089-6.377    c35.773,0,64.877,29.104,64.877,64.877s-29.104,64.877-64.877,64.877s-64.877-29.104-64.877-64.877    c0-13.551,4.133-26.529,11.951-37.532c2.877-4.048,1.927-9.663-2.122-12.54c-4.047-2.877-9.662-1.927-12.54,2.122    c-8.247,11.606-13.276,24.93-14.786,38.958H48.217C52.944,106.453,144.329,17.986,256,17.986s203.055,88.467,207.781,198.995    H363.485c-4.966,0-8.993,4.026-8.993,8.993c0,4.967,4.026,8.993,8.993,8.993h100.296C459.055,345.495,367.671,433.962,256,433.962    S52.944,345.495,48.217,234.967z"/>
	</g>
</g>
<g>
</g>
<g>
</g>
<g>
</g>
<g>
</g>
<g>
</g>
<g>
</g>
<g>
</g>
<g>
</g>
<g>
</g>
<g>
</g>
<g>
</g>
<g>
</g>
<g>
</g>
<g>
</g>
<g>
</g>
</svg>
