<?xml version="1.0" encoding="iso-8859-1"?>
<!-- Generator: Adobe Illustrator 19.0.0, SVG Export Plug-In . SVG Version: 6.00 Build 0)  -->
<svg xmlns="http://www.w3.org/2000/svg" xmlns:xlink="http://www.w3.org/1999/xlink" version="1.1" id="Layer_1" x="0px" y="0px" viewBox="0 0 511.999 511.999" style="enable-background:new 0 0 511.999 511.999;" xml:space="preserve">
<g>
	<g>
		<path d="M489.14,85.702l-7.106-25.979c-1.016-3.714-4.391-6.29-8.241-6.29h-64.287c-4.72,0-8.544,3.826-8.544,8.544    s3.824,8.544,8.544,8.544h57.765l5.385,19.689c29.672,108.46,29.672,223.118,0,331.578l-5.385,19.688H44.727l-5.385-19.688    C9.67,313.328,9.67,198.671,39.342,90.211l5.385-19.689h323.769c4.72,0,8.544-3.826,8.544-8.544s-3.825-8.544-8.544-8.544H38.206    c-3.851,0-7.226,2.576-8.241,6.29l-7.106,25.979c-30.479,111.41-30.479,229.186,0,340.596l7.106,25.977    c1.016,3.714,4.391,6.29,8.241,6.29h435.586c3.851,0,7.226-2.576,8.241-6.29l7.106-25.977    C519.619,314.888,519.619,197.111,489.14,85.702z"/>
	</g>
</g>
<g>
	<g>
		<path d="M455.102,95.013c-1.016-3.714-4.391-6.29-8.241-6.29H65.139c-3.851,0-7.226,2.576-8.241,6.29    c-28.812,105.318-28.812,216.655,0,321.973c1.016,3.714,4.391,6.29,8.241,6.29H446.86c3.851,0,7.226-2.576,8.241-6.29    C483.914,311.668,483.914,200.331,455.102,95.013z M440.302,406.187H71.698c-25.761-98.407-25.761-201.968,0-300.375h368.604    C466.063,204.219,466.063,307.78,440.302,406.187z"/>
	</g>
</g>
<g>
	<g>
		<path d="M257.723,260.019h-3.447c-33.92,0-61.517,27.597-61.517,61.518v56.421c0,4.719,3.824,8.544,8.544,8.544h15.68    c4.72,0,8.544-3.826,8.544-8.544c0-4.719-3.825-8.544-8.544-8.544h-7.135v-47.876c0-24.497,19.93-44.429,44.428-44.429h3.447    c24.499,0,44.429,19.931,44.429,44.429v47.876H251.16c-4.72,0-8.544,3.826-8.544,8.544c0,4.719,3.825,8.544,8.544,8.544h59.537    c4.72,0,8.544-3.826,8.544-8.544v-56.421C319.241,287.616,291.643,260.019,257.723,260.019z"/>
	</g>
</g>
<g>
	<g>
		<path d="M383.919,136.178h-37.052c-4.72,0-8.544,3.826-8.544,8.544V249.49c0,4.719,3.825,8.544,8.544,8.544h37.052    c4.72,0,8.544-3.826,8.544-8.544V144.723C392.463,140.004,388.638,136.178,383.919,136.178z M375.374,240.944h-19.963v-87.679    h19.963V240.944z"/>
	</g>
</g>
<g>
	<g>
		<path d="M165.132,136.178H128.08c-4.72,0-8.544,3.826-8.544,8.544V249.49c0,4.719,3.825,8.544,8.544,8.544h37.052    c4.72,0,8.544-3.826,8.544-8.544V144.723C173.676,140.004,169.852,136.178,165.132,136.178z M156.587,240.944h-19.963v-87.679    h19.963V240.944z"/>
	</g>
</g>
<g>
</g>
<g>
</g>
<g>
</g>
<g>
</g>
<g>
</g>
<g>
</g>
<g>
</g>
<g>
</g>
<g>
</g>
<g>
</g>
<g>
</g>
<g>
</g>
<g>
</g>
<g>
</g>
<g>
</g>
</svg>
