<?xml version="1.0" encoding="iso-8859-1"?>
<!-- Generator: Adobe Illustrator 19.0.0, SVG Export Plug-In . SVG Version: 6.00 Build 0)  -->
<svg xmlns="http://www.w3.org/2000/svg" xmlns:xlink="http://www.w3.org/1999/xlink" version="1.1" id="Layer_1" x="0px" y="0px" viewBox="0 0 512 512" style="enable-background:new 0 0 512 512;" xml:space="preserve">
<g>
	<g>
		<path d="M503.448,270.853c4.723,0,8.552-3.829,8.552-8.553v-18.098c0-18.545-15.088-33.633-33.633-33.633H33.633    C15.088,210.568,0,225.656,0,244.202v193.717c0,18.545,15.088,33.634,33.633,33.634h444.734c18.545,0,33.633-15.088,33.633-33.634    V290.809c0-4.723-3.829-8.553-8.552-8.553c-4.723,0-8.553,3.829-8.553,8.553v147.11c0,9.114-7.414,16.529-16.528,16.529H33.633    c-9.114,0-16.528-7.414-16.528-16.529V244.202c0-9.114,7.414-16.528,16.528-16.528h444.734c9.114,0,16.528,7.414,16.528,16.528    V262.3C494.895,267.024,498.724,270.853,503.448,270.853z"/>
	</g>
</g>
<g>
	<g>
		<path d="M467.758,246.258H44.242c-4.723,0-8.552,3.829-8.552,8.552v172.5c0,4.723,3.829,8.552,8.552,8.552h151.329    c4.723,0,8.553-3.829,8.553-8.552s-3.829-8.552-8.553-8.552h-13.101v-26.02H320.02v26.02h-95.941v0.001    c-4.723,0-8.553,3.829-8.553,8.552s3.829,8.552,8.553,8.552h243.679c4.723,0,8.552-3.829,8.552-8.552V254.81    C476.311,250.087,472.482,246.258,467.758,246.258z M419.208,263.363h39.998v26.02h-39.998V263.363z M367.656,349.613h34.447    v26.02h-34.447V349.613z M337.125,332.508v-26.02h34.447v26.02H337.125z M388.677,332.508v-26.02h34.446v26.02H388.677z     M367.656,263.363h34.447v26.02h-34.447V263.363z M316.104,263.363h34.447v26.02h-34.447V263.363z M320.021,306.488v26.02h-34.447    v-26.02H320.021z M264.552,263.363h34.447v26.02h-34.447V263.363z M268.469,306.488v26.02h-34.447v-26.02H268.469z     M213.002,263.363h34.446v26.02h-34.446V263.363z M216.918,306.488v26.02h-34.447v-26.02H216.918z M161.45,263.363h34.447v26.02    H161.45V263.363z M130.918,332.508v-26.02h34.447v26.02H130.918z M144.346,349.613v26.02h-34.447v-26.02H144.346z     M109.899,263.363h34.447v26.02h-0.001h-34.446V263.363z M52.794,263.363h40v26.02h-40V263.363z M52.794,306.488h61.019v26.02    H52.794V306.488z M52.794,349.613h40v26.02h-40V349.613z M113.813,418.758H52.794v-26.02h61.019V418.758z M165.366,418.758    h-34.447v-26.02h34.447V418.758z M195.897,375.633H161.45v-26.02h34.447V375.633z M247.448,375.633h-34.446v-26.02h34.446V375.633    z M299,375.633h-34.447v-26.02H299V375.633z M316.104,375.633v-26.02h34.447v26.02H316.104z M371.572,418.758h-34.447v-26.02    h34.447V418.758z M423.123,418.758h-34.446v-26.02h34.446V418.758z M459.207,418.758h-18.979v-26.02h18.979V418.758z     M459.207,375.632h-40v-26.019h12.468c4.723,0,8.553-3.829,8.553-8.553v-34.573h18.979V375.632z"/>
	</g>
</g>
<g>
	<g>
		<path d="M233.993,79.706c-16.851,0-30.56,13.709-30.56,30.56v42.831c0,7.419-6.035,13.454-13.454,13.454    c-7.419,0-13.454-6.036-13.454-13.454V49c0-4.723-3.829-8.552-8.553-8.552s-8.552,3.829-8.552,8.552v104.097    c0,16.851,13.708,30.56,30.559,30.56c16.851,0,30.559-13.709,30.559-30.559v-42.831c0-7.419,6.036-13.455,13.455-13.455    s13.454,6.036,13.454,13.455v83.615c0,4.723,3.829,8.553,8.552,8.553s8.552-3.829,8.552-8.553v-83.616    C264.552,93.415,250.844,79.706,233.993,79.706z"/>
	</g>
</g>
<g>
</g>
<g>
</g>
<g>
</g>
<g>
</g>
<g>
</g>
<g>
</g>
<g>
</g>
<g>
</g>
<g>
</g>
<g>
</g>
<g>
</g>
<g>
</g>
<g>
</g>
<g>
</g>
<g>
</g>
</svg>
