<?xml version="1.0" encoding="iso-8859-1"?>
<!-- Generator: Adobe Illustrator 19.0.0, SVG Export Plug-In . SVG Version: 6.00 Build 0)  -->
<svg xmlns="http://www.w3.org/2000/svg" xmlns:xlink="http://www.w3.org/1999/xlink" version="1.1" id="Layer_1" x="0px" y="0px" viewBox="0 0 512 512" style="enable-background:new 0 0 512 512;" xml:space="preserve">
<g>
	<g>
		<path d="M396.058,162.435h-38.122V26.42c0-14.568-11.852-26.42-26.42-26.42c-14.569,0-26.421,11.852-26.421,26.42v136.015h-98.192    V72.93c0-4.577-3.71-8.288-8.288-8.288s-8.288,3.711-8.288,8.288v89.505h-19.689V26.42c0-5.428,4.417-9.844,9.845-9.844    s9.844,4.416,9.844,9.844v20.542c0,4.577,3.71,8.288,8.288,8.288s8.288-3.711,8.288-8.288V26.42    C206.902,11.852,195.05,0,180.482,0c-14.569,0-26.421,11.852-26.421,26.42v136.015H115.94c-4.578,0-8.288,3.711-8.288,8.288    v41.437c0,4.577,3.71,8.288,8.288,8.288h14.93v110.398c0,37.833,30.779,68.612,68.612,68.612h14.665v58.841    c0,4.577,3.71,8.288,8.288,8.288h4.842v37.125c0,4.577,3.71,8.288,8.288,8.288s8.288-3.711,8.288-8.288v-37.125h24.291v37.125    c0,4.577,3.71,8.288,8.288,8.288s8.288-3.711,8.288-8.288v-37.125h4.843c4.578,0,8.288-3.711,8.288-8.288v-58.841h14.664    c37.833,0,68.613-30.779,68.613-68.612V220.448h14.93c4.578,0,8.288-3.711,8.288-8.288v-41.437    C404.345,166.146,400.636,162.435,396.058,162.435z M321.671,26.42c0-5.428,4.417-9.844,9.845-9.844    c5.428,0,9.844,4.416,9.844,9.844v136.015h-19.689V26.42z M281.275,450.011h-50.553v-50.553h50.553V450.011z M387.77,203.873    h-41.023c-4.578,0-8.288,3.711-8.288,8.288s3.71,8.288,8.288,8.288h17.805v110.398c0,28.693-23.343,52.036-52.037,52.036H199.483    c-28.693,0-52.036-23.343-52.036-52.036V220.449h171.675c4.578,0,8.288-3.711,8.288-8.288s-3.71-8.288-8.288-8.288H124.228    v-24.862H387.77V203.873z"/>
	</g>
</g>
<g>
	<g>
		<path d="M302.454,318.062h-50.61c-4.578,0-8.288,3.711-8.288,8.288s3.71,8.288,8.288,8.288h50.61c4.578,0,8.288-3.711,8.288-8.288    S307.032,318.062,302.454,318.062z"/>
	</g>
</g>
<g>
	<g>
		<path d="M224.217,318.062h-14.674c-4.578,0-8.288,3.711-8.288,8.288s3.71,8.288,8.288,8.288h14.674    c4.578,0,8.288-3.711,8.288-8.288S228.795,318.062,224.217,318.062z"/>
	</g>
</g>
<g>
	<g>
		<path d="M302.454,282.327h-92.911c-4.578,0-8.288,3.711-8.288,8.288s3.71,8.288,8.288,8.288h92.911    c4.578,0,8.288-3.711,8.288-8.288S307.032,282.327,302.454,282.327z"/>
	</g>
</g>
<g>
	<g>
		<path d="M302.454,246.592h-92.911c-4.578,0-8.288,3.711-8.288,8.288s3.71,8.288,8.288,8.288h92.911    c4.578,0,8.288-3.711,8.288-8.288S307.032,246.592,302.454,246.592z"/>
	</g>
</g>
<g>
</g>
<g>
</g>
<g>
</g>
<g>
</g>
<g>
</g>
<g>
</g>
<g>
</g>
<g>
</g>
<g>
</g>
<g>
</g>
<g>
</g>
<g>
</g>
<g>
</g>
<g>
</g>
<g>
</g>
</svg>
