<?xml version="1.0" encoding="iso-8859-1"?>
<!-- Generator: Adobe Illustrator 19.0.0, SVG Export Plug-In . SVG Version: 6.00 Build 0)  -->
<svg xmlns="http://www.w3.org/2000/svg" xmlns:xlink="http://www.w3.org/1999/xlink" version="1.1" id="Layer_1" x="0px" y="0px" viewBox="0 0 512 512" style="enable-background:new 0 0 512 512;" xml:space="preserve">
<g>
	<g>
		<path d="M443.646,409.832c4.774,0,8.642-3.869,8.642-8.642V112.395c0-20.751-16.882-37.632-37.632-37.632h-245.79l229.127-57.739    c4.629-1.166,7.434-5.863,6.267-10.491c-1.167-4.628-5.863-7.436-10.491-6.268L98.139,74.763h-0.795    c-20.751,0-37.632,16.881-37.632,37.632v390.963c0,4.773,3.869,8.642,8.642,8.642h375.293c4.774,0,8.642-3.869,8.642-8.642    v-73.362c0-4.773-3.868-8.642-8.642-8.642s-8.642,3.869-8.642,8.642v64.721H76.995v-294.13h59.708    c4.773,0,8.642-3.869,8.642-8.642c0-4.773-3.869-8.642-8.642-8.642H76.995v-70.908c0-11.22,9.128-20.348,20.348-20.348h1.85    c0.005,0,0.009,0.001,0.014,0.001c0.006,0,0.011-0.001,0.018-0.001h315.43c11.22,0,20.348,9.128,20.348,20.348v70.908H165.51    c-4.773,0-8.642,3.869-8.642,8.642s3.869,8.642,8.642,8.642h269.495V401.19C435.005,405.962,438.872,409.832,443.646,409.832z"/>
	</g>
</g>
<g>
	<g>
		<path d="M373.326,359.825h-86.048c-4.774,0-8.642,3.869-8.642,8.642c0,5.216-4.239,9.46-9.448,9.46H246.5    c-5.209,0-9.448-4.244-9.448-9.46c0-4.773-3.869-8.642-8.642-8.642h-86.048c-20.21,0-36.652,16.442-36.652,36.652v67.74    c0,4.773,3.869,8.642,8.642,8.642h286.986c4.774,0,8.642-3.869,8.642-8.642v-67.74    C409.978,376.267,393.536,359.825,373.326,359.825z M392.696,455.575h-0.001H122.992v-59.098c0-10.68,8.689-19.369,19.369-19.369    h78.838c3.6,10.519,13.581,18.102,25.301,18.102h22.687c11.719,0,21.701-7.583,25.299-18.102h78.839    c10.681,0,19.37,8.689,19.37,19.369V455.575z"/>
	</g>
</g>
<g>
	<g>
		<path d="M373.324,224.38h-86.048c-4.774,0-8.642,3.869-8.642,8.642c0,5.216-4.239,9.46-9.448,9.46h-22.687    c-5.209,0-9.448-4.244-9.448-9.46c0-4.773-3.869-8.642-8.642-8.642H142.36c-20.21,0-36.652,16.447-36.652,36.664v67.728    c0,4.773,3.869,8.642,8.642,8.642h286.986c4.774,0,8.642-3.869,8.642-8.642v-67.728h0.001    C409.978,240.828,393.535,224.38,373.324,224.38z M392.696,320.131h-0.001H122.992v-59.086c0-10.686,8.689-19.38,19.369-19.38    h78.838c3.6,10.519,13.581,18.102,25.301,18.102h22.687c11.719,0,21.701-7.583,25.299-18.102h78.839    c10.681,0,19.37,8.694,19.37,19.38V320.131z"/>
	</g>
</g>
<g>
	<g>
		<path d="M217.37,106.323H114.349c-4.773,0-8.642,3.869-8.642,8.642v42.921c0,4.773,3.869,8.642,8.642,8.642H217.37    c4.774,0,8.642-3.869,8.642-8.642v-42.921C226.012,110.192,222.143,106.323,217.37,106.323z M208.729,149.243h-85.737v-25.637    h85.737V149.243z"/>
	</g>
</g>
<g>
	<g>
		<path d="M384.917,111.035c-13.819,0-25.061,11.242-25.061,25.061c0,13.819,11.242,25.061,25.061,25.061    c13.819,0,25.061-11.242,25.061-25.061C409.978,122.278,398.736,111.035,384.917,111.035z M384.917,143.874    c-4.289,0-7.778-3.489-7.778-7.778c0-4.289,3.489-7.778,7.778-7.778s7.778,3.489,7.778,7.778    C392.695,140.385,389.206,143.874,384.917,143.874z"/>
	</g>
</g>
<g>
	<g>
		<path d="M321.752,111.035c-13.819,0-25.061,11.242-25.061,25.061c0,13.819,11.242,25.061,25.061,25.061    c13.819,0,25.061-11.242,25.061-25.061C346.813,122.278,335.571,111.035,321.752,111.035z M321.752,143.874    c-4.289,0-7.778-3.489-7.778-7.778c0-4.289,3.489-7.778,7.778-7.778c4.289,0,7.778,3.489,7.778,7.778    C329.529,140.385,326.04,143.874,321.752,143.874z"/>
	</g>
</g>
<g>
</g>
<g>
</g>
<g>
</g>
<g>
</g>
<g>
</g>
<g>
</g>
<g>
</g>
<g>
</g>
<g>
</g>
<g>
</g>
<g>
</g>
<g>
</g>
<g>
</g>
<g>
</g>
<g>
</g>
</svg>
