<?xml version="1.0" encoding="iso-8859-1"?>
<!-- Generator: Adobe Illustrator 19.0.0, SVG Export Plug-In . SVG Version: 6.00 Build 0)  -->
<svg xmlns="http://www.w3.org/2000/svg" xmlns:xlink="http://www.w3.org/1999/xlink" version="1.1" id="Layer_1" x="0px" y="0px" viewBox="0 0 512 512" style="enable-background:new 0 0 512 512;" xml:space="preserve">
<g>
	<g>
		<path d="M354.108,439.151c4.559,0,8.256-3.696,8.256-8.256V155.581c0-20.447-16.635-37.082-37.082-37.082H186.719    c-20.447,0-37.082,16.635-37.082,37.082v319.336c0,20.447,16.635,37.083,37.082,37.083h138.562    c20.447,0,37.082-16.635,37.082-37.083v-17.434c0-4.559-3.696-8.256-8.256-8.256c-4.559,0-8.256,3.696-8.256,8.256v17.434    c0,11.343-9.228,20.572-20.57,20.572H186.719c-11.343,0-20.57-9.228-20.57-20.572V155.581c0-11.343,9.228-20.57,20.57-20.57    h138.562c11.343,0,20.57,9.228,20.57,20.57v275.315C345.852,435.455,349.549,439.151,354.108,439.151z"/>
	</g>
</g>
<g>
	<g>
		<path d="M255.202,340.759c-23.024,0-41.756,18.727-41.756,41.745c0.001,23.025,18.732,41.756,41.756,41.756    c23.025,0,41.756-18.732,41.756-41.756C296.958,359.486,278.226,340.759,255.202,340.759z M255.202,407.749    c-13.92,0-25.244-11.325-25.244-25.244c0.001-13.914,11.325-25.233,25.244-25.233c13.921,0,25.244,11.319,25.244,25.233    C280.447,396.425,269.122,407.749,255.202,407.749z"/>
	</g>
</g>
<g>
	<g>
		<path d="M255.202,307.259c-41.497,0-75.257,33.756-75.257,75.246c0.001,41.497,33.761,75.257,75.257,75.257    c41.497,0,75.257-33.76,75.257-75.257C330.459,341.014,296.699,307.259,255.202,307.259z M255.202,441.249    c-32.392,0-58.745-26.353-58.745-58.745c0.001-32.385,26.354-58.734,58.745-58.734c32.392,0,58.745,26.349,58.745,58.734    C313.947,414.896,287.594,441.249,255.202,441.249z"/>
	</g>
</g>
<g>
	<g>
		<path d="M219.257,222.936c-15.931,0-28.891,12.961-28.891,28.891s12.961,28.892,28.891,28.892    c15.932,0,28.892-12.961,28.892-28.892S235.189,222.936,219.257,222.936z M219.257,264.208c-6.827,0-12.38-5.554-12.38-12.381    s5.553-12.38,12.38-12.38c6.826,0,12.381,5.554,12.381,12.38S226.084,264.208,219.257,264.208z"/>
	</g>
</g>
<g>
	<g>
		<path d="M219.257,154.238c-15.931,0-28.891,12.961-28.891,28.892c0,15.931,12.961,28.891,28.891,28.891    c15.932,0,28.892-12.961,28.892-28.891C248.149,167.198,235.189,154.238,219.257,154.238z M219.257,195.51    c-6.827,0-12.38-5.554-12.38-12.38s5.553-12.381,12.38-12.381c6.826,0,12.381,5.554,12.381,12.381S226.084,195.51,219.257,195.51z    "/>
	</g>
</g>
<g>
	<g>
		<path d="M292.743,222.936c-15.931,0-28.891,12.961-28.891,28.891s12.961,28.892,28.891,28.892    c15.932,0,28.893-12.961,28.893-28.892S308.675,222.936,292.743,222.936z M292.743,264.208c-6.827,0-12.379-5.554-12.379-12.381    s5.553-12.38,12.379-12.38s12.381,5.554,12.381,12.38S299.571,264.208,292.743,264.208z"/>
	</g>
</g>
<g>
	<g>
		<path d="M292.743,154.238c-15.931,0-28.891,12.961-28.891,28.892c0,15.931,12.961,28.891,28.891,28.891    c15.932,0,28.893-12.961,28.893-28.891C321.636,167.198,308.675,154.238,292.743,154.238z M292.743,195.51    c-6.827,0-12.379-5.554-12.379-12.38s5.553-12.381,12.379-12.381s12.381,5.554,12.381,12.381S299.571,195.51,292.743,195.51z"/>
	</g>
</g>
<g>
	<g>
		<path d="M337.357,33.645c-44.859-44.859-117.854-44.861-162.715,0c-3.224,3.224-3.224,8.452,0,11.675    c1.612,1.613,3.725,2.418,5.838,2.418s4.226-0.806,5.837-2.418c38.423-38.422,100.941-38.423,139.365,0    c3.224,3.224,8.452,3.224,11.675,0C340.582,42.096,340.582,36.868,337.357,33.645z"/>
	</g>
</g>
<g>
	<g>
		<path d="M312.997,58.007c-31.426-31.428-82.564-31.429-113.992,0c-3.224,3.224-3.224,8.452,0,11.675    c3.224,3.224,8.452,3.224,11.675,0c24.99-24.989,65.651-24.99,90.641,0c1.613,1.612,3.725,2.418,5.839,2.418    c2.112,0,4.226-0.806,5.837-2.418C316.221,66.457,316.221,61.23,312.997,58.007z"/>
	</g>
</g>
<g>
	<g>
		<path d="M288.634,82.367c-17.994-17.996-47.274-17.997-65.269,0c-3.224,3.224-3.224,8.451,0,11.675    c3.224,3.225,8.452,3.224,11.675,0c11.557-11.557,30.362-11.556,41.919,0c1.612,1.612,3.725,2.418,5.837,2.418    s4.226-0.806,5.838-2.418C291.858,90.818,291.858,85.59,288.634,82.367z"/>
	</g>
</g>
<g>
</g>
<g>
</g>
<g>
</g>
<g>
</g>
<g>
</g>
<g>
</g>
<g>
</g>
<g>
</g>
<g>
</g>
<g>
</g>
<g>
</g>
<g>
</g>
<g>
</g>
<g>
</g>
<g>
</g>
</svg>
