<?xml version="1.0" encoding="iso-8859-1"?>
<!-- Generator: Adobe Illustrator 19.0.0, SVG Export Plug-In . SVG Version: 6.00 Build 0)  -->
<svg xmlns="http://www.w3.org/2000/svg" xmlns:xlink="http://www.w3.org/1999/xlink" version="1.1" id="Layer_1" x="0px" y="0px" viewBox="0 0 512 512" style="enable-background:new 0 0 512 512;" xml:space="preserve">
<g>
	<g>
		<path d="M474.673,17.56H37.327C16.745,17.56,0,34.305,0,54.887v300.56c0,20.582,16.745,37.327,37.327,37.327h437.347    c20.582,0,37.327-16.745,37.327-37.327V54.887C512,34.305,495.256,17.56,474.673,17.56z M18.485,74.924h59.151v70.168H18.485    V74.924z M18.485,265.242H56.07c5.104,0,9.242-4.138,9.242-9.242c0-5.104-4.138-9.242-9.242-9.242H18.485v-83.181h59.151v171.833    H18.485V265.242z M493.516,355.447c0,10.39-8.452,18.842-18.842,18.842H37.327c-10.39,0-18.842-8.452-18.842-18.842v-1.553    h446.478c5.104,0,9.242-4.138,9.242-9.242V65.682c0-5.104-4.138-9.242-9.242-9.242H393.6c-5.104,0-9.242,4.138-9.242,9.242    c0,5.104,4.138,9.242,9.242,9.242h62.121v260.486H96.12V74.924h266.672c5.104,0,9.242-4.138,9.242-9.242    c0-5.104-4.138-9.242-9.242-9.242H18.485v-1.553c0-10.39,8.452-18.842,18.842-18.842h437.347c10.39,0,18.842,8.452,18.842,18.842    V355.447z"/>
	</g>
</g>
<g>
	<g>
		<path d="M492.899,422.349H63.218c-11.828,0-23.669,2.78-34.232,8.033c-10.571,5.236-19.944,12.99-27.105,22.423    c-2.507,3.303-2.508,7.87-0.002,11.173c14.466,19.074,37.397,30.46,61.339,30.46h78.991c5.104,0,9.242-4.138,9.242-9.242    s-4.138-9.242-9.242-9.242H63.218c-15.719,0-30.863-6.457-41.781-17.56c4.578-4.664,9.93-8.562,15.767-11.453    c8.032-3.995,17.028-6.106,26.014-6.106h353.907v35.121H173.016c-5.104,0-9.242,4.138-9.242,9.242    c0,5.104,4.138,9.242,9.242,9.242h319.883c5.104,0,9.242-4.138,9.242-9.242v-53.605    C502.142,426.487,498.004,422.349,492.899,422.349z M483.657,475.954h-48.048v-35.121h48.048V475.954z"/>
	</g>
</g>
<g>
</g>
<g>
</g>
<g>
</g>
<g>
</g>
<g>
</g>
<g>
</g>
<g>
</g>
<g>
</g>
<g>
</g>
<g>
</g>
<g>
</g>
<g>
</g>
<g>
</g>
<g>
</g>
<g>
</g>
</svg>
