<?xml version="1.0" encoding="iso-8859-1"?>
<!-- Generator: Adobe Illustrator 19.0.0, SVG Export Plug-In . SVG Version: 6.00 Build 0)  -->
<svg xmlns="http://www.w3.org/2000/svg" xmlns:xlink="http://www.w3.org/1999/xlink" version="1.1" id="Layer_1" x="0px" y="0px" viewBox="0 0 512.001 512.001" style="enable-background:new 0 0 512.001 512.001;" xml:space="preserve">
<g>
	<g>
		<path d="M473.098,273.498H358.089l80.231-138.958c5.026-8.703,6.362-18.839,3.761-28.541c-2.599-9.702-8.823-17.812-17.528-22.839    c-5.725-3.305-12.22-5.052-18.783-5.052c-13.403,0-25.891,7.21-32.594,18.818L271.22,273.498h-30.437L138.829,96.925    c-6.704-11.606-19.193-18.817-32.595-18.817c-6.562,0-13.056,1.746-18.783,5.052c-17.961,10.37-24.136,33.419-13.767,51.379    l32.608,56.474c2.359,4.087,7.586,5.485,11.67,3.127c4.086-2.359,5.486-7.584,3.127-11.67L88.48,125.995    c-5.659-9.801-2.288-22.379,7.512-28.038c3.133-1.808,6.673-2.763,10.24-2.763c7.319,0,14.138,3.938,17.798,10.275l97.021,168.029    h-47.407l-34.854-60.366c-2.36-4.087-7.585-5.485-11.67-3.127c-4.086,2.359-5.486,7.584-3.127,11.67l29.922,51.823H38.889    C17.445,273.498,0,290.943,0,312.386v82.617c0,21.444,17.445,38.89,38.889,38.89h351.824c4.719,0,8.543-3.825,8.543-8.543    s-3.824-8.543-8.543-8.543H38.889c-12.022,0-21.802-9.78-21.802-21.803v-82.617c0-12.022,9.78-21.803,21.802-21.803h434.21    c12.03,0,21.816,9.78,21.816,21.803v82.617c0,12.022-9.787,21.803-21.816,21.803h-50.536c-4.719,0-8.543,3.825-8.543,8.543    s3.824,8.543,8.543,8.543h50.536c21.451,0,38.902-17.445,38.902-38.89v-82.617C512,290.943,494.549,273.498,473.098,273.498z     M290.95,273.498l97.023-168.028c3.66-6.338,10.48-10.276,17.797-10.276c3.569,0,7.109,0.956,10.24,2.762    c4.75,2.743,8.148,7.169,9.566,12.463s0.688,10.825-2.055,15.576l-85.163,147.503H290.95z"/>
	</g>
</g>
<g>
	<g>
		<path d="M67.769,316.482c-20.509,0-37.194,16.691-37.194,37.207s16.684,37.207,37.194,37.207    c20.516,0,37.207-16.691,37.207-37.207S88.286,316.482,67.769,316.482z M67.769,373.81c-11.087,0-20.107-9.026-20.107-20.121    s9.021-20.121,20.107-20.121c11.095,0,20.121,9.026,20.121,20.121S78.864,373.81,67.769,373.81z"/>
	</g>
</g>
<g>
	<g>
		<path d="M163.318,316.482c-20.516,0-37.207,16.691-37.207,37.207s16.691,37.207,37.207,37.207    c20.516,0,37.207-16.691,37.207-37.207S183.834,316.482,163.318,316.482z M163.318,373.81c-11.095,0-20.121-9.026-20.121-20.121    s9.026-20.121,20.121-20.121c11.095,0,20.121,9.026,20.121,20.121S174.413,373.81,163.318,373.81z"/>
	</g>
</g>
<g>
	<g>
		<path d="M461.415,325.086H302.813c-4.719,0-8.543,3.825-8.543,8.543c0,4.718,3.824,8.543,8.543,8.543h158.602    c4.719,0,8.543-3.825,8.543-8.543C469.958,328.911,466.134,325.086,461.415,325.086z"/>
	</g>
</g>
<g>
	<g>
		<path d="M461.415,365.214h-23.567c-4.719,0-8.543,3.825-8.543,8.543s3.824,8.543,8.543,8.543h23.567    c4.719,0,8.543-3.825,8.543-8.543S466.134,365.214,461.415,365.214z"/>
	</g>
</g>
<g>
	<g>
		<path d="M405.999,365.214H302.813c-4.719,0-8.543,3.825-8.543,8.543s3.824,8.543,8.543,8.543h103.186    c4.719,0,8.543-3.825,8.543-8.543S410.717,365.214,405.999,365.214z"/>
	</g>
</g>
<g>
</g>
<g>
</g>
<g>
</g>
<g>
</g>
<g>
</g>
<g>
</g>
<g>
</g>
<g>
</g>
<g>
</g>
<g>
</g>
<g>
</g>
<g>
</g>
<g>
</g>
<g>
</g>
<g>
</g>
</svg>
