<?xml version="1.0" encoding="iso-8859-1"?>
<!-- Generator: Adobe Illustrator 19.0.0, SVG Export Plug-In . SVG Version: 6.00 Build 0)  -->
<svg xmlns="http://www.w3.org/2000/svg" xmlns:xlink="http://www.w3.org/1999/xlink" version="1.1" id="Layer_1" x="0px" y="0px" viewBox="0 0 511.999 511.999" style="enable-background:new 0 0 511.999 511.999;" xml:space="preserve">
<g>
	<g>
		<path d="M443.518,102.097H68.483c-4.652,0-8.421,3.771-8.421,8.421v232.96c0,4.651,3.769,8.421,8.421,8.421H370    c4.652,0,8.421-3.771,8.421-8.421s-3.769-8.421-8.421-8.421H76.903V118.94h358.192v216.117h-37.024    c-4.652,0-8.421,3.771-8.421,8.421s3.769,8.421,8.421,8.421h45.447c4.652,0,8.421-3.771,8.421-8.421v-232.96    C451.939,105.868,448.17,102.097,443.518,102.097z"/>
	</g>
</g>
<g>
	<g>
		<path d="M503.579,374.351h-12.339V99.324c0-20.141-16.381-36.527-36.516-36.527H57.276c-20.135,0-36.515,16.386-36.515,36.527    v61.188c0,4.651,3.769,8.421,8.421,8.421c4.652,0,8.421-3.771,8.421-8.421V99.324c0-10.854,8.825-19.684,19.672-19.684h397.447    c10.848,0,19.674,8.83,19.674,19.684v275.027H303.999h-96H37.603V188.583c0-4.651-3.769-8.421-8.421-8.421    c-4.652,0-8.421,3.771-8.421,8.421v185.768H8.421c-4.652,0-8.421,3.771-8.421,8.421v24.85c0,22.927,18.652,41.579,41.579,41.579    h428.84c22.928,0,41.579-18.652,41.579-41.579v-24.85C512,378.122,508.229,374.351,503.579,374.351z M294.835,391.2    c-2.051,6.472-8.115,11.176-15.255,11.176h-47.16c-7.14,0-13.205-4.704-15.255-11.176H294.835z M470.421,432.359H41.579    c-13.639,0-24.737-11.096-24.737-24.737v-16.429l183.092,0.006c2.34,15.83,16.014,28.019,32.484,28.019h47.16    c16.47,0,30.143-12.188,32.484-28.019l183.092-0.006v16.429h0.001C495.157,421.262,484.06,432.359,470.421,432.359z"/>
	</g>
</g>
<g>
</g>
<g>
</g>
<g>
</g>
<g>
</g>
<g>
</g>
<g>
</g>
<g>
</g>
<g>
</g>
<g>
</g>
<g>
</g>
<g>
</g>
<g>
</g>
<g>
</g>
<g>
</g>
<g>
</g>
</svg>
