<?xml version="1.0" encoding="iso-8859-1"?>
<!-- Generator: Adobe Illustrator 19.0.0, SVG Export Plug-In . SVG Version: 6.00 Build 0)  -->
<svg xmlns="http://www.w3.org/2000/svg" xmlns:xlink="http://www.w3.org/1999/xlink" version="1.1" id="Layer_1" x="0px" y="0px" viewBox="0 0 512 512" style="enable-background:new 0 0 512 512;" xml:space="preserve">
<g>
	<g>
		<path d="M472.546,47.119H39.454C17.699,47.119,0,64.823,0,86.584v46.457c0,4.882,3.958,8.84,8.84,8.84    c4.882,0,8.84-3.957,8.84-8.84V86.584c0-12.013,9.768-21.786,21.774-21.786h433.093c12.007,0,21.774,9.773,21.774,21.786v233.988    h-62.928c-4.883,0-8.84,3.958-8.84,8.84c0,4.882,3.957,8.84,8.84,8.84h62.928v27.243c0,12.007-9.768,21.774-21.774,21.774H39.454    c-12.007,0-21.774-9.767-21.774-21.774v-27.243h377.006c4.883,0,8.84-3.958,8.84-8.84c0-4.882-3.957-8.84-8.84-8.84H17.68V169.749    c0-4.882-3.958-8.84-8.84-8.84c-4.882,0-8.84,3.958-8.84,8.84v195.748c0,21.756,17.699,39.454,39.454,39.454h147.554l-6.323,42.25    h-18.177c-4.882,0-8.84,3.958-8.84,8.84s3.958,8.84,8.84,8.84h186.985c4.883,0,8.84-3.958,8.84-8.84s-3.957-8.84-8.84-8.84    h-18.177l-6.323-42.25h147.554c21.754,0,39.454-17.699,39.454-39.454V86.584C512,64.823,494.3,47.119,472.546,47.119z     M198.561,447.199l6.322-42.25h102.232l6.323,42.25H198.561z"/>
	</g>
</g>
<g>
</g>
<g>
</g>
<g>
</g>
<g>
</g>
<g>
</g>
<g>
</g>
<g>
</g>
<g>
</g>
<g>
</g>
<g>
</g>
<g>
</g>
<g>
</g>
<g>
</g>
<g>
</g>
<g>
</g>
</svg>
