<?xml version="1.0" encoding="iso-8859-1"?>
<!-- Generator: Adobe Illustrator 19.0.0, SVG Export Plug-In . SVG Version: 6.00 Build 0)  -->
<svg xmlns="http://www.w3.org/2000/svg" xmlns:xlink="http://www.w3.org/1999/xlink" version="1.1" id="Layer_1" x="0px" y="0px" viewBox="0 0 512 512" style="enable-background:new 0 0 512 512;" xml:space="preserve">
<g>
	<g>
		<path d="M412.926,419.547c-4.711,0-8.53,3.819-8.53,8.53v37.597c0,5.518-4.489,10.007-10.007,10.007H117.611    c-5.518,0-10.007-4.489-10.007-10.007V27.067c0-5.518,4.489-10.007,10.007-10.007h276.778c5.518,0,10.007,4.489,10.007,10.007    v370.361c-0.001,4.711,3.818,8.53,8.529,8.53s8.53-3.819,8.53-8.53V27.067C421.454,12.142,409.313,0,394.389,0H117.611    c-14.925,0-27.067,12.142-27.067,27.067v438.607c0,11.944,7.78,22.099,18.537,25.681v12.116c0,4.711,3.819,8.53,8.53,8.53    s8.53-3.819,8.53-8.53v-10.73h259.718v10.73c0,4.711,3.819,8.53,8.53,8.53s8.53-3.819,8.53-8.53v-12.116    c10.757-3.583,18.537-13.737,18.537-25.681v-37.597C421.456,423.366,417.637,419.547,412.926,419.547z"/>
	</g>
</g>
<g>
	<g>
		<path d="M359.89,81.196h-23.367c-4.711,0-8.53,3.819-8.53,8.53s3.819,8.53,8.53,8.53h14.837v36.258H160.628V98.256h145.245    c4.711,0,8.53-3.819,8.53-8.53s-3.819-8.53-8.53-8.53H152.099c-4.711,0-8.53,3.819-8.53,8.53v53.318c0,4.711,3.819,8.53,8.53,8.53    H359.89c4.711,0,8.53-3.819,8.53-8.53V89.726C368.42,85.015,364.601,81.196,359.89,81.196z"/>
	</g>
</g>
<g>
	<g>
		<path d="M337.822,171.907c-16.871,0-30.597,13.726-30.597,30.597c-0.001,16.872,13.725,30.598,30.597,30.598    s30.598-13.726,30.598-30.598C368.42,185.634,354.694,171.907,337.822,171.907z M337.822,216.043    c-7.464,0-13.537-6.073-13.537-13.538c-0.001-7.464,6.072-13.537,13.537-13.537c7.465,0,13.538,6.073,13.538,13.537    C351.36,209.969,345.287,216.043,337.822,216.043z"/>
	</g>
</g>
<g>
	<g>
		<path d="M263.503,171.907c-16.872,0-30.598,13.726-30.598,30.597c0,16.872,13.726,30.598,30.598,30.598    c16.872,0,30.597-13.726,30.597-30.598C294.1,185.634,280.374,171.907,263.503,171.907z M263.503,216.043    c-7.465,0-13.538-6.073-13.538-13.538c0-7.464,6.073-13.537,13.538-13.537c7.464,0,13.537,6.073,13.537,13.537    C277.04,209.969,270.967,216.043,263.503,216.043z"/>
	</g>
</g>
<g>
	<g>
		<path d="M303.806,380.931h-52.087c-4.711,0-8.53,3.819-8.53,8.53s3.819,8.53,8.53,8.53h52.087c4.711,0,8.53-3.819,8.53-8.53    S308.517,380.931,303.806,380.931z"/>
	</g>
</g>
<g>
	<g>
		<path d="M223.287,380.931h-15.102c-4.711,0-8.53,3.819-8.53,8.53s3.819,8.53,8.53,8.53h15.102c4.711,0,8.53-3.819,8.53-8.53    S227.997,380.931,223.287,380.931z"/>
	</g>
</g>
<g>
	<g>
		<path d="M303.806,344.153h-95.622c-4.711,0-8.53,3.819-8.53,8.53s3.819,8.53,8.53,8.53h95.622c4.711,0,8.53-3.819,8.53-8.53    S308.517,344.153,303.806,344.153z"/>
	</g>
</g>
<g>
	<g>
		<path d="M303.806,307.376h-95.622c-4.711,0-8.53,3.819-8.53,8.53s3.819,8.53,8.53,8.53h95.622c4.711,0,8.53-3.819,8.53-8.53    S308.517,307.376,303.806,307.376z"/>
	</g>
</g>
<g>
</g>
<g>
</g>
<g>
</g>
<g>
</g>
<g>
</g>
<g>
</g>
<g>
</g>
<g>
</g>
<g>
</g>
<g>
</g>
<g>
</g>
<g>
</g>
<g>
</g>
<g>
</g>
<g>
</g>
</svg>
