<?xml version="1.0" encoding="iso-8859-1"?>
<!-- Generator: Adobe Illustrator 19.0.0, SVG Export Plug-In . SVG Version: 6.00 Build 0)  -->
<svg xmlns="http://www.w3.org/2000/svg" xmlns:xlink="http://www.w3.org/1999/xlink" version="1.1" id="Layer_1" x="0px" y="0px" viewBox="0 0 512.001 512.001" style="enable-background:new 0 0 512.001 512.001;" xml:space="preserve">
<g>
	<g>
		<path d="M503.498,337.325c-4.696,0-8.503,3.807-8.503,8.503v72.726H388.253v-35.031h18.798c14.83,0,26.894-12.064,26.894-26.894    v-25.41c0-14.83-12.064-26.894-26.894-26.894H104.95c-14.83,0-26.894,12.064-26.894,26.894v25.41    c0,14.83,12.064,26.894,26.894,26.894h18.798v35.031H17.006V194.843c0-14.236,11.581-25.817,25.817-25.817h20.003v63.055    c0,27.518,22.387,49.905,49.906,49.905h221.96c4.696,0,8.503-3.807,8.503-8.503s-3.807-8.503-8.503-8.503H112.731    c-18.14,0-32.9-14.758-32.9-32.898v-63.055h352.336v63.055c0,18.14-14.758,32.898-32.898,32.898h-32.847    c-4.696,0-8.503,3.807-8.503,8.503s3.807,8.503,8.503,8.503h32.847c27.518,0,49.905-22.387,49.905-49.905v-63.055h19.99    c14.242,0,25.829,11.581,25.829,25.817v119.256c0,4.696,3.807,8.503,8.503,8.503s8.503-3.807,8.503-8.503V194.843    c0-23.613-19.216-42.823-42.836-42.823h-51.086V32.905c0-4.696-3.807-8.503-8.503-8.503h-47.748c-4.696,0-8.503,3.807-8.503,8.503    v25.6H196.347c-4.696,0-8.503,3.807-8.503,8.503s3.807,8.503,8.503,8.503h156.976v76.508H158.677V75.511h5.941    c4.696,0,8.503-3.807,8.503-8.503s-3.807-8.503-8.503-8.503h-5.941v-25.6c0-4.696-3.807-8.503-8.503-8.503h-47.748    c-4.696,0-8.503,3.807-8.503,8.503v119.116H42.823C19.21,152.021,0,171.23,0,194.843v232.215c0,4.696,3.807,8.503,8.503,8.503    h30.843v21.958c0,4.696,3.807,8.503,8.503,8.503h48.23c4.696,0,8.503-3.807,8.503-8.503v-21.958h19.166v12.135    c0,22.003,17.895,39.904,39.891,39.904h184.708c22.003,0,39.904-17.901,39.904-39.904v-12.135h19.166v21.958    c0,4.696,3.807,8.503,8.503,8.503h48.23c4.696,0,8.503-3.807,8.503-8.503v-21.958h30.843c4.696,0,8.503-3.807,8.503-8.503v-81.229    C512.001,341.133,508.194,337.325,503.498,337.325z M370.33,41.408h30.742v110.613H370.33V41.408z M110.928,41.408h30.742v110.613    h-30.742V41.408z M87.576,449.016H56.352v-13.454h31.224V449.016z M176.42,470.593h-12.781c-12.619,0-22.885-10.272-22.885-22.897    V358.14h35.666V470.593z M318.572,470.593H193.427V358.14h125.146V470.593z M371.245,447.696L371.245,447.696    c0,12.626-10.272,22.897-22.898,22.897h-12.768V358.14h35.666V447.696z M388.251,366.519v-16.882c0-4.696-3.807-8.503-8.503-8.503    H132.251c-4.696,0-8.503,3.807-8.503,8.503v16.882H104.95c-5.452,0-9.888-4.435-9.888-9.888v-25.41    c0-5.452,4.435-9.888,9.888-9.888h302.099c5.452,0,9.888,4.435,9.888,9.888v25.41c0,5.452-4.435,9.888-9.888,9.888H388.251z     M455.648,449.016h-31.224v-13.454h31.224V449.016z"/>
	</g>
</g>
<g>
	<g>
		<path d="M372.767,188.828c-15.187,0-27.541,12.355-27.541,27.541s12.355,27.541,27.541,27.541    c15.187,0,27.541-12.355,27.541-27.541S387.954,188.828,372.767,188.828z M372.767,226.904c-5.809,0-10.535-4.726-10.535-10.535    s4.726-10.535,10.535-10.535s10.535,4.726,10.535,10.535S378.577,226.904,372.767,226.904z"/>
	</g>
</g>
<g>
	<g>
		<path d="M302.96,188.828c-15.187,0-27.541,12.356-27.541,27.541c0,15.187,12.355,27.541,27.541,27.541    c15.187,0,27.541-12.355,27.541-27.541S318.147,188.828,302.96,188.828z M302.96,226.904c-5.809,0-10.535-4.726-10.535-10.535    s4.726-10.535,10.535-10.535s10.535,4.727,10.535,10.535C313.495,222.178,308.77,226.904,302.96,226.904z"/>
	</g>
</g>
<g>
</g>
<g>
</g>
<g>
</g>
<g>
</g>
<g>
</g>
<g>
</g>
<g>
</g>
<g>
</g>
<g>
</g>
<g>
</g>
<g>
</g>
<g>
</g>
<g>
</g>
<g>
</g>
<g>
</g>
</svg>
