<?xml version="1.0" encoding="iso-8859-1"?>
<!-- Generator: Adobe Illustrator 19.0.0, SVG Export Plug-In . SVG Version: 6.00 Build 0)  -->
<svg xmlns="http://www.w3.org/2000/svg" xmlns:xlink="http://www.w3.org/1999/xlink" version="1.1" id="Layer_1" x="0px" y="0px" viewBox="0 0 512 512" style="enable-background:new 0 0 512 512;" xml:space="preserve">
<g>
	<g>
		<path d="M234.615,78.361c-16.374,0-29.696,13.322-29.696,29.697v41.621c0,7.209-5.865,13.074-13.075,13.074    s-13.075-5.865-13.075-13.074V48.523c0-4.59-3.72-8.311-8.311-8.311c-4.591,0-8.311,3.721-8.311,8.311v101.157    c0,16.375,13.322,29.697,29.697,29.697s29.697-13.322,29.697-29.696v-41.621c0-7.209,5.865-13.075,13.074-13.075    c7.21,0,13.075,5.865,13.075,13.075v81.254c0,4.59,3.72,8.311,8.311,8.311s8.311-3.721,8.311-8.311v-81.255    C264.312,91.683,250.991,78.361,234.615,78.361z"/>
	</g>
</g>
<g>
	<g>
		<path d="M488.609,205.693h-62.256c-4.591,0-8.311,3.721-8.311,8.311c0,4.59,3.72,8.311,8.311,8.311h62.256    c3.733,0,6.77,3.033,6.77,6.76v219.332c0,3.728-3.036,6.76-6.77,6.76H23.383c-3.728,0-6.761-3.032-6.761-6.76V229.075    c0-3.728,3.032-6.76,6.761-6.76h375.267c4.591,0,8.311-3.721,8.311-8.311s-3.72-8.311-8.311-8.311H23.383    C10.49,205.693,0,216.183,0,229.075v219.332c0,12.893,10.49,23.382,23.383,23.382h465.226c12.899,0,23.391-10.488,23.391-23.382    V229.075C512,216.183,501.506,205.693,488.609,205.693z"/>
	</g>
</g>
<g>
	<g>
		<path d="M178.808,310.943h-28.623V282.32c0-4.59-3.72-8.311-8.311-8.311H89.836c-4.591,0-8.311,3.721-8.311,8.311v28.623H52.902    c-4.591,0-8.311,3.721-8.311,8.311v52.038c0,4.59,3.72,8.311,8.311,8.311h28.623v28.623c0,4.59,3.72,8.311,8.311,8.311h12.944    c4.591,0,8.311-3.721,8.311-8.311c0-4.59-3.72-8.311-8.311-8.311h-4.633v-28.623c0-4.59-3.72-8.311-8.311-8.311H61.213v-35.416    h28.623c4.591,0,8.311-3.721,8.311-8.311v-28.623h35.416v28.623c0,4.59,3.72,8.311,8.311,8.311h28.623v35.416h-28.623    c-4.591,0-8.311,3.721-8.311,8.311v28.623h-3.079c-4.591,0-8.311,3.721-8.311,8.311c0,4.59,3.72,8.311,8.311,8.311h11.39    c4.591,0,8.311-3.721,8.311-8.311v-28.623h28.623c4.591,0,8.311-3.721,8.311-8.311v-52.038    C187.119,314.664,183.399,310.943,178.808,310.943z"/>
	</g>
</g>
<g>
	<g>
		<path d="M363.921,282.043c-17.756,0-32.202,14.446-32.202,32.202s14.446,32.202,32.202,32.202s32.203-14.446,32.203-32.202    S381.678,282.043,363.921,282.043z M363.921,329.826c-8.591,0-15.58-6.989-15.58-15.58s6.989-15.58,15.58-15.58    s15.581,6.989,15.581,15.58S372.512,329.826,363.921,329.826z"/>
	</g>
</g>
<g>
	<g>
		<path d="M440.57,282.043c-17.756,0-32.202,14.446-32.202,32.202s14.447,32.202,32.202,32.202    c17.757,0,32.203-14.446,32.203-32.202S458.328,282.043,440.57,282.043z M440.57,329.826c-8.591,0-15.58-6.989-15.58-15.58    s6.989-15.58,15.58-15.58s15.581,6.989,15.581,15.58S449.161,329.826,440.57,329.826z"/>
	</g>
</g>
<g>
	<g>
		<path d="M363.921,358.083c-17.756,0-32.202,14.446-32.202,32.202s14.446,32.202,32.202,32.202s32.203-14.446,32.203-32.202    S381.678,358.083,363.921,358.083z M363.921,405.866c-8.591,0-15.58-6.989-15.58-15.58s6.989-15.58,15.58-15.58    s15.581,6.989,15.581,15.58S372.512,405.866,363.921,405.866z"/>
	</g>
</g>
<g>
	<g>
		<path d="M440.57,358.083c-17.756,0-32.202,14.446-32.202,32.202s14.447,32.202,32.202,32.202    c17.757,0,32.203-14.446,32.203-32.202S458.328,358.083,440.57,358.083z M440.57,405.866c-8.591,0-15.58-6.989-15.58-15.58    s6.989-15.58,15.58-15.58s15.581,6.989,15.581,15.58S449.161,405.866,440.57,405.866z"/>
	</g>
</g>
<g>
	<g>
		<path d="M248.277,376.733h-20.191c-4.591,0-8.311,3.721-8.311,8.311c0,4.59,3.72,8.311,8.311,8.311h20.191    c4.591,0,8.311-3.721,8.311-8.311C256.588,380.454,252.868,376.733,248.277,376.733z"/>
	</g>
</g>
<g>
	<g>
		<path d="M292.502,376.733h-20.19c-4.591,0-8.311,3.721-8.311,8.311c0,4.59,3.72,8.311,8.311,8.311h20.19    c4.591,0,8.311-3.721,8.311-8.311C300.813,380.454,297.093,376.733,292.502,376.733z"/>
	</g>
</g>
<g>
</g>
<g>
</g>
<g>
</g>
<g>
</g>
<g>
</g>
<g>
</g>
<g>
</g>
<g>
</g>
<g>
</g>
<g>
</g>
<g>
</g>
<g>
</g>
<g>
</g>
<g>
</g>
<g>
</g>
</svg>
