<?xml version="1.0" encoding="iso-8859-1"?>
<!-- Generator: Adobe Illustrator 19.0.0, SVG Export Plug-In . SVG Version: 6.00 Build 0)  -->
<svg xmlns="http://www.w3.org/2000/svg" xmlns:xlink="http://www.w3.org/1999/xlink" version="1.1" id="Layer_1" x="0px" y="0px" viewBox="0 0 512 512" style="enable-background:new 0 0 512 512;" xml:space="preserve">
<g>
	<g>
		<path d="M467.256,138.49c-21.236-31.035-48.477-56.505-80.963-75.698c-39.401-23.293-84.441-35.604-130.25-35.604    S165.195,39.499,125.795,62.79c-32.478,19.19-59.718,44.663-80.961,75.709C15.504,181.331,0,231.363,0,283.184    c0,17.663,1.875,35.383,5.525,52.7c-0.139,1.102,34.508,131.555,34.508,131.555c1.036,3.876,4.547,6.534,8.505,6.534    c0.218,0,0.438-0.008,0.659-0.025l54.502-4.052l0.041,0.154c1.375,5.136,4.67,9.429,9.274,12.087    c3.068,1.771,6.472,2.676,9.92,2.676c1.728,0,3.466-0.227,5.177-0.686l33.502-8.951c10.601-2.84,16.915-13.776,14.075-24.373    l-44.092-164.857c-1.374-5.134-4.666-9.428-9.267-12.089c-4.606-2.665-9.973-3.376-15.108-1.999l-33.499,8.963    c-5.136,1.375-9.429,4.67-12.087,9.274c-2.658,4.604-3.364,9.968-1.988,15.103l0.036,0.137l-38.533,18.551    c-2.333-13.454-3.532-27.096-3.532-40.701c0-44.77,12.437-88.105,36.048-125.989c6.764,4.967,14.907,7.869,23.496,8.212    c0.576,0.023,1.15,0.034,1.723,0.034c12.085,0,23.582-5.081,31.767-14.1c4.201-4.628,8.683-9.107,13.323-13.312    c3.605-3.268,3.878-8.838,0.611-12.443c-3.267-3.605-8.838-3.878-12.443-0.611c-5.062,4.588-9.952,9.475-14.536,14.525    c-5.06,5.574-12.26,8.601-19.741,8.301c-5.272-0.21-10.256-2.071-14.328-5.238c19.132-26.25,43.058-47.967,71.222-64.608    c36.687-21.687,78.627-33.152,121.284-33.152c42.657,0,84.597,11.463,121.286,33.153c28.172,16.645,52.098,38.358,71.222,64.598    c-4.073,3.172-9.06,5.036-14.336,5.248c-7.487,0.302-14.681-2.725-19.742-8.3c-14.326-15.781-31.034-29.364-49.663-40.374    c-32.926-19.457-70.538-29.742-108.767-29.742c-38.246,0-75.86,10.285-108.777,29.742c-4.065,2.402-8.097,4.963-11.982,7.614    c-4.019,2.741-5.055,8.222-2.314,12.241c2.741,4.018,8.22,5.055,12.241,2.313c3.573-2.437,7.28-4.793,11.019-7.002    c30.204-17.853,64.719-27.29,99.813-27.29c35.079,0,69.59,9.437,99.803,27.292c17.108,10.11,32.445,22.575,45.583,37.048    c8.185,9.017,19.679,14.098,31.763,14.096c0.574,0,1.151-0.012,1.728-0.035c8.585-0.344,16.723-3.246,23.488-8.215    c30.819,49.587,42.454,109.23,32.516,166.684l-38.533-18.549l0.035-0.133c1.375-5.136,0.669-10.499-1.988-15.103    c-2.659-4.604-6.951-7.899-12.089-9.274l-33.495-8.962c-10.601-2.839-21.536,3.481-24.378,14.091l-9.664,36.131    c-1.257,4.699,1.534,9.529,6.233,10.786c4.704,1.258,9.529-1.534,10.786-6.234l9.663-36.128c0.328-1.224,1.588-1.956,2.804-1.628    l33.495,8.961c0.755,0.202,1.171,0.691,1.387,1.064c0.216,0.375,0.431,0.98,0.227,1.739l-44.094,164.867    c-0.198,0.746-0.681,1.158-1.051,1.372c-0.372,0.216-0.978,0.431-1.739,0.227l-33.492-8.949c-1.224-0.328-1.953-1.584-1.627-2.805    l27.161-101.552c1.257-4.699-1.534-9.529-6.233-10.786c-4.7-1.256-9.528,1.534-10.786,6.234l-27.161,101.548    c-2.839,10.6,3.48,21.536,14.093,24.379l33.492,8.949c1.715,0.459,3.455,0.687,5.184,0.687c3.454,0,6.864-0.908,9.933-2.684    c4.601-2.663,7.887-6.958,9.249-12.08l0.04-0.151l54.515,4.052c0.221,0.016,0.44,0.025,0.658,0.025    c3.958,0,7.468-2.658,8.505-6.534c0,0,34.648-130.476,34.504-131.589C520.883,267.791,506.638,196.02,467.256,138.49z     M76.894,298.9c0.216-0.373,0.632-0.862,1.385-1.064l33.499-8.963c0.749-0.201,1.355,0.014,1.73,0.23    c0.376,0.219,0.868,0.637,1.071,1.394l44.092,164.858c0.326,1.218-0.398,2.475-1.61,2.8l-33.502,8.951    c-1.218,0.328-2.475-0.398-2.801-1.613L76.667,300.636C76.463,299.879,76.678,299.275,76.894,298.9z M64.317,322.656    l34.747,129.919l-43.897,3.263c0,0-29.984-113.156-30.251-114.212L64.317,322.656z M456.92,455.837l-43.909-3.263l34.754-129.921    l39.405,18.966C486.907,342.662,456.92,455.837,456.92,455.837z"/>
	</g>
</g>
<g>
</g>
<g>
</g>
<g>
</g>
<g>
</g>
<g>
</g>
<g>
</g>
<g>
</g>
<g>
</g>
<g>
</g>
<g>
</g>
<g>
</g>
<g>
</g>
<g>
</g>
<g>
</g>
<g>
</g>
</svg>
