<?xml version="1.0" encoding="iso-8859-1"?>
<!-- Generator: Adobe Illustrator 19.0.0, SVG Export Plug-In . SVG Version: 6.00 Build 0)  -->
<svg version="1.1" id="Layer_1" xmlns="http://www.w3.org/2000/svg" xmlns:xlink="http://www.w3.org/1999/xlink" x="0px" y="0px"
	 viewBox="0 0 512 512" style="enable-background:new 0 0 512 512;" xml:space="preserve">
<g>
	<g>
		<path d="M123.184,284.948h-18.503c-4.199,0-7.604,3.404-7.604,7.604s3.405,7.604,7.604,7.604h18.503
			c4.199,0,7.604-3.404,7.604-7.604S127.384,284.948,123.184,284.948z"/>
	</g>
</g>
<g>
	<g>
		<path d="M490.141,285.398c-1.1-18.747-3.771-34.441-7.968-46.703c-1.361-3.973-5.682-6.094-9.656-4.732
			c-3.973,1.36-6.091,5.683-4.732,9.656c3.659,10.69,6.039,24.57,7.097,41.328H343.788c21.902-24.205,63.157-65.159,93.333-67.467
			c7.348-0.568,13.372,1.296,18.409,5.682c3.167,2.758,7.97,2.425,10.729-0.741c2.758-3.166,2.426-7.97-0.741-10.728
			c-8.151-7.097-18.096-10.256-29.556-9.376c-19.943,1.526-42.291,15.344-62.862,32.583c-15.976-7.264-34.085-11.097-52.719-11.097
			c-14.02,0-27.527,2.202-39.927,6.22c-6.884-22.726-18.429-54.216-36.12-83.976c5.934,0.809,13.54,2.422,19.589,5.16
			c0.165,0.075,0.334,0.145,0.504,0.207c4.139,1.527,7.77,3.592,10.974,5.415c4.117,2.341,7.571,4.306,11.138,4.306
			c1.098,0,2.206-0.187,3.348-0.605c2.476-0.908,4.393-2.786,5.438-5.315c3.109-6.9-0.933-19.603-7.336-29.577
			c2.694-0.547,4.947-1.609,6.686-3.834c1.624-2.078,2.261-4.685,1.815-7.384c-1.287-9.643-17.664-21.197-30.943-24.633
			c-14.477-4.586-30.916-1.65-37.289,2.239c-6.769,3.596-11.149,10.355-13.584,17.013c-3.901-1.491-7.956-2.338-11.784-2.338
			c-2.396,0-4.696,0.317-6.845,0.946c-7.275,1.667-21.093,11.047-28.253,24.439c-7.103,11.731-10.756,31.442-4.943,39.24
			c1.823,2.612,4.608,4.1,7.706,4.101c0.001,0,0.001,0,0.002,0c3.688,0,6.582-1.989,9.803-4.778c0.015,0.074,0.026,0.15,0.043,0.224
			c2.062,13.558,11.882,31.031,21.342,33.297c0.881,0.239,1.764,0.359,2.633,0.359c1.734,0,3.411-0.475,4.898-1.41
			c4.374-2.75,5.063-7.592,5.934-13.723c0.519-3.65,1.106-7.786,2.43-11.994c0.055-0.173,0.102-0.349,0.145-0.525
			c2.395-10.08,9.272-21.49,12.165-25.234c17.831,29.442,29.459,61.502,36.246,84.048c-22.817,10.803-40.238,28.24-47.514,49.257
			H153.6c-4.199,0-7.604,3.404-7.604,7.604s3.405,7.604,7.604,7.604h331.689c6.343,0,11.503,5.161,11.503,11.504
			c0,6.343-5.161,11.503-11.503,11.503H26.711c-6.343,0-11.503-5.161-11.503-11.503c0-6.344,5.161-11.504,11.503-11.504h48.315
			c4.199,0,7.604-3.404,7.604-7.604s-3.405-7.604-7.604-7.604H26.711C11.983,284.948,0,296.93,0,311.66
			c0,13.122,9.514,24.057,22.005,26.287l29.935,69.72c4.403,10.254,14.46,16.881,25.62,16.881H434.44
			c11.161,0,21.217-6.627,25.62-16.881l29.935-69.72C502.486,335.716,512,324.782,512,311.66
			C512,298.589,502.56,287.688,490.141,285.398z M203.049,173.095c-1.091,3.526-1.765,6.878-2.26,9.891
			c-2.3-3.879-6.636-16.698-6.16-23.732c5.636-3.751,12.621-6.718,17.83-8.512C208.826,157.076,204.938,165.325,203.049,173.095z
			 M215.395,134.094c-6.343,1.322-21.352,6.597-31.64,14.208c-3.096,2.007-5.762,4.151-8.071,6.147
			c0.719-4.453,2.283-9.879,5.195-14.621c0.086-0.141,23.921-37.245,39.056-8.071C219.535,132.163,218.347,133.13,215.395,134.094z
			 M269.945,137.24c-5.492-2.452-11.885-4.171-17.798-5.304c10.106-4.683,17.199-4.658,17.75-4.749
			c0.236,0.262,6.72,6.387,9.255,14.316C276.464,140.052,273.401,138.535,269.945,137.24z M231.33,121.261
			c-0.972-1.331-2.102-2.597-3.334-3.798c12.007-29.233,43.894-8.841,47.519-6.156c-3.048,0.185-6.451,0.512-10.07,1.237
			c-12.45,1.706-26.56,8.192-32.239,11.725C232.696,123.293,232.085,122.291,231.33,121.261z M235.012,284.948
			c40.928-64.081,113.037-43.497,125.429-38.843c-14.236,13.252-27.074,27.324-36.926,38.843H235.012z M450.698,338.37
			l-19.293,45.075c-1.2,2.797-3.943,4.604-6.988,4.604H87.58c-3.044,0-5.787-1.807-6.991-4.611L61.188,338.37H450.698z
			 M446.085,401.667c-2.001,4.662-6.573,7.673-11.645,7.673H77.56c-5.072,0-9.644-3.012-11.645-7.673L38.738,338.37h5.894
			l21.989,51.075c3.602,8.39,11.83,13.812,20.962,13.812H424.42c9.132,0,17.359-5.422,20.965-13.82l21.857-51.067h6.022
			L446.085,401.667z"/>
	</g>
</g>
<g>
	<g>
		<path d="M213.046,353.297c-1.409-1.419-3.376-2.23-5.373-2.23c-1.997,0-3.964,0.811-5.373,2.23
			c-1.419,1.409-2.231,3.376-2.231,5.373s0.811,3.964,2.231,5.373c1.41,1.419,3.377,2.23,5.373,2.23c1.997,0,3.964-0.811,5.373-2.23
			c1.419-1.409,2.231-3.366,2.231-5.373S214.465,354.706,213.046,353.297z"/>
	</g>
</g>
<g>
	<g>
		<path d="M274.384,366.477c-1.409-1.419-3.376-2.231-5.373-2.231c-1.997,0-3.964,0.811-5.373,2.231
			c-1.419,1.409-2.231,3.376-2.231,5.373s0.811,3.964,2.231,5.373c1.41,1.419,3.377,2.231,5.373,2.231
			c1.997,0,3.964-0.811,5.373-2.231c1.419-1.409,2.231-3.366,2.231-5.373C276.615,369.843,275.804,367.887,274.384,366.477z"/>
	</g>
</g>
<g>
	<g>
		<path d="M346.2,353.297c-1.409-1.419-3.376-2.23-5.373-2.23s-3.964,0.811-5.373,2.23c-1.419,1.409-2.231,3.376-2.231,5.373
			s0.811,3.964,2.231,5.373c1.409,1.419,3.376,2.23,5.373,2.23s3.964-0.811,5.373-2.23c1.419-1.409,2.231-3.366,2.231-5.373
			S347.62,354.706,346.2,353.297z"/>
	</g>
</g>
<g>
	<g>
		<path d="M408.89,366.477c-1.409-1.419-3.376-2.231-5.373-2.231s-3.964,0.811-5.373,2.231c-1.419,1.409-2.23,3.376-2.23,5.373
			s0.811,3.964,2.23,5.373c1.409,1.419,3.376,2.231,5.373,2.231s3.964-0.811,5.373-2.231c1.419-1.409,2.23-3.366,2.23-5.373
			C411.121,369.843,410.31,367.887,408.89,366.477z"/>
	</g>
</g>
<g>
</g>
<g>
</g>
<g>
</g>
<g>
</g>
<g>
</g>
<g>
</g>
<g>
</g>
<g>
</g>
<g>
</g>
<g>
</g>
<g>
</g>
<g>
</g>
<g>
</g>
<g>
</g>
<g>
</g>
</svg>
