<?xml version="1.0" encoding="iso-8859-1"?>
<!-- Generator: Adobe Illustrator 19.0.0, SVG Export Plug-In . SVG Version: 6.00 Build 0)  -->
<svg version="1.1" id="Layer_1" xmlns="http://www.w3.org/2000/svg" xmlns:xlink="http://www.w3.org/1999/xlink" x="0px" y="0px"
	 viewBox="0 0 512 512" style="enable-background:new 0 0 512 512;" xml:space="preserve">
<g>
	<g>
		<path d="M471.595,130.785c-5.033-7.014-13.19-11.202-21.823-11.202H305.166c-8.633,0-16.792,4.188-21.823,11.202
			c-5.032,7.014-6.385,16.084-3.618,24.262c7.527,22.251,42.94,69.761,97.744,69.761c57.312,0,90.217-47.509,97.744-69.76
			C477.98,146.869,476.627,137.799,471.595,130.785z M330.325,196.239c-16.587-10.523-29.589-26.538-36.194-46.066
			c-1.203-3.556-0.62-7.473,1.569-10.524c2.188-3.051,5.712-4.859,9.466-4.859h25.158V196.239z M369.865,209.598
			c-8.463-0.729-16.638-2.669-24.333-5.665v-7.693V134.79h24.333V209.598z M409.405,196.239v7.693
			c-7.694,2.996-15.87,4.936-24.333,5.665V134.79h24.333V196.239z M460.807,150.174c-6.605,19.528-19.607,35.542-36.194,46.066
			V134.79h25.158c3.754,0,7.278,1.809,9.466,4.859S462.011,146.618,460.807,150.174z"/>
	</g>
</g>
<g>
	<g>
		<path d="M392.85,59.505h-53.052v-1.653c0-26.554-21.604-48.158-48.158-48.158h-71.28c-26.554,0-48.158,21.604-48.158,48.158v1.653
			h-53.052c-22.548,0-44.517,6.357-63.53,18.383c-3.549,2.245-4.606,6.942-2.361,10.491c2.245,3.55,6.942,4.608,10.491,2.361
			c16.578-10.485,35.734-16.028,55.399-16.028h273.7c57.314,0,103.942,46.628,103.942,103.942v204.501
			c0,57.314-46.628,103.942-103.942,103.942H119.15C61.836,487.097,15.208,440.47,15.208,383.156v-94.647h6.807
			c6.41,19.539,24.368,17.245,24.368,17.245v78.692c0,42.208,34.339,76.547,76.547,76.547h62.484
			c42.208,0,76.547-34.339,76.547-76.547v-78.692c0,0,19.221-0.071,24.368-17.245h46.141c3.22,9.993,12.604,17.245,23.654,17.245
			h42.692c11.05,0,20.433-7.252,23.654-17.245h46.446c4.199,0,7.604-3.405,7.604-7.604s-3.405-7.604-7.604-7.604h-46.445
			c-3.22-9.994-12.604-17.245-23.654-17.245h-42.692c-11.05,0-20.434,7.252-23.654,17.245H286.33
			c-5.147-17.302-24.368-17.245-24.368-17.245v-78.692c0-42.208-34.339-76.547-76.547-76.547h-62.484
			c-42.208,0-76.547,34.338-76.547,76.547v78.692c0,0-19.342-2.25-24.368,17.245h-6.808v-94.647c0-13.585,2.592-26.8,7.705-39.278
			c1.593-3.886-0.268-8.327-4.153-9.92c-3.887-1.592-8.327,0.268-9.92,4.153C2.975,147.928,0,163.083,0,178.655v204.501
			c0,65.699,53.451,119.15,119.15,119.15h273.7C458.549,502.305,512,448.855,512,383.156V178.655
			C512,112.955,458.549,59.505,392.85,59.505z M294.175,59.505h-76.349v-1.653c0-1.303,1.232-2.535,2.535-2.535h71.28
			c1.303,0,2.535,1.232,2.535,2.535V59.505z M324.591,59.505h-15.208v-1.653c0-9.617-8.125-17.743-17.743-17.743h-71.28
			c-9.617,0-17.743,8.125-17.743,17.743v1.653H187.41v-1.653c0-18.168,14.782-32.951,32.951-32.951h71.28
			c18.168,0,32.951,14.782,32.951,32.951V59.505z M356.123,271.264h42.692c5.316,0,9.641,4.325,9.641,9.641
			s-4.325,9.641-9.641,9.641h-42.692c-5.316,0-9.641-4.325-9.641-9.641C346.483,275.589,350.807,271.264,356.123,271.264z
			 M45.668,271.264h8.318c4.199,0,7.604-3.405,7.604-7.604v-86.296c0-33.822,27.516-61.339,61.339-61.339h62.484
			c33.822,0,61.339,27.516,61.339,61.339v86.296c0,4.199,3.405,7.604,7.604,7.604h8.318c5.317,0,9.641,4.325,9.641,9.641
			s-4.325,9.641-9.641,9.641h-8.318c-4.199,0-7.604,3.405-7.604,7.604v86.296c0,33.822-27.516,61.339-61.339,61.339h-62.484
			c-33.822,0-61.339-27.516-61.339-61.339V298.15c0-4.199-3.405-7.604-7.604-7.604h-8.318c-5.316,0-9.641-4.325-9.641-9.641
			C36.029,275.589,40.353,271.264,45.668,271.264z"/>
	</g>
</g>
<g>
	<g>
		<path d="M43.027,96.839c-3.063-2.874-7.875-2.72-10.749,0.342c-2.865,3.054-5.602,6.294-8.132,9.633
			c-2.536,3.348-1.88,8.117,1.467,10.654c1.374,1.041,7.087,2.805,10.653-1.466c2.345-2.808,4.6-5.746,7.103-8.413
			C46.242,104.526,46.09,99.714,43.027,96.839z"/>
	</g>
</g>
<g>
	<g>
		<path d="M473.98,375.551c-4.199,0-7.604,3.405-7.604,7.604c0,40.542-32.984,73.526-73.526,73.526
			c-4.199,0-7.604,3.405-7.604,7.604s3.405,7.604,7.604,7.604c48.929,0,88.734-39.806,88.734-88.734
			C481.584,378.956,478.18,375.551,473.98,375.551z"/>
	</g>
</g>
<g>
	<g>
		<path d="M359.16,456.681h-57.533c-4.199,0-7.604,3.405-7.604,7.604s3.405,7.604,7.604,7.604h57.533
			c4.199,0,7.604-3.405,7.604-7.604S363.36,456.681,359.16,456.681z"/>
	</g>
</g>
<g>
	<g>
		<path d="M184.939,126.639h-61.535c-28.232,0-51.2,22.968-51.2,51.2v206.132c0,28.232,22.968,51.2,51.2,51.2h61.535
			c28.232,0,51.2-22.968,51.2-51.2V177.839C236.139,149.607,213.17,126.639,184.939,126.639z M115.799,419.147
			c-12.247-2.645-22.192-11.539-26.321-23.169h26.321V419.147z M115.799,380.77H87.411v-53.735h28.388V380.77z M115.799,311.828
			H87.411v-53.735h28.388V311.828z M115.799,242.885H87.411v-53.735h28.388V242.885z M115.799,173.944H87.626
			c1.675-15.484,13.206-28.048,28.173-31.281V173.944z M174.05,419.963h-43.042v-23.985h43.042V419.963z M174.05,380.77h-43.042
			v-53.735h43.042V380.77z M174.05,311.828h-43.042v-53.735h43.042V311.828z M174.05,242.885h-43.042v-53.735h43.042V242.885z
			 M174.05,173.943h-43.042v-32.096h43.042V173.943z M189.258,142.114c16.54,1.988,29.664,15.23,31.459,31.828h-31.459V142.114z
			 M189.258,419.694v-23.716h29.607C214.372,408.631,202.994,418.044,189.258,419.694z M220.932,380.77h-31.674v-53.735h31.674
			V380.77z M220.932,311.828h-31.674v-53.735h31.674V311.828z M220.932,242.885h-31.674v-53.735h31.674V242.885z"/>
	</g>
</g>
<g>
</g>
<g>
</g>
<g>
</g>
<g>
</g>
<g>
</g>
<g>
</g>
<g>
</g>
<g>
</g>
<g>
</g>
<g>
</g>
<g>
</g>
<g>
</g>
<g>
</g>
<g>
</g>
<g>
</g>
</svg>
