<?xml version="1.0" encoding="iso-8859-1"?>
<!-- Generator: Adobe Illustrator 19.0.0, SVG Export Plug-In . SVG Version: 6.00 Build 0)  -->
<svg version="1.1" id="Layer_1" xmlns="http://www.w3.org/2000/svg" xmlns:xlink="http://www.w3.org/1999/xlink" x="0px" y="0px"
	 viewBox="0 0 512.002 512.002" style="enable-background:new 0 0 512.002 512.002;" xml:space="preserve">
<g>
	<g>
		<path d="M113.199,325.755c-2.149-3.227-4.172-6.592-6.014-10.004c-1.995-3.696-6.607-5.072-10.304-3.078
			c-3.696,1.995-5.073,6.608-3.078,10.304c2.063,3.821,4.33,7.592,6.737,11.206c1.465,2.2,3.877,3.39,6.337,3.39
			c1.448,0,2.912-0.413,4.208-1.275C114.58,333.971,115.527,329.249,113.199,325.755z"/>
	</g>
</g>
<g>
	<g>
		<path d="M403.159,220.563c-1.597-9.076-3.954-18.255-7.005-27.282c-1.344-3.978-5.657-6.112-9.639-4.768
			c-3.978,1.344-6.114,5.66-4.768,9.639c2.805,8.3,4.97,16.726,6.434,25.047c0.65,3.691,3.858,6.288,7.48,6.288
			c0.437,0,0.881-0.039,1.326-0.117C401.123,228.643,403.887,224.7,403.159,220.563z"/>
	</g>
</g>
<g>
	<g>
		<path d="M398.084,241.163c-4.2,0-7.604,3.405-7.604,7.604c0,22.491-5.554,42.449-16.509,59.32
			c-4.468,6.882-9.871,13.258-16.059,18.949c-3.09,2.844-3.292,7.655-0.448,10.745c1.498,1.629,3.544,2.456,5.598,2.456
			c1.84,0,3.685-0.664,5.146-2.007c7.125-6.554,13.355-13.908,18.519-21.86c12.582-19.378,18.962-42.123,18.962-67.603
			C405.688,244.568,402.284,241.163,398.084,241.163z"/>
	</g>
</g>
<g>
	<g>
		<path d="M508.803,83.251c-2.894-4.396-7.533-7.473-12.751-8.444c-1.686-0.308-17.162-2.982-40.344-2.93
			c-4.199,0.015-7.592,3.432-7.577,7.631c0.015,4.19,3.417,7.577,7.604,7.577c0.009,0,0.019,0,0.028,0
			c22.155-0.106,36.934,2.569,37.53,2.678c1.168,0.217,2.166,0.874,2.806,1.848c0.635,0.964,0.85,2.163,0.591,3.289
			c-0.626,2.723-15.029,63.41-64.669,114.348c-0.971-4.756-2.108-9.496-3.413-14.21c33.393-38.403,47.36-70.887,47.5-71.218
			l0.161-0.413c2.533-7.107,2.303-13.139-0.684-17.93c-1.992-3.196-6.158-7.21-14.691-8.184l-0.746-0.053
			c-8.903-0.502-40.126-1.14-78.298,10.69c-2.424-2.802-4.893-5.522-7.407-8.148c14.652-4.748,30.037-8.227,45.909-10.318
			c4.164-0.549,7.094-4.369,6.546-8.533c-0.549-4.163-4.372-7.096-8.533-6.546c-19.562,2.578-38.453,7.145-56.243,13.537
			c-31.32-27.702-68.146-42.673-106.12-42.673c-37.964,0-74.782,14.964-106.097,42.653C81.349,63.277,18.629,74.317,15.928,74.812
			c-5.196,0.967-9.836,4.042-12.73,8.441c-2.905,4.415-3.892,9.904-2.708,15.053c0.699,3.042,17.535,73.985,76.591,129.397
			c-0.776,7.035-1.183,14.071-1.183,21.065c0,15.375,1.952,30.202,5.801,44.067c1.123,4.046,5.316,6.419,9.361,5.292
			c4.046-1.123,6.416-5.315,5.292-9.361c-3.482-12.541-5.247-25.999-5.247-40c0-65.707,41.016-139.456,101.043-171.706
			c11.732,24.851,31.574,76.603,38.827,153.537c-5.02-9.266-18.87-29.136-45.349-29.136c-10.333,0-21.263,3.19-32.486,9.481
			c-6.142,3.442-8.841,10.983-6.278,17.543c0.544,1.392,13.713,34.085,47.414,34.085c10.444,0,21.482-3.307,32.81-9.83
			c2.251-1.296,4.026-3.151,5.239-5.303c0.444,6.69,0.803,13.532,1.041,20.568c-4.414,0.855-8.257,3.778-10.194,7.94
			c-0.911,1.96-1.335,4.068-1.308,6.159c-8.216,1.398-15.514,5.521-20.933,11.401l-21.94-5.613c-4.07-1.039-8.21,1.414-9.252,5.482
			c-1.04,4.069,1.414,8.21,5.482,9.252l17.721,4.534c-2.339,7.14-1.628,15.149-1.341,17.001l-16.379,4.19
			c-4.069,1.041-6.523,5.183-5.482,9.252c0.879,3.436,3.971,5.721,7.362,5.721c0.624,0,1.258-0.078,1.89-0.239l18.072-4.623
			c6.579,10.175,18.017,16.93,31.01,16.93c11.007,0,21.08-4.802,27.926-12.731c6.847,7.93,16.92,12.731,27.926,12.731
			c12.993,0,24.43-6.754,31.01-16.93l18.072,4.623c0.633,0.162,1.266,0.239,1.89,0.239c3.39,0,6.483-2.285,7.362-5.721
			c1.04-4.069-1.414-8.21-5.482-9.252l-16.379-4.19c0.287-1.851,0.438-3.748,0.438-5.679c0-3.949-0.626-7.753-1.779-11.322
			l17.721-4.534c4.069-1.041,6.523-5.183,5.482-9.252c-1.041-4.069-5.182-6.519-9.252-5.482l-21.94,5.613
			c-5.418-5.88-12.717-10.003-20.933-11.401c0.027-2.092-0.396-4.199-1.308-6.16c-1.936-4.161-5.779-7.084-10.193-7.939
			c0.238-7.035,0.597-13.878,1.041-20.569c1.213,2.151,2.988,4.006,5.239,5.302c11.328,6.523,22.367,9.831,32.811,9.831
			c33.7,0,46.87-32.693,47.414-34.086c2.562-6.558-0.137-14.099-6.278-17.541c-11.223-6.291-22.153-9.481-32.487-9.481
			c-26.48,0-40.33,19.872-45.349,29.136c7.252-76.934,27.095-128.687,38.827-153.537c60.028,32.25,101.043,105.998,101.043,171.706
			c0,99.027-82.818,143.354-164.896,143.354c-51.395,0-96.255-16.456-126.315-46.338c-2.979-2.96-7.793-2.945-10.754,0.032
			c-2.961,2.979-2.946,7.794,0.032,10.754c12.791,12.715,27.966,23.2,44.982,31.281c4.031,24.337,27.683,44.654,61.776,52.587
			c2.086,14.849,14.867,26.313,30.281,26.313c15.414,0,28.194-11.464,30.281-26.312c34.123-7.943,57.794-28.312,61.788-52.673
			c12.706-6.018,24.387-13.356,34.756-21.935c34.856-28.843,53.281-69.323,53.281-117.063c0-6.995-0.408-14.029-1.183-21.065
			c59.056-55.411,75.892-126.354,76.59-129.395C512.695,93.155,511.709,87.668,508.803,83.251z M88.88,177.993
			c-26.254-31.85-37.817-57.45-38.898-59.91c-1.032-2.995-0.785-4.355-0.658-4.558c0.077-0.124,0.954-0.793,3.294-1.093
			c0.03-0.002,0.062-0.003,0.094-0.005c5.566-0.312,33.048-1.228,67.142,8.327C106.745,138.366,96.297,157.78,88.88,177.993z
			 M130.153,107.932c-38.172-11.83-69.395-11.193-78.298-10.69l-0.746,0.053c-8.533,0.973-12.699,4.987-14.691,8.184
			c-2.986,4.791-3.216,10.822-0.684,17.929l0.161,0.413c0.14,0.332,14.107,32.816,47.5,71.218c-1.305,4.714-2.442,9.453-3.413,14.21
			C30.341,158.311,15.938,97.623,15.313,94.899c-0.259-1.124-0.043-2.324,0.591-3.287c0.642-0.974,1.638-1.631,2.785-1.844
			c2.419-0.443,57.058-10.055,118.889,9.999C135.057,102.399,132.582,105.123,130.153,107.932z M182.439,245.144
			c-13.139-5.188-19.552-17.958-21.065-21.376c7.418-4.049,14.482-6.37,21.065-6.945V245.144z M197.647,247.194v-28.288
			c13.141,5.158,19.549,17.728,21.065,21.101C211.295,244.169,204.23,246.573,197.647,247.194z M329.563,216.823
			c6.583,0.575,13.647,2.896,21.065,6.945c-1.514,3.42-7.927,16.189-21.065,21.376V216.823z M314.355,218.906v28.288
			c-6.583-0.621-13.648-3.025-21.065-7.187C294.804,236.636,301.212,224.064,314.355,218.906z M228.076,340.183
			c-5.719,0-10.914-2.241-14.796-5.87l5.343-1.367c4.069-1.041,6.523-5.183,5.482-9.252s-5.181-6.52-9.252-5.482l-8.386,2.145
			c-0.054-0.619-0.823-4.705,1.219-9.426l7.166,1.833c0.633,0.162,7.352,1.028,9.252-5.482c0.965-3.308-0.649-6.724-3.462-8.407
			c4.762-1.879,8.939-2.249,9.175-2.304l15.329,18.206c1.037,1.232,2.261,2.257,3.609,3.059v7.235h0.001
			C245.878,334.111,237.568,340.183,228.076,340.183z M256.001,304.057l-17.772-21.108h35.545L256.001,304.057z M282.184,296.572
			c0.236,0.056,4.444,0.398,9.229,2.273c-2.849,1.672-4.596,5.141-3.517,8.438c2.407,7.356,8.619,5.643,9.252,5.482l7.184-1.838
			c1.686,3.204,1.254,8.811,1.201,9.43l-8.386-2.145c-4.07-1.039-8.21,1.414-9.252,5.482c-1.04,4.069,1.414,8.21,5.482,9.252
			l5.343,1.367c-3.881,3.629-9.075,5.87-14.796,5.87c-9.492,0-17.804-6.072-20.68-15.111c-0.005-0.016-0.015-3.874-0.023-7.223
			c1.358-0.804,2.589-1.832,3.632-3.07L282.184,296.572z M263.426,267.741h-14.848c-3.252-98.101-26.602-163.371-42.674-197.196
			c15.724-6.458,32.537-10.084,50.098-10.084s34.374,3.625,50.098,10.084C290.028,104.37,266.677,169.64,263.426,267.741z
			 M227.451,425.212c-21.379-5.367-37.761-16.466-44.94-29.751c19.588,6.833,41.092,10.807,63.866,11.678
			C237.691,410.026,230.725,416.707,227.451,425.212z M256.001,451.542c-8.479,0-15.378-6.898-15.378-15.378
			c0-8.479,6.898-15.378,15.378-15.378c8.479,0,15.378,6.898,15.378,15.378C271.378,444.643,264.48,451.542,256.001,451.542z
			 M284.551,425.21c-3.275-8.505-10.242-15.187-18.931-18.073c22.647-0.886,44.23-4.904,63.921-11.782
			C322.388,408.682,305.975,419.829,284.551,425.21z M392.148,120.753c34.093-9.555,61.575-8.64,67.142-8.327
			c0.032,0.002,0.064,0.003,0.094,0.005c2.34,0.3,3.217,0.969,3.294,1.093c0.127,0.204,0.374,1.563-0.658,4.558
			c-1.081,2.461-12.643,28.06-38.898,59.91C415.704,157.78,405.257,138.366,392.148,120.753z"/>
	</g>
</g>
<g>
</g>
<g>
</g>
<g>
</g>
<g>
</g>
<g>
</g>
<g>
</g>
<g>
</g>
<g>
</g>
<g>
</g>
<g>
</g>
<g>
</g>
<g>
</g>
<g>
</g>
<g>
</g>
<g>
</g>
</svg>
