<?xml version="1.0" encoding="iso-8859-1"?>
<!-- Generator: Adobe Illustrator 19.0.0, SVG Export Plug-In . SVG Version: 6.00 Build 0)  -->
<svg version="1.1" id="Layer_1" xmlns="http://www.w3.org/2000/svg" xmlns:xlink="http://www.w3.org/1999/xlink" x="0px" y="0px"
	 viewBox="0 0 512.001 512.001" style="enable-background:new 0 0 512.001 512.001;" xml:space="preserve">
<g>
	<g>
		<path d="M339.725,221.823c-16.001-18.413-37.568-31.013-61.244-35.9c-0.738-3.419-2.295-7.504-5.531-10.982
			c-1.902-2.043-4.872-4.34-9.231-5.656v-63.943c6.953-3,11.835-9.918,11.835-17.959V55.131
			c7.176-5.845,11.485-14.717,11.485-24.094C287.038,13.924,273.114,0,256,0c-17.114,0-31.038,13.924-31.038,31.038
			c0,9.376,4.31,18.248,11.485,24.094v32.252c0,8.04,4.882,14.959,11.835,17.959v63.958c-4.311,1.319-7.26,3.607-9.155,5.643
			c-3.22,3.459-4.792,7.549-5.551,10.965c-30.671,6.279-57.112,25.136-73.18,52.419c-2.163,3.672-0.939,8.404,2.734,10.568
			c3.673,2.162,8.404,0.94,10.568-2.734c14.715-24.986,39.524-41.762,68.064-46.029c3.94-0.589,6.776-4.076,6.567-8.039
			c-0.032-1.151,0.292-4.767,2.162-6.698c0.42-0.435,1.698-1.757,5.51-1.757c3.906,0,5.184,1.336,5.604,1.775
			c1.832,1.912,2.116,5.491,2.072,6.624c-0.24,3.985,2.605,7.503,6.564,8.095c46.292,6.92,81.202,47.495,81.202,94.383
			s-34.909,87.463-81.202,94.383c-3.865,0.578-6.668,3.945-6.576,7.812c-0.03,3.268-1.08,8.906-7.663,8.684
			c-7.204-0.244-7.655-7.426-7.664-8.645c0.111-3.883-2.697-7.27-6.575-7.85c-35.058-5.24-65-30.378-76.28-64.041
			c-1.353-4.042-5.73-6.221-9.77-4.867c-4.042,1.354-6.221,5.728-4.867,9.77c6.437,19.21,18.06,36.313,33.611,49.46
			c14.22,12.021,31.15,20.226,49.263,23.926c2.213,11.606,10.407,15.205,14.562,16.532v1.816
			c-21.472,3.679-37.868,22.414-37.868,44.919c0,25.137,20.449,45.586,45.587,45.586c22.377,0,41.287-15.999,44.963-38.042
			c0.702-4.204-2.138-8.181-6.343-8.882c-4.204-0.708-8.181,2.14-8.882,6.343c-1.993,11.948-10.764,21.205-22.019,24.15v-20
			c2.517-2.17,4.116-5.375,4.116-8.959c0-6.536-5.299-11.835-11.835-11.835c-6.536,0-11.835,5.299-11.835,11.835
			c0,3.584,1.599,6.789,4.116,8.959v19.987c-12.897-3.419-22.432-15.188-22.432-29.144c0-16.623,13.526-30.149,30.15-30.149
			c8.753,0,17.063,3.798,22.799,10.421c2.791,3.223,7.665,3.571,10.887,0.781c3.222-2.791,3.572-7.665,0.781-10.887
			c-6.962-8.038-16.436-13.315-26.749-15.086v-1.828c4.118-1.329,12.177-4.056,14.544-16.517
			c23.762-4.855,45.414-17.475,61.463-35.945c17.51-20.149,27.153-45.965,27.153-72.691S357.236,241.973,339.725,221.823z
			 M260.115,51.128V77.66c-1.193-0.754-2.602-1.197-4.116-1.197c-1.515,0-2.924,0.443-4.116,1.197V51.129
			c0-2.73-1.443-5.259-3.795-6.647c-4.741-2.8-7.688-7.951-7.688-13.444c0-8.602,6.999-15.601,15.601-15.601
			c8.602,0,15.601,6.999,15.601,15.601c0,5.493-2.946,10.644-7.69,13.443C261.559,45.87,260.115,48.398,260.115,51.128z"/>
	</g>
</g>
<g>
	<g>
		<path d="M156.672,265.51c-4.173-0.879-8.267,1.782-9.149,5.954c-1.593,7.535-2.401,15.289-2.401,23.048
			c0,4.264,3.455,7.718,7.718,7.718s7.718-3.454,7.718-7.717c0-6.687,0.696-13.367,2.068-19.855
			C163.508,270.488,160.843,266.393,156.672,265.51z"/>
	</g>
</g>
<g>
	<g>
		<path d="M256,209.365c-46.952,0-85.15,38.198-85.15,85.15c0,46.951,38.198,85.149,85.15,85.149
			c46.952,0,85.15-38.198,85.15-85.149C341.15,247.563,302.952,209.365,256,209.365z M256,364.227
			c-38.439,0-69.713-31.273-69.713-69.712s31.274-69.713,69.713-69.713c38.44,0,69.713,31.274,69.713,69.713
			S294.439,364.227,256,364.227z"/>
	</g>
</g>
<g>
	<g>
		<path d="M293.874,243.497c-3.014-3.013-7.901-3.013-10.916,0l-71.523,71.523c-3.014,3.014-3.014,7.901,0,10.916
			c1.508,1.507,3.484,2.26,5.458,2.26c1.975,0,3.951-0.753,5.457-2.26l71.523-71.523
			C296.889,251.398,296.889,246.512,293.874,243.497z"/>
	</g>
</g>
<g>
	<g>
		<path d="M263.825,322.192c-3.012-3.013-7.899-3.014-10.915,0.001l-10.977,10.977c-3.014,3.013-3.014,7.901,0.001,10.915
			c1.507,1.507,3.482,2.26,5.457,2.26c1.975,0,3.951-0.754,5.457-2.261l10.977-10.977
			C266.841,330.093,266.841,325.206,263.825,322.192z"/>
	</g>
</g>
<g>
	<g>
		<path d="M296.962,289.059c-3.014-3.014-7.901-3.015-10.915-0.001l-13.068,13.067c-3.015,3.013-3.015,7.9-0.001,10.915
			c1.508,1.508,3.482,2.261,5.458,2.261c1.975,0,3.951-0.754,5.456-2.26l13.068-13.067
			C299.976,296.96,299.976,292.073,296.962,289.059z"/>
	</g>
</g>
<g>
</g>
<g>
</g>
<g>
</g>
<g>
</g>
<g>
</g>
<g>
</g>
<g>
</g>
<g>
</g>
<g>
</g>
<g>
</g>
<g>
</g>
<g>
</g>
<g>
</g>
<g>
</g>
<g>
</g>
</svg>
