<?xml version="1.0" encoding="iso-8859-1"?>
<!-- Generator: Adobe Illustrator 19.0.0, SVG Export Plug-In . SVG Version: 6.00 Build 0)  -->
<svg version="1.1" id="Layer_1" xmlns="http://www.w3.org/2000/svg" xmlns:xlink="http://www.w3.org/1999/xlink" x="0px" y="0px"
	 viewBox="0 0 512 512" style="enable-background:new 0 0 512 512;" xml:space="preserve">
<g>
	<g>
		<path d="M81.998,333.816c-2.835-2.113-5.71-4.326-8.548-6.577c-3.29-2.611-8.073-2.059-10.683,1.231
			c-2.611,3.29-2.059,8.072,1.231,10.683c2.955,2.345,5.953,4.65,8.909,6.854c1.365,1.017,7.015,2.927,10.641-1.551
			C86.193,341.192,85.365,336.325,81.998,333.816z"/>
	</g>
</g>
<g>
	<g>
		<path d="M347.289,290.719c-1.794-1.78-44.559-43.616-98.788-43.616c-12.181,0-24.103,2.123-35.436,6.311
			c-6.043,2.233-10.406,7.575-11.386,13.943c-0.98,6.368,1.574,12.775,6.667,16.722l32.441,25.145
			c2.647,2.053,5.81,3.311,9.148,3.636l83.135,8.109c0.571,0.056,1.152,0.084,1.724,0.084c6.839,0,13.139-4.001,16.053-10.194
			C354.029,304.085,352.599,295.992,347.289,290.719z M337.084,304.389c-0.451,0.961-1.494,1.547-2.54,1.445l-83.134-8.109
			c-0.477-0.047-0.928-0.226-1.307-0.519l-32.442-25.146c-0.728-0.564-1.093-1.479-0.953-2.389s0.763-1.673,1.627-1.992
			c9.641-3.563,19.79-5.368,30.165-5.368c48.033,0,86.462,37.6,88.074,39.201C337.335,302.266,337.539,303.422,337.084,304.389z"/>
	</g>
</g>
<g>
	<g>
		<path d="M34.643,170.8c-4.199,0-7.604,3.404-7.604,7.604s3.404,7.604,7.604,7.604c3.634,0,6.59,2.956,6.59,6.59
			c0,3.634-2.956,6.59-6.59,6.59c-3.634,0-6.59-2.956-6.59-6.59c0-4.199-3.404-7.604-7.604-7.604s-7.604,3.404-7.604,7.604
			c0,12.019,9.778,21.797,21.797,21.797s21.797-9.778,21.797-21.797C56.44,180.578,46.661,170.8,34.643,170.8z"/>
	</g>
</g>
<g>
	<g>
		<path d="M65.53,152.469c-1.409-1.419-3.376-2.23-5.373-2.23c-1.997,0-3.964,0.811-5.373,2.23c-1.419,1.409-2.23,3.376-2.23,5.373
			c0,1.997,0.811,3.964,2.23,5.373c1.41,1.419,3.377,2.23,5.373,2.23c1.997,0,3.964-0.811,5.373-2.23
			c1.419-1.409,2.23-3.366,2.23-5.373S66.949,153.878,65.53,152.469z"/>
	</g>
</g>
<g>
	<g>
		<path d="M90.56,219.135c-16.764,0-30.403,13.639-30.403,30.403c0,16.765,13.638,30.404,30.403,30.404
			c16.764,0,30.403-13.639,30.403-30.404C120.963,232.774,107.324,219.135,90.56,219.135z M90.56,264.735
			c-8.378,0-15.195-6.817-15.195-15.196c0-8.378,6.816-15.195,15.195-15.195c8.378,0,15.195,6.816,15.195,15.195
			C105.755,257.918,98.938,264.735,90.56,264.735z"/>
	</g>
</g>
<g>
	<g>
		<path d="M95.933,244.165c-1.409-1.419-3.376-2.23-5.373-2.23s-3.964,0.811-5.373,2.23c-1.419,1.409-2.23,3.376-2.23,5.373
			c0,1.997,0.811,3.964,2.23,5.373c1.409,1.418,3.376,2.23,5.373,2.23s3.964-0.811,5.373-2.23c1.419-1.409,2.23-3.366,2.23-5.373
			C98.164,247.531,97.353,245.574,95.933,244.165z"/>
	</g>
</g>
<g>
	<g>
		<path d="M508.215,344.332l-42.735-70.567l42.736-70.568c6.326-10.45,4.458-24.106-4.446-32.473
			c-8.904-8.365-22.651-9.381-32.685-2.414l-18.681,12.967c-3.45,2.395-4.306,7.132-1.911,10.582
			c2.395,3.45,7.133,4.306,10.582,1.91l18.682-12.968c4.175-2.898,9.896-2.475,13.601,1.005c3.703,3.482,4.482,9.165,1.849,13.512
			l-45.12,74.507c-1.466,2.421-1.466,5.456,0,7.878l45.119,74.506c2.634,4.348,1.856,10.032-1.847,13.512
			c-3.002,2.819-6.541,5.202-13.803,0.866l-72.644-50.426c10.964-11.539,17.22-19.941,18.199-21.281
			c12.522-17.152,10.456-41.223-4.806-55.991c-3.423-3.313-6.859-6.528-10.304-9.668l29.909-20.761
			c3.45-2.395,4.306-7.132,1.911-10.582c-2.394-3.449-7.132-4.305-10.582-1.91l-32.998,22.905c-2.932-2.486-5.871-4.909-8.816-7.269
			c-40.52-56.143-87.931-88.551-120.65-105.866c-36.616-19.378-63.576-24.931-65.481-24.949
			c-9.475-0.093-18.279,4.577-23.517,12.487l-47.754,72.127c-8.157,3.597-16.259,7.68-24.298,12.277
			c-37.972,21.716-64.361,49.031-76.954,63.715c-2.619-1.045-5.43-1.595-8.3-1.595C10.082,239.801,0,249.882,0,262.274
			c0,4.107,1.108,8.059,3.152,11.49C1.108,277.196,0,281.148,0,285.255c0,12.392,10.082,22.474,22.474,22.474
			c1.859,0,3.711-0.234,5.505-0.689c5.028,4.98,10.099,9.794,15.123,14.351c3.111,2.821,7.92,2.587,10.74-0.523
			c2.82-3.11,2.587-7.919-0.523-10.74c-6.003-5.445-12.082-11.273-18.065-17.319c-2.425-2.45-6.195-2.962-9.186-1.248
			c-1.114,0.639-2.324,0.963-3.594,0.963c-4.007,0-7.266-3.259-7.266-7.266c0-2.181,0.969-4.228,2.658-5.618
			c1.757-1.444,2.775-3.599,2.775-5.873c0-2.274-1.018-4.429-2.775-5.873c-1.689-1.389-2.658-3.437-2.658-5.618
			c0-4.007,3.259-7.266,7.266-7.266c1.791,0,3.519,0.672,4.865,1.892c1.55,1.404,3.612,2.112,5.695,1.947
			c2.085-0.162,4.012-1.176,5.326-2.802c9.417-11.656,42.106-48.95,92.273-73.107c25.428,21.997,41.372,54.494,41.372,90.702
			c0,35.839-15.975,68.1-41.011,90.093c-9.425-4.51-18.787-9.679-28.042-15.511c-3.551-2.239-8.247-1.172-10.486,2.38
			c-2.239,3.552-1.131,8.184,2.38,10.486c41.515,27.215,86.022,35.737,91.974,36.814c13.011,10.675,47.977,33.307,110.369,33.309
			c12.846,0,19.195-4.958,22.258-9.116c4.166-5.656,4.878-13.035,2.114-21.934c-0.593-1.909-3.329-10.234-5.992-18.307
			c34.4-15.303,61.674-36.894,80.424-54.764c0,0,75.35,52.298,75.481,52.379c4.193,2.548,18.966,9.339,32.299-2.666
			C512.851,368.63,514.544,354.783,508.215,344.332z M315.724,155.187c5.43,4.432,10.895,9.181,16.357,14.26l-2.289,3.414
			c-6.603-3.314-13.228-6.321-19.871-9.019L315.724,155.187z M288.364,135.083c5.026,3.309,10.148,6.885,15.332,10.735
			l-8.432,12.575c-5.112-1.721-17.681-5.216-18.841-5.504L288.364,135.083z M275.465,127.016l-15.064,22.462
			c-6.931-1.225-13.841-2.117-20.729-2.688l19.374-28.89C264.304,120.62,269.796,123.649,275.465,127.016z M245.241,111.183
			l-23.377,34.858c-7.827-0.005-15.62,0.415-23.377,1.261l29.146-43.463C232.886,105.824,238.8,108.247,245.241,111.183z
			 M192.458,101.672c2.275-3.436,6.023-5.525,10.115-5.669c1.159,0.252,4.72,1.085,10.169,2.741l-34.745,51.811
			c-7.252,1.51-14.469,3.39-21.647,5.655L192.458,101.672z M307.203,413.078c-12.045,10.015-68.41-4.015-85.487-11.684
			c1.338,0.025,46.442-0.162,79.735-13.789C301.45,387.604,313.526,407.82,307.203,413.078z M172.583,379.171
			c-8.787-2.32-17.575-5.235-26.329-8.73c25.205-24.564,40.958-58.93,40.958-96.802c0-38.233-15.863-72.739-41.464-97.326
			c36.26-14.391,80.278-21.031,130.274-7.832c45.32,11.965,90.306,39.33,133.708,81.336c9.839,9.521,11.171,25.038,3.1,36.095
			C408.913,291.276,315.255,416.835,172.583,379.171z"/>
	</g>
</g>
<g>
</g>
<g>
</g>
<g>
</g>
<g>
</g>
<g>
</g>
<g>
</g>
<g>
</g>
<g>
</g>
<g>
</g>
<g>
</g>
<g>
</g>
<g>
</g>
<g>
</g>
<g>
</g>
<g>
</g>
</svg>
