<?xml version="1.0" encoding="iso-8859-1"?>
<!-- Generator: Adobe Illustrator 19.0.0, SVG Export Plug-In . SVG Version: 6.00 Build 0)  -->
<svg version="1.1" id="Layer_1" xmlns="http://www.w3.org/2000/svg" xmlns:xlink="http://www.w3.org/1999/xlink" x="0px" y="0px"
	 viewBox="0 0 512.001 512.001" style="enable-background:new 0 0 512.001 512.001;" xml:space="preserve">
<g>
	<g>
		<path d="M274.756,421.851h-26.36c-4.199,0-7.604,3.404-7.604,7.604s3.405,7.604,7.604,7.604h26.36c4.2,0,7.604-3.404,7.604-7.604
			S278.957,421.851,274.756,421.851z"/>
	</g>
</g>
<g>
	<g>
		<path d="M501.155,422.765v-18.11c0-12.578-10.234-22.812-22.812-22.812h-14.768L414.36,89.314
			c-1.611-9.576-9.36-16.703-18.831-17.674c-1.455-11.186-11.038-19.855-22.614-19.855h-63.536c-11.575,0-21.159,8.67-22.614,19.855
			c-9.47,0.969-17.218,8.097-18.831,17.674l-49.214,292.529h-4.1c-1.742-11.435-9.921-20.763-20.95-23.985
			c-3.987-11.901-15.275-20.324-28.221-20.324c-7.351,0-14.268,2.684-19.601,7.359c-5.333-4.674-12.25-7.359-19.601-7.359
			c-7.351,0-14.269,2.685-19.601,7.359c-5.333-4.673-12.251-7.359-19.601-7.359c-13,0-24.315,8.478-28.262,20.448
			c-10.813,3.34-18.838,12.613-20.57,23.861H33.66c-12.579,0-22.812,10.234-22.812,22.812v18.11C4.542,424.967,0,430.957,0,438.003
			v6.059c0,8.907,7.246,16.154,16.153,16.154h479.695c8.907,0,16.153-7.246,16.153-16.154v-6.059
			C512,430.958,507.459,424.967,501.155,422.765z M309.378,66.993h63.536c3.096,0,5.762,1.862,6.947,4.525h-77.429
			C303.616,68.855,306.281,66.993,309.378,66.993z M282.93,91.838c0.499-2.962,3.041-5.112,6.043-5.112h104.347
			c3.003,0,5.545,2.149,6.043,5.111l48.791,290.007h-15.61c-4.699-27.791-23.061-136.33-23.251-136.782
			c-3.071-11.34-12.334-19.61-23.672-21.539c-5.509-8.105-14.744-13.059-24.624-13.059c-7.266,0-14.156,2.685-19.477,7.285
			c-5.339-4.617-12.237-7.285-19.484-7.285c-9.856,0-19.008,4.944-24.504,12.903c-11.952,1.549-21.813,10.08-24.919,21.936
			c-0.149,0.399-18.677,111.238-22.905,136.54h-15.565L282.93,91.838z M321.157,250.28c2.837,0,5.437-1.58,6.746-4.095
			c2.53-4.865,7.5-7.886,12.97-7.886c5.537,0,10.534,3.074,13.04,8.025c1.295,2.556,3.917,4.167,6.783,4.167
			c2.865,0,5.488-1.611,6.783-4.167c2.508-4.95,7.505-8.025,13.041-8.025c6.757,0,12.746,4.775,14.242,11.353
			c0.054,0.236,22.358,132.191,22.358,132.191H265.121c0,0,22.046-132.045,22.08-132.191c1.494-6.579,7.483-11.353,14.241-11.353
			c5.471,0,10.44,3.021,12.969,7.886C315.719,248.7,318.32,250.28,321.157,250.28z M316.113,226.943
			c1.834-0.82,3.845-1.27,5.92-1.27c1.698,0,3.356,0.304,4.911,0.865c-2.075,1.096-4.02,2.43-5.786,3.991
			C319.604,229.154,317.91,227.958,316.113,226.943z M355.359,226.824c1.757-0.742,3.666-1.153,5.636-1.153
			c1.84,0,3.633,0.358,5.298,1.012c-2.006,1.088-3.885,2.404-5.596,3.93C359.061,229.153,357.27,227.885,355.359,226.824z
			 M77.28,375.533c1.45,1.291,3.256,1.925,5.055,1.925c2.094,0,4.179-0.861,5.681-2.547c2.793-3.137,2.515-7.943-0.62-10.736
			c-3.314-2.952-7.214-5.092-11.401-6.32c2.688-3.138,6.667-5.114,11.048-5.114c5.411,0,10.345,2.979,12.877,7.775
			c1.316,2.494,3.905,4.054,6.725,4.054c2.82,0,5.408-1.56,6.725-4.054c2.532-4.796,7.465-7.775,12.877-7.775
			c5.411,0,10.345,2.979,12.876,7.775c1.316,2.494,3.904,4.054,6.725,4.054c2.82,0,5.408-1.56,6.725-4.054
			c2.532-4.796,7.466-7.775,12.877-7.775c7.266,0,13.465,5.424,14.417,12.615c0.464,3.503,3.28,6.226,6.798,6.569
			c5.888,0.577,10.621,4.569,12.369,9.916H53.803C58.804,369.227,74.616,373.161,77.28,375.533z M495.847,445.007H16.153
			c-0.503,0-0.503-7.949,0-7.949h201.32c4.199,0,7.604-3.404,7.604-7.604s-3.405-7.604-7.604-7.604H26.054v-17.196
			c0-4.193,3.411-7.604,7.604-7.604h444.685c4.193,0,7.604,3.411,7.604,7.604v17.196H308.721c-4.2,0-7.604,3.404-7.604,7.604
			s3.404,7.604,7.604,7.604h187.126C496.35,437.058,496.35,445.007,495.847,445.007z"/>
	</g>
</g>
<g>
	<g>
		<path d="M341.145,337.534c-10.761,0-19.517,8.756-19.517,19.517c0,10.761,8.756,19.517,19.517,19.517
			c10.761,0,19.517-8.756,19.517-19.517C360.662,346.289,351.906,337.534,341.145,337.534z M341.145,361.359
			c-2.376,0-4.309-1.932-4.309-4.309c0-2.377,1.933-4.309,4.309-4.309c2.377,0,4.309,1.932,4.309,4.309
			C345.454,359.427,343.522,361.359,341.145,361.359z"/>
	</g>
</g>
<g>
	<g>
		<path d="M372.472,297.374c-4.2,0-7.604,3.404-7.604,7.604s3.404,7.604,7.604,7.604c2.376,0,4.309,1.932,4.309,4.309
			s-1.932,4.309-4.309,4.309c-1.903,0-3.605-1.272-4.138-3.094c-1.178-4.03-5.396-6.345-9.433-5.164
			c-4.03,1.179-6.343,5.403-5.164,9.433c2.416,8.262,10.119,14.033,18.734,14.033c10.761,0,19.517-8.756,19.517-19.517
			C391.989,306.129,383.234,297.374,372.472,297.374z"/>
	</g>
</g>
<g>
	<g>
		<path d="M341.145,258.259c-10.761,0-19.517,8.756-19.517,19.517c0,10.761,8.756,19.517,19.517,19.517
			c10.761,0,19.517-8.756,19.517-19.517C360.662,267.015,351.906,258.259,341.145,258.259z M341.145,282.085
			c-2.376,0-4.309-1.932-4.309-4.309c0-2.376,1.933-4.309,4.309-4.309c2.377,0,4.309,1.932,4.309,4.309
			C345.454,280.152,343.522,282.085,341.145,282.085z"/>
	</g>
</g>
<g>
	<g>
		<path d="M396.445,166.164l-9.739-57.889c-0.699-4.142-4.621-6.932-8.761-6.237c-4.142,0.698-6.934,4.619-6.237,8.761l9.739,57.889
			c0.626,3.715,3.845,6.344,7.49,6.344c0.419,0,0.844-0.034,1.27-0.106C394.349,174.227,397.142,170.305,396.445,166.164z"/>
	</g>
</g>
<g>
	<g>
		<path d="M403.842,210.134l-3.402-20.22c-0.699-4.142-4.621-6.932-8.761-6.237c-4.142,0.698-6.934,4.619-6.237,8.761l3.402,20.22
			c0.626,3.715,3.845,6.344,7.49,6.344c0.419,0,0.844-0.034,1.27-0.106C401.747,218.197,404.539,214.276,403.842,210.134z"/>
	</g>
</g>
<g>
</g>
<g>
</g>
<g>
</g>
<g>
</g>
<g>
</g>
<g>
</g>
<g>
</g>
<g>
</g>
<g>
</g>
<g>
</g>
<g>
</g>
<g>
</g>
<g>
</g>
<g>
</g>
<g>
</g>
</svg>
