<?xml version="1.0" encoding="iso-8859-1"?>
<!-- Generator: Adobe Illustrator 19.0.0, SVG Export Plug-In . SVG Version: 6.00 Build 0)  -->
<svg version="1.1" id="Layer_1" xmlns="http://www.w3.org/2000/svg" xmlns:xlink="http://www.w3.org/1999/xlink" x="0px" y="0px"
	 viewBox="0 0 511.999 511.999" style="enable-background:new 0 0 511.999 511.999;" xml:space="preserve">
<g>
	<g>
		<path d="M314.68,256.471h-27.155v-27.155c0-9.224-7.505-16.729-16.729-16.729h-29.593c-9.224,0-16.729,7.505-16.729,16.729v27.155
			h-27.155c-9.224,0-16.729,7.505-16.729,16.729v29.593c0,9.225,7.505,16.729,16.729,16.729h27.155v27.156
			c0,9.224,7.505,16.729,16.729,16.729h29.593c9.224,0,16.729-7.506,16.729-16.729v-27.156h27.155
			c9.224,0,16.729-7.504,16.729-16.729V273.2C331.409,263.976,323.904,256.471,314.68,256.471z M314.68,304.314h-34.759
			c-4.199,0-7.604,3.404-7.604,7.604v34.76c0,0.824-32.634,0.824-32.634,0v-34.76c0-4.2-3.405-7.604-7.604-7.604h-34.759
			c-0.824,0-0.824-32.634,0-32.634h34.759c4.199,0,7.604-3.404,7.604-7.604v-34.759c0-0.824,32.634-0.824,32.634,0v34.759
			c0,4.2,3.405,7.604,7.604,7.604h34.759C315.504,271.679,315.504,304.314,314.68,304.314z"/>
	</g>
</g>
<g>
	<g>
		<path d="M115.649,143.148c-4.199,0-7.604,3.404-7.604,7.604v26.361c0,4.2,3.405,7.604,7.604,7.604
			c4.199,0,7.604-3.404,7.604-7.604v-26.361C123.253,146.552,119.848,143.148,115.649,143.148z"/>
	</g>
</g>
<g>
	<g>
		<path d="M256,180.021c-59.538,0-107.976,48.437-107.976,107.976c0,59.539,48.438,107.976,107.976,107.976
			c59.538,0,107.976-48.438,107.976-107.976C363.976,228.458,315.538,180.021,256,180.021z M256,380.766
			c-51.152,0-92.768-41.616-92.768-92.768c0-51.152,41.616-92.768,92.768-92.768s92.768,41.616,92.768,92.768
			C348.768,339.15,307.152,380.766,256,380.766z"/>
	</g>
</g>
<g>
	<g>
		<path d="M374.649,63.993h-43.614V27.755C331.034,12.451,318.583,0,303.279,0H208.72c-15.304,0-27.755,12.451-27.755,27.755v36.237
			H137.35c-16.159,0-29.306,13.147-29.306,29.306v23.997c0,4.2,3.405,7.604,7.604,7.604c4.199,0,7.604-3.404,7.604-7.604V93.299
			c0-7.773,6.324-14.098,14.098-14.098h237.298c7.773,0,14.098,6.324,14.098,14.098v349.447H123.253V211.588
			c0-4.2-3.405-7.604-7.604-7.604c-4.199,0-7.604,3.404-7.604,7.604v271.106c0,16.159,13.147,29.306,29.306,29.306h237.298
			c16.159,0,29.306-13.147,29.306-29.306V93.299C403.954,77.14,390.808,63.993,374.649,63.993z M209.585,63.993h-13.412V27.755
			c0-6.919,5.629-12.548,12.548-12.548h0.865V63.993z M248.396,63.993h-23.603V15.208h23.603V63.993z M287.206,63.993h-23.603
			V15.208h23.603V63.993z M315.826,63.993h-13.412V15.208h0.865c6.919,0,12.548,5.629,12.548,12.548V63.993z M388.746,482.694
			c0,7.773-6.325,14.098-14.098,14.098H137.35c-7.773,0-14.098-6.325-14.098-14.098v-24.74h265.494V482.694z"/>
	</g>
</g>
<g>
	<g>
		<path d="M360.865,90.353c-4.199,0-7.604,3.404-7.604,7.604v62.433c0,4.2,3.405,7.604,7.604,7.604s7.604-3.404,7.604-7.604V97.957
			C368.469,93.757,365.065,90.353,360.865,90.353z"/>
	</g>
</g>
<g>
	<g>
		<path d="M360.865,182.518c-4.199,0-7.604,3.404-7.604,7.604v27.717c0,4.2,3.405,7.604,7.604,7.604s7.604-3.404,7.604-7.604
			v-27.717C368.469,185.922,365.065,182.518,360.865,182.518z"/>
	</g>
</g>
<g>
</g>
<g>
</g>
<g>
</g>
<g>
</g>
<g>
</g>
<g>
</g>
<g>
</g>
<g>
</g>
<g>
</g>
<g>
</g>
<g>
</g>
<g>
</g>
<g>
</g>
<g>
</g>
<g>
</g>
</svg>
