<?xml version="1.0" encoding="iso-8859-1"?>
<!-- Generator: Adobe Illustrator 19.0.0, SVG Export Plug-In . SVG Version: 6.00 Build 0)  -->
<svg version="1.1" id="Layer_1" xmlns="http://www.w3.org/2000/svg" xmlns:xlink="http://www.w3.org/1999/xlink" x="0px" y="0px"
	 viewBox="0 0 512.001 512.001" style="enable-background:new 0 0 512.001 512.001;" xml:space="preserve">
<g>
	<g>
		<path d="M505.358,148.186L464.1,106.927c3.378-5.239,5.196-11.353,5.196-17.761c0-8.784-3.402-17.022-9.579-23.199l-31.688-31.688
			c-6.177-6.177-14.416-9.579-23.199-9.579c-8.783,0-17.022,3.402-23.198,9.579l-4.18,4.18c-14.279-5.293-31.801-4.353-50.018,1.972
			l-20.199-20.2c-2.957-2.958-7.751-2.957-10.707,0c-2.957,2.957-2.957,7.751,0,10.707l15.867,15.867
			c-7.995,3.999-15.984,8.963-23.763,14.834L267.132,40.14c-2.957-2.957-7.751-2.957-10.707,0c-2.957,2.957-2.957,7.751,0,10.707
			l20.477,20.477c-7.517,7.55-15.174,15.293-18.976,19.988L237.12,70.505c-2.957-2.957-7.751-2.957-10.707,0
			c-2.957,2.957-2.957,7.751,0,10.707l22.436,22.436c-5.318,7.958-9.787,16.155-13.218,24.344l-18.075-18.074
			c-2.957-2.957-7.751-2.957-10.707,0c-2.957,2.957-2.957,7.751,0,10.707l23.403,23.402c-3.821,15.216-3.595,29.373,0.665,40.967
			l-6.107,6.107c-6.177,6.177-9.579,14.416-9.579,23.199c0,3.76,0.628,7.42,1.826,10.861L83.811,358.342
			c-31.58,20.026-62.563,44.654-69.366,51.458C5.13,419.114,0,431.498,0,444.671c0,13.173,5.13,25.558,14.445,34.872
			c9.315,9.315,21.699,14.445,34.872,14.445s25.558-5.13,34.872-14.445c8.152-8.152,30.876-37.125,50.642-68.188
			c0.242-0.382,0.476-0.753,0.715-1.131l118-117.999c2.957-2.957,2.957-7.751,0-10.707c-2.956-2.957-7.75-2.957-10.707,0
			l-23.295,24.541l-31.173-30.798l37.1-37.1l30.362,30.363c0,0,7.568,7.029,12.993,8.417c3.511,1.227,7.19,1.84,10.868,1.84
			c6.188,0,12.375-1.741,17.761-5.211l41.258,41.258c4.428,4.428,10.244,6.643,16.061,6.643s11.633-2.214,16.061-6.643
			l134.521-134.523C514.215,171.452,514.215,157.041,505.358,148.186z M120.372,405.855c-18.076,28.046-39.493,55.585-46.89,62.982
			c-6.455,6.455-15.037,10.009-24.166,10.009s-17.71-3.554-24.166-10.009c-13.324-13.325-13.324-35.006,0-48.33
			c6.519-6.519,29.943-25.228,57.169-43.094c59.936-39.33,65.586-31.672,65.854-31.603
			C150.167,347.844,149.965,359.942,120.372,405.855z M209.066,317.098l-52.573,55.383c10.547-23.712,7.344-32.556,2.456-37.443
			c-3.004-3.004-7.164-4.528-12.365-4.528c-4.768,0-10.654,1.398-17.268,3.819l0.006-0.02l48.341-48.341L209.066,317.098z
			 M292.187,258.48c-6.888,6.888-18.096,6.888-24.984,0l-31.688-31.688c-3.317-3.317-5.144-7.754-5.144-12.492
			c0-4.739,1.827-9.174,5.144-12.493l46.081-46.081c2.957-2.957,2.957-7.751,0-10.707c-2.957-2.957-7.751-2.957-10.707,0
			l-27.619,27.619c-3.82-23.52,10.823-57.431,37.608-84.215c15.636-15.636,34.029-27.611,51.794-33.719
			c11.965-4.114,23.107-5.406,32.419-3.888l-67.45,67.45c-2.957,2.957-2.957,7.751,0,10.707c2.957,2.957,7.751,2.957,10.707,0
			l83.99-83.99c6.888-6.888,18.095-6.889,24.984,0l31.688,31.688c6.888,6.888,6.888,18.096,0,24.984L292.187,258.48z
			 M360.129,304.121c-1.418,1.418-3.319,2.199-5.353,2.199s-3.935-0.78-5.353-2.199l-40.731-40.731l15.244-15.244l46.247,45.92
			L360.129,304.121z M380.89,283.36l-46.247-45.92l15.376-15.376l46.247,45.92L380.89,283.36z M406.975,257.276l-46.247-45.92
			l15.376-15.376l46.247,45.921L406.975,257.276z M433.059,231.192l-46.247-45.921l15.376-15.376l46.247,45.921L433.059,231.192z
			 M459.142,205.109l-46.247-45.921l15.376-15.376l46.247,45.92L459.142,205.109z M494.651,169.6l-9.425,9.425l-46.248-45.92
			l14.942-14.942l40.731,40.73c1.418,1.418,2.199,3.319,2.199,5.353C496.848,166.281,496.069,168.182,494.651,169.6z"/>
	</g>
</g>
<g>
</g>
<g>
</g>
<g>
</g>
<g>
</g>
<g>
</g>
<g>
</g>
<g>
</g>
<g>
</g>
<g>
</g>
<g>
</g>
<g>
</g>
<g>
</g>
<g>
</g>
<g>
</g>
<g>
</g>
</svg>
