<?xml version="1.0" encoding="iso-8859-1"?>
<!-- Generator: Adobe Illustrator 19.0.0, SVG Export Plug-In . SVG Version: 6.00 Build 0)  -->
<svg version="1.1" id="Layer_1" xmlns="http://www.w3.org/2000/svg" xmlns:xlink="http://www.w3.org/1999/xlink" x="0px" y="0px"
	 viewBox="0 0 511.999 511.999" style="enable-background:new 0 0 511.999 511.999;" xml:space="preserve">
<g>
	<g>
		<path d="M343.33,203.723c-3.324-2.549-8.087-1.92-10.637,1.405c-2.952,3.851-5.564,8.126-7.764,12.706
			c-1.814,3.777-0.222,8.31,3.555,10.124c1.059,0.509,2.178,0.75,3.28,0.75c2.825,0,5.539-1.587,6.845-4.304
			c1.749-3.641,3.811-7.02,6.128-10.043C347.286,211.035,346.657,206.272,343.33,203.723z"/>
	</g>
</g>
<g>
	<g>
		<path d="M326.439,236.493c-4.003-1.243-8.254,0.994-9.496,4.995c-4.185,13.471-9.38,27.196-14.254,37.657
			c-1.769,3.799-0.124,8.313,3.674,10.082c1.036,0.484,2.125,0.712,3.199,0.712c2.859,0,5.596-1.624,6.884-4.385
			c5.147-11.051,10.611-25.472,14.988-39.563C332.678,241.988,330.441,237.736,326.439,236.493z"/>
	</g>
</g>
<g>
	<g>
		<path d="M385.201,87.278c-17.433-8.155-35.936-12.645-52.1-12.645c-21.072,0-36.718,7.609-42.924,20.879
			c-5.783,12.365-2.704,27.553,8.671,42.768c10.354,13.85,26.662,26.438,45.919,35.444c17.434,8.155,35.937,12.645,52.1,12.645
			c21.072,0,36.717-7.609,42.924-20.879C451.128,141.254,427.149,106.899,385.201,87.278z M426.046,159.062
			c-3.605,7.712-14.242,12.133-29.178,12.133c-13.988,0-30.207-3.984-45.671-11.216c-17.035-7.968-31.31-18.901-40.195-30.786
			c-7.75-10.368-10.331-20.3-7.078-27.253c3.606-7.712,14.242-12.134,29.178-12.134c13.989,0,30.208,3.983,45.671,11.215
			c17.035,7.968,31.31,18.901,40.195,30.787C426.717,142.176,429.298,152.11,426.046,159.062z"/>
	</g>
</g>
<g>
	<g>
		<path d="M264.465,159.8c-41.792-36.164-105.215-31.589-141.381,10.205c-2.743,3.168-2.397,7.96,0.772,10.702
			c3.17,2.742,7.961,2.397,10.702-0.773c30.693-35.465,84.513-39.35,119.978-8.66c35.466,30.69,39.35,84.512,8.662,119.977
			c-30.692,35.466-84.514,39.349-119.978,8.66c-25.45-22.024-35.533-57.055-25.688-89.249c1.226-4.007-1.03-8.249-5.037-9.474
			c-3.999-1.224-8.249,1.029-9.474,5.037c-11.601,37.932,0.279,79.21,30.269,105.161c18.919,16.372,42.271,24.394,65.521,24.394
			c28.109,0,56.068-11.726,75.86-34.599C310.835,259.389,306.258,195.966,264.465,159.8z"/>
	</g>
</g>
<g>
	<g>
		<path d="M214.002,25.993c-1.456-3.929-5.826-5.936-9.751-4.478l-16.654,6.17c-3.929,1.456-5.934,5.821-4.479,9.75
			c1.134,3.06,4.838,5.748,9.751,4.478l16.654-6.17C213.452,34.288,215.457,29.923,214.002,25.993z"/>
	</g>
</g>
<g>
	<g>
		<path d="M417.845,461.422h-37.43c-19.221,0-18.715,20.35-18.715,20.35H110.27c-23.041,0-38.036-6.426-44.567-19.1
			c-6.791-13.178-4.956-32.473,1.334-53.504l-0.055-0.015c0.189-0.664,2.19-8.994-7.29-9.672c-5.595-0.4-7.353,5.642-7.353,5.642
			c-8.078,27.342-8.14,48.94-0.126,64.494c9.34,18.134,28.875,27.33,58.058,27.33h251.795c1.708,8.571,9.284,15.053,18.35,15.053
			h37.43c10.32,0,18.715-8.395,18.715-18.715v-13.147C436.56,469.817,428.166,461.422,417.845,461.422z M421.386,493.285
			c0,1.919-1.622,3.541-3.541,3.541h-37.43c-1.919,0-3.541-1.622-3.541-3.541v-13.147c0-1.919,1.622-3.541,3.541-3.541h37.43
			c1.919,0,3.541,1.622,3.541,3.541V493.285z"/>
	</g>
</g>
<g>
	<g>
		<path d="M459.528,100.882c-21.509-24.763-54.141-45.692-91.884-58.931c-0.305-0.107-29.658-9.754-72.134-11.492l-5.232-14.125
			C285.482,3.393,271.053-3.233,258.113,1.56l-32.465,12.027c-3.929,1.455-5.941,5.824-4.479,9.75
			c2.446,6.568,8.881,4.801,9.751,4.478l32.465-12.027c5.099-1.888,10.776,0.723,12.664,5.817l3.188,8.604
			c-46.655,0.495-107.53,11.688-161.256,55.389l-1.769-4.777c-1.888-5.096,0.722-10.776,5.817-12.664l49.153-18.209
			c3.929-1.455,5.934-5.821,4.479-9.75c-1.456-3.929-5.821-5.936-9.751-4.478l-49.153,18.209
			c-12.941,4.794-19.569,19.223-14.775,32.163l3.763,10.159c-4.033,3.751-8.014,7.703-11.934,11.868l-11.874-3.807
			c-6.35-2.035-13.127-1.468-19.082,1.597c-5.957,3.065-10.358,8.249-12.392,14.597l-22.123,69.008
			c-4.213,13.142,3.051,27.261,16.193,31.474l1.336,0.429c-0.039,6.148,0.272,12.328,0.947,18.513
			c2.862,26.265,12.076,51.043,26.645,72.456c-12.966,17.88,3.786,34.119,3.788,34.119c-1.826,3.456-12.769,25.972-15.771,33.191
			c0,0-3.426,7.819,4.835,10.432c4.759,1.505,8.211-2.125,9.343-4.892l0.027,0.005c4.052-9.741,8.695-19.498,13.55-28.892
			c0,0,17.003,6.128,26.051-1.995c26.481,18.163,57.95,28.011,90.301,28.012c0.006,0,0.004,0,0.01,0
			c46.445,0,90.51-20.131,120.879-55.228c21.289-24.6,36.463-80.476,37.662-84.983c5.156-16.246,20.161-15.937,21.864-15.937
			c49.217,0,84.982-18.193,95.67-48.667C489.912,154.039,482.049,126.811,459.528,100.882z M46.777,205.391
			c-3.615-2.368-5.374-6.936-3.993-11.245l22.123-69.008c3.17-11.267,17.922-4.603,17.922-4.603
			c-1.929,2.326-3.841,4.707-5.733,7.148c-0.036,0.047-0.072,0.094-0.106,0.142C60.068,150.752,49.766,177.484,46.777,205.391z
			 M93.904,341.284l-7.15-6.659c-1.913-1.78-3.122-5.405-3.001-8.73c5.288,6.225,17.7,17.814,17.878,17.966
			C98.9,344.14,96.066,343.297,93.904,341.284z M467.348,172.526c-16.131,43.265-86.499,38.429-86.949,38.429
			c-3.703,0-22.584,1.289-30.771,26.731c-0.041,0.13-0.08,0.26-0.114,0.393c-0.148,0.564-15.076,56.663-34.516,79.128
			c-27.49,31.766-67.365,49.984-109.406,49.984c-0.003,0-0.006,0-0.009,0c-34.704-0.002-68.285-12.524-94.56-35.26
			c-56.719-49.084-66.324-134.73-21.875-195.022c58.654-75.66,137.535-91.544,193.386-91.544c46.892,0,79.776,10.796,80.088,10.905
			c35.296,12.38,65.643,31.758,85.451,54.563C466.865,132.471,474.066,154.509,467.348,172.526z"/>
	</g>
</g>
<g>
</g>
<g>
</g>
<g>
</g>
<g>
</g>
<g>
</g>
<g>
</g>
<g>
</g>
<g>
</g>
<g>
</g>
<g>
</g>
<g>
</g>
<g>
</g>
<g>
</g>
<g>
</g>
<g>
</g>
</svg>
