<?xml version="1.0" encoding="iso-8859-1"?>
<!-- Generator: Adobe Illustrator 19.0.0, SVG Export Plug-In . SVG Version: 6.00 Build 0)  -->
<svg version="1.1" id="Layer_1" xmlns="http://www.w3.org/2000/svg" xmlns:xlink="http://www.w3.org/1999/xlink" x="0px" y="0px"
	 viewBox="0 0 512 512" style="enable-background:new 0 0 512 512;" xml:space="preserve">
<g>
	<g>
		<path d="M458.671,13.801C454.415,5.288,445.846,0,436.31,0c-3.84,0-7.692,0.911-11.14,2.635l-23.118,11.56
			c-3.357,1.679-5.497,4.825-6.055,8.275L111.408,164.779c-1.582-0.83-3.357-1.308-5.229-1.308c-1.734,0-3.47,0.411-5.024,1.187
			l-23.119,11.561c-5.959,2.98-10.403,8.108-12.514,14.44c-2.111,6.333-1.632,13.102,1.347,19.061
			c3.236,6.472,8.968,11.072,15.72,12.911V356.99c-18.159,3.556-31.905,19.583-31.905,38.768c0,10.122,3.919,38.338,9.54,62.641
			c3.336,14.415,6.892,26.031,10.573,34.525C74.347,501.111,80.219,512,90.195,512c9.975,0,15.847-10.888,19.396-19.077
			c3.68-8.493,7.238-20.109,10.573-34.525c0.469-2.028,0.925-4.084,1.37-6.154c7.722,7.909,16.86,16.661,25.604,23.535
			c7.853,6.173,17.311,12.589,25.638,12.589c2.591,0,5.073-0.622,7.364-2.066c8.437-5.321,7.597-17.662,6.231-26.483
			c-1.416-9.147-4.604-20.87-9.471-34.842c-8.207-23.556-19.943-49.513-25.341-58.076c-5.629-8.927-14.398-15.127-24.691-17.459
			c-7.774-1.762-15.715-1.153-22.982,1.675l-6.085-9.65V221.998c0.872-0.321,25.693-12.673,25.693-12.673
			c3.356-1.679,5.496-4.825,6.054-8.274l135.522-67.767c3.756-1.879,5.278-6.445,3.4-10.203c-1.878-3.755-6.443-5.279-10.201-3.401
			L124.643,186.5l-4.535-9.068l280.793-140.41l4.535,9.068l-76.404,38.205c-3.756,1.879-5.278,6.445-3.401,10.203
			c1.332,2.664,4.018,4.204,6.807,4.204c1.143,0,2.302-0.259,3.395-0.804l78.302-39.154c1.581,0.83,4.964,2.153,10.252,0.12
			l23.117-11.56c5.959-2.98,10.403-8.109,12.514-14.441C462.13,26.529,461.651,19.759,458.671,13.801z M82.59,481.422
			c-2.488-6.787-5.368-16.476-8.416-30.297c-5.332-24.187-8.281-48.091-8.281-55.368c0-10.745,7.012-19.877,16.697-23.076V481.422z
			 M125.08,433.922c1.01-5.807,1.885-11.427,2.591-16.567l29.723,47.138C149.757,458.602,139.146,449.038,125.08,433.922z
			 M123.505,364.274c6.331,1.435,11.724,5.248,15.187,10.739c3.882,6.155,14.137,27.948,22.528,51.252
			c4.795,13.316,7.528,23.05,9.042,30.118l-40.76-64.64c-1.146-11.31-7.083-21.224-15.742-27.679
			C116.946,363.479,120.25,363.537,123.505,364.274z M114.496,395.757c0,7.277-2.949,31.181-8.281,55.368
			c-3.047,13.821-5.927,23.51-8.416,30.296V372.68C107.484,375.88,114.496,385.012,114.496,395.757z M93.571,207.284
			c-1.366,0.682-8.885,4.165-13.098-4.366c-3.932-7.962,2.04-11.934,4.366-13.097l19.569-9.785l8.732,17.464L93.571,207.284z
			 M440.704,33.701l-19.568,9.785l-8.732-17.463l19.568-9.785c1.366-0.682,9.306-3.5,13.098,4.366
			C448.814,28.367,443.03,32.538,440.704,33.701z"/>
	</g>
</g>
<g>
	<g>
		<path d="M314.091,100.268c-1.878-3.756-6.445-5.278-10.202-3.401l-19.263,9.633c-3.756,1.879-5.278,6.446-3.4,10.202
			c1.332,2.664,4.018,4.205,6.807,4.205c1.143,0,2.303-0.259,3.395-0.804l19.263-9.633
			C314.447,108.592,315.968,104.024,314.091,100.268z"/>
	</g>
</g>
<g>
</g>
<g>
</g>
<g>
</g>
<g>
</g>
<g>
</g>
<g>
</g>
<g>
</g>
<g>
</g>
<g>
</g>
<g>
</g>
<g>
</g>
<g>
</g>
<g>
</g>
<g>
</g>
<g>
</g>
</svg>
