<?xml version="1.0" encoding="iso-8859-1"?>
<!-- Generator: Adobe Illustrator 19.0.0, SVG Export Plug-In . SVG Version: 6.00 Build 0)  -->
<svg version="1.1" id="Layer_1" xmlns="http://www.w3.org/2000/svg" xmlns:xlink="http://www.w3.org/1999/xlink" x="0px" y="0px"
	 viewBox="0 0 512 512" style="enable-background:new 0 0 512 512;" xml:space="preserve">
<g>
	<g>
		<path d="M79.581,320.997c-0.756-5.863-1.183-11.848-1.27-17.787c-0.061-4.161-3.453-7.493-7.601-7.493
			c-0.037,0-0.076,0-0.114,0.001c-4.199,0.062-7.553,3.515-7.492,7.713c0.095,6.514,0.516,13.085,1.393,19.51
			c0.899,6.57,8.186,6.612,8.515,6.57C77.178,328.974,80.119,325.162,79.581,320.997z"/>
	</g>
</g>
<g>
	<g>
		<path d="M509.268,252.549l-31.385-43.521c-2.456-3.407-7.208-4.177-10.615-1.719c-3.406,2.457-4.176,7.208-1.72,10.615
			l31.061,43.073l-31.061,43.072c-1.14,1.581-1.629,3.536-1.368,5.468l7.12,52.625l-43.743,21.807
			c13.741-25.103,21.354-53.431,21.354-83.068c0-27.053-6.189-53.029-18.363-77.264c2.384-2.25,16.73-16.294,10.641-35.082
			c-3.789-11.691-15.245-19.642-29.204-21.277c0,0,0.822-6.91-3.403-12.419c-2.487-3.242-6.546-4.962-10.631-5.133l-37.044-1.544
			l-14.683-34.026c-3.211-7.439-11.906-10.954-19.386-7.836l-33.962,14.166L266.244,95.19c-5.743-5.456-14.743-5.454-20.491,0
			l-26.627,25.292l-33.962-14.163c-7.482-3.123-16.177,0.396-19.384,7.835l-14.689,34.028l-37.047,1.546
			c-4.081,0.171-7.915,2.075-10.628,5.13c-4.818,5.425-3.659,12.424-3.659,12.424c-46.276,7.287-30.452,40.115-24.568,48.972
			c1.765,2.656,3.868,5.125,6.247,7.372c-7.258,14.461-12.436,29.75-15.398,45.506c-0.777,4.126,1.94,8.102,6.067,8.878
			c0.476,0.089,7.538,1.148,8.878-6.068c2.549-13.718,7.011-27.043,13.171-39.706c1.772,0.834,7.231,4.286,20.349,4.929
			c23.38,42.753,47.658,72.747,71.752,92.325l-17.602,4.504c-4.069,1.04-6.479,5.172-5.482,9.251
			c1.834,7.503,8.619,5.643,9.251,5.481l29.446-7.534c7.065,4.868,13.869,9.014,20.221,12.517
			c1.507,17.388,16.133,31.082,33.907,31.082c17.747,0,32.358-13.652,33.901-31.003c6.389-3.523,13.221-7.687,20.307-12.575
			l29.366,7.513c0.633,0.162,7.924,2.023,9.251-5.481c0.731-4.136-1.414-8.211-5.482-9.251l-17.54-4.487
			c50.167-41.055,71.663-91.881,71.856-92.344c4.906-0.17,12.443-0.64,20.19-4.93c10.52,21.592,15.852,44.67,15.852,68.671
			c0,67.062-42.807,126.879-107.901,152.805c14.97-35.331,19.19-65.206,19.239-65.556c1.016-7.442-0.837-27.666-24.06-31.663
			c-1.256-0.216-26.555-5.264-31.656,24.044c-0.057,0.324-4.765,32.982-22.205,65.982c-3.423,6.477-4.051,13.697-2.32,20.278
			c-5.842,0.264-11.73,0.263-17.586-0.002c1.802-6.834,0.99-13.989-2.334-20.275c-17.293-32.723-22.166-65.714-22.209-66.018
			c-1.912-13.835-13.054-26.568-31.657-24.009c-15.359,2.113-26.152,16.301-24.056,31.662c0.048,0.35,4.267,30.218,19.235,65.545
			c-46.999-18.787-83.573-55.962-99.377-101.834c-1.368-3.97-5.696-6.079-9.666-4.711c-3.971,1.369-6.081,5.696-4.712,9.666
			c3.249,9.43,7.316,18.511,12.09,27.194l-43.83-21.848l7.12-52.625c0.262-1.93-0.228-3.887-1.368-5.468l-31.061-43.072
			l31.062-43.073c1.14-1.581,1.628-3.536,1.368-5.468l-7.119-52.626l47.511-23.683c1.786-0.89,3.152-2.448,3.8-4.337l17.224-50.201
			l53.044-0.901c2.038-0.034,3.977-0.886,5.382-2.363l36.548-38.445l48.82,20.732c1.899,0.806,4.045,0.806,5.944,0l48.819-20.732
			l36.55,38.445c1.404,1.477,3.344,2.329,5.381,2.363l53.045,0.902l17.223,50.201c0.648,1.889,2.013,3.447,3.8,4.337l47.511,23.683
			l-3.118,23.044c-0.564,4.161,2.354,7.992,6.515,8.555c4.164,0.561,7.992-2.353,8.555-6.516l3.192-23.586
			c0.829-6.129-2.332-12.101-7.868-14.862l-45.214-22.538l-16.388-47.764c-1.968-5.732-7.361-9.651-13.414-9.75l-50.395-0.857
			l-34.716-36.52c-4.124-4.339-10.6-5.682-16.113-3.344L255.999,45.37L209.66,25.692c-5.513-2.34-11.987-0.994-16.11,3.344
			l-34.717,36.52l-50.392,0.856c-6.058,0.1-11.45,4.019-13.418,9.752l-16.388,47.762l-45.213,22.537
			c-5.537,2.761-8.699,8.732-7.868,14.861l6.788,50.165L2.731,252.55c-3.641,5.051-3.642,11.84,0.001,16.894l29.609,41.06
			l-6.788,50.162c-0.829,6.129,2.333,12.101,7.868,14.861l45.214,22.538l16.388,47.764c1.968,5.731,7.361,9.651,13.417,9.75
			c0.043,0.001,0.084,0.001,0.126,0.001h46.745c12.464,7.182,25.868,13.06,39.99,17.456c4.951,9.29,13.53,14.409,24.205,14.409
			c10.133,0,16.903-4.867,18.344-6.045c6.011,0.526,30.138,0.549,36.041,0.039c0.091-0.008,9.228,6.006,18.601,6.006
			c10.675,0,19.254-5.119,24.205-14.41c0.066-0.018,0.133-0.025,0.199-0.046c14.189-4.433,27.536-10.309,39.895-17.41h46.641
			c0.043,0,0.084,0,0.126-0.001c6.058-0.1,11.45-4.019,13.418-9.752l16.388-47.761l45.216-22.54
			c5.534-2.761,8.695-8.733,7.865-14.861l-6.787-50.161l29.611-41.062C512.91,264.389,512.91,257.601,509.268,252.549z
			 M87.859,207.836c-3.216-4.84-4.157-9.952-2.649-14.394c2.045-6.021,8.484-10.157,16.671-11.069c0,0,1.788,21.251,7.188,38.894
			C102.764,218.381,91.484,213.293,87.859,207.836z M256,369.582c-10.387,0-18.836-8.449-18.836-18.835S245.613,331.91,256,331.91
			c10.387,0,18.836,8.45,18.836,18.836S266.386,369.582,256,369.582z M307.137,324.729c0,0-10.078-5.272-12.674,4.606
			c-0.361,1.372-0.296,2.755,0.077,4.023c-2.416,1.537-4.783,2.975-7.105,4.333c-5.132-12.31-17.288-20.988-31.436-20.988
			c-14.125,0-26.266,8.648-31.413,20.927c-2.322-1.359-4.691-2.794-7.11-4.333c0.357-1.252,0.485-2.633,0.059-3.962
			c-2.596-8.103-12.605-4.623-12.605-4.623c-4.387-3.219-8.857-6.738-13.365-10.583l16.718,4.277
			c0.633,0.162,7.922,1.305,9.251-5.481c0.807-4.122-1.414-8.211-5.482-9.251c0,0-8.62-2.177-18.047-4.535
			c15.863-16.974,38.299-27.01,61.947-27.01c23.67,0,46.107,10.043,61.968,27.033c-9.403,2.349-17.976,4.513-17.976,4.513
			c-4.069,1.04-6.387,5.149-5.482,9.251c1.329,6.025,8.619,5.643,9.251,5.481l16.819-4.303
			C316.018,317.961,311.538,321.496,307.137,324.729z M202.663,260.303c-4.46,0-8.089-3.629-8.089-8.09
			c0-4.46,3.63-8.089,8.089-8.089c4.46,0,8.09,3.629,8.09,8.089C210.753,256.674,207.124,260.303,202.663,260.303z M301.246,252.214
			c0-4.46,3.63-8.09,8.09-8.09c4.46,0,8.089,3.629,8.089,8.09c0,4.461-3.63,8.089-8.089,8.089
			C304.876,260.303,301.246,256.674,301.246,252.214z M341.982,293.318c-0.208-0.014-3.223,0.698-7.55,1.753
			c-6.062-7.679-13.177-14.371-21.071-19.916c10.933-1.913,19.271-11.47,19.271-22.942c0-12.845-10.451-23.297-23.297-23.297
			s-23.297,10.452-23.297,23.297c0,3.643,0.842,7.093,2.339,10.167c-10.307-3.56-21.249-5.46-32.425-5.46
			c-11.132,0-22.037,1.887-32.312,5.423c1.486-3.065,2.321-6.502,2.321-10.129c0-12.845-10.451-23.297-23.297-23.297
			c-12.846,0-23.297,10.452-23.297,23.297c0,11.447,8.301,20.986,19.198,22.929c-7.894,5.54-15.011,12.227-21.073,19.9
			c-4.259-1.041-7.219-1.742-7.42-1.73c-54.996-53.25-55.029-128.405-55.029-128.405l41.456-1.731
			c2.917-0.122,5.507-1.903,6.664-4.584l16.453-38.112l38.23,15.944c2.779,1.159,5.98,0.571,8.164-1.505L256,106.433l29.996,28.492
			c2.183,2.074,5.386,2.663,8.164,1.504l38.231-15.946l16.446,38.109c1.157,2.682,3.747,4.462,6.665,4.584l41.455,1.729
			C396.955,164.905,398.524,233.702,341.982,293.318z M424.14,207.836c-3.625,5.457-9.552,9.796-16.689,12.219
			c-1.507,0.512-3.038,0.914-4.573,1.224c6.465-19.197,7.226-38.904,7.226-38.904c8.194,0.91,14.639,5.045,16.685,11.069
			C428.297,197.884,427.357,202.996,424.14,207.836z M109.228,440.372l-12.983-37.842c10.229,14.175,22.527,26.921,36.503,37.842
			H109.228z M226.101,471.04c-0.497,0.237-12.43,4.803-17.469-5.309c-20.417-40.97-26.554-79.253-26.606-79.639
			c-0.963-7.053,3.992-13.575,11.042-14.538c0.587-0.08,12.239-0.646,14.541,11.041c0.069,0.35,4.688,36.016,23.825,71.024
			C237.209,464.184,229.102,469.453,226.101,471.04z M303.367,465.731c-4.448,8.875-16.972,5.547-17.421,5.334
			c-6.294-3.326-8.708-11.152-5.382-17.446c18.871-35.707,23.78-70.676,23.825-71.019c0.869-6.364,5.343-12.366,14.538-11.046
			c12.239,1.757,11.511,11.122,11.045,14.539C329.921,386.477,323.876,424.811,303.367,465.731z M402.77,440.372h-23.355
			c13.948-10.898,26.134-23.562,36.246-37.569L402.77,440.372z"/>
	</g>
</g>
<g>
	<g>
		<path d="M222.261,93.872l-7.095-34.851c-0.836-4.116-4.85-6.775-8.967-5.935c-4.115,0.837-6.772,4.853-5.934,8.969l7.095,34.851
			c0.733,3.604,3.903,6.089,7.443,6.089c0.503,0,1.013-0.051,1.525-0.154C220.442,102.003,223.099,97.987,222.261,93.872z"/>
	</g>
</g>
<g>
	<g>
		<path d="M307.325,53.085c-4.115-0.835-8.13,1.821-8.967,5.935l-7.094,34.851c-0.837,4.115,1.819,8.131,5.934,8.969
			c0.512,0.104,1.022,0.154,1.525,0.154c3.539,0,6.71-2.486,7.443-6.089l7.094-34.851C314.096,57.938,311.44,53.922,307.325,53.085z
			"/>
	</g>
</g>
<g>
	<g>
		<path d="M150.662,127.389l-20.176-29.291c-2.384-3.457-7.117-4.329-10.576-1.949c-3.458,2.383-4.331,7.118-1.949,10.576
			l20.176,29.291c1.475,2.14,3.852,3.291,6.27,3.291c1.486,0,2.989-0.436,4.307-1.342
			C152.172,135.583,153.045,130.847,150.662,127.389z"/>
	</g>
</g>
<g>
	<g>
		<path d="M395.234,96.149c-3.459-2.38-8.194-1.509-10.576,1.949l-20.176,29.291c-2.383,3.458-1.51,8.194,1.949,10.576
			c1.317,0.907,2.82,1.342,4.307,1.342c2.417,0,4.794-1.151,6.27-3.291l20.176-29.291
			C399.565,103.267,398.692,98.532,395.234,96.149z"/>
	</g>
</g>
<g>
</g>
<g>
</g>
<g>
</g>
<g>
</g>
<g>
</g>
<g>
</g>
<g>
</g>
<g>
</g>
<g>
</g>
<g>
</g>
<g>
</g>
<g>
</g>
<g>
</g>
<g>
</g>
<g>
</g>
</svg>
