<?xml version="1.0" encoding="iso-8859-1"?>
<!-- Generator: Adobe Illustrator 19.0.0, SVG Export Plug-In . SVG Version: 6.00 Build 0)  -->
<svg version="1.1" id="Layer_1" xmlns="http://www.w3.org/2000/svg" xmlns:xlink="http://www.w3.org/1999/xlink" x="0px" y="0px"
	 viewBox="0 0 512.001 512.001" style="enable-background:new 0 0 512.001 512.001;" xml:space="preserve">
<g>
	<g>
		<path d="M296.668,272.683c-1.412-1.422-3.382-2.234-5.383-2.234s-3.971,0.813-5.383,2.234c-1.422,1.412-2.234,3.382-2.234,5.383
			s0.813,3.971,2.234,5.383c1.412,1.422,3.382,2.234,5.383,2.234s3.971-0.813,5.383-2.234c1.422-1.412,2.234-3.372,2.234-5.383
			S298.09,274.095,296.668,272.683z"/>
	</g>
</g>
<g>
	<g>
		<path d="M274.582,223.69c-1.412-1.422-3.382-2.234-5.383-2.234s-3.971,0.813-5.383,2.234c-1.422,1.412-2.234,3.382-2.234,5.383
			s0.813,3.971,2.234,5.383c1.412,1.422,3.382,2.234,5.383,2.234s3.971-0.813,5.383-2.234c1.422-1.412,2.234-3.372,2.234-5.383
			S276.004,225.102,274.582,223.69z"/>
	</g>
</g>
<g>
	<g>
		<path d="M296.668,185.604c-1.412-1.422-3.382-2.234-5.383-2.234s-3.971,0.813-5.383,2.234c-1.422,1.412-2.234,3.382-2.234,5.383
			s0.813,3.971,2.234,5.383c1.412,1.422,3.382,2.234,5.383,2.234s3.971-0.813,5.383-2.234c1.422-1.412,2.234-3.372,2.234-5.383
			C298.902,188.976,298.09,187.016,296.668,185.604z"/>
	</g>
</g>
<g>
	<g>
		<path d="M242.838,163.097c-1.412-1.422-3.382-2.234-5.383-2.234c-2.001,0-3.971,0.813-5.383,2.234
			c-1.422,1.412-2.234,3.382-2.234,5.383s0.813,3.971,2.234,5.383c1.413,1.421,3.383,2.234,5.383,2.234
			c2.001,0,3.971-0.813,5.383-2.234c1.422-1.412,2.234-3.372,2.234-5.383S244.26,164.509,242.838,163.097z"/>
	</g>
</g>
<g>
	<g>
		<path d="M274.582,124.603c-1.412-1.422-3.382-2.234-5.383-2.234s-3.971,0.813-5.383,2.234c-1.422,1.412-2.234,3.382-2.234,5.383
			s0.813,3.971,2.234,5.383c1.412,1.421,3.382,2.234,5.383,2.234s3.971-0.813,5.383-2.234c1.422-1.412,2.234-3.372,2.234-5.383
			C276.816,127.975,276.004,126.015,274.582,124.603z"/>
	</g>
</g>
<g>
	<g>
		<path d="M181.601,174.452c-4.208,0-7.617,3.41-7.617,7.617v29.453c0,4.207,3.409,7.617,7.617,7.617s7.617-3.411,7.617-7.617
			v-29.453C189.218,177.862,185.809,174.452,181.601,174.452z"/>
	</g>
</g>
<g>
	<g>
		<path d="M330.889,87.347H212.071c-4.208,0-7.617,3.41-7.617,7.617v202.814c0,13.161,10.707,23.867,23.867,23.867h86.318
			c13.161,0,23.867-10.707,23.867-23.867V94.964C338.507,90.758,335.097,87.347,330.889,87.347z M323.272,297.778
			c0,4.76-3.873,8.633-8.633,8.633h-86.318c-4.76,0-8.633-3.873-8.633-8.633V102.582h103.584V297.778z"/>
	</g>
</g>
<g>
	<g>
		<path d="M340.03,0H202.929c-15.961,0-28.945,12.985-28.945,28.945V156.17c0,4.207,3.409,7.617,7.617,7.617
			s7.617-3.411,7.617-7.617V28.945c0-7.56,6.151-13.711,13.711-13.711H340.03c7.56,0,13.711,6.151,13.711,13.711v294.224
			c0,7.56-6.151,13.711-13.711,13.711H202.929c-7.56,0-13.711-6.151-13.711-13.711v-86.478c0-4.207-3.409-7.617-7.617-7.617
			s-7.617,3.41-7.617,7.617v86.478c0,14.226,10.319,26.079,23.863,28.489v17.373c0,13.406,9.163,24.71,21.555,27.986l-68.21,68.21
			c-10.889,10.89-10.889,28.608,0.001,39.499c3.743,3.743,21.181,14.194,39.285,0.206c0.079-0.061,0.145-0.136,0.215-0.207
			l106.748-106.748h18.727c15.961,0,28.945-12.985,28.945-28.945v-17.373c13.543-2.41,23.862-14.263,23.862-28.489V28.945
			C368.975,12.985,355.991,0,340.03,0z M180.035,493.836c-7.631,6.936-17.002,1.185-18.07,0.116c-4.949-4.95-4.949-13.004,0-17.954
			l78.022-78.022h35.908L180.035,493.836z M329.879,369.032c0,7.56-6.151,13.711-13.711,13.711h-89.375
			c-7.56,0-13.711-6.151-13.711-13.711v-16.917h116.797V369.032z"/>
	</g>
</g>
<g>
</g>
<g>
</g>
<g>
</g>
<g>
</g>
<g>
</g>
<g>
</g>
<g>
</g>
<g>
</g>
<g>
</g>
<g>
</g>
<g>
</g>
<g>
</g>
<g>
</g>
<g>
</g>
<g>
</g>
</svg>
