<?xml version="1.0" encoding="iso-8859-1"?>
<!-- Generator: Adobe Illustrator 19.0.0, SVG Export Plug-In . SVG Version: 6.00 Build 0)  -->
<svg version="1.1" id="Layer_1" xmlns="http://www.w3.org/2000/svg" xmlns:xlink="http://www.w3.org/1999/xlink" x="0px" y="0px"
	 viewBox="0 0 512 512" style="enable-background:new 0 0 512 512;" xml:space="preserve">
<g>
	<g>
		<path d="M181.446,73.444c-3.284-2.616-8.067-2.076-10.686,1.209l-7.801,9.791c-2.617,3.285-2.075,8.069,1.209,10.686
			c1.4,1.115,3.072,1.657,4.734,1.657c2.236,0,4.451-0.981,5.952-2.865l7.801-9.791C185.271,80.845,184.73,76.061,181.446,73.444z"
			/>
	</g>
</g>
<g>
	<g>
		<path d="M160.147,100.178c-3.286-2.615-8.067-2.075-10.686,1.209l-21.297,26.732c-2.617,3.285-2.075,8.069,1.208,10.686
			c1.401,1.115,3.072,1.657,4.734,1.657c2.236,0,4.45-0.981,5.951-2.865l21.298-26.732
			C163.972,107.579,163.431,102.794,160.147,100.178z"/>
	</g>
</g>
<g>
	<g>
		<path d="M444.627,151.731c-0.006-0.009-0.01-0.018-0.015-0.027L380.531,49.735c-1.734-2.759-3.954-4.9-6.472-6.328V22.854
			C374.059,10.252,361.542,0,346.156,0H193.398c-15.386,0-27.902,10.252-27.902,22.854v19.724
			c-5.177,1.363-11.528,4.239-16.255,10.276L68.178,154.597c-0.12,0.142-0.231,0.289-0.346,0.434
			c-2.535,3.199-4.062,7.232-4.062,11.621v159.441c0,4.2,3.404,7.604,7.604,7.604c4.2,0,7.604-3.404,7.604-7.604v-71.055h205.725
			c-0.005,32.401-0.009,69.475-0.012,104.475H78.978v-5.032c0-4.2-3.404-7.604-7.604-7.604s-7.604,3.404-7.604,7.604v22.814
			c0,4.2,3.404,7.604,7.604,7.604s7.604-3.404,7.604-7.604v-2.574h205.71c-0.006,63.113-0.01,115.812-0.01,115.812
			c0,2.188,0.264,4.286,0.743,6.261H82.526c-1.923,0-3.549-1.625-3.549-3.549v-91.104c0-4.2-3.404-7.604-7.604-7.604
			s-7.604,3.404-7.604,7.604v91.103c0,10.342,8.414,18.756,18.756,18.756h348.009c9.923,0,17.696-9.43,17.696-21.469V164.81
			C448.232,160.083,446.951,155.44,444.627,151.731z M433.005,359.512H299.905c0.006-35.002,0.013-72.074,0.022-104.475h133.056
			C432.992,287.426,432.999,324.503,433.005,359.512z M432.978,239.828H299.931c0.013-44.261,0.03-76.567,0.05-76.717l132.948,0.233
			C432.948,163.494,432.965,195.69,432.978,239.828z M366.423,56.582c0.124,0.032,57.976,91.541,57.976,91.541l-115.894-0.203
			c0,0,57.857-91.305,57.907-91.338H366.423z M180.701,22.854h0.001c0-3.61,5.428-7.647,12.695-7.647h152.758
			c7.266,0,12.695,4.036,12.695,7.647v18.519l-178.149-0.002V22.854z M284.705,239.829H78.977v-73.177
			c0-1.923,1.625-3.549,3.549-3.549h202.202C284.72,163.256,284.712,195.566,284.705,239.829z M92.962,147.896l68.212-85.616
			c4.495-5.74,12.945-5.688,13.037-5.705c0.079,0.003,173.855,0.006,173.855,0.006l-57.519,91.314H92.962z M430.519,496.792H302.395
			c-0.61-0.154-2.508-2.31-2.508-6.261c0,0,0.005-52.699,0.015-115.812h133.106c0.01,63.104,0.015,115.812,0.015,115.812
			C433.024,494.471,431.136,496.627,430.519,496.792z"/>
	</g>
</g>
<g>
	<g>
		<path d="M144.788,269.349c-3.307-0.905-6.81,0.52-8.552,3.472l-13.268,22.492l-13.922-22.614c-1.783-2.897-5.277-4.259-8.547-3.33
			c-3.273,0.927-5.533,3.915-5.533,7.316v56.676c0,4.2,3.404,7.604,7.604,7.604c4.2,0,7.604-3.404,7.604-7.604V303.54l6.458,10.489
			c1.385,2.249,3.836,3.617,6.476,3.617c0.023,0,0.048,0,0.072,0c2.665-0.025,5.123-1.444,6.478-3.74l5.524-9.365v28.821
			c0,4.2,3.404,7.604,7.604,7.604s7.604-3.405,7.604-7.606v-56.676C150.39,273.257,148.096,270.253,144.788,269.349z"/>
	</g>
</g>
<g>
	<g>
		<path d="M166.405,269.083c-4.2,0-7.604,3.404-7.604,7.604v56.676c0,4.2,3.404,7.604,7.604,7.604c4.199,0,7.604-3.405,7.604-7.604
			v-56.676C174.008,272.486,170.605,269.083,166.405,269.083z"/>
	</g>
</g>
<g>
	<g>
		<path d="M213.418,325.759h-16.391v-49.072c0-4.2-3.404-7.604-7.604-7.604s-7.604,3.404-7.604,7.604v56.676
			c0,4.2,3.404,7.604,7.604,7.604h23.995c4.2,0,7.604-3.404,7.604-7.604C221.022,329.162,217.619,325.759,213.418,325.759z"/>
	</g>
</g>
<g>
	<g>
		<path d="M272.909,329.307l-18.123-28.739l14.696-19.27c2.547-3.34,1.904-8.111-1.436-10.658c-3.34-2.547-8.112-1.904-10.658,1.436
			l-16.427,21.54v-16.929c0-4.2-3.404-7.604-7.604-7.604s-7.604,3.404-7.604,7.604v56.676c0,4.2,3.404,7.604,7.604,7.604
			s7.604-3.404,7.604-7.604v-14.668l3.983-5.223l15.099,23.946c1.446,2.293,6.855,4.9,10.487,2.377
			C273.981,337.398,275.149,332.859,272.909,329.307z"/>
	</g>
</g>
<g>
</g>
<g>
</g>
<g>
</g>
<g>
</g>
<g>
</g>
<g>
</g>
<g>
</g>
<g>
</g>
<g>
</g>
<g>
</g>
<g>
</g>
<g>
</g>
<g>
</g>
<g>
</g>
<g>
</g>
</svg>
