<?xml version="1.0" encoding="iso-8859-1"?>
<!-- Generator: Adobe Illustrator 19.0.0, SVG Export Plug-In . SVG Version: 6.00 Build 0)  -->
<svg version="1.1" id="Layer_1" xmlns="http://www.w3.org/2000/svg" xmlns:xlink="http://www.w3.org/1999/xlink" x="0px" y="0px"
	 viewBox="0 0 512.001 512.001" style="enable-background:new 0 0 512.001 512.001;" xml:space="preserve">
<g>
	<g>
		<path d="M379.967,302.306c-0.129-0.089-0.289-0.192-0.424-0.272c-0.246-0.147-24.701-15.188-36.705-53.463
			c-12.368-39.442-47.116-65.943-86.465-65.943c-40.499,0-76.912,27.91-86.583,66.363c-9.449,37.57-29.758,48.857-30.59,49.305
			c-0.092,0.048-0.187,0.098-0.277,0.151c-27.782,15.973-45.041,45.77-45.041,77.759c0,49.441,40.223,89.664,89.663,89.664
			c23.115,0,33.633-5.81,42.085-10.479l1.116-0.614c9.284-5.096,19.129-7.681,29.263-7.681c17.851,0,30.795,8.079,30.899,8.144
			c0.188,0.121,0.382,0.234,0.58,0.338c12.778,6.735,27.203,10.295,41.716,10.295c49.44,0,89.663-40.224,89.662-89.666
			C418.865,346.693,404.324,319.067,379.967,302.306z M329.203,450.64c-12.131,0-23.697-2.831-34.379-8.413
			c-2.517-1.542-17.825-10.363-38.814-10.362c-12.726,0-25.038,3.217-36.593,9.561l-1.15,0.634
			c-7.636,4.219-15.533,8.581-34.721,8.581c-41.042,0-74.433-33.391-74.433-74.434c0-26.524,14.299-51.233,37.322-64.51
			c2.644-1.449,27.309-15.979,38.126-58.991c7.993-31.781,38.195-54.848,71.813-54.848c32.658,0,61.566,22.212,71.933,55.271
			c13.255,42.266,40.046,59.888,43.194,61.838c20.125,13.928,32.136,36.806,32.136,61.238
			C403.636,417.25,370.245,450.64,329.203,450.64z"/>
	</g>
</g>
<g>
	<g>
		<path d="M63.033,162.457C28.277,162.457,0,190.733,0,225.491c0,34.757,28.277,63.033,63.033,63.033
			c34.757,0,63.033-28.277,63.033-63.033S97.79,162.457,63.033,162.457z M63.033,273.293c-26.358,0-47.803-21.444-47.803-47.802
			c0-26.359,21.445-47.803,47.803-47.803c26.359,0,47.803,21.445,47.803,47.803S89.392,273.293,63.033,273.293z"/>
	</g>
</g>
<g>
	<g>
		<path d="M338.13,46.129c-34.757,0-63.033,28.277-63.033,63.033c0,34.756,28.277,63.032,63.033,63.032
			c34.757,0,63.033-28.276,63.033-63.032C401.163,74.407,372.887,46.129,338.13,46.129z M338.13,156.965
			c-26.359,0-47.803-21.444-47.803-47.802c0-26.359,21.445-47.803,47.803-47.803c26.359,0,47.803,21.444,47.803,47.803
			C385.933,135.521,364.489,156.965,338.13,156.965z"/>
	</g>
</g>
<g>
	<g>
		<path d="M363.218,327.76l-0.271-0.182c-4.081-2.618-18.423-12.714-31.665-32.733c-2.321-3.508-7.045-4.471-10.553-2.149
			c-3.507,2.321-4.47,7.045-2.149,10.552c14.366,21.717,29.851,33.09,35.997,37.055c11.65,8.258,18.6,21.668,18.6,35.904
			c0,4.207,3.41,7.615,7.615,7.615c4.207,0,7.615-3.409,7.616-7.615C388.407,356.972,378.99,338.861,363.218,327.76z"/>
	</g>
</g>
<g>
	<g>
		<path d="M373.207,404.155c-3.18-2.751-7.991-2.402-10.741,0.779c-8.382,9.689-20.506,15.247-33.263,15.247
			c-4.206,0-7.615,3.409-7.615,7.615s3.409,7.615,7.615,7.615c17.183,0,33.505-7.478,44.782-20.515
			C376.736,411.715,376.388,406.907,373.207,404.155z"/>
	</g>
</g>
<g>
	<g>
		<path d="M173.87,46.129c-4.206,0-7.615,3.409-7.615,7.615c0,4.207,3.41,7.615,7.615,7.615c26.359,0,47.803,21.444,47.803,47.803
			c0,26.358-21.444,47.802-47.803,47.802c-26.359,0-47.803-21.444-47.803-47.802c0-14.239,6.283-27.639,17.24-36.758
			c3.233-2.691,3.672-7.492,0.981-10.725c-2.692-3.233-7.494-3.67-10.725-0.981c-14.443,12.023-22.727,29.689-22.727,48.464
			c0,34.756,28.277,63.032,63.033,63.032c34.757,0,63.034-28.276,63.034-63.032C236.903,74.407,208.626,46.129,173.87,46.129z"/>
	</g>
</g>
<g>
	<g>
		<path d="M489.137,176.914c-3.239-2.682-8.04-2.231-10.722,1.01c-2.682,3.24-2.23,8.039,1.01,10.722
			c11.023,9.125,17.345,22.555,17.345,36.846c0,26.358-21.444,47.802-47.803,47.802s-47.803-21.444-47.803-47.802
			c0-26.359,21.445-47.803,47.803-47.803c4.206,0,7.615-3.409,7.615-7.615c0-4.207-3.409-7.615-7.615-7.615
			c-34.756,0-63.033,28.277-63.033,63.033s28.277,63.032,63.033,63.032s63.033-28.276,63.034-63.032
			C512.001,206.647,503.667,188.941,489.137,176.914z"/>
	</g>
</g>
<g>
</g>
<g>
</g>
<g>
</g>
<g>
</g>
<g>
</g>
<g>
</g>
<g>
</g>
<g>
</g>
<g>
</g>
<g>
</g>
<g>
</g>
<g>
</g>
<g>
</g>
<g>
</g>
<g>
</g>
</svg>
