<?xml version="1.0" encoding="iso-8859-1"?>
<!-- Generator: Adobe Illustrator 19.0.0, SVG Export Plug-In . SVG Version: 6.00 Build 0)  -->
<svg version="1.1" id="Layer_1" xmlns="http://www.w3.org/2000/svg" xmlns:xlink="http://www.w3.org/1999/xlink" x="0px" y="0px"
	 viewBox="0 0 512 512" style="enable-background:new 0 0 512 512;" xml:space="preserve">
<g>
	<g>
		<path d="M301.747,241.342c-3.867-1.646-8.33,0.154-9.975,4.017c-1.646,3.864,0.153,8.33,4.017,9.975
			c22.661,9.649,37.303,31.76,37.303,56.332c0,4.199,3.404,7.604,7.604,7.604s7.604-3.405,7.604-7.604
			C348.3,280.988,330.027,253.384,301.747,241.342z"/>
	</g>
</g>
<g>
	<g>
		<path d="M338.805,329.439c-3.917-1.521-8.322,0.419-9.843,4.332c-2.626,6.754-6.409,12.948-11.244,18.408
			c-2.784,3.144-2.492,7.95,0.653,10.734c1.447,1.281,3.245,1.911,5.038,1.911c2.103,0,4.193-0.866,5.695-2.562
			c6.031-6.811,10.752-14.543,14.032-22.98C344.658,335.367,342.719,330.96,338.805,329.439z"/>
	</g>
</g>
<g>
	<g>
		<path d="M74.824,317.699c-1.409-1.419-3.376-2.231-5.373-2.231s-3.964,0.811-5.373,2.231c-1.419,1.409-2.231,3.376-2.231,5.373
			s0.811,3.964,2.231,5.373c1.409,1.418,3.376,2.231,5.373,2.231s3.964-0.811,5.373-2.231c1.419-1.409,2.231-3.366,2.231-5.373
			S76.244,319.109,74.824,317.699z"/>
	</g>
</g>
<g>
	<g>
		<path d="M245.071,114.658c-13.448,0-24.388,10.941-24.388,24.388c0,13.447,10.941,24.388,24.388,24.388
			c13.447,0,24.389-10.941,24.389-24.388C269.46,125.599,258.518,114.658,245.071,114.658z M245.071,148.225
			c-5.062,0-9.18-4.118-9.18-9.18s4.118-9.18,9.18-9.18c5.061,0,9.181,4.118,9.181,9.18S250.132,148.225,245.071,148.225z"/>
	</g>
</g>
<g>
	<g>
		<path d="M313.646,114.658c-13.448,0-24.388,10.941-24.388,24.388c0,13.447,10.941,24.388,24.388,24.388
			c13.448,0,24.389-10.941,24.389-24.388C338.035,125.599,327.094,114.658,313.646,114.658z M313.646,148.225
			c-5.061,0-9.18-4.118-9.18-9.18s4.118-9.18,9.18-9.18c5.062,0,9.181,4.118,9.181,9.18S318.708,148.225,313.646,148.225z"/>
	</g>
</g>
<g>
	<g>
		<path d="M46.413,204.625c-0.594-2.402-0.991-4.865-1.179-7.318c-0.321-4.188-3.982-7.326-8.164-7
			c-4.187,0.321-7.321,3.976-7,8.164c0.252,3.288,0.628,6.629,1.578,9.801c2.147,7.174,8.594,5.71,9.207,5.559
			C44.932,212.823,47.42,208.702,46.413,204.625z"/>
	</g>
</g>
<g>
	<g>
		<path d="M493.288,381.056h-140.25c15.999-18.68,25.678-42.924,25.678-69.389c0-50.42-35.117-92.787-82.234-103.939v-26.524
			c5.41,2.205,11.236,3.365,17.166,3.365c25.102,0,45.524-20.422,45.524-45.524s-20.422-45.525-45.524-45.525
			c-13.264,0-25.753,5.873-34.288,15.606c-8.535-9.733-21.023-15.606-34.288-15.606c-25.102,0-45.524,20.422-45.524,45.525
			s20.422,45.524,45.524,45.524c5.382,0,10.612-0.922,15.536-2.712v23.287c-18.406,0.712-36.259,2.626-53.328,5.722
			c0.033-0.107,16.063-56.105-39.777-75.422c-18.592-6.431-39.391,0.393-48.47,5.807c-14.845-8.192-32.276-9.769-48.459-4.234
			c-17.546,6.002-31.135,19.491-37.283,37.006c-1.391,3.962,0.694,8.303,4.657,9.694c0.833,0.293,7.339,1.987,9.694-4.657
			c4.632-13.077,14.748-23.169,27.856-27.653c10.031-3.432,20.707-3.198,30.39,0.476c-25.029,28.839-20.564,77.062-13.217,104.86
			c-2.646,1.815-5.208,3.643-7.691,5.481c-11.549-10.903-23.227-25.934-31.241-40.383c-2.037-3.672-6.666-4.998-10.338-2.961
			c-3.672,2.037-4.998,6.666-2.96,10.338c8.343,15.04,20.374,30.7,32.479,42.503l-0.017-0.001
			c-43.75,33.451-55.295,67.912-56.552,71.831C6.99,345.769,0,354.173,0,364.196c0,11.005,8.415,20.078,19.148,21.13
			c9.404,19.77,31.8,33.152,53.851,33.152h420.29c10.318,0,18.712-8.394,18.712-18.712S503.606,381.056,493.288,381.056z
			 M21.235,370.225c-3.323,0-6.027-2.704-6.027-6.027s2.704-6.027,6.027-6.027c3.323,0,6.027,2.704,6.027,6.027
			C27.263,367.521,24.559,370.225,21.235,370.225z M245.071,169.361c-16.717,0-30.316-13.6-30.316-30.316s13.6-30.317,30.316-30.317
			c11.659,0,22.421,6.817,27.415,17.367c1.258,2.656,3.934,4.35,6.873,4.35c2.939,0,5.615-1.694,6.873-4.35
			c4.994-10.549,15.754-17.367,27.415-17.367c16.716,0,30.316,13.6,30.316,30.317c0,16.717-13.6,30.316-30.316,30.316
			c-7.264,0-14.297-2.618-19.799-7.371c-2.253-1.945-5.429-2.398-8.134-1.16c-2.705,1.238-4.44,3.94-4.44,6.915v37.533
			c-1.807-0.159-3.627-0.273-5.459-0.341v-35.861c0-2.899-1.649-5.546-4.25-6.824c-2.601-1.278-5.704-0.967-7.999,0.804
			C258.221,167.182,251.825,169.361,245.071,169.361z M163.049,149.987c23.413,8.073,37.048,32.416,29.797,56.097
			c-8.005,26.146-50.144,80.546-68.963,72.487c-3.658-1.664-8.415-9.034-10.574-25.026c-2.025-14.997-0.755-30.446,1.544-37.956
			c2.165-7.068,6.951-12.87,13.479-16.337c6.528-3.466,14.017-4.185,21.083-2.021c4.706,1.441,8.942,4.104,12.25,7.701
			c2.842,3.091,7.654,3.294,10.744,0.451c3.091-2.842,3.294-7.653,0.451-10.744c-5.135-5.585-11.702-9.717-18.992-11.949
			c-10.952-3.354-22.555-2.241-32.671,3.132c-7.766,4.125-13.934,10.389-17.902,18.03
			C103.874,193.95,119.129,134.843,163.049,149.987z M70.461,402.513c-15.298,0-29.128-8.272-36.409-21.424
			c5.104-3.882,8.419-10,8.419-16.892c0-7.906-4.353-14.804-10.778-18.459c0.79-2.016,17.48-42.93,66.234-74.117
			c4.928,10.604,11.869,18.551,21.314,21.442c2.537,0.777,5.219,1.171,7.974,1.171c18.568,0,37.225-17.486,49.607-32.154
			c8.941-10.594,17.208-22.955,23.146-34.262c22.594-4.839,46.801-7.451,71.938-7.754c50.51,0,91.604,41.093,91.604,91.604
			s-41.093,91.604-91.575,91.604L70.461,402.513z M493.288,403.271H326.78c3.558-2.139,6.979-4.48,10.252-7.007h156.256
			c1.899,0,3.504,1.604,3.504,3.503C496.792,401.666,495.187,403.271,493.288,403.271z"/>
	</g>
</g>
<g>
</g>
<g>
</g>
<g>
</g>
<g>
</g>
<g>
</g>
<g>
</g>
<g>
</g>
<g>
</g>
<g>
</g>
<g>
</g>
<g>
</g>
<g>
</g>
<g>
</g>
<g>
</g>
<g>
</g>
</svg>
