<?xml version="1.0" encoding="iso-8859-1"?>
<!-- Generator: Adobe Illustrator 19.0.0, SVG Export Plug-In . SVG Version: 6.00 Build 0)  -->
<svg version="1.1" id="Layer_1" xmlns="http://www.w3.org/2000/svg" xmlns:xlink="http://www.w3.org/1999/xlink" x="0px" y="0px"
	 viewBox="0 0 512 512" style="enable-background:new 0 0 512 512;" xml:space="preserve">
<g>
	<g>
		<g>
			<path d="M345.388,354.874c4.2,0,7.604-3.404,7.604-7.604V277.2c0-4.2-3.404-7.604-7.604-7.604s-7.604,3.404-7.604,7.604v70.07
				C337.784,351.47,341.187,354.874,345.388,354.874z"/>
			<path d="M345.388,404.894c4.2,0,7.604-3.404,7.604-7.604v-21.7c0-4.2-3.404-7.604-7.604-7.604s-7.604,3.404-7.604,7.604v21.7
				C337.784,401.49,341.187,404.894,345.388,404.894z"/>
			<path d="M403.025,466.747h-19.617V266.174c0-14.885-12.11-26.994-26.994-26.994h-50.015V45.253h54.383
				c12.477,0,22.625-10.151,22.625-22.626S373.258,0,360.782,0h-27.39c-4.2,0-7.604,3.404-7.604,7.604s3.404,7.604,7.604,7.604
				h27.39c4.09,0,7.417,3.327,7.417,7.417c0,4.091-3.328,7.418-7.417,7.418H151.219c-4.09,0-7.417-3.328-7.417-7.418
				c0-4.09,3.328-7.417,7.417-7.417H307.37c4.2,0,7.604-3.404,7.604-7.604S311.57,0,307.37,0H151.219
				c-12.477,0-22.625,10.15-22.625,22.625c0,12.476,10.15,22.626,22.625,22.626h54.384V239.18h-50.015
				c-14.884,0-26.994,12.11-26.994,26.994v200.573h-19.617c-12.477,0-22.625,10.15-22.625,22.625S96.501,512,108.976,512h294.047
				c12.477,0,22.625-10.151,22.625-22.626C425.649,476.898,415.5,466.747,403.025,466.747z M220.81,45.253h70.38v14.6h-70.38V45.253
				z M220.81,75.06h70.38V97.25h-70.38V75.06z M220.81,112.458h70.38v22.19h-70.38V112.458z M220.81,149.856h70.38v22.189h-70.38
				V149.856z M220.81,187.252h70.38v22.188h-70.38V187.252z M220.81,224.649h70.38v14.531h-70.38V224.649z M143.802,266.174
				c0-6.499,5.287-11.786,11.786-11.786h200.826c6.499,0,11.786,5.287,11.786,11.786v200.573h-45.04V350.405
				c0-37.031-30.128-67.159-67.159-67.159c-37.031,0-67.159,30.128-67.159,67.159v116.343h-45.04V266.174z M307.952,350.405v116.343
				H204.049V350.405c0-28.647,23.305-51.951,51.951-51.951S307.952,321.758,307.952,350.405z M403.025,496.792H108.976
				c-4.09,0-7.417-3.328-7.417-7.418c0-4.09,3.328-7.417,7.417-7.417h294.047c4.09,0,7.417,3.328,7.417,7.417
				C410.442,493.465,407.115,496.792,403.025,496.792z"/>
		</g>
	</g>
</g>
<g>
</g>
<g>
</g>
<g>
</g>
<g>
</g>
<g>
</g>
<g>
</g>
<g>
</g>
<g>
</g>
<g>
</g>
<g>
</g>
<g>
</g>
<g>
</g>
<g>
</g>
<g>
</g>
<g>
</g>
</svg>
