<?xml version="1.0" encoding="iso-8859-1"?>
<!-- Generator: Adobe Illustrator 19.0.0, SVG Export Plug-In . SVG Version: 6.00 Build 0)  -->
<svg version="1.1" id="Layer_1" xmlns="http://www.w3.org/2000/svg" xmlns:xlink="http://www.w3.org/1999/xlink" x="0px" y="0px"
	 viewBox="0 0 511.999 511.999" style="enable-background:new 0 0 511.999 511.999;" xml:space="preserve">
<g>
	<g>
		<path d="M208.076,417.245h-18.023c-4.266,0-7.725,3.459-7.725,7.725c0,4.266,3.459,7.725,7.725,7.725h18.023
			c4.266,0,7.725-3.459,7.725-7.725C215.801,420.703,212.342,417.245,208.076,417.245z"/>
	</g>
</g>
<g>
	<g>
		<path d="M493.204,339.408l-49.685-33.706v-69.948c0-79.935-50.652-148.602-121.439-175.523C318.898,26.441,290.462,0,255.841,0
			s-63.057,26.441-66.239,60.229C118.814,87.151,68.162,155.818,68.162,235.754v70.123l-49.427,33.532
			c-3.531,2.396-4.391,7.158-2.056,10.729c3.603,5.511,8.858,3.08,9.997,2.475v17.77c0,12.593,6.992,23.579,17.296,29.292
			c-1.823,3.217-2.877,6.922-2.877,10.876c0,11.258,8.453,20.562,19.341,21.946v43.34c0,19.94,16.222,36.162,36.162,36.162h318.483
			c19.94,0,36.162-16.222,36.162-36.162v-43.341c10.889-1.384,19.341-10.688,19.341-21.946c0-3.908-1.027-7.576-2.811-10.766
			c10.41-5.682,17.488-16.731,17.488-29.402v-17.77c1.139,0.605,6.566,2.349,9.997-2.475
			C497.732,346.661,496.734,341.804,493.204,339.408z M383.04,123.112c31.538,38.263,42.563,82.328,43.641,90.763H383.04V123.112z
			 M383.04,229.325h44.899c0.062,1.67-0.032,111.183-0.075,159.081H383.04V229.325z M323.303,77.076
			c17.334,7.63,31.982,17.932,44.288,29.51v107.289h-44.288V77.076z M323.303,229.326h44.288v159.081h-44.288v-14.66
			c11-1.281,19.569-10.643,19.569-21.981c0-11.338-8.569-20.7-19.569-21.981v-36.43c11.73-0.544,21.114-10.229,21.114-22.091
			c0-11.862-9.384-21.549-21.114-22.091V229.326z M187.864,358.459c-3.691,0-6.695-3.003-6.695-6.695s3.003-6.695,6.695-6.695
			h132.864c3.691,0,6.695,3.003,6.695,6.695s-3.003,6.695-6.695,6.695H187.864z M307.854,373.908v14.497h-45.833v-14.497H307.854z
			 M246.572,373.908v14.497h-42.743v-14.497H246.572z M203.829,329.62v-36.215h42.743v36.215H203.829z M262.021,329.62v-36.215
			h45.833v36.215H262.021z M262.021,213.875V63.622c16.857,0.536,32.08,3.27,45.833,7.627v142.626H262.021z M307.854,229.324v19.794
			h-45.833v-19.794H307.854z M255.841,15.449c24.137,0,44.398,16.829,49.715,39.365c-15.85-4.383-32.52-6.739-49.715-6.739
			c-17.193,0-33.862,2.356-49.71,6.738C211.448,32.278,231.705,15.449,255.841,15.449z M203.829,71.108
			c12.892-4.017,27.105-6.603,42.743-7.343v150.11h-42.743V71.108z M203.829,229.324h42.743v19.794h-42.743V229.324z
			 M322.273,264.567c3.691,0,6.695,3.003,6.695,6.695s-3.003,6.695-6.695,6.695H189.409c-3.691,0-6.695-3.003-6.695-6.695
			s3.003-6.695,6.695-6.695H322.273z M144.092,106.028c12.287-11.464,26.926-21.652,44.288-29.18v137.027h-44.288V106.028z
			 M144.092,229.325h44.288v19.845c-11.73,0.544-21.114,10.229-21.114,22.091c0,11.862,9.384,21.549,21.114,22.091v36.268h-0.515
			c-12.21,0-22.144,9.934-22.144,22.144s9.934,22.144,22.144,22.144h0.515v14.497h-44.288V229.325z M128.642,122.443v91.433H85.001
			C86.086,205.391,96.824,160.859,128.642,122.443z M83.744,229.325h44.899v159.081H83.619
			C83.636,340.509,83.682,230.994,83.744,229.325z M42.126,370.382v-28.173l26.036-17.664v63.861H60.15
			C50.212,388.406,42.126,380.32,42.126,370.382z M375.443,496.551H136.195v-8.927h239.292L375.443,496.551z M448.442,417.245
			H240.52c-4.266,0-7.725,3.459-7.725,7.725c0,4.266,3.459,7.725,7.725,7.725h195.275v43.144c0,11.421-9.291,20.712-20.326,20.712
			h-24.532v-11.501c0-7.099-5.775-12.874-12.874-12.874H133.62c-7.099,0-12.874,5.775-12.874,12.874v11.501h-23.76
			c-11.807,0-21.099-9.291-21.099-20.712v-43.145h82.751c4.266,0,7.725-3.459,7.725-7.725c0-4.266-3.459-7.725-7.725-7.725H63.24
			c-3.691,0-6.695-3.003-6.695-6.695c0-3.691,3.003-6.695,6.695-6.695h385.202c3.691,0,6.695,3.003,6.695,6.695
			C455.137,414.24,452.133,417.245,448.442,417.245z M469.814,370.382c0,20.284-21.372,18.024-21.372,18.024h-4.922v-64.035
			l26.294,17.838V370.382z"/>
	</g>
</g>
<g>
</g>
<g>
</g>
<g>
</g>
<g>
</g>
<g>
</g>
<g>
</g>
<g>
</g>
<g>
</g>
<g>
</g>
<g>
</g>
<g>
</g>
<g>
</g>
<g>
</g>
<g>
</g>
<g>
</g>
</svg>
