<?xml version="1.0" encoding="iso-8859-1"?>
<!-- Generator: Adobe Illustrator 19.0.0, SVG Export Plug-In . SVG Version: 6.00 Build 0)  -->
<svg version="1.1" id="Layer_1" xmlns="http://www.w3.org/2000/svg" xmlns:xlink="http://www.w3.org/1999/xlink" x="0px" y="0px"
	 viewBox="0 0 511.999 511.999" style="enable-background:new 0 0 511.999 511.999;" xml:space="preserve">
<g>
	<g>
		<path d="M505.3,67.709l-60.634-60.63c-4.315-4.314-10.068-6.692-16.2-6.692s-11.884,2.378-16.2,6.692
			c-4.315,4.315-6.692,10.068-6.692,16.2s2.377,11.885,6.692,16.2l24.632,24.63l-15.876,15.876l-24.943-24.943
			c-7.499-7.499-19.7-7.499-27.2,0L118.747,305.175c-7.499,7.499-7.499,19.701,0,27.2l6.565,6.565l-8.453,8.453
			c-2.812,2.812-4.361,6.559-4.361,10.55s1.549,7.738,4.361,10.548l7.778,7.778L2.26,498.647c-3.013,3.014-3.013,7.899,0,10.913
			c1.506,1.506,6.77,3.746,10.913,0L135.55,387.182l7.578,7.579c2.909,2.907,6.728,4.361,10.548,4.361
			c3.82,0,7.64-1.454,10.549-4.361l8.455-8.455l6.565,6.565c3.624,3.625,8.454,5.62,13.6,5.62c5.146,0,9.977-1.995,13.6-5.619
			l35.897-35.897c3.013-3.014,3.013-7.899,0-10.913c-3.012-3.012-7.898-3.012-10.912,0l-35.898,35.898
			c-0.957,0.957-2.095,1.099-2.687,1.099c-0.593,0-1.73-0.143-2.687-1.1l-60.497-60.497c-1.457-1.457-1.457-3.918,0-5.375
			l38.947-38.947l6.178,6.178l-27.313,27.313c-4.479,4.48-4.479,11.809,0,16.287l37.229,37.229c2.24,2.24,5.192,3.359,8.144,3.359
			c2.952,0,5.904-1.119,8.144-3.359l129.312-129.312c0.453,0.081,3.213,1.027,6.826-2.133c3.209-2.806,3.013-7.899,0-10.913
			l-18.042-18.042l101.938-101.939l24.642,24.642c0.957,0.957,1.1,2.094,1.1,2.687c0,0.593-0.143,1.732-1.1,2.687L274.64,302.852
			c-3.013,3.014-3.013,7.899,0,10.913c3.013,3.012,7.899,3.012,10.912,0L456.578,142.74c3.624-3.624,5.619-8.454,5.619-13.6
			c0-5.147-1.996-9.977-5.619-13.601l-24.642-24.642l15.876-15.876l25.09,25.089c4.315,4.314,10.068,6.691,16.2,6.691
			c6.131,0,11.884-2.378,16.2-6.693C514.232,91.178,514.232,76.643,505.3,67.709z M136.225,349.854l25.541,25.541l-8.09,8.09
			l-25.541-25.541L136.225,349.854z M249.27,196.478l6.178,6.178l-29.418,29.418l-6.178-6.178L249.27,196.478z M208.938,236.81
			l6.178,6.178l-29.418,29.418l-6.178-6.178L208.938,236.81z M192.845,350.467l-31.692-31.692l24.587-24.502l15.803,15.803
			c1.506,1.506,6.28,4.406,10.913,0c3.088-2.938,3.013-7.899,0-10.913l-15.784-15.784l29.47-29.367l5.457,5.457
			c1.506,1.506,6.833,3.83,10.913,0c3.107-2.918,3.013-7.899,0-10.913l-5.437-5.437l29.47-29.368l15.663,15.663
			c1.506,1.506,7.41,3.406,10.912,0c3.056-2.971,3.013-7.899,0-10.913l-15.643-15.643l9.463-9.43l31.304,31.304L192.845,350.467z
			 M308.173,192.837l-19.573-19.573c-3.013-3.012-7.899-3.012-10.912,0c-2.352,2.352-2.859,5.841-1.54,8.694l-9.786,9.786
			l-6.178-6.178l29.418-29.418l22.66,22.66c3.419,3.3,7.308,2.088,8.186,1.755L308.173,192.837z M324.928,176.08
			c1.039-2.75,0.459-5.972-1.755-8.187l-22.659-22.659l29.418-29.418l27.63,27.63L324.928,176.08z M368.476,132.533l-27.63-27.63
			l38.947-38.946c0.957-0.957,2.095-1.1,2.687-1.1s1.732,0.144,2.687,1.1l24.943,24.943L368.476,132.533z M494.388,89.198
			c-4.15,3.83-9.174,1.4-10.574,0l-60.635-60.631c-1.4-1.4-4.059-6.528,0-10.573c4.829-4.813,9.174-1.4,10.574,0l60.634,60.63
			C497.303,81.538,497.417,86.402,494.388,89.198z"/>
	</g>
</g>
<g>
	<g>
		<path d="M268.083,320.32c-3.012-3.012-7.898-3.013-10.912,0.001l-8.767,8.767c-3.013,3.013-3.05,7.937,0,10.912
			c4.43,4.319,9.406,1.506,10.912-0.001l8.767-8.767C271.097,328.219,271.097,323.333,268.083,320.32z"/>
	</g>
</g>
<g>
	<g>
		<path d="M201.219,318.372c-1.43-1.44-3.426-2.263-5.453-2.263s-4.023,0.823-5.453,2.263c-1.44,1.43-2.263,3.426-2.263,5.453
			s0.823,4.023,2.263,5.453c1.43,1.439,3.426,2.263,5.453,2.263s4.023-0.823,5.453-2.263c1.44-1.43,2.263-3.416,2.263-5.453
			C203.482,321.787,202.659,319.802,201.219,318.372z"/>
	</g>
</g>
<g>
	<g>
		<path d="M237.296,281.101c-1.43-1.44-3.426-2.263-5.453-2.263s-4.023,0.823-5.453,2.263c-1.44,1.43-2.263,3.426-2.263,5.453
			s0.823,4.023,2.263,5.453c1.43,1.44,3.426,2.263,5.453,2.263s4.023-0.823,5.453-2.263c1.44-1.43,2.263-3.416,2.263-5.453
			S238.736,282.531,237.296,281.101z"/>
	</g>
</g>
<g>
	<g>
		<path d="M275.049,246.388c-1.43-1.44-3.426-2.263-5.453-2.263s-4.023,0.823-5.453,2.263c-1.44,1.43-2.263,3.426-2.263,5.453
			s0.823,4.023,2.263,5.453c1.431,1.44,3.427,2.263,5.453,2.263c2.027,0,4.023-0.823,5.453-2.263c1.44-1.43,2.263-3.416,2.263-5.453
			C277.312,249.803,276.489,247.818,275.049,246.388z"/>
	</g>
</g>
<g>
</g>
<g>
</g>
<g>
</g>
<g>
</g>
<g>
</g>
<g>
</g>
<g>
</g>
<g>
</g>
<g>
</g>
<g>
</g>
<g>
</g>
<g>
</g>
<g>
</g>
<g>
</g>
<g>
</g>
</svg>
