<?xml version="1.0" encoding="iso-8859-1"?>
<!-- Generator: Adobe Illustrator 19.0.0, SVG Export Plug-In . SVG Version: 6.00 Build 0)  -->
<svg version="1.1" id="Layer_1" xmlns="http://www.w3.org/2000/svg" xmlns:xlink="http://www.w3.org/1999/xlink" x="0px" y="0px"
	 viewBox="0 0 512.001 512.001" style="enable-background:new 0 0 512.001 512.001;" xml:space="preserve">
<g>
	<g>
		<path d="M305.07,437.244h-26.765c-4.265,0-7.721,3.456-7.721,7.721c0,4.265,3.456,7.721,7.721,7.721h26.765
			c4.265,0,7.721-3.456,7.721-7.721C312.791,440.7,309.334,437.244,305.07,437.244z"/>
	</g>
</g>
<g>
	<g>
		<path d="M439.753,437.244h-11.588V297.931c0-45.823-17.953-89.012-50.553-121.61c-26.035-26.036-58.611-42.722-94.416-48.41
			c-3.657-8.059-10.787-14.216-19.475-16.545V62.554c13.79-3.458,24.034-15.954,24.034-30.8C287.755,14.244,273.51,0,256.001,0
			s-31.754,14.244-31.754,31.754c0,14.847,10.244,27.343,24.033,30.8v48.811c-8.686,2.329-15.816,8.485-19.474,16.543
			c-35.805,5.689-68.386,22.381-94.417,48.411c-3.015,3.016-2.803,7.705,0,10.919c3.355,3.848,9.411,1.507,10.918,0
			c22.465-22.466,50.273-37.285,80.839-43.18c0,0,0.034,15.057,0.083,15.756c-29.809,6.431-56.955,22.498-77.117,45.818
			c-22.179,25.652-34.393,58.431-34.393,92.297v139.313H99.277V297.931c0-31.069,9.094-61.056,26.301-86.719
			c2.375-3.541,1.429-8.338-2.113-10.712c-3.542-2.372-8.338-1.429-10.712,2.113c-18.917,28.216-28.917,61.177-28.917,95.319
			v139.313H72.248c-12.772,0-23.162,10.391-23.162,23.162c0,12.771,10.39,23.162,23.162,23.162h11.588v5.27
			c0,12.771,10.39,23.162,23.162,23.162s23.162-10.391,23.162-23.162v-5.27h251.681v5.27c0,12.771,10.391,23.162,23.162,23.162
			c12.771,0,23.162-10.391,23.162-23.162v-5.27h11.588c12.771,0,23.162-10.391,23.162-23.162
			C462.915,447.636,452.524,437.244,439.753,437.244z M285.854,144.058c30.567,5.894,58.37,20.71,80.839,43.181
			c29.684,29.681,46.031,68.993,46.031,110.691v139.313h-15.441V297.931c0-33.719-12.119-66.388-34.128-91.989
			c-20.177-23.472-47.441-39.667-77.384-46.127C285.82,159.117,285.854,144.058,285.854,144.058z M239.688,31.754
			c0-8.994,7.317-16.312,16.312-16.312s16.313,7.317,16.313,16.312c0,6.473-3.799,12.061-9.275,14.694
			c-1.209-2.685-3.902-4.557-7.038-4.557c-3.136,0-5.829,1.872-7.038,4.557C243.486,43.813,239.688,38.227,239.688,31.754z
			 M241.589,140.201c0-7.947,6.465-14.412,14.412-14.412c7.947,0,14.412,6.465,14.412,14.412v17.5
			c0,7.947-6.465,14.412-14.412,14.412c-7.947,0-14.412-6.465-14.412-14.412V140.201z M114.719,488.838
			c0,4.258-3.463,7.721-7.721,7.721c-4.258,0-7.721-3.463-7.721-7.721v-5.27h15.441V488.838z M412.724,488.838
			c0,4.258-3.463,7.721-7.721,7.721s-7.721-3.463-7.721-7.721v-5.27h15.441V488.838z M439.753,468.127H72.248
			c-4.258,0-7.721-3.463-7.721-7.721s3.463-7.721,7.721-7.721h173.801c4.264,0,7.721-3.456,7.721-7.721
			c0-4.265-3.457-7.721-7.721-7.721H130.16V297.931c0-59.673,43.142-111.804,101.191-123.412
			c5.382,7.864,14.422,13.036,24.65,13.036s19.268-5.173,24.651-13.037c58.903,11.672,101.19,62.861,101.19,123.413v139.313h-43.829
			c-4.265,0-7.721,3.456-7.721,7.721c0,4.265,3.456,7.721,7.721,7.721h101.741c4.258,0,7.721,3.463,7.721,7.721
			S444.011,468.127,439.753,468.127z"/>
	</g>
</g>
<g>
</g>
<g>
</g>
<g>
</g>
<g>
</g>
<g>
</g>
<g>
</g>
<g>
</g>
<g>
</g>
<g>
</g>
<g>
</g>
<g>
</g>
<g>
</g>
<g>
</g>
<g>
</g>
<g>
</g>
</svg>
