<?xml version="1.0" encoding="iso-8859-1"?>
<!-- Generator: Adobe Illustrator 19.0.0, SVG Export Plug-In . SVG Version: 6.00 Build 0)  -->
<svg version="1.1" id="Layer_1" xmlns="http://www.w3.org/2000/svg" xmlns:xlink="http://www.w3.org/1999/xlink" x="0px" y="0px"
	 viewBox="0 0 511.999 511.999" style="enable-background:new 0 0 511.999 511.999;" xml:space="preserve">
<g>
	<g>
		<path d="M509.777,79.935c-3.993-7.621-12.467-11.67-20.838-10.056c1.192-6.264-0.811-12.847-5.34-17.373
			c-4.525-4.521-11.098-6.521-17.353-5.34c1.186-6.255-0.818-12.831-5.342-17.355c-4.524-4.522-11.09-6.524-17.345-5.342
			c1.635-8.543-2.552-17.078-10.416-20.996c-8.148-4.055-17.872-1.976-23.648,5.058l-30.874,37.609
			c-11.404-2.449-40.234,4.998-47.308,34.143c-3.489,0.363-37.542,7.37-36.678,45.176c-2.373,0.415-20.634,2.475-22.54,25.732
			c-3.419,0.201-20.906,3.101-25.567,25.589c-3.427,0.198-22.204,1.717-25.591,25.591c-3.427,0.199-21.706,0.837-25.577,25.59
			c-3.432,0.197-21.472-0.166-25.605,25.593c-3.427,0.199-22.735,0.093-25.591,25.591c-3.427,0.199-16.399,0.607-23.272,16.109
			c-18.481-0.201-37.01,8.829-41.855,37.261c0,0-34.918,8.827-33.08,43.829l-18.1,14.859c-3.245,2.664-3.785,7.511-1.052,10.702
			c3.628,4.237,9.286,2.214,10.702,1.052l13.25-10.877c6.961,12.981,20.559,21.561,35.654,21.845
			c11.102,30.404,29.354,44.043,32.495,46.115l-28.325,34.158c-1.288,1.375-3.33,1.724-5.007,0.849
			c-1.709-0.896-2.588-2.83-2.137-4.703l2.682-11.156c0.618-2.573-0.145-5.283-2.015-7.155c-1.873-1.872-4.583-2.634-7.155-2.016
			l-11.156,2.683c-1.41,0.341-2.925-0.086-3.95-1.113c-1.027-1.028-1.454-2.543-1.114-3.953l2.683-11.138
			c0.62-2.574-0.143-5.285-2.014-7.157c-1.872-1.872-4.583-2.634-7.156-2.016L43.1,450.004c-1.414,0.343-2.928-0.088-3.953-1.115
			c-1.027-1.026-1.453-2.541-1.113-3.951l2.683-11.133c0.62-2.574-0.144-5.286-2.015-7.159c-1.872-1.872-4.583-2.636-7.157-2.014
			l-11.131,2.683c-1.914,0.461-3.866-0.448-4.744-2.209c-0.878-1.764-0.428-3.869,1.095-5.12c3.245-2.664,3.716-7.456,1.05-10.702
			c-2.664-3.245-7.456-3.717-10.702-1.05c-7.034,5.775-9.113,15.5-5.056,23.651c3.918,7.862,12.454,12.044,20.996,10.413
			c-1.182,6.254,0.82,12.824,5.342,17.346c4.526,4.524,11.102,6.526,17.355,5.341c-1.185,6.254,0.817,12.828,5.339,17.352
			c4.526,4.53,11.108,6.531,17.373,5.341c-1.608,8.374,2.435,16.844,10.058,20.84c2.858,1.496,14.773,5.427,23.482-4.271
			c0.061-0.068,0.121-0.139,0.179-0.209l31.224-37.655c2.719,0.616,5.45,0.926,8.17,0.926c8.821,0,17.528-3.251,25.352-9.821
			c7.668-6.436,12.663-15.386,14.214-25.165c3.492-0.364,6.913-1.163,10.213-2.407c6.829-2.573,12.875-6.94,17.486-12.626
			c6.272-7.737,9.275-17.078,9.188-26.337c6.079-2.755,14.156-10.6,15.957-23.201c2.839-0.166,23.797,0.202,25.581-25.59
			c2.842-0.165,24.068-1.835,25.591-25.591c2.842-0.165,23.57-2.602,25.592-25.591c2.841-0.165,24-0.583,25.591-25.592
			c2.841-0.165,23.754-2.027,25.62-26.1c2.832-0.167,23.309-0.764,25.144-22.233c1.639,0.198,41.465,4.233,46.477-37.743
			c0.223,0.02,36.173-7.194,32.859-43.493l38.861-32.223c0.071-0.059,0.141-0.119,0.209-0.18
			C512.157,97.486,513.912,87.831,509.777,79.935z M315.424,104.893c2.914-3.593,6.731-6.349,11.036-7.972
			c1.713-0.646,3.476-1.098,5.272-1.369c1.363,6.309,4.216,12.385,8.632,17.666c9.979,11.938,15.032,31.462,12.707,47.413
			c-12.536-4.71-24.12-11.233-33.81-19.087C308.1,132.495,306.379,116.053,315.424,104.893z M127.041,311.308
			c4.475,1.173,8.56,3.513,11.814,6.767c3.812,3.812,6.312,8.753,7.233,14.006c-11.075-2.579-35.056-6.706-50.628-2.945
			C99.422,315.71,113.403,307.735,127.041,311.308z M138.713,451.922c-19.895-3.282-33.841-33.094-36.855-40.331
			c3.246-0.62,6.694-0.945,10.309-0.945c14.152,0,28.954,4.873,38.632,12.718c4.451,3.607,9.619,6.221,15.116,7.72
			C164.744,436.817,154.139,454.467,138.713,451.922z M197.025,407.714c-12.323,15.662-32.037,7.575-36.65,3.836
			c-12.445-10.088-30.467-16.111-48.208-16.111c-6.381,0-12.448,0.787-18.035,2.341c-2.274,0.633-25.455,4.307-32.083-18.113
			c-5.703-19.287,9.468-28.176,18.831-31.704c3.747-1.412,70.469-13.126,112.31,23.101
			C204.054,380.468,205.909,396.422,197.025,407.714z M214.745,375.163c-2.548-6.019-6.555-11.519-11.977-15.914
			c-11.945-9.683-25.973-17.336-41.081-22.631c-0.004-10.884-4.336-21.557-12.078-29.298c-3.734-3.733-8.16-6.693-13.002-8.755
			c4.334-4.62,8.769-4.488,11.186-4.063c20.352,40.097,56.479,62.949,70.862,69.705
			C220.018,369.475,216.046,374.018,214.745,375.163z M253.226,325.994c-3.977-1.734-8.027-3.823-12.037-6.212
			c-3.608-2.145-8.274-0.966-10.423,2.643c-2.148,3.608-0.965,8.275,2.643,10.423c3.59,2.137,7.219,4.061,10.828,5.757
			c0.872,15.662-13.668,14.256-16.604,12.979c-13.615-5.935-27.456-15.714-40.024-28.283
			c-11.727-11.726-21.109-24.687-27.131-37.481c-1.365-2.897-3.571-19.246,12.905-16.908c6.767,13.63,16.771,27.258,29.063,39.551
			c1.485,1.485,6.419,3.733,10.752,0.001c3.182-2.74,2.97-7.784,0.001-10.752c-11.728-11.729-21.11-24.69-27.131-37.483
			c-1.365-2.896-4.577-18.493,12.906-16.907c6.768,13.633,16.772,27.261,29.063,39.552c13.023,13.022,27.412,23.396,41.792,30.151
			C270.539,329.768,256.159,327.271,253.226,325.994z M278.816,300.4c-13.615-5.933-27.455-15.712-40.024-28.281
			c-11.726-11.725-21.108-24.687-27.132-37.482c-2.814-5.98-2.626-19.261,12.906-16.907c6.769,13.634,16.772,27.261,29.063,39.551
			c13.025,13.024,27.414,23.398,41.793,30.152C296.391,305.098,281.753,301.68,278.816,300.4z M345.778,243.02
			c-1.279,2.936-3.624,5.197-6.605,6.368c-2.981,1.171-6.238,1.111-9.175-0.169c-11.857-5.167-24.074-13.386-35.329-23.77
			c-3.087-2.848-7.897-2.653-10.745,0.433c-2.848,3.087-2.653,7.898,0.433,10.745c11.586,10.688,24.198,19.353,36.655,25.21
			c1.569,17.071-13.668,14.253-16.604,12.974c-13.614-5.932-27.454-15.712-40.025-28.282c-11.725-11.724-21.107-24.685-27.13-37.481
			c-1.365-2.897-5.407-18.678,12.927-16.902c2.412,4.857,5.226,9.746,8.437,14.566c1.465,2.199,6.517,4.356,10.544,2.113
			c3.669-2.044,4.44-7.048,2.113-10.544c-3.285-4.93-6.12-9.918-8.429-14.824c-2.815-5.98-0.24-13.138,5.741-15.952
			c2.35-1.106,4.937-1.401,7.439-0.899c6.763,13.444,16.665,26.867,28.787,38.989c12.993,12.992,27.344,23.345,41.691,30.102
			C347.032,238.141,346.789,240.7,345.778,243.02z M355.588,223.122c-13.476-6.245-27.456-15.714-40.024-28.283
			c-11.727-11.726-21.135-24.675-27.131-37.481c-7.25-15.483,8.933-17.061,10.598-17.094c1.996,3.871,16.284,25.942,31.37,40.244
			c10.908,10.34,38.992,30.24,41.964,31.848C372.337,213.911,370.23,229.908,355.588,223.122z M435.795,162.815
			c0.24-3.345,0.376-6.719,0.376-10.125c0-4.2-3.403-7.604-7.604-7.604c-4.2,0-7.604,3.403-7.604,7.604
			c0,10.414-1.26,20.508-3.747,30.003c-3.639,13.899-17.911,22.247-31.806,18.607c-0.895-0.234-24.98-7.086-18.608-31.809
			c5.592-21.703-0.396-48.83-14.77-66.025c-9.197-11.001-7.729-27.463,3.272-36.697c15.402-12.931,29.574-2.993,36.649,4.083
			c2.83,2.828,21.123,25.911,26.8,57.755c0.737,4.135,4.724,6.865,8.851,6.106c4.13-0.758,6.865-4.72,6.106-8.851
			c-0.696-3.793-1.543-7.554-2.524-11.271C457.756,122.105,454.208,155.558,435.795,162.815z M495.46,92.001l-33.942,28.145
			c-7.007-12.916-20.413-21.236-35.494-21.468c-3.628-9.375-12.949-35.374-32.821-46.331l28.046-34.165
			c1.25-1.524,3.354-1.972,5.116-1.096c1.764,0.879,2.674,2.83,2.214,4.744l-2.683,11.132c-0.62,2.573,0.143,5.285,2.014,7.157
			c1.872,1.874,4.583,2.638,7.159,2.016l11.134-2.683c1.41-0.34,2.925,0.086,3.95,1.113c1.028,1.027,1.455,2.542,1.115,3.952
			l-2.683,11.143c-0.619,2.574,0.145,5.285,2.016,7.156c1.874,1.872,4.584,2.637,7.158,2.014l11.134-2.682
			c1.415-0.34,2.93,0.086,3.957,1.114c1.026,1.026,1.453,2.54,1.113,3.95l-2.682,11.156c-0.618,2.573,0.145,5.283,2.015,7.155
			c1.872,1.872,4.583,2.634,7.155,2.015l11.155-2.683c1.88-0.452,3.808,0.43,4.702,2.135
			C497.185,88.669,496.835,90.713,495.46,92.001z"/>
	</g>
</g>
<g>
</g>
<g>
</g>
<g>
</g>
<g>
</g>
<g>
</g>
<g>
</g>
<g>
</g>
<g>
</g>
<g>
</g>
<g>
</g>
<g>
</g>
<g>
</g>
<g>
</g>
<g>
</g>
<g>
</g>
</svg>
