<?xml version="1.0" encoding="iso-8859-1"?>
<!-- Generator: Adobe Illustrator 19.0.0, SVG Export Plug-In . SVG Version: 6.00 Build 0)  -->
<svg version="1.1" id="Layer_1" xmlns="http://www.w3.org/2000/svg" xmlns:xlink="http://www.w3.org/1999/xlink" x="0px" y="0px"
	 viewBox="0 0 512 512" style="enable-background:new 0 0 512 512;" xml:space="preserve">
<g>
	<g>
		<path d="M66.859,339.565c-1.786-4.035-3.46-8.177-4.976-12.308c-1.447-3.943-5.815-5.968-9.758-4.519
			c-3.943,1.448-5.966,5.815-4.519,9.758c1.628,4.439,3.409,8.896,5.346,13.223c2.809,6.273,9.029,4.319,10.031,3.876
			C66.824,347.897,68.558,343.405,66.859,339.565z"/>
	</g>
</g>
<g>
	<g>
		<path d="M480.247,224.247h-4.565c-5.242-36.803-19.572-71.401-41.89-101.131l3.228-3.229c12.379-12.38,12.379-32.526-0.001-44.907
			c-12.38-12.381-32.526-12.377-44.906,0l-3.228,3.228c-29.729-22.317-64.327-36.648-101.131-41.89v-4.564
			C287.753,14.245,273.509,0,256,0c-17.509,0-31.753,14.245-31.753,31.754v4.565c-36.803,5.241-71.401,19.572-101.131,41.89
			l-3.228-3.228c-12.381-12.379-32.526-12.378-44.907,0.001c-12.379,12.38-12.379,32.526,0.001,44.907l3.228,3.227
			c-22.318,29.73-36.649,64.328-41.891,101.132h-4.565C14.245,224.247,0,238.491,0,256c0,17.51,14.245,31.754,31.753,31.754h4.584
			c0.967,6.755,2.234,13.456,3.815,20.069c0.977,4.084,5.072,6.602,9.164,5.626c4.084-0.977,6.603-5.08,5.626-9.164
			c-3.76-15.72-5.667-31.965-5.667-48.285c0-113.988,92.737-206.723,206.724-206.723S462.724,142.012,462.724,256
			S369.988,462.725,256,462.725c-73.637,0-142.282-39.658-179.148-103.5c-2.1-3.636-6.749-4.881-10.388-2.782
			c-3.637,2.1-4.882,6.751-2.782,10.388c4.413,7.641,9.292,14.984,14.561,22.021l-3.262,3.263c-12.38,12.381-12.379,32.526,0,44.906
			c5.998,5.997,13.972,9.301,22.453,9.301c8.482,0,16.456-3.304,22.453-9.301l3.264-3.264c6.488,4.858,13.232,9.389,20.238,13.523
			c24.856,14.664,52.357,24.265,80.859,28.371v4.596C224.247,497.756,238.492,512,256,512s31.753-14.245,31.753-31.753v-4.565
			c36.803-5.241,71.401-19.573,101.132-41.891l3.228,3.227c5.997,5.998,26.865,16.664,44.907,0.001
			c12.862-11.878,12.38-32.525,0-44.907l-3.228-3.228c22.318-29.729,36.648-64.327,41.89-101.13h4.565
			C497.756,287.754,512,273.509,512,256C512,238.491,497.755,224.247,480.247,224.247z M15.208,256
			c-1.016-17.624,19.463-16.545,19.463-16.545c-0.401,5.479-0.603,10.996-0.603,16.545c0,5.529,0.228,11.048,0.635,16.546
			C34.701,272.547,16.222,273.587,15.208,256z M99.07,99.071c-3.924,3.924-7.683,7.969-11.273,12.127
			c0,0-14.494-12.736-2.063-25.462c11.85-12.133,25.462,2.063,25.462,2.063C107.038,91.389,102.994,95.147,99.07,99.071z
			 M272.545,34.673c-5.479-0.401-10.996-0.603-16.545-0.603c-5.549,0-11.067,0.202-16.545,0.603c0,0-1.451-19.113,16.545-19.464
			C274.5,14.849,272.545,34.673,272.545,34.673z M424.202,111.198c-3.59-4.158-7.348-8.202-11.273-12.127
			c-3.923-3.924-7.967-7.682-12.125-11.272c0,0,13.105-14.45,25.461-2.064C437.2,96.695,424.202,111.198,424.202,111.198z
			 M109.133,426.266c-3.125,3.125-7.28,4.846-11.699,4.846c-4.418,0-8.574-1.722-11.699-4.847c-6.451-6.45-6.451-16.948,0-23.398
			l2.086-2.086c7.21,8.365,15.041,16.179,23.407,23.39L109.133,426.266z M256,496.793c-17.236,0.604-16.545-19.482-16.545-19.482
			c5.493,0.41,27.613,0.421,33.091,0.019C272.545,477.329,274.756,496.136,256,496.793z M426.266,426.266
			c-12.081,11.359-25.461-2.063-25.461-2.063c4.157-3.59,8.202-7.348,12.126-11.272s7.682-7.969,11.273-12.126
			C424.203,400.804,438.495,414.767,426.266,426.266z M477.329,272.547c0.401-5.479,0.603-10.997,0.603-16.546
			s-0.203-11.067-0.603-16.545c0,0,19.717-2.367,19.463,16.545C496.567,272.827,477.329,272.547,477.329,272.547z"/>
	</g>
</g>
<g>
	<g>
		<path d="M154.235,113.944c-17.554,0-31.835,14.281-31.835,31.834c0,17.554,14.281,31.835,31.835,31.835
			c17.554,0,31.835-14.281,31.835-31.835C186.07,128.226,171.789,113.944,154.235,113.944z M154.235,162.407
			c-9.168,0-16.627-7.459-16.627-16.627c0-9.168,7.459-16.626,16.627-16.626s16.627,7.458,16.627,16.626
			C170.862,154.948,163.403,162.407,154.235,162.407z"/>
	</g>
</g>
<g>
	<g>
		<path d="M280.23,138.175c-4.2,0-7.604,3.404-7.604,7.604c0,9.168-7.459,16.627-16.627,16.627c-9.168,0-16.627-7.459-16.627-16.627
			s7.46-16.626,16.628-16.626c1.867,0,3.693,0.304,5.428,0.904c3.972,1.373,8.3-0.735,9.67-4.704
			c1.372-3.969-0.735-8.299-4.704-9.67c-3.338-1.154-6.835-1.738-10.395-1.738c-17.554,0-31.835,14.281-31.835,31.834
			c0,17.554,14.281,31.835,31.835,31.835c17.554,0,31.835-14.281,31.835-31.835C287.834,141.578,284.431,138.175,280.23,138.175z"/>
	</g>
</g>
<g>
	<g>
		<path d="M357.765,113.944c-17.554,0-31.835,14.281-31.835,31.834c0,17.554,14.281,31.835,31.835,31.835
			c17.554,0,31.835-14.281,31.835-31.835C389.601,128.226,375.319,113.944,357.765,113.944z M357.765,162.407
			c-9.168,0-16.627-7.459-16.627-16.627c0-9.168,7.459-16.626,16.627-16.626s16.627,7.458,16.627,16.626
			C374.393,154.948,366.934,162.407,357.765,162.407z"/>
	</g>
</g>
<g>
	<g>
		<path d="M154.235,334.387c-17.554,0-31.835,14.281-31.835,31.835c0,17.553,14.281,31.834,31.835,31.834
			c17.554,0,31.835-14.281,31.835-31.834C186.07,348.668,171.789,334.387,154.235,334.387z M154.235,382.85
			c-9.168,0-16.627-7.458-16.627-16.626s7.459-16.627,16.627-16.627s16.627,7.459,16.627,16.627S163.403,382.85,154.235,382.85z"/>
	</g>
</g>
<g>
	<g>
		<path d="M256,334.387c-17.554,0-31.835,14.281-31.835,31.835c0,17.553,14.281,31.834,31.835,31.834
			c17.554,0,31.835-14.281,31.835-31.834C287.835,348.668,273.554,334.387,256,334.387z M256,382.85
			c-9.168,0-16.627-7.458-16.627-16.626s7.459-16.627,16.627-16.627s16.627,7.459,16.627,16.627S265.168,382.85,256,382.85z"/>
	</g>
</g>
<g>
	<g>
		<path d="M357.765,334.387c-17.554,0-31.835,14.281-31.835,31.835c0,17.553,14.281,31.834,31.835,31.834
			c17.554,0,31.835-14.281,31.835-31.834C389.601,348.668,375.319,334.387,357.765,334.387z M357.765,382.85
			c-9.168,0-16.627-7.458-16.627-16.626s7.459-16.627,16.627-16.627s16.627,7.459,16.627,16.627S366.934,382.85,357.765,382.85z"/>
	</g>
</g>
<g>
	<g>
		<path d="M103.351,224.166c-17.553,0-31.834,14.281-31.834,31.834c0,17.554,14.281,31.835,31.834,31.835
			c17.554,0,31.835-14.281,31.835-31.835C135.186,238.448,120.905,224.166,103.351,224.166z M103.352,272.628
			c-9.168,0-16.626-7.459-16.626-16.627s7.458-16.626,16.626-16.626c9.168,0,16.627,7.458,16.627,16.626
			S112.52,272.628,103.352,272.628z"/>
	</g>
</g>
<g>
	<g>
		<path d="M205.116,224.166c-17.553,0-31.834,14.281-31.834,31.834c0,17.554,14.281,31.835,31.834,31.835
			c17.554,0,31.835-14.281,31.835-31.835C236.952,238.448,222.67,224.166,205.116,224.166z M205.117,272.628
			c-9.168,0-16.626-7.459-16.626-16.627s7.458-16.626,16.626-16.626c9.168,0,16.627,7.458,16.627,16.626
			S214.286,272.628,205.117,272.628z"/>
	</g>
</g>
<g>
	<g>
		<path d="M306.883,224.166c-17.554,0-31.835,14.281-31.835,31.834c0,17.554,14.281,31.835,31.835,31.835
			c17.553,0,31.834-14.281,31.834-31.835C338.717,238.448,324.436,224.166,306.883,224.166z M306.884,272.628
			c-9.168,0-16.627-7.459-16.627-16.627s7.459-16.626,16.627-16.626c9.168,0,16.626,7.458,16.626,16.626
			S316.052,272.628,306.884,272.628z"/>
	</g>
</g>
<g>
	<g>
		<path d="M408.649,224.166c-17.554,0-31.835,14.281-31.835,31.834c0,17.554,14.281,31.835,31.835,31.835
			c17.553,0,31.834-14.281,31.834-31.835C440.483,238.448,426.202,224.166,408.649,224.166z M408.648,272.628
			c-9.168,0-16.627-7.459-16.627-16.627s7.459-16.626,16.627-16.626s16.626,7.458,16.626,16.626S417.816,272.628,408.648,272.628z"
			/>
	</g>
</g>
<g>
</g>
<g>
</g>
<g>
</g>
<g>
</g>
<g>
</g>
<g>
</g>
<g>
</g>
<g>
</g>
<g>
</g>
<g>
</g>
<g>
</g>
<g>
</g>
<g>
</g>
<g>
</g>
<g>
</g>
</svg>
