<?xml version="1.0" encoding="iso-8859-1"?>
<!-- Generator: Adobe Illustrator 19.0.0, SVG Export Plug-In . SVG Version: 6.00 Build 0)  -->
<svg version="1.1" id="Layer_1" xmlns="http://www.w3.org/2000/svg" xmlns:xlink="http://www.w3.org/1999/xlink" x="0px" y="0px"
	 viewBox="0 0 512 512" style="enable-background:new 0 0 512 512;" xml:space="preserve">
<g>
	<g>
		<path d="M132.632,105.83c-2.686-3.229-7.481-3.667-10.708-0.982l-12.833,10.677c-3.229,2.686-3.668,7.48-0.982,10.708
			c1.504,1.808,6.446,4.538,10.708,0.982l12.833-10.677C134.879,113.852,135.318,109.058,132.632,105.83z"/>
	</g>
</g>
<g>
	<g>
		<path d="M491.527,189.167L270.359,5.174c-8.292-6.899-20.331-6.899-28.623,0l-97.058,80.745c-3.229,2.686-3.668,7.48-0.982,10.708
			c2.686,3.229,7.481,3.668,10.708,0.982l97.058-80.745c2.658-2.211,6.515-2.21,9.171,0L481.8,200.859
			c4.671,3.772,2.151,8.625,0.927,10.097c-2.528,3.04-7.058,3.454-10.097,0.927L260.91,35.749c-2.818-2.345-6.907-2.344-9.726,0
			L39.345,211.982c-1.649,1.372-6.283,3.483-10.098-0.927c-3.66-4.229-0.545-8.872,0.927-10.097l67.198-55.903
			c3.229-2.686,3.668-7.48,0.982-10.708c-2.686-3.229-7.481-3.668-10.708-0.982l-67.199,55.903
			c-9.486,7.892-10.782,22.029-2.892,31.514c4.265,5.127,16.395,13.925,31.514,2.892l8.729-7.262v230.858
			c0,20.413,16.549,37.028,36.935,37.147v13.897c0,7.547,6.14,13.687,13.687,13.687h29.2c7.547,0,13.687-6.14,13.687-13.687v-13.891
			h209.355v13.891c0,7.547,6.14,13.687,13.687,13.687h29.2c7.547,0,13.687-6.14,13.687-13.687v-13.896
			c20.386-0.118,36.935-16.734,36.935-37.147V216.311l8.729,7.262c4.595,3.823,19.681,11.135,31.514-2.892
			C502.375,211.251,501.012,197.059,491.527,189.167z M256.047,51.486l42.853,35.65h-85.707L256.047,51.486z M194.913,102.344
			h122.268l59.178,49.231H135.736L194.913,102.344z M136.101,496.792h-26.159v-12.37h26.159V496.792z M164.172,469.214h-69.22
			c-12.1,0-21.944-9.844-21.944-21.944v-26.377h91.164V469.214z M164.172,306.918v35.241h-15.316c-4.199,0-7.604,3.405-7.604,7.604
			c0,4.199,3.405,7.604,7.604,7.604h15.316v48.32H73.008v-48.321h45.582c4.199,0,7.604-3.405,7.604-7.604
			c0-4.199-3.405-7.604-7.604-7.604H73.008v-48.32h92.1C164.496,298.112,164.172,302.477,164.172,306.918z M73.008,278.63v-48.32
			h132.431c-17.175,11.371-30.321,28.356-36.801,48.32H73.008z M332.595,469.214L332.595,469.214H179.38V306.918
			c0-42.242,34.366-76.607,76.607-76.607s76.607,34.366,76.607,76.607V469.214z M402.031,496.792h-26.159v-12.37h26.159V496.792z
			 M438.966,447.27c0,12.1-9.844,21.944-21.944,21.944h-69.22v-48.321h91.164V447.27z M438.966,405.685h-91.164v-48.32h91.164
			V405.685z M438.966,278.63h-42.053c-4.199,0-7.604,3.405-7.604,7.604s3.405,7.604,7.604,7.604h42.053v48.32h-91.164v-35.241
			c0-4.44-0.323-8.805-0.936-13.079h19.632c4.199,0,7.604-3.405,7.604-7.604s-3.405-7.604-7.604-7.604h-22.86h-0.302
			c-6.481-19.964-19.625-36.949-36.801-48.32h132.431V278.63z M438.967,215.103h-0.001H73.008V203.76l44.448-36.977h276.608v-0.48
			l44.904,37.356V215.103z"/>
	</g>
</g>
<g>
</g>
<g>
</g>
<g>
</g>
<g>
</g>
<g>
</g>
<g>
</g>
<g>
</g>
<g>
</g>
<g>
</g>
<g>
</g>
<g>
</g>
<g>
</g>
<g>
</g>
<g>
</g>
<g>
</g>
</svg>
