<?xml version="1.0" encoding="iso-8859-1"?>
<!-- Generator: Adobe Illustrator 19.0.0, SVG Export Plug-In . SVG Version: 6.00 Build 0)  -->
<svg version="1.1" id="Layer_1" xmlns="http://www.w3.org/2000/svg" xmlns:xlink="http://www.w3.org/1999/xlink" x="0px" y="0px"
	 viewBox="0 0 512 512" style="enable-background:new 0 0 512 512;" xml:space="preserve">
<g>
	<g>
		<path d="M353.772,341.283h-39.515c-4.2,0-7.604,3.404-7.604,7.604s3.404,7.604,7.604,7.604h39.515
			c4.199,0,7.604-3.404,7.604-7.604S357.972,341.283,353.772,341.283z"/>
	</g>
</g>
<g>
	<g>
		<path d="M292.628,341.283h-20.953c-4.2,0-7.604,3.404-7.604,7.604s3.404,7.604,7.604,7.604h20.953c4.2,0,7.604-3.404,7.604-7.604
			S296.828,341.283,292.628,341.283z"/>
	</g>
</g>
<g>
	<g>
		<path d="M373.035,151.905h-36.983c0.191-1.071,0.307-2.167,0.307-3.291v-29.395c0-5.751-2.607-10.899-6.695-14.342l38.08-78.61
			c2.763-5.704,2.403-12.315-0.963-17.69C363.414,3.206,357.619,0,351.282,0H162.197c-7.524,0-13.996,4.568-16.803,11.075h-6.429
			c-10.342,0-18.756,8.414-18.756,18.756v15.46c0,10.342,8.414,18.756,18.756,18.756h6.509c2.324,5.24,7.043,9.284,12.887,10.536
			c0.18,0.04,6.815,1.512,16.593,4.713c-4.485,14.262-11.952,31.549-23.873,43.499c-2.677,2.683-4.151,6.246-4.151,10.035
			c0,7.479,4.85,10.826,8.391,13.268c1.358,0.938,12.204,8.376,12.207,8.378c1.849,1.267,7.364,3.824,12.374,1.732
			c-4.16,3.443-6.815,8.643-6.815,14.453v61.65c0,4.2,3.404,7.604,7.604,7.604s7.604-3.404,7.604-7.604v-61.65
			c0-1.923,1.625-3.549,3.548-3.549h181.191c1.923,0,3.549,1.625,3.549,3.549v98.421h-15.208v-68.005
			c0-10.342-8.414-18.756-18.756-18.756H222.26c-10.342,0-18.756,8.414-18.756,18.756v68.005h-15.208v-7.874
			c0-4.2-3.404-7.604-7.604-7.604s-7.604,3.404-7.604,7.604v29.402c0,4.2,3.404,7.604,7.604,7.604s7.604-3.404,7.604-7.604v-6.32
			h188.288V371.7H188.295v-51.691c0-4.2-3.404-7.604-7.604-7.604s-7.604,3.404-7.604,7.604v173.234
			c0,10.342,8.414,18.756,18.756,18.756h181.191c10.342,0,18.756-8.414,18.756-18.756V170.661
			C391.792,160.319,383.377,151.905,373.035,151.905z M143.904,48.841h-4.938c-1.923,0-3.549-1.625-3.549-3.549v-15.46
			c0-1.923,1.625-3.549,3.549-3.549h4.938V48.841z M161.551,59.713c-1.413-0.302-2.438-1.57-2.438-3.016V18.292
			c0-1.701,1.383-3.084,3.084-3.084h189.085c1.07,0,2.047,0.54,2.613,1.445c0.569,0.907,0.63,2.023,0.163,2.984l-39.38,81.256
			c0,0-68.436-0.393-68.946-0.352C212.925,70.905,162.065,59.824,161.551,59.713z M175.531,141.525
			c-2.282-1.565-12.448-8.546-12.852-8.836c13.341-13.795,21.608-32.624,26.575-48.195c7.883,3.16,16.512,7.139,24.929,12.019
			C201.701,120.811,180.959,137.442,175.531,141.525z M228.826,151.905h-36.983c-2.216,0-4.335,0.407-6.31,1.115
			c7.025-5.405,28.015-22.884,41.451-48.158c1.644,1.212,3.259,2.464,4.832,3.757c-2.075,3.018-3.297,6.667-3.297,10.599v29.395
			C228.519,149.738,228.636,150.834,228.826,151.905z M259.121,151.905h-13.127c-1.311-0.527-2.266-1.818-2.266-3.291v-29.395
			c0-1.923,1.625-3.549,3.549-3.549h11.845V151.905z M290.55,151.905h-16.222V115.67h16.222V151.905z M321.152,148.614
			L321.152,148.614c0,1.473-0.955,2.764-2.266,3.291h-13.128V115.67h11.845c1.923,0,3.549,1.625,3.549,3.549V148.614z
			 M346.168,269.082H218.711v-68.005c0-1.923,1.625-3.549,3.549-3.549h120.36c1.923,0,3.549,1.625,3.549,3.549V269.082z
			 M218.711,386.907h127.457v75.921c0,1.923-1.625,3.549-3.549,3.549H222.26c-1.923,0-3.549-1.625-3.549-3.549V386.907z
			 M376.584,493.244c0,1.923-1.625,3.549-3.549,3.549H191.844c-1.923,0-3.549-1.625-3.549-3.549V386.907h15.208v75.921
			c0,10.342,8.414,18.756,18.756,18.756h120.36c10.342,0,18.756-8.414,18.756-18.756v-75.921h15.208V493.244z"/>
	</g>
</g>
<g>
</g>
<g>
</g>
<g>
</g>
<g>
</g>
<g>
</g>
<g>
</g>
<g>
</g>
<g>
</g>
<g>
</g>
<g>
</g>
<g>
</g>
<g>
</g>
<g>
</g>
<g>
</g>
<g>
</g>
</svg>
