<?xml version="1.0" encoding="iso-8859-1"?>
<!-- Generator: Adobe Illustrator 19.0.0, SVG Export Plug-In . SVG Version: 6.00 Build 0)  -->
<svg version="1.1" id="Layer_1" xmlns="http://www.w3.org/2000/svg" xmlns:xlink="http://www.w3.org/1999/xlink" x="0px" y="0px"
	 viewBox="0 0 512 512" style="enable-background:new 0 0 512 512;" xml:space="preserve">
<g>
	<g>
		<path d="M490.202,425.805H325.453V315.799c5.374,3.594,11.82,5.705,18.756,5.705c18.66,0,33.843-15.182,33.843-33.842
			c0-16.045-11.229-29.508-26.239-32.97V107.169c0-42.435-42.578-51.488-43.369-51.666c-2.885-8.662-11.054-14.932-20.673-14.932
			h-63.536c-9.62,0-17.787,6.27-20.673,14.932c-9.721,2.19-17.01,10.879-17.01,21.251v99.912c0,4.199,3.404,7.604,7.604,7.604
			c2.998,0,5.583-1.739,6.821-4.259h109.266v24.067H201.761c0-4.199-3.405-7.603-7.604-7.603c-4.2,0-7.604,3.405-7.604,7.604
			v221.727H21.798C9.779,425.806,0,435.584,0,447.604v2.028c0,12.019,9.779,21.798,21.798,21.798h301.117
			c4.2,0,7.604-3.405,7.604-7.604s-3.404-7.604-7.604-7.604H21.798c-3.634,0-6.59-2.956-6.59-6.59v-2.028
			c0-3.634,2.956-6.59,6.59-6.59h468.404c3.634,0,6.59,2.956,6.59,6.59v2.028c0,3.634-2.956,6.59-6.59,6.59h-90.234
			c-4.2,0-7.604,3.405-7.604,7.604s3.404,7.604,7.604,7.604h90.234c12.019,0,21.798-9.779,21.798-21.798v-2.028
			C512,435.583,502.221,425.805,490.202,425.805z M344.209,269.028c10.276,0,18.635,8.359,18.635,18.634
			s-8.359,18.634-18.635,18.634c-10.274,0-18.634-8.359-18.634-18.634S333.935,269.028,344.209,269.028z M325.453,80.732
			c6.873,6.723,11.152,16.087,11.152,26.437v147.527c-4.044,0.933-7.804,2.599-11.152,4.839V80.732z M310.245,425.806H201.761
			V415.66h108.483V425.806z M310.245,400.452H201.761v-24.067h108.483V400.452z M310.245,361.177H201.761V337.11h108.483V361.177z
			 M310.245,321.902H201.761v-24.067h108.483V321.902z M310.245,282.627H201.761V258.56h108.483V282.627z M310.245,243.352H201.761
			v-24.067h108.483V243.352z M310.245,164.802H201.761v-24.067h108.483V164.802z M310.245,125.527H201.761V101.46h108.483V125.527z
			 M310.245,86.252H201.761v-9.498c0-3.634,2.956-6.59,6.59-6.59h95.303c3.634,0,6.59,2.956,6.59,6.59V86.252z"/>
	</g>
</g>
<g>
	<g>
		<path d="M371.58,456.22h-19.767c-4.2,0-7.604,3.405-7.604,7.604c0,4.199,3.404,7.604,7.604,7.604h19.767
			c4.2,0,7.604-3.405,7.604-7.604C379.184,459.625,375.781,456.22,371.58,456.22z"/>
	</g>
</g>
<g>
</g>
<g>
</g>
<g>
</g>
<g>
</g>
<g>
</g>
<g>
</g>
<g>
</g>
<g>
</g>
<g>
</g>
<g>
</g>
<g>
</g>
<g>
</g>
<g>
</g>
<g>
</g>
<g>
</g>
</svg>
