<?xml version="1.0" encoding="iso-8859-1"?>
<!-- Generator: Adobe Illustrator 19.0.0, SVG Export Plug-In . SVG Version: 6.00 Build 0)  -->
<svg version="1.1" id="Layer_1" xmlns="http://www.w3.org/2000/svg" xmlns:xlink="http://www.w3.org/1999/xlink" x="0px" y="0px"
	 viewBox="0 0 512 512" style="enable-background:new 0 0 512 512;" xml:space="preserve">
<g>
	<g>
		<path d="M484.961,328.167h-7.629c-22.157-74.836-81.011-133.44-83.553-135.942c-6.006-5.918-13.957-9.176-22.387-9.176h-5.442
			c-0.035-0.12-0.081-0.235-0.118-0.354c-0.175-0.565-0.364-1.123-0.564-1.677c-0.111-0.306-0.223-0.61-0.341-0.912
			c-0.147-0.376-0.304-0.746-0.463-1.116c-0.286-0.671-0.592-1.331-0.914-1.982c-0.058-0.117-0.115-0.233-0.173-0.349
			c-4.467-8.788-12.206-15.671-21.661-18.956c-4.618-16.242-19.697-27.945-36.968-27.945c-9.041,0-17.572,3.103-24.371,8.707
			c-6.798-5.605-15.329-8.707-24.371-8.707c-8.672,0-16.96,2.904-23.656,8.144c-6.695-5.241-14.985-8.144-23.656-8.144
			c-17.042,0-32.029,11.475-36.822,27.433c-12.392,3.708-22.115,13.507-25.797,25.857h-5.464c-8.431,0-16.382,3.259-22.387,9.176
			c-2.547,2.509-61.395,61.122-83.55,135.942h-7.635C12.129,328.167,0,340.296,0,355.205s12.129,27.037,27.038,27.037h266.475
			c4.2,0,7.604-3.405,7.604-7.604c0-4.199-3.404-7.604-7.604-7.604H27.038c-6.523,0-11.83-5.307-11.83-11.83
			s5.307-11.831,11.83-11.831h457.924c6.524,0,11.831,5.307,11.831,11.831s-5.307,11.83-11.831,11.83h-117.1
			c-4.2,0-7.604,3.405-7.604,7.604c0,4.199,3.404,7.604,7.604,7.604h117.1c14.909,0,27.039-12.129,27.039-27.037
			S499.871,328.167,484.961,328.167z M349.556,183.048h-40.899c3.954-7.332,11.728-12.255,20.459-12.255
			C337.799,170.792,345.588,175.726,349.556,183.048z M182.667,170.792c6.792,0,13.224,2.962,17.647,8.128
			c1.504,1.756,3.635,2.658,5.779,2.658c1.75,0,3.509-0.6,4.943-1.828c3.19-2.731,3.562-7.532,0.829-10.722
			c-5.943-6.94-14.08-11.476-22.951-12.934c4.133-6.693,11.55-11.129,19.778-11.129c6.894,0,13.391,3.041,17.822,8.342
			c1.445,1.729,3.581,2.727,5.834,2.727c2.253,0,4.389-0.999,5.834-2.726c4.433-5.301,10.928-8.342,17.823-8.342
			c5.477,0,10.644,1.891,14.76,5.299c-1.533,2.904-2.706,5.995-3.452,9.216c-0.948,4.091,1.6,8.176,5.691,9.124
			c0.578,0.134,1.156,0.198,1.724,0.198c3.458,0,6.586-2.375,7.401-5.888c0.773-3.335,9.188-17.948,22.619-17.948
			c8.166,0,15.502,4.339,19.652,10.92c-15.106,1.88-27.781,12.652-32.11,27.163H162.436
			C165.817,176.756,171.005,170.792,182.667,170.792z M50.581,328.166c21.961-69.006,75.935-122.762,78.316-125.109
			c3.142-3.096,7.302-4.802,11.713-4.802h230.782c4.411,0,8.571,1.705,11.714,4.802c2.376,2.341,56.35,56.084,78.316,125.109H50.581
			z"/>
	</g>
</g>
<g>
	<g>
		<path d="M340.826,367.035h-21.63c-4.2,0-7.604,3.405-7.604,7.604c0,4.199,3.404,7.604,7.604,7.604h21.63
			c4.2,0,7.604-3.405,7.604-7.604C348.43,370.439,345.026,367.035,340.826,367.035z"/>
	</g>
</g>
<g>
	<g>
		<path d="M300.761,228.333c-6.608-6.608-15.394-10.248-24.739-10.248c-7.263,0-14.189,2.198-20.017,6.28
			c-5.829-4.082-12.753-6.28-20.017-6.28c-9.346,0-18.132,3.639-24.741,10.247c-7.034,7.035-10.742,16.759-10.186,26.702
			c0.107,3.847,2.464,37.435,51.352,63.634c1.121,0.601,2.356,0.902,3.591,0.902c1.229,0,2.458-0.297,3.574-0.892
			c2.098-1.117,51.375-27.774,51.375-63.946C310.954,244.13,307.429,235.003,300.761,228.333z M255.961,303.248
			c-38.656-22.178-39.673-47.492-39.697-48.505c0-0.156-0.004-0.313-0.014-0.469c-0.341-5.655,1.755-11.191,5.751-15.187
			c3.736-3.736,8.703-5.793,13.987-5.793c5.284,0,10.251,2.057,13.987,5.793c0.106,0.106,2.349,2.916,6.03,2.916
			c3.924,0,5.922-2.809,6.029-2.916c3.737-3.736,8.704-5.793,13.987-5.793c5.284,0,10.251,2.057,13.987,5.792
			c4.743,4.743,5.737,11.126,5.737,15.646C295.747,275.232,269.663,295.056,255.961,303.248z"/>
	</g>
</g>
<g>
	<g>
		<path d="M408.458,257.803c-14.959-21.401-28.873-36.505-34.16-42.005c-2.911-3.027-7.725-3.122-10.751-0.212
			c-3.027,2.91-3.123,7.724-0.213,10.751c5.041,5.243,18.313,19.654,32.659,40.178c1.479,2.116,3.839,3.248,6.239,3.248
			c1.505,0,3.024-0.445,4.348-1.372C410.023,265.986,410.864,261.245,408.458,257.803z"/>
	</g>
</g>
<g>
	<g>
		<path d="M433.054,298.894c-3.077-6.189-6.513-12.503-10.211-18.77c-2.134-3.617-6.799-4.816-10.413-2.685
			c-3.616,2.134-4.818,6.797-2.684,10.413c3.514,5.955,6.776,11.948,9.693,17.812c1.329,2.674,4.019,4.22,6.814,4.22
			c1.138,0,2.293-0.256,3.379-0.797C433.393,307.217,434.925,302.653,433.054,298.894z"/>
	</g>
</g>
<g>
</g>
<g>
</g>
<g>
</g>
<g>
</g>
<g>
</g>
<g>
</g>
<g>
</g>
<g>
</g>
<g>
</g>
<g>
</g>
<g>
</g>
<g>
</g>
<g>
</g>
<g>
</g>
<g>
</g>
</svg>
