<?xml version="1.0" encoding="iso-8859-1"?>
<!-- Generator: Adobe Illustrator 19.0.0, SVG Export Plug-In . SVG Version: 6.00 Build 0)  -->
<svg version="1.1" id="Layer_1" xmlns="http://www.w3.org/2000/svg" xmlns:xlink="http://www.w3.org/1999/xlink" x="0px" y="0px"
	 viewBox="0 0 512 512" style="enable-background:new 0 0 512 512;" xml:space="preserve">
<g>
	<g>
		<path d="M357.211,30.416c-12.493,0-24.237,4.865-33.07,13.699c-17.924,17.923-18.41,46.46-1.107,64.969
			c1.496,1.602,3.523,2.411,5.556,2.411c1.859,0,3.725-0.679,5.191-2.05c3.067-2.868,3.229-7.68,0.361-10.748
			c-11.672-12.484-11.342-31.737,0.751-43.829c5.961-5.962,13.888-9.244,22.318-9.244c4.2,0,7.604-3.405,7.604-7.604
			C364.815,33.82,361.411,30.416,357.211,30.416z"/>
	</g>
</g>
<g>
	<g>
		<path d="M77.167,388.754c-8.43,0-16.351-3.277-22.3-9.226c-12.306-12.306-12.306-32.33,0.001-44.636
			c2.97-2.969,2.97-7.783,0-10.753c-2.97-2.97-7.783-2.97-10.754,0c-18.235,18.236-18.235,47.908,0,66.144
			c8.823,8.822,20.561,13.68,33.054,13.68c4.2,0,7.603-3.406,7.603-7.605S81.367,388.754,77.167,388.754z"/>
	</g>
</g>
<g>
	<g>
		<path d="M390.281,44.114c-2.968-2.971-7.782-2.97-10.753,0c-2.97,2.97-2.97,7.783,0.001,10.753
			c6.914,6.915,10.189,16.474,8.985,26.229c-0.515,4.168,2.448,7.964,6.614,8.478c0.317,0.039,0.631,0.059,0.942,0.059
			c3.784,0,7.062-2.822,7.537-6.673C405.388,68.523,400.532,54.364,390.281,44.114z"/>
	</g>
</g>
<g>
	<g>
		<path d="M489.393,100.21c-14.765-14.765-34.381-22.762-55.006-22.598c0.153-20.581-7.833-40.241-22.597-55.005
			C397.211,8.029,377.829,0,357.211,0c-20.617,0-40,8.029-54.578,22.608c-14.251,14.252-22.273,33.197-22.588,53.345
			c-0.276,17.621,5.361,34.509,15.995,48.286l-88.267,88.266c-2.97,2.969-2.97,7.783,0,10.753s7.783,2.969,10.754,0l93.219-93.218
			c2.9-2.9,2.978-7.575,0.177-10.57c-22.934-24.532-22.291-62.356,1.463-86.109c11.706-11.706,27.271-18.153,43.825-18.153
			c16.555,0,32.119,6.447,43.825,18.151c13.586,13.586,20.024,32.342,17.666,51.461c-0.287,2.325,0.514,4.653,2.17,6.308
			c1.658,1.656,3.984,2.462,6.308,2.17c19.119-2.356,37.877,4.08,51.461,17.665c24.165,24.165,24.165,63.486,0,87.651
			c-23.754,23.753-61.579,24.396-86.108,1.462c-2.996-2.799-7.672-2.721-10.571,0.178L200.255,381.96
			c-2.9,2.9-2.978,7.575-0.177,10.569c22.934,24.532,22.291,62.356-1.463,86.109c-11.706,11.706-27.271,18.153-43.825,18.153
			c-16.555,0-32.119-6.447-43.824-18.153c-13.586-13.586-20.024-32.342-17.666-51.461c0.287-2.325-0.514-4.653-2.17-6.308
			c-1.657-1.656-3.977-2.459-6.308-2.17c-19.122,2.355-37.877-4.08-51.461-17.664c-24.165-24.165-24.165-63.486,0-87.651
			c23.753-23.753,61.577-24.397,86.108-1.462c2.995,2.798,7.671,2.721,10.571-0.178l28.925-28.926
			c2.97-2.969,2.97-7.783-0.001-10.753c-2.968-2.97-7.782-2.97-10.753,0l-23.973,23.973c-13.778-10.633-30.646-16.28-48.286-15.995
			c-20.147,0.314-39.092,8.336-53.345,22.589c-30.094,30.095-30.094,79.063,0,109.158c14.766,14.765,34.441,22.751,55.006,22.598
			c-0.154,20.581,7.833,40.241,22.597,55.005C114.789,503.971,134.171,512,154.789,512c20.617,0,40-8.029,54.579-22.607
			c14.251-14.252,22.273-33.197,22.588-53.345c0.276-17.621-5.361-34.509-15.995-48.286l171.8-171.799
			c13.778,10.633,30.644,16.276,48.286,15.995c20.147-0.314,39.092-8.336,53.345-22.589
			C519.487,179.273,519.487,130.306,489.393,100.21z"/>
	</g>
</g>
<g>
	<g>
		<path d="M199.201,231.83c-2.969-2.97-7.782-2.971-10.754,0l-19.878,19.878c-2.97,2.969-2.97,7.783,0,10.753
			c1.484,1.485,7.082,3.171,10.754,0l19.878-19.878C202.171,239.614,202.171,234.799,199.201,231.83z"/>
	</g>
</g>
<g>
</g>
<g>
</g>
<g>
</g>
<g>
</g>
<g>
</g>
<g>
</g>
<g>
</g>
<g>
</g>
<g>
</g>
<g>
</g>
<g>
</g>
<g>
</g>
<g>
</g>
<g>
</g>
<g>
</g>
</svg>
