<?xml version="1.0" encoding="iso-8859-1"?>
<!-- Generator: Adobe Illustrator 19.0.0, SVG Export Plug-In . SVG Version: 6.00 Build 0)  -->
<svg version="1.1" id="Layer_1" xmlns="http://www.w3.org/2000/svg" xmlns:xlink="http://www.w3.org/1999/xlink" x="0px" y="0px"
	 viewBox="0 0 511.999 511.999" style="enable-background:new 0 0 511.999 511.999;" xml:space="preserve">
<g>
	<g>
		<path d="M511.895,138.23C509.76,71.783,396.008,18.229,255.973,18.229C114.603,18.229,0,72.806,0,140.132
			c0,1.07,0.031,105.034,0.031,105.034c0,40.489,34.004,77.018,94.269,101.522c0.966,0.393,7.561,2.038,10.21-4.308
			c1.667-3.993-0.299-8.58-4.308-10.21c-54.057-21.979-85.06-53.963-85.06-87.75v-62.9c35.584,46.951,129.972,80.514,240.83,80.514
			c110.02,0,203.816-33.057,240.011-79.452l0.344,64.156c0,56.17-88.998,103.02-206.177,111.471c-7.997-4.324-16.9-7.174-26.344-8.2
			v-10.429c12.857-3.46,22.352-15.214,22.352-29.15c0-16.646-13.543-30.187-30.188-30.187s-30.187,13.542-30.187,30.187
			c0,13.936,9.494,25.69,22.351,29.15v10.429c-9.411,1.022-18.282,3.857-26.257,8.156c-31.917-2.384-65.747-7.919-92.827-15.943
			c-4.148-1.23-8.51,1.138-9.74,5.287c-1.23,4.15,1.138,8.51,5.287,9.74c24.408,7.232,50.871,12.293,78.849,15.112
			c-12.124,12.905-19.572,30.25-19.572,49.313c0,39.755,32.343,72.096,72.096,72.096s72.097-32.343,72.097-72.096
			c0-19.018-7.415-36.329-19.49-49.225c54.49-5.34,103.626-19.133,139.654-39.362c41.12-23.088,63.766-53.754,63.766-86.39
			C512,246.697,511.927,138.494,511.895,138.23z M478.261,177.994c-36.346-27.807-94.234-47.996-160.247-55.7
			c-4.281-0.503-8.19,2.574-8.691,6.875c-0.502,4.298,2.576,8.189,6.875,8.691c62.017,7.237,116.181,25.666,150.422,50.966
			c-10.039,8.155-22.464,15.831-36.732,22.625c-46.179,21.992-107.943,34.103-173.914,34.103S128.238,233.443,82.06,211.451
			c-14.262-6.791-26.681-14.463-36.718-22.615c40.231-29.739,107.43-49.656,182.085-53.661c4.321-0.232,7.636-3.923,7.404-8.245
			c-0.232-4.321-3.914-7.645-8.245-7.404c-78.982,4.237-150.448,25.983-192.905,58.464c-0.417-0.45-17.202-12.275-17.202-37.859
			c0-12.302,5.369-24.585,15.957-36.507c11.259-12.678,28.418-24.716,49.622-34.813c46.178-21.992,107.943-34.103,173.914-34.103
			s127.736,12.111,173.914,34.103c21.203,10.098,38.362,22.136,49.622,34.813c10.589,11.922,15.957,24.205,15.957,36.507
			C495.466,162.925,478.679,177.543,478.261,177.994z M241.457,310.431c0-8.004,6.511-14.515,14.515-14.515
			s14.516,6.511,14.516,14.515s-6.511,14.515-14.516,14.515C247.969,324.946,241.457,318.434,241.457,310.431z M312.398,421.673
			c0,31.113-25.312,56.424-56.425,56.424s-56.424-25.312-56.424-56.424c0-31.112,25.312-56.424,56.424-56.424
			C287.086,365.249,312.398,390.56,312.398,421.673z"/>
	</g>
</g>
<g>
	<g>
		<path d="M287.398,119.64c-10.35-0.595-20.923-0.896-31.426-0.896c-4.328,0-7.836,3.508-7.836,7.836
			c0,4.328,3.508,7.836,7.836,7.836c10.205,0,20.475,0.293,30.526,0.87c0.153,0.008,0.305,0.013,0.458,0.013
			c4.122,0,7.577-3.219,7.815-7.387C295.02,123.592,291.719,119.888,287.398,119.64z"/>
	</g>
</g>
<g>
	<g>
		<path d="M255.973,386.829c-19.213,0-34.844,15.631-34.844,34.844s15.631,34.844,34.844,34.844
			c19.214,0,34.845-15.631,34.845-34.844S275.186,386.829,255.973,386.829z M255.973,440.845c-10.571,0-19.172-8.601-19.172-19.172
			c0-10.571,8.601-19.172,19.172-19.172s19.173,8.601,19.173,19.172C275.146,432.244,266.544,440.845,255.973,440.845z"/>
	</g>
</g>
<g>
	<g>
		<path d="M480.596,237.391c-4.329,0-7.836,3.508-7.836,7.836c0,6.637-3.705,14.235-10.716,21.975
			c-9.253,10.219-23.75,20.195-41.924,28.85c-3.908,1.861-5.567,6.537-3.706,10.444c1.343,2.82,4.151,4.469,7.08,4.469
			c1.129,0,2.276-0.246,3.364-0.763c20.004-9.527,36.188-20.758,46.802-32.48c9.801-10.822,14.771-21.755,14.771-32.495
			C488.432,240.9,484.925,237.391,480.596,237.391z"/>
	</g>
</g>
<g>
	<g>
		<path d="M397.045,314.074c-1.331-4.118-5.754-6.372-9.867-5.043c-12.129,3.924-25.147,7.306-38.693,10.052
			c-4.241,0.859-6.982,4.994-6.122,9.236c0.753,3.716,4.021,6.281,7.672,6.281c0.516,0,1.04-0.051,1.564-0.159
			c14.122-2.862,27.714-6.395,40.403-10.5C396.119,322.609,398.377,318.192,397.045,314.074z"/>
	</g>
</g>
<g>
</g>
<g>
</g>
<g>
</g>
<g>
</g>
<g>
</g>
<g>
</g>
<g>
</g>
<g>
</g>
<g>
</g>
<g>
</g>
<g>
</g>
<g>
</g>
<g>
</g>
<g>
</g>
<g>
</g>
</svg>
