<?xml version="1.0" encoding="iso-8859-1"?>
<!-- Generator: Adobe Illustrator 19.0.0, SVG Export Plug-In . SVG Version: 6.00 Build 0)  -->
<svg version="1.1" id="Layer_1" xmlns="http://www.w3.org/2000/svg" xmlns:xlink="http://www.w3.org/1999/xlink" x="0px" y="0px"
	 viewBox="0 0 512 512" style="enable-background:new 0 0 512 512;" xml:space="preserve">
<g>
	<g>
		<path d="M305.682,391.912H281.35c-4.2,0-7.604,3.405-7.604,7.604s3.404,7.604,7.604,7.604h24.333c4.2,0,7.604-3.405,7.604-7.604
			S309.883,391.912,305.682,391.912z"/>
	</g>
</g>
<g>
	<g>
		<path d="M440.278,104.879c-23.87,0-45.041,11.732-58.085,29.722H129.807c-13.044-17.99-34.215-29.722-58.084-29.722
			C32.174,104.879,0,137.053,0,176.601v153.704c0,42.355,34.459,76.814,76.815,76.814h171.078c4.199,0,7.604-3.405,7.604-7.604
			s-3.405-7.604-7.604-7.604h-159.7c-18.336-11.031-30.948-31.439-30.948-54.223V183.984c0-27.047,19.103-49.701,44.523-55.213
			c6.911,4.358,12.814,10.166,17.281,17c0.182,0.344,0.395,0.668,0.628,0.977c5.416,8.67,8.559,18.898,8.559,29.852v84.494
			c0,4.199,3.405,7.604,7.604,7.604h240.322c4.2,0,7.604-3.405,7.604-7.604v-84.494c0-20.136,10.595-37.835,26.494-47.847
			c25.463,5.48,44.609,28.153,44.609,55.23v153.705c0,22.784-12.611,43.193-30.948,54.223h-84.78c-4.2,0-7.604,3.405-7.604,7.604
			s3.404,7.604,7.604,7.604h96.045c42.355,0,76.815-34.459,76.815-76.814V176.601C512,137.053,479.826,104.879,440.278,104.879z
			 M42.037,183.984v153.705c0,19.433,7.2,37.946,20.321,52.494c-27.015-6.524-47.15-30.887-47.15-59.878V176.601
			c0-31.161,25.352-56.514,56.514-56.514c2.837,0,5.623,0.216,8.349,0.62C57.464,132.789,42.037,156.61,42.037,183.984z
			 M368.662,172.745c-9.723-3.038-19.874-4.6-30.289-4.6c-29.18,0-56.496,12.381-74.429,33.414c-2.48-0.905-5.155-1.4-7.946-1.4
			c-2.788,0-5.462,0.495-7.941,1.399c-12.447-14.577-29.703-25.249-48.982-30.212c-4.064-1.048-8.213,1.401-9.26,5.469
			c-1.047,4.067,1.401,8.212,5.469,9.26c16.142,4.156,30.565,13.012,40.974,25.087c-2.21,3.555-3.492,7.744-3.492,12.229
			c0,12.809,10.42,23.231,23.231,23.231s23.231-10.42,23.231-23.231c0-4.484-1.281-8.673-3.49-12.227
			c15.063-17.509,38.031-27.809,62.633-27.809c10.467,0,20.607,1.839,30.184,5.424v64.714H143.443v-0.001V188.77
			c7.906-2.958,16.244-4.736,24.824-5.255c4.191-0.253,7.384-3.858,7.13-8.05c-0.253-4.191-3.846-7.381-8.05-7.13
			c-8.224,0.498-16.27,1.976-24.013,4.391c-0.432-8.063-2.214-15.771-5.103-22.916h235.535
			C370.876,156.961,369.092,164.675,368.662,172.745z M264.023,223.39c0,4.423-3.599,8.023-8.023,8.023s-8.023-3.599-8.023-8.023
			c0-4.424,3.599-8.023,8.023-8.023S264.023,218.966,264.023,223.39z M449.785,390.149c13.102-14.543,20.29-33.043,20.29-52.46
			V183.984c0-27.382-15.437-51.209-38.055-63.287c2.697-0.396,5.453-0.609,8.258-0.609c31.161,0,56.514,25.352,56.514,56.514
			v153.704h0C496.792,359.245,476.729,383.574,449.785,390.149z"/>
	</g>
</g>
<g>
</g>
<g>
</g>
<g>
</g>
<g>
</g>
<g>
</g>
<g>
</g>
<g>
</g>
<g>
</g>
<g>
</g>
<g>
</g>
<g>
</g>
<g>
</g>
<g>
</g>
<g>
</g>
<g>
</g>
</svg>
