<?xml version="1.0" encoding="iso-8859-1"?>
<!-- Generator: Adobe Illustrator 19.0.0, SVG Export Plug-In . SVG Version: 6.00 Build 0)  -->
<svg version="1.1" id="Layer_1" xmlns="http://www.w3.org/2000/svg" xmlns:xlink="http://www.w3.org/1999/xlink" x="0px" y="0px"
	 viewBox="0 0 512 512" style="enable-background:new 0 0 512 512;" xml:space="preserve">
<g>
	<g>
		<path d="M169.148,284.745h-59.245c-7.504,0-13.609,6.105-13.609,13.609v110.934c0,7.504,6.105,13.609,13.609,13.609h59.245
			c7.504,0,13.609-6.105,13.609-13.609V298.354C182.757,290.85,176.652,284.745,169.148,284.745z M167.636,407.777h-56.22v-107.91
			h56.22V407.777z"/>
	</g>
</g>
<g>
	<g>
		<path d="M405.001,284.745h-59.245c-7.504,0-13.609,6.105-13.609,13.609v110.934c0,7.504,6.105,13.609,13.609,13.609h59.245
			c7.504,0,13.609-6.105,13.609-13.609V298.354C418.611,290.85,412.506,284.745,405.001,284.745z M403.49,407.777h-56.22v-107.91
			h56.22V407.777z"/>
	</g>
</g>
<g>
	<g>
		<path d="M296.126,305.761h-77.349c-3.327,0-6.049,2.722-6.049,6.049v63.696c0,3.327,2.722,6.049,6.049,6.049h77.349
			c3.327,0,6.049-2.722,6.049-6.049v-63.696C302.175,308.483,299.453,305.761,296.126,305.761z M287.053,366.433H227.85v-45.55
			h59.203V366.433z"/>
	</g>
</g>
<g>
	<g>
		<path d="M81.445,308.89c-4.176,0-7.561,3.384-7.561,7.561v16.806c0,4.177,3.384,7.561,7.561,7.561
			c4.176,0,7.561-3.384,7.561-7.561v-16.806C89.006,312.274,85.621,308.89,81.445,308.89z"/>
	</g>
</g>
<g>
	<g>
		<path d="M494.569,427.346c-5.311-26.734-26.87-47.499-53.549-52.034v-98.487c7.796-3.121,14.387-8.924,18.444-16.651
			c0.199-0.377,0.363-0.768,0.493-1.167c5.677-12.044,0.916-25.288-0.164-27.975l-20.833-63.84c-1.507-4.6-4.633-8.307-8.619-10.601
			v-40.926c0-7.504-6.105-13.609-13.609-13.609h-59.327c-5.833-20.357-17.929-38.702-34.499-52.149
			c-18.43-14.958-41.676-23.196-65.456-23.196s-47.025,8.237-65.456,23.196c-16.57,13.447-28.666,31.791-34.499,52.149H98.169
			c-7.504,0-13.609,6.105-13.609,13.609v40.979c-3.942,2.298-7.031,5.984-8.527,10.548c0,0-22.265,67.943-22.301,68.075
			c-1.438,5.351-3.114,15.703,1.779,24.875c4.042,7.714,10.603,13.514,18.371,16.648v16.142c0,4.177,3.385,7.561,7.561,7.561
			c4.176,0,7.561-3.384,7.561-7.561v-13.567c10.835-0.497,20.436-5.807,26.696-13.848c6.578,8.452,16.844,13.898,28.359,13.898
			c11.515,0,21.781-5.446,28.359-13.898c6.578,8.452,16.844,13.898,28.359,13.898s21.781-5.446,28.359-13.898
			c6.578,8.452,16.845,13.898,28.359,13.898s21.781-5.446,28.359-13.898c6.578,8.452,16.844,13.898,28.359,13.898
			s21.781-5.446,28.359-13.898c6.578,8.452,16.844,13.898,28.359,13.898s21.781-5.446,28.359-13.898
			c6.241,8.02,15.805,13.323,26.603,13.846v183.362c0,4.104-3.339,7.443-7.443,7.443h-94.475V307.31
			c0-12.443-10.122-22.566-22.565-22.566h-87.927c-12.442,0-22.565,10.122-22.565,22.566v162.857h-94.47
			c-4.104,0-7.443-3.339-7.443-7.443V357.117c0-4.177-3.385-7.561-7.561-7.561c-4.176,0-7.561,3.384-7.561,7.561v17.754
			c-28.112,3.447-50.94,24.544-56.455,52.477C6.592,434.733,0,447.043,0,460.306c0,7.643,2.18,15.08,6.303,21.506
			c1.39,2.166,3.788,3.477,6.363,3.477h486.668c2.575,0,4.973-1.311,6.363-3.477c4.123-6.426,6.303-13.863,6.303-21.506
			C512,447.042,505.406,434.731,494.569,427.346z M17.171,470.167c-1.348-3.096-2.049-6.445-2.049-9.861
			c0-9.023,4.918-17.338,12.834-21.698c2.084-1.148,3.506-3.209,3.839-5.564c3.145-22.237,20.391-39.42,42.089-42.897v72.577
			c0,2.607,0.45,5.111,1.267,7.443H17.171z M308.859,470.167H206.046V307.31c0-4.104,3.339-7.444,7.443-7.444h87.927
			c4.104,0,7.443,3.34,7.443,7.444V470.167z M109.004,239.146c-0.107,0.421-0.863,3.248-0.863,4.348
			c0,11.468-9.331,20.916-20.798,20.798c-24.899-0.257-19.903-21.675-19.054-24.915L90.405,171.9
			c0.537-1.639,2.057-2.741,3.781-2.741h32.574L109.004,239.146z M164.861,243.494c-0.002,11.468-9.332,20.798-20.8,20.798
			c-11.314,0-20.53-9.086-20.775-20.342c0.147-0.349,19.076-74.791,19.076-74.791h33.71
			C176.073,169.16,164.861,243.438,164.861,243.494z M221.578,243.494c0,11.468-9.329,20.798-20.797,20.798
			c-11.323,0-20.545-9.1-20.777-20.369l11.363-74.763h35.759C227.125,169.16,221.578,243.398,221.578,243.494z M99.683,154.037
			v-36.861h63.689c3.542,0,6.61-2.459,7.38-5.917c8.96-40.229,45.422-69.428,86.699-69.428c41.277,0,77.739,29.199,86.7,69.428
			c0.77,3.458,3.838,5.917,7.38,5.917h63.689v36.861H99.683z M314.217,264.292c-11.468,0-20.798-9.33-20.798-20.798
			c0-0.097-1.869-25.247-1.869-25.247c-0.313-4.164-3.937-7.288-8.104-6.976c-4.163,0.313-7.287,3.941-6.975,8.104l1.819,24.286
			c-0.092,11.391-9.378,20.63-20.79,20.63s-20.699-9.239-20.79-20.63l5.581-74.503h30.421l1.381,18.441
			c0.297,3.971,3.612,6.995,7.532,6.995c0.19,0,0.38-0.007,0.573-0.021c4.164-0.313,7.288-3.941,6.975-8.105l-1.296-17.311h35.756
			l11.363,74.761C334.763,255.191,325.541,264.292,314.217,264.292z M370.936,264.292c-11.468,0-20.798-9.33-20.798-20.798
			c0-0.052-11.211-74.334-11.211-74.334h33.711l19.057,75.121C391.277,255.383,382.138,264.292,370.936,264.292z M406.856,243.495
			c0-0.047-0.22-1.813-0.232-1.861l-18.386-72.475h32.572c1.725,0,3.245,1.102,3.779,2.733c0,0,21.058,64.502,21.143,64.702
			c0.04,0.095,8.026,27.442-18.077,27.699C416.188,264.405,406.857,254.963,406.856,243.495z M494.829,470.167h-55.075
			c0.818-2.332,1.267-4.835,1.267-7.443v-72.01c20.264,4.523,36.208,21.292,39.184,42.331c0.334,2.355,1.755,4.416,3.839,5.564
			c7.917,4.36,12.834,12.675,12.834,21.698C496.878,463.723,496.177,467.072,494.829,470.167z"/>
	</g>
</g>
<g>
	<g>
		<path d="M285.917,99.24c-0.229-0.157-3.286-2.047-5.171-7.7c-3.478-10.434-12.622-17.546-23.219-17.546
			c-10.905,0-20.72,7.555-23.337,17.964c-1.114,4.431-3.086,6.013-3.392,6.238c-0.002,0.002-0.004,0.003-0.007,0.004
			c-7.477,4.3-12.122,12.321-12.122,20.933c0,13.311,10.83,24.141,24.141,24.141c5.741,0,8.902-1.48,11.414-2.867
			c0,0,1.777-0.852,3.23-0.927c1.822-0.095,3.278,0.874,3.554,1.019c3.445,1.816,7.33,2.775,11.236,2.775
			c13.311,0,24.141-10.83,24.141-24.141C296.385,111.188,292.472,103.75,285.917,99.24z M272.245,128.154
			c-1.416,0-2.768-0.318-4.019-0.946c-1.398-0.821-5.393-2.849-10.771-2.849c-3.597,0-7.06,0.9-10.292,2.674
			c0,0-1.244,1.2-4.352,1.119c-4.971-0.129-9.02-4.047-9.02-9.02c-0.001-3.193,1.714-6.171,4.478-7.79
			c1.758-0.977,7.915-5.073,10.586-15.697c0.937-3.723,4.665-6.532,8.673-6.532c4.567,0,7.705,3.49,8.79,6.95
			c3.125,9.964,9.418,14.595,11.124,15.698c2.396,1.695,3.823,4.441,3.823,7.371C281.265,124.108,277.218,128.154,272.245,128.154z"
			/>
	</g>
</g>
<g>
	<g>
		<path d="M301.79,83.334c-1.401-1.411-3.357-2.218-5.343-2.218s-3.942,0.806-5.343,2.218c-1.411,1.401-2.218,3.357-2.218,5.343
			c0,1.986,0.807,3.942,2.218,5.343c1.401,1.411,3.357,2.218,5.343,2.218s3.942-0.806,5.343-2.218
			c1.411-1.401,2.218-3.347,2.218-5.343C304.008,86.681,303.201,84.736,301.79,83.334z"/>
	</g>
</g>
<g>
	<g>
		<path d="M279.392,59.827c-1.401-1.411-3.357-2.218-5.343-2.218s-3.942,0.806-5.343,2.218c-1.411,1.401-2.218,3.357-2.218,5.343
			c0,1.986,0.807,3.942,2.218,5.343c1.402,1.41,3.358,2.218,5.343,2.218c1.986,0,3.942-0.807,5.343-2.218
			c1.411-1.401,2.218-3.347,2.218-5.343C281.609,63.174,280.803,61.229,279.392,59.827z"/>
	</g>
</g>
<g>
	<g>
		<path d="M246.198,59.827c-1.401-1.411-3.357-2.218-5.343-2.218s-3.942,0.806-5.343,2.218c-1.411,1.401-2.218,3.357-2.218,5.343
			c0,1.986,0.807,3.942,2.218,5.343c1.402,1.41,3.358,2.218,5.343,2.218c1.986,0,3.942-0.807,5.343-2.218
			c1.411-1.401,2.218-3.347,2.218-5.343C248.415,63.174,247.609,61.229,246.198,59.827z"/>
	</g>
</g>
<g>
	<g>
		<path d="M223.8,83.334c-1.401-1.411-3.357-2.218-5.343-2.218s-3.942,0.806-5.343,2.218c-1.411,1.401-2.218,3.357-2.218,5.343
			c0,1.986,0.806,3.942,2.218,5.343c1.401,1.411,3.357,2.218,5.343,2.218s3.942-0.806,5.343-2.218
			c1.411-1.401,2.218-3.347,2.218-5.343C226.018,86.681,225.212,84.736,223.8,83.334z"/>
	</g>
</g>
<g>
	<g>
		<path d="M297.601,409.994c-1.401-1.411-3.357-2.218-5.343-2.218c-1.986,0-3.942,0.806-5.343,2.218
			c-1.411,1.401-2.218,3.357-2.218,5.343c0,1.986,0.806,3.942,2.218,5.343c1.401,1.41,3.357,2.218,5.343,2.218
			c1.986,0,3.942-0.806,5.343-2.218c1.411-1.401,2.218-3.347,2.218-5.343S299.013,411.396,297.601,409.994z"/>
	</g>
</g>
<g>
</g>
<g>
</g>
<g>
</g>
<g>
</g>
<g>
</g>
<g>
</g>
<g>
</g>
<g>
</g>
<g>
</g>
<g>
</g>
<g>
</g>
<g>
</g>
<g>
</g>
<g>
</g>
<g>
</g>
</svg>
