<?xml version="1.0" encoding="iso-8859-1"?>
<!-- Generator: Adobe Illustrator 19.0.0, SVG Export Plug-In . SVG Version: 6.00 Build 0)  -->
<svg version="1.1" id="Layer_1" xmlns="http://www.w3.org/2000/svg" xmlns:xlink="http://www.w3.org/1999/xlink" x="0px" y="0px"
	 viewBox="0 0 512 512" style="enable-background:new 0 0 512 512;" xml:space="preserve">
<g>
	<g>
		<path d="M256,416.55c-14.044,0-25.47,11.427-25.47,25.47c0,14.045,11.427,25.471,25.47,25.471c14.045,0,25.47-11.426,25.47-25.471
			C281.47,427.976,270.044,416.55,256,416.55z M256,452.054c-5.533,0-10.033-4.502-10.033-10.034c0-5.533,4.5-10.033,10.033-10.033
			s10.033,4.5,10.033,10.033C266.033,447.553,261.533,452.054,256,452.054z"/>
	</g>
</g>
<g>
	<g>
		<path d="M427.384,331.587c-4.264,0-7.719,3.455-7.719,7.719v24.179c0,4.264,3.455,7.719,7.719,7.719
			c4.264,0,7.719-3.456,7.719-7.719v-24.179C435.102,335.042,431.647,331.587,427.384,331.587z"/>
	</g>
</g>
<g>
	<g>
		<path d="M427.384,385.097c-4.264,0-7.719,3.455-7.719,7.719v57.632c0,4.264,3.455,7.719,7.719,7.719
			c4.264,0,7.719-3.456,7.719-7.719v-57.632C435.102,388.552,431.647,385.097,427.384,385.097z"/>
	</g>
</g>
<g>
	<g>
		<path d="M137.213,188.408c-2.726-3.278-7.593-3.724-10.871-0.997l-24.512,20.393c-3.277,2.726-3.723,7.593-0.997,10.871
			c1.527,1.836,6.327,4.206,10.871,0.997l24.512-20.393C139.493,196.552,139.939,191.686,137.213,188.408z"/>
	</g>
</g>
<g>
	<g>
		<path d="M256,233.696c-42.558,0-77.183,34.625-77.183,77.182c0,42.559,34.625,77.183,77.183,77.183
			c42.558,0,77.183-34.625,77.183-77.183C333.183,268.32,298.558,233.696,256,233.696z M256,372.624
			c-34.046,0-61.746-27.699-61.746-61.746s27.699-61.745,61.746-61.745s61.746,27.698,61.746,61.745S290.046,372.624,256,372.624z"
			/>
	</g>
</g>
<g>
	<g>
		<path d="M256,207.968c-56.746,0-102.911,46.166-102.911,102.91c0,56.746,46.165,102.911,102.911,102.911
			s102.911-46.165,102.911-102.911C358.912,254.133,312.746,207.968,256,207.968z M256,398.352
			c-48.233,0-87.474-39.241-87.474-87.474s39.241-87.473,87.474-87.473s87.474,39.24,87.474,87.473S304.233,398.352,256,398.352z"/>
	</g>
</g>
<g>
	<g>
		<path d="M503.184,293.737c-0.555-6.042-3.428-11.507-8.092-15.388L279.642,99.114c2.109-4.126,4.135-8.846,6.067-14.204
			c5.653-15.679,9.755-34.793,9.755-45.446C295.464,17.703,277.76,0,256,0s-39.464,17.703-39.464,39.464
			c0,10.654,4.102,29.767,9.755,45.446c1.943,5.39,3.981,10.133,6.103,14.276l-87.361,72.677c-3.277,2.726-3.723,7.593-0.997,10.871
			c1.526,1.835,6.219,4.256,10.871,0.997l96.5-80.281c2.697-2.244,6.614-2.244,9.31,0L485.22,290.218
			c1.494,1.243,4.912,5.861,0.94,10.249c-3.614,3.992-8.755,2.183-10.249,0.941L260.999,122.619c-2.862-2.38-7.013-2.38-9.874,0
			L36.093,301.508c-2.524,1.311-6.162,4.175-10.251-0.94c-3.305-4.133-0.555-9.006,0.94-10.249l66.689-55.478
			c3.277-2.725,3.723-7.593,0.997-10.871c-2.725-3.278-7.593-3.723-10.871-0.997l-66.689,55.478
			c-4.664,3.881-7.537,9.346-8.092,15.388c-0.554,6.042,1.278,11.938,5.158,16.6c4.328,5.205,10.696,8.191,17.472,8.191
			c5.289,0,10.444-1.866,14.519-5.254l0.059-0.048v156.497c-10.164,1.57-17.979,10.353-17.979,20.95
			c0,11.703,9.522,21.225,21.225,21.225h416.549c11.703,0,21.225-9.522,21.225-21.225c0-11.65-9.436-21.13-21.067-21.217V313.225
			l0.059,0.048c4.665,3.881,10.569,5.722,16.604,5.158c6.041-0.555,11.506-3.428,15.386-8.092
			C501.905,305.675,503.738,299.779,503.184,293.737z M267.272,89.287c-6.97-3.96-15.561-3.938-22.518,0.06
			c-1.267-2.727-2.589-5.921-3.942-9.672c-5.534-15.35-8.84-32.499-8.84-40.211c0.001-13.248,10.779-24.026,24.027-24.026
			s24.027,10.778,24.027,24.026c0,7.711-3.307,24.861-8.84,40.211C269.844,83.399,268.531,86.573,267.272,89.287z M61.461,300.485
			l194.601-161.893l194.478,161.791V469.55H61.461V300.485z M471.606,490.775c0,3.191-2.596,5.788-5.788,5.788H49.269
			c-3.192,0-5.788-2.597-5.788-5.788s2.596-5.788,5.788-5.788h416.549C469.011,484.987,471.606,487.585,471.606,490.775z"/>
	</g>
</g>
<g>
</g>
<g>
</g>
<g>
</g>
<g>
</g>
<g>
</g>
<g>
</g>
<g>
</g>
<g>
</g>
<g>
</g>
<g>
</g>
<g>
</g>
<g>
</g>
<g>
</g>
<g>
</g>
<g>
</g>
</svg>
