<?xml version="1.0" encoding="iso-8859-1"?>
<!-- Generator: Adobe Illustrator 19.0.0, SVG Export Plug-In . SVG Version: 6.00 Build 0)  -->
<svg version="1.1" id="Layer_1" xmlns="http://www.w3.org/2000/svg" xmlns:xlink="http://www.w3.org/1999/xlink" x="0px" y="0px"
	 viewBox="0 0 512 512" style="enable-background:new 0 0 512 512;" xml:space="preserve">
<g>
	<g>
		<path d="M447.066,231.964c-4.186,0-7.579,3.393-7.579,7.579v55.916c0,4.186,3.393,7.579,7.579,7.579s7.579-3.393,7.579-7.579
			v-55.916C454.645,235.357,451.252,231.964,447.066,231.964z"/>
	</g>
</g>
<g>
	<g>
		<path d="M447.066,318.195c-4.186,0-7.579,3.393-7.579,7.579v22.904c0,4.186,3.393,7.579,7.579,7.579s7.579-3.393,7.579-7.579
			v-22.904C454.645,321.588,451.252,318.195,447.066,318.195z"/>
	</g>
</g>
<g>
	<g>
		<path d="M255.155,214.77c-41.141,0-74.612,33.471-74.612,74.613c0,41.141,33.471,74.612,74.612,74.612
			c41.142,0,74.613-33.471,74.613-74.612C329.768,248.241,296.297,214.77,255.155,214.77z M255.155,348.838
			c-32.783,0-59.455-26.672-59.455-59.455c0-32.784,26.672-59.456,59.455-59.456c32.784,0,59.456,26.672,59.456,59.456
			C314.61,322.166,287.939,348.838,255.155,348.838z"/>
	</g>
</g>
<g>
	<g>
		<path d="M202.442,138.761h-25.768c-4.186,0-7.579,3.393-7.579,7.579s3.393,7.579,7.579,7.579h25.768
			c4.187,0,7.579-3.393,7.579-7.579S206.628,138.761,202.442,138.761z"/>
	</g>
</g>
<g>
	<g>
		<path d="M484.961,380.464V198.1c14.33-2.172,25.349-14.573,25.349-29.5c0-16.452-13.385-29.837-29.837-29.837h-68.083
			c4.615-6.974,7.097-15.145,7.097-23.7c0-11.504-4.48-22.318-12.614-30.453c-8.134-8.135-18.949-12.614-30.453-12.614
			s-22.319,4.481-30.454,12.614c-10.204,10.203-24.383,34.557-29.889,54.152h-51.485h-32.842c-4.186,0-7.579,3.393-7.579,7.579
			s3.393,7.579,7.579,7.579h248.724c8.094,0,14.68,6.586,14.68,14.68c0,8.095-6.586,14.681-14.68,14.681H29.838
			c-8.095,0-14.681-6.586-14.681-14.681c0-8.094,6.586-14.68,14.681-14.68h118.23c4.186,0,7.579-3.393,7.579-7.579
			s-3.393-7.579-7.579-7.579H29.838C13.385,138.761,0,152.146,0,168.6c0,14.791,10.821,27.097,24.96,29.433v183.033
			c-13.301,3.001-23.269,14.905-23.269,29.101c0,16.452,13.385,29.837,29.837,29.837h450.634c16.453,0,29.838-13.385,29.838-29.839
			C512,394.658,500.105,381.88,484.961,380.464z M377.829,122.809c-1.223,1.223-2.85,1.897-4.579,1.897
			c-1.73,0-3.356-0.674-4.58-1.897c-1.223-1.224-1.897-2.85-1.897-4.58s0.674-3.356,1.897-4.58c1.263-1.263,2.921-1.894,4.58-1.894
			c1.658,0,3.316,0.632,4.58,1.894c1.223,1.224,1.897,2.85,1.897,4.58S379.053,121.585,377.829,122.809z M396.153,134.798
			c-1.193,1.193-2.742,2.534-4.569,3.964h-11.541c3.168-1.045,6.077-2.806,8.504-5.233c4.087-4.087,6.337-9.519,6.337-15.298
			c0-5.779-2.25-11.212-6.337-15.298c-8.435-8.436-22.16-8.435-30.595,0c-4.086,4.086-6.337,9.519-6.337,15.298
			c0,5.779,2.25,11.212,6.337,15.298c2.427,2.427,5.337,4.189,8.505,5.233h-34.54c5.737-17.147,17.812-36.483,24.765-43.434
			c5.272-5.272,12.281-8.175,19.735-8.175c7.455,0,14.464,2.903,19.735,8.175c5.271,5.272,8.174,12.28,8.174,19.735
			S401.424,129.526,396.153,134.798z M40.117,198.438h429.686v181.89H40.117V198.438z M482.162,424.847H31.528
			c-8.094,0-14.68-6.586-14.68-14.681c0-8.094,6.586-14.68,14.68-14.68h450.634c8.095,0,14.681,6.586,14.681,14.681
			C496.842,418.261,490.257,424.847,482.162,424.847z"/>
	</g>
</g>
<g>
</g>
<g>
</g>
<g>
</g>
<g>
</g>
<g>
</g>
<g>
</g>
<g>
</g>
<g>
</g>
<g>
</g>
<g>
</g>
<g>
</g>
<g>
</g>
<g>
</g>
<g>
</g>
<g>
</g>
</svg>
