<?xml version="1.0" encoding="iso-8859-1"?>
<!-- Generator: Adobe Illustrator 19.0.0, SVG Export Plug-In . SVG Version: 6.00 Build 0)  -->
<svg version="1.1" id="Layer_1" xmlns="http://www.w3.org/2000/svg" xmlns:xlink="http://www.w3.org/1999/xlink" x="0px" y="0px"
	 viewBox="0 0 512 512" style="enable-background:new 0 0 512 512;" xml:space="preserve">
<g>
	<g>
		<path d="M359.381,154.548c-2.97-2.97-7.784-2.971-10.754,0l-46.961,46.961c-2.97,2.97-2.97,7.784,0,10.754
			c2.97,2.97,7.783,2.97,10.754,0l46.961-46.961C362.351,162.333,362.351,157.518,359.381,154.548z"/>
	</g>
</g>
<g>
	<g>
		<path d="M376.311,171.478c-2.97-2.97-7.784-2.97-10.754,0l-62.255,62.255c-2.97,2.97-2.97,7.784,0,10.754
			c2.97,2.97,7.783,2.97,10.754,0l62.255-62.255C379.28,179.262,379.28,174.448,376.311,171.478z"/>
	</g>
</g>
<g>
	<g>
		<path d="M393.241,188.407c-2.97-2.97-7.783-2.97-10.754,0l-46.961,46.961c-2.971,2.97-2.97,7.784,0,10.754
			c2.97,2.97,7.783,2.97,10.754,0l46.961-46.961C396.211,196.192,396.211,191.377,393.241,188.407z"/>
	</g>
</g>
<g>
	<g>
		<path d="M489.149,84.134c0-6.829-2.646-13.238-7.452-18.043s-11.213-7.452-18.043-7.452c-6.829,0-13.237,2.646-18.042,7.452
			l-66.282,66.282c-6.163-5.074-16.679-9.207-29.457-6.777c-12.693,2.416-24.999,10.582-37.62,24.963
			c-2.77,3.156-2.458,7.961,0.699,10.731c3.156,2.77,7.961,2.459,10.731-0.699c10.159-11.574,19.926-18.322,29.034-20.054
			c8.184-1.556,14.573,1.241,17.542,4.089l32.795,32.793l0.09,0.092c2.868,2.987,5.664,9.378,4.108,17.56
			c-4.11,21.6-35.651,46.048-93.747,72.664c-2.873,1.318-6.307,0.7-8.544-1.537l-23.373-23.373
			c-2.236-2.236-2.853-5.669-1.535-8.545c2.219-4.844,4.458-9.577,6.654-14.066c1.845-3.774,0.283-8.327-3.49-10.172
			c-3.772-1.843-8.327-0.283-10.172,3.489c-2.252,4.605-4.546,9.455-6.819,14.415c-3.952,8.624-2.1,18.925,4.608,25.633
			l23.371,23.373c4.357,4.358,10.229,6.666,16.174,6.665c3.207,0,6.436-0.672,9.458-2.056
			c64.601-29.598,97.125-56.177,102.352-83.647c2.434-12.791-1.707-23.312-6.775-29.459l66.281-66.281
			C486.502,97.371,489.149,90.962,489.149,84.134z M470.941,91.421l-66.191,66.191l-14.576-14.576l66.192-66.191
			c1.932-1.932,4.521-2.997,7.288-2.997s5.356,1.065,7.289,2.998c1.932,1.932,2.997,4.521,2.997,7.288
			C473.939,86.901,472.874,89.489,470.941,91.421z"/>
	</g>
</g>
<g>
	<g>
		<path d="M305.269,171.926c-3.54-2.263-8.241-1.227-10.503,2.311c-2.902,4.54-5.867,9.479-8.812,14.68
			c-2.069,3.655-0.784,8.294,2.87,10.364c1.183,0.67,6.717,2.575,10.364-2.87c3.175-4.742,5.635-9.67,8.392-13.981
			C309.841,178.89,308.807,174.188,305.269,171.926z"/>
	</g>
</g>
<g>
	<g>
		<path d="M495.271,319.167h-17.268c-2.396-14.729-15.201-26.011-30.596-26.011c-7.013,0-13.741,2.389-19.141,6.626
			c-5.4-4.237-12.127-6.626-19.141-6.626c-7.013,0-13.74,2.389-19.14,6.626c-3.093-2.431-6.636-4.272-10.432-5.384
			c-4.031-1.18-8.254,1.132-9.433,5.164c-1.179,4.03,1.133,8.254,5.163,9.433c3.408,0.997,6.421,3.159,8.484,6.09
			c1.424,2.023,3.743,3.226,6.217,3.226c2.473,0,4.792-1.203,6.217-3.226c2.964-4.208,7.795-6.721,12.924-6.721
			c5.129,0,9.96,2.512,12.924,6.721c1.424,2.023,3.743,3.226,6.217,3.226s4.792-1.203,6.217-3.226
			c2.964-4.208,7.795-6.721,12.924-6.721c6.964,0,12.879,4.535,14.975,10.803H49.618c2.096-6.268,8.011-10.803,14.975-10.803
			c5.129,0,9.96,2.513,12.924,6.721c1.424,2.023,3.743,3.226,6.217,3.226s4.792-1.203,6.217-3.226
			c2.964-4.208,7.795-6.721,12.924-6.721c5.129,0,9.96,2.512,12.924,6.721c1.424,2.023,3.743,3.226,6.217,3.226
			s4.793-1.203,6.217-3.226c2.964-4.208,7.795-6.721,12.924-6.721c5.129,0,9.96,2.512,12.924,6.721
			c1.424,2.023,3.743,3.226,6.217,3.226s4.793-1.203,6.217-3.226c2.964-4.208,7.795-6.721,12.925-6.721
			c5.129,0,9.96,2.513,12.924,6.721c1.424,2.023,3.743,3.226,6.217,3.226s4.794-1.203,6.217-3.226
			c2.963-4.209,7.795-6.721,12.924-6.721c5.129,0,9.96,2.513,12.924,6.721c1.424,2.023,3.743,3.226,6.217,3.226
			s4.793-1.203,6.217-3.226c2.964-4.208,7.795-6.721,12.924-6.721c5.129,0,9.96,2.513,12.924,6.721
			c1.424,2.023,3.743,3.226,6.217,3.226s4.792-1.203,6.217-3.226c2.964-4.208,7.795-6.721,12.924-6.721
			c5.129,0,9.96,2.512,12.924,6.721c1.424,2.023,3.743,3.226,6.217,3.226s4.792-1.203,6.217-3.226
			c2.964-4.208,7.795-6.721,12.925-6.721c5.129,0,9.96,2.513,12.924,6.721c2.418,3.435,7.162,4.257,10.595,1.838
			c3.434-2.418,4.257-7.161,1.838-10.595c-5.808-8.249-15.288-13.172-25.358-13.172c-7.013,0-13.741,2.389-19.141,6.626
			c-5.4-4.237-12.127-6.626-19.141-6.626c-7.013,0-13.741,2.389-19.141,6.626c-5.4-4.237-12.127-6.626-19.141-6.626
			c-7.014,0-13.741,2.389-19.141,6.626c-5.4-4.237-12.127-6.626-19.141-6.626c-7.014,0-13.741,2.389-19.141,6.626
			c-5.4-4.237-12.127-6.626-19.141-6.626c-7.014,0-13.741,2.389-19.141,6.626c-5.4-4.237-12.127-6.626-19.141-6.626
			c-7.013,0-13.741,2.389-19.141,6.626c-5.4-4.237-12.127-6.626-19.141-6.626c-7.013,0-13.741,2.389-19.141,6.626
			c-5.4-4.237-12.127-6.626-19.141-6.626c-15.397,0-28.202,11.281-30.596,26.011H16.729C7.505,319.167,0,326.672,0,335.896v23.331
			c0,9.224,7.505,16.729,16.729,16.729h5.838v30.261c0,25.996,21.149,47.145,47.145,47.145h372.572
			c25.995,0,47.145-21.148,47.145-47.145v-30.261h5.844c9.224,0,16.729-7.505,16.729-16.729v-23.331
			C512,326.673,504.495,319.167,495.271,319.167z M474.219,406.216c0,17.61-14.327,31.937-31.937,31.937H69.711
			c-17.61,0-31.937-14.327-31.937-31.937v-30.261h436.445V406.216z M495.271,360.748H16.729c-0.824,0-0.824-26.373,0-26.373h478.543
			C496.096,334.375,496.096,360.748,495.271,360.748z"/>
	</g>
</g>
<g>
	<g>
		<path d="M388.816,407.737h-24.333c-4.199,0-7.604,3.404-7.604,7.604c0,4.2,3.405,7.604,7.604,7.604h24.333
			c4.199,0,7.604-3.404,7.604-7.604C396.42,411.141,393.015,407.737,388.816,407.737z"/>
	</g>
</g>
<g>
	<g>
		<path d="M342.178,407.737h-65.563c-4.199,0-7.604,3.404-7.604,7.604c0,4.2,3.405,7.604,7.604,7.604h65.563
			c4.2,0,7.604-3.404,7.604-7.604C349.782,411.141,346.378,407.737,342.178,407.737z"/>
	</g>
</g>
<g>
</g>
<g>
</g>
<g>
</g>
<g>
</g>
<g>
</g>
<g>
</g>
<g>
</g>
<g>
</g>
<g>
</g>
<g>
</g>
<g>
</g>
<g>
</g>
<g>
</g>
<g>
</g>
<g>
</g>
</svg>
