<?xml version="1.0" encoding="iso-8859-1"?>
<!-- Generator: Adobe Illustrator 19.0.0, SVG Export Plug-In . SVG Version: 6.00 Build 0)  -->
<svg version="1.1" id="Layer_1" xmlns="http://www.w3.org/2000/svg" xmlns:xlink="http://www.w3.org/1999/xlink" x="0px" y="0px"
	 viewBox="0 0 512 512" style="enable-background:new 0 0 512 512;" xml:space="preserve">
<g>
	<g>
		<path d="M250.018,477.561l-8.548-31.857c-1.089-4.057-5.261-6.462-9.315-5.373c-4.057,1.088-6.462,5.259-5.375,9.314l8.548,31.857
			c0.911,3.396,4.111,6.503,9.315,5.373C248.748,485.985,251.106,481.617,250.018,477.561z"/>
	</g>
</g>
<g>
	<g>
		<path d="M279.845,440.331c-4.053-1.09-8.225,1.317-9.315,5.373l-8.548,31.857c-1.088,4.055,1.241,8.567,5.374,9.314
			c6.244,1.129,8.403-1.977,9.315-5.373l8.548-31.857C286.307,445.59,283.901,441.419,279.845,440.331z"/>
	</g>
</g>
<g>
	<g>
		<path d="M153.615,447.507c-4.179-4.374-8.284-9.052-12.199-13.905c-2.638-3.269-7.424-3.782-10.693-1.144
			c-3.269,2.637-3.781,7.423-1.145,10.692c4.181,5.183,8.569,10.184,13.042,14.864c1.494,1.563,6.753,3.799,10.751,0.243
			C156.51,455.467,156.518,450.544,153.615,447.507z"/>
	</g>
</g>
<g>
	<g>
		<path d="M437.915,274.031c-3.706-46.265-23.551-87.69-58.033-119.124L284.11,15.058C277.598,5.629,266.869,0,255.409,0
			c-11.461,0-22.19,5.629-28.72,15.082l-95.752,139.825c-34.884,31.799-54.767,73.737-58.144,120.571
			c-9.307,10.699-14.963,24.656-14.963,39.917c0,21.971,11.697,41.259,29.187,51.974c6.296,17.261,14.376,33.942,24.05,49.594
			c1.439,2.326,5.696,4.972,10.466,2.47c3.719-1.952,4.678-6.894,2.471-10.466c-6.701-10.838-12.58-22.204-17.593-33.919
			c3.981,0.821,8.103,1.254,12.324,1.254c31.015,0,56.671-23.309,60.417-53.326c11.281,49.385,20.36,104.725,22.717,160.761
			c-8.714-4.279-17.269-9.578-25.555-15.869c-3.345-2.539-8.115-1.886-10.655,1.458s-1.886,8.115,1.458,10.655
			c27.59,20.947,58.121,32.02,88.291,32.02c36.05,0,71.769-15.435,103.298-44.636c27.708-25.664,50.653-60.799,64.787-99.136
			c7.552-4.319,14.209-10.24,19.39-17.506c2.438-3.42,1.642-8.168-1.776-10.606c-3.425-2.44-8.17-1.641-10.606,1.777
			c-8.572,12.023-22.494,19.201-37.238,19.201c-25.199,0-45.698-20.5-45.698-45.699c0-25.198,20.5-45.699,45.698-45.699
			s45.698,20.5,45.698,45.699c0,4.199,3.404,7.604,7.604,7.604s7.604-3.405,7.604-7.604
			C454.17,299.438,447.993,284.901,437.915,274.031z M118.735,361.094c-25.199,0-45.698-20.5-45.698-45.699
			c0-25.199,20.5-45.699,45.698-45.699s45.698,20.5,45.698,45.699C164.433,340.594,143.934,361.094,118.735,361.094z
			 M118.735,254.489c-10.521,0-20.425,2.683-29.069,7.398c5.416-33.562,20.846-64.478,44.543-89.143
			c9.326,25.039,22.259,62.662,34.364,107.705C157.543,264.767,139.322,254.489,118.735,254.489z M255.409,496.792
			c-12.68,0-25.479-2.239-38.084-6.595c-4.433-138.689-50.33-274.17-71.587-329.989L239.22,23.7
			c3.673-5.318,9.725-8.492,16.189-8.492c6.463,0,12.515,3.174,16.17,8.468l93.5,136.533
			c-21.26,55.829-67.169,191.348-71.589,330.05C281.351,494.457,268.618,496.792,255.409,496.792z M393.265,376.302
			c3.727,0,7.413-0.348,11.021-1.015c-18.973,43.834-52.785,87.436-95.337,108.487c2.411-57.422,11.885-114.113,23.554-164.419
			C334.55,351.099,361.013,376.302,393.265,376.302z M393.265,254.489c-21.869,0-41.075,11.59-51.818,28.946
			c12.333-46.366,25.632-85.098,35.163-110.69c23.516,24.483,38.912,55.176,44.43,88.475
			C412.704,256.929,403.266,254.489,393.265,254.489z"/>
	</g>
</g>
<g>
	<g>
		<path d="M111.57,282.151c-18.331,0-33.245,14.913-33.245,33.245c0,18.332,14.914,33.246,33.245,33.246
			s33.245-14.914,33.245-33.246C144.815,297.063,129.901,282.151,111.57,282.151z M111.57,333.433
			c-9.946,0-18.037-8.092-18.037-18.038s8.091-18.037,18.037-18.037s18.037,8.091,18.037,18.037S121.515,333.433,111.57,333.433z"/>
	</g>
</g>
<g>
	<g>
		<path d="M400.43,282.151c-18.331,0-33.245,14.913-33.245,33.245c0,18.332,14.914,33.246,33.245,33.246
			s33.245-14.914,33.245-33.246C433.674,297.063,418.76,282.151,400.43,282.151z M400.43,333.433
			c-9.946,0-18.037-8.092-18.037-18.038s8.091-18.037,18.037-18.037s18.037,8.091,18.037,18.037S410.376,333.433,400.43,333.433z"/>
	</g>
</g>
<g>
	<g>
		<path d="M296.071,290.803c-4.082-0.991-8.191,1.517-9.183,5.598c-2.009,8.282-3.945,16.663-5.755,24.91
			c-0.9,4.102,1.695,8.158,5.796,9.058c0.55,0.121,1.098,0.178,1.637,0.178c3.494,0,6.641-2.423,7.419-5.976
			c1.787-8.139,3.699-16.411,5.682-24.586C302.658,295.904,300.152,291.792,296.071,290.803z"/>
	</g>
</g>
<g>
	<g>
		<path d="M285.245,338.447c-4.122-0.817-8.12,1.869-8.933,5.988c-3.634,18.417-6.75,36.758-9.264,54.513
			c-0.589,4.159,2.305,8.006,6.463,8.594c0.362,0.052,0.72,0.076,1.076,0.076c3.727,0,6.982-2.742,7.519-6.54
			c2.474-17.484,5.545-35.551,9.127-53.699C292.046,343.259,289.364,339.26,285.245,338.447z"/>
	</g>
</g>
<g>
</g>
<g>
</g>
<g>
</g>
<g>
</g>
<g>
</g>
<g>
</g>
<g>
</g>
<g>
</g>
<g>
</g>
<g>
</g>
<g>
</g>
<g>
</g>
<g>
</g>
<g>
</g>
<g>
</g>
</svg>
