<?xml version="1.0" encoding="iso-8859-1"?>
<!-- Generator: Adobe Illustrator 19.0.0, SVG Export Plug-In . SVG Version: 6.00 Build 0)  -->
<svg version="1.1" id="Layer_1" xmlns="http://www.w3.org/2000/svg" xmlns:xlink="http://www.w3.org/1999/xlink" x="0px" y="0px"
	 viewBox="0 0 512 512" style="enable-background:new 0 0 512 512;" xml:space="preserve">
<g>
	<g>
		<path d="M95.758,190.55c-4.141-0.616-8.008,2.237-8.629,6.382c-0.826,5.52-1.598,11.109-2.292,16.617
			c-0.524,4.157,2.421,7.953,6.579,8.478c0.323,0.04,7.762,0,8.479-6.58c0.589-5.401,1.435-10.863,2.244-16.269
			C102.76,195.033,99.904,191.17,95.758,190.55z"/>
	</g>
</g>
<g>
	<g>
		<path d="M426.691,213.548c-7.387-58.554-20.496-104.05-26.175-121.979V67.95c0-5.652-4.422-10.311-10.067-10.605
			c-1.492-0.077-2.661-1.304-2.661-2.793c0-1.49,1.169-2.717,2.662-2.794c5.645-0.294,10.066-4.954,10.066-10.605v-22.05
			C400.516,8.569,391.946,0,381.413,0H130.115c-10.533,0-19.103,8.569-19.103,19.103v22.05c0,5.652,4.422,10.311,10.067,10.605
			c1.492,0.077,2.661,1.304,2.661,2.794c0,1.488-1.169,2.716-2.662,2.793c-5.645,0.294-10.066,4.954-10.066,10.605v23.617
			c-4.488,14.164-12.672,42.461-19.617,79.908c-0.764,4.12,1.957,8.081,6.077,8.845c4.124,0.767,8.082-1.958,8.846-6.078
			c6.216-33.513,13.423-59.465,17.958-74.224h198.271c4.191,0,7.589-3.397,7.589-7.589c0-4.192-3.398-7.589-7.589-7.589H126.191
			V71.747c7.403-2.254,12.729-9.126,12.729-17.193c0-8.07-5.326-14.941-12.729-17.194V19.103c0-2.164,1.761-3.925,3.925-3.925
			h251.298c2.164,0,3.925,1.761,3.925,3.925v18.255c-7.403,2.254-12.729,9.126-12.729,17.195c0,8.069,5.326,14.94,12.729,17.193
			v13.093h-29.905c-4.191,0-7.589,3.397-7.589,7.589s3.398,7.589,7.589,7.589h31.819c6.024,19.627,17.63,61.906,24.382,115.429
			c5.516,43.722,6.708,86.174,3.544,126.175c-0.775,9.792-1.839,19.537-3.144,29.08H368.69l-35.92-35.921
			c30.34-23.099,49.964-59.584,49.964-100.572c0-69.667-56.678-126.346-126.346-126.346s-126.347,56.679-126.347,126.346
			c0,21.75,5.525,42.234,15.245,60.123H94.634c0.082-17.655,0.947-35.788,2.578-54.016c0.373-4.175-2.708-7.862-6.883-8.236
			c-4.169-0.385-7.941,2.701-8.235,6.882c-10.151,144.209,14.628,205.468,32.98,248.744c6.246,14.727,20.617,24.263,36.597,24.296
			c0,0,208.136,0,208.126,0c15.992-0.032,30.185-9.645,36.608-24.297C444.307,378.447,432.336,258.294,426.691,213.548z
			 M145.216,234.21c0-61.298,49.87-111.168,111.169-111.168s111.168,49.869,111.168,111.168s-49.869,111.168-111.168,111.168
			S145.216,295.508,145.216,234.21z M382.433,481.778c-3.867,9.119-12.765,15.024-22.662,15.044c-0.972,0-207.089,0-208.056,0
			c-9.902-0.021-18.799-5.925-22.667-15.043c-17.713-41.769-28.722-88.585-32.719-139.146c-0.849-10.734-1.387-21.844-1.604-33.123
			h60.267c23.05,30.957,59.918,51.045,101.393,51.045c23.143,0,44.849-6.26,63.523-17.168l40.27,40.27
			c1.423,1.423,3.353,2.222,5.366,2.222h44.31C404.137,420.092,394.926,452.315,382.433,481.778z"/>
	</g>
</g>
<g>
	<g>
		<path d="M357.287,46.39H154.241c-4.191,0-7.589,3.397-7.589,7.589s3.398,7.589,7.589,7.589h203.046
			c4.191,0,7.589-3.398,7.589-7.589C364.876,49.786,361.478,46.39,357.287,46.39z"/>
	</g>
</g>
<g>
	<g>
		<path d="M357.644,460.395l-101.88,0.001c-4.191,0-7.589,3.397-7.589,7.589s3.398,7.589,7.589,7.589l101.881-0.001
			c4.191,0,7.588-3.398,7.588-7.59C365.233,463.792,361.835,460.395,357.644,460.395z"/>
	</g>
</g>
<g>
	<g>
		<path d="M231.48,460.396h-21.249c-4.191,0-7.589,3.397-7.589,7.589s3.398,7.589,7.589,7.589h21.249
			c4.191,0,7.589-3.397,7.589-7.589S235.671,460.396,231.48,460.396z"/>
	</g>
</g>
<g>
	<g>
		<path d="M190.552,206.769c4.191,0,7.589-3.397,7.589-7.589c0-4.192-3.398-7.589-7.589-7.589h-27.247
			c-4.191,0-7.589,3.397-7.589,7.589v66.277c0,4.192,3.398,7.589,7.589,7.589s7.589-3.397,7.589-7.589v-23.658h16.19
			c4.191,0,7.589-3.397,7.589-7.589s-3.398-7.589-7.589-7.589h-16.19v-19.852H190.552z"/>
	</g>
</g>
<g>
	<g>
		<path d="M224.854,192.35c-13.155,0-23.858,10.701-23.858,23.857v32.224c0,13.155,10.702,23.857,23.858,23.857
			s23.858-10.701,23.858-23.857v-32.224C248.712,203.052,238.009,192.35,224.854,192.35z M233.534,248.43
			c0,4.785-3.894,8.679-8.68,8.679s-8.68-3.894-8.68-8.679v-32.224c0-4.785,3.895-8.679,8.68-8.679c4.786,0,8.68,3.893,8.68,8.679
			V248.43z"/>
	</g>
</g>
<g>
	<g>
		<path d="M281.518,192.35c-13.155,0-23.858,10.701-23.858,23.857v32.224c0,13.155,10.702,23.857,23.858,23.857
			c13.155,0,23.858-10.701,23.858-23.857v-32.224C305.376,203.052,294.673,192.35,281.518,192.35z M290.198,248.43
			c0,4.785-3.894,8.679-8.68,8.679c-4.786,0-8.68-3.894-8.68-8.679v-32.224c0-4.785,3.895-8.679,8.68-8.679
			c4.786,0,8.68,3.893,8.68,8.679V248.43z"/>
	</g>
</g>
<g>
	<g>
		<path d="M336.002,192.35h-14.087c-4.191,0-7.589,3.397-7.589,7.589v64.759c0,4.192,3.398,7.589,7.589,7.589h14.087
			c13.155,0,23.858-10.701,23.858-23.857v-32.224C359.859,203.052,349.157,192.35,336.002,192.35z M344.681,248.43
			c0,4.785-3.895,8.679-8.68,8.679h-6.498v-49.581h6.498c4.786,0,8.68,3.894,8.68,8.679V248.43z"/>
	</g>
</g>
<g>
</g>
<g>
</g>
<g>
</g>
<g>
</g>
<g>
</g>
<g>
</g>
<g>
</g>
<g>
</g>
<g>
</g>
<g>
</g>
<g>
</g>
<g>
</g>
<g>
</g>
<g>
</g>
<g>
</g>
</svg>
