<?xml version="1.0" encoding="iso-8859-1"?>
<!-- Generator: Adobe Illustrator 19.0.0, SVG Export Plug-In . SVG Version: 6.00 Build 0)  -->
<svg version="1.1" id="Layer_1" xmlns="http://www.w3.org/2000/svg" xmlns:xlink="http://www.w3.org/1999/xlink" x="0px" y="0px"
	 viewBox="0 0 512 512" style="enable-background:new 0 0 512 512;" xml:space="preserve">
<g>
	<g>
		<path d="M417.806,435.67c-2.13-3.693-6.853-4.955-10.544-2.825c-3.692,2.131-4.956,6.852-2.825,10.544l20.997,36.37
			c1.497,2.593,3.723,10.48-4.101,15.309c-6.502,4.014-13.312-0.643-15.309-4.101L262.453,242.29
			c7.689-1.584,14.373-5.941,18.968-11.974l107.995,187.056c3.463,5.113,9.328,3.527,10.544,2.825
			c3.692-2.131,4.956-6.852,2.825-10.544l-18.067-31.459c50.04-38.582,82.29-99.112,82.29-167.186
			C467.007,94.471,372.536,0,256.001,0C139.464,0,44.993,94.471,44.993,211.006c0,68.104,32.278,128.657,82.356,167.237
			l-54.153,93.795c-3.558,6.164-4.503,13.344-2.661,20.219c1.842,6.875,6.251,12.621,12.415,16.178
			c12.72,7.345,29.048,2.972,36.396-9.752l20.969-36.319h231.373l20.969,36.319c10.516,16.94,32.352,12.088,36.395,9.752
			c6.165-3.558,21.977-11.852,9.753-36.396L417.806,435.67z M270.701,287.452l60.196,104.263
			c-23.745,9.855-48.933,14.863-74.896,14.863c-16.912,0-33.494-2.13-49.565-6.332L270.701,287.452z M191.305,395.615
			c-3.428-1.203-6.83-2.501-10.201-3.901l74.896-129.724l5.758,9.974L191.305,395.615z M256.001,227.508
			c-9.099,0-16.502-7.402-16.502-16.501c0-9.099,7.403-16.502,16.502-16.502c9.099,0,16.502,7.403,16.502,16.502
			C272.502,220.106,265.099,227.508,256.001,227.508z M436.207,134.887c10.033,24.168,15.362,49.711,15.362,76.12
			c0,26.408-5.168,52.019-15.362,76.12c-9.849,23.287-23.953,44.203-41.919,62.169c-5.501,5.501-11.285,10.632-17.325,15.394
			l-75.433-131.35l91.96-161.401C393.755,72.201,418.951,93.324,436.207,134.887z M118.508,350.076
			c-0.265-0.261-26.489-28.622-42.715-62.95c-11.183-23.658-15.362-49.712-15.362-76.12s5.168-52.019,15.362-76.12
			c9.849-23.287,23.953-44.204,41.919-62.169c17.966-17.966,38.882-32.069,62.169-41.919c24.101-10.193,49.711-15.361,76.12-15.361
			c16.912,0,33.494,2.13,49.565,6.332L284.3,59.093c-2.111,3.704-0.818,8.418,2.886,10.527c1.206,0.688,7.409,2.433,10.527-2.886
			l22.982-40.336c3.842,1.348,7.654,2.806,11.425,4.401c18.083,7.649,34.729,17.874,49.683,30.469l-89.19,156.542l-4.708-8.198
			c-0.734-16.966-14.76-30.544-31.904-30.544c-17.515,0-31.778,14.174-31.932,31.653l-88.938,154.045
			c-1.665-1.311-3.306-2.657-4.931-4.025l127.824-224.347c2.111-3.704,0.819-8.418-2.885-10.527
			c-3.703-2.111-8.417-0.818-10.527,2.886L118.508,350.076z M105.976,490.964c-3.091,5.352-9.956,7.192-15.309,4.102
			c-2.592-1.496-8.338-7.916-4.101-15.309l144.015-249.442c4.594,6.033,11.279,10.39,18.968,11.974L105.976,490.964z
			 M149.227,446.927l24.108-41.756c25.389,10.826,53.321,16.843,82.666,16.843c29.345,0,57.276-6.016,82.666-16.843l24.108,41.756
			H149.227z"/>
	</g>
</g>
<g>
	<g>
		<path d="M281.807,79.06c-3.704-2.112-8.418-0.818-10.527,2.886l-13.903,24.401c-2.111,3.703-0.819,8.416,2.885,10.527
			c1.206,0.688,7.403,3.035,10.528-2.886l13.903-24.401C286.804,85.884,285.511,81.17,281.807,79.06z"/>
	</g>
</g>
<g>
</g>
<g>
</g>
<g>
</g>
<g>
</g>
<g>
</g>
<g>
</g>
<g>
</g>
<g>
</g>
<g>
</g>
<g>
</g>
<g>
</g>
<g>
</g>
<g>
</g>
<g>
</g>
<g>
</g>
</svg>
