<?xml version="1.0" encoding="iso-8859-1"?>
<!-- Generator: Adobe Illustrator 19.0.0, SVG Export Plug-In . SVG Version: 6.00 Build 0)  -->
<svg version="1.1" id="Layer_1" xmlns="http://www.w3.org/2000/svg" xmlns:xlink="http://www.w3.org/1999/xlink" x="0px" y="0px"
	 viewBox="0 0 511.999 511.999" style="enable-background:new 0 0 511.999 511.999;" xml:space="preserve">
<g>
	<g>
		<path d="M412.644,152.11h-64.381c-4.2,0-7.604,3.404-7.604,7.604s3.404,7.604,7.604,7.604h64.381c4.2,0,7.604-3.404,7.604-7.604
			S416.845,152.11,412.644,152.11z"/>
	</g>
</g>
<g>
	<g>
		<path d="M462.322,152.11h-23.827c-4.2,0-7.604,3.404-7.604,7.604s3.404,7.604,7.604,7.604h23.827c4.2,0,7.604-3.404,7.604-7.604
			S466.523,152.11,462.322,152.11z"/>
	</g>
</g>
<g>
	<g>
		<path d="M111.58,259.274c-1.409-1.419-3.376-2.23-5.373-2.23c-1.997,0-3.964,0.811-5.373,2.23c-1.419,1.409-2.23,3.376-2.23,5.373
			s0.811,3.964,2.23,5.373c1.41,1.418,3.376,2.23,5.373,2.23c1.997,0,3.964-0.811,5.373-2.23c1.419-1.409,2.23-3.366,2.23-5.373
			C113.81,262.64,112.999,260.684,111.58,259.274z"/>
	</g>
</g>
<g>
	<g>
		<path d="M161.765,229.362c-1.409-1.419-3.376-2.23-5.373-2.23s-3.964,0.811-5.373,2.23c-1.419,1.409-2.23,3.376-2.23,5.373
			c0,1.997,0.811,3.964,2.23,5.373c1.41,1.419,3.376,2.23,5.373,2.23s3.964-0.811,5.373-2.23c1.419-1.409,2.23-3.366,2.23-5.373
			C163.996,232.728,163.185,230.771,161.765,229.362z"/>
	</g>
</g>
<g>
	<g>
		<path d="M216.767,259.274c-1.409-1.419-3.376-2.23-5.373-2.23c-1.997,0-3.964,0.811-5.373,2.23
			c-1.419,1.409-2.23,3.376-2.23,5.373s0.811,3.964,2.23,5.373c1.41,1.418,3.376,2.23,5.373,2.23c1.997,0,3.964-0.811,5.373-2.23
			c1.419-1.409,2.23-3.366,2.23-5.373C218.997,262.64,218.186,260.684,216.767,259.274z"/>
	</g>
</g>
<g>
	<g>
		<path d="M256,395.881h-26.867c-4.2,0-7.604,3.404-7.604,7.604s3.404,7.604,7.604,7.604H256c4.2,0,7.604-3.404,7.604-7.604
			S260.2,395.881,256,395.881z"/>
	</g>
</g>
<g>
	<g>
		<path d="M475.829,179.759c-4.189-3.522-9.388-2.945-10.892-2.683c-8.691,1.527-13.994,5.495-18.672,8.997
			c-5.113,3.826-8.807,6.59-17.102,6.59c-8.291,0-11.981-2.765-17.089-6.592c-5.725-4.29-12.852-9.63-26.209-9.63
			c-13.355,0-20.48,5.34-26.206,9.63c-5.106,3.827-8.796,6.592-17.086,6.592c-8.29,0-11.98-2.765-17.086-6.592
			c-5.725-4.29-12.851-9.63-26.207-9.63c-13.356,0-20.481,5.34-26.206,9.631c-5.106,3.826-8.795,6.591-17.086,6.591
			c-8.29,0-11.979-2.765-17.085-6.591c-5.724-4.291-12.851-9.631-26.206-9.631c-13.354,0-20.478,5.34-26.203,9.631
			c-5.106,3.826-8.795,6.591-17.083,6.591c-8.289,0-11.978-2.765-17.084-6.591c-5.724-4.291-12.85-9.631-26.206-9.631
			c-13.355,0-20.481,5.34-26.206,9.631c-5.106,3.826-8.795,6.591-17.085,6.591c-8.294,0-11.987-2.765-17.098-6.59
			c-4.675-3.5-9.974-7.466-18.637-8.991c-0.06-0.011-6.159-1.046-10.909,2.929c-2.739,2.293-4.248,5.661-4.248,9.484v40.145
			c0,4.199,3.404,7.604,7.604,7.604s7.604-3.404,7.604-7.604v-36.922c3.613,1.147,6.271,3.135,9.473,5.532
			c5.727,4.288,12.857,9.623,26.211,9.623c13.356,0,20.481-5.34,26.206-9.631c5.106-3.826,8.795-6.591,17.085-6.591
			s11.979,2.765,17.085,6.592c5.724,4.29,12.85,9.63,26.205,9.63s20.479-5.34,26.204-9.631c5.106-3.826,8.794-6.591,17.082-6.591
			c8.29,0,11.979,2.765,17.085,6.591c5.724,4.291,12.851,9.631,26.206,9.631c13.356,0,20.481-5.34,26.206-9.631
			c5.106-3.826,8.795-6.591,17.085-6.591c8.29,0,11.98,2.765,17.086,6.592c5.725,4.29,12.851,9.63,26.207,9.63
			s20.481-5.34,26.207-9.631c5.106-3.826,8.796-6.591,17.085-6.591c8.292,0,11.982,2.766,17.09,6.592
			c5.725,4.291,12.852,9.63,26.208,9.63c13.356,0,20.485-5.336,26.213-9.622c3.206-2.399,5.864-4.389,9.481-5.535v88.643
			c-13.808-13.445-30.992-20.493-51.2-21.042v-30.392c0-8.665-7.049-15.715-15.715-15.715h-4.055
			c-8.665,0-15.715,7.049-15.715,15.715v5.576h-2.028v-5.576c0-8.665-7.049-15.715-15.715-15.715h-4.055
			c-8.665,0-15.715,7.049-15.715,15.715v5.576h-2.028v-5.576c0-8.665-7.049-15.715-15.715-15.715h-4.055
			c-8.665,0-15.715,7.049-15.715,15.715v38.817c-0.358-0.012-0.71-0.023-1.049-0.033c-3.862-0.109-5.989-0.17-9.379-2.84
			c-3.39-2.669-3.948-4.723-4.961-8.451c-1.219-4.487-2.888-10.633-10.229-16.412c-3.3-2.599-8.081-2.03-10.678,1.27
			c-2.598,3.299-2.03,8.08,1.27,10.678c3.39,2.669,3.948,4.723,4.961,8.45c1.219,4.487,2.888,10.633,10.229,16.412
			c0.999,0.787,1.978,1.461,2.938,2.054c-1.066-0.097-2.21-0.365-3.597-0.896c-4.028-1.545-5.17-3.342-7.241-6.602
			c-2.493-3.926-5.908-9.301-14.632-12.647c-3.919-1.505-8.319,0.456-9.822,4.376c-1.504,3.922,0.455,8.319,4.377,9.823
			c4.028,1.545,5.17,3.342,7.241,6.602c2.493,3.926,5.908,9.301,14.632,12.647c0.901,0.346,1.767,0.626,2.614,0.869
			c-0.823,0.094-1.741,0.107-2.814,0.028c-4.304-0.314-5.916-1.704-8.842-4.227c-3.521-3.036-8.344-7.195-17.662-7.877
			c-4.193-0.302-7.832,2.841-8.138,7.029c-0.086,1.178,0.109,2.311,0.517,3.341c-0.923,0.244-1.84,0.507-2.749,0.803
			c-5.751-3.868-13.284-6.187-21.642-6.187c-9.209,0-17.422,2.808-23.346,7.41c-1.576-0.201-20.633-2.878-31.961,14.728
			c-3.777,2.346-7.242,5.086-10.324,8.246c-6.426-4.07-13.642-6.698-21.227-7.735c-5.844-5.488-14.976-8.962-25.426-8.962
			c-12.158,0-22.534,4.701-28.018,11.807c-1.272-0.094-16.595-2.713-31.039,7.675v-61.418c0-4.199-3.404-7.604-7.604-7.604
			s-7.604,3.405-7.604,7.604v95.67c-0.001,8.664,7.048,15.714,15.714,15.714H464.35c8.665,0,15.715-7.049,15.715-15.715V189.496
			C480.065,185.513,478.561,182.055,475.829,179.759z M318.355,229.923c0-0.261,5.069-0.261,5.069,0v13.18
			c0,4.199,3.404,7.604,7.604,7.604h17.235c4.2,0,7.604-3.405,7.604-7.604v-13.18c0-0.261,5.069-0.261,5.069,0v13.18
			c0,4.199,3.404,7.604,7.604,7.604h17.235c4.2,0,7.604-3.405,7.604-7.604v-13.18c0-0.261,5.069-0.261,5.069,0v93.329h-14.194
			v-32.498c0-14.256-11.597-25.853-25.853-25.853s-25.853,11.597-25.853,25.853v32.498h-14.194V229.923z M369.048,290.754v32.443
			h-21.291v-32.443c0-5.87,4.775-10.645,10.645-10.645C364.272,280.109,369.048,284.884,369.048,290.754z M218.49,302.16
			c10.456,0,17.742,5.544,17.742,10.519c0,4.975-7.287,10.519-17.742,10.519s-17.742-5.544-17.742-10.519
			C200.748,307.704,208.035,302.16,218.49,302.16z M185.752,309.73c-0.136,0.967-0.212,1.95-0.212,2.949
			c0,3.729,0.973,7.246,2.727,10.416c-6.984-0.626-11.345-4.276-11.345-6.868C176.922,313.963,180.253,310.888,185.752,309.73z
			 M106.206,315.847c10.367,0,16.982,4.954,16.982,8.364c0,3.411-6.615,8.364-16.982,8.364c-10.367,0-16.982-4.954-16.982-8.364
			C89.224,320.801,95.84,315.847,106.206,315.847z M464.857,354.375c0,0.261-417.708,0.261-417.708,0v-5.57
			c-0.12-9.739,9.882-21.582,27.174-21.297c2.128,11.603,15.364,20.276,31.883,20.276c16.802,0,30.208-8.973,31.984-20.873
			c3.949,1.538,7.521,3.871,10.931,6.519c2.453,1.904,5.512,1.803,5.8,1.769c2.096-0.24,3.997-1.339,5.251-3.035
			c1.44-1.949,3.078-3.762,4.856-5.426c4.764,6.999,14.21,11.668,25.328,11.668c4.736,0,9.414-0.892,13.537-2.575
			c4.378,1.652,9.323,2.575,14.597,2.575c18.477,0,32.95-11.3,32.95-25.727c0-2.221-0.346-4.367-0.994-6.411
			c9.101-2.745,16.446,1.119,17.087,1.126c2.319,0.913,5.054,1.6,8.364,1.841c9.317,0.678,14.695-2.731,18.62-5.223
			c3.07-1.949,4.855-3.07,8.628-2.935v21.613c0,8.665,7.049,15.715,15.715,15.715h79.081c8.665,0,15.715-7.049,15.715-15.715
			v-47.168c18.521,0.622,51.2,17.204,51.2,39.649V354.375z"/>
	</g>
</g>
<g>
	<g>
		<path d="M500.342,375.302V145.52c0-13.138-10.688-23.826-23.826-23.826h-369.55v-6.083c0-8.106-6.595-14.701-14.701-14.701H70.975
			c-8.106,0-14.701,6.595-14.701,14.701v6.083H35.49c-13.138,0-23.826,10.688-23.826,23.826V375.3
			C4.838,378.046,0,384.724,0,392.522c0,10.238,8.33,18.567,18.567,18.567h185.222c4.2,0,7.604-3.404,7.604-7.604
			s-3.403-7.604-7.604-7.604H18.567c-1.821,0-3.359-1.539-3.359-3.359c0-1.82,1.539-3.359,3.359-3.359h474.866
			c1.821,0,3.359,1.539,3.359,3.359c0,1.82-1.539,3.359-3.359,3.359H279.995c-4.2,0-7.604,3.404-7.604,7.604
			s3.404,7.604,7.604,7.604h213.437c10.238,0,18.567-8.329,18.567-18.567C512,384.726,507.165,378.049,500.342,375.302z
			 M71.482,116.118h20.277v5.576H71.482V116.118z M71.482,136.902h20.277v26.837H71.482V136.902z M485.134,373.954H26.872V145.52
			c0-4.752,3.866-8.618,8.618-8.618h20.784v27.344c0,8.106,6.595,14.701,14.701,14.701h21.291c8.106,0,14.701-6.595,14.701-14.701
			v-27.344h369.55c4.752,0,8.618,3.866,8.618,8.618V373.954z"/>
	</g>
</g>
<g>
</g>
<g>
</g>
<g>
</g>
<g>
</g>
<g>
</g>
<g>
</g>
<g>
</g>
<g>
</g>
<g>
</g>
<g>
</g>
<g>
</g>
<g>
</g>
<g>
</g>
<g>
</g>
<g>
</g>
</svg>
