<?xml version="1.0" encoding="iso-8859-1"?>
<!-- Generator: Adobe Illustrator 19.0.0, SVG Export Plug-In . SVG Version: 6.00 Build 0)  -->
<svg version="1.1" id="Layer_1" xmlns="http://www.w3.org/2000/svg" xmlns:xlink="http://www.w3.org/1999/xlink" x="0px" y="0px"
	 viewBox="0 0 512 512" style="enable-background:new 0 0 512 512;" xml:space="preserve">
<g>
	<g>
		<path d="M189.422,368.991l-39.831-10.19c-4.093-1.05-8.253,1.422-9.299,5.51c-1.047,4.089,1.421,8.252,5.509,9.299l39.831,10.19
			c0.636,0.163,1.273,0.24,1.899,0.24c3.409,0,6.516-2.297,7.399-5.75C195.978,374.201,193.511,370.037,189.422,368.991z"/>
	</g>
</g>
<g>
	<g>
		<path d="M194.931,394.784c-1.047-4.089-5.205-6.553-9.299-5.51l-39.831,10.19c-4.089,1.047-6.556,5.209-5.509,9.299
			c0.884,3.453,3.991,5.75,7.399,5.75c0.627,0,1.264-0.078,1.899-0.24l39.831-10.19
			C193.512,403.036,195.979,398.873,194.931,394.784z"/>
	</g>
</g>
<g>
	<g>
		<path d="M371.047,364.311c-1.046-4.089-5.204-6.556-9.299-5.51l-39.831,10.19c-4.089,1.047-6.556,5.209-5.509,9.299
			c0.883,3.453,3.99,5.75,7.399,5.75c0.627,0,1.264-0.078,1.899-0.24l39.831-10.19C369.627,372.563,372.094,368.4,371.047,364.311z"
			/>
	</g>
</g>
<g>
	<g>
		<path d="M365.538,399.464l-39.831-10.19c-4.093-1.047-8.253,1.422-9.299,5.51c-1.048,4.089,1.419,8.252,5.509,9.299l39.831,10.19
			c0.636,0.163,1.273,0.24,1.899,0.24c3.409,0,6.516-2.297,7.399-5.75C372.093,404.674,369.626,400.511,365.538,399.464z"/>
	</g>
</g>
<g>
	<g>
		<path d="M434.347,419.602c-1.953-3.743-6.572-5.192-10.312-3.238l-14.293,7.46c-3.742,1.953-5.192,6.57-3.239,10.312
			c1.363,2.613,5.58,5.349,10.312,3.24l14.293-7.461C434.85,427.96,436.3,423.344,434.347,419.602z"/>
	</g>
</g>
<g>
	<g>
		<path d="M443.11,225.072c-12.345-42.807-37.385-82.645-70.51-112.176c-3.154-2.81-7.981-2.531-10.792,0.619
			c-2.808,3.151-2.532,7.982,0.619,10.791c31.002,27.638,54.44,64.928,65.996,105.002c0.965,3.349,4.02,5.527,7.339,5.527
			c0.702,0,1.414-0.098,2.122-0.301C441.941,233.364,444.279,229.128,443.11,225.072z"/>
	</g>
</g>
<g>
	<g>
		<path d="M460.904,283.649c-2.448-8.407-5.037-17.127-7.692-25.916c-1.222-4.042-5.492-6.327-9.527-5.106
			c-4.04,1.222-6.327,5.486-5.106,9.527c2.641,8.741,5.214,17.411,7.648,25.769c0.972,3.339,4.023,5.508,7.334,5.508
			c0.708,0,1.428-0.099,2.142-0.308C459.755,291.944,462.084,287.701,460.904,283.649z"/>
	</g>
</g>
<g>
	<g>
		<path d="M317.648,240.559c-14.969,0-27.146,12.177-27.146,27.145c0,14.967,12.178,27.145,27.146,27.145
			s27.144-12.177,27.145-27.145C344.793,252.736,332.616,240.559,317.648,240.559z M317.648,279.563
			c-6.54,0-11.86-5.32-11.86-11.859c0-6.539,5.32-11.859,11.86-11.859c6.539,0,11.859,5.32,11.859,11.859
			C329.507,274.243,324.187,279.563,317.648,279.563z"/>
	</g>
</g>
<g>
	<g>
		<path d="M196.416,240.559c-14.969,0-27.145,12.177-27.145,27.145c0,14.967,12.177,27.145,27.145,27.145
			c14.968,0,27.146-12.177,27.146-27.145C223.562,252.736,211.384,240.559,196.416,240.559z M196.416,279.563
			c-6.539,0-11.859-5.32-11.859-11.859c0-6.539,5.32-11.859,11.859-11.859c6.54,0,11.86,5.32,11.86,11.859
			C208.276,274.243,202.956,279.563,196.416,279.563z"/>
	</g>
</g>
<g>
	<g>
		<path d="M509.419,344.07c-7.815-48.268-40.312-139.841-42.589-145.955c38.793-23.062,56.105-66.682,37.94-97.387
			c-35.11-59.346-109.06-12.125-111.297-10.59c-30.684-27.404-65.875-45.387-102.648-52.303c-4.141-0.781-8.144,1.949-8.925,6.098
			c-0.781,4.148,1.95,8.143,6.098,8.924c15.589,2.932,30.931,8.185,45.681,15.408l-68.917,136.256
			c-1.871,3.699-5.183,5.997-8.642,5.997c-3.46,0-6.771-2.298-8.641-5.997L178.683,68.508c23.639-11.71,49.549-18.581,76.987-18.581
			c4.222,0,7.643-3.422,7.643-7.643s-3.421-7.643-7.643-7.643c-48.351,0-95.445,19.319-136.267,55.863
			c-2.401-1.669-77.481-44.367-111.814,10.223c-19.013,30.232-0.818,74.421,38.064,97.461
			c-2.584,6.802-32.519,94.555-42.631,145.528c-0.01,0.049-0.022,0.099-0.034,0.148c-0.991,4.432-2.615,15.435,3.648,21.895
			c1.964,2.024,6.38,5.204,13.838,3.779l5.428-0.988l-2.403,7.434c-2.472,7.742-2.148,23.196,14.746,32.015
			c0,0,97.744,51.017,98.921,51.543c0,0,22.027,12.023,42.099,12.023c7.747,0,15.184-1.375,22.281-4.128
			c5.155-1.999,9.906-4.655,14.294-7.79c10.143,11.186,24.648,17.714,39.907,17.714c15.328,0,29.68-6.477,39.805-17.62
			c4.294,3.057,8.933,5.655,13.959,7.628c7.168,2.817,14.682,4.223,22.514,4.223c25.199,0,60.036-21.298,60.036-21.298
			c3.743-1.953,5.193-6.57,3.241-10.312c-1.953-3.742-6.571-5.191-10.312-3.24c-10.385,5.42-17.438,9.1-17.933,9.356
			c-0.045,0.022-0.09,0.046-0.133,0.07c-19.513,10.471-36.95,12.816-51.823,6.974c-21.826-8.575-35.435-32.896-43.414-53.908
			c6.739-4.944,11.125-12.915,11.125-21.896c0-14.967-12.176-27.145-27.145-27.145c-14.968,0-27.146,12.177-27.146,27.145
			c0,8.974,4.38,16.94,11.11,21.885c-7.925,20.816-21.605,45.423-43.614,53.962c-14.84,5.755-32.221,3.386-51.662-7.047
			c-0.045-0.023-0.09-0.048-0.135-0.07c-2.01-1.042-97.932-51.114-98.904-51.621c-9.281-4.844-7.903-11.798-7.267-13.787
			l6.327-19.569c0.827-2.558,0.249-5.363-1.522-7.386c-1.77-2.024-4.477-2.966-7.119-2.484l-18.067,3.29
			c-0.054,0.01-0.106,0.019-0.154,0.028c-0.307-1.523-0.24-4.477,0.374-7.273c13.379-54.74,35.512-124.069,35.548-124.196
			c16.195-56.157,56.971-114.67,111.812-147.251l68.588,135.605c4.487,8.873,13.024,14.385,22.282,14.385
			c9.257,0,17.795-5.512,22.282-14.384l68.746-135.919c51.047,29.906,93.266,83.457,111.109,145.332
			c0.035,0.123,22.102,64.119,36.274,126.7c0.585,2.991,0.528,5.647,0.238,6.989c-0.048-0.007-0.099-0.016-0.151-0.026
			c-8.507-1.566-18.009-3.28-18.009-3.28c-2.639-0.477-5.338,0.467-7.107,2.485c-1.768,2.019-2.349,4.817-1.529,7.372
			c0,0,6.306,19.642,6.322,19.691c0.113,0.33,2.658,8.122-6.787,13.437l-17.634,9.205c-3.743,1.953-5.193,6.57-3.241,10.312
			c1.365,2.613,6.21,5.214,10.312,3.24l17.734-9.257c0.062-0.032,0.122-0.064,0.182-0.098c16.408-9.139,16.289-24.69,13.918-31.718
			l-2.358-7.349c1.788,0.327,3.632,0.664,5.431,0.996c7.4,1.359,11.776-1.767,13.725-3.751c6.161-6.27,4.783-17.062,3.906-21.41
			C509.466,344.27,509.435,344.172,509.419,344.07z M255.669,365.48c6.539,0,11.859,5.32,11.859,11.859
			c0,6.539-5.32,11.859-11.859,11.859c-6.54,0-11.86-5.32-11.86-11.859C243.809,370.8,249.129,365.48,255.669,365.48z
			 M243.81,426.599c4.113-7.406,7.478-15.002,10.201-22.171c0.549,0.034,2.76,0.034,3.307,0.001
			c2.74,7.231,6.109,14.834,10.213,22.23c0,0,0.287,13.312,0.107,13.667H243.86C243.679,439.972,243.81,426.599,243.81,426.599z
			 M230.163,446.419c2.431,5.503,7.339,9.193,13.134,9.193h24.745c5.778,0,10.673-3.667,13.112-9.141
			c0.942,1.091,1.908,2.16,2.897,3.205c-7.24,7.845-17.43,12.397-28.303,12.397c-10.844,0-21.158-4.606-28.416-12.508
			C228.301,448.542,229.241,447.488,230.163,446.419z M66.148,155.656c-6.955-4.786-12.507-10.807-15.859-17.289
			c-3.584-6.927-3.376-11.937-2.108-14.124c1.508-2.605,6.715-5.234,14.946-5.234c7.594,0,15.923,2.269,23.65,6.415
			C79.257,135.03,72.36,145.146,66.148,155.656z M96.687,113.474c-0.183-0.109-19.609-9.759-33.561-9.749
			c-13.173,0.01-23.442,4.688-28.172,12.857c-4.413,7.615-3.772,18.115,1.759,28.809c4.693,9.072,12.42,17.36,21.993,23.68
			c-2.532,4.875-4.922,9.819-7.157,14.826C21.169,164.9,7.794,131.803,20.815,108.392c21.871-39.324,86.007-7.887,87.228-7.1
			C104.138,105.227,100.354,109.295,96.687,113.474z M446.546,155.425c-6.154-10.526-13.005-20.66-20.459-30.263
			c7.584-3.975,15.716-6.152,23.146-6.152c8.231,0,13.438,2.629,14.947,5.236c1.266,2.186,1.474,7.195-2.109,14.122
			C458.771,144.745,453.344,150.677,446.546,155.425z M453.927,168.895c9.448-6.298,17.071-14.517,21.72-23.504
			c5.531-10.693,6.172-21.193,1.76-28.807c-4.732-8.173-15.001-12.859-28.173-12.859c-10.805,0-22.527,3.345-33.01,9.419
			c-0.006,0.004-0.012,0.007-0.018,0.011c-3.398-3.895-11.072-11.923-11.357-12.211c1.049-0.665,61.246-38.161,86.698,7.448
			c13.026,23.343-0.292,56.367-30.534,75.385C458.804,178.759,456.44,173.793,453.927,168.895z"/>
	</g>
</g>
<g>
</g>
<g>
</g>
<g>
</g>
<g>
</g>
<g>
</g>
<g>
</g>
<g>
</g>
<g>
</g>
<g>
</g>
<g>
</g>
<g>
</g>
<g>
</g>
<g>
</g>
<g>
</g>
<g>
</g>
</svg>
