<?xml version="1.0" encoding="iso-8859-1"?>
<!-- Generator: Adobe Illustrator 19.0.0, SVG Export Plug-In . SVG Version: 6.00 Build 0)  -->
<svg version="1.1" id="Layer_1" xmlns="http://www.w3.org/2000/svg" xmlns:xlink="http://www.w3.org/1999/xlink" x="0px" y="0px"
	 viewBox="0 0 512.001 512.001" style="enable-background:new 0 0 512.001 512.001;" xml:space="preserve">
<g>
	<g>
		<path d="M132.205,305.09c-2.239-0.001-4.503-0.115-6.733-0.338c-4.163-0.417-7.905,2.63-8.323,6.809
			c-0.418,4.179,2.631,7.905,6.81,8.323c2.725,0.273,5.497,0.412,8.235,0.414c0.002,0,0.003,0,0.005,0
			c4.197,0,7.601-3.401,7.604-7.6C139.806,308.499,136.403,305.093,132.205,305.09z"/>
	</g>
</g>
<g>
	<g>
		<path d="M129.252,139.195c-5.518-4.915-14.044-7.849-22.805-7.849c-11.634,0-21.937,5.212-28.27,14.299
			c-10.999,15.782-10.13,41.247,2.579,75.684c1.846,5.005,6.415,8.24,11.638,8.241c0.001,0,0.001,0,0.002,0
			c6.037,0,11.888-4.103,17.882-12.541c2.788-3.923,26.529-38.53,27.59-40.077C144.7,166.732,140.755,149.441,129.252,139.195z
			 M125.276,168.426c-0.246,0.359-30.394,43.616-31.373,44.534c-12.863-36.469-7.622-52.344-3.248-58.619
			c4.72-6.776,11.922-7.787,15.793-7.787c5.666,0,10.456,2.007,12.691,3.998C125.798,156.485,127.069,165.743,125.276,168.426z"/>
	</g>
</g>
<g>
	<g>
		<path d="M129.252,139.195c-5.518-4.915-14.043-7.849-22.805-7.849c-11.634,0-21.937,5.211-28.27,14.299
			c-10.999,15.782-10.13,41.246,2.579,75.684c1.846,5.005,6.415,8.24,11.638,8.241c0.001,0,0.001,0,0.002,0
			c6.037,0,11.888-4.102,17.882-12.54c2.788-3.923,26.529-38.531,27.59-40.077C144.7,166.732,140.756,149.441,129.252,139.195z
			 M125.276,168.426c-0.246,0.36-30.394,43.616-31.373,44.534c-12.862-36.469-7.621-52.344-3.248-58.619
			c4.72-6.776,11.922-7.787,15.793-7.787c5.665,0,10.456,2.007,12.69,3.998C125.799,156.485,127.07,165.743,125.276,168.426z"/>
	</g>
</g>
<g>
	<g>
		<path d="M495.457,395.237c-10.483-13.485-28.31-32.705-48.417-52.752c-0.001-0.001-0.002-0.001-0.003-0.002
			c-3.916-14.203-10.6-31.57-19.925-51.757c-19.173-41.503-46.176-87.405-63.153-112.49c-0.066-0.098-0.136-0.195-0.206-0.291
			c-23.237-31.088-49.278-48.317-77.523-51.337c-0.043-0.054-0.079-0.109-0.124-0.162c-27.866-32.867-57.854-57.479-86.719-71.177
			c-23.889-11.793-48.265-16.605-70.496-13.922c-23.569,2.846-44.297,14.098-59.95,32.543
			C37.5,109.742,28.856,159.067,27.07,193.672c-8.855,10.015-20.243,26.101-24.905,46.45c-5.596,24.434-0.33,48.791,15.652,72.391
			c1.47,2.171,6.281,4.953,10.559,2.032c3.468-2.367,4.387-7.083,2.033-10.56c-23.317-34.433-15.615-64.307-3.454-84.607
			c2.348,78.996,36.105,116.989,42.385,122.972c-11.245-7.74-19.009-15.02-22.987-19.084c-2.936-3.001-7.752-3.054-10.752-0.117
			c-3.002,2.937-3.055,7.752-0.117,10.753c8.178,8.357,30.901,29.103,65.963,42.249c22.442,19.904,48.314,35.974,75.095,46.372
			l5.604,9.708c1.729,2.995,4.243,5.388,7.19,6.997l-2.423,11.205c-11.262,1.755-18.025,7.012-18.515,7.404
			c-3.279,2.624-3.811,7.409-1.187,10.688c2.624,3.278,7.409,3.809,10.688,1.186c0.139-0.111,14.046-10.896,36.35,0.798
			c1.126,0.591,7.291,2.198,10.265-3.204c2.026-3.678,0.516-8.315-3.204-10.265c-6.804-3.567-13.126-5.563-18.86-6.5l2.206-10.204
			c3.695-1.376,6.914-3.907,9.106-7.283c9.072,1.581,28.308,5.061,46.976,0.768l0.766,1.328c1.665,2.884,4.056,5.216,6.865,6.821
			l-1.83,8.465c-11.262,1.755-18.024,7.012-18.515,7.404c-3.279,2.624-3.811,7.409-1.187,10.688
			c2.623,3.278,7.408,3.809,10.688,1.186c0.14-0.111,14.047-10.896,36.35,0.798c1.126,0.591,7.124,2.198,10.265-3.204
			c2.111-3.631,0.516-8.315-3.204-10.265c-6.804-3.567-13.126-5.563-18.86-6.5l1.543-7.138c4.159-1.442,7.753-4.339,10.012-8.252
			l10.358-17.941c1.432-0.954,15.639-9.763,24.056-20.474c21.156,11.361,50.001,26.131,74.65,36.201
			c18.847,7.7,32.108,11.477,41.209,11.476c6.519,0,10.905-1.939,13.674-5.761c1.561-2.154,2.267-4.515,2.413-6.942
			c7.114,2.771,41.62,14.77,49.575,3.599C515.266,427.307,511.11,415.372,495.457,395.237z M351.465,186.907
			c16.649,24.625,43.063,69.545,61.841,110.195c25.772,55.79,24.359,76.358,20.076,80.431c-2.313,2.198-16.506,4.226-74.678-33.567
			c-1.341-0.871-2.853-1.43-4.44-1.43c-0.275,0-13.046,1.097-19.068,1.049c-108.584-0.859-151.84-81.601-148.507-117.922
			c3.328-36.264,36.545-84.332,90.48-84.332C303.822,141.331,328.819,156.667,351.465,186.907z M178.933,175.661
			c-5.845,0-10.6-4.755-10.6-10.601s4.755-10.6,10.6-10.6c5.845,0,10.6,4.755,10.6,10.6S184.777,175.661,178.933,175.661z
			 M266.222,126.836c-5.101,0.651-9.952,1.712-14.501,3.057c-0.825-7.367-2.041-14.573-3.635-21.591
			C254.18,114.053,260.236,120.239,266.222,126.836z M47.246,155.138c4.026,1.505,6.906,5.378,6.906,9.922
			c0,5.739-4.588,10.416-10.286,10.583C44.668,169.041,45.767,162.153,47.246,155.138z M299.311,401.926
			c-0.031,0.023-0.064,0.047-0.097,0.071c-61.234,45.443-163.792,0.122-217.561-68.986c-15.28-20.215-25.939-41.876-32.364-66.103
			c12.29,21.021,28.884,37.107,48.425,45.916c1.014,0.457,7.746,1.684,10.057-3.807c1.629-3.87,0.021-8.331-3.808-10.056
			c-33.15-14.944-56.681-55.018-61.696-104.832c0.058-1.1,0.124-2.217,0.197-3.347c0.356,0.052,26.895-1.482,26.895-25.721
			c0-11.668-7.785-21.547-18.434-24.729c5.739-19.882,14.928-39.872,29.487-56.459c0.028-0.033,0.058-0.066,0.086-0.1
			c26.289-31.018,68.234-36.567,112.206-14.844c0.036,0.018,0.074,0.036,0.111,0.054c11.173,5.297,22.572,12.406,33.976,21.134
			c5.308,14.08,8.724,29.337,10.191,45.417c-14.477,6.827-23.864,15.15-25.702,16.85c-0.941,0.749-3.668,2.994-7.279,6.567
			c-2.752-11.29-12.945-19.698-25.07-19.698c-14.23,0-25.807,11.577-25.807,25.807c0,25.929,27.09,25.776,27.722,25.729
			c-4.782,9.743-8.451,21.069-9.323,33.705c-1.332,19.318,4.057,38.38,16.042,56.928c-10.349,9.464-21.495,16.208-33.194,20.054
			c-3.99,1.311-6.317,5.664-4.849,9.598c2.573,6.897,8.809,5.108,9.598,4.849c13.286-4.368,25.863-11.806,37.466-22.147
			c47.515,66.016,139.131,65.008,139.389,65.007C327.438,375.94,314.897,390.738,299.311,401.926z M444.551,429.24
			c-0.723,2.62-13.742-0.888-40.682-12.291c-22.087-9.348-47.007-22.066-65.941-32.178c2.544-3.485,4.91-7.103,7.11-10.83
			c17.052,9.793,54.451,30.859,89.897,47.037C443.598,424.932,445.095,427.213,444.551,429.24z M436.263,404.826
			c-33.837-15.889-68.619-35.43-84.238-44.41c0.289-0.648,0.558-1.307,0.836-1.961c12.078,8.405,75.112,42.416,89.843,31.093
			c5.642-4.336,8.425-11.416,8.469-21.331c37.475,38.803,44.198,53.37,45.381,57.684
			C492.317,426.166,478.215,424.526,436.263,404.826z"/>
	</g>
</g>
<g>
	<g>
		<path d="M75.338,125.367c-1.409-1.419-3.376-2.23-5.373-2.23s-3.964,0.811-5.373,2.23c-1.419,1.409-2.23,3.376-2.23,5.373
			c0,1.997,0.811,3.964,2.23,5.373c1.409,1.419,3.376,2.23,5.373,2.23s3.964-0.811,5.373-2.23c1.419-1.409,2.23-3.366,2.23-5.373
			C77.568,128.733,76.757,126.777,75.338,125.367z"/>
	</g>
</g>
<g>
	<g>
		<path d="M164.666,125.367c-1.409-1.419-3.376-2.23-5.373-2.23s-3.964,0.811-5.373,2.23c-1.419,1.409-2.23,3.376-2.23,5.373
			c0,1.997,0.811,3.964,2.23,5.373c1.41,1.419,3.377,2.23,5.373,2.23c1.997,0,3.964-0.811,5.373-2.23
			c1.419-1.409,2.23-3.366,2.23-5.373C166.896,128.733,166.085,126.777,164.666,125.367z"/>
	</g>
</g>
<g>
	<g>
		<path d="M338.953,195.572c-19.518-25.901-40.304-39.033-61.783-39.033c-4.2,0-7.604,3.404-7.604,7.604
			c0,4.199,3.403,7.604,7.604,7.604c16.449,0,33.148,11.095,49.64,32.977c1.494,1.984,3.773,3.028,6.078,3.028
			c1.593,0,3.2-0.499,4.569-1.532C340.811,203.692,341.48,198.925,338.953,195.572z"/>
	</g>
</g>
<g>
	<g>
		<path d="M381.309,267.119c-7.464-14.076-15.77-28.789-24.021-42.548c-2.161-3.602-6.828-4.77-10.432-2.611
			c-3.601,2.159-4.77,6.83-2.611,10.431c8.117,13.535,16.287,28.007,23.63,41.851c1.366,2.575,4,4.043,6.725,4.043
			c1.2,0,2.419-0.286,3.555-0.887C381.863,275.432,383.275,270.829,381.309,267.119z"/>
	</g>
</g>
<g>
</g>
<g>
</g>
<g>
</g>
<g>
</g>
<g>
</g>
<g>
</g>
<g>
</g>
<g>
</g>
<g>
</g>
<g>
</g>
<g>
</g>
<g>
</g>
<g>
</g>
<g>
</g>
<g>
</g>
</svg>
