<?xml version="1.0" encoding="iso-8859-1"?>
<!-- Generator: Adobe Illustrator 19.0.0, SVG Export Plug-In . SVG Version: 6.00 Build 0)  -->
<svg version="1.1" id="Layer_1" xmlns="http://www.w3.org/2000/svg" xmlns:xlink="http://www.w3.org/1999/xlink" x="0px" y="0px"
	 viewBox="0 0 512 512" style="enable-background:new 0 0 512 512;" xml:space="preserve">
<g>
	<g>
		<path d="M372.744,222.166c-5.12-15.35-12.73-29.685-22.614-42.605c-2.553-3.335-7.324-3.969-10.659-1.418
			c-3.335,2.553-3.97,7.324-1.418,10.66c8.861,11.581,15.679,24.425,20.266,38.176c1.063,3.186,4.029,5.2,7.212,5.2
			c0.797,0,1.609-0.127,2.407-0.394C371.921,230.456,374.073,226.15,372.744,222.166z"/>
	</g>
</g>
<g>
	<g>
		<path d="M378.263,244.429c-0.686-4.144-4.606-6.944-8.744-6.26c-4.142,0.686-6.944,4.6-6.259,8.743
			c1.151,6.955,1.745,14.082,1.763,21.184c0.011,4.192,3.413,7.583,7.603,7.583c0.007,0,0.013,0,0.02,0.002
			c4.199-0.011,7.594-3.423,7.583-7.623C380.21,260.139,379.548,252.189,378.263,244.429z"/>
	</g>
</g>
<g>
	<g>
		<path d="M444.326,231.666c-1.409-1.419-3.376-2.23-5.373-2.23s-3.964,0.811-5.373,2.23c-1.419,1.409-2.23,3.376-2.23,5.373
			c0,1.997,0.811,3.964,2.23,5.373c1.409,1.419,3.376,2.23,5.373,2.23s3.964-0.811,5.373-2.23c1.419-1.409,2.23-3.366,2.23-5.373
			C446.556,235.032,445.745,233.075,444.326,231.666z"/>
	</g>
</g>
<g>
	<g>
		<path d="M509.118,269.573c2.814-8.012,3.569-16.647,2.09-25.247c-2.289-13.302-9.598-24.95-20.646-32.706
			c-24.375-17.109-49.065-4.948-49.817-4.18c-0.601-0.036-7.336-2.117-17.726,4.591c-7.879,5.086-12.612,13.23-13.535,21.901
			c-0.641,0.443-1.298,0.881-1.976,1.312c-15.58-81.753-87.583-143.748-173.804-143.748c-28.175,0-55.111,6.429-80.06,19.108
			c-23.789,12.089-44.902,29.751-61.058,51.077c-2.535,3.347-1.878,8.116,1.469,10.652c3.347,2.535,8.115,1.876,10.651-1.469
			c8.471-11.182,18.162-21.045,28.81-29.489l-0.024,0.117l39.375,61.815c-0.043,0.56-0.069,1.122-0.069,1.688v83.834
			c-58.553-3.326-95.92-10.687-100.584-11.644l-0.001,0.001c-0.155-2.912-3.076-19.486,5.705-52.366
			c1.084-4.057-1.233-8.239-5.278-9.368c-4.045-1.127-8.24,1.234-9.369,5.278c-10.559,37.815-6.399,54.729-6.194,58.229
			c-0.657,0.333-7.377,2.916-10.211,10.951H29.068C13.04,289.911,0,302.951,0,318.978c0,16.027,13.04,29.068,29.068,29.068h41.855
			c-3.448,11.843-5.668,26.155-5.668,43.387c0,16.028,13.04,29.068,29.068,29.068c5.488,0,10.626-1.53,15.01-4.185
			c4.491,2.726,9.653,4.185,15.041,4.185c16.028,0,29.068-13.04,29.068-29.068c0-8.268,0.709-15.751,2.109-22.34
			c19.685,2.515,43.731,4.42,71.435,4.42c4.199,0,7.603-3.403,7.603-7.603s-3.404-7.603-7.603-7.603
			c-39.871,0-71.884-4.04-93.87-8.057c0.891-1.223,1.609-1.989,2-2.371c6.923-3.556,11.846-9.568,14.202-16.464
			c26,2.038,52.782,3.084,79.728,3.084c27.334,0,55.047-1.085,82.452-3.198c2.341,6.948,7.279,13.008,14.24,16.581
			c0.349,0.34,0.955,0.983,1.71,1.979c-20.676,3.456-41.54,5.882-62.166,7.209c-4.191,0.27-7.448,3.891-7.099,8.076
			c0.691,8.294,7.909,7.11,8.076,7.099c12.629-0.812,25.345-2.03,38.053-3.628c1.47,6.71,2.225,14.35,2.225,22.818
			c0,16.028,13.04,29.068,29.068,29.068c5.503,0,10.869-1.582,15.468-4.468c4.481,2.825,9.779,4.468,15.457,4.468
			c16.028,0,29.068-13.04,29.068-29.068c0-17.281-2.233-31.626-5.698-43.489c28.474-5.33,62.873-16.857,90.697-41.372
			c1.657,0.365,14.313,1.984,23.387-7.182C512.334,290.957,514.361,278.836,509.118,269.573z M29.068,332.84L29.068,332.84
			c-7.644,0-13.862-6.218-13.862-13.862s6.218-13.862,13.862-13.862h17.086c3.552,12.734,18.441,15.264,20.989,15.762
			c0.593,4.138,1.755,8.158,3.439,11.962H29.068z M65.59,305.04c-1.75-0.383-5.916-1.89-5.116-7.987
			c0.736-5.612,6.236-5.503,8.006-5.112c0.43,0.092,13.717,2.892,37.094,5.935c-3.417,2.129-8.493,5.851-13.904,11.765
			C75.827,307.246,66.607,305.263,65.59,305.04z M140.485,366.935c-1.485,7.388-2.183,15.582-2.25,24.499
			c-0.11,14.951-16.704,13.638-18.038,13.218c2.036-3.969,3.192-8.46,3.192-13.218c0-11.593,1.405-20.376,3.255-26.925
			C130.865,365.319,135.482,366.138,140.485,366.935z M134.855,326.748c-1.261,3.482-3.802,6.265-7.167,7.84
			c-1.951,0.918-6.803,5.004-11.202,13.888c-5.509,11.128-8.301,25.58-8.301,42.957c0,7.644-6.218,13.862-13.862,13.862
			c-7.644,0-13.862-6.218-13.862-13.862c0-63.509,31.849-80.258,35.481-81.959c1.861-0.872,12.667-5.052,18.433,6.674
			C136.009,319.472,136.116,323.267,134.855,326.748z M431.19,224.857c2.327-1.482,5.004-2.266,7.742-2.266
			c4.974,0,9.536,2.5,12.204,6.687c2.073,3.254,2.755,7.121,1.921,10.889c-0.834,3.767-3.087,6.984-6.341,9.057
			c-2.327,1.482-5.004,2.266-7.742,2.266c-4.973,0-9.536-2.5-12.203-6.687C422.49,238.084,424.473,229.137,431.19,224.857z
			 M241.307,106.889c29.533,1.374,57.017,10.705,80.361,25.894l-34.636,53.948l-34.861-54.586
			c-2.623-4.107-6.451-7.132-10.864-8.758V106.889z M233.704,137.233c2.301,0,4.414,1.158,5.653,3.097l38.993,61.056
			c0.69,1.081,1.055,2.33,1.055,3.612v84.288c-33.655,1.597-64.438,1.411-91.4,0.293v-84.58c0-1.282,0.365-2.53,1.054-3.611
			l38.993-61.057C229.29,138.39,231.402,137.233,233.704,137.233z M145.865,132.616l-0.139-0.034
			c23.727-15.426,51.28-24.357,80.373-25.687v16.492c-4.414,1.626-8.242,4.651-10.864,8.758l-34.881,54.618L145.865,132.616z
			 M312.707,309.701c-0.981,2.094-1.683,4.248-2.134,6.42c-27.099,2.097-54.501,3.172-81.529,3.172
			c-26.62,0-53.072-1.035-78.74-3.053c-0.45-2.212-1.161-4.407-2.16-6.54c-1.374-2.933-3.223-5.554-5.411-7.817
			c43.946,3.819,104.775,5.999,175.301,0.089C315.883,304.215,314.063,306.805,312.707,309.701z M294.61,288.449v-80.59
			c0-0.603-0.031-4.065-0.081-4.662l39.5-61.523c64.913,49.459,61.322,132.56,61.169,135.455
			C359.867,282.934,326.102,286.489,294.61,288.449z M321.744,391.434c-0.064-9.073-0.779-17.418-2.318-24.911
			c4.9-0.735,9.793-1.529,14.675-2.377c1.902,6.585,3.361,15.476,3.361,27.288c0,4.653,1.105,9.052,3.057,12.956
			C338.973,404.975,321.854,407.229,321.744,391.434z M366.53,405.296c-7.644,0-13.862-6.218-13.862-13.862
			c0-17.377-2.793-31.829-8.301-42.957c-4.399-8.885-9.25-12.97-11.215-13.894c-3.354-1.57-5.894-4.353-7.155-7.835
			c-1.26-3.482-1.276-7.34,0.481-10.598c5.726-10.615,16.572-7.546,18.434-6.674c3.632,1.701,35.48,18.448,35.48,81.959
			C380.392,399.078,374.174,405.296,366.53,405.296z M369.426,309.91c-5.298-5.845-10.297-9.589-13.757-11.788
			c14.24-1.724,28.793-3.789,43.612-6.249c3.653-0.607,7.173,1.861,7.717,5.518c0.73,4.916-3.751,7.421-5.518,7.715
			C390.879,306.865,380.105,308.477,369.426,309.91z M490.26,273.277c-25.125,35.568-64.363,51.469-97.049,58.497
			c1.378-3.338,2.363-6.835,2.92-10.399c2.62-0.415,5.235-0.836,7.838-1.268c5.774-0.958,10.83-4.108,14.235-8.869
			c3.405-4.761,4.753-10.562,3.794-16.336c-1.182-7.121-5.692-12.875-11.674-15.932l-0.001,0.001
			c0.206-3.507,0.038-21.921-0.498-27.51c0.852-0.45,1.684-0.91,2.503-1.377c0.482,0.981,7.734,15.222,26.645,16.612
			c5.623,0.414,11.141-1.608,15.913-4.648c6.68-4.256,11.302-10.858,13.016-18.591c1.713-7.733,0.314-15.669-3.943-22.35
			c-0.801-1.257-1.694-2.43-2.651-3.533c7.234-0.02,14.398,2.173,20.479,6.469c7.708,5.444,12.833,13.564,14.434,22.864
			C497.822,256.207,495.705,265.57,490.26,273.277z"/>
	</g>
</g>
<g>
	<g>
		<path d="M90.304,178.011c-3.647-2.084-8.29-0.813-10.372,2.834c-3.445,6.035-6.56,12.333-9.261,18.718
			c-1.636,3.867,0.173,8.329,4.041,9.964c0.967,0.409,7.392,1.965,9.964-4.041c2.494-5.822,5.314-11.589,8.462-17.104
			C95.219,184.736,93.95,180.092,90.304,178.011z"/>
	</g>
</g>
<g>
</g>
<g>
</g>
<g>
</g>
<g>
</g>
<g>
</g>
<g>
</g>
<g>
</g>
<g>
</g>
<g>
</g>
<g>
</g>
<g>
</g>
<g>
</g>
<g>
</g>
<g>
</g>
<g>
</g>
</svg>
