<?xml version="1.0" encoding="iso-8859-1"?>
<!-- Generator: Adobe Illustrator 19.0.0, SVG Export Plug-In . SVG Version: 6.00 Build 0)  -->
<svg version="1.1" id="Layer_1" xmlns="http://www.w3.org/2000/svg" xmlns:xlink="http://www.w3.org/1999/xlink" x="0px" y="0px"
	 viewBox="0 0 512 512" style="enable-background:new 0 0 512 512;" xml:space="preserve">
<g>
	<g>
		<path d="M297.944,275.492c-3.014-3.013-7.9-3.013-10.916,0L262.33,300.19c-3.014,3.014-3.014,7.9,0,10.916
			c1.508,1.507,3.484,2.26,5.458,2.26c1.975,0,3.951-0.753,5.457-2.26l24.698-24.698
			C300.959,283.393,300.959,278.507,297.944,275.492z"/>
	</g>
</g>
<g>
	<g>
		<path d="M248.547,324.888c-3.014-3.013-7.9-3.013-10.916,0l-66.744,66.744c-3.014,3.014-3.014,7.9,0,10.916
			c1.508,1.507,3.483,2.26,5.458,2.26c1.975,0,3.951-0.753,5.457-2.26l66.744-66.744
			C251.561,332.789,251.561,327.903,248.547,324.888z"/>
	</g>
</g>
<g>
	<g>
		<path d="M195.777,124.501c-3.013-3.013-7.9-3.014-10.915,0.001l-18.18,18.181c-3.014,3.014-3.014,7.901,0.001,10.915
			c1.507,1.507,6.547,3.694,10.915-0.001l18.18-18.181C198.792,132.401,198.792,127.514,195.777,124.501z"/>
	</g>
</g>
<g>
	<g>
		<path d="M310.631,172.248c0-4.405-1.709-8.54-4.814-11.644s-7.24-4.812-11.644-4.812c-4.406,0-8.541,1.708-11.645,4.812
			l-5.932,5.933c-26.643,0.281-48.455,5.573-66.624,16.153c-38.536,22.439-47.195,60.514-48.45,84.9l-32.638,5.893
			c-8.146,0.803-12.716,8.887-12.893,14.587c-0.223,7.143,4.653,13.568,11.596,15.273l29.952,7.358l7.358,29.952
			c1.678,6.832,7.762,11.602,14.794,11.603c0.158,0,0.318-0.003,0.477-0.008c7.143-0.222,13.251-5.488,14.522-12.523l5.8-32.13
			c19.71-2.029,36.942-7.278,51.292-15.633c22.672-13.201,37.658-33.466,44.54-60.23c4.458-17.335,4.252-33.317,3.636-41.943
			l5.86-5.895C308.922,180.788,310.631,176.653,310.631,172.248z M294.888,172.996l-8.405,8.454
			c-1.639,1.649-2.447,3.947-2.202,6.257c1.584,14.905,3.36,65.514-40.266,90.916c-13.724,7.992-30.747,12.731-50.595,14.087
			c-3.529,0.241-6.442,2.85-7.07,6.329l-6.684,37.026l-8.251-33.587c-0.685-2.791-2.863-4.968-5.654-5.654l-33.587-8.251
			l38.262-6.907c3.667-0.663,6.336-3.847,6.347-7.571c0.063-20.286,5.466-57.4,40.957-78.065
			c16.257-9.467,36.249-14.069,61.118-14.069l0.911,0.002c0.011,0,0.023,0,0.035,0c2.046,0,4.009-0.813,5.458-2.26l8.182-8.182
			c0.24-0.241,0.53-0.291,0.73-0.291s0.49,0.05,0.73,0.291c0.241,0.24,0.292,0.53,0.292,0.729
			C295.196,172.449,295.144,172.74,294.888,172.996z"/>
	</g>
</g>
<g>
	<g>
		<path d="M444.066,236.922c-1.43-1.441-3.427-2.264-5.454-2.264c-2.027,0-4.024,0.823-5.454,2.264
			c-1.441,1.43-2.264,3.427-2.264,5.454c0,2.027,0.823,4.024,2.264,5.454c1.43,1.441,3.427,2.264,5.454,2.264
			c2.027,0,4.024-0.823,5.454-2.264c1.441-1.43,2.264-3.417,2.264-5.454S445.507,238.353,444.066,236.922z"/>
	</g>
</g>
<g>
	<g>
		<path d="M509.736,284.409c-1.43-1.441-3.427-2.264-5.454-2.264c-2.027,0-4.024,0.823-5.454,2.264
			c-1.441,1.43-2.264,3.427-2.264,5.454c0,2.027,0.823,4.024,2.264,5.454c1.43,1.441,3.427,2.264,5.454,2.264
			c2.027,0,4.024-0.823,5.454-2.264c1.441-1.43,2.264-3.417,2.264-5.454S511.177,285.839,509.736,284.409z"/>
	</g>
</g>
<g>
	<g>
		<path d="M444.066,332.263c-1.43-1.441-3.427-2.264-5.454-2.264c-2.027,0-4.024,0.823-5.454,2.264
			c-1.441,1.43-2.264,3.427-2.264,5.454c0,2.027,0.823,4.024,2.264,5.454c1.43,1.441,3.427,2.264,5.454,2.264
			c2.027,0,4.024-0.823,5.454-2.264c1.441-1.43,2.264-3.417,2.264-5.454C446.33,335.679,445.507,333.693,444.066,332.263z"/>
	</g>
</g>
<g>
	<g>
		<path d="M509.736,383.572c-1.43-1.441-3.427-2.264-5.454-2.264c-2.027,0-4.024,0.823-5.454,2.264
			c-1.441,1.43-2.264,3.427-2.264,5.454s0.823,4.024,2.264,5.454c1.43,1.441,3.427,2.264,5.454,2.264
			c2.027,0,4.024-0.823,5.454-2.264c1.441-1.43,2.264-3.417,2.264-5.454S511.177,385.003,509.736,383.572z"/>
	</g>
</g>
<g>
	<g>
		<path d="M444.066,434.844c-1.43-1.441-3.427-2.264-5.454-2.264c-2.027,0-4.024,0.823-5.454,2.264
			c-1.441,1.43-2.264,3.427-2.264,5.454c0,2.027,0.823,4.023,2.264,5.454c1.43,1.441,3.427,2.264,5.454,2.264
			c2.027,0,4.024-0.823,5.454-2.264c1.441-1.43,2.264-3.417,2.264-5.454C446.33,438.26,445.507,436.274,444.066,434.844z"/>
	</g>
</g>
<g>
	<g>
		<path d="M509.736,498.769c-1.43-1.442-3.427-2.264-5.454-2.264c-2.027,0-4.024,0.823-5.454,2.264
			c-1.441,1.43-2.264,3.427-2.264,5.454c0,2.027,0.823,4.024,2.264,5.454c1.43,1.441,3.427,2.264,5.454,2.264
			c2.027,0,4.024-0.823,5.454-2.264c1.441-1.43,2.264-3.417,2.264-5.454C512,502.186,511.177,500.199,509.736,498.769z"/>
	</g>
</g>
<g>
	<g>
		<path d="M482.817,109.781c0-14.186-11.541-25.727-25.727-25.727h-55.934l-72.509-72.509c-7.407-7.406-17.29-11.486-27.825-11.486
			s-20.416,4.079-27.824,11.487c-9.644,9.645-13.221,23.09-10.74,35.558l-57.329,57.329c-3.015,3.014-3.015,7.901-0.001,10.915
			c1.508,1.508,6.935,3.739,10.915,0.001l53.025-53.024c1.226,1.704,135.264,135.744,136.979,136.978l-222.906,222.91
			L46.478,285.747l-0.74-0.29l111.706-111.708c3.014-3.014,3.014-7.901-0.001-10.915c-3.013-3.013-7.9-3.014-10.915,0.001
			L9.473,299.891C3.364,306,0,314.146,0,322.832c0,8.685,3.364,16.832,9.472,22.941L122.4,458.702
			c6.325,6.325,14.632,9.487,22.941,9.486c8.306-0.001,16.616-3.162,22.941-9.486l252.79-252.791
			c2.518,0.496,18.866,4.67,35.555-10.737c7.698-7.106,11.488-17.289,11.488-27.824c0-10.535-4.08-20.417-11.487-27.825
			l-4.018-4.018h4.48C471.276,135.508,482.817,123.967,482.817,109.781z M157.367,447.786c-6.633,6.63-17.422,6.63-24.05,0
			L20.388,334.857c-3.193-3.193-4.952-7.463-4.952-12.025c0-4.563,1.759-8.833,4.952-12.025l15.174-15.174v1.029l136.464,136.464
			L157.367,447.786z M452.679,167.351c0,6.411-2.474,12.416-6.967,16.909c-4.491,4.491-10.496,6.966-16.908,6.966
			s-12.417-2.474-16.909-6.967L283.915,56.277c-9.324-9.323-9.324-24.493,0-33.816c4.491-4.492,10.496-6.966,16.908-6.966
			s12.417,2.473,16.909,6.966l127.981,127.981C450.205,154.933,452.679,160.939,452.679,167.351z M437.174,120.072L416.592,99.49
			h40.498c5.674,0,10.291,4.617,10.291,10.291c0,5.674-4.617,10.291-10.291,10.291H437.174z"/>
	</g>
</g>
<g>
</g>
<g>
</g>
<g>
</g>
<g>
</g>
<g>
</g>
<g>
</g>
<g>
</g>
<g>
</g>
<g>
</g>
<g>
</g>
<g>
</g>
<g>
</g>
<g>
</g>
<g>
</g>
<g>
</g>
</svg>
