<?xml version="1.0" encoding="iso-8859-1"?>
<!-- Generator: Adobe Illustrator 19.0.0, SVG Export Plug-In . SVG Version: 6.00 Build 0)  -->
<svg version="1.1" id="Layer_1" xmlns="http://www.w3.org/2000/svg" xmlns:xlink="http://www.w3.org/1999/xlink" x="0px" y="0px"
	 viewBox="0 0 512 512" style="enable-background:new 0 0 512 512;" xml:space="preserve">
<g>
	<g>
		<path d="M165.273,203.636c-3.417-2.442-8.167-1.653-10.609,1.761c-4.218,5.899-7.94,12.201-11.06,18.734
			c-1.81,3.79-0.206,8.329,3.583,10.14c1.058,0.505,7.089,2.647,10.14-3.583c2.794-5.707,6.005-11.265,9.708-16.443
			C169.477,210.829,168.689,206.079,165.273,203.636z"/>
	</g>
</g>
<g>
	<g>
		<path d="M293.65,159.064c6.79-21.156,22.463-48.589,58.485-68.818c1.314-0.722,10.583-6.07,15.542-15.839
			c1.901-3.744,0.407-8.321-3.339-10.222c-3.743-1.902-8.321-0.406-10.222,3.339c-2.945,5.802-9.269,9.372-9.297,9.389
			c-0.03,0.017-0.063,0.033-0.093,0.052c-40.813,22.905-58.353,54.359-65.855,78.388c-5.569-1.038-11.265-1.706-17.065-1.974
			c16.25-78.306,58.501-111.705,58.926-112.033c0.086-0.066,0.171-0.135,0.256-0.204c6.648-5.543,15.928-6.596,23.638-2.681
			c3.196,1.622,5.954,4.024,7.979,6.948c2.391,3.451,7.126,4.314,10.581,1.922c3.452-2.39,4.314-7.126,1.922-10.581
			c-3.456-4.993-8.16-9.091-13.6-11.851c-13.088-6.645-28.829-4.889-40.142,4.462c-1.364,1.06-9.302,7.457-19.416,20.116
			c0.409-6.288,0.617-10.776,0.617-12.914C292.564,16.404,276.162,0,255.999,0s-36.565,16.404-36.565,36.566
			c0,2.283,0.211,6.817,0.609,12.994c-10.185-12.785-18.149-19.213-19.401-20.19c-11.315-9.357-27.058-11.115-40.149-4.468
			c-8.772,4.452-15.285,12.054-18.339,21.404c-3.055,9.351-2.284,19.33,2.169,28.103c4.958,9.768,14.227,15.116,15.542,15.839
			c35.859,20.138,51.619,47.409,58.493,68.844c-14.701,4.664-28.522,12.029-40.613,21.812c-3.265,2.641-3.77,7.43-1.128,10.695
			c2.64,3.264,7.429,3.771,10.695,1.128c19.351-15.656,43.744-24.279,68.689-24.279c48.274,0,89.332,31.464,103.76,74.96
			c-17.248,4.568-46.055,9.858-86.055,9.396c-0.03-0.001-0.062-0.001-0.093-0.001c-4.157,0-7.551,3.345-7.601,7.513
			c-0.051,4.199,3.312,7.643,7.512,7.694c1.519,0.018,47.076,0.981,89.945-10.174c5.578,29.945-0.935,54.099-6.312,77.126
			c-17.483,4.397-45.408,9.162-83.45,8.723c-0.03-0.001-0.062-0.001-0.093-0.001c-4.157,0-7.551,3.345-7.601,7.513
			c-0.051,4.199,3.312,7.644,7.512,7.694c1.396,0.017,39.998,0.832,79.52-7.698c-5.795,29.357-24.498,68.107-26.094,71.485
			c-14.696,1.961-32.451,3.28-53.244,3.04c-0.03-0.001-0.062-0.001-0.093-0.001c-4.157,0-7.551,3.345-7.601,7.513
			c-0.051,4.199,3.312,7.643,7.512,7.694c0.979,0.012,20.274,0.415,45.345-2.288c-20.281,37.294-42.548,58.156-62.868,58.156
			c-24.708,0-52.294-30.817-75.684-84.551c-22.062-50.682-33.605-106.028-33.605-134.504c0-5.931,0.479-11.879,1.421-17.682
			c0.673-4.145-2.14-8.051-6.286-8.725c-4.147-0.664-8.051,2.141-8.725,6.286c-1.074,6.607-1.618,13.376-1.618,20.122
			c0,35.604,14.339,93.41,34.87,140.573c11.804,27.117,24.714,48.89,38.372,64.716C221.333,502.253,238.578,512,255.999,512
			s34.666-9.747,51.257-28.973c13.658-15.825,26.567-37.599,38.372-64.716c20.531-47.164,34.87-104.969,34.87-140.573
			C380.497,222.208,343.951,175.059,293.65,159.064z M167.216,76.933c-0.064-0.035-6.386-3.606-9.332-9.408
			c-5.395-10.629-1.137-23.668,9.493-29.063c7.708-3.912,16.988-2.861,23.637,2.682c0.084,0.069,0.169,0.138,0.257,0.204
			c0.155,0.118,15.387,11.921,31.154,38.47c1.786,19.953,4.296,43.885,7.315,66.022C220.702,123.251,202.755,96.879,167.216,76.933z
			 M246.241,153.631c-0.012,0.001-0.024,0.002-0.036,0.003c-7.12-48.15-11.563-108.63-11.563-117.069
			c0.001-11.777,9.582-21.358,21.358-21.358s21.357,9.581,21.357,21.358c0,4.126-0.981,19.352-2.64,38.407
			C263.662,94.292,252.758,120.216,246.241,153.631z"/>
	</g>
</g>
<g>
</g>
<g>
</g>
<g>
</g>
<g>
</g>
<g>
</g>
<g>
</g>
<g>
</g>
<g>
</g>
<g>
</g>
<g>
</g>
<g>
</g>
<g>
</g>
<g>
</g>
<g>
</g>
<g>
</g>
</svg>
