<?xml version="1.0" encoding="iso-8859-1"?>
<!-- Generator: Adobe Illustrator 19.0.0, SVG Export Plug-In . SVG Version: 6.00 Build 0)  -->
<svg version="1.1" id="Layer_1" xmlns="http://www.w3.org/2000/svg" xmlns:xlink="http://www.w3.org/1999/xlink" x="0px" y="0px"
	 viewBox="0 0 512.001 512.001" style="enable-background:new 0 0 512.001 512.001;" xml:space="preserve">
<g>
	<g>
		<path d="M146.385,118.1c-0.605-4.363-1.19-8.76-1.739-13.069c-0.53-4.165-4.331-7.112-8.504-6.583
			c-4.166,0.53-7.114,4.338-6.584,8.505c0.556,4.365,1.228,8.808,1.761,13.236c0.954,7.906,8.223,6.536,8.578,6.487
			C144.058,126.1,146.963,122.26,146.385,118.1z"/>
	</g>
</g>
<g>
	<g>
		<path d="M221.922,310.781c-1.409-1.42-3.376-2.231-5.374-2.231s-3.965,0.811-5.374,2.231c-1.419,1.409-2.231,3.376-2.231,5.374
			s0.811,3.965,2.231,5.374c1.41,1.42,3.378,2.231,5.374,2.231c1.997,0,3.965-0.811,5.374-2.231
			c1.419-1.409,2.231-3.366,2.231-5.374S223.341,312.191,221.922,310.781z"/>
	</g>
</g>
<g>
	<g>
		<path d="M300.827,310.781c-1.409-1.42-3.376-2.231-5.374-2.231c-1.997,0-3.965,0.811-5.374,2.231
			c-1.42,1.409-2.231,3.376-2.231,5.374s0.811,3.965,2.231,5.374c1.41,1.42,3.377,2.231,5.374,2.231
			c1.997,0,3.965-0.811,5.374-2.231c1.419-1.409,2.231-3.366,2.231-5.374S302.247,312.191,300.827,310.781z"/>
	</g>
</g>
<g>
	<g>
		<path d="M399.865,389.573c0-5.191-2.147-10.233-5.887-13.828l-12.602-12.119c3.773-15.724,6.053-34.115,6.253-55.654
			c0.262-28.268-8.55-55.255-25.101-77.706c0.013-0.035,0.032-0.067,0.045-0.102c17.182-50.374,29.368-153.95,29.368-175.577
			C391.939,24.488,367.451,0,337.352,0c-30.099,0-54.587,24.488-54.587,54.587c0,14.434,6.7,77.34,17.441,129.434
			c-13.913-4.895-28.709-7.452-43.909-7.452c-13.804,0-27.114,2.147-39.622,6.113c10.582-51.829,17.168-113.787,17.168-128.097
			C233.844,24.488,209.356,0,179.256,0c-30.099,0-54.587,24.488-54.587,54.587c0,5.157,0.726,15.038,2.044,27.821
			c0.431,4.18,4.176,7.219,8.344,6.784c4.179-0.431,7.215-4.166,6.784-8.344c-1.229-11.926-1.964-21.743-1.964-26.261
			c0-21.713,17.665-39.378,39.378-39.378c21.714,0,39.378,17.665,39.378,39.378c0,14.75-7.336,82.284-18.932,134.817
			c-2.755,1.321-5.456,2.739-8.101,4.242c4.919-52.576,11.825-132.676,11.825-139.059c0-13.326-10.842-24.169-24.169-24.169
			s-24.169,10.842-24.169,24.169c0,7.256,8.591,105.906,13.409,155.735c-1.235,1.112-2.446,2.249-3.637,3.406
			c-6.422-22.58-11.594-50.932-14.991-72.24c-0.661-4.148-4.553-6.971-8.707-6.313c-4.147,0.661-6.973,4.56-6.312,8.707
			c3.925,24.618,10.195,58.509,18.119,83.044c-17.534,22.326-28.002,50.451-28.002,80.975c0,20.656,1.954,39.174,5.836,55.555
			l-12.776,12.288c-3.742,3.596-5.889,8.638-5.889,13.829c0,5.191,2.147,10.232,5.888,13.829l22.556,21.69l-1.041,31.25
			c-0.35,10.482,7.578,19.176,18.048,19.791l30.332,1.782l16.555,25.414c4.365,6.701,13.627,11.391,24.474,6.761
			c0.194-0.083,27.052-14.279,27.052-14.279l26.483,14.008c2.882,1.524,15.849,6.409,25.044-6.488l16.555-25.414l8.373-0.492
			c4.193-0.246,7.392-3.845,7.145-8.038c-0.246-4.193-3.842-7.4-8.038-7.145c0,0-12.263,0.723-12.342,0.734
			c-2.275,0.177-4.445,1.364-5.788,3.424l-18.65,28.63c-1.13,1.735-3.361,2.313-5.189,1.346l-30.038-15.888
			c-2.225-1.176-4.886-1.176-7.112,0l-29.72,15.72c-3.106,1.23-4.708,0.052-5.508-1.177l-18.65-28.63
			c-1.317-2.022-3.516-3.299-5.926-3.441l-34.162-2.008c-2.17-0.127-3.812-1.929-3.74-4.1l1.154-34.637
			c0.072-2.156-0.775-4.24-2.329-5.735l-25-24.039c-0.775-0.745-1.22-1.79-1.22-2.865s0.444-2.119,1.221-2.865l7.046-6.775
			c7.454,21.149,18.806,37.955,34.035,50.358c-1.205,1.747-1.662,3.978-1.113,6.199c1.789,7.241,8.62,5.644,9.252,5.482l6.637-1.698
			c13.154,7.314,28.479,12.146,45.954,14.487c6.026,5.816,15.572,9.248,25.922,9.248c9.812,0,18.978-3.129,25.031-8.444
			c9.349-0.315,28.935-2.566,48.788-14.641l4.096,1.048c0.633,0.162,7.21,1.758,9.252-5.482c0.483-1.713,0.248-3.459-0.422-4.967
			c13.031-11.192,25.194-27.551,33.517-51.423l6.874,6.61c0.775,0.744,1.219,1.789,1.219,2.864s-0.444,2.12-1.221,2.865
			l-24.999,24.039c-1.554,1.496-2.401,3.579-2.329,5.735l1.154,34.638c0.072,2.172-1.571,3.974-3.74,4.101
			c-4.193,0.246-7.145,3.838-7.145,8.038c0,7.568,7.887,7.154,8.039,7.144c10.47-0.615,18.398-9.309,18.047-19.79l-1.041-31.251
			l22.556-21.69C397.719,399.805,399.865,394.765,399.865,389.573z M297.974,54.587c0-21.713,17.665-39.378,39.378-39.378
			s39.378,17.665,39.378,39.378c0,19.22-10.831,111.305-25.813,162.001c-0.311-0.32-2.585-2.608-3.424-3.412
			c4.756-48.807,13.685-151.191,13.685-158.589c0-13.326-10.842-24.169-24.169-24.169c-13.327,0-24.169,10.842-24.169,24.169
			c0,6.468,7.091,88.626,12.019,141.142c-2.463-1.505-7.568-4.584-7.606-4.75C305.457,138.233,297.974,69.486,297.974,54.587z
			 M345.969,54.587c0,4.229-4.495,57.734-8.957,107.174c-4.398-48.727-8.961-102.719-8.961-107.174c0-4.94,4.019-8.959,8.959-8.959
			C341.95,45.628,345.969,49.647,345.969,54.587z M179.256,45.628c4.941,0,8.959,4.019,8.959,8.959
			c0,4.454-4.564,58.447-8.961,107.174c-4.462-49.438-8.957-102.945-8.957-107.174C170.297,49.647,174.316,45.628,179.256,45.628z
			 M327.314,424.507l-28.961-7.409c-4.07-1.039-8.211,1.414-9.252,5.482c-1.04,4.069,1.414,8.211,5.482,9.252l12.808,3.277
			c-12.414,4.591-23.203,5.294-28.627,5.294c0,0-0.001,0-0.002,0c-1.607,0-15.029,0.919-15.156-10.235v-10.9
			c1.353-0.801,2.879-1.84,4.405-3.155c3.149-2.713,5.539-5.924,7.103-9.546c1.665-3.856-0.112-8.332-3.968-9.997
			c-3.856-1.664-8.332,0.111-9.997,3.968c-0.643,1.49-1.675,2.853-3.067,4.054c-0.726,0.626-1.457,1.128-2.094,1.513
			c-0.64-0.386-1.37-0.887-2.096-1.514c-1.381-1.189-2.408-2.541-3.052-4.017c-1.68-3.849-6.164-5.607-10.012-3.928
			c-3.849,1.68-5.608,6.163-3.928,10.012c1.565,3.584,3.94,6.765,7.062,9.455c1.536,1.324,3.072,2.369,4.433,3.172
			c0,0,0.033,11.511,0.082,11.858c-0.632,3.089-2.627,9.389-8.402,9.389h-0.064c-11.593-0.998-22.157-3.117-31.703-6.367l9.109-2.33
			c4.069-1.041,6.524-5.183,5.482-9.252c-1.04-4.068-5.181-6.521-9.252-5.482l-26.695,6.83c-3.006-1.947-5.864-4.063-8.578-6.342
			c2.187-4.483,4.66-8.841,7.414-13.063l27.86,7.127c0.633,0.162,7.624,1.915,9.252-5.482c0.903-4.101-1.414-8.211-5.482-9.252
			l-21.758-5.567c4.555-5.332,9.607-10.405,15.159-15.188c21.914-18.885,43.61-26.659,44.521-26.98c1.017-0.358,2.137-0.358,3.151,0
			c0.913,0.321,22.608,8.095,44.523,26.98c5.317,4.582,10.24,9.555,14.734,14.828l-23.165,5.927
			c-4.069,1.041-6.638,5.215-5.482,9.252c2.009,7.018,8.62,5.644,9.252,5.482l29.291-7.493c2.905,4.423,5.512,8.998,7.812,13.684
			C333.929,419.257,328.459,423.683,327.314,424.507z M346.312,405.737c-1.302-2.381-2.676-4.731-4.12-7.047
			c1.325-1.779,1.868-4.116,1.276-6.432c-1.04-4.069-5.182-6.519-9.252-5.482l-0.262,0.067
			c-6.178-8.021-13.221-15.491-21.011-22.205c-24.06-20.733-48.373-29.443-49.398-29.804c-4.274-1.505-8.982-1.504-13.258,0
			c-1.023,0.361-25.336,9.07-49.396,29.804c-8.093,6.974-15.245,14.517-21.442,22.562l-1.663-0.426
			c-4.069-1.039-8.211,1.413-9.252,5.482c-0.723,2.828,0.244,5.689,2.267,7.523c-1.28,2.1-2.503,4.228-3.664,6.387
			c-18.056-22.078-26.963-54.708-26.963-98.265c0-64.03,52.092-116.123,116.123-116.123c31.374,0,60.81,12.27,82.883,34.549
			c21.718,21.92,33.523,50.865,33.239,81.502C372.027,350.281,363.257,383.084,346.312,405.737z"/>
	</g>
</g>
<g>
	<g>
		<path d="M146.385,118.1c-0.605-4.363-1.19-8.76-1.739-13.069c-0.53-4.165-4.331-7.112-8.504-6.583
			c-4.166,0.53-7.114,4.338-6.584,8.505c0.556,4.365,1.228,8.808,1.761,13.236c0.954,7.906,8.223,6.536,8.578,6.487
			C144.058,126.1,146.963,122.26,146.385,118.1z"/>
	</g>
</g>
<g>
</g>
<g>
</g>
<g>
</g>
<g>
</g>
<g>
</g>
<g>
</g>
<g>
</g>
<g>
</g>
<g>
</g>
<g>
</g>
<g>
</g>
<g>
</g>
<g>
</g>
<g>
</g>
<g>
</g>
</svg>
