<?xml version="1.0" encoding="iso-8859-1"?>
<!-- Generator: Adobe Illustrator 19.0.0, SVG Export Plug-In . SVG Version: 6.00 Build 0)  -->
<svg version="1.1" id="Layer_1" xmlns="http://www.w3.org/2000/svg" xmlns:xlink="http://www.w3.org/1999/xlink" x="0px" y="0px"
	 viewBox="0 0 512 512" style="enable-background:new 0 0 512 512;" xml:space="preserve">
<g>
	<g>
		<path d="M486.683,98.867c-13.351-13.351-30.568-21.917-49.036-24.511c-2.594-18.469-11.161-35.685-24.512-49.037
			C396.808,8.993,375.07,0.001,351.922,0.001c-23.146,0.001-44.885,8.992-61.211,25.318
			c-27.767,27.768-33.234,70.613-14.024,104.095l-12.536,12.536c-3.894,3.894-6.04,9.072-6.04,14.58
			c0,5.492,2.133,10.657,6.007,14.547c0.058,0.06,0.123,0.124,0.191,0.19c9.145,9.249,9.109,24.233-0.094,33.436
			c-7.245,7.245-18.262,9.019-27.408,4.422c-7.961-4.005-17.541-2.459-23.841,3.84c-6.3,6.3-7.844,15.881-3.844,23.841
			c4.6,9.15,2.823,20.166-4.421,27.411c-9.204,9.203-24.21,9.236-33.39,0.14l-0.202-0.205c-8.04-8.038-21.122-8.039-29.16,0.001
			l-12.537,12.537c-33.481-19.213-76.329-13.744-104.095,14.023C8.991,307.04,0,328.779,0,351.925
			c0,23.146,8.992,44.885,25.318,61.211c13.352,13.352,30.568,21.918,49.036,24.512c2.594,18.469,11.16,35.684,24.512,49.036
			c16.876,16.876,39.044,25.314,61.211,25.314c22.168,0,44.335-8.438,61.212-25.314c27.768-27.768,33.235-70.614,14.025-104.095
			l22.939-22.939c2.97-2.971,2.97-7.784,0-10.754c-2.97-2.969-7.784-2.969-10.753,0l-27.208,27.209
			c-2.576,2.576-2.962,6.617-0.923,9.637c19.016,28.126,15.302,66.055-8.831,90.188c-27.822,27.823-73.092,27.823-100.916,0
			c-12.278-12.277-19.646-28.507-20.747-45.698c-0.244-3.817-3.286-6.858-7.102-7.102c-17.192-1.102-33.421-8.47-45.699-20.749
			c-27.822-27.821-27.822-73.092,0-100.914c24.133-24.133,62.064-27.845,90.19-8.832c3.018,2.041,7.06,1.654,9.636-0.923
			l16.808-16.807c2.111-2.111,5.543-2.11,7.654,0.001l0.091,0.094c0.031,0.031,0.063,0.064,0.094,0.095
			c3.177,3.149,6.774,5.627,10.607,7.452l-28.817,28.817c-16.074,16.074-16.074,42.228,0,58.303
			c8.037,8.037,18.594,12.055,29.151,12.055s21.115-4.018,29.152-12.055l169.03-169.031c16.074-16.074,16.074-42.228,0-58.303
			c-16.074-16.074-42.228-16.074-58.303,0l-28.815,28.815c-1.836-3.854-4.333-7.467-7.508-10.659
			c-0.04-0.04-0.079-0.078-0.119-0.117c-0.006-0.006-0.012-0.012-0.018-0.018c-1.022-1.022-1.585-2.381-1.585-3.825
			c0-1.445,0.563-2.804,1.585-3.825l16.807-16.807c2.576-2.576,2.964-6.617,0.923-9.636c-19.016-28.127-15.301-66.057,8.831-90.189
			c13.454-13.455,31.373-20.863,50.458-20.864c19.085,0,37.004,7.409,50.458,20.862c12.277,12.278,19.645,28.508,20.747,45.7
			c0.244,3.817,3.286,6.858,7.102,7.102c17.193,1.102,33.423,8.47,45.7,20.748c27.822,27.821,27.822,73.092,0,100.915
			c-24.132,24.133-62.063,27.846-90.189,8.832c-3.018-2.041-7.06-1.654-9.636,0.922l-65.41,65.41c-2.97,2.971-2.97,7.784,0,10.754
			c2.97,2.969,7.784,2.969,10.753,0l61.14-61.141c13.287,7.625,28.045,11.362,42.754,11.362c22.355-0.002,44.593-8.638,61.34-25.385
			C503.008,204.964,512,183.225,512,160.079C512,136.932,503.009,115.194,486.683,98.867z M274.968,215.457
			c7.338-7.338,11.115-16.917,11.349-26.567l35.799-35.799c10.145-10.145,26.651-10.146,36.796-0.001
			c10.144,10.146,10.144,26.651,0,36.796l-169.03,169.029c-10.145,10.146-26.651,10.144-36.795,0
			c-10.145-10.145-10.145-26.65,0-36.795l35.806-35.806c9.651-0.235,19.229-4.011,26.561-11.343
			c11.892-11.892,14.807-29.973,7.256-44.994c-1.05-2.09-0.645-4.604,1.009-6.257c1.653-1.654,4.165-2.058,6.257-1.008
			C244.998,230.261,263.079,227.344,274.968,215.457z"/>
	</g>
</g>
<g>
	<g>
		<path d="M299.48,307.666c-2.969-2.968-7.784-2.968-10.753,0l-19.601,19.601c-2.97,2.971-2.97,7.784,0,10.754
			c1.484,1.484,3.431,2.227,5.377,2.227s3.892-0.742,5.377-2.227l19.601-19.601C302.45,315.45,302.45,310.636,299.48,307.666z"/>
	</g>
</g>
<g>
	<g>
		<path d="M317.832,109.227c-5.576-8.248-7.887-18.273-6.509-28.229c0.576-4.16-2.33-7.999-6.49-8.574
			c-4.159-0.585-7.999,2.328-8.575,6.489c-1.893,13.679,1.294,27.47,8.975,38.831c1.469,2.175,3.866,3.347,6.306,3.347
			c1.466,0,2.947-0.423,4.252-1.306C319.27,117.434,320.185,112.707,317.832,109.227z"/>
	</g>
</g>
<g>
	<g>
		<path d="M83.717,392.777c-9.809-0.63-19.092-4.856-26.137-11.902c-7.71-7.709-11.955-17.99-11.955-28.951
			c0-4.2-3.405-7.604-7.604-7.604c-4.199,0-7.604,3.404-7.604,7.604c0,15.021,5.828,29.122,16.409,39.704
			c9.661,9.661,22.417,15.458,35.918,16.324c0.165,0.011,0.329,0.016,0.494,0.016c3.977,0,7.323-3.092,7.582-7.116
			C91.087,396.661,87.908,393.046,83.717,392.777z"/>
	</g>
</g>
<g>
	<g>
		<path d="M407.951,82.744c-0.865-13.501-6.663-26.256-16.324-35.919c-10.581-10.581-24.681-16.408-39.703-16.408
			c-15.022,0-29.123,5.828-39.705,16.409c-2.97,2.97-2.97,7.783,0,10.754c2.969,2.969,7.783,2.969,10.753,0
			c7.709-7.709,17.991-11.956,28.952-11.956c10.959,0,21.24,4.245,28.949,11.953c7.045,7.046,11.272,16.329,11.901,26.137
			c0.258,4.026,3.604,7.118,7.582,7.118c0.163,0,0.328-0.005,0.494-0.015C405.04,90.55,408.22,86.936,407.951,82.744z"/>
	</g>
</g>
<g>
</g>
<g>
</g>
<g>
</g>
<g>
</g>
<g>
</g>
<g>
</g>
<g>
</g>
<g>
</g>
<g>
</g>
<g>
</g>
<g>
</g>
<g>
</g>
<g>
</g>
<g>
</g>
<g>
</g>
</svg>
