<?xml version="1.0" encoding="iso-8859-1"?>
<!-- Generator: Adobe Illustrator 19.0.0, SVG Export Plug-In . SVG Version: 6.00 Build 0)  -->
<svg version="1.1" id="Layer_1" xmlns="http://www.w3.org/2000/svg" xmlns:xlink="http://www.w3.org/1999/xlink" x="0px" y="0px"
	 viewBox="0 0 511.999 511.999" style="enable-background:new 0 0 511.999 511.999;" xml:space="preserve">
<g>
	<g>
		<path d="M422.932,322.461c-12.606-39.925-28.031-76.434-45.845-108.515c-22.32-40.193-48.486-73.523-77.771-99.065
			c-8.317-7.254-14.969-11.579-21.448-14.116c2.975-4.557,5.8-10.125,8.464-16.715c5.984-14.803,10.164-32.713,10.164-43.555
			C296.496,18.166,278.33,0,256,0c-22.33,0-40.496,18.166-40.496,40.496c0,10.842,4.179,28.752,10.163,43.555
			c2.707,6.697,5.58,12.34,8.609,16.937c-8.84,3.071-16.533,8.003-22.091,14.406c-33.739,38.863-62.912,82.221-86.707,128.87
			c-1.936,3.796-0.429,8.442,3.367,10.378c3.799,1.94,8.442,0.429,10.378-3.366c23.227-45.535,51.695-87.848,84.614-125.767
			c6.793-7.825,19.118-12.686,32.164-12.686c12.687,0,18.835,1.18,33.175,13.687c122.45,106.797,145.528,317.664,146.032,323.227
			c-0.113,25.843-21.172,46.832-47.039,46.832H123.832c-25.89,0-46.963-21.024-47.04-46.896c0.145-1.944,4.587-53.543,30.57-125.083
			c1.455-4.006-0.613-8.431-4.618-9.885s-8.431,0.613-9.884,4.618c-27.66,76.159-31.496,129.771-31.496,130.206
			c0,34.447,28.024,62.47,62.47,62.47h264.335c34.446,0,62.469-28.024,62.469-62.47
			C450.637,445.701,444.238,389.943,422.932,322.461z M260.908,97.492c-1.581-0.068-8.136-0.023-9.732,0.089
			c-3.051-3.082-7.016-8.953-11.204-19.313c-5.872-14.523-9.039-30.3-9.039-37.772c0-13.821,11.245-25.066,25.066-25.066
			c13.821,0,25.066,11.245,25.066,25.066c0,7.472-3.168,23.25-9.039,37.772C267.877,88.531,263.948,94.387,260.908,97.492z"/>
	</g>
</g>
<g>
	<g>
		<path d="M123.166,266.4c-3.875-1.769-8.452-0.062-10.222,3.815c-3.054,6.693-6.04,13.536-8.874,20.338
			c-1.64,3.936,0.22,8.452,4.154,10.09c0.97,0.405,7.353,1.229,10.089-4.154c3.262-6.418,5.684-13.329,8.669-19.866
			C128.751,272.746,127.042,268.17,123.166,266.4z"/>
	</g>
</g>
<g>
	<g>
		<path d="M394.97,408.219c-3.24-17.474-23.266-109.075-103.275-222.677c-8.015-11.382-21.345-18.177-35.698-18.177l-0.218,0.001
			c-14.414,0.15-27.714,7.244-35.578,18.977c-48.999,73.116-82.47,147.242-99.484,220.318l-0.192,0.824
			c-2.89,12.377,0.589,27.109,8.86,37.532c8.238,10.384,20.207,16.103,33.701,16.103h189.161c14.219,0,26.52-5.739,34.636-16.16
			C396.061,433.169,397.082,418.274,394.97,408.219z M374.707,435.476c-5.128,6.584-13.106,10.211-22.463,10.211H163.084
			c-8.686,0-16.362-3.645-21.613-10.264c-5.373-6.77-7.753-16.589-5.921-24.436l0.193-0.827
			c16.59-71.255,49.318-143.667,97.274-215.227c5.03-7.504,13.598-12.042,22.882-12.138l0.139-0.001
			c9.298,0,17.912,4.349,23.041,11.632c78.305,111.184,97.653,200.015,100.736,216.694c0.013,0.068,0.026,0.137,0.04,0.204
			C381.209,417.68,380.673,427.817,374.707,435.476z"/>
	</g>
</g>
<g>
	<g>
		<path d="M370.651,413.206c-3.009-16.535-21.761-103.351-99.25-213.374c-3.373-4.787-9.073-7.647-15.248-7.647
			c-0.027,0-0.092,0-0.118,0c-6.225,0.065-11.915,3.046-15.217,7.975c-32.534,48.547-75.588,124.758-95.93,212.13l-0.193,0.833
			c-1.009,4.322,0.086,11.367,4.133,16.466c3.433,4.326,8.496,6.708,14.256,6.708c0,0,188.819,0,189.148,0c0.004,0,0.008,0,0.012,0
			c8.203,0,12.714-3.585,15.055-6.593C372.316,423.261,371.053,415.161,370.651,413.206z M352.246,420.868v0.022
			c-2.269-0.022-189.161-0.022-189.161-0.022c-4.294-0.014-3.168-5.078-3.168-5.078c19.813-85.1,61.901-159.56,93.721-207.039
			c0.455-0.679,1.458-1.124,2.516-1.136c1.161,0,2.146,0.411,2.632,1.102c75.765,107.576,93.843,191.583,96.699,207.332
			C355.505,416.159,356.98,420.854,352.246,420.868z"/>
	</g>
</g>
<g>
</g>
<g>
</g>
<g>
</g>
<g>
</g>
<g>
</g>
<g>
</g>
<g>
</g>
<g>
</g>
<g>
</g>
<g>
</g>
<g>
</g>
<g>
</g>
<g>
</g>
<g>
</g>
<g>
</g>
</svg>
