<?xml version="1.0" encoding="iso-8859-1"?>
<!-- Generator: Adobe Illustrator 17.1.0, SVG Export Plug-In . SVG Version: 6.00 Build 0)  -->
<!DOCTYPE svg PUBLIC "-//W3C//DTD SVG 1.1//EN" "http://www.w3.org/Graphics/SVG/1.1/DTD/svg11.dtd">
<svg version="1.1" id="Capa_1" xmlns="http://www.w3.org/2000/svg" xmlns:xlink="http://www.w3.org/1999/xlink" x="0px" y="0px"
	 viewBox="0 0 512.055 512.055" style="enable-background:new 0 0 512.055 512.055;" xml:space="preserve">
<g>
	<path d="M480.737,414.086c-10.786-15.799-25.828-26.767-43.5-31.717c-0.172-0.048-0.346-0.09-0.521-0.127l-63.821-13.349
		l-17.179-26.049c-0.089-0.135-0.182-0.267-0.278-0.396c-2.604-3.471-6.566-5.761-10.874-6.284c-4.306-0.522-8.701,0.753-12.059,3.5
		c-0.052,0.042-0.103,0.085-0.153,0.128l-76.325,65.701l-76.325-65.701c-0.051-0.043-0.102-0.086-0.153-0.128
		c-3.358-2.748-7.757-4.023-12.06-3.5c-4.307,0.523-8.27,2.813-10.873,6.284c-0.097,0.129-0.19,0.261-0.278,0.396l-17.179,26.049
		l-63.821,13.349c-0.175,0.037-0.349,0.079-0.521,0.127c-17.672,4.951-32.714,15.918-43.5,31.717
		c-9.866,14.45-15.299,31.891-15.299,49.108v19.843c0,15.999,14.355,29.016,32.001,29.016h183.985c0.01,0,0.02,0.001,0.03,0.001
		c0.011,0,0.022-0.001,0.033-0.001h47.918c0.011,0,0.022,0.001,0.033,0.001c0.01,0,0.02-0.001,0.03-0.001h183.985
		c17.646,0,32.001-13.017,32.001-29.016v-19.843C496.036,445.977,490.603,428.536,480.737,414.086z M342.628,352.059l15.674,23.767
		l-55.236,75.949l-17.378-17.377c-0.002-0.002-0.004-0.004-0.006-0.006l-17.902-17.902L342.628,352.059z M248.027,472.052h16.001
		c0.481,0,0.958-0.019,1.432-0.046l4.81,24.048h-28.485l4.81-24.048C247.069,472.033,247.546,472.052,248.027,472.052z
		 M272.028,448.051c0,4.411-3.589,8-8,8h-16.001c-4.412,0-8-3.589-8-8v-4.687l16.001-16.001l16.001,16.001V448.051z
		 M169.427,352.059l74.848,64.43l-17.902,17.902c-0.002,0.002-0.004,0.004-0.006,0.006l-17.378,17.377l-55.236-75.949
		L169.427,352.059z M32.018,483.037v-19.843c0-25.88,16.097-56.588,46.866-65.349l61.712-12.908l60.959,83.819
		c1.376,1.892,3.511,3.087,5.844,3.27c0.209,0.016,0.418,0.024,0.626,0.024c2.113,0,4.15-0.837,5.656-2.343l12.262-12.262
		c1.309,3.066,3.242,5.802,5.634,8.058l-6.11,30.549H48.019C39.197,496.053,32.018,490.214,32.018,483.037z M480.036,483.037
		c0,7.177-7.178,13.016-16.001,13.016H286.587l-6.11-30.549c2.392-2.255,4.325-4.992,5.634-8.058l12.262,12.262
		c1.506,1.506,3.543,2.343,5.656,2.343c0.208,0,0.417-0.008,0.626-0.024c2.333-0.183,4.468-1.378,5.844-3.27l60.959-83.819
		l61.712,12.908c30.77,8.761,46.866,39.469,46.866,65.349V483.037z"/>
	<path d="M120.022,254.686v97.38c0,4.418,3.582,8,8,8s8-3.582,8-8v-96.004h7.33c5.937,18.724,15.206,36.329,27.295,51.301
		c23.268,28.815,53.618,44.685,85.459,44.685c24.659,0,48.591-9.593,69.21-27.742c0.099-0.087,0.186-0.182,0.279-0.272
		c1.281,0.084,2.564,0.14,3.852,0.14c9.347,0,18.854-2.214,28.096-6.688c30.2-14.617,50.49-48.946,50.49-85.423V184.06
		c0-13.234-10.767-24.001-24-24.001h-3.274c17.729-67.605,9.697-123.106,2.596-139.246c-0.012-0.028-0.028-0.053-0.041-0.081
		c-0.071-0.156-0.149-0.306-0.229-0.456c-0.047-0.088-0.092-0.179-0.142-0.265c-0.076-0.13-0.159-0.256-0.242-0.381
		c-0.066-0.1-0.129-0.201-0.199-0.297c-0.071-0.098-0.148-0.19-0.223-0.284c-0.091-0.114-0.181-0.229-0.278-0.338
		c-0.061-0.068-0.127-0.132-0.19-0.198c-0.118-0.123-0.235-0.246-0.36-0.361c-0.055-0.051-0.115-0.097-0.171-0.146
		c-0.137-0.119-0.275-0.237-0.419-0.347c-0.063-0.047-0.129-0.089-0.193-0.135c-0.143-0.102-0.286-0.203-0.436-0.295
		c-0.081-0.05-0.167-0.094-0.25-0.141c-0.136-0.078-0.272-0.156-0.413-0.226c-0.105-0.052-0.215-0.096-0.322-0.143
		c-0.125-0.055-0.248-0.112-0.375-0.161c-0.121-0.046-0.246-0.083-0.37-0.124c-0.12-0.039-0.239-0.081-0.361-0.115
		c-0.123-0.034-0.248-0.058-0.373-0.086c-0.13-0.029-0.259-0.061-0.391-0.083c-0.111-0.019-0.224-0.03-0.336-0.044
		c-0.151-0.02-0.301-0.04-0.453-0.05c-0.094-0.006-0.189-0.006-0.284-0.01c-0.173-0.006-0.347-0.01-0.521-0.005
		c-0.083,0.002-0.166,0.011-0.249,0.016c-0.184,0.012-0.368,0.026-0.552,0.05c-0.027,0.004-0.054,0.004-0.082,0.008
		c-20.061,2.866-44.351-2.012-70.066-7.175C261.715,0.282,217.162-8.642,182.326,16.2c-0.524-0.108-1.066-0.165-1.622-0.165
		c-35.729,0-60.682,29.608-60.682,72.002c0,19.63,4.947,49.438,9.335,72.021h-1.335c-13.234,0-24,10.767-24,24.001v48.002
		C104.022,242.491,110.711,251.384,120.022,254.686z M350.572,303.083c-16.883,8.171-34.197,6.476-48.86-4.742
		c1.484-3.117,2.317-6.602,2.317-10.277c0-13.234-10.767-24.001-24-24.001s-24,10.767-24,24.001c0,13.234,10.767,24,24,24
		c3.702,0,7.211-0.844,10.345-2.347c0.217,0.217,0.445,0.426,0.692,0.621c4.715,3.73,9.702,6.7,14.867,8.928
		c-15.45,11-32.483,16.781-49.826,16.781c-26.911,0-52.84-13.757-73.01-38.736c-19.908-24.655-31.326-57.284-31.326-89.521v-9.112
		c0-28.498,16.161-66.981,21.655-79.238c55.276-6.495,99.31-0.006,126.772,6.703c24.089,5.886,39.896,12.934,45.595,15.701
		l14.428,34.33v31.68c0,26.46-7.696,53.45-21.67,75.999c-2.327,3.755-1.169,8.687,2.586,11.014c1.313,0.813,2.769,1.201,4.207,1.201
		c2.678,0,5.294-1.344,6.808-3.787c6.968-11.243,12.517-23.484,16.531-36.218h15.351c1.545,0,3.055-0.152,4.52-0.433
		C382.381,276.43,368.458,294.427,350.572,303.083z M288.029,288.064c0,4.411-3.589,8-8,8s-8-3.589-8-8c0-4.412,3.589-8.001,8-8.001
		S288.029,283.652,288.029,288.064z M392.033,184.06v48.002c0,4.411-3.589,8-8,8h-11.175c2.208-10.635,3.363-21.46,3.363-32.209
		v-31.794h7.812C388.444,176.059,392.033,179.648,392.033,184.06z M180.704,32.035c0.772,0,1.517-0.115,2.223-0.32
		c2.342,0.671,4.958,0.277,7.047-1.31c29.374-22.312,71.231-13.906,111.709-5.778c21.237,4.265,41.547,8.343,60.306,8.343
		c2.89,0,5.74-0.109,8.555-0.317c4.922,17.755,9.586,62.524-3.828,117.681l-7.311-17.395c-0.697-1.658-1.932-3.033-3.507-3.903
		c-2.952-1.63-73.617-39.764-188.896-24.933c-0.019,0.002-0.037,0.008-0.056,0.01c-0.153,0.021-0.304,0.052-0.456,0.082
		c-0.113,0.022-0.228,0.04-0.339,0.066c-0.099,0.024-0.196,0.057-0.295,0.084c-0.913,0.256-1.757,0.659-2.498,1.192
		c-0.003,0.002-0.007,0.004-0.011,0.007c-0.064,0.046-0.122,0.099-0.184,0.146c-0.525,0.402-1.007,0.869-1.426,1.403
		c-0.016,0.02-0.033,0.038-0.048,0.057c-0.083,0.107-0.156,0.223-0.234,0.334c-0.074,0.107-0.152,0.211-0.221,0.322
		c-0.05,0.081-0.094,0.167-0.141,0.25c-0.087,0.15-0.173,0.301-0.25,0.457c-0.007,0.015-0.016,0.028-0.023,0.043
		c-0.619,1.282-9.674,20.183-16.721,43.296c-3.985-21.14-8.077-46.957-8.077-63.816C136.022,49.351,158.464,32.035,180.704,32.035z
		 M120.022,184.06c0-4.412,3.589-8.001,8-8.001h4.582c1.51,7.145,2.689,12.345,3.166,14.42v17.311
		c0,10.801,1.163,21.643,3.384,32.272h-11.132c-4.412,0-8-3.589-8-8V184.06z"/>
</g>
<g>
</g>
<g>
</g>
<g>
</g>
<g>
</g>
<g>
</g>
<g>
</g>
<g>
</g>
<g>
</g>
<g>
</g>
<g>
</g>
<g>
</g>
<g>
</g>
<g>
</g>
<g>
</g>
<g>
</g>
</svg>
