<?xml version="1.0" encoding="iso-8859-1"?>
<!-- Generator: Adobe Illustrator 17.1.0, SVG Export Plug-In . SVG Version: 6.00 Build 0)  -->
<!DOCTYPE svg PUBLIC "-//W3C//DTD SVG 1.1//EN" "http://www.w3.org/Graphics/SVG/1.1/DTD/svg11.dtd">
<svg version="1.1" id="Capa_1" xmlns="http://www.w3.org/2000/svg" xmlns:xlink="http://www.w3.org/1999/xlink" x="0px" y="0px"
	 viewBox="0 0 512 512" style="enable-background:new 0 0 512 512;" xml:space="preserve">
<g>
	<path d="M416,32h-80.001c-0.007,0-0.013,0.001-0.02,0.001C328.674,22.292,317.059,16,304,16h-20.39C277.966,6.242,267.481,0,256,0
		s-21.966,6.242-27.61,16H208c-13.059,0-24.674,6.292-31.979,16.001c-0.007,0-0.014-0.001-0.021-0.001H96c-22.056,0-40,17.944-40,40
		v400c0,22.056,17.944,40,40,40h320c22.056,0,40-17.944,40-40V72C456,49.944,438.056,32,416,32z M184,56c0-13.233,10.767-24,24-24
		h25.47c3.385,0,6.404-2.131,7.538-5.32C243.278,20.292,249.303,16,256,16s12.722,4.292,14.992,10.68
		c1.134,3.189,4.153,5.32,7.538,5.32H304c13.233,0,24,10.767,24,24v24H184V56z M440,472c0,13.233-10.767,24-24,24H96
		c-13.233,0-24-10.767-24-24V72c0-13.233,10.767-24,24-24h72.805c-0.527,2.586-0.805,5.261-0.805,8v32c0,4.418,3.582,8,8,8h160
		c4.418,0,8-3.582,8-8V56c0-2.739-0.278-5.414-0.805-8H416c13.233,0,24,10.767,24,24V472z"/>
	<path d="M416,64h-48c-4.418,0-8,3.582-8,8s3.582,8,8,8h40v280h-80c-13.233,0-24,10.767-24,24v47.999c0,4.418,3.582,8,8,8
		s8-3.582,8-8V384c0-4.411,3.589-8,8-8h68.686l-88,88H104V80h40c4.418,0,8-3.582,8-8s-3.582-8-8-8H96c-4.418,0-8,3.582-8,8v400
		c0,4.418,3.582,8,8,8h216.001c0.009,0,0.017-0.001,0.025-0.001c0.254-0.001,0.508-0.013,0.762-0.038
		c0.129-0.013,0.255-0.036,0.382-0.055c0.13-0.019,0.261-0.034,0.39-0.059c0.148-0.029,0.291-0.069,0.436-0.107
		c0.107-0.027,0.215-0.05,0.32-0.082c0.146-0.044,0.286-0.098,0.428-0.15c0.103-0.038,0.207-0.071,0.309-0.113
		c0.138-0.057,0.27-0.123,0.403-0.187c0.102-0.049,0.205-0.093,0.305-0.147c0.138-0.073,0.269-0.156,0.401-0.237
		c0.09-0.055,0.181-0.105,0.269-0.163c0.16-0.107,0.313-0.224,0.464-0.341c0.054-0.042,0.111-0.079,0.165-0.123
		c0.215-0.175,0.42-0.361,0.615-0.558l103.98-103.98c0.012-0.012,0.021-0.026,0.033-0.039c0.235-0.238,0.449-0.494,0.653-0.759
		c0.055-0.072,0.11-0.144,0.162-0.217c0.199-0.279,0.385-0.567,0.548-0.871c0.017-0.031,0.03-0.064,0.046-0.096
		c0.147-0.283,0.274-0.577,0.387-0.878c0.026-0.07,0.053-0.139,0.077-0.21c0.113-0.33,0.21-0.667,0.28-1.015
		c0.004-0.019,0.005-0.039,0.009-0.058c0.06-0.315,0.098-0.637,0.12-0.964c0.007-0.096,0.011-0.191,0.015-0.287
		c0.003-0.089,0.013-0.175,0.013-0.265V72C424,67.582,420.418,64,416,64z"/>
	<path d="M256,32c-2.11,0-4.17,0.85-5.66,2.34C248.85,35.83,248,37.89,248,40c0,2.11,0.85,4.17,2.34,5.66
		c1.49,1.49,3.55,2.34,5.66,2.34c2.1,0,4.17-0.85,5.66-2.34c1.49-1.49,2.34-3.55,2.34-5.66c0-2.11-0.85-4.17-2.34-5.66
		C260.17,32.85,258.1,32,256,32z"/>
	<path d="M288,152h80c4.418,0,8-3.582,8-8s-3.582-8-8-8h-80c-4.418,0-8,3.582-8,8S283.582,152,288,152z"/>
	<path d="M224,184h144c4.418,0,8-3.582,8-8s-3.582-8-8-8H224c-4.418,0-8,3.582-8,8S219.582,184,224,184z"/>
	<path d="M368,232H144c-4.418,0-8,3.582-8,8s3.582,8,8,8h224c4.418,0,8-3.582,8-8S372.418,232,368,232z"/>
	<path d="M368,264H144c-4.418,0-8,3.582-8,8s3.582,8,8,8h224c4.418,0,8-3.582,8-8S372.418,264,368,264z"/>
	<path d="M368,296H144c-4.418,0-8,3.582-8,8s3.582,8,8,8h224c4.418,0,8-3.582,8-8S372.418,296,368,296z"/>
	<path d="M376,336c0-4.418-3.582-8-8-8H144c-4.418,0-8,3.582-8,8s3.582,8,8,8h224C372.418,344,376,340.418,376,336z"/>
	<path d="M280,360h-64c-4.418,0-8,3.582-8,8s3.582,8,8,8h64c4.418,0,8-3.582,8-8S284.418,360,280,360z"/>
	<path d="M280,392h-64c-4.418,0-8,3.582-8,8s3.582,8,8,8h64c4.418,0,8-3.582,8-8S284.418,392,280,392z"/>
	<path d="M136,144c0,4.418,3.582,8,8,8h40c4.418,0,8-3.582,8-8s-3.582-8-8-8h-40C139.582,136,136,139.582,136,144z"/>
	<path d="M120,396c0,19.851,16.149,36,36,36s36-16.149,36-36s-16.149-36-36-36S120,376.149,120,396z M176,396
		c0,11.028-8.972,20-20,20s-20-8.972-20-20s8.972-20,20-20S176,384.972,176,396z"/>
</g>
<g>
</g>
<g>
</g>
<g>
</g>
<g>
</g>
<g>
</g>
<g>
</g>
<g>
</g>
<g>
</g>
<g>
</g>
<g>
</g>
<g>
</g>
<g>
</g>
<g>
</g>
<g>
</g>
<g>
</g>
</svg>
