<?xml version="1.0" encoding="iso-8859-1"?>
<!-- Generator: Adobe Illustrator 17.1.0, SVG Export Plug-In . SVG Version: 6.00 Build 0)  -->
<!DOCTYPE svg PUBLIC "-//W3C//DTD SVG 1.1//EN" "http://www.w3.org/Graphics/SVG/1.1/DTD/svg11.dtd">
<svg version="1.1" id="Capa_1" xmlns="http://www.w3.org/2000/svg" xmlns:xlink="http://www.w3.org/1999/xlink" x="0px" y="0px"
	 viewBox="0 0 512 512" style="enable-background:new 0 0 512 512;" xml:space="preserve">
<g>
	<path d="M424,216h-16c-13.234,0-24,10.766-24,24v56c0,6.476-3.874,12.052-9.42,14.568C370.545,297.512,358.363,288,344,288h-64v-32
		h56c17.645,0,32-14.355,32-32V32c0-17.645-14.355-32-32-32H176c-17.645,0-32,14.355-32,32v192c0,17.645,14.355,32,32,32h56v32h-64
		c-14.363,0-26.545,9.512-30.58,22.568c-5.546-2.515-9.42-8.092-9.42-14.568v-56c0-13.234-10.766-24-24-24H88c-4.418,0-8,3.582-8,8
		s3.582,8,8,8h16c4.411,0,8,3.589,8,8v56c0,15.177,10.623,27.91,24.822,31.178C140.09,341.377,152.823,352,168,352h64v112h-56
		c-13.234,0-24,10.766-24,24s10.766,24,24,24s24-10.766,24-24c0-2.804-0.488-5.496-1.376-8h114.752
		c-0.888,2.504-1.376,5.196-1.376,8c0,13.234,10.766,24,24,24s24-10.766,24-24s-10.766-24-24-24h-56V352h64
		c15.177,0,27.91-10.623,31.178-24.822C389.377,323.91,400,311.177,400,296v-56c0-4.411,3.589-8,8-8h16c4.418,0,8-3.582,8-8
		S428.418,216,424,216z M176,496c-4.411,0-8-3.589-8-8s3.589-8,8-8s8,3.589,8,8S180.411,496,176,496z M336,480c4.411,0,8,3.589,8,8
		s-3.589,8-8,8s-8-3.589-8-8S331.589,480,336,480z M176,240c-8.822,0-16-7.178-16-16V32c0-8.822,7.178-16,16-16h160
		c8.822,0,16,7.178,16,16v192c0,8.822-7.178,16-16,16H176z M264,256v32h-16v-32H264z M264,464h-16V352h16V464z M344,336H168
		c-8.822,0-16-7.178-16-16s7.178-16,16-16h176c8.822,0,16,7.178,16,16S352.822,336,344,336z"/>
	<path d="M328,64c4.418,0,8-3.582,8-8V40c0-4.418-3.582-8-8-8s-8,3.582-8,8v16C320,60.418,323.582,64,328,64z"/>
	<path d="M336,88c0-4.418-3.582-8-8-8s-8,3.582-8,8v48c0,4.418,3.582,8,8,8s8-3.582,8-8V88z"/>
</g>
<g>
</g>
<g>
</g>
<g>
</g>
<g>
</g>
<g>
</g>
<g>
</g>
<g>
</g>
<g>
</g>
<g>
</g>
<g>
</g>
<g>
</g>
<g>
</g>
<g>
</g>
<g>
</g>
<g>
</g>
</svg>
