<?xml version="1.0" encoding="iso-8859-1"?>
<!-- Generator: Adobe Illustrator 17.1.0, SVG Export Plug-In . SVG Version: 6.00 Build 0)  -->
<!DOCTYPE svg PUBLIC "-//W3C//DTD SVG 1.1//EN" "http://www.w3.org/Graphics/SVG/1.1/DTD/svg11.dtd">
<svg version="1.1" id="Capa_1" xmlns="http://www.w3.org/2000/svg" xmlns:xlink="http://www.w3.org/1999/xlink" x="0px" y="0px"
	 viewBox="0 0 512.001 512.001" style="enable-background:new 0 0 512.001 512.001;" xml:space="preserve">
<g>
	<path d="M424.001,420.001h-16c-4.418,0-8,3.582-8,8s3.582,8,8,8h16c4.418,0,8-3.582,8-8S428.419,420.001,424.001,420.001z"/>
	<path d="M504.001,420.001h-16v-24c0-4.418-3.582-8-8-8h-16v-192h16c4.418,0,8-3.582,8-8v-24h16c3.81,0,7.091-2.687,7.843-6.422
		c0.751-3.735-1.235-7.482-4.749-8.956l-248-104c-1.979-0.83-4.209-0.83-6.188,0l-248,104c-3.514,1.473-5.5,5.22-4.749,8.956
		c0.751,3.735,4.033,6.422,7.843,6.422h16v24c0,4.418,3.582,8,8,8h16v192h-16c-4.418,0-8,3.582-8,8v24h-16c-4.418,0-8,3.582-8,8v32
		c0,4.418,3.582,8,8,8h496c4.418,0,8-3.582,8-8v-32C512.001,423.582,508.419,420.001,504.001,420.001z M448.001,388.001h-24v-192h24
		V388.001z M392.001,388.001v-192h16v192H392.001z M320.001,388.001v-192h16v192H320.001z M248.001,388.001v-192h16v192H248.001z
		 M176.001,388.001v-192h16v192H176.001z M104.001,388.001v-192h16v192H104.001z M136.001,196.001h24v192h-24V196.001z
		 M208.001,196.001h24v192h-24V196.001z M280.001,196.001h24v192h-24V196.001z M352.001,196.001h24v192h-24V196.001z
		 M40.001,164.001h335.997c4.418,0,8-3.582,8-8s-3.582-8-8-8H47.764l208.236-87.325l208.236,87.325h-8.238c-4.418,0-8,3.582-8,8
		s3.582,8,8,8h16.001v16h-16h-40h-32h-40h-32h-40h-32h-40h-32h-40h-32h-40h-16V164.001z M64.001,196.001h24v192h-24V196.001z
		 M496.001,452.001h-480v-16h360c4.418,0,8-3.582,8-8s-3.582-8-8-8h-336v-16h16h40h32h40h32h40h32h40h32h40h32h40h16v16h-16.002
		c-4.418,0-8,3.582-8,8s3.582,8,8,8h40.002V452.001z"/>
	<path d="M408.003,164.001H424c4.418,0,8-3.582,8-8s-3.582-8-8-8h-15.997c-4.418,0-8,3.582-8,8S403.584,164.001,408.003,164.001z"/>
	<path d="M280.001,100.001c-4.418,0-8,3.582-8,8c0,8.822-7.178,16-16,16c-8.822,0-16-7.178-16-16s7.178-16,16-16
		c4.418,0,8-3.582,8-8s-3.582-8-8-8c-17.645,0-32,14.355-32,32s14.355,32,32,32s32-14.355,32-32
		C288.001,103.582,284.419,100.001,280.001,100.001z"/>
</g>
<g>
</g>
<g>
</g>
<g>
</g>
<g>
</g>
<g>
</g>
<g>
</g>
<g>
</g>
<g>
</g>
<g>
</g>
<g>
</g>
<g>
</g>
<g>
</g>
<g>
</g>
<g>
</g>
<g>
</g>
</svg>
