<?xml version="1.0" encoding="iso-8859-1"?>
<!-- Generator: Adobe Illustrator 17.1.0, SVG Export Plug-In . SVG Version: 6.00 Build 0)  -->
<!DOCTYPE svg PUBLIC "-//W3C//DTD SVG 1.1//EN" "http://www.w3.org/Graphics/SVG/1.1/DTD/svg11.dtd">
<svg version="1.1" id="Capa_1" xmlns="http://www.w3.org/2000/svg" xmlns:xlink="http://www.w3.org/1999/xlink" x="0px" y="0px"
	 viewBox="0 0 512 512" style="enable-background:new 0 0 512 512;" xml:space="preserve">
<g>
	<path d="M488,164H304c-4.418,0-8,3.582-8,8s3.582,8,8,8h184c4.411,0,8,3.589,8,8v40h-23.999c-4.418,0-8,3.582-8,8s3.582,8,8,8
		h10.351L465.62,477.146c-0.598,8.329-7.607,14.854-15.959,14.854H62.339c-8.352,0-15.361-6.525-15.959-14.854L29.647,244h410.352
		c4.418,0,8-3.582,8-8s-3.582-8-8-8H16v-40c0-4.411,3.589-8,8-8h184.001c4.418,0,8-3.582,8-8s-3.582-8-8-8H24
		c-13.233,0-24,10.767-24,24v40c0,8.002,5.911,14.631,13.592,15.799l16.83,234.491C31.617,494.95,45.637,508,62.339,508h387.321
		c16.703,0,30.723-13.05,31.918-29.71l16.83-234.491C506.089,242.631,512,236.002,512,228v-40C512,174.767,501.233,164,488,164z"/>
	<path d="M256,212c13.233,0,24-10.767,24-24V28c0-13.233-10.767-24-24-24s-24,10.767-24,24v160C232,201.233,242.767,212,256,212z
		 M248,28c0-4.411,3.589-8,8-8s8,3.589,8,8v160c0,4.411-3.589,8-8,8s-8-3.589-8-8V28z"/>
	<path d="M248,284v168c0,4.418,3.582,8,8,8s8-3.582,8-8V284c0-4.418-3.582-8-8-8S248,279.582,248,284z"/>
	<path d="M208,284v168c0,4.418,3.582,8,8,8s8-3.582,8-8V284c0-4.418-3.582-8-8-8S208,279.582,208,284z"/>
	<path d="M328,284v168c0,4.418,3.582,8,8,8s8-3.582,8-8V284c0-4.418-3.582-8-8-8S328,279.582,328,284z"/>
	<path d="M288,284v168c0,4.418,3.582,8,8,8s8-3.582,8-8V284c0-4.418-3.582-8-8-8S288,279.582,288,284z"/>
	<path d="M368,284v168c0,4.418,3.582,8,8,8s8-3.582,8-8V284c0-4.418-3.582-8-8-8S368,279.582,368,284z"/>
	<path d="M408,284v168c0,4.418,3.582,8,8,8s8-3.582,8-8V284c0-4.418-3.582-8-8-8S408,279.582,408,284z"/>
	<path d="M88,284v168c0,4.418,3.582,8,8,8s8-3.582,8-8V284c0-4.418-3.582-8-8-8S88,279.582,88,284z"/>
	<path d="M128,284v168c0,4.418,3.582,8,8,8s8-3.582,8-8V284c0-4.418-3.582-8-8-8S128,279.582,128,284z"/>
	<path d="M168,284v168c0,4.418,3.582,8,8,8s8-3.582,8-8V284c0-4.418-3.582-8-8-8S168,279.582,168,284z"/>
</g>
<g>
</g>
<g>
</g>
<g>
</g>
<g>
</g>
<g>
</g>
<g>
</g>
<g>
</g>
<g>
</g>
<g>
</g>
<g>
</g>
<g>
</g>
<g>
</g>
<g>
</g>
<g>
</g>
<g>
</g>
</svg>
