<?xml version="1.0" encoding="iso-8859-1"?>
<!-- Generator: Adobe Illustrator 17.1.0, SVG Export Plug-In . SVG Version: 6.00 Build 0)  -->
<!DOCTYPE svg PUBLIC "-//W3C//DTD SVG 1.1//EN" "http://www.w3.org/Graphics/SVG/1.1/DTD/svg11.dtd">
<svg version="1.1" id="Capa_1" xmlns="http://www.w3.org/2000/svg" xmlns:xlink="http://www.w3.org/1999/xlink" x="0px" y="0px"
	 viewBox="0 0 512 512" style="enable-background:new 0 0 512 512;" xml:space="preserve">
<path d="M509.387,316.564l-31.539-134.393c-0.009-0.037-0.018-0.074-0.027-0.112c-4.459-17.839-20.417-30.299-38.806-30.299H416V128
	c13.234,0,24-10.767,24-24V72c0-13.233-10.766-24-24-24H312c-13.234,0-24,10.767-24,24v40h-64V72c0-13.233-10.766-24-24-24H96
	c-13.234,0-24,10.767-24,24v32c0,13.233,10.766,24,24,24v23.761H72.985c-18.389,0-34.346,12.46-38.806,30.299
	c-0.009,0.038-0.019,0.075-0.027,0.112L2.613,316.564C0.879,323.521,0,330.682,0,337.85V432c0,17.645,14.355,32,32,32h136
	c17.645,0,32-14.355,32-32v-96h112v96c0,17.645,14.355,32,32,32h136c17.645,0,32-14.355,32-32v-94.15
	C512,330.682,511.121,323.521,509.387,316.564z M480,448H344c-8.822,0-16-7.178-16-16v-16h128c4.418,0,8-3.582,8-8s-3.582-8-8-8H328
	v-72c0-4.418-3.582-8-8-8H192c-4.418,0-8,3.582-8,8v72h-8c-4.418,0-8,3.582-8,8s3.582,8,8,8h8v16c0,8.822-7.178,16-16,16H32
	c-8.822,0-16-7.178-16-16v-16h128c4.418,0,8-3.582,8-8s-3.582-8-8-8H16v-62.15c0-5.881,0.723-11.756,2.15-17.462
	c0.009-0.038,0.019-0.075,0.027-0.112L49.714,185.89c2.692-10.677,12.254-18.129,23.271-18.129H104c4.418,0,8-3.582,8-8V128h48
	c4.418,0,8-3.582,8-8s-3.582-8-8-8H96c-4.411,0-8-3.589-8-8V72c0-4.411,3.589-8,8-8h104c4.411,0,8,3.589,8,8v40h-16
	c-4.418,0-8,3.582-8,8l0,0.01V296c0,4.418,3.582,8,8,8s8-3.582,8-8V128h112v168c0,4.418,3.582,8,8,8s8-3.582,8-8V128h32
	c4.418,0,8-3.582,8-8s-3.582-8-8-8h-56V72c0-4.411,3.589-8,8-8h104c4.411,0,8,3.589,8,8v32c0,4.411-3.589,8-8,8h-24
	c-4.418,0-8,3.582-8,8s3.582,8,8,8h8v31.761c0,4.418,3.582,8,8,8h31.015c11.017,0,20.578,7.452,23.271,18.129l31.537,134.386
	c0.009,0.037,0.018,0.074,0.027,0.112c1.427,5.706,2.15,11.581,2.15,17.462V400h-8c-4.418,0-8,3.582-8,8s3.582,8,8,8h8v16
	C496,440.822,488.822,448,480,448z"/>
<g>
</g>
<g>
</g>
<g>
</g>
<g>
</g>
<g>
</g>
<g>
</g>
<g>
</g>
<g>
</g>
<g>
</g>
<g>
</g>
<g>
</g>
<g>
</g>
<g>
</g>
<g>
</g>
<g>
</g>
</svg>
