<?xml version="1.0" encoding="iso-8859-1"?>
<!-- Generator: Adobe Illustrator 17.1.0, SVG Export Plug-In . SVG Version: 6.00 Build 0)  -->
<!DOCTYPE svg PUBLIC "-//W3C//DTD SVG 1.1//EN" "http://www.w3.org/Graphics/SVG/1.1/DTD/svg11.dtd">
<svg version="1.1" id="Capa_1" xmlns="http://www.w3.org/2000/svg" xmlns:xlink="http://www.w3.org/1999/xlink" x="0px" y="0px"
	 viewBox="0 0 512 512" style="enable-background:new 0 0 512 512;" xml:space="preserve">
<g>
	<path d="M496,0H16C7.178,0,0,7.178,0,16v480c0,8.822,7.178,16,16,16h480c8.822,0,16-7.178,16-16V16C512,7.178,504.822,0,496,0z
		 M496,496H16V16h480V496z"/>
	<path d="M48,408.002V456c0,4.418,3.582,8,8,8h400c4.418,0,8-3.582,8-8v-87.998v-0.005v-87.995v-0.005v-87.995v-0.005v-87.995
		v-0.005V56c0-4.418-3.582-8-8-8H56c-0.06,0-0.118,0.008-0.177,0.009c-0.203,0.004-0.405,0.011-0.607,0.031
		c-0.139,0.014-0.273,0.039-0.41,0.059c-0.122,0.018-0.244,0.032-0.365,0.056c-0.146,0.029-0.288,0.069-0.432,0.105
		c-0.109,0.028-0.219,0.052-0.328,0.084c-0.137,0.042-0.27,0.093-0.404,0.141c-0.112,0.041-0.225,0.077-0.336,0.123
		c-0.123,0.051-0.241,0.11-0.36,0.167c-0.117,0.055-0.236,0.107-0.351,0.169c-0.112,0.06-0.219,0.128-0.328,0.194
		c-0.115,0.069-0.232,0.134-0.344,0.209c-0.117,0.078-0.227,0.165-0.339,0.249c-0.097,0.073-0.196,0.14-0.291,0.217
		c-0.182,0.15-0.357,0.309-0.525,0.474c-0.02,0.019-0.041,0.035-0.06,0.054c-0.017,0.017-0.031,0.035-0.047,0.052
		c-0.168,0.171-0.33,0.348-0.482,0.533c-0.08,0.097-0.15,0.2-0.224,0.3c-0.081,0.109-0.166,0.216-0.242,0.329
		c-0.078,0.116-0.146,0.237-0.217,0.356c-0.063,0.105-0.128,0.207-0.186,0.315c-0.065,0.121-0.12,0.246-0.178,0.369
		c-0.053,0.113-0.11,0.224-0.158,0.34c-0.05,0.12-0.09,0.242-0.133,0.364c-0.045,0.125-0.093,0.248-0.131,0.375
		c-0.037,0.123-0.064,0.248-0.095,0.372c-0.032,0.129-0.069,0.256-0.094,0.387c-0.029,0.145-0.046,0.291-0.067,0.437
		c-0.016,0.112-0.037,0.223-0.049,0.337C48.014,55.473,48,55.738,48,56.002v87.995v0.005v87.995v0.005v87.995v0.005v87.995V408.002z
		 M141.675,218.361L64,140.686V75.314l66.351,66.35c1.562,1.562,3.609,2.343,5.657,2.343s4.095-0.781,5.657-2.343
		c3.125-3.125,3.125-8.189,0-11.314L75.314,64h65.372l53.662,53.662c1.562,1.562,3.609,2.343,5.657,2.343
		c2.047,0,4.095-0.781,5.657-2.343c3.125-3.125,3.125-8.189,0-11.314L163.314,64h65.372l53.676,53.676
		c1.562,1.562,3.609,2.343,5.657,2.343s4.095-0.781,5.657-2.343c3.125-3.125,3.125-8.189,0-11.314L251.314,64h65.372L448,195.314
		v65.372l-66.336-66.336c-3.124-3.123-8.189-3.123-11.313,0c-3.125,3.125-3.125,8.189,0,11.314l77.65,77.65v65.372l-82.349-82.349
		c-3.124-3.123-8.189-3.123-11.313,0c-3.125,3.125-3.125,8.189,0,11.314L448,371.314v65.372L277.653,266.339
		c-3.124-3.122-8.189-3.123-11.313,0c-3.125,3.125-3.125,8.189,0,11.314L436.686,448H370.92c-0.342-0.591-0.757-1.151-1.263-1.657
		l-180-180c-3.124-3.123-8.189-3.123-11.313,0c-3.125,3.125-3.125,8.189,0,11.314L348.686,448H282.92
		c-0.342-0.591-0.757-1.151-1.263-1.657L64,228.686v-65.372l66.362,66.362c1.562,1.562,3.609,2.343,5.657,2.343
		s4.095-0.781,5.657-2.343C144.8,226.551,144.8,221.486,141.675,218.361z M404.686,64L448,107.314v65.372L339.314,64H404.686z
		 M260.686,448H194.92c-0.342-0.591-0.757-1.151-1.263-1.657L64,316.686v-65.372L260.686,448z M172.686,448H106.92
		c-0.342-0.591-0.757-1.151-1.263-1.657L64,404.686v-65.372L172.686,448z M64,427.314L84.686,448H64V427.314z M448,84.686
		L427.314,64H448V84.686z"/>
	<path d="M168,248h176c4.418,0,8-3.582,8-8v-96c0-4.418-3.582-8-8-8H168c-4.418,0-8,3.582-8,8v96C160,244.418,163.582,248,168,248z
		 M176,152h160v80H176V152z"/>
	<path d="M216,184h80c4.418,0,8-3.582,8-8s-3.582-8-8-8h-80c-4.418,0-8,3.582-8,8S211.582,184,216,184z"/>
	<path d="M312,200H200c-4.418,0-8,3.582-8,8s3.582,8,8,8h112c4.418,0,8-3.582,8-8S316.418,200,312,200z"/>
</g>
<g>
</g>
<g>
</g>
<g>
</g>
<g>
</g>
<g>
</g>
<g>
</g>
<g>
</g>
<g>
</g>
<g>
</g>
<g>
</g>
<g>
</g>
<g>
</g>
<g>
</g>
<g>
</g>
<g>
</g>
</svg>
