<?xml version="1.0" encoding="iso-8859-1"?>
<!-- Generator: Adobe Illustrator 17.1.0, SVG Export Plug-In . SVG Version: 6.00 Build 0)  -->
<!DOCTYPE svg PUBLIC "-//W3C//DTD SVG 1.1//EN" "http://www.w3.org/Graphics/SVG/1.1/DTD/svg11.dtd">
<svg version="1.1" id="Capa_1" xmlns="http://www.w3.org/2000/svg" xmlns:xlink="http://www.w3.org/1999/xlink" x="0px" y="0px"
	 viewBox="0 0 512 512" style="enable-background:new 0 0 512 512;" xml:space="preserve">
<g>
	<path d="M432,128h-15.997c-4.418,0-8,3.582-8,8s3.582,8,8,8H432c4.418,0,8-3.582,8-8S436.418,128,432,128z"/>
	<path d="M480,48H32C14.355,48,0,62.355,0,80v48c0,8.822,7.178,16,16,16v288c0,17.645,14.355,32,32,32h416c17.645,0,32-14.355,32-32
		V144c8.822,0,16-7.178,16-16V80C512,62.355,497.645,48,480,48z M496,128h-32c-4.418,0-8,3.582-8,8s3.582,8,8,8h16v288
		c0,8.822-7.178,16-16,16H48c-8.822,0-16-7.178-16-16V144h351.998c4.418,0,8-3.582,8-8s-3.582-8-8-8H16V80c0-8.822,7.178-16,16-16
		h448c8.822,0,16,7.178,16,16V128z"/>
	<path d="M312,176H192c-26.467,0-48,21.533-48,48s21.533,48,48,48h120c26.467,0,48-21.533,48-48S338.467,176,312,176z M312,256H192
		c-17.645,0-32-14.355-32-32s14.355-32,32-32h120c17.645,0,32,14.355,32,32S329.645,256,312,256z"/>
</g>
<g>
</g>
<g>
</g>
<g>
</g>
<g>
</g>
<g>
</g>
<g>
</g>
<g>
</g>
<g>
</g>
<g>
</g>
<g>
</g>
<g>
</g>
<g>
</g>
<g>
</g>
<g>
</g>
<g>
</g>
</svg>
