<?xml version="1.0" encoding="iso-8859-1"?>
<!-- Generator: Adobe Illustrator 17.1.0, SVG Export Plug-In . SVG Version: 6.00 Build 0)  -->
<!DOCTYPE svg PUBLIC "-//W3C//DTD SVG 1.1//EN" "http://www.w3.org/Graphics/SVG/1.1/DTD/svg11.dtd">
<svg version="1.1" id="Capa_1" xmlns="http://www.w3.org/2000/svg" xmlns:xlink="http://www.w3.org/1999/xlink" x="0px" y="0px"
	 viewBox="0 0 512 512" style="enable-background:new 0 0 512 512;" xml:space="preserve">
<g>
	<path d="M468,0H44C19.738,0,0,19.738,0,44v396v24c0,8.822,7.178,16,16,16h32c8.822,0,16-7.178,16-16v-16h384v16
		c0,8.822,7.178,16,16,16h32c8.822,0,16-7.178,16-16v-24V44C512,19.738,492.262,0,468,0z M16,44c0-15.439,12.561-28,28-28h424
		c15.439,0,28,12.561,28,28v388H16V44z M48,464H16v-16h32V464z M464,464v-16h32v16H464z"/>
	<path d="M392.001,56h15.996c4.418,0,8-3.582,8-8s-3.582-8-8-8h-15.996c-4.418,0-8,3.582-8,8S387.583,56,392.001,56z"/>
	<path d="M56,216h24c4.418,0,8-3.582,8-8s-3.582-8-8-8H56V56h304.003c4.418,0,8-3.582,8-8s-3.582-8-8-8H56c-8.822,0-16,7.178-16,16
		v144C40,208.822,47.178,216,56,216z"/>
	<path d="M440.003,56H456v144H256c-4.418,0-8,3.582-8,8s3.582,8,8,8h200c8.822,0,16-7.178,16-16V56c0-8.822-7.178-16-16-16h-15.997
		c-4.418,0-8,3.582-8,8S435.584,56,440.003,56z"/>
	<path d="M392.001,232c-4.418,0-8,3.582-8,8s3.582,8,8,8h15.996c4.418,0,8-3.582,8-8s-3.582-8-8-8H392.001z"/>
	<path d="M456,408c8.822,0,16-7.178,16-16V248c0-8.822-7.178-16-16-16h-15.997c-4.418,0-8,3.582-8,8s3.582,8,8,8H456v144H56V248
		h304.003c4.418,0,8-3.582,8-8s-3.582-8-8-8H251.313l-77.657-77.657c-3.124-3.124-8.189-3.124-11.313,0L84.687,232H56
		c-8.822,0-16,7.178-16,16v144c0,8.822,7.178,16,16,16H456z M168,171.314L228.687,232H107.313L168,171.314z"/>
	<path d="M344,128c0-13.233-10.767-24-24-24H192c-13.233,0-24,10.767-24,24s10.767,24,24,24h128C333.233,152,344,141.233,344,128z
		 M184,128c0-4.411,3.589-8,8-8h128c4.411,0,8,3.589,8,8s-3.589,8-8,8H192C187.589,136,184,132.411,184,128z"/>
	<path d="M192,296c-13.233,0-24,10.767-24,24s10.767,24,24,24h128c13.233,0,24-10.767,24-24s-10.767-24-24-24H192z M328,320
		c0,4.411-3.589,8-8,8H192c-4.411,0-8-3.589-8-8s3.589-8,8-8h128C324.411,312,328,315.589,328,320z"/>
</g>
<g>
</g>
<g>
</g>
<g>
</g>
<g>
</g>
<g>
</g>
<g>
</g>
<g>
</g>
<g>
</g>
<g>
</g>
<g>
</g>
<g>
</g>
<g>
</g>
<g>
</g>
<g>
</g>
<g>
</g>
</svg>
