<?xml version="1.0" encoding="iso-8859-1"?>
<!-- Generator: Adobe Illustrator 17.1.0, SVG Export Plug-In . SVG Version: 6.00 Build 0)  -->
<!DOCTYPE svg PUBLIC "-//W3C//DTD SVG 1.1//EN" "http://www.w3.org/Graphics/SVG/1.1/DTD/svg11.dtd">
<svg version="1.1" id="Capa_1" xmlns="http://www.w3.org/2000/svg" xmlns:xlink="http://www.w3.org/1999/xlink" x="0px" y="0px"
	 viewBox="0 0 512 512" style="enable-background:new 0 0 512 512;" xml:space="preserve">
<g>
	<path d="M472,40H40C17.944,40,0,57.944,0,80v352c0,22.056,17.944,40,40,40h432c22.056,0,40-17.944,40-40V80
		C512,57.944,494.056,40,472,40z M496,432c0,13.234-10.766,24-24,24H40c-13.234,0-24-10.766-24-24V80c0-13.234,10.766-24,24-24h432
		c13.234,0,24,10.766,24,24V432z"/>
	<path d="M104,200H88c-13.234,0-24,10.766-24,24v16c0,13.234,10.766,24,24,24h16c13.234,0,24-10.766,24-24v-16
		C128,210.766,117.234,200,104,200z M112,240c0,4.411-3.589,8-8,8H88c-4.411,0-8-3.589-8-8v-16c0-4.411,3.589-8,8-8h16
		c4.411,0,8,3.589,8,8V240z"/>
	<path d="M184,200h-16c-13.234,0-24,10.766-24,24v16c0,13.234,10.766,24,24,24h16c13.234,0,24-10.766,24-24v-16
		C208,210.766,197.234,200,184,200z M192,240c0,4.411-3.589,8-8,8h-16c-4.411,0-8-3.589-8-8v-16c0-4.411,3.589-8,8-8h16
		c4.411,0,8,3.589,8,8V240z"/>
	<path d="M264,200h-16c-13.234,0-24,10.766-24,24v16c0,13.234,10.766,24,24,24h16c13.234,0,24-10.766,24-24v-16
		C288,210.766,277.234,200,264,200z M272,240c0,4.411-3.589,8-8,8h-16c-4.411,0-8-3.589-8-8v-16c0-4.411,3.589-8,8-8h16
		c4.411,0,8,3.589,8,8V240z"/>
	<path d="M344,200h-16c-13.234,0-24,10.766-24,24v16c0,13.234,10.766,24,24,24h16c13.234,0,24-10.766,24-24v-16
		C368,210.766,357.234,200,344,200z M328,216h12.687L320,236.687V224C320,219.589,323.589,216,328,216z M344,248h-12.687
		L352,227.313V240C352,244.411,348.411,248,344,248z"/>
	<path d="M424,200h-16c-13.234,0-24,10.766-24,24v16c0,13.234,10.766,24,24,24h16c13.234,0,24-10.766,24-24v-16
		C448,210.766,437.234,200,424,200z M408,216h12.687L400,236.687V224C400,219.589,403.589,216,408,216z M424,248h-12.687
		L432,227.313V240C432,244.411,428.411,248,424,248z"/>
	<path d="M104,280H88c-13.234,0-24,10.766-24,24v16c0,13.234,10.766,24,24,24h16c13.234,0,24-10.766,24-24v-16
		C128,290.766,117.234,280,104,280z M112,320c0,4.411-3.589,8-8,8H88c-4.411,0-8-3.589-8-8v-16c0-4.411,3.589-8,8-8h16
		c4.411,0,8,3.589,8,8V320z"/>
	<path d="M184,280h-16c-13.234,0-24,10.766-24,24v16c0,13.234,10.766,24,24,24h16c13.234,0,24-10.766,24-24v-16
		C208,290.766,197.234,280,184,280z M192,320c0,4.411-3.589,8-8,8h-16c-4.411,0-8-3.589-8-8v-16c0-4.411,3.589-8,8-8h16
		c4.411,0,8,3.589,8,8V320z"/>
	<path d="M264,280h-16c-13.234,0-24,10.766-24,24v16c0,13.234,10.766,24,24,24h16c13.234,0,24-10.766,24-24v-16
		C288,290.766,277.234,280,264,280z M272,320c0,4.411-3.589,8-8,8h-16c-4.411,0-8-3.589-8-8v-16c0-4.411,3.589-8,8-8h16
		c4.411,0,8,3.589,8,8V320z"/>
	<path d="M344,280h-16c-13.234,0-24,10.766-24,24v16c0,13.234,10.766,24,24,24h16c13.234,0,24-10.766,24-24v-16
		C368,290.766,357.234,280,344,280z M328,296h12.687L320,316.687V304C320,299.589,323.589,296,328,296z M344,328h-12.687
		L352,307.313V320C352,324.411,348.411,328,344,328z"/>
	<path d="M424,280h-16c-13.234,0-24,10.766-24,24v16c0,13.234,10.766,24,24,24h16c13.234,0,24-10.766,24-24v-16
		C448,290.766,437.234,280,424,280z M408,296h12.687L400,316.687V304C400,299.589,403.589,296,408,296z M424,328h-12.687
		L432,307.313V320C432,324.411,428.411,328,424,328z"/>
	<path d="M104,360H88c-13.234,0-24,10.766-24,24v16c0,13.234,10.766,24,24,24h16c13.234,0,24-10.766,24-24v-16
		C128,370.766,117.234,360,104,360z M112,400c0,4.411-3.589,8-8,8H88c-4.411,0-8-3.589-8-8v-16c0-4.411,3.589-8,8-8h16
		c4.411,0,8,3.589,8,8V400z"/>
	<path d="M184,360h-16c-13.234,0-24,10.766-24,24v16c0,13.234,10.766,24,24,24h16c13.234,0,24-10.766,24-24v-16
		C208,370.766,197.234,360,184,360z M192,400c0,4.411-3.589,8-8,8h-16c-4.411,0-8-3.589-8-8v-16c0-4.411,3.589-8,8-8h16
		c4.411,0,8,3.589,8,8V400z"/>
	<path d="M264,360h-16c-13.234,0-24,10.766-24,24v16c0,13.234,10.766,24,24,24h16c13.234,0,24-10.766,24-24v-16
		C288,370.766,277.234,360,264,360z M272,400c0,4.411-3.589,8-8,8h-16c-4.411,0-8-3.589-8-8v-16c0-4.411,3.589-8,8-8h16
		c4.411,0,8,3.589,8,8V400z"/>
	<path d="M344,360h-16c-13.234,0-24,10.766-24,24v16c0,13.234,10.766,24,24,24h16c13.234,0,24-10.766,24-24v-16
		C368,370.766,357.234,360,344,360z M328,376h12.687L320,396.687V384C320,379.589,323.589,376,328,376z M344,408h-12.687
		L352,387.313V400C352,404.411,348.411,408,344,408z"/>
	<path d="M424,360h-16c-13.234,0-24,10.766-24,24v16c0,13.234,10.766,24,24,24h16c13.234,0,24-10.766,24-24v-16
		C448,370.766,437.234,360,424,360z M408,376h12.687L400,396.687V384C400,379.589,403.589,376,408,376z M424,408h-12.687
		L432,387.313V400C432,404.411,428.411,408,424,408z"/>
	<path d="M424,88H88c-13.234,0-24,10.766-24,24v32c0,13.234,10.766,24,24,24h336c13.234,0,24-10.766,24-24v-32
		C448,98.766,437.234,88,424,88z M432,144c0,4.411-3.589,8-8,8H88c-4.411,0-8-3.589-8-8v-32c0-4.411,3.589-8,8-8h336
		c4.411,0,8,3.589,8,8V144z"/>
	<path d="M104,112c-4.418,0-8,3.582-8,8v16c0,4.418,3.582,8,8,8s8-3.582,8-8v-16C112,115.582,108.418,112,104,112z"/>
	<path d="M136,112c-4.418,0-8,3.582-8,8v16c0,4.418,3.582,8,8,8s8-3.582,8-8v-16C144,115.582,140.418,112,136,112z"/>
	<path d="M168,112c-4.418,0-8,3.582-8,8v16c0,4.418,3.582,8,8,8s8-3.582,8-8v-16C176,115.582,172.418,112,168,112z"/>
	<path d="M200,112c-4.418,0-8,3.582-8,8v16c0,4.418,3.582,8,8,8s8-3.582,8-8v-16C208,115.582,204.418,112,200,112z"/>
	<path d="M232,112c-4.418,0-8,3.582-8,8v16c0,4.418,3.582,8,8,8s8-3.582,8-8v-16C240,115.582,236.418,112,232,112z"/>
</g>
<g>
</g>
<g>
</g>
<g>
</g>
<g>
</g>
<g>
</g>
<g>
</g>
<g>
</g>
<g>
</g>
<g>
</g>
<g>
</g>
<g>
</g>
<g>
</g>
<g>
</g>
<g>
</g>
<g>
</g>
</svg>
