<?xml version="1.0" encoding="iso-8859-1"?>
<!-- Generator: Adobe Illustrator 17.1.0, SVG Export Plug-In . SVG Version: 6.00 Build 0)  -->
<!DOCTYPE svg PUBLIC "-//W3C//DTD SVG 1.1//EN" "http://www.w3.org/Graphics/SVG/1.1/DTD/svg11.dtd">
<svg version="1.1" id="Capa_1" xmlns="http://www.w3.org/2000/svg" xmlns:xlink="http://www.w3.org/1999/xlink" x="0px" y="0px"
	 viewBox="0 0 496 496" style="enable-background:new 0 0 496 496;" xml:space="preserve">
<g>
	<path d="M424,0H72C32.299,0,0,32.299,0,72v352c0,39.701,32.299,72,72,72h352c39.701,0,72-32.299,72-72V72
		C496,32.299,463.701,0,424,0z M480,424c0,30.878-25.122,56-56,56H72c-30.878,0-56-25.122-56-56V72c0-30.878,25.122-56,56-56h352
		c30.878,0,56,25.122,56,56V424z"/>
	<path d="M456,240H256V40c0-4.418-3.582-8-8-8s-8,3.582-8,8v200H40c-4.418,0-8,3.582-8,8s3.582,8,8,8h200v200c0,4.418,3.582,8,8,8
		s8-3.582,8-8V256h200c4.418,0,8-3.582,8-8S460.418,240,456,240z"/>
	<path d="M64,136h56v56c0,4.418,3.582,8,8,8s8-3.582,8-8v-56h56c4.418,0,8-3.582,8-8s-3.582-8-8-8h-56V64c0-4.418-3.582-8-8-8
		s-8,3.582-8,8v56H64c-4.418,0-8,3.582-8,8S59.582,136,64,136z"/>
	<path d="M304,136h128c4.418,0,8-3.582,8-8s-3.582-8-8-8H304c-4.418,0-8,3.582-8,8S299.582,136,304,136z"/>
	<path d="M432,360H304c-4.418,0-8,3.582-8,8s3.582,8,8,8h128c4.418,0,8-3.582,8-8S436.418,360,432,360z"/>
	<path d="M181.657,314.343c-3.124-3.124-8.189-3.124-11.313,0L128,356.687l-42.343-42.343c-3.124-3.124-8.189-3.124-11.313,0
		c-3.125,3.124-3.125,8.189,0,11.313L116.687,368l-42.343,42.343c-3.125,3.124-3.125,8.189,0,11.313
		C75.905,423.219,77.953,424,80,424s4.095-0.781,5.657-2.343L128,379.313l42.343,42.343c1.562,1.562,3.609,2.343,5.657,2.343
		s4.095-0.781,5.657-2.343c3.125-3.124,3.125-8.189,0-11.313L139.313,368l42.343-42.343
		C184.781,322.533,184.781,317.467,181.657,314.343z"/>
	<path d="M392,320c0-13.234-10.766-24-24-24s-24,10.766-24,24s10.766,24,24,24S392,333.234,392,320z M360,320c0-4.411,3.589-8,8-8
		s8,3.589,8,8s-3.589,8-8,8S360,324.411,360,320z"/>
	<path d="M368,392c-13.234,0-24,10.766-24,24s10.766,24,24,24s24-10.766,24-24S381.234,392,368,392z M368,424c-4.411,0-8-3.589-8-8
		s3.589-8,8-8s8,3.589,8,8S372.411,424,368,424z"/>
</g>
<g>
</g>
<g>
</g>
<g>
</g>
<g>
</g>
<g>
</g>
<g>
</g>
<g>
</g>
<g>
</g>
<g>
</g>
<g>
</g>
<g>
</g>
<g>
</g>
<g>
</g>
<g>
</g>
<g>
</g>
</svg>
