<?xml version="1.0" encoding="iso-8859-1"?>
<!-- Generator: Adobe Illustrator 17.1.0, SVG Export Plug-In . SVG Version: 6.00 Build 0)  -->
<!DOCTYPE svg PUBLIC "-//W3C//DTD SVG 1.1//EN" "http://www.w3.org/Graphics/SVG/1.1/DTD/svg11.dtd">
<svg version="1.1" id="Capa_1" xmlns="http://www.w3.org/2000/svg" xmlns:xlink="http://www.w3.org/1999/xlink" x="0px" y="0px"
	 viewBox="0 0 512 512" style="enable-background:new 0 0 512 512;" xml:space="preserve">
<g>
	<path d="M472,60h-8V44c0-13.234-10.766-24-24-24s-24,10.766-24,24v16H96V44c0-13.234-10.766-24-24-24S48,30.766,48,44v16h-8
		C17.944,60,0,77.944,0,100v352c0,22.056,17.944,40,40,40h432c22.056,0,40-17.944,40-40V100C512,77.944,494.056,60,472,60z M432,44
		c0-4.411,3.589-8,8-8s8,3.589,8,8v23.981c0,0.007-0.001,0.013-0.001,0.019S448,68.013,448,68.019V92c0,4.411-3.589,8-8,8
		s-8-3.589-8-8V44z M72,36c4.411,0,8,3.589,8,8v48c0,4.411-3.589,8-8,8s-8-3.589-8-8V68.01c0-0.003,0-0.007,0-0.01s0-0.006,0-0.01
		V44C64,39.589,67.589,36,72,36z M472,476H40c-13.234,0-24-10.766-24-24V148h384c4.418,0,8-3.582,8-8s-3.582-8-8-8H16v-32
		c0-13.234,10.766-24,24-24h8v16c0,13.234,10.766,24,24,24s24-10.766,24-24V76h320v16c0,13.234,10.766,24,24,24s24-10.766,24-24V76
		h8c13.234,0,24,10.766,24,24v32h-16c-4.418,0-8,3.582-8,8s3.582,8,8,8h16v304C496,465.234,485.234,476,472,476z"/>
	<path d="M448,132h-16c-4.418,0-8,3.582-8,8s3.582,8,8,8h16c4.418,0,8-3.582,8-8S452.418,132,448,132z"/>
	<path d="M264,204h-16c-4.418,0-8,3.582-8,8s3.582,8,8,8h16c4.418,0,8-3.582,8-8S268.418,204,264,204z"/>
	<path d="M264,244h-16c-4.418,0-8,3.582-8,8s3.582,8,8,8h16c4.418,0,8-3.582,8-8S268.418,244,264,244z"/>
	<path d="M264,284h-16c-4.418,0-8,3.582-8,8s3.582,8,8,8h16c4.418,0,8-3.582,8-8S268.418,284,264,284z"/>
	<path d="M264,324h-16c-4.418,0-8,3.582-8,8s3.582,8,8,8h16c4.418,0,8-3.582,8-8S268.418,324,264,324z"/>
	<path d="M264,364h-16c-4.418,0-8,3.582-8,8s3.582,8,8,8h16c4.418,0,8-3.582,8-8S268.418,364,264,364z"/>
	<path d="M264,404h-16c-4.418,0-8,3.582-8,8s3.582,8,8,8h16c4.418,0,8-3.582,8-8S268.418,404,264,404z"/>
	<path d="M320,204h-16c-4.418,0-8,3.582-8,8s3.582,8,8,8h16c4.418,0,8-3.582,8-8S324.418,204,320,204z"/>
	<path d="M320,244h-16c-4.418,0-8,3.582-8,8s3.582,8,8,8h16c4.418,0,8-3.582,8-8S324.418,244,320,244z"/>
	<path d="M320,284h-16c-4.418,0-8,3.582-8,8s3.582,8,8,8h16c4.418,0,8-3.582,8-8S324.418,284,320,284z"/>
	<path d="M320,324h-16c-4.418,0-8,3.582-8,8s3.582,8,8,8h16c4.418,0,8-3.582,8-8S324.418,324,320,324z"/>
	<path d="M320,364h-16c-4.418,0-8,3.582-8,8s3.582,8,8,8h16c4.418,0,8-3.582,8-8S324.418,364,320,364z"/>
	<path d="M320,404h-16c-4.418,0-8,3.582-8,8s3.582,8,8,8h16c4.418,0,8-3.582,8-8S324.418,404,320,404z"/>
	<path d="M208,204h-16c-4.418,0-8,3.582-8,8s3.582,8,8,8h16c4.418,0,8-3.582,8-8S212.418,204,208,204z"/>
	<path d="M208,244h-16c-4.418,0-8,3.582-8,8s3.582,8,8,8h16c4.418,0,8-3.582,8-8S212.418,244,208,244z"/>
	<path d="M208,284h-16c-4.418,0-8,3.582-8,8s3.582,8,8,8h16c4.418,0,8-3.582,8-8S212.418,284,208,284z"/>
	<path d="M208,324h-16c-4.418,0-8,3.582-8,8s3.582,8,8,8h16c4.418,0,8-3.582,8-8S212.418,324,208,324z"/>
	<path d="M208,364h-16c-4.418,0-8,3.582-8,8s3.582,8,8,8h16c4.418,0,8-3.582,8-8S212.418,364,208,364z"/>
	<path d="M208,404h-16c-4.418,0-8,3.582-8,8s3.582,8,8,8h16c4.418,0,8-3.582,8-8S212.418,404,208,404z"/>
	<path d="M152,204h-16c-4.418,0-8,3.582-8,8s3.582,8,8,8h16c4.418,0,8-3.582,8-8S156.418,204,152,204z"/>
	<path d="M152,244h-16c-4.418,0-8,3.582-8,8s3.582,8,8,8h16c4.418,0,8-3.582,8-8S156.418,244,152,244z"/>
	<path d="M152,284h-16c-4.418,0-8,3.582-8,8s3.582,8,8,8h16c4.418,0,8-3.582,8-8S156.418,284,152,284z"/>
	<path d="M152,324h-16c-4.418,0-8,3.582-8,8s3.582,8,8,8h16c4.418,0,8-3.582,8-8S156.418,324,152,324z"/>
	<path d="M152,364h-16c-4.418,0-8,3.582-8,8s3.582,8,8,8h16c4.418,0,8-3.582,8-8S156.418,364,152,364z"/>
	<path d="M152,404h-16c-4.418,0-8,3.582-8,8s3.582,8,8,8h16c4.418,0,8-3.582,8-8S156.418,404,152,404z"/>
	<path d="M376,204h-16c-4.418,0-8,3.582-8,8s3.582,8,8,8h16c4.418,0,8-3.582,8-8S380.418,204,376,204z"/>
	<path d="M376,244h-16c-4.418,0-8,3.582-8,8s3.582,8,8,8h16c4.418,0,8-3.582,8-8S380.418,244,376,244z"/>
	<path d="M376,284h-16c-4.418,0-8,3.582-8,8s3.582,8,8,8h16c4.418,0,8-3.582,8-8S380.418,284,376,284z"/>
	<path d="M376,324h-16c-4.418,0-8,3.582-8,8s3.582,8,8,8h16c4.418,0,8-3.582,8-8S380.418,324,376,324z"/>
	<path d="M376,364h-16c-4.418,0-8,3.582-8,8s3.582,8,8,8h16c4.418,0,8-3.582,8-8S380.418,364,376,364z"/>
	<path d="M376,404h-16c-4.418,0-8,3.582-8,8s3.582,8,8,8h16c4.418,0,8-3.582,8-8S380.418,404,376,404z"/>
	<path d="M432,204h-16c-4.418,0-8,3.582-8,8s3.582,8,8,8h16c4.418,0,8-3.582,8-8S436.418,204,432,204z"/>
	<path d="M432,244h-16c-4.418,0-8,3.582-8,8s3.582,8,8,8h16c4.418,0,8-3.582,8-8S436.418,244,432,244z"/>
	<path d="M432,284h-16c-4.418,0-8,3.582-8,8s3.582,8,8,8h16c4.418,0,8-3.582,8-8S436.418,284,432,284z"/>
	<path d="M432,324h-16c-4.418,0-8,3.582-8,8s3.582,8,8,8h16c4.418,0,8-3.582,8-8S436.418,324,432,324z"/>
	<path d="M432,364h-16c-4.418,0-8,3.582-8,8s3.582,8,8,8h16c4.418,0,8-3.582,8-8S436.418,364,432,364z"/>
	<path d="M432,404h-16c-4.418,0-8,3.582-8,8s3.582,8,8,8h16c4.418,0,8-3.582,8-8S436.418,404,432,404z"/>
	<path d="M96,204H80c-4.418,0-8,3.582-8,8s3.582,8,8,8h16c4.418,0,8-3.582,8-8S100.418,204,96,204z"/>
	<path d="M96,244H80c-4.418,0-8,3.582-8,8s3.582,8,8,8h16c4.418,0,8-3.582,8-8S100.418,244,96,244z"/>
	<path d="M96,284H80c-4.418,0-8,3.582-8,8s3.582,8,8,8h16c4.418,0,8-3.582,8-8S100.418,284,96,284z"/>
	<path d="M96,324H80c-4.418,0-8,3.582-8,8s3.582,8,8,8h16c4.418,0,8-3.582,8-8S100.418,324,96,324z"/>
	<path d="M96,364H80c-4.418,0-8,3.582-8,8s3.582,8,8,8h16c4.418,0,8-3.582,8-8S100.418,364,96,364z"/>
	<path d="M96,404H80c-4.418,0-8,3.582-8,8s3.582,8,8,8h16c4.418,0,8-3.582,8-8S100.418,404,96,404z"/>
</g>
<g>
</g>
<g>
</g>
<g>
</g>
<g>
</g>
<g>
</g>
<g>
</g>
<g>
</g>
<g>
</g>
<g>
</g>
<g>
</g>
<g>
</g>
<g>
</g>
<g>
</g>
<g>
</g>
<g>
</g>
</svg>
