<?xml version="1.0" encoding="iso-8859-1"?>
<!-- Generator: Adobe Illustrator 17.1.0, SVG Export Plug-In . SVG Version: 6.00 Build 0)  -->
<!DOCTYPE svg PUBLIC "-//W3C//DTD SVG 1.1//EN" "http://www.w3.org/Graphics/SVG/1.1/DTD/svg11.dtd">
<svg version="1.1" id="Capa_1" xmlns="http://www.w3.org/2000/svg" xmlns:xlink="http://www.w3.org/1999/xlink" x="0px" y="0px"
	 viewBox="0 0 512 512" style="enable-background:new 0 0 512 512;" xml:space="preserve">
<g>
	<path d="M472,60h-8V44c0-13.234-10.766-24-24-24s-24,10.766-24,24v16H96V44c0-13.234-10.766-24-24-24S48,30.766,48,44v16h-8
		C17.944,60,0,77.944,0,100v352c0,22.056,17.944,40,40,40h432c22.056,0,40-17.944,40-40V100C512,77.944,494.056,60,472,60z M432,44
		c0-4.411,3.589-8,8-8s8,3.589,8,8v23.981c0,0.007-0.001,0.013-0.001,0.019S448,68.013,448,68.019V92c0,4.411-3.589,8-8,8
		s-8-3.589-8-8V44z M72,36c4.411,0,8,3.589,8,8v48c0,4.411-3.589,8-8,8s-8-3.589-8-8V68.01c0-0.003,0-0.007,0-0.01s0-0.006,0-0.01
		V44C64,39.589,67.589,36,72,36z M472,476H40c-13.234,0-24-10.766-24-24V148h384c4.418,0,8-3.582,8-8s-3.582-8-8-8H16v-32
		c0-13.234,10.766-24,24-24h8v16c0,13.234,10.766,24,24,24s24-10.766,24-24V76h320v16c0,13.234,10.766,24,24,24s24-10.766,24-24V76
		h8c13.234,0,24,10.766,24,24v32h-16c-4.418,0-8,3.582-8,8s3.582,8,8,8h16v304C496,465.234,485.234,476,472,476z"/>
	<path d="M448,132h-16c-4.418,0-8,3.582-8,8s3.582,8,8,8h16c4.418,0,8-3.582,8-8S452.418,132,448,132z"/>
	<path d="M201.546,253.764l44.103-44.103c0.188-0.188,0.366-0.385,0.535-0.591c0.072-0.087,0.133-0.179,0.201-0.268
		c0.09-0.119,0.182-0.236,0.265-0.361c0.074-0.11,0.138-0.225,0.206-0.338c0.066-0.11,0.135-0.218,0.196-0.332
		c0.063-0.118,0.117-0.24,0.174-0.361c0.055-0.115,0.112-0.229,0.161-0.347s0.089-0.24,0.132-0.361
		c0.045-0.125,0.093-0.25,0.132-0.378c0.037-0.122,0.064-0.245,0.095-0.368c0.033-0.13,0.069-0.258,0.095-0.391
		c0.029-0.144,0.046-0.29,0.066-0.435c0.016-0.113,0.038-0.224,0.049-0.338c0.052-0.526,0.052-1.055,0-1.581
		c-0.011-0.114-0.033-0.225-0.049-0.338c-0.021-0.145-0.038-0.291-0.066-0.435c-0.026-0.132-0.063-0.261-0.095-0.391
		c-0.031-0.123-0.058-0.247-0.095-0.368c-0.039-0.128-0.087-0.252-0.132-0.378c-0.043-0.121-0.083-0.242-0.132-0.361
		s-0.107-0.232-0.161-0.347c-0.057-0.121-0.111-0.243-0.174-0.361c-0.061-0.114-0.13-0.222-0.196-0.332
		c-0.068-0.113-0.132-0.228-0.206-0.338c-0.083-0.124-0.175-0.241-0.265-0.361c-0.067-0.089-0.129-0.181-0.201-0.268
		c-0.335-0.409-0.71-0.784-1.119-1.119c-0.084-0.069-0.172-0.128-0.258-0.193c-0.123-0.093-0.243-0.187-0.371-0.273
		c-0.107-0.072-0.219-0.133-0.328-0.199c-0.114-0.068-0.225-0.14-0.343-0.203c-0.114-0.061-0.23-0.112-0.346-0.167
		c-0.121-0.057-0.24-0.118-0.364-0.169c-0.112-0.046-0.226-0.083-0.339-0.124c-0.133-0.048-0.264-0.099-0.4-0.14
		c-0.113-0.034-0.227-0.059-0.341-0.088c-0.139-0.035-0.276-0.074-0.418-0.102c-0.13-0.026-0.261-0.041-0.392-0.06
		c-0.127-0.019-0.253-0.043-0.382-0.055c-0.232-0.023-0.465-0.033-0.698-0.035c-0.03,0-0.059-0.004-0.089-0.004H152
		c-4.418,0-8,3.582-8,8s3.582,8,8,8h68.683l-42.343,42.343c-0.188,0.188-0.366,0.385-0.535,0.591
		c-0.072,0.087-0.133,0.179-0.201,0.268c-0.09,0.119-0.182,0.236-0.265,0.361c-0.074,0.11-0.138,0.225-0.206,0.338
		c-0.066,0.11-0.135,0.218-0.196,0.332c-0.063,0.118-0.116,0.239-0.173,0.359c-0.055,0.116-0.113,0.23-0.162,0.35
		c-0.049,0.118-0.088,0.238-0.131,0.358c-0.045,0.126-0.094,0.251-0.133,0.38c-0.037,0.122-0.064,0.245-0.095,0.368
		c-0.033,0.13-0.069,0.258-0.095,0.391c-0.029,0.144-0.046,0.29-0.066,0.435c-0.016,0.113-0.038,0.224-0.049,0.338
		c-0.052,0.526-0.052,1.055,0,1.581c0.011,0.114,0.033,0.225,0.049,0.338c0.021,0.145,0.038,0.291,0.066,0.435
		c0.026,0.132,0.063,0.261,0.095,0.391c0.031,0.123,0.058,0.247,0.095,0.368c0.039,0.129,0.088,0.254,0.133,0.38
		c0.043,0.12,0.082,0.24,0.131,0.358c0.049,0.119,0.107,0.233,0.162,0.35c0.057,0.12,0.11,0.241,0.173,0.359
		c0.061,0.114,0.13,0.222,0.196,0.332c0.068,0.113,0.132,0.228,0.206,0.338c0.083,0.124,0.175,0.241,0.265,0.361
		c0.067,0.089,0.129,0.181,0.201,0.268c0.335,0.409,0.71,0.784,1.119,1.119c0.084,0.069,0.172,0.128,0.258,0.193
		c0.123,0.093,0.243,0.187,0.371,0.273c0.108,0.072,0.22,0.134,0.33,0.2c0.113,0.068,0.224,0.139,0.341,0.201
		c0.115,0.062,0.234,0.114,0.351,0.169c0.119,0.056,0.236,0.115,0.358,0.166c0.115,0.047,0.232,0.085,0.348,0.127
		c0.13,0.047,0.258,0.097,0.391,0.137c0.117,0.035,0.236,0.061,0.354,0.091c0.134,0.034,0.267,0.072,0.404,0.099
		c0.139,0.028,0.279,0.044,0.419,0.064c0.118,0.017,0.234,0.04,0.354,0.051c0.262,0.026,0.526,0.04,0.789,0.04
		c39.701,0,72,32.299,72,72s-32.299,72-72,72c-18.959,0-36.856-7.307-50.394-20.575c-3.155-3.093-8.221-3.042-11.313,0.114
		c-3.093,3.155-3.042,8.22,0.114,11.313c16.546,16.217,38.42,25.148,61.593,25.148c48.523,0,88-39.477,88-88
		C271.993,297.489,241.688,261.922,201.546,253.764z"/>
	<path d="M351.96,203.213c-0.011-0.114-0.033-0.225-0.049-0.338c-0.021-0.145-0.038-0.291-0.066-0.435
		c-0.026-0.132-0.063-0.261-0.095-0.391c-0.031-0.123-0.058-0.247-0.095-0.368c-0.039-0.128-0.087-0.252-0.132-0.378
		c-0.043-0.121-0.083-0.242-0.132-0.361s-0.107-0.232-0.161-0.347c-0.057-0.121-0.111-0.243-0.174-0.361
		c-0.061-0.114-0.13-0.222-0.196-0.332c-0.068-0.113-0.132-0.228-0.206-0.338c-0.083-0.124-0.175-0.241-0.265-0.361
		c-0.067-0.089-0.129-0.181-0.201-0.268c-0.335-0.409-0.71-0.784-1.119-1.119c-0.084-0.069-0.172-0.128-0.258-0.193
		c-0.123-0.093-0.243-0.187-0.371-0.273c-0.107-0.072-0.219-0.133-0.328-0.199c-0.114-0.068-0.225-0.14-0.343-0.203
		c-0.114-0.061-0.23-0.112-0.346-0.167c-0.121-0.057-0.24-0.118-0.364-0.169c-0.112-0.046-0.226-0.083-0.339-0.124
		c-0.133-0.048-0.264-0.099-0.4-0.14c-0.113-0.034-0.227-0.059-0.341-0.088c-0.139-0.035-0.276-0.074-0.418-0.102
		c-0.13-0.026-0.261-0.041-0.392-0.06c-0.127-0.019-0.253-0.043-0.382-0.055c-0.232-0.023-0.465-0.033-0.698-0.035
		c-0.03,0-0.059-0.004-0.089-0.004s-0.059,0.004-0.089,0.004c-0.233,0.003-0.466,0.012-0.698,0.035
		c-0.129,0.012-0.255,0.036-0.382,0.055c-0.131,0.019-0.262,0.034-0.392,0.06c-0.141,0.028-0.279,0.066-0.418,0.102
		c-0.114,0.029-0.228,0.054-0.341,0.088c-0.136,0.041-0.267,0.092-0.4,0.14c-0.113,0.041-0.228,0.078-0.339,0.124
		c-0.124,0.051-0.243,0.112-0.364,0.169c-0.116,0.055-0.232,0.106-0.346,0.167c-0.117,0.063-0.229,0.134-0.343,0.203
		c-0.11,0.066-0.221,0.128-0.328,0.199c-0.128,0.086-0.249,0.18-0.371,0.273c-0.086,0.065-0.174,0.124-0.258,0.193
		c-0.206,0.169-0.404,0.347-0.592,0.535l-39.996,39.996c-3.125,3.124-3.125,8.189,0,11.313c1.562,1.562,3.609,2.343,5.657,2.343
		s4.095-0.781,5.657-2.343L336,223.317v196.687c0,4.418,3.582,8,8,8s8-3.582,8-8V204.006
		C352,203.741,351.986,203.477,351.96,203.213z"/>
</g>
<g>
</g>
<g>
</g>
<g>
</g>
<g>
</g>
<g>
</g>
<g>
</g>
<g>
</g>
<g>
</g>
<g>
</g>
<g>
</g>
<g>
</g>
<g>
</g>
<g>
</g>
<g>
</g>
<g>
</g>
</svg>
