<?xml version="1.0" encoding="iso-8859-1"?>
<!-- Generator: Adobe Illustrator 17.1.0, SVG Export Plug-In . SVG Version: 6.00 Build 0)  -->
<!DOCTYPE svg PUBLIC "-//W3C//DTD SVG 1.1//EN" "http://www.w3.org/Graphics/SVG/1.1/DTD/svg11.dtd">
<svg version="1.1" id="Capa_1" xmlns="http://www.w3.org/2000/svg" xmlns:xlink="http://www.w3.org/1999/xlink" x="0px" y="0px"
	 viewBox="0 0 512 512" style="enable-background:new 0 0 512 512;" xml:space="preserve">
<g>
	<path d="M472,40h-8V24c0-13.234-10.766-24-24-24s-24,10.766-24,24v16H96V24C96,10.766,85.234,0,72,0S48,10.766,48,24v16h-8
		C17.944,40,0,57.944,0,80v352c0,22.056,17.944,40,40,40h88c4.418,0,8-3.582,8-8s-3.582-8-8-8H40c-13.234,0-24-10.766-24-24V128h384
		c4.418,0,8-3.582,8-8s-3.582-8-8-8H16V80c0-13.234,10.766-24,24-24h8v16c0,13.234,10.766,24,24,24s24-10.766,24-24V56h320v16
		c0,13.234,10.766,24,24,24s24-10.766,24-24V56h8c13.234,0,24,10.766,24,24v32h-16c-4.418,0-8,3.582-8,8s3.582,8,8,8h16v304
		c0,13.234-10.766,24-24,24h-88.002c-4.418,0-8,3.582-8,8s3.582,8,8,8H472c22.056,0,40-17.944,40-40V80
		C512,57.944,494.056,40,472,40z M80,72c0,4.411-3.589,8-8,8s-8-3.589-8-8V48.01c0-0.003,0-0.007,0-0.01s0-0.006,0-0.01V24
		c0-4.411,3.589-8,8-8s8,3.589,8,8V72z M440,80c-4.411,0-8-3.589-8-8V24c0-4.411,3.589-8,8-8s8,3.589,8,8v23.981
		c0,0.007-0.001,0.013-0.001,0.019S448,48.013,448,48.019V72C448,76.411,444.411,80,440,80z"/>
	<path d="M448,128c4.418,0,8-3.582,8-8s-3.582-8-8-8h-16c-4.418,0-8,3.582-8,8s3.582,8,8,8H448z"/>
	<path d="M248,200h16c4.418,0,8-3.582,8-8s-3.582-8-8-8h-16c-4.418,0-8,3.582-8,8S243.582,200,248,200z"/>
	<path d="M248,240h16c4.418,0,8-3.582,8-8s-3.582-8-8-8h-16c-4.418,0-8,3.582-8,8S243.582,240,248,240z"/>
	<path d="M304,200h16c4.418,0,8-3.582,8-8s-3.582-8-8-8h-16c-4.418,0-8,3.582-8,8S299.582,200,304,200z"/>
	<path d="M304,240h16c4.418,0,8-3.582,8-8s-3.582-8-8-8h-16c-4.418,0-8,3.582-8,8S299.582,240,304,240z"/>
	<path d="M192,200h16c4.418,0,8-3.582,8-8s-3.582-8-8-8h-16c-4.418,0-8,3.582-8,8S187.582,200,192,200z"/>
	<path d="M192,240h16c4.418,0,8-3.582,8-8s-3.582-8-8-8h-16c-4.418,0-8,3.582-8,8S187.582,240,192,240z"/>
	<path d="M136,200h16c4.418,0,8-3.582,8-8s-3.582-8-8-8h-16c-4.418,0-8,3.582-8,8S131.582,200,136,200z"/>
	<path d="M136,240h16c4.418,0,8-3.582,8-8s-3.582-8-8-8h-16c-4.418,0-8,3.582-8,8S131.582,240,136,240z"/>
	<path d="M136,280h16c4.418,0,8-3.582,8-8s-3.582-8-8-8h-16c-4.418,0-8,3.582-8,8S131.582,280,136,280z"/>
	<path d="M130.34,317.66c1.49,1.49,3.56,2.34,5.66,2.34c2.11,0,4.17-0.85,5.66-2.34c1.49-1.49,2.34-3.56,2.34-5.66
		s-0.85-4.17-2.34-5.66c-1.49-1.49-3.55-2.34-5.66-2.34c-2.11,0-4.17,0.85-5.66,2.34c-1.49,1.49-2.34,3.55-2.34,5.66
		C128,314.11,128.85,316.17,130.34,317.66z"/>
	<path d="M360,200h16c4.418,0,8-3.582,8-8s-3.582-8-8-8h-16c-4.418,0-8,3.582-8,8S355.582,200,360,200z"/>
	<path d="M360,240h16c4.418,0,8-3.582,8-8s-3.582-8-8-8h-16c-4.418,0-8,3.582-8,8S355.582,240,360,240z"/>
	<path d="M360,280h16c4.418,0,8-3.582,8-8s-3.582-8-8-8h-16c-4.418,0-8,3.582-8,8S355.582,280,360,280z"/>
	<path d="M370.34,306.34c-1.49,1.49-2.34,3.55-2.34,5.66c0,2.11,0.85,4.17,2.34,5.66c1.49,1.49,3.55,2.34,5.66,2.34
		c2.11,0,4.17-0.85,5.66-2.34c1.49-1.49,2.34-3.56,2.34-5.66c0-2.11-0.85-4.17-2.34-5.66c-1.49-1.49-3.56-2.34-5.66-2.34
		C373.89,304,371.83,304.85,370.34,306.34z"/>
	<path d="M408,192c0,4.418,3.582,8,8,8h16c4.418,0,8-3.582,8-8s-3.582-8-8-8h-16C411.582,184,408,187.582,408,192z"/>
	<path d="M416,240h16c4.418,0,8-3.582,8-8s-3.582-8-8-8h-16c-4.418,0-8,3.582-8,8S411.582,240,416,240z"/>
	<path d="M416,280h16c4.418,0,8-3.582,8-8s-3.582-8-8-8h-16c-4.418,0-8,3.582-8,8S411.582,280,416,280z"/>
	<path d="M416,320h16c4.418,0,8-3.582,8-8s-3.582-8-8-8h-16c-4.418,0-8,3.582-8,8S411.582,320,416,320z"/>
	<path d="M416,360h16c4.418,0,8-3.582,8-8s-3.582-8-8-8h-16c-4.418,0-8,3.582-8,8S411.582,360,416,360z"/>
	<path d="M416,400h16c4.418,0,8-3.582,8-8s-3.582-8-8-8h-16c-4.418,0-8,3.582-8,8S411.582,400,416,400z"/>
	<path d="M96,184H80c-4.418,0-8,3.582-8,8s3.582,8,8,8h16c4.418,0,8-3.582,8-8S100.418,184,96,184z"/>
	<path d="M96,224H80c-4.418,0-8,3.582-8,8s3.582,8,8,8h16c4.418,0,8-3.582,8-8S100.418,224,96,224z"/>
	<path d="M96,264H80c-4.418,0-8,3.582-8,8s3.582,8,8,8h16c4.418,0,8-3.582,8-8S100.418,264,96,264z"/>
	<path d="M96,304H80c-4.418,0-8,3.582-8,8s3.582,8,8,8h16c4.418,0,8-3.582,8-8S100.418,304,96,304z"/>
	<path d="M96,344H80c-4.418,0-8,3.582-8,8s3.582,8,8,8h16c4.418,0,8-3.582,8-8S100.418,344,96,344z"/>
	<path d="M96,384H80c-4.418,0-8,3.582-8,8s3.582,8,8,8h16c4.418,0,8-3.582,8-8S100.418,384,96,384z"/>
	<path d="M256,272c-66.168,0-120,53.832-120,120s53.832,120,120,120s120-53.832,120-120S322.168,272,256,272z M264,495.695V488
		c0-4.418-3.582-8-8-8s-8,3.582-8,8v7.695c-50.982-3.896-91.799-44.714-95.695-95.695H160c4.418,0,8-3.582,8-8s-3.582-8-8-8h-7.695
		c3.896-50.982,44.714-91.799,95.695-95.695V296c0,4.418,3.582,8,8,8s8-3.582,8-8v-7.695c50.982,3.896,91.799,44.714,95.695,95.695
		H352c-4.418,0-8,3.582-8,8s3.582,8,8,8h7.695C355.799,450.982,314.982,491.799,264,495.695z"/>
	<path d="M320,384h-41.376c-2.414-6.807-7.816-12.209-14.624-14.624V328c0-4.418-3.582-8-8-8s-8,3.582-8,8v41.376
		c-9.311,3.302-16,12.195-16,22.624c0,13.234,10.766,24,24,24c10.429,0,19.322-6.689,22.624-16H320c4.418,0,8-3.582,8-8
		S324.418,384,320,384z M256,400c-4.411,0-8-3.589-8-8s3.589-8,8-8s8,3.589,8,8S260.411,400,256,400z"/>
</g>
<g>
</g>
<g>
</g>
<g>
</g>
<g>
</g>
<g>
</g>
<g>
</g>
<g>
</g>
<g>
</g>
<g>
</g>
<g>
</g>
<g>
</g>
<g>
</g>
<g>
</g>
<g>
</g>
<g>
</g>
</svg>
