<?xml version="1.0" encoding="iso-8859-1"?>
<!-- Generator: Adobe Illustrator 17.1.0, SVG Export Plug-In . SVG Version: 6.00 Build 0)  -->
<!DOCTYPE svg PUBLIC "-//W3C//DTD SVG 1.1//EN" "http://www.w3.org/Graphics/SVG/1.1/DTD/svg11.dtd">
<svg version="1.1" id="Capa_1" xmlns="http://www.w3.org/2000/svg" xmlns:xlink="http://www.w3.org/1999/xlink" x="0px" y="0px"
	 viewBox="0 0 512 512" style="enable-background:new 0 0 512 512;" xml:space="preserve">
<path d="M504,124H92.32L77.696,95.224C73.771,86.24,65.604,68,40,68H8c-4.418,0-8,3.582-8,8s3.582,8,8,8h32
	c12.964,0,17.959,6.008,23.126,17.841c0.063,0.143,0.129,0.283,0.2,0.422l57.186,112.532c0.22,0.589,0.499,1.148,0.844,1.661
	l48.964,96.354c4.046,8.937,13.664,16.229,23.567,18.467l-32.004,50.293C158.768,380.555,155.448,380,152,380
	c-17.645,0-32,14.355-32,32s14.355,32,32,32c14.908,0,27.466-10.248,31.004-24.068c0.327,0.041,0.658,0.068,0.996,0.068h249.013
	c3.561,13.786,16.104,24,30.987,24c17.645,0,32-14.355,32-32s-14.355-32-32-32c-14.884,0-27.426,10.214-30.987,24H184
	c-0.338,0-0.669,0.028-0.996,0.068c-1.351-5.278-4.022-10.03-7.632-13.894L212.392,332H472c13.234,0,24-10.767,24-24V140h8
	c4.418,0,8-3.582,8-8S508.418,124,504,124z M464,396c8.822,0,16,7.178,16,16s-7.178,16-16,16s-16-7.178-16-16S455.178,396,464,396z
	 M136,188h24v32h-18.896L136,209.956V188z M216,188h24v32h-24V188z M200,220h-24v-32h24V220z M256,188h24v32h-24V188z M320,220h-24
	v-32h24V220z M336,188h24v32h-24V188z M280,236v32h-24v-32H280z M296,236h24v32h-24V236z M336,236h24v32h-24V236z M376,236h24v32
	h-24V236z M376,220v-32h24v32H376z M376,172v-32h24v32H376z M360,172h-24v-32h24V172z M320,172h-24v-32h24V172z M280,172h-24v-32h24
	V172z M240,172h-24v-32h24V172z M200,172h-24v-32h24V172z M160,172h-24v-32h24V172z M160,236v21.183L149.235,236H160z M176,236h24
	v32h-24V236z M216,236h24v32h-24V236z M240,284v32h-24v-32H240z M256,284h24v32h-24V284z M296,284h24v32h-24V284z M336,284h24v32
	h-24V284z M376,284h24v32h-24V284z M416,284h24v32h-24V284z M416,268v-32h24v32H416z M456,236h24v32h-24V236z M480,220h-24v-32h24
	V220z M440,220h-24v-32h24V220z M416,172v-32h24v32H416z M120,140v32h-3.288l-16.261-32H120z M184.861,306.132
	c-0.059-0.133-0.121-0.265-0.188-0.395L176,288.669V284h24v32C194.355,316,187.14,311.297,184.861,306.132z M152,428
	c-8.822,0-16-7.178-16-16s7.178-16,16-16s16,7.178,16,16S160.822,428,152,428z M472,316h-16v-32h24v24
	C480,312.411,476.411,316,472,316z M480,172h-24v-32h24V172z"/>
<g>
</g>
<g>
</g>
<g>
</g>
<g>
</g>
<g>
</g>
<g>
</g>
<g>
</g>
<g>
</g>
<g>
</g>
<g>
</g>
<g>
</g>
<g>
</g>
<g>
</g>
<g>
</g>
<g>
</g>
</svg>
