<?xml version="1.0" encoding="iso-8859-1"?>
<!-- Generator: Adobe Illustrator 17.1.0, SVG Export Plug-In . SVG Version: 6.00 Build 0)  -->
<!DOCTYPE svg PUBLIC "-//W3C//DTD SVG 1.1//EN" "http://www.w3.org/Graphics/SVG/1.1/DTD/svg11.dtd">
<svg version="1.1" id="Capa_1" xmlns="http://www.w3.org/2000/svg" xmlns:xlink="http://www.w3.org/1999/xlink" x="0px" y="0px"
	 viewBox="0 0 512 512" style="enable-background:new 0 0 512 512;" xml:space="preserve">
<g>
	<path d="M352,352c-4.418,0-8,3.582-8,8s3.582,8,8,8c8.822,0,16,7.178,16,16c0,4.418,3.582,8,8,8s8-3.582,8-8
		C384,366.355,369.645,352,352,352z"/>
	<path d="M424,0H88C74.767,0,64,10.767,64,24v432c0,13.233,10.767,24,24,24h176.086c0.105,0.78,0.313,1.551,0.651,2.283
		c1.094,2.367,3.272,4.053,5.839,4.517l20.76,3.755l18.333,19c1.517,1.572,3.6,2.445,5.756,2.445c0.329,0,0.661-0.021,0.991-0.062
		c2.5-0.312,4.706-1.783,5.955-3.969L338.355,480h27.108l15.828,27.943c1.244,2.196,3.451,3.676,5.955,3.994
		c0.336,0.042,0.672,0.063,1.006,0.063c2.157,0,4.239-0.873,5.756-2.445l18.333-19l20.76-3.755c2.561-0.463,4.736-2.143,5.832-4.503
		c1.087-2.341,0.974-5.059-0.295-7.304C444.479,470.476,448,463.45,448,456V24C448,10.767,437.233,0,424,0z M80,456V24
		c0-4.411,3.589-8,8-8h336c4.411,0,8,3.589,8,8v432c0,1.716-0.574,3.363-1.574,4.719l-24.429-42.43
		C412.319,408.369,416,396.61,416,384c0-35.29-28.71-64-64-64s-64,28.71-64,64c0,12.602,3.676,24.355,9.991,34.271L271.422,464H88
		C83.589,464,80,460.411,80,456z M352,432c-26.467,0-48-21.533-48-48s21.533-48,48-48s48,21.533,48,48S378.467,432,352,432z
		 M313.774,490.767l-12.717-13.179c-1.166-1.208-2.681-2.018-4.333-2.317l-12.077-2.185l24.281-41.791
		c8.315,7.58,18.63,13,30.049,15.37L313.774,490.767z M347.499,464l4.47-7.823L356.4,464H347.499z M406.955,475.271
		c-1.652,0.299-3.167,1.109-4.333,2.317l-12.688,13.148l-24.958-44.061c11.423-2.362,21.743-7.776,30.065-15.351l24.039,41.753
		L406.955,475.271z"/>
	<path d="M320,120c4.418,0,8-3.582,8-8s-3.582-8-8-8H192c-4.418,0-8,3.582-8,8s3.582,8,8,8H320z"/>
	<path d="M360,144H152c-4.418,0-8,3.582-8,8s3.582,8,8,8h208c4.418,0,8-3.582,8-8S364.418,144,360,144z"/>
	<path d="M176,224h8c4.418,0,8-3.582,8-8s-3.582-8-8-8h-8c-4.418,0-8,3.582-8,8S171.582,224,176,224z"/>
	<path d="M176,264h8c4.418,0,8-3.582,8-8s-3.582-8-8-8h-8c-4.418,0-8,3.582-8,8S171.582,264,176,264z"/>
	<path d="M176,304h8c4.418,0,8-3.582,8-8s-3.582-8-8-8h-8c-4.418,0-8,3.582-8,8S171.582,304,176,304z"/>
	<path d="M336,208H216c-4.418,0-8,3.582-8,8s3.582,8,8,8h120c4.418,0,8-3.582,8-8S340.418,208,336,208z"/>
	<path d="M336,248H216c-4.418,0-8,3.582-8,8s3.582,8,8,8h120c4.418,0,8-3.582,8-8S340.418,248,336,248z"/>
	<path d="M336,288H216c-4.418,0-8,3.582-8,8s3.582,8,8,8h120c4.418,0,8-3.582,8-8S340.418,288,336,288z"/>
	<path d="M144,376c0,4.418,3.582,8,8,8h72c4.418,0,8-3.582,8-8s-3.582-8-8-8h-72C147.582,368,144,371.582,144,376z"/>
	<path d="M256,432H143.196c-3.19-15.649-15.547-28.006-31.196-31.196V79.196c15.649-3.19,28.006-15.547,31.196-31.196h225.607
		c3.19,15.649,15.547,28.006,31.196,31.196V320c0,4.418,3.582,8,8,8s8-3.582,8-8V72c0-4.418-3.582-8-8-8c-13.234,0-24-10.766-24-24
		c0-4.418-3.582-8-8-8H136c-4.418,0-8,3.582-8,8c0,13.234-10.766,24-24,24c-4.418,0-8,3.582-8,8v336c0,4.418,3.582,8,8,8
		c13.234,0,24,10.766,24,24c0,4.418,3.582,8,8,8h120c4.418,0,8-3.582,8-8S260.418,432,256,432z"/>
</g>
<g>
</g>
<g>
</g>
<g>
</g>
<g>
</g>
<g>
</g>
<g>
</g>
<g>
</g>
<g>
</g>
<g>
</g>
<g>
</g>
<g>
</g>
<g>
</g>
<g>
</g>
<g>
</g>
<g>
</g>
</svg>
