<?xml version="1.0" encoding="iso-8859-1"?>
<!-- Generator: Adobe Illustrator 17.1.0, SVG Export Plug-In . SVG Version: 6.00 Build 0)  -->
<!DOCTYPE svg PUBLIC "-//W3C//DTD SVG 1.1//EN" "http://www.w3.org/Graphics/SVG/1.1/DTD/svg11.dtd">
<svg version="1.1" id="Capa_1" xmlns="http://www.w3.org/2000/svg" xmlns:xlink="http://www.w3.org/1999/xlink" x="0px" y="0px"
	 viewBox="0 0 511.987 511.987" style="enable-background:new 0 0 511.987 511.987;" xml:space="preserve">
<g>
	<path d="M416,227.994c-4.418,0-8,3.582-8,8v176c0,4.411-3.589,8-8,8H24c-4.411,0-8-3.589-8-8v-176c0-4.411,3.589-8,8-8h279.997
		c4.418,0,8-3.582,8-8s-3.582-8-8-8H24c-13.234,0-24,10.766-24,24v176c0,13.234,10.766,24,24,24h376c13.234,0,24-10.766,24-24v-176
		C424,231.575,420.418,227.994,416,227.994z"/>
	<path d="M504.973,83.028c-4.53-4.536-10.558-7.034-16.973-7.034s-12.442,2.498-16.969,7.031L275.718,278.337
		c-0.735,0.735-1.317,1.603-1.717,2.554c-0.481,1.122-11.53,26.55-17.338,39.914c-1.31,3.013-0.644,6.521,1.679,8.845
		c1.532,1.532,3.579,2.344,5.66,2.344c1.074,0,2.158-0.216,3.185-0.662c40.748-17.694,40.748-17.694,41.447-18.191
		c0.365-0.259,0.707-0.548,1.023-0.865l195.313-195.313C514.326,107.606,514.326,92.381,504.973,83.028z M488,91.994
		c2.137,0,4.145,0.832,5.656,2.344c3.119,3.119,3.119,8.193,0,11.312l-2.343,2.343l-11.312-11.312l2.347-2.347
		C483.855,92.825,485.863,91.994,488,91.994z M299.416,299.889c-3.152,1.37-11.338,4.926-19.993,8.685
		c5.172-11.905,7.542-17.371,8.651-19.965l180.613-180.614l11.312,11.312L299.416,299.889z"/>
	<path d="M136,387.994c0,4.418,3.582,8,8,8h224c4.418,0,8-3.582,8-8s-3.582-8-8-8H144C139.582,379.994,136,383.575,136,387.994z"/>
	<path d="M336,363.994h32c4.418,0,8-3.582,8-8s-3.582-8-8-8h-32c-4.418,0-8,3.582-8,8S331.582,363.994,336,363.994z"/>
	<path d="M304,347.994H184c-4.418,0-8,3.582-8,8s3.582,8,8,8h120c4.418,0,8-3.582,8-8S308.418,347.994,304,347.994z"/>
	<path d="M336,331.994h32c4.418,0,8-3.582,8-8s-3.582-8-8-8h-32c-4.418,0-8,3.582-8,8S331.582,331.994,336,331.994z"/>
	<path d="M184,331.994h40c4.418,0,8-3.582,8-8s-3.582-8-8-8h-40c-4.418,0-8,3.582-8,8S179.582,331.994,184,331.994z"/>
	<path d="M264,259.994c0-4.418-3.582-8-8-8H144c-4.418,0-8,3.582-8,8s3.582,8,8,8h112C260.418,267.994,264,264.412,264,259.994z"/>
	<path d="M80,283.994c13.009,0,24,7.327,24,16c0,4.418,3.582,8,8,8s8-3.582,8-8c0-15.454-13.764-28.383-32-31.356v-8.644
		c0-4.418-3.582-8-8-8s-8,3.582-8,8v8.644c-18.236,2.973-32,15.902-32,31.356c0,17.645,17.944,32,40,32c13.009,0,24,7.327,24,16
		s-10.991,16-24,16s-24-7.327-24-16c0-4.418-3.582-8-8-8s-8,3.582-8,8c0,15.454,13.764,28.383,32,31.356v8.644c0,4.418,3.582,8,8,8
		s8-3.582,8-8v-8.644c18.236-2.973,32-15.902,32-31.356c0-17.645-17.944-32-40-32c-13.009,0-24-7.327-24-16
		S66.991,283.994,80,283.994z"/>
</g>
<g>
</g>
<g>
</g>
<g>
</g>
<g>
</g>
<g>
</g>
<g>
</g>
<g>
</g>
<g>
</g>
<g>
</g>
<g>
</g>
<g>
</g>
<g>
</g>
<g>
</g>
<g>
</g>
<g>
</g>
</svg>
