<?xml version="1.0" encoding="iso-8859-1"?>
<!-- Generator: Adobe Illustrator 17.1.0, SVG Export Plug-In . SVG Version: 6.00 Build 0)  -->
<!DOCTYPE svg PUBLIC "-//W3C//DTD SVG 1.1//EN" "http://www.w3.org/Graphics/SVG/1.1/DTD/svg11.dtd">
<svg version="1.1" id="Capa_1" xmlns="http://www.w3.org/2000/svg" xmlns:xlink="http://www.w3.org/1999/xlink" x="0px" y="0px"
	 viewBox="0 0 512 512" style="enable-background:new 0 0 512 512;" xml:space="preserve">
<path d="M470.507,69.284C443.754,42.526,408.18,27.79,370.338,27.79c-37.844,0-73.419,14.736-100.172,41.493L31.146,308.3
	c-0.391,0.345-0.776,0.706-1.149,1.079C10.653,328.718,0,354.436,0,381.793s10.653,53.074,29.996,72.412
	c19.345,19.349,45.062,30.005,72.414,30.005c27.354,0,53.073-10.656,72.417-30.004l166.618-166.617
	c11.922-11.922,18.487-27.771,18.487-44.628c0-16.85-6.564-32.695-18.483-44.619c-11.919-11.92-27.768-18.484-44.627-18.484
	c-16.862,0-32.709,6.564-44.624,18.483l-92.958,92.958c-4.536,4.535-7.034,10.563-7.034,16.975s2.498,12.439,7.029,16.971
	c4.532,4.537,10.562,7.036,16.978,7.036c6.417,0,12.446-2.499,16.975-7.032l92.958-92.958c5.582-5.582,15.759-5.58,21.35,0
	c5.886,5.886,5.886,15.463,0,21.349L140.878,420.257c-10.278,10.278-23.939,15.938-38.468,15.938
	c-14.526,0-28.187-5.66-38.464-15.938c-10.273-10.277-15.932-23.938-15.932-38.465c0-14.058,5.326-27.367,15.002-37.514
	c0.328-0.294,0.651-0.6,0.963-0.912l240.135-240.135c17.691-17.688,41.21-27.429,66.224-27.429c25.011,0,48.529,9.741,66.219,27.429
	c17.688,17.688,27.428,41.204,27.428,66.219c0,23.558-8.734,45.995-24.612,63.28c-1.134,0.803-2.185,1.689-3.121,2.634
	L320.146,351.472c-9.36,9.36-9.36,24.59-0.003,33.946c4.532,4.537,10.562,7.036,16.978,7.036c6.416,0,12.445-2.499,16.974-7.032
	l112.894-112.895c1.27-0.86,2.452-1.838,3.517-2.907C497.264,242.87,512,207.297,512,169.451S497.264,96.032,470.507,69.284z
	 M459.179,258.318c-0.438,0.439-0.912,0.814-1.45,1.146c-0.53,0.326-1.02,0.714-1.459,1.153L342.778,374.111
	c-1.509,1.511-3.519,2.343-5.657,2.343c-2.139,0-4.148-0.832-5.661-2.347c-3.122-3.121-3.122-8.2,0-11.321l116.132-116.132
	c0.394-0.397,0.835-0.751,1.35-1.081c0.556-0.357,1.066-0.782,1.518-1.265c19.041-20.347,29.527-46.932,29.527-74.857
	c0-29.288-11.405-56.823-32.115-77.533c-20.713-20.709-48.248-32.114-77.532-32.114c-29.287,0-56.823,11.405-77.537,32.114
	L52.667,332.053c-0.136,0.136-0.276,0.269-0.419,0.392c-0.184,0.159-0.361,0.327-0.53,0.502
	c-12.706,13.172-19.703,30.52-19.703,48.847c0,18.8,7.322,36.478,20.617,49.778c13.3,13.3,30.979,20.624,49.778,20.624
	c18.803,0,36.482-7.324,49.782-20.624L318.81,264.953c12.125-12.125,12.125-31.853-0.005-43.982
	c-11.927-11.905-32.063-11.901-43.972,0.005l-92.962,92.962c-1.509,1.511-3.518,2.343-5.657,2.343c-2.139,0-4.148-0.832-5.661-2.347
	c-1.513-1.513-2.347-3.523-2.347-5.66c0-2.138,0.833-4.147,2.347-5.66l92.959-92.96c8.893-8.896,20.722-13.796,33.309-13.796
	c12.585,0,24.417,4.9,33.313,13.797c8.897,8.9,13.798,20.729,13.798,33.307c0,12.583-4.901,24.414-13.801,33.313L163.512,442.893
	c-16.322,16.326-38.022,25.317-61.103,25.317c-23.078,0-44.776-8.991-61.101-25.318C24.988,426.574,16,404.876,16,381.793
	s8.988-44.782,25.305-61.096c0.163-0.162,0.333-0.32,0.508-0.47c0.155-0.134,0.306-0.272,0.45-0.417L281.48,80.597
	c23.731-23.735,55.288-36.807,88.858-36.807c33.567,0,65.123,13.071,88.855,36.809C482.929,104.325,496,135.881,496,169.451
	S482.929,234.577,459.179,258.318z"/>
<g>
</g>
<g>
</g>
<g>
</g>
<g>
</g>
<g>
</g>
<g>
</g>
<g>
</g>
<g>
</g>
<g>
</g>
<g>
</g>
<g>
</g>
<g>
</g>
<g>
</g>
<g>
</g>
<g>
</g>
</svg>
