<?xml version="1.0" encoding="iso-8859-1"?>
<!-- Generator: Adobe Illustrator 17.1.0, SVG Export Plug-In . SVG Version: 6.00 Build 0)  -->
<!DOCTYPE svg PUBLIC "-//W3C//DTD SVG 1.1//EN" "http://www.w3.org/Graphics/SVG/1.1/DTD/svg11.dtd">
<svg version="1.1" id="Capa_1" xmlns="http://www.w3.org/2000/svg" xmlns:xlink="http://www.w3.org/1999/xlink" x="0px" y="0px"
	 viewBox="0 0 512 512" style="enable-background:new 0 0 512 512;" xml:space="preserve">
<g>
	<path d="M488,224c0-13.233-10.766-24-24-24c-7.005,0-13.318,3.018-17.709,7.821l-158.639-67.117
		c0.227-1.536,0.349-3.106,0.349-4.704c0-14.883-10.214-27.426-24-30.987v-9.9c9.324-2.589,16.393-10.637,17.401-20.725
		l6.559-65.592c0.225-2.249-0.512-4.488-2.029-6.164S282.26,0,280,0h-48c-2.26,0-4.415,0.956-5.932,2.632s-2.253,3.915-2.029,6.164
		l6.559,65.592c1.009,10.088,8.077,18.136,17.401,20.725V112c0,4.418,3.582,8,8,8c8.152,0,14.887,6.133,15.865,14.025l-12.748-5.394
		c-4.067-1.718-8.763,0.182-10.485,4.251c-1.722,4.069,0.182,8.764,4.25,10.485l12.735,5.388C262.937,150.783,259.612,152,256,152
		c-8.822,0-16-7.178-16-16c0-4.418-3.582-8-8-8s-8,3.582-8,8c0,1.598,0.121,3.168,0.349,4.705L65.709,207.821
		C61.318,203.018,55.005,200,48,200c-13.234,0-24,10.767-24,24c-13.234,0-24,10.767-24,24v240c0,13.233,10.766,24,24,24h464
		c13.234,0,24-10.767,24-24V248C512,234.767,501.234,224,488,224z M240.84,16h30.32l-5.68,56.796
		C265.07,76.903,261.647,80,257.52,80h-3.04c-4.127,0-7.55-3.097-7.96-7.204L240.84,16z M464,216c4.411,0,8,3.589,8,8h-16
		C456,219.589,459.589,216,464,216z M230.601,155.433C236.455,163.066,245.66,168,256,168s19.546-4.934,25.399-12.567
		l158.648,67.121c-0.029,0.479-0.048,0.96-0.048,1.447H72c0-0.486-0.019-0.968-0.048-1.447L230.601,155.433z M48,216
		c4.411,0,8,3.589,8,8H40C40,219.589,43.589,216,48,216z M496,488c0,4.411-3.589,8-8,8H24c-4.411,0-8-3.589-8-8V248
		c0-4.411,3.589-8,8-8h464c4.411,0,8,3.589,8,8V488z"/>
	<path d="M256,272c-4.418,0-8,3.582-8,8v176c0,4.418,3.582,8,8,8s8-3.582,8-8V280C264,275.582,260.418,272,256,272z"/>
	<path d="M216,272c-4.418,0-8,3.582-8,8v176c0,4.418,3.582,8,8,8s8-3.582,8-8V280C224,275.582,220.418,272,216,272z"/>
	<path d="M176,272c-4.418,0-8,3.582-8,8v176c0,4.418,3.582,8,8,8s8-3.582,8-8V280C184,275.582,180.418,272,176,272z"/>
	<path d="M136,272c-4.418,0-8,3.582-8,8v176c0,4.418,3.582,8,8,8s8-3.582,8-8V280C144,275.582,140.418,272,136,272z"/>
	<path d="M416,272c-4.418,0-8,3.582-8,8v176c0,4.418,3.582,8,8,8s8-3.582,8-8V280C424,275.582,420.418,272,416,272z"/>
	<path d="M456,272c-4.418,0-8,3.582-8,8v176c0,4.418,3.582,8,8,8s8-3.582,8-8V280C464,275.582,460.418,272,456,272z"/>
	<path d="M96,272c-4.418,0-8,3.582-8,8v176c0,4.418,3.582,8,8,8s8-3.582,8-8V280C104,275.582,100.418,272,96,272z"/>
	<path d="M56,272c-4.418,0-8,3.582-8,8v176c0,4.418,3.582,8,8,8s8-3.582,8-8V280C64,275.582,60.418,272,56,272z"/>
	<path d="M376,272c-4.418,0-8,3.582-8,8v176c0,4.418,3.582,8,8,8s8-3.582,8-8V280C384,275.582,380.418,272,376,272z"/>
	<path d="M336,272c-4.418,0-8,3.582-8,8v176c0,4.418,3.582,8,8,8s8-3.582,8-8V280C344,275.582,340.418,272,336,272z"/>
	<path d="M296,272c-4.418,0-8,3.582-8,8v176c0,4.418,3.582,8,8,8s8-3.582,8-8V280C304,275.582,300.418,272,296,272z"/>
</g>
<g>
</g>
<g>
</g>
<g>
</g>
<g>
</g>
<g>
</g>
<g>
</g>
<g>
</g>
<g>
</g>
<g>
</g>
<g>
</g>
<g>
</g>
<g>
</g>
<g>
</g>
<g>
</g>
<g>
</g>
</svg>
