<?xml version="1.0" encoding="iso-8859-1"?>
<!-- Generator: Adobe Illustrator 17.1.0, SVG Export Plug-In . SVG Version: 6.00 Build 0)  -->
<!DOCTYPE svg PUBLIC "-//W3C//DTD SVG 1.1//EN" "http://www.w3.org/Graphics/SVG/1.1/DTD/svg11.dtd">
<svg version="1.1" id="Capa_1" xmlns="http://www.w3.org/2000/svg" xmlns:xlink="http://www.w3.org/1999/xlink" x="0px" y="0px"
	 viewBox="0 0 512 512" style="enable-background:new 0 0 512 512;" xml:space="preserve">
<g>
	<path d="M480,236H376v-16h48c17.645,0,32-14.355,32-32V92c0-17.645-14.355-32-32-32H264c-17.645,0-32,14.355-32,32v96
		c0,17.645,14.355,32,32,32h48v16H32c-17.645,0-32,14.355-32,32v176c0,4.418,3.582,8,8,8s8-3.582,8-8V268c0-8.822,7.178-16,16-16
		h448c8.822,0,16,7.178,16,16v176c0,4.418,3.582,8,8,8s8-3.582,8-8V268C512,250.355,497.645,236,480,236z M264,76h160
		c8.822,0,16,7.178,16,16v80H248V92C248,83.178,255.178,76,264,76z M248,188h192c0,8.822-7.178,16-16,16H264
		C255.178,204,248,196.822,248,188z M328,220h32v16h-32V220z"/>
	<path d="M184,268H40c-4.418,0-8,3.582-8,8v168c0,4.418,3.582,8,8,8s8-3.582,8-8v-16h128v16c0,4.418,3.582,8,8,8s8-3.582,8-8V276
		C192,271.582,188.418,268,184,268z M48,332h128v32H48V332z M176,284v32H48v-32H176z M48,412v-32h128v32H48z"/>
	<path d="M104,308h16c4.418,0,8-3.582,8-8s-3.582-8-8-8h-16c-4.418,0-8,3.582-8,8S99.582,308,104,308z"/>
	<path d="M120,340h-16c-4.418,0-8,3.582-8,8s3.582,8,8,8h16c4.418,0,8-3.582,8-8S124.418,340,120,340z"/>
	<path d="M120,388h-16c-4.418,0-8,3.582-8,8s3.582,8,8,8h16c4.418,0,8-3.582,8-8S124.418,388,120,388z"/>
	<path d="M64,228h72c4.418,0,8-3.582,8-8s-3.582-8-8-8H64c-4.418,0-8,3.582-8,8S59.582,228,64,228z"/>
	<path d="M64,204h72c4.418,0,8-3.582,8-8s-3.582-8-8-8H64c-4.418,0-8,3.582-8,8S59.582,204,64,204z"/>
	<path d="M80,180h56c4.418,0,8-3.582,8-8s-3.582-8-8-8H80c-4.418,0-8,3.582-8,8S75.582,180,80,180z"/>
	<path d="M312,164c2.047,0,4.095-0.781,5.657-2.343l64-64c3.125-3.124,3.125-8.189,0-11.313c-3.124-3.124-8.189-3.124-11.313,0
		l-64,64c-3.125,3.124-3.125,8.189,0,11.313C307.905,163.219,309.953,164,312,164z"/>
</g>
<g>
</g>
<g>
</g>
<g>
</g>
<g>
</g>
<g>
</g>
<g>
</g>
<g>
</g>
<g>
</g>
<g>
</g>
<g>
</g>
<g>
</g>
<g>
</g>
<g>
</g>
<g>
</g>
<g>
</g>
</svg>
