<?xml version="1.0" encoding="iso-8859-1"?>
<!-- Generator: Adobe Illustrator 17.1.0, SVG Export Plug-In . SVG Version: 6.00 Build 0)  -->
<!DOCTYPE svg PUBLIC "-//W3C//DTD SVG 1.1//EN" "http://www.w3.org/Graphics/SVG/1.1/DTD/svg11.dtd">
<svg version="1.1" id="Capa_1" xmlns="http://www.w3.org/2000/svg" xmlns:xlink="http://www.w3.org/1999/xlink" x="0px" y="0px"
	 viewBox="0 0 512 512" style="enable-background:new 0 0 512 512;" xml:space="preserve">
<g>
	<path d="M423.74,386.011c-3.907-2.067-8.747-0.572-10.812,3.333c-0.471,0.891-0.951,1.775-1.434,2.656h-32.054
		c3.536-9.67,6.554-19.742,9.015-30.165c1.015-4.3-1.648-8.608-5.948-9.624c-4.299-1.013-8.609,1.648-9.624,5.948
		c-2.763,11.703-6.341,23.037-10.635,33.841h-61.451c4.374-27.8,6.785-58.044,7.15-88H348c4.418,0,8-3.582,8-8s-3.582-8-8-8h-40.053
		c-0.401-32.856-3.265-66.057-8.478-96h59.515c3.657,8.344,6.909,17.129,9.71,26.318c1.051,3.449,4.222,5.67,7.649,5.67
		c0.772,0,1.558-0.112,2.335-0.35c4.226-1.288,6.608-5.759,5.32-9.984c-2.276-7.468-4.837-14.691-7.657-21.654h30.502
		c0.809,1.326,1.621,2.65,2.399,3.996c1.483,2.563,4.17,3.995,6.932,3.995c1.36,0,2.737-0.347,3.999-1.076
		c3.824-2.213,5.131-7.106,2.918-10.931c-1.045-1.806-2.124-3.59-3.22-5.363c-0.374-2.151-1.602-4.008-3.329-5.202
		c-18.159-27.586-42.499-50.82-71.016-67.628C312.463,90.302,274.589,80,236,80c-16.835,0-33.605,1.945-49.844,5.781
		c-4.3,1.017-6.962,5.325-5.946,9.625c1.016,4.301,5.327,6.96,9.625,5.947c5.19-1.227,10.443-2.229,15.734-3.036
		c-13.056,17.221-23.079,45.165-29.996,77.682H109.87c-1.244-0.301-2.514-0.285-3.714,0H76.001c1.984-2.645,4.029-5.249,6.149-7.799
		c2.825-3.397,2.361-8.441-1.036-11.267c-3.396-2.822-8.441-2.36-11.266,1.036c-5.176,6.224-9.972,12.72-14.385,19.443
		c-1.749,1.207-2.986,3.092-3.347,5.275C31.264,216.561,20,255.853,20,296c0,57.695,22.468,111.938,63.265,152.735
		C124.062,489.532,178.304,512,236,512c80.296,0,153.511-44.134,191.073-115.178C429.138,392.916,427.646,388.076,423.74,386.011z
		 M355.173,408c-9.353,19.105-21.065,36.047-34.565,49.712c-15.81,16.002-33.463,27.176-52.13,33.166
		c12.975-18.672,22.877-48.278,29.526-82.878H355.173z M296.39,176c-6.596-31.141-15.943-57.646-27.901-74.863
		c33.061,10.606,62.347,37.144,82.698,74.863H296.39z M337.404,123.575c22.813,13.446,42.734,31.338,58.583,52.425h-26.811
		c-11.438-23.222-25.971-42.959-42.686-58.389C330.183,119.486,333.827,121.467,337.404,123.575z M202.571,138.87
		C212.488,112.026,224.985,96,236,96c12.9,0,26.959,20.663,37.608,55.274c2.383,7.746,4.547,16.019,6.491,24.726h-88.18
		C194.966,162.294,198.538,149.789,202.571,138.87z M172.704,263.983c4.418,0.267,8.2-3.097,8.464-7.507
		c1.369-22.838,3.937-44.644,7.531-64.477h94.629c5.247,28.888,8.219,61.678,8.62,96H252c-4.418,0-8,3.582-8,8s3.582,8,8,8h39.949
		c-0.364,31.191-2.851,61.118-7.239,88H252c-4.418,0-8,3.582-8,8s3.582,8,8,8h29.797c-2.352,11.673-5.086,22.643-8.188,32.726
		C262.959,475.337,248.9,496,236,496c-10.799,0-22.657-14.759-32.533-40.491c-1.583-4.126-6.211-6.182-10.335-4.603
		c-4.125,1.583-6.185,6.211-4.602,10.335c4.877,12.707,9.983,22.356,15.087,29.658c-35.944-11.516-66.784-41.775-86.88-82.936
		C120.809,407.591,124,404.17,124,400c0-4.418-3.582-8-8-8h-6.293c-10.411-26.315-16.676-56.216-17.581-88H108c4.418,0,8-3.582,8-8
		s-3.582-8-8-8H92.123c0.973-34.049,8.157-66.974,20.944-96h59.415c-3.557,20.329-5.992,41.947-7.285,63.52
		C164.933,259.93,168.293,263.72,172.704,263.983z M36.174,304h39.945c0.829,30.994,6.46,60.863,16.422,88H60.592
		C46.133,365.685,37.431,335.784,36.174,304z M95.696,192c-11.96,29.421-18.67,62.223-19.584,96H36.167
		c1.368-34.017,11.432-67.109,29.004-96H95.696z M70.381,408h28.688c6.418,14.274,14.102,27.634,22.991,39.798
		c7.265,9.941,15.124,18.798,23.463,26.536C115.224,458.899,89.356,435.97,70.381,408z M326.126,474.614
		c1.979-1.823,3.935-3.705,5.863-5.656c16.621-16.823,30.44-37.463,40.961-60.957h28.785
		C382.379,436.664,356.25,459.425,326.126,474.614z"/>
	<path d="M103.35,158.51c1.392,0.994,3.021,1.49,4.65,1.49c1.66,0,3.32-0.516,4.726-1.545C115.146,156.683,172,114.478,172,64
		c0-35.29-28.71-64-64-64S44,28.71,44,64C44,115.524,100.927,156.779,103.35,158.51z M108,16c26.467,0,48,21.532,48,48
		c0,34.735-35.145,67.11-48.051,77.825C95.032,131.294,60,99.46,60,64C60,37.532,81.533,16,108,16z"/>
	<path d="M140,64c0-4.418-3.582-8-8-8s-8,3.582-8,8c0,8.822-7.178,16-16,16s-16-7.178-16-16s7.178-16,16-16c4.418,0,8-3.582,8-8
		s-3.582-8-8-8c-17.645,0-32,14.355-32,32s14.355,32,32,32S140,81.645,140,64z"/>
	<path d="M428,216c-35.29,0-64,28.71-64,64c0,51.524,56.927,92.779,59.35,94.51c1.392,0.994,3.021,1.49,4.65,1.49
		c1.66,0,3.32-0.516,4.726-1.545C435.146,372.683,492,330.478,492,280C492,244.71,463.29,216,428,216z M427.949,357.825
		C415.032,347.294,380,315.46,380,280c0-26.468,21.533-48,48-48s48,21.532,48,48C476,314.735,440.855,347.11,427.949,357.825z"/>
	<path d="M452,272c-4.418,0-8,3.582-8,8c0,8.822-7.178,16-16,16s-16-7.178-16-16s7.178-16,16-16c4.418,0,8-3.582,8-8s-3.582-8-8-8
		c-17.645,0-32,14.355-32,32s14.355,32,32,32s32-14.355,32-32C460,275.582,456.418,272,452,272z"/>
	<path d="M116,344c0,51.524,56.927,92.779,59.35,94.51c1.392,0.994,3.021,1.49,4.65,1.49c1.66,0,3.32-0.516,4.726-1.545
		C187.146,436.683,244,394.478,244,344c0-35.29-28.71-64-64-64S116,308.71,116,344z M180,296c26.467,0,48,21.532,48,48
		c0,34.735-35.145,67.11-48.051,77.825C167.032,411.294,132,379.46,132,344C132,317.532,153.533,296,180,296z"/>
	<path d="M180,376c17.645,0,32-14.355,32-32c0-4.418-3.582-8-8-8s-8,3.582-8,8c0,8.822-7.178,16-16,16s-16-7.178-16-16
		s7.178-16,16-16c4.418,0,8-3.582,8-8s-3.582-8-8-8c-17.645,0-32,14.355-32,32S162.355,376,180,376z"/>
</g>
<g>
</g>
<g>
</g>
<g>
</g>
<g>
</g>
<g>
</g>
<g>
</g>
<g>
</g>
<g>
</g>
<g>
</g>
<g>
</g>
<g>
</g>
<g>
</g>
<g>
</g>
<g>
</g>
<g>
</g>
</svg>
