<?xml version="1.0" encoding="iso-8859-1"?>
<!-- Generator: Adobe Illustrator 17.1.0, SVG Export Plug-In . SVG Version: 6.00 Build 0)  -->
<!DOCTYPE svg PUBLIC "-//W3C//DTD SVG 1.1//EN" "http://www.w3.org/Graphics/SVG/1.1/DTD/svg11.dtd">
<svg version="1.1" id="Capa_1" xmlns="http://www.w3.org/2000/svg" xmlns:xlink="http://www.w3.org/1999/xlink" x="0px" y="0px"
	 viewBox="0 0 512 512" style="enable-background:new 0 0 512 512;" xml:space="preserve">
<g>
	<path d="M441.302,200.354l-189.576,75.83V72c0-4.418-3.582-8-8-8c-59.833,0-116.084,23.3-158.392,65.608
		C43.027,171.916,19.726,228.167,19.726,288s23.3,116.084,65.608,158.392C127.642,488.7,183.894,512,243.726,512
		s116.084-23.3,158.392-65.608c42.308-42.308,65.608-98.559,65.608-158.392c0-28.644-5.392-56.634-16.026-83.192
		C450.059,200.706,445.405,198.716,441.302,200.354z M235.726,264.3L124.174,117.887c31.806-22.419,70.147-36.161,111.552-37.736
		V264.3z M243.726,496c-114.691,0-208-93.309-208-208c0-64.493,29.511-122.219,75.732-160.401l125.904,165.249
		c0.066,0.087,0.142,0.162,0.211,0.245c0.099,0.119,0.197,0.238,0.302,0.352c0.124,0.134,0.254,0.258,0.385,0.381
		c0.098,0.092,0.194,0.185,0.296,0.272c0.157,0.133,0.32,0.254,0.485,0.374c0.068,0.049,0.129,0.106,0.198,0.153
		c0.025,0.017,0.052,0.029,0.077,0.045c0.185,0.122,0.376,0.23,0.569,0.336c0.087,0.048,0.172,0.101,0.26,0.145
		c0.2,0.1,0.406,0.184,0.613,0.267c0.089,0.036,0.175,0.078,0.264,0.11c0.221,0.079,0.446,0.141,0.673,0.2
		c0.079,0.021,0.156,0.05,0.236,0.068c0.3,0.069,0.603,0.12,0.909,0.154c0.122,0.014,0.245,0.013,0.368,0.021
		c0.174,0.011,0.347,0.029,0.521,0.029c0.013,0,0.025-0.003,0.038-0.003c0.381-0.002,0.763-0.034,1.142-0.091
		c0.105-0.016,0.207-0.042,0.312-0.062c0.274-0.052,0.545-0.117,0.814-0.199c0.132-0.04,0.262-0.083,0.393-0.13
		c0.088-0.032,0.178-0.053,0.266-0.088l192.981-77.192c7.998,22.413,12.048,45.843,12.048,69.765
		C451.726,402.691,358.418,496,243.726,496z"/>
	<path d="M491.7,140.808c-16.45-41.084-44.46-76.126-81.002-101.336c-1.697-1.171-3.412-2.308-5.135-3.428
		c-0.076-0.052-0.153-0.1-0.23-0.149C369.104,12.396,327.202,0,283.726,0c-4.418,0-8,3.582-8,8v31.998v0.005v39.995v0.005v39.995
		v0.005v39.995v0.005v39.995v0.005V224c0,2.654,1.317,5.137,3.515,6.625c1.343,0.909,2.909,1.375,4.485,1.375
		c1.004,0,2.012-0.188,2.971-0.572l22.463-8.985c0.039,0,0.078,0.006,0.118,0.006c2.024,0,4.047-0.767,5.603-2.294l65.141-26.056
		c0.029-0.011,0.057-0.023,0.086-0.035l66.589-26.635c0.023-0.01,0.047-0.019,0.07-0.028l40.478-16.191
		c1.97-0.788,3.547-2.327,4.382-4.277C492.463,144.98,492.489,142.777,491.7,140.808z M410.277,164.763l50.276-50.276
		c2.229,3.601,4.342,7.279,6.353,11.02l-27.675,27.675L410.277,164.763z M343.61,191.43L443.821,91.219
		c2.636,3.176,5.161,6.442,7.602,9.769l-78.859,78.86L343.61,191.43z M412.058,60.354L291.726,180.686v-17.372L402.072,52.969
		C405.484,55.337,408.809,57.805,412.058,60.354z M291.726,43.314l24.747-24.747c4.888,0.772,9.737,1.717,14.539,2.833
		l-39.286,39.286V43.314z M291.726,83.314l56.967-56.967c4.289,1.409,8.529,2.963,12.719,4.653l-69.686,69.686V83.314z
		 M291.726,123.314l85.268-85.268c3.807,1.917,7.562,3.955,11.26,6.113l-96.527,96.527V123.314z M296.049,16.364l-4.322,4.322
		v-4.535C293.17,16.206,294.61,16.28,296.049,16.364z M291.726,203.314L424.309,70.731c3.024,2.772,5.949,5.639,8.796,8.576
		L305.897,206.515l-14.171,5.668V203.314z"/>
</g>
<g>
</g>
<g>
</g>
<g>
</g>
<g>
</g>
<g>
</g>
<g>
</g>
<g>
</g>
<g>
</g>
<g>
</g>
<g>
</g>
<g>
</g>
<g>
</g>
<g>
</g>
<g>
</g>
<g>
</g>
</svg>
