<?xml version="1.0" encoding="iso-8859-1"?>
<!-- Generator: Adobe Illustrator 17.1.0, SVG Export Plug-In . SVG Version: 6.00 Build 0)  -->
<!DOCTYPE svg PUBLIC "-//W3C//DTD SVG 1.1//EN" "http://www.w3.org/Graphics/SVG/1.1/DTD/svg11.dtd">
<svg version="1.1" id="Capa_1" xmlns="http://www.w3.org/2000/svg" xmlns:xlink="http://www.w3.org/1999/xlink" x="0px" y="0px"
	 viewBox="0 0 512 512" style="enable-background:new 0 0 512 512;" xml:space="preserve">
<g>
	<path d="M192.144,249.328c4.418,0,8-3.582,8-8v-57.59c0-5.404,6.203-15.738,15.928-15.738h12.727
		c3.988,3.971,12.606,12.61,19.273,19.304V240c0,4.418,3.582,8,8,8s8-3.582,8-8v-52.676c2.297-2.288,5.97-5.947,9.65-9.618
		c3.005-2.998,6.009-5.999,8.263-8.258c0.523-0.524,1.002-1.004,1.441-1.448h12.646c9.725,0,15.928,10.334,15.928,15.738v57.624
		c0,4.418,3.582,8,8,8s8-3.582,8-8v-57.624c0-6.964-3.244-14.758-8.678-20.847c-6.268-7.023-14.524-10.891-23.25-10.891h-16
		c-2.378,0-4.513,1.038-5.979,2.684c-1.216,1.264-10.147,10.18-17.999,18.003c-1.903-1.91-4.107-4.12-6.313-6.33
		c-2.997-3.003-5.997-6.007-8.256-8.261c-5.271-5.26-5.587-5.575-8.178-5.993c-0.422-0.068-0.848-0.102-1.275-0.102h-16
		c-8.726,0-16.982,3.868-23.25,10.891c-5.434,6.089-8.678,13.883-8.678,20.847v57.59
		C184.144,245.746,187.725,249.328,192.144,249.328z"/>
	<path d="M256.072,152c26.467,0,48-21.533,48-48v-7.927c0-0.006,0-0.012,0-0.018V56c0-4.418-3.582-8-8-8h-64
		c-13.234,0-24,10.766-24,24v32C208.072,130.467,229.604,152,256.072,152z M256.072,136c-17.645,0-32-14.355-32-32v-7.951l64,7.111
		V104C288.072,121.645,273.717,136,256.072,136z M232.072,64h56v23.062l-63.117-7.013c-0.297-0.033-0.591-0.046-0.883-0.046V72
		C224.072,67.589,227.661,64,232.072,64z"/>
	<path d="M504,264h-63.567l15.157-45.47c0.72-2.159,0.486-4.523-0.644-6.499l-31.506-55.135c-0.025-0.063-0.052-0.125-0.079-0.188
		c-2.227-5.103-7.181-5.173-12.426-5.247c-2.767-0.038-6.556-0.011-11.261,0.084c-7.926,0.159-15.896,0.457-15.975,0.46
		c-4.298,0.162-7.7,3.693-7.7,7.994v9.013c-13.786,3.561-24,16.104-24,30.987c0,4.418,3.582,8,8,8h48c4.418,0,8-3.582,8-8
		c0-14.883-10.214-27.426-24-30.987v-1.274c7.51-0.219,14.866-0.343,19.048-0.28l28.231,49.405l-14.869,44.607
		c-0.28,0.839-0.406,1.691-0.406,2.53H8c-4.418,0-8,3.582-8,8s3.582,8,8,8h8v176c0,4.418,3.582,8,8,8h464c4.418,0,8-3.582,8-8V280h8
		c4.418,0,8-3.582,8-8S508.418,264,504,264z M397.853,192h-27.705c2.77-4.779,7.942-8,13.853-8S395.083,187.221,397.853,192z
		 M480,448H32V280h448V448z"/>
	<path d="M192,312h128c4.418,0,8-3.582,8-8s-3.582-8-8-8H192c-4.418,0-8,3.582-8,8S187.582,312,192,312z"/>
	<path d="M280,328h-48c-4.418,0-8,3.582-8,8s3.582,8,8,8h48c4.418,0,8-3.582,8-8S284.418,328,280,328z"/>
	<path d="M64,256h72c4.418,0,8-3.582,8-8s-3.582-8-8-8H64c-4.418,0-8,3.582-8,8S59.582,256,64,256z"/>
	<path d="M64,232h72c4.418,0,8-3.582,8-8s-3.582-8-8-8H64c-4.418,0-8,3.582-8,8S59.582,232,64,232z"/>
	<path d="M80,208h56c4.418,0,8-3.582,8-8s-3.582-8-8-8H80c-4.418,0-8,3.582-8,8S75.582,208,80,208z"/>
</g>
<g>
</g>
<g>
</g>
<g>
</g>
<g>
</g>
<g>
</g>
<g>
</g>
<g>
</g>
<g>
</g>
<g>
</g>
<g>
</g>
<g>
</g>
<g>
</g>
<g>
</g>
<g>
</g>
<g>
</g>
</svg>
