<?xml version="1.0" encoding="iso-8859-1"?>
<!-- Generator: Adobe Illustrator 17.1.0, SVG Export Plug-In . SVG Version: 6.00 Build 0)  -->
<!DOCTYPE svg PUBLIC "-//W3C//DTD SVG 1.1//EN" "http://www.w3.org/Graphics/SVG/1.1/DTD/svg11.dtd">
<svg version="1.1" id="Capa_1" xmlns="http://www.w3.org/2000/svg" xmlns:xlink="http://www.w3.org/1999/xlink" x="0px" y="0px"
	 viewBox="0 0 512 512" style="enable-background:new 0 0 512 512;" xml:space="preserve">
<g>
	<path d="M455.96,111.209c-0.011-0.114-0.033-0.225-0.049-0.338c-0.021-0.145-0.038-0.291-0.066-0.435
		c-0.026-0.132-0.063-0.261-0.095-0.391c-0.031-0.123-0.058-0.246-0.095-0.368c-0.039-0.128-0.087-0.252-0.132-0.378
		c-0.043-0.121-0.083-0.242-0.132-0.361c-0.049-0.118-0.107-0.232-0.161-0.347c-0.057-0.121-0.111-0.243-0.174-0.361
		c-0.061-0.114-0.13-0.222-0.196-0.332c-0.068-0.113-0.132-0.228-0.205-0.338c-0.083-0.124-0.175-0.241-0.265-0.361
		c-0.067-0.089-0.129-0.181-0.201-0.268c-0.169-0.206-0.347-0.403-0.535-0.591L349.661,2.347c-0.254-0.254-0.53-0.485-0.817-0.703
		c-0.062-0.047-0.124-0.095-0.187-0.14c-0.285-0.205-0.581-0.396-0.893-0.562c-0.02-0.011-0.041-0.019-0.061-0.029
		c-0.296-0.155-0.604-0.287-0.919-0.405c-0.062-0.023-0.122-0.046-0.184-0.068c-0.336-0.115-0.678-0.214-1.033-0.285
		c-0.008-0.002-0.017-0.002-0.025-0.004c-0.326-0.064-0.66-0.102-0.999-0.124c-0.09-0.006-0.18-0.011-0.271-0.014
		C344.181,0.011,344.092,0,344,0H80C66.766,0,56,10.766,56,24v464c0,13.233,10.766,24,24,24h352c13.234,0,24-10.767,24-24V112.003
		C456,111.738,455.986,111.473,455.96,111.209z M432,496H80c-4.411,0-8-3.589-8-8V24c0-4.411,3.589-8,8-8h256v80
		c0,13.233,10.767,24,24,24h47.999c4.418,0,8-3.582,8-8s-3.582-8-8-8H360c-4.411,0-8-3.589-8-8V27.314l88,88V488
		C440,492.411,436.411,496,432,496z"/>
	<path d="M392,168H183.942c-0.014,0-0.028,0-0.042,0H120c-8.822,0-16,7.178-16,16v32.053c0,0.017,0,0.033,0,0.05v39.95
		c0,0.017,0,0.033,0,0.05v39.95c0,0.017,0,0.033,0,0.05v39.95c0,0.017,0,0.033,0,0.05v39.95c0,0.017,0,0.033,0,0.05v39.95
		c0,0.017,0,0.033,0,0.05V448c0,8.822,7.178,16,16,16h272c8.822,0,16-7.178,16-16V184C408,175.178,400.822,168,392,168z M176,408
		h-33.127L176,389.596V408z M176,328h-33.127L176,309.596V328z M176,288h-33.127L176,269.596V288z M176,248h-33.127L176,229.596V248
		z M120,264h33.127L120,282.404V264z M120,304h33.127L120,322.404V304z M120,344h33.127L120,362.404V344z M120,384h33.127
		L120,402.404V384z M176,368h-33.127L176,349.596V368z M192,328v-24h56v24H192z M264,304h56v24h-56V304z M264,288v-24h56v24H264z
		 M248,288h-56v-24h56V288z M192,248v-24h56v24H192z M120,242.404V224h33.127L120,242.404z M153.127,424L120,442.404V424H153.127z
		 M192,408v-24h56v24H192z M192,368v-24h56v24H192z M264,344h56v24h-56V344z M336,344h56v24h-56V344z M336,328v-24h56v24H336z
		 M336,288v-24h56v24H336z M336,248v-24h56v24H336z M320,248h-56v-24h56V248z M264,208v-24h56v24H264z M248,208h-56v-24h56V208z
		 M176,208h-33.127L176,189.596V208z M176,429.596V448h-33.127L176,429.596z M192,424h56v24h-56V424z M264,424h56v24h-56V424z
		 M264,408v-24h56v24H264z M336,384h56v24h-56V384z M392,208h-56v-24h56V208z M153.127,184L120,202.404V184H153.127z M336,448v-24
		h56v24H336z"/>
</g>
<g>
</g>
<g>
</g>
<g>
</g>
<g>
</g>
<g>
</g>
<g>
</g>
<g>
</g>
<g>
</g>
<g>
</g>
<g>
</g>
<g>
</g>
<g>
</g>
<g>
</g>
<g>
</g>
<g>
</g>
</svg>
