<?xml version="1.0" encoding="iso-8859-1"?>
<!-- Generator: Adobe Illustrator 17.1.0, SVG Export Plug-In . SVG Version: 6.00 Build 0)  -->
<!DOCTYPE svg PUBLIC "-//W3C//DTD SVG 1.1//EN" "http://www.w3.org/Graphics/SVG/1.1/DTD/svg11.dtd">
<svg version="1.1" id="Capa_1" xmlns="http://www.w3.org/2000/svg" xmlns:xlink="http://www.w3.org/1999/xlink" x="0px" y="0px"
	 viewBox="0 0 512 512" style="enable-background:new 0 0 512 512;" xml:space="preserve">
<g>
	<path d="M95.997,119.998c-4.418,0-8,3.582-8,8v15.999c0,4.418,3.582,8,8,8s8-3.582,8-8v-15.999
		C103.997,123.58,100.415,119.998,95.997,119.998z"/>
	<path d="M403.708,128l49.443-92.706c4.004-7.507,3.781-16.346-0.596-23.642C448.177,4.356,440.483,0,431.975,0H207.997
		c-4.418,0-8,3.582-8,8v56H102.62c-3.303-9.311-12.195-16-22.624-16c-13.233,0-24,10.767-24,24v416c0,13.233,10.767,24,24,24
		s24-10.767,24-24V320h168c4.418,0,8-3.582,8-8v-56h151.978c8.509,0,16.202-4.356,20.58-11.652
		c4.377-7.296,4.601-16.135,0.596-23.642L403.708,128z M215.997,27.314L252.683,64h-36.686V27.314z M263.997,304h-160V176.003
		c0-4.418-3.582-8-8-8s-8,3.582-8,8V488c0,4.411-3.589,8-8,8s-8-3.589-8-8V72c0-4.411,3.589-8,8-8s8,3.589,8,8v24.002
		c0,4.418,3.582,8,8,8s8-3.582,8-8V80h160V304z M438.834,236.116c-0.701,1.167-2.772,3.884-6.86,3.884H279.997V72.003
		c0-0.265-0.014-0.529-0.04-0.793c-0.011-0.114-0.033-0.224-0.049-0.337c-0.021-0.146-0.038-0.292-0.067-0.437
		c-0.026-0.131-0.062-0.259-0.095-0.387c-0.031-0.124-0.058-0.249-0.095-0.372c-0.038-0.127-0.086-0.249-0.13-0.373
		c-0.044-0.123-0.084-0.246-0.134-0.367c-0.048-0.115-0.104-0.226-0.157-0.338c-0.058-0.124-0.114-0.249-0.179-0.371
		c-0.058-0.108-0.124-0.21-0.186-0.315c-0.071-0.119-0.139-0.24-0.217-0.356c-0.076-0.114-0.161-0.22-0.242-0.329
		c-0.075-0.1-0.144-0.203-0.224-0.3c-0.152-0.185-0.314-0.362-0.482-0.533c-0.017-0.017-0.03-0.035-0.047-0.052L227.311,16h204.664
		c4.088,0,6.159,2.717,6.86,3.884c0.701,1.168,2.123,4.273,0.199,7.881l-51.451,96.471c-1.255,2.353-1.255,5.177,0,7.529
		l51.451,96.471C440.957,231.843,439.535,234.948,438.834,236.116z"/>
	<path d="M407.997,40c0-4.418-3.582-8-8-8h-104c-4.418,0-8,3.582-8,8s3.582,8,8,8h104C404.415,48,407.997,44.418,407.997,40z"/>
	<path d="M239.997,96h-40c-4.418,0-8,3.582-8,8s3.582,8,8,8h40c4.418,0,8-3.582,8-8S244.415,96,239.997,96z"/>
</g>
<g>
</g>
<g>
</g>
<g>
</g>
<g>
</g>
<g>
</g>
<g>
</g>
<g>
</g>
<g>
</g>
<g>
</g>
<g>
</g>
<g>
</g>
<g>
</g>
<g>
</g>
<g>
</g>
<g>
</g>
</svg>
