<?xml version="1.0" encoding="iso-8859-1"?>
<!-- Generator: Adobe Illustrator 17.1.0, SVG Export Plug-In . SVG Version: 6.00 Build 0)  -->
<!DOCTYPE svg PUBLIC "-//W3C//DTD SVG 1.1//EN" "http://www.w3.org/Graphics/SVG/1.1/DTD/svg11.dtd">
<svg version="1.1" id="Capa_1" xmlns="http://www.w3.org/2000/svg" xmlns:xlink="http://www.w3.org/1999/xlink" x="0px" y="0px"
	 viewBox="0 0 512 512" style="enable-background:new 0 0 512 512;" xml:space="preserve">
<g>
	<path d="M256,192c14.537,0,27.995,6.931,31.309,16.132C287.768,209.398,288,210.7,288,212c0,13.233,10.766,24,24,24
		s24-10.767,24-24c0-6.854-1.189-13.633-3.536-20.149c-7.872-21.85-27.438-38.258-52.966-44.747C277.231,136.21,267.556,128,256,128
		c-11.533,0-21.191,8.178-23.484,19.038c-14.871,3.895-28.288,11.493-38.259,21.755C182.484,180.911,176,196.255,176,212
		c0,37.495,35.888,68,80,68c15.105,0,32,8.553,32,20s-16.895,20-32,20s-32-8.553-32-20c0-13.233-10.766-24-24-24s-24,10.767-24,24
		c0,15.745,6.484,31.089,18.257,43.207c9.971,10.262,23.388,17.86,38.259,21.755C234.809,375.822,244.467,384,256,384
		s21.191-8.178,23.484-19.038c14.871-3.895,28.288-11.493,38.259-21.755C329.516,331.089,336,315.745,336,300
		c0-37.495-35.888-68-80-68c-15.105,0-32-8.553-32-20S240.895,192,256,192z M256,248c35.29,0,64,23.327,64,52
		c0,23.865-20.815,45.144-49.494,50.596c-3.774,0.718-6.506,4.018-6.506,7.859V360c0,4.411-3.589,8-8,8s-8-3.589-8-8v-1.545
		c0-3.842-2.731-7.142-6.506-7.859C212.815,345.144,192,323.865,192,300c0-4.411,3.589-8,8-8s8,3.589,8,8c0,19.851,21.533,36,48,36
		s48-16.149,48-36s-21.533-36-48-36c-35.29,0-64-23.327-64-52c0-23.865,20.815-45.144,49.494-50.596
		c3.774-0.718,6.506-4.018,6.506-7.859V152c0-4.411,3.589-8,8-8s8,3.589,8,8v1.642c0,3.853,2.746,7.158,6.533,7.864
		c22.477,4.192,40.439,17.898,46.877,35.768C319.129,202.044,320,206.999,320,212c0,4.411-3.589,8-8,8s-8-3.589-8-8
		c0-3.161-0.554-6.295-1.641-9.301C296.696,186.979,277.633,176,256,176c-26.467,0-48,16.149-48,36S229.533,248,256,248z"/>
	<path d="M411.779,192.47c-4.166,1.472-6.35,6.043-4.877,10.208C412.939,219.763,416,237.703,416,256c0,88.225-71.776,160-160,160
		S96,344.225,96,256S167.776,96,256,96c37.952,0,74.749,13.522,103.612,38.076c3.365,2.861,8.414,2.456,11.277-0.91
		c2.863-3.365,2.456-8.414-0.91-11.277C338.226,94.876,297.747,80,256,80c-97.047,0-176,78.953-176,176s78.953,176,176,176
		s176-78.953,176-176c0-20.118-3.369-39.852-10.012-58.652C420.516,193.182,415.945,190.996,411.779,192.47z"/>
	<path d="M392.307,172.166c1.512,2.453,4.133,3.804,6.818,3.804c1.432,0,2.881-0.385,4.19-1.19
		c3.761-2.318,4.931-7.247,2.612-11.008c-3.55-5.76-7.478-11.377-11.673-16.695c-2.738-3.47-7.768-4.063-11.236-1.325
		c-3.469,2.736-4.062,7.767-1.326,11.235C385.508,161.822,389.079,166.93,392.307,172.166z"/>
	<path d="M480,208h-13.393c-5.399-23.848-14.705-46.326-27.734-66.991l9.46-9.46c6.025-6.025,9.343-14.061,9.343-22.627
		s-3.318-16.603-9.343-22.628l-22.627-22.628c-12.476-12.477-32.777-12.477-45.255,0l-9.46,9.461
		C350.325,60.097,327.848,50.791,304,45.393V32c0-17.645-14.355-32-32-32h-32c-17.645,0-32,14.355-32,32v13.393
		c-23.848,5.398-46.326,14.704-66.991,27.734l-9.46-9.461c-12.477-12.477-32.778-12.477-45.255,0L63.667,86.295
		c-6.025,6.024-9.343,14.061-9.343,22.627s3.318,16.602,9.343,22.627l9.46,9.46C60.098,161.675,50.792,184.153,45.393,208H32
		c-17.645,0-32,14.355-32,32v32c0,17.645,14.355,32,32,32h13.393c5.399,23.848,14.705,46.325,27.734,66.99l-9.46,9.461
		c-12.477,12.477-12.477,32.777,0,45.255l22.627,22.627c6.025,6.025,14.061,9.343,22.627,9.343s16.602-3.317,22.627-9.343
		l9.46-9.461c20.665,13.03,43.143,22.336,66.99,27.734V480c0,17.645,14.355,32,32,32h32c17.645,0,32-14.355,32-32v-13.394
		c23.847-5.398,46.325-14.704,66.991-27.733l9.46,9.46c6.025,6.025,14.061,9.343,22.627,9.343s16.602-3.317,22.627-9.343
		l22.627-22.628c12.477-12.477,12.477-32.777,0-45.255l-9.46-9.46c13.029-20.665,22.335-43.143,27.734-66.99H480
		c17.645,0,32-14.355,32-32v-32C512,222.355,497.645,208,480,208z M496,272c0,8.822-7.178,16-16,16h-19.883
		c-3.828,0-7.12,2.712-7.852,6.47c-5.127,26.312-15.313,50.912-30.272,73.119c-2.139,3.175-1.729,7.42,0.978,10.127l14.048,14.049
		c6.238,6.238,6.238,16.389,0,22.627l-22.627,22.627c-6.238,6.238-16.39,6.238-22.628,0l-14.048-14.048
		c-2.708-2.705-6.953-3.116-10.126-0.978c-22.209,14.96-46.81,25.145-73.12,30.271c-3.758,0.732-6.47,4.024-6.47,7.853V480
		c0,8.822-7.178,16-16,16h-32c-8.822,0-16-7.178-16-16v-19.884c0-3.828-2.712-7.12-6.47-7.853
		c-26.311-5.126-50.912-15.312-73.119-30.271c-1.361-0.917-2.918-1.365-4.467-1.365c-2.064,0-4.113,0.797-5.659,2.343
		l-14.049,14.049c-6.238,6.238-16.39,6.238-22.628,0l-22.627-22.627c-6.238-6.238-6.238-16.389,0-22.627l14.049-14.049
		c2.707-2.707,3.117-6.952,0.978-10.127c-14.959-22.207-25.145-46.808-30.272-73.119c-0.732-3.758-4.024-6.47-7.852-6.47H32
		c-8.822,0-16-7.178-16-16v-32c0-8.822,7.178-16,16-16h19.883c3.828,0,7.12-2.712,7.852-6.47
		c5.127-26.311,15.312-50.911,30.272-73.12c2.138-3.175,1.729-7.42-0.979-10.127L74.98,120.234
		c-3.003-3.003-4.657-7.021-4.657-11.313c0-4.293,1.654-8.311,4.657-11.313L97.608,74.98c6.239-6.239,16.389-6.239,22.628,0
		l14.048,14.049c2.707,2.706,6.952,3.117,10.126,0.978c22.207-14.96,46.808-25.145,73.119-30.271c3.758-0.732,6.47-4.024,6.47-7.853
		V32c0-8.822,7.178-16,16-16h32c8.822,0,16,7.178,16,16v19.883c0,3.828,2.712,7.12,6.47,7.853
		c26.311,5.126,50.912,15.312,73.119,30.271c3.174,2.139,7.42,1.729,10.126-0.978l14.048-14.049c6.239-6.239,16.389-6.239,22.628,0
		l22.627,22.628c3.003,3.003,4.657,7.021,4.657,11.313c0,4.292-1.654,8.31-4.657,11.313l-14.048,14.049
		c-2.707,2.707-3.117,6.952-0.978,10.127c14.96,22.207,25.145,46.809,30.271,73.12c0.732,3.758,4.024,6.47,7.853,6.47H480
		c8.822,0,16,7.178,16,16V272z"/>
</g>
<g>
</g>
<g>
</g>
<g>
</g>
<g>
</g>
<g>
</g>
<g>
</g>
<g>
</g>
<g>
</g>
<g>
</g>
<g>
</g>
<g>
</g>
<g>
</g>
<g>
</g>
<g>
</g>
<g>
</g>
</svg>
