<?xml version="1.0" encoding="iso-8859-1"?>
<!-- Generator: Adobe Illustrator 17.1.0, SVG Export Plug-In . SVG Version: 6.00 Build 0)  -->
<!DOCTYPE svg PUBLIC "-//W3C//DTD SVG 1.1//EN" "http://www.w3.org/Graphics/SVG/1.1/DTD/svg11.dtd">
<svg version="1.1" id="Capa_1" xmlns="http://www.w3.org/2000/svg" xmlns:xlink="http://www.w3.org/1999/xlink" x="0px" y="0px"
	 viewBox="0 0 512 512" style="enable-background:new 0 0 512 512;" xml:space="preserve">
<g>
	<path d="M496,200h-17.376c-3.302-9.311-12.195-16-22.624-16H296c-11.932,0-21.855,8.755-23.692,20.177
		C267.341,201.489,261.766,200,256,200s-11.341,1.488-16.308,4.176C237.855,192.754,227.932,184,216,184H56
		c-10.429,0-19.321,6.689-22.624,16H16c-8.822,0-16,7.178-16,16v8c0,13.234,10.766,24,24,24h8v16c0,35.29,28.71,64,64,64h32
		c58.465,0,106.603-45.032,111.569-102.231c3.56-6.038,9.792-9.769,16.43-9.769c6.639,0,12.873,3.732,16.432,9.772
		C277.399,282.969,325.536,328,384,328h32c35.29,0,64-28.71,64-64v-16h8c13.234,0,24-10.766,24-24v-8
		C512,207.178,504.822,200,496,200z M24,232c-4.411,0-8-3.589-8-8v-8h16v16H24z M224,216c0,52.935-43.065,96-96,96H96
		c-26.467,0-48-21.533-48-48v-56c0-4.411,3.589-8,8-8h160c4.411,0,8,3.589,8,8V216z M464,264c0,26.467-21.533,48-48,48h-32
		c-52.935,0-96-43.065-96-96v-8c0-4.411,3.589-8,8-8h160c4.411,0,8,3.589,8,8V264z M496,224c0,4.411-3.589,8-8,8h-8v-16h16V224z"/>
	<path d="M154.343,210.343l-72,72c-3.125,3.124-3.125,8.189,0,11.313C83.905,295.219,85.953,296,88,296s4.095-0.781,5.657-2.343
		l72-72c3.125-3.124,3.125-8.189,0-11.313C162.533,207.219,157.467,207.219,154.343,210.343z"/>
	<path d="M402.343,210.343l-64,64c-3.125,3.124-3.125,8.189,0,11.313c1.562,1.562,3.609,2.343,5.657,2.343s4.095-0.781,5.657-2.343
		l64-64c3.125-3.124,3.125-8.189,0-11.313C410.533,207.219,405.467,207.219,402.343,210.343z"/>
</g>
<g>
</g>
<g>
</g>
<g>
</g>
<g>
</g>
<g>
</g>
<g>
</g>
<g>
</g>
<g>
</g>
<g>
</g>
<g>
</g>
<g>
</g>
<g>
</g>
<g>
</g>
<g>
</g>
<g>
</g>
</svg>
