<?xml version="1.0" encoding="iso-8859-1"?>
<!-- Generator: Adobe Illustrator 17.1.0, SVG Export Plug-In . SVG Version: 6.00 Build 0)  -->
<!DOCTYPE svg PUBLIC "-//W3C//DTD SVG 1.1//EN" "http://www.w3.org/Graphics/SVG/1.1/DTD/svg11.dtd">
<svg version="1.1" id="Capa_1" xmlns="http://www.w3.org/2000/svg" xmlns:xlink="http://www.w3.org/1999/xlink" x="0px" y="0px"
	 viewBox="0 0 512 512" style="enable-background:new 0 0 512 512;" xml:space="preserve">
<g>
	<path d="M488,96c-13.234,0-24,10.767-24,24c0,1.003,0.069,1.99,0.189,2.961l-88.738,44.369C368.122,158.006,356.753,152,344,152
		c-22.056,0-40,17.944-40,40c0,8.762,2.839,16.869,7.636,23.466l-45.533,49.673c-0.236,0.258-0.445,0.53-0.641,0.808
		C262.557,264.696,259.359,264,256,264c-4.552,0-8.812,1.274-12.442,3.484l-52.98-43.348c0.919-2.542,1.422-5.281,1.422-8.136
		c0-13.233-10.766-24-24-24s-24,10.767-24,24c0,6.692,2.756,12.75,7.188,17.107l-36.87,79.007C113.555,312.041,112.782,312,112,312
		c-13.234,0-24,10.767-24,24c0,1.297,0.107,2.569,0.306,3.812l-48.285,26.337C35.769,362.329,30.152,360,24,360
		c-13.234,0-24,10.767-24,24s10.766,24,24,24s24-10.767,24-24c0-1.297-0.107-2.569-0.306-3.812l48.285-26.337
		c4.252,3.82,9.868,6.148,16.021,6.148c13.234,0,24-10.767,24-24c0-6.692-2.756-12.75-7.188-17.107l36.87-79.007
		c0.763,0.073,1.536,0.114,2.319,0.114c4.552,0,8.812-1.274,12.442-3.484l52.98,43.348C232.503,282.406,232,285.145,232,288
		c0,13.233,10.766,24,24,24s24-10.767,24-24c0-4.098-1.035-7.959-2.853-11.337c0.261-0.22,0.514-0.452,0.751-0.71l45.526-49.665
		C329.439,229.911,336.48,232,344,232c22.056,0,40-17.944,40-40c0-3.586-0.482-7.061-1.371-10.37l88.727-44.364
		C475.674,141.431,481.541,144,488,144c13.234,0,24-10.767,24-24S501.234,96,488,96z M24,392c-4.411,0-8-3.589-8-8s3.589-8,8-8
		s8,3.589,8,8S28.411,392,24,392z M112,344c-4.411,0-8-3.589-8-8s3.589-8,8-8s8,3.589,8,8S116.411,344,112,344z M168,224
		c-4.411,0-8-3.589-8-8s3.589-8,8-8s8,3.589,8,8S172.411,224,168,224z M256,296c-4.411,0-8-3.589-8-8s3.589-8,8-8s8,3.589,8,8
		S260.411,296,256,296z M344,216c-13.233,0-24-10.767-24-24s10.767-24,24-24s24,10.767,24,24S357.233,216,344,216z M488,128
		c-4.411,0-8-3.589-8-8s3.589-8,8-8s8,3.589,8,8S492.411,128,488,128z"/>
	<path d="M344,184c-2.11,0-4.17,0.85-5.66,2.34c-1.49,1.49-2.34,3.55-2.34,5.66c0,2.109,0.85,4.17,2.34,5.66
		c1.49,1.489,3.55,2.34,5.66,2.34c2.11,0,4.17-0.851,5.66-2.34c1.49-1.49,2.34-3.551,2.34-5.66c0-2.11-0.85-4.17-2.34-5.66
		C348.17,184.85,346.11,184,344,184z"/>
	<path d="M344,136c2.1,0,4.17-0.851,5.66-2.351c1.48-1.479,2.34-3.54,2.34-5.649c0-2.11-0.86-4.17-2.34-5.66
		c-1.49-1.49-3.56-2.34-5.66-2.34c-2.11,0-4.17,0.85-5.66,2.34c-1.49,1.49-2.34,3.55-2.34,5.66c0,2.1,0.85,4.17,2.34,5.649
		C339.83,135.149,341.89,136,344,136z"/>
	<path d="M344,104c2.11,0,4.17-0.851,5.66-2.34C351.15,100.17,352,98.1,352,96c0-2.101-0.85-4.17-2.34-5.66
		C348.17,88.85,346.11,88,344,88c-2.11,0-4.17,0.85-5.66,2.34C336.85,91.83,336,93.89,336,96c0,2.109,0.85,4.17,2.34,5.66
		C339.83,103.149,341.89,104,344,104z"/>
	<path d="M344,72c2.1,0,4.16-0.851,5.66-2.34C351.15,68.16,352,66.1,352,64c0-2.101-0.85-4.17-2.34-5.66
		C348.17,56.85,346.1,56,344,56s-4.17,0.85-5.66,2.34c-1.49,1.49-2.34,3.56-2.34,5.66c0,2.1,0.85,4.17,2.34,5.66
		C339.83,71.149,341.9,72,344,72z"/>
	<path d="M344,40c2.1,0,4.17-0.851,5.66-2.34c1.49-1.49,2.34-3.551,2.34-5.66c0-2.101-0.85-4.17-2.34-5.66
		C348.17,24.85,346.11,24,344,24c-2.11,0-4.17,0.85-5.66,2.34c-1.49,1.49-2.34,3.56-2.34,5.66c0,2.109,0.85,4.17,2.34,5.66
		C339.83,39.149,341.9,40,344,40z"/>
	<path d="M344,344c-2.11,0-4.17,0.85-5.66,2.34c-1.49,1.49-2.34,3.55-2.34,5.66c0,2.109,0.85,4.17,2.34,5.66
		c1.49,1.489,3.55,2.34,5.66,2.34c2.1,0,4.17-0.851,5.66-2.34c1.49-1.49,2.34-3.551,2.34-5.66c0-2.11-0.85-4.17-2.34-5.66
		C348.17,344.85,346.11,344,344,344z"/>
	<path d="M344,312c-2.11,0-4.17,0.85-5.66,2.34c-1.49,1.49-2.34,3.56-2.34,5.66c0,2.1,0.85,4.17,2.34,5.66
		c1.49,1.489,3.56,2.34,5.66,2.34s4.17-0.851,5.66-2.34c1.49-1.49,2.34-3.561,2.34-5.66c0-2.101-0.85-4.17-2.34-5.66
		C348.17,312.85,346.11,312,344,312z"/>
	<path d="M344,280c-2.11,0-4.17,0.85-5.66,2.34c-1.49,1.49-2.34,3.55-2.34,5.66c0,2.109,0.85,4.17,2.34,5.649
		c1.49,1.5,3.55,2.351,5.66,2.351c2.11,0,4.17-0.851,5.66-2.351c1.49-1.479,2.34-3.54,2.34-5.649c0-2.11-0.85-4.17-2.34-5.66
		C348.17,280.85,346.11,280,344,280z"/>
	<path d="M344,248c-2.11,0-4.17,0.85-5.66,2.34c-1.49,1.49-2.34,3.55-2.34,5.66c0,2.109,0.85,4.17,2.34,5.649
		c1.49,1.5,3.55,2.351,5.66,2.351c2.1,0,4.17-0.851,5.66-2.351c1.49-1.479,2.34-3.54,2.34-5.649c0-2.11-0.85-4.17-2.34-5.66
		C348.17,248.85,346.1,248,344,248z"/>
	<path d="M344,472c-2.11,0-4.17,0.85-5.66,2.34c-1.49,1.49-2.34,3.55-2.34,5.66c0,2.109,0.85,4.17,2.34,5.66
		c1.49,1.489,3.55,2.34,5.66,2.34c2.11,0,4.17-0.851,5.66-2.34c1.49-1.49,2.34-3.551,2.34-5.66c0-2.11-0.85-4.17-2.34-5.66
		C348.17,472.85,346.11,472,344,472z"/>
	<path d="M344,440c-2.11,0-4.17,0.85-5.66,2.34c-1.49,1.49-2.34,3.55-2.34,5.66c0,2.109,0.85,4.17,2.34,5.66
		c1.49,1.489,3.55,2.34,5.66,2.34c2.11,0,4.17-0.851,5.66-2.34c1.49-1.49,2.34-3.551,2.34-5.66c0-2.101-0.85-4.17-2.34-5.66
		C348.17,440.85,346.11,440,344,440z"/>
	<path d="M344,408c-2.11,0-4.17,0.859-5.66,2.34c-1.49,1.49-2.34,3.55-2.34,5.66c0,2.1,0.85,4.17,2.34,5.66
		c1.49,1.489,3.55,2.34,5.66,2.34c2.11,0,4.17-0.851,5.66-2.34c1.49-1.49,2.34-3.561,2.34-5.66c0-2.11-0.85-4.17-2.34-5.66
		C348.17,408.859,346.11,408,344,408z"/>
	<path d="M344,376c-2.11,0-4.17,0.85-5.66,2.34c-1.48,1.49-2.34,3.55-2.34,5.66c0,2.109,0.86,4.17,2.34,5.649
		c1.49,1.5,3.56,2.351,5.66,2.351s4.17-0.851,5.66-2.351c1.48-1.479,2.34-3.54,2.34-5.649c0-2.11-0.86-4.17-2.34-5.66
		C348.17,376.85,346.11,376,344,376z"/>
</g>
<g>
</g>
<g>
</g>
<g>
</g>
<g>
</g>
<g>
</g>
<g>
</g>
<g>
</g>
<g>
</g>
<g>
</g>
<g>
</g>
<g>
</g>
<g>
</g>
<g>
</g>
<g>
</g>
<g>
</g>
</svg>
