<?xml version="1.0" encoding="iso-8859-1"?>
<!-- Generator: Adobe Illustrator 17.1.0, SVG Export Plug-In . SVG Version: 6.00 Build 0)  -->
<!DOCTYPE svg PUBLIC "-//W3C//DTD SVG 1.1//EN" "http://www.w3.org/Graphics/SVG/1.1/DTD/svg11.dtd">
<svg version="1.1" id="Capa_1" xmlns="http://www.w3.org/2000/svg" xmlns:xlink="http://www.w3.org/1999/xlink" x="0px" y="0px"
	 viewBox="0 0 512 512" style="enable-background:new 0 0 512 512;" xml:space="preserve">
<path d="M504,480H44.693l55.949-50.863C104.026,430.962,107.894,432,112,432c8.157,0,15.373-4.094,19.711-10.332l44.361,12.098
	C176.98,446.177,187.361,456,200,456c13.234,0,24-10.767,24-24c0-4.174-1.073-8.101-2.955-11.524l53.889-60.229l10.362,16.738
	C281.987,381.1,280,386.321,280,392c0,13.233,10.766,24,24,24c8.341,0,15.698-4.279,20-10.754l116.11,29.027
	C441.26,446.444,451.533,456,464,456c13.234,0,24-10.767,24-24s-10.766-24-24-24c-8.341,0-15.698,4.279-20,10.754l-116.11-29.027
	C326.74,377.556,316.467,368,304,368c-1.752,0-3.46,0.194-5.106,0.552l-12.837-20.736l40.82-45.622
	c2.814,1.161,5.895,1.806,9.123,1.806c13.234,0,24-10.767,24-24c0-7.228-3.216-13.714-8.287-18.118l71.461-181.903
	C423.449,79.988,423.723,80,424,80c13.234,0,24-10.767,24-24s-10.766-24-24-24s-24,10.767-24,24c0,7.228,3.216,13.714,8.287,18.118
	l-71.461,181.903C336.551,256.012,336.277,256,336,256c-13.234,0-24,10.767-24,24c0,4.174,1.073,8.101,2.955,11.524L209.123,409.806
	C206.309,408.645,203.229,408,200,408c-8.158,0-15.373,4.094-19.712,10.333l-44.36-12.098C135.02,393.823,124.639,384,112,384
	c-13.234,0-24,10.767-24,24c0,3.296,0.669,6.439,1.876,9.3L32,469.915V259.648l72.017,27.699C104.011,287.565,104,287.781,104,288
	c0,13.233,10.766,24,24,24s24-10.767,24-24c0-3.201-0.635-6.255-1.777-9.05l38.187-33.943C191.848,246.912,195.798,248,200,248
	c1.752,0,3.46-0.194,5.106-0.552l47.518,76.76c1.514,2.445,4.131,3.79,6.81,3.79c1.437,0,2.892-0.387,4.203-1.199
	c3.756-2.325,4.917-7.256,2.591-11.013l-47.525-76.771C222.013,234.9,224,229.679,224,224c0-13.233-10.766-24-24-24
	s-24,10.767-24,24c0,3.201,0.635,6.255,1.777,9.05l-38.187,33.943C136.152,265.088,132.201,264,128,264
	c-7.29,0-13.825,3.271-18.23,8.417L32,242.506V8c0-4.418-3.582-8-8-8s-8,3.582-8,8v40H8c-4.418,0-8,3.582-8,8s3.582,8,8,8h8v32H8
	c-4.418,0-8,3.582-8,8s3.582,8,8,8h8v32H8c-4.418,0-8,3.582-8,8s3.582,8,8,8h8v32H8c-4.418,0-8,3.582-8,8s3.582,8,8,8h8v32H8
	c-4.418,0-8,3.582-8,8s3.582,8,8,8h8v32H8c-4.418,0-8,3.582-8,8s3.582,8,8,8h8v32H8c-4.418,0-8,3.582-8,8s3.582,8,8,8h8v32H8
	c-4.418,0-8,3.582-8,8s3.582,8,8,8h8v32H8c-4.418,0-8,3.582-8,8s3.582,8,8,8h8v32H8c-4.418,0-8,3.582-8,8s3.582,8,8,8h8v8
	c0,4.418,3.582,8,8,8s8-3.582,8-8v-8h32v8c0,4.418,3.582,8,8,8s8-3.582,8-8v-8h32v8c0,4.418,3.582,8,8,8s8-3.582,8-8v-8h32v8
	c0,4.418,3.582,8,8,8s8-3.582,8-8v-8h32v8c0,4.418,3.582,8,8,8s8-3.582,8-8v-8h32v8c0,4.418,3.582,8,8,8s8-3.582,8-8v-8h32v8
	c0,4.418,3.582,8,8,8s8-3.582,8-8v-8h32v8c0,4.418,3.582,8,8,8s8-3.582,8-8v-8h32v8c0,4.418,3.582,8,8,8s8-3.582,8-8v-8h32v8
	c0,4.418,3.582,8,8,8s8-3.582,8-8v-8h40c4.418,0,8-3.582,8-8S508.418,480,504,480z M464,424c4.411,0,8,3.589,8,8s-3.589,8-8,8
	s-8-3.589-8-8S459.589,424,464,424z M312,392c0,4.411-3.589,8-8,8s-8-3.589-8-8s3.589-8,8-8S312,387.589,312,392z M424,48
	c4.411,0,8,3.589,8,8s-3.589,8-8,8s-8-3.589-8-8S419.589,48,424,48z M200,216c4.411,0,8,3.589,8,8s-3.589,8-8,8s-8-3.589-8-8
	S195.589,216,200,216z M128,280c4.411,0,8,3.589,8,8s-3.589,8-8,8s-8-3.589-8-8S123.589,280,128,280z M336,272c4.411,0,8,3.589,8,8
	s-3.589,8-8,8s-8-3.589-8-8S331.589,272,336,272z M200,424c4.411,0,8,3.589,8,8s-3.589,8-8,8s-8-3.589-8-8S195.589,424,200,424z
	 M112,400c4.411,0,8,3.589,8,8s-3.589,8-8,8s-8-3.589-8-8S107.589,400,112,400z"/>
<g>
</g>
<g>
</g>
<g>
</g>
<g>
</g>
<g>
</g>
<g>
</g>
<g>
</g>
<g>
</g>
<g>
</g>
<g>
</g>
<g>
</g>
<g>
</g>
<g>
</g>
<g>
</g>
<g>
</g>
</svg>
