<?xml version="1.0" encoding="iso-8859-1"?>
<!-- Generator: Adobe Illustrator 17.1.0, SVG Export Plug-In . SVG Version: 6.00 Build 0)  -->
<!DOCTYPE svg PUBLIC "-//W3C//DTD SVG 1.1//EN" "http://www.w3.org/Graphics/SVG/1.1/DTD/svg11.dtd">
<svg version="1.1" id="Capa_1" xmlns="http://www.w3.org/2000/svg" xmlns:xlink="http://www.w3.org/1999/xlink" x="0px" y="0px"
	 viewBox="0 0 512 512" style="enable-background:new 0 0 512 512;" xml:space="preserve">
<path d="M504,488h-32V64c0-4.418-3.582-8-8-8h-48c-4.418,0-8,3.582-8,8v424h-24V112c0-4.418-3.582-8-8-8h-48c-4.418,0-8,3.582-8,8
	v376h-24V304c0-4.418-3.582-8-8-8h-48c-4.418,0-8,3.582-8,8v184h-24V208c0-4.418-3.582-8-8-8h-48c-4.418,0-8,3.582-8,8v280h-24V352
	c0-4.418-3.582-8-8-8H64c-4.418,0-8,3.582-8,8v136H32V16c0-4.418-3.582-8-8-8s-8,3.582-8,8v40H8c-4.418,0-8,3.582-8,8s3.582,8,8,8h8
	v32H8c-4.418,0-8,3.582-8,8s3.582,8,8,8h8v32H8c-4.418,0-8,3.582-8,8s3.582,8,8,8h8v32H8c-4.418,0-8,3.582-8,8s3.582,8,8,8h8v32H8
	c-4.418,0-8,3.582-8,8s3.582,8,8,8h8v32H8c-4.418,0-8,3.582-8,8s3.582,8,8,8h8v32H8c-4.418,0-8,3.582-8,8s3.582,8,8,8h8v32H8
	c-4.418,0-8,3.582-8,8s3.582,8,8,8h8v32H8c-4.418,0-8,3.582-8,8s3.582,8,8,8h8v32H8c-4.418,0-8,3.582-8,8s3.582,8,8,8h16h40h48h40
	h48h40h48h40h48h40h48h40c4.418,0,8-3.582,8-8S508.418,488,504,488z M456,72v80h-32V72H456z M368,120v128h-32V120H368z M280,312v32
	h-32v-32H280z M192,216v80h-32v-80H192z M104,360v32H72v-32H104z M72,488v-80h32v80H72z M160,488V312h32v176H160z M248,488V360h32
	v128H248z M336,488V264h32v224H336z M424,488V168h32v320H424z"/>
<g>
</g>
<g>
</g>
<g>
</g>
<g>
</g>
<g>
</g>
<g>
</g>
<g>
</g>
<g>
</g>
<g>
</g>
<g>
</g>
<g>
</g>
<g>
</g>
<g>
</g>
<g>
</g>
<g>
</g>
</svg>
