<?xml version="1.0" encoding="iso-8859-1"?>
<!-- Generator: Adobe Illustrator 17.1.0, SVG Export Plug-In . SVG Version: 6.00 Build 0)  -->
<!DOCTYPE svg PUBLIC "-//W3C//DTD SVG 1.1//EN" "http://www.w3.org/Graphics/SVG/1.1/DTD/svg11.dtd">
<svg version="1.1" id="Capa_1" xmlns="http://www.w3.org/2000/svg" xmlns:xlink="http://www.w3.org/1999/xlink" x="0px" y="0px"
	 viewBox="0 0 512 512" style="enable-background:new 0 0 512 512;" xml:space="preserve">
<g>
	<path d="M504,43.999h-16H264v-24c0-4.418-3.582-8-8-8s-8,3.582-8,8v24H24H8c-4.418,0-8,3.582-8,8s3.582,8,8,8h8v280
		c0,13.233,10.767,24,24,24h122.266l-15.799,34.23c-1.41,1.353-2.32,3.216-2.443,5.293l-39.288,85.124
		c-1.852,4.012-0.101,8.765,3.911,10.616c1.086,0.501,2.226,0.738,3.348,0.738c3.024,0,5.918-1.724,7.269-4.649l38.47-83.353
		h196.532l38.47,83.353c1.351,2.926,4.245,4.649,7.269,4.649c1.122,0,2.262-0.237,3.348-0.738c4.012-1.852,5.763-6.604,3.911-10.616
		l-39.288-85.124c-0.123-2.078-1.033-3.94-2.443-5.293l-15.799-34.23H472c13.233,0,24-10.767,24-24v-280h8c4.418,0,8-3.582,8-8
		S508.418,43.999,504,43.999z M346.881,395.999H165.119l14.769-32h152.224L346.881,395.999z M480,339.999c0,4.411-3.589,8-8,8H40
		c-4.411,0-8-3.589-8-8v-280h448V339.999z"/>
	<path d="M248,299.999v-23.998v-0.005v-39.995v-0.005v-39.995v-0.005v-23.998c0-4.418-3.582-8-8-8h-48c-4.418,0-8,3.582-8,8v31.998
		v0.005v39.995v0.005v39.995v0.005v15.998h-16v-56c0-4.418-3.582-8-8-8h-48c-4.418,0-8,3.582-8,8v56H80v-200c0-4.418-3.582-8-8-8
		s-8,3.582-8,8v208c0,4.418,3.582,8,8,8h40h48h32h48h32h48h32h48h40c4.418,0,8-3.582,8-8s-3.582-8-8-8h-32v-23.998v-0.005v-39.995
		v-0.005v-39.995v-0.005v-39.995v-0.005v-39.995v-0.005V99.999c0-4.418-3.582-8-8-8h-48c-4.418,0-8,3.582-8,8v23.998v0.005v39.995
		v0.005v39.995v0.005v39.995v0.005v39.995v0.005v15.998h-16v-88c0-4.418-3.582-8-8-8h-48c-4.418,0-8,3.582-8,8v88H248z M200,207.313
		l27.314-27.314H232v12.686l-32,32V207.313z M200,247.313l32-32v17.372l-32,32V247.313z M204.686,179.999L200,184.685v-4.686
		H204.686z M200,287.313l32-32v17.372l-27.314,27.314H200V287.313z M120,299.999v-48h32v48H120z M227.314,299.999l4.686-4.686v4.686
		H227.314z M387.314,299.999l4.686-4.686v4.686H387.314z M360,167.313l32-32v17.372l-32,32V167.313z M360,207.313l32-32v17.372
		l-32,32V207.313z M360,247.313l32-32v17.372l-32,32V247.313z M392,112.685l-32,32v-17.372l19.314-19.314H392V112.685z M360,287.313
		l32-32v17.372l-27.314,27.314H360V287.313z M280,219.999h32v80h-32V219.999z"/>
</g>
<g>
</g>
<g>
</g>
<g>
</g>
<g>
</g>
<g>
</g>
<g>
</g>
<g>
</g>
<g>
</g>
<g>
</g>
<g>
</g>
<g>
</g>
<g>
</g>
<g>
</g>
<g>
</g>
<g>
</g>
</svg>
