<?xml version="1.0" encoding="iso-8859-1"?>
<!-- Generator: Adobe Illustrator 17.1.0, SVG Export Plug-In . SVG Version: 6.00 Build 0)  -->
<!DOCTYPE svg PUBLIC "-//W3C//DTD SVG 1.1//EN" "http://www.w3.org/Graphics/SVG/1.1/DTD/svg11.dtd">
<svg version="1.1" id="Capa_1" xmlns="http://www.w3.org/2000/svg" xmlns:xlink="http://www.w3.org/1999/xlink" x="0px" y="0px"
	 viewBox="0 0 512 512" style="enable-background:new 0 0 512 512;" xml:space="preserve">
<g>
	<path d="M87.847,280.104c0,27.829,10.137,56.011,27.811,77.321c18.586,22.409,42.849,34.751,68.318,34.751
		c25.466,0,49.699-12.335,68.237-34.732c17.616-21.284,27.719-49.455,27.719-77.291v-0.143c0-4.418-3.582-8-8-8s-8,3.582-8,8v0.143
		c0,24.174-8.764,48.626-24.045,67.089c-15.442,18.658-35.299,28.934-55.911,28.934c-20.623,0-40.512-10.287-56.003-28.965
		c-15.333-18.487-24.126-42.947-24.126-67.107v-9.595c0-19.791,13.293-46.696,18.333-56.187c32.113-3.683,63.08-2.321,92.099,4.084
		c0.581,0.128,1.161,0.189,1.732,0.189c3.671,0,6.98-2.544,7.804-6.277c0.952-4.314-1.773-8.584-6.088-9.536
		c-31.833-7.026-65.791-8.346-100.941-3.936c-2.628,0.125-5.14,1.536-6.553,3.983c-0.512,0.886-7.474,13.042-13.5,28.589
		c-2.735-14.816-5.242-31.478-5.242-42.78c0-27.988,17.719-40.516,35.28-40.516c0.58,0,1.144-0.065,1.688-0.182
		c0.551,0.118,1.113,0.183,1.677,0.183c1.686,0,3.387-0.531,4.833-1.63c17.543-13.325,40.98-11.589,63.694-7.728
		c4.356,0.741,8.488-2.19,9.228-6.546c0.741-4.356-2.19-8.487-6.546-9.228c-24.198-4.113-51.751-6.161-73.856,9.167
		c-0.237-0.021-0.475-0.036-0.718-0.036c-15.185,0-28.667,6.068-37.963,17.086c-8.587,10.178-13.317,24.181-13.317,39.43
		c0,24.975,10.624,71.13,12.354,78.481V280.104z"/>
	<path d="M321.753,409.886c-0.172-0.048-0.346-0.09-0.521-0.127l-47.597-9.956l-12.583-19.081c-0.089-0.135-0.182-0.267-0.279-0.396
		c-2.288-3.051-5.771-5.063-9.557-5.523c-3.782-0.458-7.649,0.662-10.601,3.077c-0.051,0.042-0.103,0.085-0.153,0.129
		l-56.594,48.716l-56.593-48.716c-0.051-0.043-0.102-0.086-0.153-0.129c-2.952-2.415-6.814-3.537-10.601-3.077
		c-3.786,0.46-7.269,2.473-9.557,5.523c-0.097,0.129-0.19,0.261-0.279,0.396l-12.583,19.081l-47.597,9.956
		c-0.175,0.037-0.349,0.079-0.521,0.127c-13.84,3.877-25.614,12.458-34.051,24.815C4.238,445.974,0,459.582,0,473.019v15.041
		c0,13.195,11.75,23.931,26.193,23.931h139.46c0.01,0,0.02,0.001,0.03,0.001c0.011,0,0.022-0.001,0.033-0.001h36.303
		c0.011,0,0.022,0.001,0.033,0.001c0.01,0,0.02-0.001,0.03-0.001h139.461c14.443,0,26.193-10.735,26.193-23.931v-15.041
		c0-13.437-4.238-27.045-11.934-38.317C347.367,422.345,335.593,413.764,321.753,409.886z M249.11,391.677l9.931,15.06
		l-39.749,54.654l-23.671-23.67L249.11,391.677z M178.621,480.056h10.496l3.187,15.935h-16.87L178.621,480.056z M191.869,459.673
		c0,2.634-1.605,4.382-2.667,4.382h-10.667c-1.062,0-2.667-1.748-2.667-4.382v-3.079l8-8l8,8V459.673z M118.628,391.677
		l53.488,46.043l-23.67,23.67l-39.749-54.654L118.628,391.677z M16,488.06v-15.041c0-18.872,11.696-41.252,34.055-47.656
		l45.486-9.514l45.472,62.524c1.376,1.893,3.511,3.087,5.844,3.271c0.209,0.017,0.418,0.024,0.626,0.024
		c2.113,0,4.15-0.837,5.656-2.343l9.328-9.329c0.423,0.782,0.888,1.531,1.4,2.242l-4.75,23.752H26.193
		C20.668,495.99,16,492.358,16,488.06z M351.738,488.06c0,4.299-4.668,7.931-10.193,7.931H208.62l-4.75-23.752
		c0.512-0.71,0.977-1.46,1.4-2.242l9.329,9.329c1.506,1.506,3.543,2.343,5.656,2.343c0.208,0,0.417-0.008,0.626-0.024
		c2.333-0.183,4.468-1.378,5.844-3.271l45.472-62.524l45.486,9.514c22.358,6.404,34.055,28.784,34.055,47.656V488.06z"/>
	<path d="M368,0.009c-79.402,0-144,64.598-144,144s64.598,144,144,144s144-64.598,144-144S447.402,0.009,368,0.009z M368,272.009
		c-70.58,0-128-57.421-128-128s57.42-128,128-128s128,57.421,128,128S438.58,272.009,368,272.009z"/>
	<path d="M455.96,79.218c-0.011-0.114-0.033-0.225-0.049-0.337c-0.021-0.146-0.038-0.292-0.067-0.437
		c-0.026-0.132-0.062-0.26-0.095-0.389c-0.031-0.124-0.058-0.248-0.095-0.37c-0.039-0.127-0.087-0.25-0.131-0.375
		c-0.043-0.121-0.083-0.244-0.133-0.363c-0.049-0.118-0.106-0.23-0.16-0.345c-0.057-0.122-0.111-0.245-0.175-0.364
		c-0.06-0.112-0.128-0.218-0.193-0.327c-0.069-0.115-0.134-0.231-0.209-0.343c-0.082-0.122-0.173-0.237-0.261-0.355
		c-0.069-0.091-0.132-0.185-0.205-0.274c-0.335-0.408-0.709-0.783-1.118-1.118c-0.089-0.073-0.183-0.136-0.274-0.205
		c-0.117-0.088-0.233-0.179-0.355-0.261c-0.112-0.075-0.228-0.14-0.342-0.208c-0.109-0.065-0.216-0.134-0.328-0.194
		c-0.119-0.063-0.242-0.118-0.363-0.175c-0.115-0.054-0.228-0.112-0.346-0.161c-0.12-0.049-0.242-0.089-0.363-0.133
		c-0.125-0.045-0.248-0.093-0.375-0.131c-0.122-0.037-0.247-0.064-0.371-0.095c-0.129-0.032-0.257-0.069-0.389-0.095
		c-0.144-0.029-0.29-0.046-0.435-0.066c-0.113-0.016-0.224-0.038-0.338-0.049c-0.264-0.026-0.528-0.04-0.793-0.04H400
		c-4.418,0-8,3.582-8,8s3.582,8,8,8h28.687L368,148.695l-18.343-18.344c-3.124-3.124-8.189-3.124-11.313,0l-64,64
		c-3.125,3.125-3.125,8.19,0,11.314c1.562,1.562,3.609,2.343,5.657,2.343s4.095-0.781,5.657-2.343L344,147.322l18.343,18.344
		c1.172,1.171,2.616,1.903,4.129,2.196c0.504,0.098,1.016,0.146,1.528,0.146s1.024-0.049,1.528-0.146
		c1.513-0.293,2.957-1.025,4.129-2.196c0.001-0.001,0.002-0.002,0.002-0.003L440,99.322v28.687c0,4.418,3.582,8,8,8s8-3.582,8-8
		V80.011C456,79.747,455.986,79.482,455.96,79.218z"/>
</g>
<g>
</g>
<g>
</g>
<g>
</g>
<g>
</g>
<g>
</g>
<g>
</g>
<g>
</g>
<g>
</g>
<g>
</g>
<g>
</g>
<g>
</g>
<g>
</g>
<g>
</g>
<g>
</g>
<g>
</g>
</svg>
