<?xml version="1.0" encoding="iso-8859-1"?>
<!-- Generator: Adobe Illustrator 17.1.0, SVG Export Plug-In . SVG Version: 6.00 Build 0)  -->
<!DOCTYPE svg PUBLIC "-//W3C//DTD SVG 1.1//EN" "http://www.w3.org/Graphics/SVG/1.1/DTD/svg11.dtd">
<svg version="1.1" id="Capa_1" xmlns="http://www.w3.org/2000/svg" xmlns:xlink="http://www.w3.org/1999/xlink" x="0px" y="0px"
	 viewBox="0 0 512 512" style="enable-background:new 0 0 512 512;" xml:space="preserve">
<g>
	<path d="M328,272h8c4.418,0,8-3.582,8-8s-3.582-8-8-8h-8c-4.418,0-8,3.582-8,8S323.582,272,328,272z"/>
	<path d="M344,312h-8c-4.418,0-8,3.582-8,8s3.582,8,8,8h8c4.418,0,8-3.582,8-8S348.418,312,344,312z"/>
	<path d="M336,360h-8c-4.418,0-8,3.582-8,8s3.582,8,8,8h8c4.418,0,8-3.582,8-8S340.418,360,336,360z"/>
	<path d="M476,200H268.556C275.887,183.246,288,151.419,288,124c0-19.851-16.149-36-36-36s-36,16.149-36,36
		c0,15.837-9.329,44.856-29.811,71.146C170.247,215.608,143.047,240,104,240c-0.85,0-1.667,0.135-2.435,0.38
		C95.872,235.178,88.301,232,80,232H32c-17.645,0-32,14.355-32,32v112c0,17.645,14.355,32,32,32h48
		c8.301,0,15.872-3.178,21.565-8.38c0.768,0.246,1.585,0.38,2.435,0.38c13.928,0,28.55,6.456,42.692,12.7
		c13.162,5.811,25.594,11.3,37.117,11.3H340c19.851,0,36-16.149,36-36c0-5.652-1.298-11.087-3.76-15.993
		C384.056,366.057,392,353.873,392,340c0-7.082-2.098-13.881-5.942-19.672C394.676,313.633,400,303.231,400,292
		c0-7.395-2.242-14.276-6.081-20H476c19.851,0,36-16.149,36-36S495.851,200,476,200z M80,392H32c-8.822,0-16-7.178-16-16V264
		c0-8.822,7.178-16,16-16h48c8.822,0,16,7.178,16,16v112C96,384.822,88.822,392,80,392z M476,256H363.988c-0.004,0-0.009,0-0.013,0
		c-4.413,0.007-7.987,3.586-7.987,8c0,4.418,3.582,8,8,8H364c11.028,0,20,8.972,20,20c0,8.344-5.333,15.869-13.271,18.727
		c-2.723,0.98-4.705,3.354-5.181,6.209c-0.477,2.854,0.625,5.744,2.882,7.557C373.241,328.355,376,334.008,376,340
		c0,10.095-7.626,18.578-17.739,19.732c-3.093,0.353-5.7,2.468-6.683,5.421c-0.983,2.954-0.164,6.21,2.1,8.346
		C357.755,377.347,360,382.496,360,388c0,11.028-8.972,20-20,20H183.809c-8.147,0-19.08-4.827-30.654-9.938
		c-12.945-5.714-27.387-12.083-42.276-13.678C111.605,381.71,112,378.901,112,376V264c0-2.847-0.378-5.605-1.079-8.234
		c32.943-2.196,63.929-20.03,87.89-50.786C221.738,175.552,232,143.104,232,124c0-11.028,8.972-20,20-20s20,8.972,20,20
		c0,34.603-22.895,79.91-23.125,80.361c-1.266,2.48-1.152,5.44,0.302,7.815c1.454,2.375,4.039,3.823,6.823,3.823h220
		c11.028,0,20,8.972,20,20S487.028,256,476,256z"/>
	<path d="M64.064,264C55.207,264,48,271.206,48,280.064s7.207,16.064,16.064,16.064s16.064-7.206,16.064-16.064
		S72.922,264,64.064,264z"/>
</g>
<g>
</g>
<g>
</g>
<g>
</g>
<g>
</g>
<g>
</g>
<g>
</g>
<g>
</g>
<g>
</g>
<g>
</g>
<g>
</g>
<g>
</g>
<g>
</g>
<g>
</g>
<g>
</g>
<g>
</g>
</svg>
