<?xml version="1.0" encoding="iso-8859-1"?>
<!-- Generator: Adobe Illustrator 17.1.0, SVG Export Plug-In . SVG Version: 6.00 Build 0)  -->
<!DOCTYPE svg PUBLIC "-//W3C//DTD SVG 1.1//EN" "http://www.w3.org/Graphics/SVG/1.1/DTD/svg11.dtd">
<svg version="1.1" id="Capa_1" xmlns="http://www.w3.org/2000/svg" xmlns:xlink="http://www.w3.org/1999/xlink" x="0px" y="0px"
	 viewBox="0 0 511.969 511.969" style="enable-background:new 0 0 511.969 511.969;" xml:space="preserve">
<g>
	<path d="M183.705,117.997c0,20.649,7.576,41.56,20.786,57.37c13.964,16.713,32.232,25.917,51.44,25.917
		c19.206,0,37.453-9.2,51.382-25.905c13.166-15.791,20.717-36.693,20.717-57.347v-17.495c9.734-41.813,6.114-76.145,2.8-86.289
		c-1.157-3.541-4.548-5.716-8.101-5.492c-0.558-0.04-1.129-0.026-1.705,0.056c-10.487,1.486-23.614-1.13-37.515-3.901
		c-23.017-4.587-48.99-9.757-69.352,3.824C191.29,8.78,174.702,26.889,174.702,51.83c0,18.04,7.562,50.933,9.003,57.037V117.997z
		 M295.024,165.133c-10.835,12.995-24.718,20.151-39.093,20.151c-14.383,0-28.291-7.165-39.162-20.176
		c-10.845-12.979-17.064-30.151-17.064-47.111v-6.941c0-12.198,7.831-29.626,12.535-38.563c29.762-3.226,53.492,0.185,68.379,3.733
		c12.021,2.865,20.308,6.247,24.109,7.971l7.301,17.078v16.757C312.031,135.003,305.832,152.17,295.024,165.133z M214.243,24.732
		c0.413,0,0.816-0.041,1.212-0.101c2.065,0.323,4.253-0.153,6.053-1.511c14.951-11.273,37.281-6.822,58.874-2.518
		c11.462,2.285,23.229,4.63,34.135,4.63c0.797,0,1.589-0.015,2.377-0.041c1.42,9.253,2.387,26.396-0.188,47.613
		c-0.574-0.605-1.235-1.129-1.979-1.533c-1.698-0.922-42.237-22.426-107.944-14.265c-2.589,0.15-5.057,1.551-6.46,3.96
		c-0.299,0.514-3.563,6.171-7.119,14.157c-1.411-8.487-2.503-17.058-2.503-23.294C190.702,38.342,197.981,24.732,214.243,24.732z"/>
	<path d="M140.944,287.96h229.818c11.722,0,21.259-8.758,21.259-19.524v-10.881c0-18.904-12.061-41.395-35.111-47.806
		c-0.171-0.047-0.343-0.089-0.517-0.125l-33.82-7.022l-8.674-13.056c-0.089-0.135-0.183-0.267-0.28-0.396
		c-2.019-2.672-5.087-4.437-8.418-4.842c-3.331-0.404-6.739,0.576-9.343,2.691c-0.052,0.042-0.103,0.084-0.154,0.128l-39.85,34.051
		l-39.85-34.051c-0.05-0.043-0.102-0.086-0.153-0.128c-2.604-2.115-6.006-3.098-9.343-2.691c-3.331,0.405-6.399,2.169-8.418,4.842
		c-0.097,0.129-0.191,0.261-0.28,0.396l-8.674,13.056l-33.82,7.022c-0.174,0.036-0.346,0.078-0.517,0.125
		c-23.051,6.411-35.111,28.902-35.111,47.806v10.881C119.685,279.201,129.222,287.96,140.944,287.96z M247.984,251.105l7.901-8.029
		l8.1,8.143v20.741h-16.001V251.105z M376.021,257.555v10.881c0,1.667-2.16,3.524-5.259,3.524h-90.777v-8
		c0.13,0,0.261-0.003,0.391-0.009c2.262-0.111,4.372-1.175,5.805-2.929l34.672-42.436l32.011,6.646
		C368.068,229.596,376.021,244.76,376.021,257.555z M302.95,201.98l4.847,7.296l-28.396,34.753l-11.791-11.852L302.95,201.98z
		 M208.756,201.98l35.375,30.228l-11.617,11.806l-28.594-34.755L208.756,201.98z M135.685,257.555
		c0-12.795,7.953-27.958,23.157-32.322l32.03-6.65l34.933,42.46c1.44,1.751,3.557,2.809,5.822,2.91
		c0.119,0.005,0.237,0.008,0.356,0.008v8h-91.04c-3.099,0-5.259-1.857-5.259-3.524V257.555z"/>
	<path d="M407.991,375.964v48.002c0,4.418,3.582,8,8,8s8-3.582,8-8v-48.002c0-22.057-17.945-40.001-40.001-40.001H263.984v-24.001
		c0-4.418-3.582-8-8-8s-8,3.582-8,8v24.001H127.979c-22.057,0-40.001,17.944-40.001,40.001v48.002c0,4.418,3.582,8,8,8s8-3.582,8-8
		v-48.002c0-13.234,10.767-24.001,24.001-24.001h120.005v72.003c0,4.418,3.582,8,8,8s8-3.582,8-8v-72.003h120.005
		C397.224,351.963,407.991,362.729,407.991,375.964z"/>
	<path d="M255.984,447.967c-17.646,0-32.001,14.356-32.001,32.001c0,17.646,14.355,32.001,32.001,32.001
		s32.001-14.355,32.001-32.001C287.985,462.322,273.63,447.967,255.984,447.967z M255.984,495.969
		c-8.823,0-16.001-7.178-16.001-16.001c0-8.823,7.178-16.001,16.001-16.001s16.001,7.178,16.001,16.001
		C271.985,488.791,264.807,495.969,255.984,495.969z"/>
	<path d="M415.991,447.967c-17.646,0-32.001,14.356-32.001,32.001c0,17.646,14.355,32.001,32.001,32.001
		c17.645,0,32-14.355,32-32.001C447.991,462.322,433.636,447.967,415.991,447.967z M415.991,495.969
		c-8.823,0-16.001-7.178-16.001-16.001c0-8.823,7.178-16.001,16.001-16.001s16,7.178,16,16.001
		C431.991,488.791,424.813,495.969,415.991,495.969z"/>
	<path d="M95.978,447.967c-17.646,0-32.001,14.356-32.001,32.001c0,17.646,14.355,32.001,32.001,32.001s32.001-14.355,32.001-32.001
		C127.979,462.322,113.624,447.967,95.978,447.967z M95.978,495.969c-8.823,0-16.001-7.178-16.001-16.001
		c0-8.823,7.178-16.001,16.001-16.001s16.001,7.178,16.001,16.001C111.979,488.791,104.801,495.969,95.978,495.969z"/>
</g>
<g>
</g>
<g>
</g>
<g>
</g>
<g>
</g>
<g>
</g>
<g>
</g>
<g>
</g>
<g>
</g>
<g>
</g>
<g>
</g>
<g>
</g>
<g>
</g>
<g>
</g>
<g>
</g>
<g>
</g>
</svg>
