<?xml version="1.0" encoding="iso-8859-1"?>
<!-- Generator: Adobe Illustrator 17.1.0, SVG Export Plug-In . SVG Version: 6.00 Build 0)  -->
<!DOCTYPE svg PUBLIC "-//W3C//DTD SVG 1.1//EN" "http://www.w3.org/Graphics/SVG/1.1/DTD/svg11.dtd">
<svg version="1.1" id="Capa_1" xmlns="http://www.w3.org/2000/svg" xmlns:xlink="http://www.w3.org/1999/xlink" x="0px" y="0px"
	 viewBox="0 0 512.001 512.001" style="enable-background:new 0 0 512.001 512.001;" xml:space="preserve">
<g>
	<path d="M480.702,414.036c-10.786-15.798-25.827-26.765-43.499-31.716c-0.172-0.048-0.346-0.091-0.521-0.127l-63.819-13.349
		l-17.178-26.048c-0.088-0.135-0.182-0.267-0.278-0.396c-2.603-3.471-6.565-5.761-10.872-6.283c-4.304-0.521-8.702,0.753-12.06,3.5
		c-0.051,0.042-0.103,0.085-0.153,0.129l-76.322,65.698l-76.322-65.698c-0.051-0.044-0.102-0.087-0.153-0.129
		c-3.358-2.748-7.755-4.022-12.06-3.5c-4.307,0.522-8.27,2.813-10.872,6.283c-0.097,0.129-0.19,0.261-0.278,0.396l-17.178,26.048
		l-63.819,13.349c-0.175,0.036-0.349,0.079-0.521,0.127c-17.671,4.951-32.713,15.918-43.499,31.716
		c-9.865,14.45-15.298,31.89-15.298,49.107v19.842c0,15.999,14.355,29.015,32,29.015h183.979c0.01,0,0.02,0.001,0.03,0.001
		c0.011,0,0.022-0.001,0.033-0.001h47.917c0.011,0,0.022,0.001,0.033,0.001c0.01,0,0.02-0.001,0.03-0.001h183.979
		c17.645,0,32-13.016,32-29.015v-19.842C496.001,445.926,490.568,428.486,480.702,414.036z M342.598,352.012l15.672,23.766
		l-55.233,75.945l-17.378-17.377c-0.001-0.001-0.003-0.002-0.004-0.004l-17.902-17.902L342.598,352.012z M248.001,472h16
		c0.481,0,0.958-0.019,1.432-0.046L270.242,496h-28.483l4.809-24.046C247.043,471.981,247.52,472,248.001,472z M272.001,448
		c0,4.411-3.589,8-8,8h-16c-4.411,0-8-3.589-8-8v-4.687l16-16l16,16V448z M169.403,352.012l74.845,64.427l-17.902,17.902
		c-0.001,0.001-0.003,0.002-0.004,0.004l-17.378,17.377l-55.233-75.945L169.403,352.012z M32.001,482.985v-19.842
		c0-25.879,16.095-56.585,46.863-65.346l61.71-12.908l60.957,83.815c1.376,1.893,3.511,3.087,5.844,3.271
		c0.209,0.017,0.418,0.024,0.626,0.024c2.113,0,4.15-0.837,5.656-2.343l12.261-12.261c1.309,3.065,3.242,5.801,5.634,8.057
		L225.442,496H48.001C39.178,496,32.001,490.162,32.001,482.985z M480.001,482.985c0,7.176-7.178,13.015-16,13.015H286.559
		l-6.109-30.547c2.391-2.255,4.324-4.991,5.634-8.057l12.261,12.261C299.85,471.163,301.887,472,304,472
		c0.208,0,0.417-0.008,0.626-0.024c2.333-0.183,4.468-1.378,5.844-3.271l60.957-83.815l61.71,12.908
		c30.768,8.76,46.863,39.467,46.863,65.346V482.985z"/>
	<path d="M200.001,276.665V312c0,15.176,10.623,27.91,24.822,31.178C228.091,357.376,240.824,368,256.001,368
		s27.91-10.624,31.178-24.822c14.199-3.268,24.822-16.002,24.822-31.178v-35.335c51.665-21.891,88-73.115,88-132.665
		c0-79.402-64.598-144-144-144s-144,64.598-144,144C112.001,203.55,148.336,254.774,200.001,276.665z M256.001,352
		c-5.907,0-11.063-3.226-13.835-8h27.67C267.064,348.774,261.907,352,256.001,352z M296.001,312c0,8.822-7.178,16-16,16h-48
		c-8.822,0-16-7.178-16-16v-29.658c12.705,3.679,26.125,5.658,40,5.658s27.295-1.979,40-5.658V312z M239.731,269.938l-23.911-89.658
		c3.295,1.862,7.728,3.719,14.551,3.719c8.689,0,13.51-3.011,17.031-5.209c2.776-1.734,4.452-2.78,8.555-2.78
		c4.117,0,5.797,1.048,8.581,2.783c3.524,2.197,8.35,5.206,17.046,5.206c6.855,0,11.3-1.87,14.603-3.738l-23.916,89.676
		c-0.094,0.352-0.154,0.704-0.199,1.055c-5.266,0.663-10.629,1.006-16.071,1.006s-10.806-0.344-16.071-1.006
		C239.884,270.642,239.824,270.29,239.731,269.938z M256.001,16c70.58,0,128,57.421,128,128c0,59.004-40.134,108.802-94.534,123.553
		l30.264-113.48c1.138-4.269-1.399-8.653-5.668-9.791c-4.27-1.14-8.652,1.399-9.792,5.668l-2.814,10.553
		c-5.237,0.942-8.636,3.059-11.293,4.715c-2.783,1.735-4.463,2.783-8.581,2.783s-5.797-1.048-8.581-2.783
		c-3.524-2.197-8.35-5.206-17.046-5.206c-8.689,0-13.51,3.011-17.031,5.209c-2.776,1.734-4.452,2.78-8.555,2.78
		c-4.102,0-5.776-1.046-8.551-2.779c-2.652-1.657-6.045-3.774-11.274-4.717l-2.815-10.554c-1.139-4.269-5.522-6.809-9.792-5.668
		c-4.269,1.138-6.807,5.522-5.668,9.791l30.264,113.48c-54.4-14.75-94.534-64.549-94.534-123.553
		C128.001,73.421,185.421,16,256.001,16z"/>
	<path d="M292.962,55.371c23.146,9.665,41.971,28.479,51.648,51.619c1.283,3.068,4.254,4.916,7.384,4.916
		c1.028,0,2.075-0.2,3.083-0.622c4.076-1.704,5.999-6.391,4.294-10.467c-11.288-26.991-33.246-48.938-60.244-60.211
		c-4.078-1.702-8.762,0.223-10.465,4.3C286.959,48.983,288.885,53.668,292.962,55.371z"/>
</g>
<g>
</g>
<g>
</g>
<g>
</g>
<g>
</g>
<g>
</g>
<g>
</g>
<g>
</g>
<g>
</g>
<g>
</g>
<g>
</g>
<g>
</g>
<g>
</g>
<g>
</g>
<g>
</g>
<g>
</g>
</svg>
