<?xml version="1.0" encoding="iso-8859-1"?>
<!-- Generator: Adobe Illustrator 17.1.0, SVG Export Plug-In . SVG Version: 6.00 Build 0)  -->
<!DOCTYPE svg PUBLIC "-//W3C//DTD SVG 1.1//EN" "http://www.w3.org/Graphics/SVG/1.1/DTD/svg11.dtd">
<svg version="1.1" id="Capa_1" xmlns="http://www.w3.org/2000/svg" xmlns:xlink="http://www.w3.org/1999/xlink" x="0px" y="0px"
	 viewBox="0 0 512 512" style="enable-background:new 0 0 512 512;" xml:space="preserve">
<g>
	<path d="M256,152c14.537,0,27.995,6.931,31.309,16.132C287.768,169.398,288,170.7,288,172c0,13.233,10.766,24,24,24
		s24-10.767,24-24c0-6.854-1.189-13.633-3.536-20.149c-7.872-21.85-27.438-38.258-52.966-44.747C277.231,96.21,267.556,88,256,88
		c-11.533,0-21.191,8.178-23.484,19.038c-14.871,3.895-28.288,11.493-38.259,21.755C182.484,140.911,176,156.255,176,172
		c0,37.495,35.888,68,80,68c15.105,0,32,8.553,32,20s-16.895,20-32,20s-32-8.553-32-20c0-13.233-10.766-24-24-24s-24,10.767-24,24
		c0,15.745,6.484,31.089,18.257,43.207c9.971,10.262,23.388,17.86,38.259,21.755C234.809,335.822,244.467,344,256,344
		s21.191-8.178,23.484-19.038c14.871-3.895,28.288-11.493,38.259-21.755C329.516,291.089,336,275.745,336,260
		c0-37.495-35.888-68-80-68c-15.105,0-32-8.553-32-20S240.895,152,256,152z M256,208c35.29,0,64,23.327,64,52
		c0,23.865-20.815,45.144-49.494,50.596c-3.774,0.718-6.506,4.018-6.506,7.859V320c0,4.411-3.589,8-8,8s-8-3.589-8-8v-1.545
		c0-3.842-2.731-7.142-6.506-7.859C212.815,305.144,192,283.865,192,260c0-4.411,3.589-8,8-8s8,3.589,8,8c0,19.851,21.533,36,48,36
		s48-16.149,48-36s-21.533-36-48-36c-35.29,0-64-23.327-64-52c0-23.865,20.815-45.144,49.494-50.596
		c3.774-0.718,6.506-4.018,6.506-7.859V112c0-4.411,3.589-8,8-8s8,3.589,8,8v1.642c0,3.853,2.746,7.158,6.533,7.864
		c22.477,4.192,40.439,17.898,46.877,35.768C319.129,162.044,320,166.999,320,172c0,4.411-3.589,8-8,8s-8-3.589-8-8
		c0-3.161-0.554-6.295-1.641-9.301C296.696,146.979,277.633,136,256,136c-26.467,0-48,16.149-48,36S229.533,208,256,208z"/>
	<path d="M464,208C464,93.309,370.691,0,256,0S48,93.309,48,208c0,87.417,54.416,165.127,136,195.19V440
		c0,19.554,14.104,35.875,32.672,39.327C220.125,497.896,236.446,512,256,512s35.875-14.104,39.328-32.673
		C313.896,475.875,328,459.554,328,440v-36.81C409.584,373.127,464,295.417,464,208z M256,496c-10.429,0-19.321-6.689-22.624-16
		h45.248C275.321,489.311,266.429,496,256,496z M317.442,389.961c-1.262,0.426-2.344,1.14-3.207,2.039h-10.237c-4.418,0-8,3.582-8,8
		s3.582,8,8,8H312v32c0,13.233-10.766,24-24,24h-64c-13.234,0-24-10.767-24-24v-32h72c4.418,0,8-3.582,8-8s-3.582-8-8-8h-74.235
		c-0.863-0.899-1.944-1.613-3.207-2.039C116.467,363.602,64,290.478,64,208c0-105.869,86.131-192,192-192s192,86.131,192,192
		C448,290.478,395.533,363.602,317.442,389.961z"/>
	<path d="M421.981,149.329c-8.675-24.542-23.04-47.291-41.54-65.789c-18.501-18.498-41.252-32.858-65.796-41.53
		c-4.165-1.473-8.737,0.712-10.208,4.878c-1.472,4.166,0.712,8.736,4.878,10.208c22.307,7.882,42.99,20.938,59.813,37.759
		s29.883,37.502,37.768,59.807c1.161,3.284,4.247,5.336,7.542,5.336c0.885,0,1.785-0.147,2.667-0.459
		C421.271,158.065,423.454,153.494,421.981,149.329z"/>
</g>
<g>
</g>
<g>
</g>
<g>
</g>
<g>
</g>
<g>
</g>
<g>
</g>
<g>
</g>
<g>
</g>
<g>
</g>
<g>
</g>
<g>
</g>
<g>
</g>
<g>
</g>
<g>
</g>
<g>
</g>
</svg>
