<?xml version="1.0" encoding="iso-8859-1"?>
<!-- Generator: Adobe Illustrator 17.1.0, SVG Export Plug-In . SVG Version: 6.00 Build 0)  -->
<!DOCTYPE svg PUBLIC "-//W3C//DTD SVG 1.1//EN" "http://www.w3.org/Graphics/SVG/1.1/DTD/svg11.dtd">
<svg version="1.1" id="Capa_1" xmlns="http://www.w3.org/2000/svg" xmlns:xlink="http://www.w3.org/1999/xlink" x="0px" y="0px"
	 viewBox="0 0 512 512" style="enable-background:new 0 0 512 512;" xml:space="preserve">
<g>
	<path d="M272,160h-40c-4.418,0-8,3.582-8,8s3.582,8,8,8h14.591l-38.487,236.252c-0.069,0.425-0.104,0.855-0.104,1.286
		C208,428.129,218.767,440,232,440h15.998c0.004,0,0.008,0.001,0.012,0.001c0.007,0,0.014-0.001,0.022-0.001H272
		c4.418,0,8-3.582,8-8s-3.582-8-8-8h-14.591l38.487-236.252c0.069-0.425,0.104-0.855,0.104-1.286C296,171.871,285.233,160,272,160z
		 M241.198,424H232c-4.19,0-7.752-4.473-7.988-9.891L262.802,176H272c4.19,0,7.752,4.473,7.988,9.891L241.198,424z"/>
	<path d="M437.02,74.98C388.667,26.629,324.38,0,256,0S123.333,26.629,74.98,74.98C26.628,123.333,0,187.62,0,256
		s26.628,132.667,74.98,181.02C123.333,485.371,187.62,512,256,512s132.667-26.629,181.02-74.98C485.372,388.667,512,324.38,512,256
		S485.372,123.333,437.02,74.98z M425.706,425.706C380.376,471.036,320.106,496,256,496s-124.376-24.964-169.706-70.294
		C40.964,380.376,16,320.106,16,256S40.964,131.624,86.294,86.294C131.624,40.964,191.894,16,256,16s124.376,24.964,169.706,70.294
		C471.036,131.624,496,191.894,496,256S471.036,380.376,425.706,425.706z"/>
	<path d="M284,80c-15.439,0-28,12.561-28,28s12.561,28,28,28s28-12.561,28-28S299.439,80,284,80z M284,120c-6.617,0-12-5.383-12-12
		s5.383-12,12-12s12,5.383,12,12S290.617,120,284,120z"/>
</g>
<g>
</g>
<g>
</g>
<g>
</g>
<g>
</g>
<g>
</g>
<g>
</g>
<g>
</g>
<g>
</g>
<g>
</g>
<g>
</g>
<g>
</g>
<g>
</g>
<g>
</g>
<g>
</g>
<g>
</g>
</svg>
