<?xml version="1.0" encoding="iso-8859-1"?>
<!-- Generator: Adobe Illustrator 17.1.0, SVG Export Plug-In . SVG Version: 6.00 Build 0)  -->
<!DOCTYPE svg PUBLIC "-//W3C//DTD SVG 1.1//EN" "http://www.w3.org/Graphics/SVG/1.1/DTD/svg11.dtd">
<svg version="1.1" id="Capa_1" xmlns="http://www.w3.org/2000/svg" xmlns:xlink="http://www.w3.org/1999/xlink" x="0px" y="0px"
	 viewBox="0 0 512 512" style="enable-background:new 0 0 512 512;" xml:space="preserve">
<g>
	<path d="M264.051,144.084c-3.823-2.214-8.718-0.91-10.932,2.914c-2.214,3.823-0.91,8.718,2.914,10.932
		c23.132,13.395,40.056,34.82,47.655,60.329c1.034,3.473,4.216,5.718,7.664,5.718c0.756,0,1.525-0.108,2.287-0.335
		c4.234-1.261,6.645-5.716,5.383-9.951C310.253,184.254,290.731,159.534,264.051,144.084z"/>
	<path d="M204,32c-4.418,0-8,3.582-8,8s3.582,8,8,8c13.234,0,24,10.766,24,24c0,4.418,3.582,8,8,8s8-3.582,8-8
		C244,49.944,226.056,32,204,32z"/>
	<path d="M460,256c0-13.806-8.788-25.596-21.064-30.074L363.201,87.078C363.718,84.799,364,82.433,364,80c0-17.645-14.355-32-32-32
		c-8.094,0-15.491,3.027-21.132,8h-36.682C266.888,23.977,238.201,0,204,0c-39.701,0-72,32.299-72,72v42.282
		c-23.021,12.412-42.493,30.534-56.521,52.658C60.119,191.164,52,219.194,52,248c0,4.418,3.582,8,8,8h288c4.418,0,8-3.582,8-8
		c0-28.806-8.119-56.836-23.479-81.06c-14.028-22.124-33.5-40.246-56.521-52.658V104h34.868c2.966,2.615,6.414,4.694,10.197,6.074
		l75.734,138.846c-0.517,2.279-0.799,4.646-0.799,7.08c0,3.541,0.587,6.946,1.654,10.133l-79.756,188.515
		c-0.188,0.444-0.325,0.897-0.429,1.352H148c-13.233,0-24,10.767-24,24v24c0,4.418,3.582,8,8,8h272c4.418,0,8-3.582,8-8v-24
		c0-13.233-10.767-24-24-24h-18.557l72.413-171.158C452.582,279.668,460,268.684,460,256z M428,272c-8.822,0-16-7.178-16-16
		c0-1.635,0.249-3.213,0.707-4.7c0.17-0.38,0.314-0.769,0.423-1.17c2.347-5.923,8.121-10.13,14.87-10.13c8.822,0,16,7.178,16,16
		S436.822,272,428,272z M353.85,103.348l66.338,121.621c-5.337,1.344-10.141,4.034-14.039,7.683l-66.338-121.62
		C345.149,109.687,349.953,106.997,353.85,103.348z M348,80c0,1.738-0.288,3.408-0.802,4.976c-0.039,0.094-0.07,0.191-0.105,0.287
		C344.909,91.504,338.977,96,332,96c-1.083,0-2.141-0.111-3.165-0.317c-0.277-0.084-0.557-0.157-0.841-0.211
		c-2.943-0.763-5.556-2.336-7.588-4.477c-0.205-0.254-0.424-0.496-0.657-0.723C317.413,87.49,316,83.908,316,80
		c0-3.898,1.405-7.473,3.731-10.251c0.249-0.241,0.482-0.497,0.698-0.768C323.345,65.92,327.449,64,332,64
		C340.822,64,348,71.178,348,80z M319.008,175.508c12.307,19.41,19.415,41.557,20.758,64.492H68.234
		c1.343-22.936,8.451-45.083,20.758-64.492c12.702-20.031,30.395-36.387,51.313-47.508H220c4.418,0,8-3.582,8-8s-3.582-8-8-8h-72V72
		c0-30.878,25.122-56,56-56s56,25.122,56,56v40h-8c-4.418,0-8,3.582-8,8s3.582,8,8,8h15.695
		C288.613,139.121,306.306,155.476,319.008,175.508z M276,72h25.013c-0.661,2.558-1.013,5.239-1.013,8s0.352,5.442,1.013,8H276V72z
		 M396,480v16H140v-16c0-4.411,3.589-8,8-8h209.329c0.013,0,0.026,0.002,0.04,0.002c0.009,0,0.018-0.002,0.027-0.002H388
		C392.411,472,396,475.589,396,480z M334.699,456l73.869-174.6c4.212,3.23,9.243,5.439,14.727,6.251L352.07,456H334.699z"/>
</g>
<g>
</g>
<g>
</g>
<g>
</g>
<g>
</g>
<g>
</g>
<g>
</g>
<g>
</g>
<g>
</g>
<g>
</g>
<g>
</g>
<g>
</g>
<g>
</g>
<g>
</g>
<g>
</g>
<g>
</g>
</svg>
