<?xml version="1.0" encoding="iso-8859-1"?>
<!-- Generator: Adobe Illustrator 17.1.0, SVG Export Plug-In . SVG Version: 6.00 Build 0)  -->
<!DOCTYPE svg PUBLIC "-//W3C//DTD SVG 1.1//EN" "http://www.w3.org/Graphics/SVG/1.1/DTD/svg11.dtd">
<svg version="1.1" id="Capa_1" xmlns="http://www.w3.org/2000/svg" xmlns:xlink="http://www.w3.org/1999/xlink" x="0px" y="0px"
	 viewBox="0 0 512 512" style="enable-background:new 0 0 512 512;" xml:space="preserve">
<g>
	<path d="M456,112H56c-4.418,0-8,3.582-8,8v240c0,4.418,3.582,8,8,8h400c4.418,0,8-3.582,8-8V120C464,115.582,460.418,112,456,112z
		 M448,352h-56V224c0-4.418-3.582-8-8-8s-8,3.582-8,8v128h-48v-40c0-4.418-3.582-8-8-8s-8,3.582-8,8v40h-48v-96c0-4.418-3.582-8-8-8
		s-8,3.582-8,8v96h-48v-32c0-4.418-3.582-8-8-8s-8,3.582-8,8v32h-48c0-2.11-0.85-4.17-2.34-5.66c-1.49-1.49-3.55-2.34-5.66-2.34
		c-2.11,0-4.17,0.85-5.66,2.34c-1.49,1.49-2.34,3.55-2.34,5.66H64V128h384V352z"/>
	<path d="M504,384h-8V116.766C496,96.493,479.461,80,459.133,80H52.851C32.531,80,16,96.493,16,116.766V384H8c-4.418,0-8,3.582-8,8
		v8c0,17.645,14.355,32,32,32h448c17.645,0,32-14.355,32-32v-8C512,387.582,508.418,384,504,384z M32,116.766
		C32,105.315,41.354,96,52.851,96h406.282C470.639,96,480,105.315,480,116.766V384H32V116.766z M480,416H32c-8.822,0-16-7.178-16-16
		h208c0,4.418,3.582,8,8,8h48c4.418,0,8-3.582,8-8h208C496,408.822,488.822,416,480,416z"/>
	<path d="M128,328c13.234,0,24-10.767,24-24c0-1.003-0.069-1.99-0.189-2.961l23.545-11.772C179.674,293.431,185.541,296,192,296
		c13.234,0,24-10.767,24-24c0-3.701-0.843-7.208-2.345-10.341c0,0,0.001-0.001,0.002-0.002l32-32
		c0.001-0.001,0.002-0.002,0.002-0.003c3.133,1.502,6.64,2.345,10.341,2.345c4.268,0,8.276-1.125,11.753-3.086l29.956,26.211
		C296.61,257.872,296,260.865,296,264c0,13.233,10.766,24,24,24s24-10.767,24-24c0-5.04-1.565-9.719-4.229-13.584l37.392-51.413
		c2.168,0.646,4.462,0.998,6.837,0.998c13.234,0,24-10.767,24-24s-10.766-24-24-24s-24,10.767-24,24
		c0,5.04,1.565,9.719,4.229,13.584l-37.392,51.413C324.669,240.352,322.375,240,320,240c-4.268,0-8.276,1.125-11.753,3.086
		l-29.956-26.211c1.098-2.748,1.708-5.74,1.708-8.875c0-13.233-10.766-24-24-24s-24,10.767-24,24c0,3.701,0.843,7.208,2.345,10.341
		c0,0-0.001,0.001-0.002,0.002l-32,32c-0.001,0.001-0.002,0.002-0.002,0.003C199.208,248.843,195.701,248,192,248
		c-13.234,0-24,10.767-24,24c0,1.003,0.069,1.99,0.189,2.961l-23.545,11.772C140.326,282.569,134.459,280,128,280
		c-13.234,0-24,10.767-24,24S114.766,328,128,328z M384,168c4.411,0,8,3.589,8,8s-3.589,8-8,8s-8-3.589-8-8S379.589,168,384,168z
		 M320,256c4.411,0,8,3.589,8,8s-3.589,8-8,8s-8-3.589-8-8S315.589,256,320,256z M256,200c4.411,0,8,3.589,8,8s-3.589,8-8,8
		s-8-3.589-8-8S251.589,200,256,200z M192,264c4.411,0,8,3.589,8,8s-3.589,8-8,8s-8-3.589-8-8S187.589,264,192,264z M128,296
		c4.411,0,8,3.589,8,8s-3.589,8-8,8s-8-3.589-8-8S123.589,296,128,296z"/>
</g>
<g>
</g>
<g>
</g>
<g>
</g>
<g>
</g>
<g>
</g>
<g>
</g>
<g>
</g>
<g>
</g>
<g>
</g>
<g>
</g>
<g>
</g>
<g>
</g>
<g>
</g>
<g>
</g>
<g>
</g>
</svg>
