<?xml version="1.0" encoding="iso-8859-1"?>
<!-- Generator: Adobe Illustrator 17.1.0, SVG Export Plug-In . SVG Version: 6.00 Build 0)  -->
<!DOCTYPE svg PUBLIC "-//W3C//DTD SVG 1.1//EN" "http://www.w3.org/Graphics/SVG/1.1/DTD/svg11.dtd">
<svg version="1.1" id="Capa_1" xmlns="http://www.w3.org/2000/svg" xmlns:xlink="http://www.w3.org/1999/xlink" x="0px" y="0px"
	 viewBox="0 0 512 512" style="enable-background:new 0 0 512 512;" xml:space="preserve">
<g>
	<path d="M424,0H88C65.944,0,48,17.944,48,40v432c0,22.056,17.944,40,40,40h336c22.056,0,40-17.944,40-40V40
		C464,17.944,446.056,0,424,0z M448,472c0,13.233-10.766,24-24,24H88c-13.234,0-24-10.767-24-24V40c0-13.233,10.766-24,24-24h336
		c13.234,0,24,10.767,24,24V472z"/>
	<path d="M208,104h144c4.418,0,8-3.582,8-8s-3.582-8-8-8H208c-4.418,0-8,3.582-8,8S203.582,104,208,104z"/>
	<path d="M408,120H208c-4.418,0-8,3.582-8,8s3.582,8,8,8h200c4.418,0,8-3.582,8-8S412.418,120,408,120z"/>
	<path d="M208,168h176c4.418,0,8-3.582,8-8s-3.582-8-8-8H208c-4.418,0-8,3.582-8,8S203.582,168,208,168z"/>
	<path d="M168,344h-64c-4.418,0-8,3.582-8,8v64c0,4.418,3.582,8,8,8h64c4.418,0,8-3.582,8-8v-64C176,347.582,172.418,344,168,344z
		 M160,408h-48v-48h48V408z"/>
	<path d="M208,360h144c4.418,0,8-3.582,8-8s-3.582-8-8-8H208c-4.418,0-8,3.582-8,8S203.582,360,208,360z"/>
	<path d="M408,376H208c-4.418,0-8,3.582-8,8s3.582,8,8,8h200c4.418,0,8-3.582,8-8S412.418,376,408,376z"/>
	<path d="M384,408H208c-4.418,0-8,3.582-8,8s3.582,8,8,8h176c4.418,0,8-3.582,8-8S388.418,408,384,408z"/>
	<path d="M168,216h-64c-4.418,0-8,3.582-8,8v64c0,4.418,3.582,8,8,8h64c4.418,0,8-3.582,8-8v-64C176,219.582,172.418,216,168,216z
		 M160,280h-48v-48h48V280z"/>
	<path d="M208,232h144c4.418,0,8-3.582,8-8s-3.582-8-8-8H208c-4.418,0-8,3.582-8,8S203.582,232,208,232z"/>
	<path d="M408,248H208c-4.418,0-8,3.582-8,8s3.582,8,8,8h200c4.418,0,8-3.582,8-8S412.418,248,408,248z"/>
	<path d="M208,296h176c4.418,0,8-3.582,8-8s-3.582-8-8-8H208c-4.418,0-8,3.582-8,8S203.582,296,208,296z"/>
	<path d="M178.343,74.343L164.686,88H128c-4.418,0-8,3.582-8,8s3.582,8,8,8h20.686L128,124.686l-26.343-26.343
		c-3.124-3.123-8.189-3.123-11.313,0c-3.125,3.125-3.125,8.189,0,11.314L96,115.314V160c0,4.418,3.582,8,8,8h64c4.418,0,8-3.582,8-8
		v-24.002c0-4.418-3.582-8-8-8s-8,3.582-8,8V152h-48v-20.686l10.343,10.343c1.562,1.562,3.609,2.343,5.657,2.343
		s4.095-0.781,5.657-2.343l56-56c3.125-3.125,3.125-8.189,0-11.314C186.533,71.22,181.467,71.22,178.343,74.343z"/>
</g>
<g>
</g>
<g>
</g>
<g>
</g>
<g>
</g>
<g>
</g>
<g>
</g>
<g>
</g>
<g>
</g>
<g>
</g>
<g>
</g>
<g>
</g>
<g>
</g>
<g>
</g>
<g>
</g>
<g>
</g>
</svg>
