<?xml version="1.0" encoding="iso-8859-1"?>
<!-- Generator: Adobe Illustrator 17.1.0, SVG Export Plug-In . SVG Version: 6.00 Build 0)  -->
<!DOCTYPE svg PUBLIC "-//W3C//DTD SVG 1.1//EN" "http://www.w3.org/Graphics/SVG/1.1/DTD/svg11.dtd">
<svg version="1.1" id="Capa_1" xmlns="http://www.w3.org/2000/svg" xmlns:xlink="http://www.w3.org/1999/xlink" x="0px" y="0px"
	 viewBox="0 0 512 512" style="enable-background:new 0 0 512 512;" xml:space="preserve">
<g>
	<path d="M416,32h-80.001c-0.007,0-0.013,0.001-0.02,0.001C328.674,22.292,317.059,16,304,16h-20.39C277.966,6.242,267.481,0,256,0
		s-21.966,6.242-27.61,16H208c-13.059,0-24.674,6.292-31.979,16.001c-0.007,0-0.014-0.001-0.021-0.001H96c-22.056,0-40,17.944-40,40
		v400c0,22.056,17.944,40,40,40h320c22.056,0,40-17.944,40-40V72C456,49.944,438.056,32,416,32z M184,56c0-13.233,10.767-24,24-24
		h25.47c3.385,0,6.404-2.131,7.538-5.32C243.278,20.292,249.303,16,256,16s12.722,4.292,14.992,10.68
		c1.134,3.189,4.153,5.32,7.538,5.32H304c13.233,0,24,10.767,24,24v24H184V56z M440,472c0,13.233-10.767,24-24,24H96
		c-13.233,0-24-10.767-24-24V72c0-13.233,10.767-24,24-24h72.805c-0.527,2.586-0.805,5.261-0.805,8v32c0,4.418,3.582,8,8,8h160
		c4.418,0,8-3.582,8-8V56c0-2.739-0.278-5.414-0.805-8H416c13.233,0,24,10.767,24,24V472z"/>
	<path d="M416,64h-48c-4.418,0-8,3.582-8,8s3.582,8,8,8h40v384H104V80h40c4.418,0,8-3.582,8-8s-3.582-8-8-8H96c-4.418,0-8,3.582-8,8
		v400c0,4.418,3.582,8,8,8h320c4.418,0,8-3.582,8-8V72C424,67.582,420.418,64,416,64z"/>
	<path d="M256,32c-2.11,0-4.17,0.85-5.66,2.34c-1.49,1.49-2.34,3.55-2.34,5.66c0,2.1,0.85,4.17,2.34,5.66
		c1.49,1.49,3.55,2.34,5.66,2.34c2.1,0,4.17-0.85,5.66-2.34c1.49-1.49,2.34-3.55,2.34-5.66c0-2.11-0.85-4.17-2.34-5.66
		C260.17,32.849,258.1,32,256,32z"/>
	<path d="M130.343,186.343c-3.125,3.124-3.125,8.189,0,11.313l24,24c1.562,1.562,3.609,2.343,5.657,2.343s4.095-0.781,5.657-2.343
		l40-40c3.125-3.124,3.125-8.189,0-11.313c-3.124-3.124-8.189-3.124-11.313,0L160,204.686l-18.343-18.343
		C138.533,183.219,133.467,183.219,130.343,186.343z"/>
	<path d="M205.657,258.343c-3.124-3.124-8.189-3.124-11.313,0L160,292.686l-18.343-18.343c-3.124-3.124-8.189-3.124-11.313,0
		c-3.125,3.124-3.125,8.189,0,11.313l24,24c1.562,1.562,3.609,2.343,5.657,2.343s4.095-0.781,5.657-2.343l40-40
		C208.781,266.533,208.781,261.467,205.657,258.343z"/>
	<path d="M194.343,346.343L160,380.686l-18.343-18.343c-3.124-3.124-8.189-3.124-11.313,0c-3.125,3.124-3.125,8.189,0,11.313l24,24
		c1.562,1.562,3.609,2.343,5.657,2.343s4.095-0.781,5.657-2.343l40-40c3.125-3.124,3.125-8.189,0-11.313
		C202.533,343.219,197.467,343.219,194.343,346.343z"/>
	<path d="M240,200h136c4.418,0,8-3.582,8-8s-3.582-8-8-8H240c-4.418,0-8,3.582-8,8S235.582,200,240,200z"/>
	<path d="M240,288h136c4.418,0,8-3.582,8-8s-3.582-8-8-8H240c-4.418,0-8,3.582-8,8S235.582,288,240,288z"/>
	<path d="M240,376h136c4.418,0,8-3.582,8-8s-3.582-8-8-8H240c-4.418,0-8,3.582-8,8S235.582,376,240,376z"/>
</g>
<g>
</g>
<g>
</g>
<g>
</g>
<g>
</g>
<g>
</g>
<g>
</g>
<g>
</g>
<g>
</g>
<g>
</g>
<g>
</g>
<g>
</g>
<g>
</g>
<g>
</g>
<g>
</g>
<g>
</g>
</svg>
