<?xml version="1.0" encoding="iso-8859-1"?>
<!-- Generator: Adobe Illustrator 17.1.0, SVG Export Plug-In . SVG Version: 6.00 Build 0)  -->
<!DOCTYPE svg PUBLIC "-//W3C//DTD SVG 1.1//EN" "http://www.w3.org/Graphics/SVG/1.1/DTD/svg11.dtd">
<svg version="1.1" id="Capa_1" xmlns="http://www.w3.org/2000/svg" xmlns:xlink="http://www.w3.org/1999/xlink" x="0px" y="0px"
	 viewBox="0 0 512 512" style="enable-background:new 0 0 512 512;" xml:space="preserve">
<g>
	<path d="M210.857,294.883l-29.809,7.742c-0.049,0.013-0.098,0.026-0.147,0.04C161.928,307.979,152,326.581,152,342.208v8.64
		c0,9.458,8.277,17.151,18.452,17.151l85.416-0.009c0.062,0.001,0.123,0.009,0.186,0.009c0.063,0,0.124-0.008,0.186-0.009
		l85.417-0.009c10.174,0,18.451-7.694,18.451-17.151v-8.641c0-15.627-9.927-34.229-28.901-39.544
		c-0.049-0.014-0.098-0.027-0.147-0.04l-29.81-7.742c-2.527-0.743-4.523-2.052-4.954-2.735l-0.02-16.215
		c0.025-0.03,0.051-0.057,0.076-0.086c10.221-12.216,15.85-28.045,15.85-44.57v-12.076c10.197-33.219,3.011-62.02-0.677-70.402
		c-0.012-0.028-0.028-0.053-0.04-0.081c-0.071-0.156-0.149-0.307-0.229-0.457c-0.047-0.088-0.092-0.178-0.142-0.264
		c-0.076-0.13-0.159-0.255-0.242-0.381c-0.066-0.1-0.13-0.201-0.2-0.297c-0.071-0.098-0.148-0.19-0.223-0.284
		c-0.091-0.114-0.181-0.229-0.278-0.338c-0.062-0.069-0.129-0.134-0.193-0.201c-0.117-0.122-0.233-0.244-0.356-0.357
		c-0.058-0.053-0.119-0.101-0.179-0.152c-0.135-0.117-0.27-0.233-0.412-0.341c-0.065-0.049-0.134-0.093-0.2-0.14
		c-0.141-0.1-0.281-0.2-0.428-0.29c-0.085-0.052-0.173-0.098-0.26-0.147c-0.133-0.075-0.265-0.152-0.402-0.22
		c-0.11-0.054-0.225-0.101-0.338-0.15c-0.119-0.052-0.237-0.107-0.359-0.154c-0.127-0.048-0.257-0.087-0.386-0.129
		c-0.115-0.037-0.228-0.077-0.344-0.109c-0.128-0.035-0.259-0.062-0.389-0.09c-0.124-0.027-0.247-0.058-0.373-0.079
		c-0.116-0.02-0.233-0.032-0.351-0.046c-0.146-0.019-0.292-0.038-0.44-0.048c-0.098-0.007-0.196-0.007-0.294-0.01
		c-0.17-0.006-0.34-0.01-0.511-0.005c-0.085,0.002-0.171,0.011-0.257,0.016c-0.182,0.012-0.363,0.026-0.545,0.05
		c-0.028,0.003-0.055,0.003-0.083,0.007c-7.71,1.102-17.114-1.149-27.07-3.533c-17.611-4.217-37.474-8.962-54.875,3.584
		c-16.826,1.446-28.757,15.586-28.757,34.698c0,13.898,6.449,38.721,7.927,44.229v6.681c0,17.249,5.969,33.193,15.538,45.086
		l-0.022,17.321C215.382,292.83,213.385,294.139,210.857,294.883z M216.296,227.007c0-7.952,3.365-19.58,5.88-26.936
		c36.247,0.832,63.597,9.537,74.026,13.397v4.44c0,0.024,0,0.049,0,0.073v13.275c0,14.104-5.305,27.026-13.579,35.967
		c-0.019,0.019-0.036,0.038-0.054,0.057c-7.113,7.66-16.409,12.386-26.427,12.386c-21.227,0-39.846-23.331-39.846-49.928V227.007z
		 M231.816,288.827c7.4,4.362,15.669,6.84,24.326,6.84c8.498,0,16.699-2.2,24.15-6.364l0.004,2.933c0,3.967,1.43,7.293,3.65,10.013
		l-27.858,16.442l-27.743-16.646c2.115-2.676,3.467-5.927,3.467-9.781L231.816,288.827z M170.451,352
		c-1.634,0-2.451-0.932-2.451-1.151v-8.64c0-9.579,5.891-20.925,17.15-24.119l27.105-7.039l35.798,21.479v19.461L170.451,352z
		 M344.107,342.189v8.641c0,0.22-0.817,1.151-2.452,1.151l-77.602,0.008v-19.422l36.279-21.412l26.626,6.915
		C338.217,321.265,344.107,332.611,344.107,342.189z M223.992,160c0.053,0,0.105-0.007,0.157-0.008
		c0.208-0.004,0.417-0.012,0.625-0.032c0.099-0.01,0.195-0.028,0.294-0.041c0.161-0.022,0.323-0.042,0.483-0.074
		c0.115-0.023,0.227-0.054,0.341-0.082c0.14-0.034,0.28-0.066,0.419-0.107c0.121-0.037,0.239-0.082,0.357-0.125
		c0.126-0.044,0.253-0.086,0.378-0.138c0.126-0.052,0.247-0.113,0.369-0.171c0.113-0.054,0.227-0.104,0.338-0.163
		c0.135-0.072,0.265-0.154,0.395-0.233c0.093-0.057,0.187-0.108,0.278-0.169c0.161-0.107,0.314-0.225,0.466-0.343
		c0.053-0.042,0.109-0.076,0.161-0.119c11.771-9.618,27.047-5.961,43.22-2.089c8.706,2.084,17.645,4.22,26.325,4.252
		c2.086,7.707,4.138,21.364,1.934,37.631c-13.021-4.743-43.573-13.99-83.926-13.99c-0.021,0-0.041,0.003-0.061,0.003
		c-0.179,0.001-0.356,0.014-0.534,0.027c-0.093,0.007-0.187,0.01-0.279,0.02c-0.143,0.016-0.283,0.042-0.424,0.065
		c-0.125,0.021-0.252,0.037-0.375,0.063c-0.09,0.02-0.178,0.046-0.267,0.069c-0.168,0.042-0.336,0.083-0.5,0.135
		c-0.038,0.012-0.075,0.028-0.113,0.041c-0.208,0.07-0.414,0.145-0.614,0.231c-0.011,0.005-0.022,0.011-0.033,0.016
		c-0.223,0.097-0.441,0.203-0.653,0.319c-0.042,0.023-0.082,0.051-0.123,0.075c-0.177,0.102-0.353,0.206-0.521,0.32
		c-0.115,0.078-0.222,0.165-0.333,0.249c-0.09,0.068-0.184,0.132-0.271,0.204c-0.148,0.123-0.288,0.255-0.428,0.389
		c-0.045,0.043-0.093,0.082-0.136,0.125c-0.132,0.132-0.255,0.274-0.378,0.416c-0.047,0.054-0.097,0.104-0.142,0.159
		c-0.097,0.119-0.186,0.245-0.277,0.37c-0.065,0.089-0.133,0.175-0.194,0.267c-0.064,0.096-0.121,0.198-0.181,0.297
		c-0.079,0.131-0.16,0.261-0.232,0.396c-0.041,0.077-0.076,0.159-0.114,0.237c-0.053,0.108-0.108,0.214-0.156,0.325
		c-0.553-3.772-0.9-7.24-0.9-9.99C208.369,170.143,212.46,160,223.992,160z"/>
	<path d="M510.653,508.441c0.075-0.112,0.14-0.229,0.209-0.343c0.065-0.109,0.133-0.215,0.193-0.327
		c0.064-0.119,0.118-0.242,0.175-0.364c0.054-0.115,0.111-0.227,0.16-0.345c0.049-0.12,0.09-0.242,0.133-0.363
		c0.045-0.125,0.093-0.248,0.131-0.375c0.037-0.123,0.064-0.247,0.095-0.37c0.033-0.129,0.069-0.257,0.095-0.389
		c0.029-0.145,0.046-0.291,0.067-0.437c0.016-0.112,0.037-0.223,0.049-0.337c0.026-0.264,0.04-0.528,0.04-0.793V424
		c0-4.418-3.582-8-8-8s-8,3.582-8,8v60.687l-81.722-81.722C451.554,362.891,472,311.02,472,256s-20.446-106.891-57.722-146.964
		L496,27.313V88c0,4.418,3.582,8,8,8s8-3.582,8-8V8.002c0-0.265-0.014-0.529-0.04-0.793c-0.011-0.114-0.033-0.225-0.049-0.337
		c-0.021-0.146-0.038-0.292-0.067-0.437c-0.026-0.132-0.062-0.26-0.095-0.389c-0.031-0.124-0.058-0.248-0.095-0.37
		c-0.039-0.127-0.087-0.25-0.131-0.375c-0.043-0.121-0.083-0.244-0.133-0.363c-0.049-0.118-0.106-0.23-0.16-0.345
		c-0.057-0.122-0.111-0.245-0.175-0.364c-0.06-0.112-0.128-0.218-0.193-0.327c-0.069-0.115-0.134-0.231-0.209-0.343
		c-0.082-0.122-0.173-0.237-0.261-0.355c-0.069-0.091-0.132-0.185-0.205-0.274c-0.335-0.408-0.709-0.783-1.118-1.118
		c-0.089-0.073-0.183-0.136-0.274-0.205c-0.117-0.088-0.233-0.179-0.355-0.261c-0.112-0.075-0.228-0.14-0.342-0.208
		c-0.109-0.065-0.216-0.134-0.328-0.194c-0.119-0.063-0.242-0.118-0.363-0.175c-0.115-0.054-0.228-0.112-0.346-0.161
		c-0.12-0.049-0.242-0.089-0.363-0.133c-0.125-0.045-0.248-0.093-0.375-0.131c-0.122-0.037-0.247-0.064-0.371-0.095
		c-0.129-0.032-0.257-0.069-0.389-0.095c-0.144-0.029-0.29-0.046-0.435-0.066c-0.113-0.016-0.224-0.038-0.338-0.049
		C504.527,0.014,504.262,0,503.997,0H424c-4.418,0-8,3.582-8,8s3.582,8,8,8h60.687l-81.722,81.722C362.891,60.446,311.021,40,256,40
		S149.109,60.446,109.035,97.722L27.313,16H88c4.418,0,8-3.582,8-8s-3.582-8-8-8H8.003C7.738,0,7.473,0.014,7.209,0.04
		C7.095,0.051,6.984,0.073,6.871,0.089C6.726,0.109,6.58,0.126,6.436,0.155C6.304,0.181,6.177,0.218,6.047,0.25
		C5.924,0.281,5.799,0.308,5.677,0.345C5.549,0.384,5.426,0.432,5.301,0.477C5.18,0.52,5.058,0.56,4.938,0.609
		C4.82,0.658,4.707,0.716,4.592,0.77C4.471,0.827,4.349,0.881,4.229,0.945c-0.112,0.06-0.219,0.128-0.328,0.194
		C3.787,1.207,3.671,1.272,3.559,1.347C3.437,1.429,3.321,1.52,3.204,1.608C3.113,1.676,3.019,1.74,2.93,1.813
		C2.522,2.147,2.147,2.522,1.813,2.93C1.739,3.019,1.676,3.113,1.608,3.204C1.519,3.322,1.429,3.437,1.347,3.559
		c-0.075,0.112-0.14,0.229-0.209,0.343C1.073,4.011,1.005,4.118,0.945,4.229C0.881,4.348,0.828,4.471,0.77,4.592
		C0.716,4.707,0.658,4.82,0.609,4.938C0.56,5.058,0.521,5.179,0.477,5.299c-0.045,0.125-0.093,0.25-0.132,0.378
		C0.308,5.799,0.281,5.923,0.25,6.047C0.218,6.176,0.181,6.304,0.155,6.436C0.126,6.581,0.109,6.727,0.089,6.873
		C0.073,6.985,0.051,7.095,0.04,7.209C0.014,7.473,0,7.738,0,8.002V88c0,4.418,3.582,8,8,8s8-3.582,8-8V27.313l81.722,81.722
		C60.446,149.109,40,200.98,40,256s20.446,106.891,57.722,146.964L16,484.687V424c0-4.418-3.582-8-8-8s-8,3.582-8,8v79.998
		c0,0.265,0.014,0.529,0.04,0.793c0.011,0.114,0.033,0.225,0.049,0.337c0.021,0.146,0.038,0.292,0.067,0.437
		c0.026,0.132,0.062,0.26,0.095,0.389c0.031,0.124,0.058,0.248,0.095,0.37c0.039,0.128,0.087,0.252,0.132,0.378
		c0.043,0.121,0.083,0.242,0.132,0.361c0.049,0.118,0.107,0.231,0.161,0.347c0.057,0.121,0.111,0.244,0.175,0.362
		c0.06,0.112,0.128,0.218,0.193,0.327c0.069,0.115,0.134,0.231,0.209,0.343c0.082,0.122,0.173,0.237,0.261,0.355
		c0.069,0.091,0.132,0.185,0.205,0.274c0.335,0.408,0.709,0.783,1.118,1.118c0.089,0.073,0.183,0.136,0.274,0.205
		c0.117,0.088,0.233,0.179,0.355,0.261c0.112,0.075,0.228,0.14,0.342,0.208c0.109,0.065,0.216,0.134,0.328,0.194
		c0.118,0.063,0.24,0.117,0.36,0.173c0.116,0.055,0.231,0.113,0.35,0.163c0.117,0.048,0.236,0.087,0.354,0.129
		c0.128,0.046,0.254,0.095,0.384,0.134c0.12,0.036,0.241,0.063,0.362,0.093c0.132,0.033,0.262,0.07,0.397,0.097
		c0.14,0.028,0.282,0.044,0.424,0.065c0.117,0.017,0.232,0.039,0.351,0.05C7.473,511.986,7.737,512,8,512h80c4.418,0,8-3.582,8-8
		s-3.582-8-8-8H27.313l81.722-81.722C149.109,451.554,200.979,472,256,472s106.891-20.446,146.965-57.722L484.687,496H424
		c-4.418,0-8,3.582-8,8s3.582,8,8,8h80c0.263,0,0.527-0.014,0.789-0.04c0.119-0.011,0.234-0.034,0.351-0.05
		c0.141-0.021,0.283-0.037,0.424-0.065c0.134-0.026,0.265-0.063,0.397-0.097c0.121-0.03,0.242-0.057,0.362-0.093
		c0.131-0.04,0.257-0.088,0.384-0.134c0.118-0.042,0.238-0.082,0.354-0.129c0.119-0.05,0.234-0.108,0.35-0.163
		c0.12-0.057,0.242-0.11,0.36-0.173c0.112-0.06,0.219-0.128,0.328-0.194c0.115-0.068,0.231-0.133,0.342-0.208
		c0.122-0.082,0.238-0.173,0.355-0.261c0.091-0.068,0.185-0.132,0.274-0.205c0.408-0.335,0.783-0.709,1.118-1.118
		c0.073-0.089,0.136-0.183,0.205-0.274C510.481,508.678,510.571,508.563,510.653,508.441z M256,456c-110.28,0-200-89.72-200-200
		S145.72,56,256,56s200,89.72,200,200S366.28,456,256,456z"/>
	<path d="M378.886,141.443c1.575,1.689,3.711,2.543,5.852,2.543c1.954,0,3.913-0.711,5.455-2.149
		c3.231-3.014,3.407-8.076,0.394-11.307c-2.924-3.135-5.994-6.205-9.125-9.125c-3.233-3.013-8.294-2.836-11.307,0.395
		c-3.013,3.231-2.836,8.294,0.395,11.307C373.41,135.774,376.215,138.579,378.886,141.443z"/>
	<path d="M88,256c0-92.636,75.364-168,168-168c32.69,0,64.376,9.394,91.631,27.165c3.7,2.412,8.658,1.37,11.071-2.332
		c2.414-3.701,1.369-8.657-2.332-11.071C326.509,82.292,291.802,72,256,72C154.542,72,72,154.542,72,256
		c0,42.671,14.94,84.26,42.069,117.104c1.582,1.915,3.868,2.905,6.172,2.905c1.794,0,3.599-0.601,5.09-1.832
		c3.406-2.814,3.887-7.856,1.073-11.263C101.639,332.931,88,294.961,88,256z"/>
	<path d="M410.233,155.622c-2.414-3.701-7.371-4.744-11.071-2.332c-3.701,2.414-4.745,7.37-2.332,11.071
		C414.605,191.619,424,223.307,424,256c0,92.636-75.365,168-168,168c-38.958,0-76.926-13.638-106.909-38.4
		c-3.407-2.813-8.449-2.333-11.263,1.074c-2.813,3.406-2.333,8.449,1.074,11.263C171.746,425.062,213.332,440,256,440
		c101.458,0,184-82.542,184-184C440,220.195,429.707,185.485,410.233,155.622z"/>
</g>
<g>
</g>
<g>
</g>
<g>
</g>
<g>
</g>
<g>
</g>
<g>
</g>
<g>
</g>
<g>
</g>
<g>
</g>
<g>
</g>
<g>
</g>
<g>
</g>
<g>
</g>
<g>
</g>
<g>
</g>
</svg>
