<?xml version="1.0" encoding="iso-8859-1"?>
<!-- Generator: Adobe Illustrator 17.1.0, SVG Export Plug-In . SVG Version: 6.00 Build 0)  -->
<!DOCTYPE svg PUBLIC "-//W3C//DTD SVG 1.1//EN" "http://www.w3.org/Graphics/SVG/1.1/DTD/svg11.dtd">
<svg version="1.1" id="Capa_1" xmlns="http://www.w3.org/2000/svg" xmlns:xlink="http://www.w3.org/1999/xlink" x="0px" y="0px"
	 viewBox="0 0 512 512" style="enable-background:new 0 0 512 512;" xml:space="preserve">
<g>
	<path d="M432,132.002c-4.418,0-8,3.582-8,8V156c0,4.418,3.582,8,8,8s8-3.582,8-8v-15.998C440,135.584,436.418,132.002,432,132.002z
		"/>
	<path d="M512,196c0-26.073-16.178-49.654-40-59.329V52c0-13.233-10.766-24-24-24h-15.948c-0.003,0-0.005,0-0.008,0H432
		c-0.066,0-0.13,0.008-0.195,0.01c-0.193,0.005-0.387,0.011-0.58,0.029c-0.102,0.01-0.201,0.028-0.302,0.042
		c-0.159,0.021-0.317,0.041-0.475,0.072c-0.116,0.023-0.228,0.054-0.342,0.082c-0.139,0.034-0.279,0.066-0.417,0.107
		c-0.12,0.036-0.237,0.081-0.355,0.123c-0.128,0.045-0.256,0.088-0.382,0.14c-0.123,0.051-0.241,0.109-0.36,0.166
		c-0.116,0.055-0.233,0.106-0.347,0.167c-0.131,0.07-0.257,0.149-0.384,0.226c-0.096,0.059-0.194,0.113-0.289,0.175
		c-0.152,0.102-0.297,0.213-0.442,0.325c-0.059,0.045-0.122,0.084-0.18,0.132C379.452,68.468,316.296,108,208,108H56
		c-30.878,0-56,25.121-56,56v64c0,30.879,25.122,56,56,56h32.903l20.618,171.813C111.448,471.882,125.107,484,141.292,484h31.656
		c9.144,0,17.869-3.923,23.938-10.764c6.068-6.84,8.924-15.97,7.834-25.049L185.017,284H208
		c108.296,0,171.452,39.532,218.949,78.204c0.186,0.151,0.377,0.293,0.572,0.425c0.031,0.021,0.065,0.039,0.096,0.059
		c0.176,0.115,0.353,0.226,0.535,0.325c0.07,0.039,0.143,0.071,0.215,0.108c0.148,0.076,0.297,0.15,0.448,0.216
		c0.084,0.037,0.171,0.068,0.256,0.102c0.144,0.057,0.288,0.111,0.434,0.159c0.092,0.03,0.185,0.057,0.279,0.084
		c0.148,0.042,0.296,0.081,0.445,0.114c0.092,0.021,0.185,0.042,0.279,0.059c0.165,0.031,0.331,0.055,0.497,0.076
		c0.08,0.01,0.159,0.022,0.24,0.03c0.249,0.023,0.499,0.038,0.749,0.038c0.001,0,0.002,0,0.002,0c0.002,0,0.002,0,0.003,0h16
		c13.234,0,24-10.767,24-24v-84.671C495.822,245.653,512,222.071,512,196z M188.834,450.094c0.553,4.606-0.838,9.055-3.917,12.524
		c-3.079,3.471-7.33,5.382-11.969,5.382h-31.656c-8.092,0-14.921-6.059-15.886-14.094L125.177,452H160c4.418,0,8-3.582,8-8
		s-3.582-8-8-8h-36.743l-18.24-152h63.885L188.834,450.094z M448,348h-8V188.002c0-4.418-3.582-8-8-8s-8,3.582-8,8v151.483
		c-43.04-32.917-98.768-64.032-184-70.326V164c0-4.418-3.582-8-8-8s-8,3.582-8,8v104.283c-5.227-0.186-10.558-0.283-16-0.283H56
		c-22.056,0-40-17.944-40-40v-64c0-22.056,17.944-40,40-40h152c5.442,0,10.773-0.097,16-0.283V132c0,4.418,3.582,8,8,8s8-3.582,8-8
		v-9.159c85.232-6.294,140.96-37.41,184-70.326v55.486c0,4.418,3.582,8,8,8s8-3.582,8-8V44h8c4.411,0,8,3.589,8,8v90.196
		c-0.002,0.12-0.003,0.239,0,0.358V340C456,344.411,452.411,348,448,348z M472,237.557v-83.114c14.528,8.456,24,24.276,24,41.557
		C496,213.279,486.528,229.101,472,237.557z"/>
</g>
<g>
</g>
<g>
</g>
<g>
</g>
<g>
</g>
<g>
</g>
<g>
</g>
<g>
</g>
<g>
</g>
<g>
</g>
<g>
</g>
<g>
</g>
<g>
</g>
<g>
</g>
<g>
</g>
<g>
</g>
</svg>
