<?xml version="1.0" encoding="iso-8859-1"?>
<!-- Generator: Adobe Illustrator 17.1.0, SVG Export Plug-In . SVG Version: 6.00 Build 0)  -->
<!DOCTYPE svg PUBLIC "-//W3C//DTD SVG 1.1//EN" "http://www.w3.org/Graphics/SVG/1.1/DTD/svg11.dtd">
<svg version="1.1" id="Capa_1" xmlns="http://www.w3.org/2000/svg" xmlns:xlink="http://www.w3.org/1999/xlink" x="0px" y="0px"
	 viewBox="0 0 496.107 496.107" style="enable-background:new 0 0 496.107 496.107;" xml:space="preserve">
<g>
	<path d="M248.107,257.393c-4.418,0-8,3.582-8,8v70.386L179.67,376.07c-3.676,2.451-4.67,7.418-2.219,11.094
		c1.542,2.313,4.078,3.563,6.664,3.563c1.525,0,3.066-0.435,4.43-1.344l59.563-39.708l59.563,39.708
		c1.364,0.909,2.905,1.344,4.43,1.344c2.585,0,5.122-1.251,6.664-3.563c2.451-3.676,1.458-8.644-2.219-11.094l-60.438-40.292
		v-70.386C256.107,260.975,252.526,257.393,248.107,257.393z"/>
	<path d="M162.506,232.002l85.418-0.009c0.062,0.001,0.121,0.009,0.183,0.009c0.062,0,0.122-0.008,0.184-0.009l85.418-0.01
		c10.174,0,18.451-7.694,18.451-17.151v-8.64c0-15.627-9.928-34.228-28.902-39.544c-0.049-0.014-0.098-0.026-0.147-0.04
		l-29.81-7.742c-2.526-0.744-4.523-2.052-4.953-2.736l-0.021-16.214c0.025-0.03,0.051-0.057,0.076-0.086
		c10.221-12.217,15.85-28.045,15.85-44.57V83.183c10.197-33.219,3.011-62.02-0.677-70.403c-0.013-0.029-0.029-0.055-0.042-0.084
		c-0.068-0.15-0.144-0.296-0.221-0.441c-0.05-0.095-0.099-0.191-0.152-0.283c-0.071-0.122-0.149-0.238-0.226-0.355
		c-0.071-0.109-0.141-0.219-0.217-0.324c-0.063-0.086-0.13-0.167-0.196-0.25c-0.1-0.126-0.2-0.253-0.307-0.373
		c-0.048-0.054-0.101-0.104-0.151-0.157c-0.13-0.138-0.261-0.274-0.4-0.401c-0.039-0.036-0.081-0.068-0.121-0.104
		c-0.153-0.135-0.309-0.267-0.471-0.39c-0.042-0.032-0.087-0.06-0.13-0.09c-0.163-0.118-0.328-0.233-0.499-0.338
		c-0.06-0.037-0.123-0.068-0.184-0.104c-0.157-0.091-0.315-0.181-0.478-0.261c-0.086-0.042-0.175-0.078-0.262-0.117
		c-0.144-0.064-0.287-0.13-0.434-0.186c-0.106-0.04-0.215-0.072-0.323-0.108c-0.135-0.045-0.269-0.092-0.406-0.129
		c-0.112-0.031-0.227-0.053-0.341-0.079c-0.14-0.032-0.278-0.065-0.42-0.089c-0.105-0.018-0.212-0.028-0.319-0.042
		c-0.156-0.02-0.311-0.041-0.468-0.052c-0.092-0.006-0.186-0.006-0.279-0.01c-0.174-0.006-0.348-0.01-0.524-0.005
		c-0.084,0.003-0.169,0.011-0.253,0.017c-0.182,0.011-0.364,0.025-0.546,0.049c-0.028,0.004-0.056,0.004-0.084,0.008
		c-7.709,1.102-17.114-1.15-27.07-3.534c-17.611-4.217-37.474-8.961-54.875,3.584c-16.827,1.446-28.757,15.586-28.757,34.698
		c0,13.898,6.449,38.721,7.928,44.229v6.681c0,17.249,5.969,33.193,15.537,45.086l-0.021,17.321
		c-0.43,0.684-2.426,1.992-4.953,2.736l-29.81,7.742c-0.049,0.013-0.098,0.026-0.147,0.04
		c-18.974,5.316-28.902,23.917-28.902,39.544v8.64C144.054,224.309,152.331,232.002,162.506,232.002z M208.35,91.009
		c0-7.951,3.365-19.58,5.88-26.936c36.247,0.832,63.597,9.537,74.026,13.396v4.437c0,0.027,0,0.054,0,0.081v13.271
		c0,14.103-5.303,27.023-13.576,35.964c-0.022,0.022-0.043,0.046-0.065,0.068c-7.112,7.655-16.404,12.377-26.418,12.377
		c-21.227,0-39.846-23.331-39.846-49.928V91.009z M223.87,152.829c7.401,4.362,15.669,6.84,24.326,6.84
		c8.498,0,16.699-2.2,24.15-6.364l0.004,2.932c0,3.967,1.43,7.293,3.65,10.013l-27.858,16.442l-27.743-16.646
		c2.115-2.676,3.467-5.927,3.467-9.78L223.87,152.829z M336.161,206.192v8.64c0,0.22-0.817,1.151-2.452,1.151l-77.602,0.009V196.57
		l36.278-21.411l26.624,6.915C330.27,185.266,336.161,196.613,336.161,206.192z M216.046,24.002c0.059,0,0.115-0.007,0.174-0.009
		c0.202-0.004,0.405-0.011,0.607-0.03c0.102-0.01,0.201-0.029,0.302-0.042c0.159-0.021,0.317-0.042,0.475-0.072
		c0.118-0.023,0.232-0.055,0.347-0.083c0.138-0.034,0.276-0.065,0.412-0.106c0.124-0.038,0.243-0.083,0.364-0.126
		c0.125-0.044,0.25-0.085,0.373-0.136c0.127-0.053,0.25-0.114,0.373-0.173c0.112-0.053,0.224-0.103,0.334-0.161
		c0.137-0.073,0.268-0.155,0.399-0.236c0.091-0.056,0.185-0.106,0.274-0.167c0.161-0.108,0.315-0.226,0.468-0.345
		c0.053-0.041,0.108-0.075,0.16-0.118c11.771-9.618,27.047-5.961,43.22-2.088c8.706,2.084,17.645,4.22,26.325,4.251
		c2.086,7.707,4.137,21.364,1.934,37.631c-13.021-4.743-43.573-13.99-83.926-13.99c-0.021,0-0.041,0.003-0.062,0.003
		c-0.18,0.001-0.358,0.014-0.537,0.027c-0.092,0.007-0.185,0.01-0.276,0.02c-0.146,0.016-0.289,0.042-0.433,0.066
		c-0.122,0.02-0.245,0.036-0.365,0.062c-0.097,0.021-0.191,0.049-0.286,0.073c-0.161,0.041-0.323,0.08-0.48,0.13
		c-0.05,0.016-0.097,0.037-0.146,0.054c-0.196,0.067-0.391,0.137-0.581,0.218c-0.028,0.012-0.054,0.027-0.082,0.04
		c-0.205,0.091-0.407,0.188-0.603,0.295c-0.063,0.035-0.123,0.076-0.186,0.113c-0.155,0.091-0.311,0.181-0.459,0.282
		c-0.132,0.09-0.258,0.19-0.385,0.288c-0.073,0.056-0.149,0.107-0.22,0.166c-0.158,0.131-0.308,0.272-0.457,0.416
		c-0.035,0.034-0.073,0.064-0.107,0.099c-0.136,0.136-0.264,0.282-0.39,0.429c-0.043,0.05-0.089,0.096-0.131,0.146
		c-0.099,0.12-0.189,0.249-0.281,0.375c-0.063,0.087-0.13,0.172-0.19,0.262c-0.064,0.097-0.122,0.199-0.182,0.299
		c-0.079,0.13-0.159,0.259-0.231,0.395c-0.041,0.077-0.076,0.158-0.114,0.237c-0.053,0.107-0.108,0.213-0.156,0.323
		c-0.554-3.774-0.901-7.241-0.901-9.989C200.422,34.146,204.514,24.002,216.046,24.002z M160.054,206.211
		c0-9.579,5.891-20.925,17.15-24.118l27.105-7.04l35.798,21.479v19.462l-77.603,0.008c-1.634,0-2.451-0.931-2.451-1.151V206.211z"/>
	<path d="M179.206,430.705c-0.049-0.014-0.098-0.027-0.147-0.04l-29.81-7.742c-2.526-0.744-4.523-2.052-4.953-2.736l-0.021-16.214
		c0.025-0.03,0.051-0.057,0.076-0.087c10.221-12.216,15.85-28.045,15.85-44.57V347.24c10.197-33.219,3.011-62.02-0.677-70.402
		c-0.012-0.029-0.028-0.054-0.041-0.083c-0.07-0.155-0.148-0.304-0.227-0.453c-0.047-0.089-0.093-0.18-0.143-0.267
		c-0.076-0.13-0.158-0.254-0.241-0.379c-0.066-0.101-0.131-0.203-0.201-0.3c-0.07-0.096-0.146-0.188-0.22-0.28
		c-0.092-0.115-0.183-0.232-0.281-0.341c-0.061-0.068-0.127-0.131-0.19-0.197c-0.118-0.123-0.235-0.246-0.36-0.36
		c-0.057-0.052-0.117-0.1-0.175-0.15c-0.136-0.118-0.272-0.235-0.415-0.343c-0.065-0.049-0.134-0.093-0.201-0.14
		c-0.141-0.1-0.281-0.199-0.427-0.289c-0.086-0.054-0.177-0.1-0.266-0.15c-0.131-0.074-0.261-0.149-0.396-0.216
		c-0.114-0.057-0.231-0.104-0.348-0.155c-0.116-0.05-0.23-0.104-0.348-0.149c-0.131-0.05-0.266-0.091-0.4-0.134
		c-0.11-0.035-0.218-0.074-0.329-0.104c-0.133-0.037-0.269-0.064-0.404-0.093c-0.119-0.026-0.238-0.056-0.358-0.076
		c-0.12-0.021-0.242-0.033-0.364-0.048c-0.142-0.018-0.283-0.037-0.426-0.047c-0.102-0.007-0.205-0.007-0.307-0.011
		c-0.166-0.005-0.331-0.01-0.498-0.005c-0.089,0.003-0.178,0.011-0.268,0.017c-0.179,0.012-0.358,0.025-0.537,0.049
		c-0.028,0.003-0.056,0.003-0.084,0.007c-7.709,1.104-17.115-1.149-27.07-3.533c-17.61-4.217-37.474-8.962-54.875,3.584
		c-16.826,1.446-28.757,15.586-28.757,34.698c0,13.898,6.449,38.721,7.928,44.229v6.681c0,17.249,5.969,33.192,15.537,45.086
		l-0.021,17.321c-0.43,0.684-2.427,1.992-4.954,2.736l-29.809,7.742c-0.049,0.013-0.098,0.026-0.147,0.04
		C9.927,436.039,0,454.641,0,470.268v8.64c0,9.457,8.277,17.151,18.452,17.151l85.416-0.009c0.062,0.001,0.123,0.009,0.186,0.009
		c0.063,0,0.124-0.008,0.187-0.009l85.416-0.01c10.174,0,18.451-7.694,18.451-17.151v-8.64
		C208.107,454.622,198.18,436.021,179.206,430.705z M104.087,446.75l-27.743-16.646c2.115-2.677,3.467-5.927,3.467-9.781
		l0.004-3.437c7.4,4.362,15.669,6.84,24.326,6.84c8.498,0,16.699-2.2,24.151-6.364l0.004,2.933c0,3.967,1.43,7.293,3.65,10.013
		L104.087,446.75z M64.296,355.067c0-7.952,3.365-19.58,5.88-26.936c36.247,0.832,63.597,9.537,74.026,13.397v4.44
		c0,0.024,0,0.049,0,0.073v13.275c0,14.103-5.304,27.024-13.577,35.965c-0.022,0.021-0.042,0.044-0.063,0.066
		c-7.112,7.656-16.405,12.379-26.42,12.379c-21.226,0-39.846-23.331-39.846-49.928V355.067z M71.992,288.06
		c0.062,0,0.121-0.008,0.182-0.009c0.199-0.004,0.399-0.011,0.598-0.03c0.104-0.01,0.205-0.029,0.308-0.043
		c0.157-0.021,0.313-0.041,0.469-0.072c0.119-0.023,0.234-0.056,0.352-0.084c0.136-0.033,0.273-0.064,0.407-0.104
		c0.125-0.038,0.245-0.084,0.367-0.128c0.123-0.044,0.247-0.084,0.369-0.135c0.128-0.053,0.251-0.115,0.375-0.174
		c0.111-0.053,0.224-0.102,0.333-0.16c0.137-0.073,0.268-0.155,0.399-0.236c0.091-0.056,0.185-0.107,0.274-0.167
		c0.161-0.107,0.315-0.226,0.468-0.344c0.053-0.041,0.108-0.076,0.16-0.118c11.771-9.618,27.047-5.961,43.221-2.089
		c8.705,2.084,17.645,4.22,26.325,4.252c2.086,7.707,4.137,21.364,1.934,37.631c-13.021-4.743-43.573-13.99-83.926-13.99
		c-0.019,0-0.038,0.003-0.057,0.003c-0.185,0.001-0.369,0.014-0.553,0.028c-0.087,0.006-0.174,0.009-0.26,0.019
		c-0.151,0.017-0.299,0.043-0.448,0.068c-0.117,0.02-0.236,0.035-0.351,0.06c-0.1,0.021-0.198,0.051-0.298,0.077
		c-0.157,0.04-0.315,0.078-0.469,0.127c-0.053,0.017-0.103,0.039-0.156,0.057c-0.193,0.066-0.385,0.135-0.572,0.215
		c-0.03,0.013-0.058,0.029-0.087,0.042c-0.204,0.091-0.405,0.186-0.599,0.293c-0.06,0.033-0.117,0.073-0.176,0.107
		c-0.159,0.092-0.318,0.185-0.469,0.288c-0.126,0.085-0.246,0.182-0.367,0.275c-0.078,0.06-0.161,0.116-0.237,0.179
		c-0.155,0.127-0.301,0.266-0.446,0.405c-0.039,0.037-0.08,0.071-0.118,0.109c-0.134,0.134-0.26,0.278-0.385,0.423
		c-0.044,0.052-0.093,0.1-0.136,0.152c-0.098,0.12-0.187,0.247-0.279,0.373c-0.064,0.088-0.132,0.173-0.193,0.264
		c-0.064,0.097-0.121,0.199-0.182,0.299c-0.079,0.13-0.159,0.26-0.231,0.395c-0.041,0.077-0.076,0.159-0.114,0.237
		c-0.053,0.108-0.108,0.213-0.156,0.324c-0.554-3.774-0.901-7.241-0.901-9.989C56.368,298.203,60.46,288.06,71.992,288.06z
		 M18.451,480.06c-1.634,0-2.451-0.931-2.451-1.151v-8.64c0-9.578,5.891-20.925,17.15-24.118l27.105-7.04l35.799,21.479v19.462
		L18.451,480.06z M192.107,478.89c0,0.22-0.817,1.151-2.452,1.151l-77.602,0.009v-19.422l36.278-21.412l26.625,6.915
		c11.259,3.193,17.15,14.54,17.15,24.118V478.89z"/>
	<path d="M467.206,430.705c-0.049-0.014-0.098-0.027-0.147-0.04l-29.81-7.742c-2.526-0.744-4.523-2.052-4.953-2.736l-0.021-16.214
		c0.025-0.03,0.051-0.057,0.076-0.087c10.221-12.216,15.85-28.045,15.85-44.57V347.24c10.197-33.219,3.011-62.02-0.677-70.402
		c-0.012-0.029-0.028-0.054-0.041-0.083c-0.07-0.154-0.147-0.303-0.226-0.451c-0.048-0.091-0.094-0.183-0.146-0.271
		c-0.074-0.127-0.156-0.25-0.237-0.373c-0.068-0.103-0.134-0.207-0.205-0.306c-0.068-0.094-0.142-0.182-0.214-0.272
		c-0.094-0.119-0.187-0.237-0.287-0.349c-0.058-0.065-0.12-0.125-0.18-0.188c-0.121-0.127-0.242-0.253-0.37-0.371
		c-0.052-0.048-0.108-0.092-0.162-0.139c-0.14-0.122-0.281-0.243-0.428-0.354c-0.06-0.045-0.124-0.086-0.185-0.13
		c-0.145-0.104-0.291-0.207-0.443-0.3c-0.081-0.05-0.166-0.093-0.248-0.14c-0.136-0.078-0.272-0.156-0.413-0.226
		c-0.109-0.054-0.221-0.099-0.332-0.148c-0.121-0.053-0.24-0.108-0.364-0.155c-0.127-0.048-0.258-0.088-0.388-0.13
		c-0.114-0.037-0.226-0.077-0.341-0.108c-0.13-0.036-0.264-0.063-0.396-0.092c-0.122-0.027-0.243-0.056-0.366-0.077
		c-0.119-0.021-0.24-0.033-0.36-0.048c-0.143-0.018-0.285-0.037-0.429-0.047c-0.102-0.007-0.204-0.007-0.307-0.011
		c-0.166-0.005-0.331-0.01-0.498-0.005c-0.089,0.003-0.179,0.011-0.269,0.017c-0.178,0.012-0.356,0.025-0.535,0.049
		c-0.029,0.003-0.057,0.003-0.085,0.007c-7.71,1.104-17.115-1.149-27.07-3.533c-17.611-4.217-37.474-8.962-54.875,3.584
		c-16.826,1.446-28.757,15.586-28.757,34.698c0,13.898,6.449,38.721,7.928,44.229v6.681c0,17.249,5.969,33.192,15.537,45.086
		l-0.021,17.321c-0.43,0.684-2.427,1.992-4.954,2.736l-29.809,7.742c-0.049,0.013-0.098,0.026-0.147,0.04
		C297.927,436.039,288,454.641,288,470.268v8.64c0,9.457,8.277,17.151,18.452,17.151l85.416-0.009
		c0.062,0.001,0.123,0.009,0.186,0.009c0.063,0,0.124-0.008,0.187-0.009l85.416-0.01c10.174,0,18.451-7.694,18.451-17.151v-8.64
		C496.107,454.622,486.18,436.021,467.206,430.705z M392.087,446.75l-27.743-16.646c2.115-2.677,3.467-5.927,3.467-9.781
		l0.004-3.437c7.4,4.362,15.669,6.84,24.326,6.84c8.498,0,16.699-2.2,24.151-6.364l0.004,2.933c0,3.967,1.43,7.293,3.65,10.013
		L392.087,446.75z M352.296,355.067c0-7.952,3.365-19.58,5.88-26.936c36.247,0.832,63.597,9.537,74.026,13.397v4.44
		c0,0.024,0,0.049,0,0.073v13.275c0,14.103-5.304,27.024-13.577,35.965c-0.022,0.021-0.042,0.044-0.063,0.066
		c-7.112,7.656-16.405,12.379-26.42,12.379c-21.226,0-39.846-23.331-39.846-49.928V355.067z M359.992,288.06
		c0.062,0,0.121-0.008,0.182-0.009c0.199-0.004,0.399-0.011,0.598-0.03c0.104-0.01,0.205-0.029,0.308-0.043
		c0.157-0.021,0.313-0.041,0.469-0.072c0.119-0.023,0.234-0.056,0.352-0.084c0.136-0.033,0.273-0.064,0.407-0.104
		c0.125-0.038,0.245-0.084,0.367-0.128c0.123-0.044,0.247-0.084,0.369-0.135c0.128-0.053,0.251-0.115,0.375-0.174
		c0.111-0.053,0.224-0.102,0.333-0.16c0.137-0.073,0.268-0.155,0.399-0.236c0.091-0.056,0.185-0.107,0.274-0.167
		c0.161-0.107,0.315-0.226,0.468-0.344c0.053-0.041,0.108-0.076,0.16-0.118c11.771-9.618,27.047-5.961,43.221-2.089
		c8.705,2.084,17.645,4.22,26.325,4.252c2.086,7.707,4.137,21.364,1.934,37.631c-13.021-4.743-43.573-13.99-83.926-13.99
		c-0.02,0-0.038,0.003-0.058,0.003c-0.186,0.001-0.371,0.014-0.555,0.028c-0.086,0.007-0.172,0.009-0.257,0.019
		c-0.153,0.017-0.304,0.044-0.455,0.069c-0.115,0.019-0.23,0.034-0.343,0.058c-0.105,0.023-0.208,0.054-0.313,0.081
		c-0.152,0.039-0.305,0.075-0.454,0.123c-0.061,0.02-0.119,0.045-0.18,0.066c-0.185,0.064-0.369,0.129-0.548,0.206
		c-0.042,0.018-0.082,0.041-0.123,0.06c-0.191,0.086-0.38,0.175-0.563,0.275c-0.076,0.041-0.147,0.09-0.221,0.134
		c-0.143,0.084-0.287,0.167-0.424,0.261c-0.139,0.094-0.272,0.199-0.405,0.303c-0.066,0.051-0.135,0.098-0.2,0.151
		c-0.162,0.134-0.316,0.278-0.468,0.426c-0.031,0.03-0.065,0.058-0.096,0.088c-0.138,0.138-0.267,0.286-0.395,0.435
		c-0.041,0.048-0.086,0.092-0.126,0.142c-0.099,0.121-0.19,0.25-0.283,0.378c-0.063,0.086-0.129,0.17-0.188,0.259
		c-0.065,0.097-0.122,0.201-0.183,0.301c-0.079,0.13-0.159,0.258-0.23,0.393c-0.041,0.077-0.076,0.159-0.114,0.237
		c-0.053,0.108-0.108,0.213-0.156,0.324c-0.554-3.774-0.901-7.241-0.901-9.989C344.368,298.203,348.46,288.06,359.992,288.06z
		 M306.451,480.06c-1.634,0-2.451-0.931-2.451-1.151v-8.64c0-9.578,5.891-20.925,17.15-24.118l27.105-7.04l35.799,21.479v19.462
		L306.451,480.06z M480.107,478.89c0,0.22-0.817,1.151-2.452,1.151l-77.602,0.009v-19.422l36.278-21.412l26.625,6.915
		c11.259,3.193,17.15,14.54,17.15,24.118V478.89z"/>
</g>
<g>
</g>
<g>
</g>
<g>
</g>
<g>
</g>
<g>
</g>
<g>
</g>
<g>
</g>
<g>
</g>
<g>
</g>
<g>
</g>
<g>
</g>
<g>
</g>
<g>
</g>
<g>
</g>
<g>
</g>
</svg>
