<?xml version="1.0" encoding="iso-8859-1"?>
<!-- Generator: Adobe Illustrator 17.1.0, SVG Export Plug-In . SVG Version: 6.00 Build 0)  -->
<!DOCTYPE svg PUBLIC "-//W3C//DTD SVG 1.1//EN" "http://www.w3.org/Graphics/SVG/1.1/DTD/svg11.dtd">
<svg version="1.1" id="Capa_1" xmlns="http://www.w3.org/2000/svg" xmlns:xlink="http://www.w3.org/1999/xlink" x="0px" y="0px"
	 viewBox="0 0 512 512" style="enable-background:new 0 0 512 512;" xml:space="preserve">
<g>
	<path d="M376,208c-4.418,0-8,3.582-8,8v256c0,13.234-10.766,24-24,24H40c-13.234,0-24-10.766-24-24V168c0-13.234,10.766-24,24-24
		h256c4.418,0,8-3.582,8-8s-3.582-8-8-8H40c-22.056,0-40,17.944-40,40v304c0,22.056,17.944,40,40,40h304c22.056,0,40-17.944,40-40
		V216C384,211.582,380.418,208,376,208z"/>
	<path d="M502.628,9.377C496.586,3.33,488.55,0,480,0s-16.586,3.33-22.625,9.375L200.406,266.343
		c-0.759,0.759-1.358,1.663-1.76,2.658l-23.031,56.969c-1.203,2.977-0.51,6.385,1.76,8.655c1.53,1.53,3.576,2.343,5.658,2.343
		c1.009,0,2.026-0.19,2.997-0.583l56.969-23.031c0.995-0.402,1.899-1.001,2.658-1.76L502.625,54.627
		C508.67,48.583,512,40.548,512,32S508.67,15.417,502.628,9.377z M240.969,293.655l-22.624-22.624L455.031,34.345l22.624,22.624
		L240.969,293.655z M209.508,284.822l17.67,17.67l-29.662,11.992L209.508,284.822z M491.312,43.312l-2.343,2.343l-22.624-22.624
		l2.346-2.346C471.709,17.664,475.726,16,480,16s8.291,1.664,11.313,4.689C494.335,23.71,496,27.728,496,32
		S494.335,40.29,491.312,43.312z"/>
	<path d="M240,200c0-4.418-3.582-8-8-8H72c-4.418,0-8,3.582-8,8s3.582,8,8,8h160C236.418,208,240,204.418,240,200z"/>
	<path d="M200,240c0-4.418-3.582-8-8-8H72c-4.418,0-8,3.582-8,8s3.582,8,8,8h120C196.418,248,200,244.418,200,240z"/>
	<path d="M168,272H72c-4.418,0-8,3.582-8,8s3.582,8,8,8h96c4.418,0,8-3.582,8-8S172.418,272,168,272z"/>
	<path d="M72,328h80c4.418,0,8-3.582,8-8s-3.582-8-8-8H72c-4.418,0-8,3.582-8,8S67.582,328,72,328z"/>
	<path d="M264,320c0,4.418,3.582,8,8,8h40c4.418,0,8-3.582,8-8s-3.582-8-8-8h-40C267.582,312,264,315.582,264,320z"/>
	<path d="M317.66,285.66c1.49-1.49,2.34-3.55,2.34-5.66c0-2.11-0.85-4.17-2.34-5.66c-1.49-1.49-3.55-2.34-5.66-2.34
		c-2.1,0-4.17,0.85-5.66,2.34c-1.49,1.49-2.34,3.56-2.34,5.66c0,2.11,0.85,4.17,2.34,5.66c1.49,1.49,3.56,2.34,5.66,2.34
		S316.17,287.15,317.66,285.66z"/>
	<path d="M64,360c0,4.418,3.582,8,8,8h240c4.418,0,8-3.582,8-8s-3.582-8-8-8H72C67.582,352,64,355.582,64,360z"/>
	<path d="M312,392H72c-4.418,0-8,3.582-8,8s3.582,8,8,8h240c4.418,0,8-3.582,8-8S316.418,392,312,392z"/>
	<path d="M312,432H72c-4.418,0-8,3.582-8,8s3.582,8,8,8h240c4.418,0,8-3.582,8-8S316.418,432,312,432z"/>
</g>
<g>
</g>
<g>
</g>
<g>
</g>
<g>
</g>
<g>
</g>
<g>
</g>
<g>
</g>
<g>
</g>
<g>
</g>
<g>
</g>
<g>
</g>
<g>
</g>
<g>
</g>
<g>
</g>
<g>
</g>
</svg>
