<?xml version="1.0" encoding="iso-8859-1"?>
<!-- Generator: Adobe Illustrator 17.1.0, SVG Export Plug-In . SVG Version: 6.00 Build 0)  -->
<!DOCTYPE svg PUBLIC "-//W3C//DTD SVG 1.1//EN" "http://www.w3.org/Graphics/SVG/1.1/DTD/svg11.dtd">
<svg version="1.1" id="Capa_1" xmlns="http://www.w3.org/2000/svg" xmlns:xlink="http://www.w3.org/1999/xlink" x="0px" y="0px"
	 viewBox="0 0 512 512" style="enable-background:new 0 0 512 512;" xml:space="preserve">
<g>
	<path d="M432,16h-16c0-8.822-7.178-16-16-16h-32c-8.822,0-16,7.178-16,16H80c-22.056,0-40,17.944-40,40v416
		c0,22.056,17.944,40,40,40h352c22.056,0,40-17.944,40-40V56C472,33.944,454.056,16,432,16z M368,16l32-0.01c0,0,0,0.003,0,0.01
		v7.923c0,0.026-0.004,0.051-0.004,0.077S400,24.051,400,24.077V108.9l-13.47-4.49c-0.821-0.274-1.675-0.411-2.53-0.411
		s-1.709,0.137-2.53,0.411L368,108.9V16z M456,472c0,13.234-10.766,24-24,24H80c-13.234,0-24-10.766-24-24V56
		c0-13.234,10.766-24,24-24h272v88c0,2.572,1.236,4.986,3.322,6.49c2.086,1.505,4.768,1.914,7.208,1.1l21.47-7.157l21.47,7.157
		c0.826,0.275,1.68,0.411,2.529,0.411c1.658,0,3.298-0.516,4.678-1.51c2.086-1.503,3.322-3.918,3.322-6.49V32h16
		c13.234,0,24,10.766,24,24V472z"/>
	<path d="M80,96c-4.418,0-8,3.582-8,8v368c0,4.418,3.582,8,8,8s8-3.582,8-8V104C88,99.582,84.418,96,80,96z"/>
	<path d="M80,48c-4.418,0-8,3.582-8,8v16c0,4.418,3.582,8,8,8s8-3.582,8-8V56C88,51.582,84.418,48,80,48z"/>
	<path d="M384,168H160c-22.056,0-40,17.944-40,40v32c0,22.056,17.944,40,40,40h224c22.056,0,40-17.944,40-40v-32
		C424,185.944,406.056,168,384,168z M408,240c0,13.234-10.766,24-24,24H160c-13.234,0-24-10.766-24-24v-32c0-13.234,10.766-24,24-24
		h224c13.234,0,24,10.766,24,24V240z"/>
	<path d="M368,232H176c-4.418,0-8,3.582-8,8s3.582,8,8,8h192c4.418,0,8-3.582,8-8S372.418,232,368,232z"/>
	<path d="M216,216h112c4.418,0,8-3.582,8-8s-3.582-8-8-8H216c-4.418,0-8,3.582-8,8S211.582,216,216,216z"/>
</g>
<g>
</g>
<g>
</g>
<g>
</g>
<g>
</g>
<g>
</g>
<g>
</g>
<g>
</g>
<g>
</g>
<g>
</g>
<g>
</g>
<g>
</g>
<g>
</g>
<g>
</g>
<g>
</g>
<g>
</g>
</svg>
