<?xml version="1.0" encoding="iso-8859-1"?>
<!-- Generator: Adobe Illustrator 17.1.0, SVG Export Plug-In . SVG Version: 6.00 Build 0)  -->
<!DOCTYPE svg PUBLIC "-//W3C//DTD SVG 1.1//EN" "http://www.w3.org/Graphics/SVG/1.1/DTD/svg11.dtd">
<svg version="1.1" id="Capa_1" xmlns="http://www.w3.org/2000/svg" xmlns:xlink="http://www.w3.org/1999/xlink" x="0px" y="0px"
	 viewBox="0 0 512 512" style="enable-background:new 0 0 512 512;" xml:space="preserve">
<g>
	<path d="M408,16V8c0-4.418-3.582-8-8-8s-8,3.582-8,8v8h-16V8c0-4.418-3.582-8-8-8s-8,3.582-8,8v8h-16V8c0-4.418-3.582-8-8-8
		s-8,3.582-8,8v8h-16V8c0-4.418-3.582-8-8-8s-8,3.582-8,8v8h-16V8c0-4.418-3.582-8-8-8s-8,3.582-8,8v8h-16V8c0-4.418-3.582-8-8-8
		s-8,3.582-8,8v8h-16V8c0-4.418-3.582-8-8-8s-8,3.582-8,8v8h-16V8c0-4.418-3.582-8-8-8s-8,3.582-8,8v8h-16V8c0-4.418-3.582-8-8-8
		s-8,3.582-8,8v8h-16V8c0-4.418-3.582-8-8-8s-8,3.582-8,8v8c-22.056,0-40,17.944-40,40v416c0,22.056,17.944,40,40,40h304
		c22.056,0,40-17.944,40-40V56C448,33.944,430.056,16,408,16z M408,496H104c-13.234,0-24-10.766-24-24V80h256c4.418,0,8-3.582,8-8
		s-3.582-8-8-8H80v-8c0-13.234,10.766-24,24-24v8c0,4.418,3.582,8,8,8s8-3.582,8-8v-8h16v8c0,4.418,3.582,8,8,8s8-3.582,8-8v-8h16v8
		c0,4.418,3.582,8,8,8s8-3.582,8-8v-8h16v8c0,4.418,3.582,8,8,8s8-3.582,8-8v-8h16v8c0,4.418,3.582,8,8,8s8-3.582,8-8v-8h16v8
		c0,4.418,3.582,8,8,8s8-3.582,8-8v-8h16v8c0,4.418,3.582,8,8,8s8-3.582,8-8v-8h16v8c0,4.418,3.582,8,8,8s8-3.582,8-8v-8h16v8
		c0,4.418,3.582,8,8,8s8-3.582,8-8v-8h16v8c0,4.418,3.582,8,8,8s8-3.582,8-8v-8c13.234,0,24,10.766,24,24v8h-16
		c-4.418,0-8,3.582-8,8s3.582,8,8,8h16v392C432,485.234,421.234,496,408,496z"/>
	<path d="M368,80h16c4.418,0,8-3.582,8-8s-3.582-8-8-8h-16c-4.418,0-8,3.582-8,8S363.582,80,368,80z"/>
	<path d="M136,120h-16c-4.418,0-8,3.582-8,8s3.582,8,8,8h16c4.418,0,8-3.582,8-8S140.418,120,136,120z"/>
	<path d="M392,120H168c-4.418,0-8,3.582-8,8s3.582,8,8,8h224c4.418,0,8-3.582,8-8S396.418,120,392,120z"/>
	<path d="M136,160h-16c-4.418,0-8,3.582-8,8s3.582,8,8,8h16c4.418,0,8-3.582,8-8S140.418,160,136,160z"/>
	<path d="M392,160H168c-4.418,0-8,3.582-8,8s3.582,8,8,8h224c4.418,0,8-3.582,8-8S396.418,160,392,160z"/>
	<path d="M136,200h-16c-4.418,0-8,3.582-8,8s3.582,8,8,8h16c4.418,0,8-3.582,8-8S140.418,200,136,200z"/>
	<path d="M392,200H168c-4.418,0-8,3.582-8,8s3.582,8,8,8h224c4.418,0,8-3.582,8-8S396.418,200,392,200z"/>
	<path d="M136,240h-16c-4.418,0-8,3.582-8,8s3.582,8,8,8h16c4.418,0,8-3.582,8-8S140.418,240,136,240z"/>
	<path d="M392,240H168c-4.418,0-8,3.582-8,8s3.582,8,8,8h224c4.418,0,8-3.582,8-8S396.418,240,392,240z"/>
	<path d="M136,280h-16c-4.418,0-8,3.582-8,8s3.582,8,8,8h16c4.418,0,8-3.582,8-8S140.418,280,136,280z"/>
	<path d="M392,280H168c-4.418,0-8,3.582-8,8s3.582,8,8,8h224c4.418,0,8-3.582,8-8S396.418,280,392,280z"/>
	<path d="M136,320h-16c-4.418,0-8,3.582-8,8s3.582,8,8,8h16c4.418,0,8-3.582,8-8S140.418,320,136,320z"/>
	<path d="M392,320H168c-4.418,0-8,3.582-8,8s3.582,8,8,8h224c4.418,0,8-3.582,8-8S396.418,320,392,320z"/>
	<path d="M136,360h-16c-4.418,0-8,3.582-8,8s3.582,8,8,8h16c4.418,0,8-3.582,8-8S140.418,360,136,360z"/>
	<path d="M392,360H168c-4.418,0-8,3.582-8,8s3.582,8,8,8h224c4.418,0,8-3.582,8-8S396.418,360,392,360z"/>
	<path d="M136,400h-16c-4.418,0-8,3.582-8,8s3.582,8,8,8h16c4.418,0,8-3.582,8-8S140.418,400,136,400z"/>
	<path d="M392,400H168c-4.418,0-8,3.582-8,8s3.582,8,8,8h224c4.418,0,8-3.582,8-8S396.418,400,392,400z"/>
	<path d="M136,440h-16c-4.418,0-8,3.582-8,8s3.582,8,8,8h16c4.418,0,8-3.582,8-8S140.418,440,136,440z"/>
	<path d="M392,440H168c-4.418,0-8,3.582-8,8s3.582,8,8,8h224c4.418,0,8-3.582,8-8S396.418,440,392,440z"/>
</g>
<g>
</g>
<g>
</g>
<g>
</g>
<g>
</g>
<g>
</g>
<g>
</g>
<g>
</g>
<g>
</g>
<g>
</g>
<g>
</g>
<g>
</g>
<g>
</g>
<g>
</g>
<g>
</g>
<g>
</g>
</svg>
