<?xml version="1.0" encoding="iso-8859-1"?>
<!-- Generator: Adobe Illustrator 17.1.0, SVG Export Plug-In . SVG Version: 6.00 Build 0)  -->
<!DOCTYPE svg PUBLIC "-//W3C//DTD SVG 1.1//EN" "http://www.w3.org/Graphics/SVG/1.1/DTD/svg11.dtd">
<svg version="1.1" id="Capa_1" xmlns="http://www.w3.org/2000/svg" xmlns:xlink="http://www.w3.org/1999/xlink" x="0px" y="0px"
	 viewBox="0 0 512 512" style="enable-background:new 0 0 512 512;" xml:space="preserve">
<g>
	<path d="M480,496h-16V120c0-4.418-3.582-8-8-8h-48V80c0-4.418-3.582-8-8-8s-8,3.582-8,8v32h-16V40c0-4.418-3.582-8-8-8
		s-8,3.582-8,8v72h-16c-4.418,0-8,3.582-8,8s3.582,8,8,8h104v24H344c-4.418,0-8,3.582-8,8s3.582,8,8,8h104v16H344
		c-4.418,0-8,3.582-8,8s3.582,8,8,8h104v16H344c-4.418,0-8,3.582-8,8s3.582,8,8,8h104v16H344c-4.418,0-8,3.582-8,8s3.582,8,8,8h104
		v16H344c-4.418,0-8,3.582-8,8s3.582,8,8,8h104v16H344c-4.418,0-8,3.582-8,8s3.582,8,8,8h104v16H344c-4.418,0-8,3.582-8,8
		s3.582,8,8,8h104v16H344c-4.418,0-8,3.582-8,8s3.582,8,8,8h104v16H344c-4.418,0-8,3.582-8,8s3.582,8,8,8h104v16H344
		c-4.418,0-8,3.582-8,8s3.582,8,8,8h104v40H320V8c0-4.418-3.582-8-8-8H56c-4.418,0-8,3.582-8,8v488H32c-4.418,0-8,3.582-8,8
		s3.582,8,8,8h448c4.418,0,8-3.582,8-8S484.418,496,480,496z M64,48h240v376H64V48z M304,16v16H64V16H304z M64,440h240v56h-16v-32
		c0-4.418-3.582-8-8-8s-8,3.582-8,8v32h-16v-32c0-4.418-3.582-8-8-8s-8,3.582-8,8v32h-16v-32c0-4.418-3.582-8-8-8s-8,3.582-8,8v32
		h-16v-32c0-4.418-3.582-8-8-8s-8,3.582-8,8v32h-16v-32c0-4.418-3.582-8-8-8s-8,3.582-8,8v32h-16v-32c0-4.418-3.582-8-8-8
		s-8,3.582-8,8v32H96v-32c0-4.418-3.582-8-8-8s-8,3.582-8,8v32H64V440z"/>
	<path d="M152,64c-4.418,0-8,3.582-8,8v328c0,4.418,3.582,8,8,8s8-3.582,8-8V72C160,67.582,156.418,64,152,64z"/>
	<path d="M184,64c-4.418,0-8,3.582-8,8v328c0,4.418,3.582,8,8,8s8-3.582,8-8V72C192,67.582,188.418,64,184,64z"/>
	<path d="M120,64c-4.418,0-8,3.582-8,8v328c0,4.418,3.582,8,8,8s8-3.582,8-8V72C128,67.582,124.418,64,120,64z"/>
	<path d="M88,64c-4.418,0-8,3.582-8,8v328c0,4.418,3.582,8,8,8s8-3.582,8-8V72C96,67.582,92.418,64,88,64z"/>
	<path d="M280,64c-4.418,0-8,3.582-8,8v328c0,4.418,3.582,8,8,8s8-3.582,8-8V72C288,67.582,284.418,64,280,64z"/>
	<path d="M248,64c-4.418,0-8,3.582-8,8v328c0,4.418,3.582,8,8,8s8-3.582,8-8V72C256,67.582,252.418,64,248,64z"/>
	<path d="M216,64c-4.418,0-8,3.582-8,8v328c0,4.418,3.582,8,8,8s8-3.582,8-8V72C224,67.582,220.418,64,216,64z"/>
</g>
<g>
</g>
<g>
</g>
<g>
</g>
<g>
</g>
<g>
</g>
<g>
</g>
<g>
</g>
<g>
</g>
<g>
</g>
<g>
</g>
<g>
</g>
<g>
</g>
<g>
</g>
<g>
</g>
<g>
</g>
</svg>
