<?xml version="1.0" encoding="iso-8859-1"?>
<!-- Generator: Adobe Illustrator 17.1.0, SVG Export Plug-In . SVG Version: 6.00 Build 0)  -->
<!DOCTYPE svg PUBLIC "-//W3C//DTD SVG 1.1//EN" "http://www.w3.org/Graphics/SVG/1.1/DTD/svg11.dtd">
<svg version="1.1" id="Capa_1" xmlns="http://www.w3.org/2000/svg" xmlns:xlink="http://www.w3.org/1999/xlink" x="0px" y="0px"
	 viewBox="0 0 512 512" style="enable-background:new 0 0 512 512;" xml:space="preserve">
<g>
	<path d="M80,352c4.418,0,8-3.582,8-8v-48c0-13.233,10.767-24,24-24h136v72c0,4.418,3.582,8,8,8s8-3.582,8-8v-72h136
		c13.233,0,24,10.767,24,24v48c0,4.418,3.582,8,8,8s8-3.582,8-8v-48c0-22.056-17.944-40-40-40H264v-24c0-4.418-3.582-8-8-8
		s-8,3.582-8,8v24H112c-22.056,0-40,17.944-40,40v48C72,348.418,75.582,352,80,352z"/>
	<path d="M144,208h224c4.418,0,8-3.582,8-8s-3.582-8-8-8h-8V32c0-4.418-3.582-8-8-8H160c-4.418,0-8,3.582-8,8v160h-8
		c-4.418,0-8,3.582-8,8S139.582,208,144,208z M168,40h176v152H168V40z"/>
	<path d="M224,120c-4.418,0-8,3.582-8,8v8c0,4.418,3.582,8,8,8s8-3.582,8-8v-8C232,123.582,228.418,120,224,120z"/>
	<path d="M256,120c-4.418,0-8,3.582-8,8v8c0,4.418,3.582,8,8,8s8-3.582,8-8v-8C264,123.582,260.418,120,256,120z"/>
	<path d="M288,120c-4.418,0-8,3.582-8,8v8c0,4.418,3.582,8,8,8s8-3.582,8-8v-8C296,123.582,292.418,120,288,120z"/>
	<path d="M320,120c-4.418,0-8,3.582-8,8v8c0,4.418,3.582,8,8,8s8-3.582,8-8v-8C328,123.582,324.418,120,320,120z"/>
	<path d="M192,120c-4.418,0-8,3.582-8,8v8c0,4.418,3.582,8,8,8s8-3.582,8-8v-8C200,123.582,196.418,120,192,120z"/>
	<path d="M224,152c-4.418,0-8,3.582-8,8v8c0,4.418,3.582,8,8,8s8-3.582,8-8v-8C232,155.582,228.418,152,224,152z"/>
	<path d="M256,152c-4.418,0-8,3.582-8,8v8c0,4.418,3.582,8,8,8s8-3.582,8-8v-8C264,155.582,260.418,152,256,152z"/>
	<path d="M288,152c-4.418,0-8,3.582-8,8v8c0,4.418,3.582,8,8,8s8-3.582,8-8v-8C296,155.582,292.418,152,288,152z"/>
	<path d="M320,152c-4.418,0-8,3.582-8,8v8c0,4.418,3.582,8,8,8s8-3.582,8-8v-8C328,155.582,324.418,152,320,152z"/>
	<path d="M192,152c-4.418,0-8,3.582-8,8v8c0,4.418,3.582,8,8,8s8-3.582,8-8v-8C200,155.582,196.418,152,192,152z"/>
	<path d="M328,472v-96c0-4.418-3.582-8-8-8H192c-4.418,0-8,3.582-8,8v96c-4.418,0-8,3.582-8,8s3.582,8,8,8h144c4.418,0,8-3.582,8-8
		S332.418,472,328,472z M200,384h112v88H200V384z"/>
	<path d="M224,400c-4.418,0-8,3.582-8,8v8c0,4.418,3.582,8,8,8s8-3.582,8-8v-8C232,403.582,228.418,400,224,400z"/>
	<path d="M256,400c-4.418,0-8,3.582-8,8v8c0,4.418,3.582,8,8,8s8-3.582,8-8v-8C264,403.582,260.418,400,256,400z"/>
	<path d="M288,400c-4.418,0-8,3.582-8,8v8c0,4.418,3.582,8,8,8s8-3.582,8-8v-8C296,403.582,292.418,400,288,400z"/>
	<path d="M224,432c-4.418,0-8,3.582-8,8v8c0,4.418,3.582,8,8,8s8-3.582,8-8v-8C232,435.582,228.418,432,224,432z"/>
	<path d="M256,432c-4.418,0-8,3.582-8,8v8c0,4.418,3.582,8,8,8s8-3.582,8-8v-8C264,435.582,260.418,432,256,432z"/>
	<path d="M288,432c-4.418,0-8,3.582-8,8v8c0,4.418,3.582,8,8,8s8-3.582,8-8v-8C296,435.582,292.418,432,288,432z"/>
	<path d="M224,88c-4.418,0-8,3.582-8,8v8c0,4.418,3.582,8,8,8s8-3.582,8-8v-8C232,91.582,228.418,88,224,88z"/>
	<path d="M256,88c-4.418,0-8,3.582-8,8v8c0,4.418,3.582,8,8,8s8-3.582,8-8v-8C264,91.582,260.418,88,256,88z"/>
	<path d="M288,88c-4.418,0-8,3.582-8,8v8c0,4.418,3.582,8,8,8s8-3.582,8-8v-8C296,91.582,292.418,88,288,88z"/>
	<path d="M320,88c-4.418,0-8,3.582-8,8v8c0,4.418,3.582,8,8,8s8-3.582,8-8v-8C328,91.582,324.418,88,320,88z"/>
	<path d="M192,88c-4.418,0-8,3.582-8,8v8c0,4.418,3.582,8,8,8s8-3.582,8-8v-8C200,91.582,196.418,88,192,88z"/>
	<path d="M224,56c-4.418,0-8,3.582-8,8v8c0,4.418,3.582,8,8,8s8-3.582,8-8v-8C232,59.582,228.418,56,224,56z"/>
	<path d="M256,56c-4.418,0-8,3.582-8,8v8c0,4.418,3.582,8,8,8s8-3.582,8-8v-8C264,59.582,260.418,56,256,56z"/>
	<path d="M288,56c-4.418,0-8,3.582-8,8v8c0,4.418,3.582,8,8,8s8-3.582,8-8v-8C296,59.582,292.418,56,288,56z"/>
	<path d="M320,56c-4.418,0-8,3.582-8,8v8c0,4.418,3.582,8,8,8s8-3.582,8-8v-8C328,59.582,324.418,56,320,56z"/>
	<path d="M192,56c-4.418,0-8,3.582-8,8v8c0,4.418,3.582,8,8,8s8-3.582,8-8v-8C200,59.582,196.418,56,192,56z"/>
	<path d="M152,472v-96c0-4.418-3.582-8-8-8H16c-4.418,0-8,3.582-8,8v96c-4.418,0-8,3.582-8,8s3.582,8,8,8h144c4.418,0,8-3.582,8-8
		S156.418,472,152,472z M24,384h112v88H24V384z"/>
	<path d="M48,400c-4.418,0-8,3.582-8,8v8c0,4.418,3.582,8,8,8s8-3.582,8-8v-8C56,403.582,52.418,400,48,400z"/>
	<path d="M80,400c-4.418,0-8,3.582-8,8v8c0,4.418,3.582,8,8,8s8-3.582,8-8v-8C88,403.582,84.418,400,80,400z"/>
	<path d="M112,400c-4.418,0-8,3.582-8,8v8c0,4.418,3.582,8,8,8s8-3.582,8-8v-8C120,403.582,116.418,400,112,400z"/>
	<path d="M48,432c-4.418,0-8,3.582-8,8v8c0,4.418,3.582,8,8,8s8-3.582,8-8v-8C56,435.582,52.418,432,48,432z"/>
	<path d="M80,432c-4.418,0-8,3.582-8,8v8c0,4.418,3.582,8,8,8s8-3.582,8-8v-8C88,435.582,84.418,432,80,432z"/>
	<path d="M112,432c-4.418,0-8,3.582-8,8v8c0,4.418,3.582,8,8,8s8-3.582,8-8v-8C120,435.582,116.418,432,112,432z"/>
	<path d="M504,472v-96c0-4.418-3.582-8-8-8H368c-4.418,0-8,3.582-8,8v96c-4.418,0-8,3.582-8,8s3.582,8,8,8h144c4.418,0,8-3.582,8-8
		S508.418,472,504,472z M376,384h112v88H376V384z"/>
	<path d="M400,400c-4.418,0-8,3.582-8,8v8c0,4.418,3.582,8,8,8s8-3.582,8-8v-8C408,403.582,404.418,400,400,400z"/>
	<path d="M432,400c-4.418,0-8,3.582-8,8v8c0,4.418,3.582,8,8,8s8-3.582,8-8v-8C440,403.582,436.418,400,432,400z"/>
	<path d="M464,400c-4.418,0-8,3.582-8,8v8c0,4.418,3.582,8,8,8s8-3.582,8-8v-8C472,403.582,468.418,400,464,400z"/>
	<path d="M400,432c-4.418,0-8,3.582-8,8v8c0,4.418,3.582,8,8,8s8-3.582,8-8v-8C408,435.582,404.418,432,400,432z"/>
	<path d="M432,432c-4.418,0-8,3.582-8,8v8c0,4.418,3.582,8,8,8s8-3.582,8-8v-8C440,435.582,436.418,432,432,432z"/>
	<path d="M464,432c-4.418,0-8,3.582-8,8v8c0,4.418,3.582,8,8,8s8-3.582,8-8v-8C472,435.582,468.418,432,464,432z"/>
</g>
<g>
</g>
<g>
</g>
<g>
</g>
<g>
</g>
<g>
</g>
<g>
</g>
<g>
</g>
<g>
</g>
<g>
</g>
<g>
</g>
<g>
</g>
<g>
</g>
<g>
</g>
<g>
</g>
<g>
</g>
</svg>
