<?xml version="1.0" encoding="iso-8859-1"?>
<!-- Generator: Adobe Illustrator 17.1.0, SVG Export Plug-In . SVG Version: 6.00 Build 0)  -->
<!DOCTYPE svg PUBLIC "-//W3C//DTD SVG 1.1//EN" "http://www.w3.org/Graphics/SVG/1.1/DTD/svg11.dtd">
<svg version="1.1" id="Capa_1" xmlns="http://www.w3.org/2000/svg" xmlns:xlink="http://www.w3.org/1999/xlink" x="0px" y="0px"
	 viewBox="0 0 512.003 512.003" style="enable-background:new 0 0 512.003 512.003;" xml:space="preserve">
<path d="M511.591,249.467l-40-120c-0.003-0.008-0.007-0.016-0.009-0.024c-0.014-0.042-0.031-0.084-0.046-0.126
	c-0.044-0.124-0.095-0.244-0.146-0.366c-0.039-0.095-0.073-0.192-0.116-0.285c-0.003-0.007-0.005-0.015-0.009-0.022
	c-0.009-0.019-0.02-0.036-0.028-0.054c-0.051-0.109-0.11-0.214-0.166-0.321c-0.058-0.11-0.112-0.222-0.174-0.328
	c-0.011-0.018-0.022-0.036-0.033-0.054c-0.056-0.093-0.118-0.181-0.178-0.272c-0.074-0.113-0.146-0.229-0.225-0.338
	c-0.011-0.016-0.023-0.032-0.034-0.047c-0.063-0.086-0.135-0.166-0.202-0.249c-0.084-0.104-0.165-0.211-0.254-0.311
	c-0.014-0.015-0.027-0.032-0.041-0.047c-0.076-0.083-0.16-0.16-0.239-0.241c-0.087-0.088-0.171-0.179-0.262-0.262
	c-0.018-0.017-0.034-0.034-0.052-0.05c-0.084-0.077-0.177-0.146-0.266-0.219c-0.091-0.075-0.18-0.154-0.274-0.226
	c-0.023-0.017-0.044-0.036-0.067-0.052c-0.084-0.062-0.175-0.117-0.261-0.176c-0.005-0.003-0.009-0.006-0.014-0.009
	c-0.098-0.066-0.193-0.136-0.293-0.198c-0.03-0.019-0.06-0.038-0.09-0.056c-0.084-0.05-0.174-0.093-0.26-0.141
	c-0.001-0.001-0.003-0.001-0.005-0.002c-0.107-0.059-0.212-0.12-0.321-0.174c-0.039-0.02-0.079-0.038-0.118-0.057
	c-0.019-0.009-0.035-0.02-0.054-0.028l-208-96c-0.028-0.013-0.058-0.021-0.086-0.034c-0.184-0.083-0.373-0.155-0.564-0.224
	c-0.073-0.026-0.144-0.056-0.217-0.08c-0.201-0.065-0.407-0.12-0.615-0.169c-0.066-0.016-0.13-0.037-0.197-0.051
	c-0.211-0.044-0.426-0.076-0.642-0.104c-0.064-0.009-0.128-0.023-0.193-0.03c-0.226-0.023-0.455-0.032-0.686-0.037
	c-0.103-0.002-0.205-0.002-0.308,0c-0.23,0.004-0.46,0.013-0.686,0.037c-0.064,0.007-0.128,0.021-0.193,0.03
	c-0.216,0.028-0.431,0.06-0.642,0.104c-0.066,0.014-0.131,0.035-0.197,0.051c-0.208,0.05-0.414,0.104-0.615,0.169
	c-0.073,0.024-0.145,0.054-0.217,0.08c-0.191,0.069-0.38,0.142-0.564,0.224c-0.028,0.013-0.058,0.021-0.086,0.034l-208,96
	c-0.017,0.008-0.032,0.018-0.049,0.026c-0.042,0.02-0.085,0.04-0.127,0.061c-0.103,0.051-0.202,0.109-0.303,0.164
	c-0.017,0.009-0.034,0.019-0.052,0.028c-0.074,0.041-0.151,0.078-0.223,0.121c-0.033,0.02-0.065,0.04-0.098,0.06
	c-0.094,0.059-0.184,0.124-0.276,0.186c-0.026,0.018-0.052,0.035-0.077,0.052c-0.069,0.047-0.142,0.091-0.208,0.14
	c-0.025,0.019-0.049,0.039-0.074,0.058c-0.091,0.069-0.177,0.146-0.265,0.218c-0.017,0.015-0.035,0.029-0.052,0.043
	c-0.072,0.06-0.148,0.116-0.217,0.178c-0.02,0.018-0.038,0.037-0.057,0.055c-0.093,0.085-0.179,0.179-0.269,0.27
	c-0.075,0.077-0.156,0.149-0.228,0.229c-0.015,0.017-0.029,0.035-0.044,0.052c-0.09,0.101-0.173,0.209-0.258,0.315
	c-0.065,0.081-0.134,0.158-0.196,0.241c-0.012,0.017-0.024,0.033-0.036,0.05c-0.08,0.109-0.152,0.226-0.227,0.34
	c-0.058,0.089-0.12,0.176-0.175,0.268c-0.011,0.019-0.022,0.037-0.033,0.055c-0.063,0.106-0.117,0.218-0.175,0.329
	c-0.056,0.106-0.114,0.211-0.166,0.32c-0.009,0.019-0.02,0.036-0.028,0.054c-0.003,0.007-0.006,0.015-0.009,0.022
	c-0.042,0.093-0.077,0.19-0.116,0.285c-0.05,0.122-0.102,0.242-0.146,0.366c-0.015,0.042-0.032,0.084-0.046,0.126
	c-0.003,0.008-0.007,0.016-0.009,0.024l-40,120c-1.289,3.867,0.536,8.086,4.237,9.794l208,96c1.063,0.49,2.208,0.736,3.353,0.736
	c1.081,0,2.163-0.219,3.177-0.657c2.088-0.904,3.693-2.654,4.413-4.813l24.411-73.232v186.198l-192-88.615v-74.881
	c0-4.418-3.582-8-8-8s-8,3.582-8,8v80c0,0.064,0.008,0.126,0.01,0.19c0.004,0.167,0.01,0.333,0.025,0.498
	c0.01,0.115,0.024,0.229,0.039,0.342c0.018,0.138,0.038,0.275,0.063,0.411c0.025,0.136,0.054,0.269,0.086,0.402
	c0.027,0.112,0.054,0.224,0.086,0.334c0.041,0.146,0.087,0.289,0.135,0.43c0.035,0.1,0.071,0.199,0.109,0.297
	c0.055,0.141,0.113,0.278,0.176,0.415c0.046,0.101,0.094,0.201,0.145,0.3c0.063,0.125,0.13,0.247,0.199,0.368
	c0.063,0.109,0.128,0.216,0.196,0.322c0.066,0.103,0.134,0.205,0.205,0.305c0.082,0.117,0.168,0.23,0.257,0.343
	c0.067,0.084,0.135,0.167,0.205,0.249c0.099,0.116,0.202,0.229,0.309,0.34c0.072,0.074,0.145,0.146,0.219,0.218
	c0.11,0.106,0.223,0.208,0.339,0.308c0.086,0.073,0.173,0.144,0.262,0.213c0.109,0.086,0.22,0.17,0.334,0.25
	c0.111,0.078,0.225,0.152,0.341,0.225c0.099,0.062,0.198,0.125,0.301,0.183c0.142,0.081,0.288,0.155,0.436,0.228
	c0.058,0.029,0.113,0.063,0.172,0.09l208,96c0.016,0.007,0.032,0.012,0.049,0.019c0.027,0.012,0.053,0.024,0.08,0.036
	c0.174,0.077,0.352,0.143,0.532,0.208c0.073,0.026,0.145,0.056,0.218,0.08c0.071,0.023,0.142,0.044,0.213,0.065
	c0.052,0.015,0.105,0.026,0.157,0.04c0.067,0.019,0.135,0.036,0.202,0.052c0.083,0.021,0.165,0.046,0.249,0.064
	c0.124,0.026,0.251,0.042,0.377,0.062c0.085,0.014,0.169,0.029,0.255,0.041c0.068,0.009,0.135,0.022,0.202,0.029
	c0.002,0,0.004,0,0.006,0c0.27,0.027,0.539,0.043,0.807,0.043c0.002,0,0.003,0,0.005,0s0.003,0,0.005,0
	c0.269,0,0.539-0.016,0.808-0.043c0.002,0,0.003,0,0.005,0c0.068-0.007,0.135-0.021,0.203-0.029c0.086-0.011,0.17-0.026,0.255-0.041
	c0.126-0.02,0.253-0.036,0.377-0.062c0.084-0.018,0.168-0.044,0.252-0.065c0.067-0.016,0.133-0.033,0.199-0.051
	c0.052-0.014,0.105-0.025,0.157-0.04c0.071-0.021,0.142-0.042,0.212-0.065c0.074-0.024,0.148-0.055,0.222-0.081
	c0.179-0.064,0.356-0.13,0.529-0.207c0.027-0.012,0.053-0.023,0.08-0.035c0.016-0.007,0.032-0.012,0.049-0.02l208-96
	c0.06-0.027,0.114-0.062,0.172-0.09c0.148-0.073,0.293-0.147,0.436-0.228c0.103-0.059,0.202-0.121,0.301-0.183
	c0.115-0.073,0.229-0.147,0.341-0.225c0.115-0.081,0.225-0.165,0.334-0.25c0.089-0.07,0.176-0.14,0.262-0.213
	c0.117-0.1,0.229-0.203,0.339-0.308c0.074-0.071,0.147-0.144,0.218-0.217c0.107-0.111,0.21-0.225,0.31-0.341
	c0.07-0.082,0.138-0.164,0.205-0.249c0.089-0.112,0.174-0.227,0.257-0.343c0.071-0.1,0.139-0.202,0.205-0.305
	c0.068-0.106,0.133-0.213,0.196-0.322c0.07-0.121,0.136-0.243,0.199-0.368c0.05-0.099,0.099-0.199,0.145-0.3
	c0.062-0.137,0.121-0.274,0.176-0.415c0.038-0.099,0.074-0.197,0.109-0.297c0.049-0.142,0.094-0.285,0.136-0.43
	c0.031-0.11,0.059-0.222,0.086-0.334c0.031-0.133,0.061-0.266,0.086-0.402c0.025-0.136,0.045-0.273,0.063-0.411
	c0.015-0.114,0.029-0.227,0.039-0.342c0.015-0.166,0.021-0.332,0.025-0.499c0.001-0.064,0.01-0.126,0.01-0.19v-80
	c0-4.418-3.582-8-8-8s-8,3.582-8,8v74.881l-192,88.615V277.296l24.411,73.232c0.719,2.158,2.324,3.908,4.413,4.813
	c1.014,0.438,2.096,0.657,3.177,0.657c1.145,0,2.29-0.246,3.353-0.736l208-96C511.055,257.553,512.88,253.334,511.591,249.467z
	 M256.001,219.187l-188.91-87.189L248.001,48.5v147.497c0,4.418,3.582,8,8,8s8-3.582,8-8V48.5l180.91,83.497L256.001,219.187z
	 M211.238,336.988L17.855,247.734l34.909-104.728l193.383,89.254L211.238,336.988z M300.764,336.988L265.855,232.26l193.383-89.254
	l34.909,104.728L300.764,336.988z"/>
<g>
</g>
<g>
</g>
<g>
</g>
<g>
</g>
<g>
</g>
<g>
</g>
<g>
</g>
<g>
</g>
<g>
</g>
<g>
</g>
<g>
</g>
<g>
</g>
<g>
</g>
<g>
</g>
<g>
</g>
</svg>
