<?xml version="1.0" encoding="iso-8859-1"?>
<!-- Generator: Adobe Illustrator 17.1.0, SVG Export Plug-In . SVG Version: 6.00 Build 0)  -->
<!DOCTYPE svg PUBLIC "-//W3C//DTD SVG 1.1//EN" "http://www.w3.org/Graphics/SVG/1.1/DTD/svg11.dtd">
<svg version="1.1" id="Capa_1" xmlns="http://www.w3.org/2000/svg" xmlns:xlink="http://www.w3.org/1999/xlink" x="0px" y="0px"
	 viewBox="0 0 512 512" style="enable-background:new 0 0 512 512;" xml:space="preserve">
<g>
	<path d="M192,0c-22.056,0-40,14.355-40,32v376c0,0.859,0.139,1.714,0.411,2.53l32,96c1.089,3.267,4.146,5.47,7.589,5.47
		s6.5-2.203,7.589-5.47l32-96c0.272-0.816,0.411-1.671,0.411-2.53V32C232,14.355,214.056,0,192,0z M204.901,440h-25.801
		l-7.999-23.997H212.9L204.901,440z M200,400.003V376c0-4.418-3.582-8-8-8s-8,3.582-8,8v24.003h-16V56h16v288c0,4.418,3.582,8,8,8
		s8-3.582,8-8V56h16v344.003H200z M192,16c13.009,0,24,7.327,24,16v8h-48v-8C168,23.327,178.991,16,192,16z M192,478.702
		L184.433,456h15.135L192,478.702z"/>
	<path d="M336,136h-64c-13.234,0-24,10.767-24,24v192c0,13.233,10.766,24,24,24h64c13.234,0,24-10.767,24-24V160
		C360,146.767,349.234,136,336,136z M264,200h80v88h-80V200z M272,152h64c4.411,0,8,3.589,8,8v24h-80v-24
		C264,155.589,267.589,152,272,152z M336,360h-64c-4.411,0-8-3.589-8-8v-48h80v48C344,356.411,340.411,360,336,360z"/>
	<path d="M304,216c-4.418,0-8,3.582-8,8v40c0,4.418,3.582,8,8,8s8-3.582,8-8v-40C312,219.582,308.418,216,304,216z"/>
</g>
<g>
</g>
<g>
</g>
<g>
</g>
<g>
</g>
<g>
</g>
<g>
</g>
<g>
</g>
<g>
</g>
<g>
</g>
<g>
</g>
<g>
</g>
<g>
</g>
<g>
</g>
<g>
</g>
<g>
</g>
</svg>
