<?xml version="1.0" encoding="iso-8859-1"?>
<!-- Generator: Adobe Illustrator 17.1.0, SVG Export Plug-In . SVG Version: 6.00 Build 0)  -->
<!DOCTYPE svg PUBLIC "-//W3C//DTD SVG 1.1//EN" "http://www.w3.org/Graphics/SVG/1.1/DTD/svg11.dtd">
<svg version="1.1" id="Capa_1" xmlns="http://www.w3.org/2000/svg" xmlns:xlink="http://www.w3.org/1999/xlink" x="0px" y="0px"
	 viewBox="0 0 512 512" style="enable-background:new 0 0 512 512;" xml:space="preserve">
<g>
	<path d="M437.02,74.98C388.667,26.629,324.38,0,256,0S123.333,26.629,74.98,74.98C26.628,123.333,0,187.62,0,256
		s26.628,132.667,74.98,181.02C123.333,485.371,187.62,512,256,512s132.667-26.629,181.02-74.98C485.372,388.667,512,324.38,512,256
		S485.372,123.333,437.02,74.98z M425.706,425.706C380.376,471.036,320.106,496,256,496s-124.376-24.964-169.706-70.294
		C40.964,380.376,16,320.106,16,256S40.964,131.624,86.294,86.294C131.624,40.964,191.894,16,256,16s124.376,24.964,169.706,70.294
		C471.036,131.624,496,191.894,496,256S471.036,380.376,425.706,425.706z"/>
	<path d="M392.973,119.034C388.442,114.498,382.415,112,376,112s-12.442,2.498-16.969,7.03l-12.688,12.688
		c-3.125,3.125-3.125,8.189,0,11.314c3.124,3.123,8.189,3.123,11.313,0l12.691-12.691c1.508-1.51,3.515-2.341,5.652-2.341
		s4.145,0.831,5.656,2.345c3.118,3.118,3.118,8.192,0,11.311L141.652,381.659c-1.508,1.51-3.515,2.341-5.652,2.341
		s-4.145-0.831-5.656-2.345c-3.118-3.118-3.118-8.192,0-11.311l204.688-204.688c3.125-3.125,3.125-8.189,0-11.314
		c-3.124-3.123-8.189-3.123-11.313,0L119.031,359.03c-9.357,9.357-9.357,24.582-0.003,33.936C123.558,397.502,129.585,400,136,400
		s12.442-2.498,16.969-7.03l240-240C402.326,143.612,402.326,128.388,392.973,119.034z"/>
	<path d="M168,240c39.701,0,72-32.299,72-72s-32.299-72-72-72s-72,32.299-72,72S128.299,240,168,240z M168,112
		c30.878,0,56,25.121,56,56s-25.122,56-56,56s-56-25.121-56-56S137.122,112,168,112z"/>
	<path d="M344,272c-39.701,0-72,32.299-72,72s32.299,72,72,72s72-32.299,72-72S383.701,272,344,272z M344,400
		c-30.878,0-56-25.121-56-56s25.122-56,56-56s56,25.121,56,56S374.878,400,344,400z"/>
	<path d="M168,208c22.056,0,40-17.944,40-40c0-3.395-0.427-6.77-1.27-10.03c-1.105-4.277-5.469-6.853-9.748-5.743
		c-4.278,1.105-6.849,5.47-5.744,9.747c0.505,1.954,0.761,3.981,0.761,6.026c0,13.233-10.767,24-24,24s-24-10.767-24-24
		s10.767-24,24-24c2.038,0,4.06,0.255,6.01,0.757c4.279,1.1,8.641-1.476,9.741-5.755c1.101-4.278-1.475-8.64-5.754-9.741
		C174.745,128.424,171.381,128,168,128c-22.056,0-40,17.944-40,40S145.944,208,168,208z"/>
	<path d="M372.982,328.227c-4.278,1.105-6.849,5.47-5.744,9.747c0.505,1.954,0.761,3.981,0.761,6.026c0,13.233-10.767,24-24,24
		s-24-10.767-24-24s10.767-24,24-24c2.038,0,4.06,0.255,6.01,0.757c4.279,1.1,8.64-1.476,9.741-5.755
		c1.101-4.278-1.475-8.64-5.754-9.741C350.745,304.424,347.381,304,344,304c-22.056,0-40,17.944-40,40s17.944,40,40,40
		s40-17.944,40-40c0-3.395-0.427-6.77-1.27-10.03C381.625,329.692,377.262,327.121,372.982,328.227z"/>
</g>
<g>
</g>
<g>
</g>
<g>
</g>
<g>
</g>
<g>
</g>
<g>
</g>
<g>
</g>
<g>
</g>
<g>
</g>
<g>
</g>
<g>
</g>
<g>
</g>
<g>
</g>
<g>
</g>
<g>
</g>
</svg>
