<?xml version="1.0" encoding="iso-8859-1"?>
<!-- Generator: Adobe Illustrator 17.1.0, SVG Export Plug-In . SVG Version: 6.00 Build 0)  -->
<!DOCTYPE svg PUBLIC "-//W3C//DTD SVG 1.1//EN" "http://www.w3.org/Graphics/SVG/1.1/DTD/svg11.dtd">
<svg version="1.1" id="Capa_1" xmlns="http://www.w3.org/2000/svg" xmlns:xlink="http://www.w3.org/1999/xlink" x="0px" y="0px"
	 viewBox="0 0 512 512" style="enable-background:new 0 0 512 512;" xml:space="preserve">
<g>
	<path d="M288,96H128c-22.056,0-40,17.944-40,40v336c0,22.056,17.944,40,40,40h160c22.056,0,40-17.944,40-40V136
		C328,113.944,310.056,96,288,96z M104,160h208v288H104V160z M128,112h160c13.234,0,24,10.766,24,24v8H104v-8
		C104,122.766,114.766,112,128,112z M288,496H128c-13.234,0-24-10.766-24-24v-8h208v8C312,485.234,301.234,496,288,496z"/>
	<path d="M288,64c-4.418,0-8,3.582-8,8s3.582,8,8,8c30.878,0,56,25.122,56,56c0,4.418,3.582,8,8,8s8-3.582,8-8
		C360,96.299,327.701,64,288,64z"/>
	<path d="M288,32c-4.418,0-8,3.582-8,8s3.582,8,8,8c48.523,0,88,39.477,88,88c0,4.418,3.582,8,8,8s8-3.582,8-8
		C392,78.654,345.346,32,288,32z"/>
	<path d="M288,0c-4.418,0-8,3.582-8,8s3.582,8,8,8c66.168,0,120,53.832,120,120c0,4.418,3.582,8,8,8s8-3.582,8-8
		C424,61.009,362.991,0,288,0z"/>
	<path d="M192,136h32c4.418,0,8-3.582,8-8s-3.582-8-8-8h-32c-4.418,0-8,3.582-8,8S187.582,136,192,136z"/>
	<path d="M232,472h-48c-4.418,0-8,3.582-8,8s3.582,8,8,8h48c4.418,0,8-3.582,8-8S236.418,472,232,472z"/>
	<path d="M168,136c2.11,0,4.17-0.85,5.66-2.34c1.49-1.49,2.34-3.56,2.34-5.66c0-2.11-0.85-4.17-2.34-5.66
		c-1.49-1.49-3.55-2.34-5.66-2.34c-2.11,0-4.17,0.85-5.66,2.34c-1.49,1.49-2.34,3.55-2.34,5.66c0,2.11,0.85,4.17,2.34,5.66
		C163.83,135.15,165.89,136,168,136z"/>
	<path d="M208,312c22.056,0,40-17.944,40-40v-8c0-22.056-17.944-40-40-40s-40,17.944-40,40v8C168,294.056,185.944,312,208,312z
		 M184,264c0-13.234,10.766-24,24-24s24,10.766,24,24v8c0,13.234-10.766,24-24,24s-24-10.766-24-24V264z"/>
	<path d="M263.322,323.153c-6.268-7.023-14.524-10.891-23.25-10.891h-6.79c-2.778,0-5.357,1.441-6.813,3.807
		C221.803,323.652,215.072,328,208,328s-13.803-4.348-18.469-11.93c-1.456-2.366-4.035-3.807-6.813-3.807h-6.79
		C157.947,312.262,144,329.323,144,344v17.328c0,8.09,6.582,14.672,14.672,14.672h98.689c8.071,0,14.638-6.567,14.638-14.639V344
		C272,337.036,268.756,329.242,263.322,323.153z M256,360h-96v-16c0-5.404,6.203-15.738,15.928-15.738h2.568
		C186.066,338.321,196.612,344,208,344s21.934-5.679,29.503-15.738h2.568c9.725,0,15.928,10.334,15.928,15.738V360z"/>
</g>
<g>
</g>
<g>
</g>
<g>
</g>
<g>
</g>
<g>
</g>
<g>
</g>
<g>
</g>
<g>
</g>
<g>
</g>
<g>
</g>
<g>
</g>
<g>
</g>
<g>
</g>
<g>
</g>
<g>
</g>
</svg>
