<?xml version="1.0" encoding="iso-8859-1"?>
<!-- Generator: Adobe Illustrator 17.1.0, SVG Export Plug-In . SVG Version: 6.00 Build 0)  -->
<!DOCTYPE svg PUBLIC "-//W3C//DTD SVG 1.1//EN" "http://www.w3.org/Graphics/SVG/1.1/DTD/svg11.dtd">
<svg version="1.1" id="Capa_1" xmlns="http://www.w3.org/2000/svg" xmlns:xlink="http://www.w3.org/1999/xlink" x="0px" y="0px"
	 viewBox="0 0 512 512" style="enable-background:new 0 0 512 512;" xml:space="preserve">
<g>
	<path d="M448,0H96C73.944,0,56,17.944,56,40v8h-8c-13.233,0-24,10.767-24,24s10.767,24,24,24h8v320h-8c-13.233,0-24,10.767-24,24
		s10.767,24,24,24h8v8c0,22.056,17.944,40,40,40h311.999c22.056,0,40-17.938,40-39.985l0-24.015l0.001,0c22.056,0,40-17.944,40-40
		V40C488,17.944,470.056,0,448,0z M472,144h-24l0-24c0-13.234,10.766-24,24-24V144z M447.999,272H472v40h-24.001L447.999,272z
		 M448,256v-40h24v40H448z M448,200v-40h24v40H448z M447.999,328H472v40h-24.001L447.999,328z M40,72c0-4.411,3.589-8,8-8h15.981
		c0.007,0,0.013,0.001,0.019,0.001S64.013,64,64.019,64H80c4.411,0,8,3.589,8,8s-3.589,8-8,8H48C43.589,80,40,76.411,40,72z M40,440
		c0-4.411,3.589-8,8-8h32c4.411,0,8,3.589,8,8s-3.589,8-8,8H64.01c-0.003,0-0.007,0-0.01,0s-0.006,0-0.01,0H48
		C43.589,448,40,444.411,40,440z M407.999,496H136V112c0-4.418-3.582-8-8-8s-8,3.582-8,8v384H96c-13.234,0-24-10.766-24-24v-8h8
		c13.233,0,24-10.767,24-24s-10.767-24-24-24h-8V96h8c13.233,0,24-10.767,24-24S93.233,48,80,48h-8v-8c0-13.234,10.766-24,24-24h24
		v16c0,4.418,3.582,8,8,8s8-3.582,8-8V16h312c13.234,0,24,10.766,24,24v40c-22.056,0-40,17.944-40,40l-0.001,352.015
		C431.998,485.24,421.232,496,407.999,496z M448,432l-0.001,0l0-48H472v24C472,421.234,461.234,432,448,432z"/>
	<path d="M128,56c-4.418,0-8,3.582-8,8v16c0,4.418,3.582,8,8,8s8-3.582,8-8V64C136,59.582,132.418,56,128,56z"/>
	<path d="M356.622,271.555c-3.91-3.911-9.123-6.064-14.676-6.064c-5.554,0-10.767,2.154-14.676,6.064l-4.51,4.509
		c-3.91,3.91-6.064,9.123-6.064,14.676c0,1.469,0.161,2.912,0.455,4.315c-26.252-20.081-49.639-43.468-69.719-69.72
		c1.424,0.301,2.87,0.465,4.32,0.465c5.315,0,10.63-2.023,14.676-6.069l4.51-4.51c8.092-8.093,8.092-21.26,0-29.353l-28.408-28.408
		c-7.897-7.897-20.613-8.066-28.744-0.55c-0.21,0.171-0.413,0.354-0.609,0.55l-22.865,22.865c-7.381,7.383-9.275,20.535-4.311,29.94
		c0.025,0.047,0.05,0.093,0.076,0.14c35.391,63.956,81.883,110.349,146.314,146.002c0.046,0.025,0.093,0.05,0.139,0.075
		c3.537,1.867,7.603,2.764,11.694,2.764c6.787,0,13.64-2.47,18.248-7.076l22.859-22.859c0.002-0.002,0.003-0.003,0.005-0.005
		c3.91-3.91,6.064-9.123,6.064-14.677c0-5.554-2.153-10.766-6.095-14.707L356.622,271.555z M351.158,340.857
		c-2.42,2.419-7.898,3.156-11.104,1.506c-61.617-34.113-106.081-78.477-139.932-139.62c-1.65-3.207-0.914-8.685,1.504-11.104
		l22.864-22.864c1.823-1.822,4.902-1.822,6.726,0l28.408,28.408c1.823,1.823,1.822,4.903,0,6.726l-4.51,4.509
		c-1.822,1.823-4.903,1.823-6.726,0c-3.125-3.124-8.19-3.124-11.314,0c-0.002,0.002-0.003,0.003-0.005,0.005l-7.83,7.83
		c-2.778,2.777-3.128,7.161-0.826,10.344c24.358,33.688,53.791,63.121,87.48,87.48c1.408,1.018,3.05,1.517,4.685,1.517
		c2.062,0,4.11-0.794,5.659-2.343l7.83-7.83c0.002-0.002,0.003-0.003,0.005-0.005c0.756-0.756,1.324-1.626,1.714-2.554
		c0.013-0.031,0.03-0.061,0.043-0.092c0.018-0.045,0.031-0.091,0.048-0.136c0.754-1.961,0.705-4.156-0.142-6.088
		c-0.389-0.886-0.938-1.718-1.663-2.443c-0.888-0.888-1.377-2.082-1.377-3.362c0-1.28,0.489-2.474,1.377-3.362l4.51-4.51
		c0.888-0.888,2.082-1.377,3.362-1.377s2.474,0.489,3.394,1.408l28.682,28.37c0.888,0.889,1.377,2.083,1.377,3.363
		s-0.489,2.474-1.377,3.362c-0.002,0.002-0.003,0.003-0.005,0.005L351.158,340.857z"/>
</g>
<g>
</g>
<g>
</g>
<g>
</g>
<g>
</g>
<g>
</g>
<g>
</g>
<g>
</g>
<g>
</g>
<g>
</g>
<g>
</g>
<g>
</g>
<g>
</g>
<g>
</g>
<g>
</g>
<g>
</g>
</svg>
