<?xml version="1.0" encoding="iso-8859-1"?>
<!-- Generator: Adobe Illustrator 17.1.0, SVG Export Plug-In . SVG Version: 6.00 Build 0)  -->
<!DOCTYPE svg PUBLIC "-//W3C//DTD SVG 1.1//EN" "http://www.w3.org/Graphics/SVG/1.1/DTD/svg11.dtd">
<svg version="1.1" id="Capa_1" xmlns="http://www.w3.org/2000/svg" xmlns:xlink="http://www.w3.org/1999/xlink" x="0px" y="0px"
	 viewBox="0 0 512 512" style="enable-background:new 0 0 512 512;" xml:space="preserve">
<g>
	<path d="M179.206,366.646c-0.049-0.014-0.098-0.027-0.147-0.04l-29.81-7.742c-2.527-0.744-4.523-2.052-4.954-2.736l-0.02-16.215
		c0.025-0.03,0.051-0.057,0.076-0.086c10.221-12.216,15.85-28.045,15.85-44.57v-12.076c10.197-33.219,3.011-62.02-0.677-70.403
		c-0.013-0.029-0.029-0.054-0.042-0.083c-0.07-0.154-0.147-0.303-0.226-0.451c-0.048-0.09-0.094-0.182-0.145-0.27
		c-0.075-0.128-0.156-0.251-0.238-0.375c-0.068-0.103-0.133-0.206-0.205-0.305c-0.068-0.094-0.142-0.182-0.214-0.272
		c-0.094-0.119-0.188-0.238-0.288-0.35c-0.057-0.064-0.118-0.123-0.177-0.185c-0.122-0.128-0.244-0.255-0.373-0.374
		c-0.05-0.046-0.104-0.088-0.155-0.132c-0.143-0.125-0.286-0.248-0.437-0.361c-0.056-0.042-0.115-0.08-0.172-0.12
		c-0.15-0.107-0.3-0.213-0.456-0.309c-0.076-0.047-0.155-0.087-0.232-0.131c-0.142-0.081-0.283-0.163-0.43-0.235
		c-0.102-0.05-0.207-0.093-0.311-0.139c-0.128-0.056-0.254-0.115-0.385-0.165c-0.12-0.045-0.243-0.083-0.365-0.122
		c-0.122-0.04-0.242-0.082-0.365-0.116c-0.123-0.034-0.248-0.058-0.373-0.086c-0.129-0.029-0.258-0.06-0.389-0.083
		c-0.112-0.019-0.226-0.031-0.34-0.045c-0.149-0.019-0.298-0.039-0.449-0.05c-0.096-0.007-0.193-0.007-0.29-0.01
		c-0.171-0.006-0.343-0.01-0.515-0.005c-0.085,0.003-0.17,0.011-0.255,0.016c-0.183,0.011-0.366,0.026-0.549,0.05
		c-0.027,0.004-0.054,0.004-0.081,0.008c-7.708,1.103-17.114-1.15-27.07-3.534c-17.61-4.217-37.474-8.961-54.875,3.584
		c-16.826,1.446-28.757,15.586-28.757,34.698c0,13.898,6.449,38.721,7.927,44.229v6.681c0,17.249,5.969,33.193,15.538,45.087
		l-0.022,17.32c-0.43,0.684-2.427,1.992-4.954,2.736l-29.809,7.742c-0.049,0.013-0.098,0.026-0.147,0.04
		C9.928,371.98,0,390.581,0,406.208v8.64C0,424.306,8.277,432,18.452,432l85.418-0.009c0.062,0.001,0.121,0.009,0.183,0.009
		c0.062,0,0.122-0.008,0.184-0.009l85.419-0.009c10.174,0,18.451-7.694,18.451-17.151v-8.64
		C208.107,390.563,198.18,371.961,179.206,366.646z M104.087,382.691l-27.743-16.646c2.115-2.677,3.467-5.927,3.467-9.781
		l0.004-3.437c7.4,4.362,15.669,6.84,24.326,6.84c8.498,0,16.699-2.2,24.15-6.364l0.004,2.933c0,3.967,1.43,7.293,3.65,10.013
		L104.087,382.691z M64.296,291.007c0-7.951,3.365-19.58,5.88-26.936c36.247,0.832,63.597,9.537,74.026,13.397v4.44
		c0,0.024,0,0.049,0,0.073v13.275c0,14.104-5.305,27.026-13.579,35.967c-0.019,0.019-0.036,0.038-0.054,0.057
		c-7.113,7.66-16.409,12.386-26.427,12.386c-21.227,0-39.846-23.331-39.846-49.928V291.007z M71.992,224
		c0.056,0,0.11-0.007,0.166-0.008c0.205-0.004,0.411-0.011,0.616-0.031c0.101-0.01,0.199-0.028,0.299-0.042
		c0.16-0.022,0.319-0.042,0.477-0.073c0.117-0.023,0.23-0.055,0.345-0.083c0.138-0.034,0.277-0.065,0.414-0.106
		c0.123-0.037,0.241-0.083,0.361-0.125c0.125-0.044,0.251-0.086,0.374-0.137c0.127-0.053,0.25-0.114,0.373-0.173
		c0.112-0.053,0.224-0.102,0.334-0.161c0.137-0.073,0.268-0.156,0.399-0.236c0.091-0.056,0.185-0.107,0.274-0.167
		c0.161-0.108,0.315-0.226,0.468-0.344c0.053-0.041,0.108-0.075,0.16-0.118c11.771-9.618,27.047-5.96,43.22-2.088
		c8.706,2.084,17.645,4.219,26.325,4.251c2.086,7.707,4.137,21.364,1.934,37.632C135.513,257.247,104.961,248,64.607,248
		c-0.021,0-0.041,0.003-0.062,0.003c-0.178,0.001-0.355,0.013-0.532,0.027c-0.094,0.007-0.188,0.01-0.281,0.02
		c-0.143,0.016-0.284,0.041-0.425,0.065c-0.125,0.021-0.25,0.037-0.373,0.063c-0.093,0.02-0.183,0.047-0.275,0.071
		c-0.165,0.041-0.331,0.081-0.492,0.133c-0.044,0.014-0.087,0.033-0.13,0.048c-0.202,0.069-0.402,0.141-0.596,0.224
		c-0.021,0.009-0.04,0.02-0.061,0.029c-0.213,0.094-0.422,0.194-0.625,0.306c-0.053,0.029-0.103,0.064-0.156,0.095
		c-0.166,0.096-0.331,0.193-0.489,0.3c-0.125,0.085-0.244,0.18-0.364,0.272c-0.079,0.061-0.163,0.117-0.24,0.181
		c-0.156,0.128-0.303,0.268-0.449,0.408c-0.037,0.036-0.078,0.069-0.115,0.105c-0.137,0.137-0.264,0.283-0.391,0.431
		c-0.042,0.049-0.088,0.094-0.129,0.144c-0.1,0.122-0.191,0.252-0.284,0.38c-0.062,0.086-0.128,0.169-0.187,0.257
		c-0.065,0.098-0.123,0.202-0.184,0.303c-0.078,0.129-0.158,0.257-0.229,0.391c-0.041,0.078-0.076,0.159-0.115,0.239
		c-0.053,0.108-0.108,0.213-0.156,0.323c-0.553-3.772-0.9-7.24-0.9-9.99C56.369,234.143,60.46,224,71.992,224z M18.451,416
		c-1.634,0-2.451-0.932-2.451-1.151v-8.64c0-9.578,5.891-20.925,17.15-24.118l27.105-7.04l35.798,21.479v19.462L18.451,416z
		 M192.107,414.83c0,0.22-0.817,1.151-2.452,1.151l-77.602,0.008v-19.422l36.279-21.412l26.626,6.915
		c11.259,3.193,17.149,14.54,17.149,24.118V414.83z"/>
	<path d="M488,80H120c-13.234,0-24,10.766-24,24v72.002c0,4.418,3.582,8,8,8s8-3.582,8-8V104c0-4.411,3.589-8,8-8h368
		c4.411,0,8,3.589,8,8v256c0,4.411-3.589,8-8,8H224.001c-4.418,0-8,3.582-8,8s3.582,8,8,8H488c13.234,0,24-10.766,24-24V104
		C512,90.766,501.234,80,488,80z"/>
	<path d="M280,272c0-4.418-3.582-8-8-8h-48c-4.418,0-8,3.582-8,8v56h-32c-4.418,0-8,3.582-8,8s3.582,8,8,8h272c4.418,0,8-3.582,8-8
		s-3.582-8-8-8h-16V192c0-4.418-3.582-8-8-8h-48c-4.418,0-8,3.582-8,8v136h-16V144c0-4.418-3.582-8-8-8h-48c-4.418,0-8,3.582-8,8
		v184h-16V272z M264,280v16h-32v-16H264z M424,200v48h-32v-48H424z M392,264h32v64h-32V264z M344,152v32h-32v-32H344z M312,200h32
		v128h-32V200z M232,328v-16h32v16H232z"/>
</g>
<g>
</g>
<g>
</g>
<g>
</g>
<g>
</g>
<g>
</g>
<g>
</g>
<g>
</g>
<g>
</g>
<g>
</g>
<g>
</g>
<g>
</g>
<g>
</g>
<g>
</g>
<g>
</g>
<g>
</g>
</svg>
