<?xml version="1.0" encoding="iso-8859-1"?>
<!-- Generator: Adobe Illustrator 17.1.0, SVG Export Plug-In . SVG Version: 6.00 Build 0)  -->
<!DOCTYPE svg PUBLIC "-//W3C//DTD SVG 1.1//EN" "http://www.w3.org/Graphics/SVG/1.1/DTD/svg11.dtd">
<svg version="1.1" id="Capa_1" xmlns="http://www.w3.org/2000/svg" xmlns:xlink="http://www.w3.org/1999/xlink" x="0px" y="0px"
	 viewBox="0 0 512 512" style="enable-background:new 0 0 512 512;" xml:space="preserve">
<g>
	<path d="M510.761,447.723l-95.338-150.695c-0.364-0.908-0.891-1.731-1.543-2.439L278.183,80.1
		c-0.001-0.001-0.001-0.002-0.002-0.003l-15.421-24.375C261.295,53.405,258.743,52,256,52s-5.294,1.405-6.761,3.723L98.12,294.589
		c-0.652,0.708-1.179,1.531-1.543,2.439L1.239,447.723c-1.559,2.465-1.654,5.582-0.247,8.137C2.399,458.413,5.084,460,8,460h496
		c2.916,0,5.601-1.587,7.008-4.141C512.415,453.305,512.32,450.188,510.761,447.723z M259.314,148l26.272-26.272l6.732,10.64
		L276.686,148H259.314z M219.314,148l50.772-50.772l6.732,10.64L236.686,148H219.314z M301.086,146.228l1.121,1.772h-2.893
		L301.086,146.228z M256,74.964l5.317,8.405l-28.95,28.95L256,74.964z M22.528,444l40.528-64.061C63.366,379.976,63.68,380,64,380
		h288c4.418,0,8-3.582,8-8s-3.582-8-8-8H73.14l35.429-56H304c4.418,0,8-3.582,8-8s-3.582-8-8-8H118.691l35.429-56H256
		c4.418,0,8-3.582,8-8s-3.582-8-8-8h-91.758l35.438-56.015c0.106,0.004,0.213,0.015,0.319,0.015h112
		c0.108,0,0.212-0.012,0.319-0.016L347.758,220H336c-4.418,0-8,3.582-8,8s3.582,8,8,8h21.88l35.429,56H384c-4.418,0-8,3.582-8,8
		s3.582,8,8,8h19.431l35.429,56H432c-4.418,0-8,3.582-8,8s3.582,8,8,8h16c0.32,0,0.634-0.024,0.944-0.061L489.472,444H22.528z"/>
	<path d="M400,364h-16c-4.418,0-8,3.582-8,8s3.582,8,8,8h16c4.418,0,8-3.582,8-8S404.419,364,400,364z"/>
	<path d="M352,292h-16c-4.418,0-8,3.582-8,8s3.582,8,8,8h16c4.418,0,8-3.582,8-8S356.419,292,352,292z"/>
	<path d="M304,220h-16c-4.418,0-8,3.582-8,8s3.582,8,8,8h16c4.418,0,8-3.582,8-8S308.419,220,304,220z"/>
</g>
<g>
</g>
<g>
</g>
<g>
</g>
<g>
</g>
<g>
</g>
<g>
</g>
<g>
</g>
<g>
</g>
<g>
</g>
<g>
</g>
<g>
</g>
<g>
</g>
<g>
</g>
<g>
</g>
<g>
</g>
</svg>
