<?xml version="1.0" encoding="iso-8859-1"?>
<!-- Generator: Adobe Illustrator 17.1.0, SVG Export Plug-In . SVG Version: 6.00 Build 0)  -->
<!DOCTYPE svg PUBLIC "-//W3C//DTD SVG 1.1//EN" "http://www.w3.org/Graphics/SVG/1.1/DTD/svg11.dtd">
<svg version="1.1" id="Capa_1" xmlns="http://www.w3.org/2000/svg" xmlns:xlink="http://www.w3.org/1999/xlink" x="0px" y="0px"
	 viewBox="0 0 512 512" style="enable-background:new 0 0 512 512;" xml:space="preserve">
<g>
	<path d="M400,496h-8v-71.38c0-17.938-5.456-35.201-15.777-49.923l-82.552-117.75l82.569-118.693C386.55,123.432,392,106.055,392,88
		V16h8c4.418,0,8-3.582,8-8s-3.582-8-8-8H112c-4.418,0-8,3.582-8,8s3.582,8,8,8h8v72c0,18.055,5.45,35.432,15.76,50.253
		l82.569,118.693l-82.552,117.75C125.456,389.419,120,406.682,120,424.62V496h-8c-4.418,0-8,3.582-8,8s3.582,8,8,8h288
		c4.418,0,8-3.582,8-8S404.418,496,400,496z M136,424.62c0-14.634,4.453-28.722,12.878-40.739l85.76-122.324
		c1.926-2.748,1.933-6.406,0.017-9.161l-85.76-123.28C140.459,116.99,136,102.772,136,88V16h240v72
		c0,14.772-4.459,28.99-12.895,41.117l-85.76,123.28c-1.917,2.755-1.91,6.413,0.017,9.161l85.76,122.324
		C371.547,395.898,376,409.986,376,424.62V496H136V424.62z"/>
	<path d="M304.005,464h-16.001c-4.418,0-8,3.582-8,8s3.582,8,8,8h16.001c4.418,0,8-3.582,8-8S308.424,464,304.005,464z"/>
	<path d="M256,249.314c2.755,0,5.307-1.417,6.766-3.731c1.774-2.668,34.496-49.8,56.188-81.018c1.699-2.445,1.899-5.632,0.52-8.271
		S315.363,152,312.385,152h-112.77c-2.978,0-5.709,1.654-7.089,4.293s-1.18,5.826,0.52,8.271
		c21.693,31.218,54.415,78.35,56.188,81.018C250.693,247.897,253.245,249.314,256,249.314z M297.085,168
		c-22.897,32.959-34.837,50.177-41.085,59.214c-6.248-9.037-18.188-26.255-41.085-59.214H297.085z"/>
	<path d="M312.401,339.408c-1.497-2.136-3.942-3.408-6.55-3.408h-99.702c-2.608,0-5.053,1.271-6.55,3.408l-37.62,53.659
		C155.451,402.378,152,413.29,152,424.62V472c0,4.418,3.582,8,8,8h96.003c4.418,0,8-3.582,8-8s-3.582-8-8-8H168v-39.38
		c0-8.027,2.448-15.762,7.08-22.369L210.311,352h91.379l35.23,50.251c4.632,6.607,7.081,14.342,7.081,22.369V464h-8
		c-4.418,0-8,3.582-8,8s3.582,8,8,8h16c4.418,0,8-3.582,8-8v-47.38c0-11.331-3.451-22.242-9.979-31.554L312.401,339.408z"/>
	<path d="M330.077,134.568c1.392,0.968,2.984,1.433,4.562,1.433c2.53,0,5.02-1.197,6.574-3.432l8.758-12.59
		C356.532,110.548,360,99.489,360,88v-8c0-4.418-3.582-8-8-8s-8,3.582-8,8v8c0,8.207-2.477,16.105-7.164,22.843l-8.758,12.59
		C325.555,127.06,326.45,132.045,330.077,134.568z"/>
	<path d="M352,56c4.418,0,8-3.582,8-8v-8c0-4.418-3.582-8-8-8s-8,3.582-8,8v8C344,52.418,347.582,56,352,56z"/>
</g>
<g>
</g>
<g>
</g>
<g>
</g>
<g>
</g>
<g>
</g>
<g>
</g>
<g>
</g>
<g>
</g>
<g>
</g>
<g>
</g>
<g>
</g>
<g>
</g>
<g>
</g>
<g>
</g>
<g>
</g>
</svg>
