<?xml version="1.0" encoding="iso-8859-1"?>
<!-- Generator: Adobe Illustrator 17.1.0, SVG Export Plug-In . SVG Version: 6.00 Build 0)  -->
<!DOCTYPE svg PUBLIC "-//W3C//DTD SVG 1.1//EN" "http://www.w3.org/Graphics/SVG/1.1/DTD/svg11.dtd">
<svg version="1.1" id="Capa_1" xmlns="http://www.w3.org/2000/svg" xmlns:xlink="http://www.w3.org/1999/xlink" x="0px" y="0px"
	 viewBox="0 0 512 512" style="enable-background:new 0 0 512 512;" xml:space="preserve">
<path d="M512,224.039c0-0.013,0-0.026,0-0.039c0-0.051-0.007-0.1-0.008-0.151c-0.004-0.207-0.011-0.414-0.031-0.621
	c-0.01-0.105-0.029-0.207-0.043-0.31c-0.021-0.154-0.04-0.307-0.07-0.461c-0.031-0.156-0.072-0.309-0.112-0.462
	c-0.025-0.098-0.046-0.196-0.076-0.294c-0.061-0.202-0.133-0.399-0.209-0.594c-0.018-0.045-0.03-0.092-0.048-0.137l-0.019-0.047
	c-0.008-0.02-0.016-0.04-0.025-0.06L439.404,44.971c-0.266-0.649-0.614-1.238-1.017-1.774C444.22,38.814,448,31.84,448,24
	c0-13.233-10.766-24-24-24c-12.834,0-23.346,10.126-23.97,22.808L283.626,55.844c-7.191-12.289-22.047-18.688-36.361-14.628
	c-8.223,2.333-15.045,7.729-19.209,15.194c-2.832,5.075-4.2,10.694-4.055,16.355l-116.623,33.097C103.008,99.889,95.951,96,88,96
	c-13.234,0-24,10.767-24,24c0,7.537,3.496,14.271,8.948,18.674L0.637,316.869c-0.007,0.016-0.013,0.033-0.02,0.049l-0.03,0.074
	c-0.022,0.054-0.036,0.109-0.057,0.164c-0.07,0.183-0.138,0.368-0.194,0.557c-0.031,0.103-0.053,0.207-0.08,0.31
	c-0.037,0.147-0.077,0.294-0.106,0.444c-0.03,0.154-0.049,0.307-0.07,0.461c-0.014,0.103-0.032,0.204-0.042,0.308
	c-0.019,0.199-0.026,0.398-0.03,0.597C0.007,319.889,0,319.944,0,320c0,0.019,0.001,0.037,0.001,0.056
	c0,0.037,0.001,0.074,0.001,0.111C0.093,368.614,39.533,408,88,408c48.475,0,87.919-39.398,87.998-87.854
	c0.001-0.036,0.001-0.071,0.001-0.107c0-0.013,0-0.026,0-0.039c0-0.051-0.007-0.1-0.008-0.151c-0.004-0.207-0.011-0.414-0.031-0.621
	c-0.01-0.105-0.029-0.207-0.043-0.31c-0.021-0.154-0.04-0.307-0.07-0.461c-0.031-0.156-0.072-0.309-0.112-0.462
	c-0.025-0.098-0.046-0.196-0.076-0.294c-0.061-0.202-0.133-0.399-0.209-0.594c-0.018-0.045-0.03-0.092-0.048-0.137l-0.019-0.047
	c-0.008-0.02-0.016-0.04-0.025-0.06l-71.956-175.893c-0.266-0.649-0.614-1.238-1.017-1.774c5.535-4.159,9.221-10.652,9.582-18.005
	l116.406-33.035c1.147,1.961,2.504,3.755,4.008,5.398C232.137,94.325,232,95.146,232,96v328c-13.234,0-24,10.767-24,24v16h-40
	c-13.233,0-24,10.767-24,24v16c0,4.418,3.582,8,8,8h208c4.418,0,8-3.582,8-8v-16c0-13.233-10.767-24-24-24h-40v-16
	c0-13.233-10.766-24-24-24V96c0-0.841-0.131-1.652-0.372-2.414c1.644-1.807,3.098-3.81,4.318-5.996
	c2.832-5.075,4.2-10.694,4.055-16.356l116.622-33.097c1.239,1.694,2.694,3.22,4.326,4.537l-72.311,178.195
	c-0.007,0.016-0.013,0.033-0.02,0.049l-0.03,0.074c-0.022,0.054-0.036,0.109-0.057,0.164c-0.07,0.183-0.138,0.368-0.194,0.557
	c-0.031,0.103-0.053,0.207-0.08,0.31c-0.038,0.147-0.077,0.294-0.106,0.444c-0.03,0.154-0.049,0.307-0.07,0.461
	c-0.014,0.103-0.032,0.204-0.042,0.308c-0.019,0.199-0.026,0.398-0.03,0.597c-0.001,0.056-0.008,0.11-0.008,0.167
	c0,0.019,0.001,0.037,0.001,0.056c0,0.037,0.001,0.074,0.001,0.111C336.093,272.614,375.533,312,424,312
	c48.475,0,87.919-39.398,87.998-87.854C511.999,224.11,511.999,224.075,512,224.039z M424,16c4.411,0,8,3.589,8,8s-3.589,8-8,8
	s-8-3.589-8-8S419.589,16,424,16z M242.027,64.205c2.082-3.732,5.493-6.431,9.605-7.597c1.455-0.413,2.919-0.61,4.362-0.61
	c6.971,0,13.399,4.599,15.396,11.629c0,0.002,0.001,0.003,0.001,0.005c0,0.001,0.001,0.002,0.001,0.003
	c1.165,4.11,0.661,8.429-1.421,12.16c-2.082,3.732-5.493,6.431-9.605,7.597c-8.486,2.409-17.35-2.536-19.759-11.02
	c0-0.001,0-0.002-0.001-0.003c0-0.001-0.001-0.001-0.001-0.002C239.441,72.255,239.945,67.937,242.027,64.205z M88,112
	c4.411,0,8,3.589,8,8s-3.589,8-8,8s-8-3.589-8-8S83.589,112,88,112z M156.084,312H152c-4.418,0-8,3.582-8,8s3.582,8,8,8h7.559
	c-3.993,35.949-34.562,64-71.559,64s-67.566-28.051-71.559-64H120c4.418,0,8-3.582,8-8s-3.582-8-8-8H19.88l68.126-167.883
	c0.014,0.972,0.199,1.958,0.589,2.912L156.084,312z M288,448v23.99c0,0.003,0,0.006,0,0.01c0,4.418,3.582,8,8,8h48
	c4.411,0,8,3.589,8,8v8H160v-8c0-4.411,3.589-8,8-8h96c4.418,0,8-3.582,8-8s-3.582-8-8-8h-40v-16c0-4.411,3.589-8,8-8h48
	C284.411,440,288,443.589,288,448z M248,424V102.965c2.591,0.674,5.278,1.039,8.011,1.039c2.642,0,5.322-0.349,7.989-1.038V424H248z
	 M424,296c-36.997,0-67.566-28.051-71.559-64H456c4.418,0,8-3.582,8-8s-3.582-8-8-8H355.88l68.126-167.883
	c0.014,0.972,0.199,1.958,0.589,2.912L492.084,216H488c-4.418,0-8,3.582-8,8s3.582,8,8,8h7.559C491.566,267.949,460.997,296,424,296
	z"/>
<g>
</g>
<g>
</g>
<g>
</g>
<g>
</g>
<g>
</g>
<g>
</g>
<g>
</g>
<g>
</g>
<g>
</g>
<g>
</g>
<g>
</g>
<g>
</g>
<g>
</g>
<g>
</g>
<g>
</g>
</svg>
