<?xml version="1.0" encoding="iso-8859-1"?>
<!-- Generator: Adobe Illustrator 17.1.0, SVG Export Plug-In . SVG Version: 6.00 Build 0)  -->
<!DOCTYPE svg PUBLIC "-//W3C//DTD SVG 1.1//EN" "http://www.w3.org/Graphics/SVG/1.1/DTD/svg11.dtd">
<svg version="1.1" id="Capa_1" xmlns="http://www.w3.org/2000/svg" xmlns:xlink="http://www.w3.org/1999/xlink" x="0px" y="0px"
	 viewBox="0 0 512 512" style="enable-background:new 0 0 512 512;" xml:space="preserve">
<g>
	<path d="M328,120c14.537,0,27.995,6.931,31.309,16.132C359.768,137.398,360,138.7,360,140c0,13.233,10.766,24,24,24
		s24-10.767,24-24c0-6.854-1.189-13.633-3.536-20.149c-7.872-21.85-27.438-38.258-52.966-44.747C349.231,64.21,339.556,56,328,56
		c-11.533,0-21.191,8.178-23.484,19.038c-14.871,3.895-28.288,11.493-38.259,21.755C254.484,108.911,248,124.255,248,140
		c0,37.495,35.888,68,80,68c15.105,0,32,8.553,32,20s-16.895,20-32,20s-32-8.553-32-20c0-13.233-10.766-24-24-24s-24,10.767-24,24
		c0,15.745,6.484,31.089,18.257,43.207c9.971,10.262,23.388,17.86,38.259,21.755C306.809,303.822,316.467,312,328,312
		s21.191-8.178,23.484-19.038c14.871-3.895,28.288-11.493,38.259-21.755C401.516,259.089,408,243.745,408,228
		c0-37.495-35.888-68-80-68c-15.105,0-32-8.553-32-20S312.895,120,328,120z M328,176c35.29,0,64,23.327,64,52
		c0,23.865-20.815,45.144-49.494,50.596c-3.774,0.718-6.506,4.018-6.506,7.859V288c0,4.411-3.589,8-8,8s-8-3.589-8-8v-1.545
		c0-3.842-2.731-7.142-6.506-7.859C284.815,273.144,264,251.865,264,228c0-4.411,3.589-8,8-8s8,3.589,8,8c0,19.851,21.533,36,48,36
		s48-16.149,48-36s-21.533-36-48-36c-35.29,0-64-23.327-64-52c0-23.865,20.815-45.144,49.494-50.596
		c3.774-0.718,6.506-4.018,6.506-7.859V80c0-4.411,3.589-8,8-8s8,3.589,8,8v1.642c0,3.853,2.746,7.158,6.533,7.864
		c22.477,4.192,40.439,17.898,46.877,35.768C391.129,130.044,392,134.999,392,140c0,4.411-3.589,8-8,8s-8-3.589-8-8
		c0-3.161-0.554-6.295-1.641-9.301C368.696,114.979,349.633,104,328,104c-26.467,0-48,16.149-48,36S301.533,176,328,176z"/>
	<path d="M328,0C226.542,0,144,82.542,144,184c0,47.575,18.15,90.991,47.889,123.688l-25.215,25.215
		c-6.15-3.86-13.267-5.936-20.707-5.936c-10.436,0-20.247,4.063-27.624,11.442l-106.9,106.9C4.064,452.688,0,462.499,0,472.934
		s4.064,20.245,11.442,27.623C18.821,507.937,28.631,512,39.066,512s20.246-4.063,27.624-11.442l106.901-106.9
		c7.378-7.379,11.442-17.189,11.442-27.624c0-7.987-2.388-15.604-6.814-22.048l24.944-24.944C235.989,349.409,279.861,368,328,368
		c101.458,0,184-82.542,184-184S429.458,0,328,0z M162.277,382.343L55.376,489.244C51.02,493.601,45.228,496,39.066,496
		s-11.953-2.399-16.31-6.757C18.399,484.887,16,479.095,16,472.934s2.399-11.953,6.756-16.31l106.901-106.901
		c4.356-4.356,10.148-6.756,16.31-6.756c6.161,0,11.954,2.399,16.31,6.757c4.356,4.356,6.756,10.148,6.756,16.31
		S166.634,377.986,162.277,382.343z M328,352c-92.636,0-168-75.364-168-168S235.364,16,328,16s168,75.364,168,168
		S420.636,352,328,352z"/>
	<path d="M471.346,133.327c-7.526-21.292-20.005-41.012-36.086-57.027c-16.085-16.021-35.861-28.42-57.188-35.857
		c-4.172-1.455-8.733,0.748-10.188,4.919c-1.455,4.172,0.748,8.733,4.919,10.188c38.624,13.471,69.824,44.539,83.458,83.109
		c1.161,3.284,4.247,5.336,7.542,5.336c0.885,0,1.785-0.147,2.667-0.459C470.636,142.063,472.819,137.492,471.346,133.327z"/>
</g>
<g>
</g>
<g>
</g>
<g>
</g>
<g>
</g>
<g>
</g>
<g>
</g>
<g>
</g>
<g>
</g>
<g>
</g>
<g>
</g>
<g>
</g>
<g>
</g>
<g>
</g>
<g>
</g>
<g>
</g>
</svg>
