<?xml version="1.0" encoding="iso-8859-1"?>
<!-- Generator: Adobe Illustrator 17.1.0, SVG Export Plug-In . SVG Version: 6.00 Build 0)  -->
<!DOCTYPE svg PUBLIC "-//W3C//DTD SVG 1.1//EN" "http://www.w3.org/Graphics/SVG/1.1/DTD/svg11.dtd">
<svg version="1.1" id="Capa_1" xmlns="http://www.w3.org/2000/svg" xmlns:xlink="http://www.w3.org/1999/xlink" x="0px" y="0px"
	 viewBox="0 0 512 512" style="enable-background:new 0 0 512 512;" xml:space="preserve">
<g>
	<path d="M448.735,63.265C407.938,22.468,353.696,0,296,0S184.062,22.468,143.265,63.265C102.468,104.063,80,158.305,80,216
		c0,11.12,0.853,22.287,2.536,33.191c0.673,4.367,4.756,7.36,9.126,6.687c4.367-0.674,7.36-4.76,6.687-9.126
		c-1.155-7.487-1.886-15.111-2.188-22.752H104c4.418,0,8-3.582,8-8s-3.582-8-8-8h-7.826c1.386-35.051,11.824-67.813,29.054-96
		h30.471c-8.933,21.976-15.031,46.03-17.86,71.1c-0.495,4.391,2.662,8.352,7.053,8.847c4.385,0.506,8.351-2.661,8.847-7.052
		c2.929-25.959,9.557-50.699,19.329-72.895h59.449c-2.77,15.705-4.807,31.784-6.14,47.314c-0.378,4.401,2.885,8.276,7.287,8.654
		c4.409,0.363,8.277-2.885,8.655-7.287c1.466-17.084,3.628-33.467,6.39-48.682h94.622c5.246,28.888,8.219,61.678,8.62,96H328
		c-4.418,0-8,3.582-8,8s3.582,8,8,8h23.949c-0.604,51.771-7.06,100.063-18.34,136.726C322.959,395.337,308.9,416,296,416
		c-12.94,0-25.885-1.243-38.474-3.695c-4.337-0.847-8.537,1.986-9.382,6.323s1.986,8.537,6.323,9.382
		C268.062,430.657,282.035,432,296,432c57.696,0,111.938-22.468,152.735-63.265C489.532,327.938,512,273.695,512,216
		S489.532,104.063,448.735,63.265z M466.772,320h-30.416c11.891-29.219,18.614-61.927,19.525-96h39.945
		C494.44,259.051,484.002,291.813,466.772,320z M455.881,208c-0.911-34.073-7.634-66.781-19.525-96h30.416
		c17.229,28.187,27.667,60.949,29.054,96H455.881z M455.899,96h-26.743c-5.593-11.284-12.008-21.934-19.216-31.798
		c-7.265-9.941-15.124-18.798-23.463-26.536C413.835,51.602,437.578,71.65,455.899,96z M411.127,96H356.39
		c-6.596-31.145-15.945-57.651-27.905-74.868C362.004,31.907,391.076,58.986,411.127,96z M136.101,96
		c18.354-24.396,42.152-44.47,69.574-58.41c-5.265,4.854-10.336,10.141-15.172,15.865C179.886,66.022,170.619,80.353,162.886,96
		H136.101z M180.891,96c6.356-11.73,13.666-22.55,21.835-32.219c17.627-20.863,38.507-35.369,60.743-42.568
		C251.2,38.984,242.001,66.177,235.627,96H180.891z M251.93,96c3.514-15.807,7.715-29.99,12.477-41.911
		C274.077,29.883,285.591,16,296,16c12.9,0,26.959,20.663,37.608,55.274c2.383,7.746,4.547,16.019,6.491,24.726H251.93z
		 M359.469,112h59.487c12.405,28.187,19.921,60.949,20.919,96h-71.928C367.546,175.144,364.682,141.943,359.469,112z M439.875,224
		c-0.998,35.051-8.514,67.813-20.919,96h-59.487c5.214-29.943,8.077-63.144,8.478-96H439.875z M356.39,336h54.737
		c-20.051,37.014-49.123,64.093-82.641,74.868C340.445,393.651,349.794,367.145,356.39,336z M386.477,394.334
		c8.339-7.738,16.198-16.595,23.463-26.536c7.208-9.864,13.623-20.514,19.216-31.798h26.743
		C437.578,360.35,413.835,380.398,386.477,394.334z"/>
	<path d="M216,408c61.757,0,112-50.243,112-112s-50.243-112-112-112s-112,50.243-112,112c0,28.005,10.333,53.643,27.385,73.301
		l-17.034,17.034C111.161,384.808,107.643,384,104,384c-6.415,0-12.442,2.498-16.969,7.03l-80,80C2.497,475.564,0,481.591,0,488
		s2.497,12.436,7.027,16.966C11.558,509.502,17.585,512,24,512s12.442-2.498,16.969-7.03l80-80
		c7.372-7.372,8.91-18.377,4.667-27.292l17.063-17.063C162.357,397.667,187.995,408,216,408z M216,200c52.935,0,96,43.065,96,96
		s-43.065,96-96,96s-96-43.065-96-96S163.065,200,216,200z M109.656,413.655l-80.003,80.004C28.145,495.169,26.137,496,24,496
		s-4.145-0.831-5.656-2.345c-3.118-3.118-3.118-8.192,0-11.311l80.003-80.004c1.508-1.51,3.515-2.341,5.652-2.341
		s4.145,0.831,5.656,2.345C112.774,405.463,112.774,410.537,109.656,413.655z"/>
	<path d="M216,232c35.29,0,64,28.71,64,64c0,4.418,3.582,8,8,8s8-3.582,8-8c0-44.112-35.888-80-80-80c-4.418,0-8,3.582-8,8
		S211.582,232,216,232z"/>
</g>
<g>
</g>
<g>
</g>
<g>
</g>
<g>
</g>
<g>
</g>
<g>
</g>
<g>
</g>
<g>
</g>
<g>
</g>
<g>
</g>
<g>
</g>
<g>
</g>
<g>
</g>
<g>
</g>
<g>
</g>
</svg>
