<?xml version="1.0" encoding="iso-8859-1"?>
<!-- Generator: Adobe Illustrator 17.1.0, SVG Export Plug-In . SVG Version: 6.00 Build 0)  -->
<!DOCTYPE svg PUBLIC "-//W3C//DTD SVG 1.1//EN" "http://www.w3.org/Graphics/SVG/1.1/DTD/svg11.dtd">
<svg version="1.1" id="Capa_1" xmlns="http://www.w3.org/2000/svg" xmlns:xlink="http://www.w3.org/1999/xlink" x="0px" y="0px"
	 viewBox="0 0 512 512" style="enable-background:new 0 0 512 512;" xml:space="preserve">
<g>
	<path d="M328,0C226.542,0,144,82.542,144,184c0,47.575,18.15,90.991,47.889,123.688l-25.215,25.215
		c-6.15-3.86-13.267-5.936-20.707-5.936c-10.436,0-20.247,4.063-27.624,11.442l-106.9,106.9C4.064,452.688,0,462.499,0,472.934
		s4.064,20.245,11.442,27.623C18.821,507.937,28.631,512,39.066,512s20.246-4.063,27.624-11.442l106.901-106.9
		c7.378-7.379,11.442-17.189,11.442-27.624c0-7.987-2.388-15.604-6.814-22.048l24.944-24.944C235.989,349.409,279.861,368,328,368
		c101.458,0,184-82.542,184-184S429.458,0,328,0z M162.277,382.343L55.376,489.244C51.02,493.601,45.228,496,39.066,496
		s-11.953-2.399-16.31-6.757C18.399,484.887,16,479.095,16,472.934s2.399-11.953,6.756-16.31l106.901-106.901
		c4.356-4.356,10.148-6.756,16.31-6.756c6.161,0,11.954,2.399,16.31,6.757c4.356,4.356,6.756,10.148,6.756,16.31
		S166.634,377.986,162.277,382.343z M328,352c-92.636,0-168-75.364-168-168S235.364,16,328,16s168,75.364,168,168
		S420.636,352,328,352z"/>
	<path d="M432,96c-13.234,0-24,10.767-24,24c0,6.28,2.427,12.001,6.39,16.283l-58.932,111.969c-1.13-0.164-2.283-0.253-3.458-0.253
		c-2.762,0-5.413,0.475-7.885,1.337l-35.74-44.675C310.669,200.984,312,196.645,312,192c0-13.233-10.766-24-24-24s-24,10.767-24,24
		c0,3.701,0.843,7.208,2.345,10.341c-0.001,0.001-0.001,0.001-0.002,0.002l-24,24c-0.001,0.001-0.001,0.002-0.002,0.003
		C239.208,224.843,235.701,224,232,224c-13.234,0-24,10.767-24,24s10.766,24,24,24s24-10.767,24-24
		c0-3.701-0.843-7.208-2.345-10.341c0.001-0.001,0.001-0.001,0.002-0.002l24-24c0.001-0.001,0.001-0.002,0.002-0.003
		c3.133,1.502,6.64,2.345,10.341,2.345c2.762,0,5.413-0.475,7.885-1.337l35.74,44.675C329.331,263.016,328,267.355,328,272
		c0,13.233,10.766,24,24,24s24-10.767,24-24c0-6.28-2.427-12.001-6.39-16.283l58.932-111.969c1.13,0.164,2.283,0.253,3.458,0.253
		c13.234,0,24-10.767,24-24S445.234,96,432,96z M232,256c-4.411,0-8-3.589-8-8s3.589-8,8-8s8,3.589,8,8S236.411,256,232,256z
		 M280,192c0-4.411,3.589-8,8-8s8,3.589,8,8s-3.589,8-8,8S280,196.411,280,192z M352,280c-4.411,0-8-3.589-8-8s3.589-8,8-8
		s8,3.589,8,8S356.411,280,352,280z M432,128c-4.411,0-8-3.589-8-8s3.589-8,8-8s8,3.589,8,8S436.411,128,432,128z"/>
</g>
<g>
</g>
<g>
</g>
<g>
</g>
<g>
</g>
<g>
</g>
<g>
</g>
<g>
</g>
<g>
</g>
<g>
</g>
<g>
</g>
<g>
</g>
<g>
</g>
<g>
</g>
<g>
</g>
<g>
</g>
</svg>
