<?xml version="1.0" encoding="iso-8859-1"?>
<!-- Generator: Adobe Illustrator 17.1.0, SVG Export Plug-In . SVG Version: 6.00 Build 0)  -->
<!DOCTYPE svg PUBLIC "-//W3C//DTD SVG 1.1//EN" "http://www.w3.org/Graphics/SVG/1.1/DTD/svg11.dtd">
<svg version="1.1" id="Capa_1" xmlns="http://www.w3.org/2000/svg" xmlns:xlink="http://www.w3.org/1999/xlink" x="0px" y="0px"
	 viewBox="0 0 512 512" style="enable-background:new 0 0 512 512;" xml:space="preserve">
<g>
	<path d="M306.064,170.787c33.574,8.666,58.976,36.346,64.715,70.52c0.657,3.909,4.044,6.676,7.88,6.676
		c0.44,0,0.886-0.036,1.335-0.111c4.357-0.732,7.296-4.857,6.564-9.215c-6.785-40.397-36.812-73.118-76.496-83.361
		c-4.283-1.106-8.642,1.469-9.746,5.747C299.214,165.319,301.787,169.683,306.064,170.787z"/>
	<path d="M162.628,422.627C168.671,416.583,172,408.547,172,400c0-5.812-1.542-11.386-4.427-16.259l26.135-26.135
		C217.741,378.988,249.377,392,284,392c74.991,0,136-61.01,136-136s-61.009-136-136-136s-136,61.01-136,136
		c0,34.623,13.012,66.258,34.393,90.292l-26.135,26.135C151.385,369.542,145.812,368,140,368c-8.548,0-16.583,3.328-22.627,9.372
		l-80,80C31.329,463.416,28,471.452,28,480c0,8.547,3.329,16.583,9.373,22.628c6.238,6.238,14.433,9.356,22.627,9.356
		s16.389-3.119,22.627-9.356L162.628,422.627C162.627,422.628,162.627,422.628,162.628,422.627z M284,136
		c66.168,0,120,53.832,120,120s-53.832,120-120,120s-120-53.832-120-120S217.832,136,284,136z M151.313,411.314L151.313,411.314
		l-80,79.999c-6.239,6.24-16.39,6.237-22.627,0.001C45.664,488.292,44,484.273,44,480c0-4.274,1.664-8.292,4.686-11.313l80-80.001
		c3.022-3.021,7.04-4.686,11.313-4.686s8.292,1.664,11.314,4.687C154.336,391.708,156,395.726,156,400
		C156,404.273,154.336,408.292,151.313,411.314z"/>
	<path d="M483.96,111.209c-0.011-0.114-0.033-0.224-0.049-0.336c-0.021-0.146-0.038-0.292-0.067-0.438
		c-0.026-0.131-0.062-0.258-0.094-0.387c-0.031-0.124-0.058-0.249-0.095-0.372c-0.038-0.126-0.086-0.249-0.13-0.373
		c-0.044-0.123-0.084-0.246-0.134-0.367c-0.048-0.115-0.104-0.226-0.157-0.338c-0.058-0.124-0.114-0.249-0.179-0.371
		c-0.058-0.108-0.124-0.21-0.186-0.315c-0.071-0.119-0.139-0.24-0.217-0.356c-0.076-0.113-0.161-0.22-0.242-0.329
		c-0.075-0.1-0.144-0.203-0.224-0.3c-0.152-0.185-0.314-0.362-0.482-0.533c-0.017-0.017-0.03-0.036-0.047-0.052l-104-104
		c-0.002-0.002-0.005-0.004-0.007-0.006c-0.25-0.249-0.521-0.475-0.802-0.69c-0.065-0.049-0.129-0.099-0.195-0.146
		c-0.284-0.204-0.578-0.393-0.887-0.558c-0.023-0.012-0.047-0.022-0.07-0.034c-0.292-0.152-0.597-0.284-0.909-0.4
		c-0.064-0.023-0.127-0.048-0.191-0.07c-0.334-0.115-0.676-0.213-1.029-0.283c-0.01-0.002-0.021-0.003-0.032-0.005
		c-0.324-0.063-0.656-0.101-0.992-0.124c-0.091-0.006-0.182-0.011-0.273-0.014C372.18,0.011,372.091,0,372,0H108
		C94.766,0,84,10.767,84,24v343.999c0,4.418,3.582,8,8,8s8-3.582,8-8V24c0-4.411,3.589-8,8-8h256v80c0,13.233,10.767,24,24,24
		h47.999c4.418,0,8-3.582,8-8s-3.582-8-8-8H388c-4.411,0-8-3.589-8-8V27.313l88,88V488c0,4.411-3.589,8-8,8H116.003
		c-4.418,0-8,3.582-8,8s3.582,8,8,8H460c13.234,0,24-10.767,24-24V112.002C484,111.738,483.986,111.473,483.96,111.209z"/>
	<path d="M356,256c0-4.418-3.582-8-8-8H188c-4.418,0-8,3.582-8,8s3.582,8,8,8h160C352.418,264,356,260.418,356,256z"/>
	<path d="M364,288H212c-4.418,0-8,3.582-8,8s3.582,8,8,8h152c4.418,0,8-3.582,8-8S368.418,288,364,288z"/>
	<path d="M212,224h120c4.418,0,8-3.582,8-8s-3.582-8-8-8H212c-4.418,0-8,3.582-8,8S207.582,224,212,224z"/>
</g>
<g>
</g>
<g>
</g>
<g>
</g>
<g>
</g>
<g>
</g>
<g>
</g>
<g>
</g>
<g>
</g>
<g>
</g>
<g>
</g>
<g>
</g>
<g>
</g>
<g>
</g>
<g>
</g>
<g>
</g>
</svg>
