<?xml version="1.0" encoding="iso-8859-1"?>
<!-- Generator: Adobe Illustrator 17.1.0, SVG Export Plug-In . SVG Version: 6.00 Build 0)  -->
<!DOCTYPE svg PUBLIC "-//W3C//DTD SVG 1.1//EN" "http://www.w3.org/Graphics/SVG/1.1/DTD/svg11.dtd">
<svg version="1.1" id="Capa_1" xmlns="http://www.w3.org/2000/svg" xmlns:xlink="http://www.w3.org/1999/xlink" x="0px" y="0px"
	 viewBox="0 0 512 512" style="enable-background:new 0 0 512 512;" xml:space="preserve">
<g>
	<path d="M328,0C226.542,0,144,82.542,144,184c0,47.575,18.15,90.991,47.889,123.688l-25.215,25.215
		c-6.15-3.86-13.266-5.936-20.707-5.936c-10.436,0-20.247,4.063-27.624,11.442l-106.9,106.9C4.064,452.688,0,462.499,0,472.934
		s4.064,20.245,11.442,27.623C18.821,507.937,28.631,512,39.066,512s20.246-4.063,27.624-11.442l106.901-106.9
		c7.378-7.379,11.442-17.189,11.442-27.624c0-7.987-2.388-15.604-6.814-22.048l24.944-24.944C235.989,349.409,279.861,368,328,368
		c101.458,0,184-82.542,184-184S429.458,0,328,0z M162.277,382.343L55.376,489.244C51.02,493.601,45.228,496,39.066,496
		s-11.953-2.399-16.31-6.757C18.399,484.887,16,479.095,16,472.934s2.399-11.953,6.756-16.31l106.901-106.901
		c4.356-4.356,10.148-6.756,16.31-6.756c6.161,0,11.954,2.399,16.31,6.757c4.356,4.356,6.756,10.148,6.756,16.31
		S166.634,377.986,162.277,382.343z M328,352c-92.636,0-168-75.364-168-168S235.364,16,328,16s168,75.364,168,168
		S420.636,352,328,352z"/>
	<path d="M471.346,133.327c-7.526-21.292-20.005-41.012-36.086-57.027c-16.085-16.021-35.861-28.42-57.188-35.857
		c-4.172-1.453-8.734,0.748-10.188,4.919c-1.455,4.172,0.748,8.733,4.919,10.188c38.624,13.471,69.824,44.539,83.458,83.109
		c1.161,3.284,4.247,5.336,7.542,5.336c0.885,0,1.785-0.147,2.667-0.459C470.636,142.063,472.819,137.492,471.346,133.327z"/>
	<path d="M403.206,230.646c-0.049-0.014-0.098-0.027-0.147-0.04l-29.809-7.741c-2.527-0.744-4.524-2.053-4.954-2.736l-0.02-16.214
		c0.025-0.03,0.051-0.057,0.076-0.086c10.221-12.217,15.85-28.045,15.85-44.57v-12.076c10.197-33.218,3.011-62.02-0.677-70.402
		c-0.013-0.029-0.029-0.056-0.043-0.085c-0.068-0.15-0.144-0.296-0.221-0.441c-0.05-0.094-0.098-0.189-0.151-0.281
		c-0.072-0.123-0.15-0.24-0.228-0.358c-0.071-0.108-0.14-0.218-0.216-0.322c-0.063-0.086-0.131-0.167-0.197-0.25
		c-0.1-0.126-0.199-0.253-0.306-0.373c-0.049-0.054-0.101-0.105-0.151-0.158c-0.13-0.138-0.261-0.273-0.4-0.401
		c-0.039-0.036-0.08-0.068-0.12-0.103c-0.154-0.136-0.309-0.268-0.472-0.391c-0.042-0.032-0.087-0.06-0.13-0.091
		c-0.163-0.118-0.327-0.232-0.497-0.337c-0.062-0.038-0.128-0.071-0.191-0.107c-0.155-0.09-0.311-0.179-0.471-0.258
		c-0.089-0.043-0.181-0.08-0.271-0.121c-0.141-0.063-0.281-0.127-0.425-0.182c-0.109-0.042-0.221-0.074-0.331-0.111
		c-0.132-0.044-0.263-0.089-0.397-0.126c-0.116-0.032-0.234-0.055-0.351-0.082c-0.136-0.031-0.271-0.063-0.409-0.087
		c-0.109-0.019-0.219-0.029-0.329-0.043c-0.152-0.02-0.304-0.04-0.458-0.05c-0.094-0.006-0.189-0.007-0.284-0.01
		c-0.173-0.006-0.346-0.01-0.52-0.005c-0.083,0.003-0.166,0.011-0.25,0.016c-0.184,0.012-0.368,0.026-0.553,0.051
		c-0.027,0.003-0.053,0.003-0.08,0.007c-7.71,1.104-17.114-1.149-27.07-3.533c-17.611-4.217-37.475-8.963-54.876,3.584
		c-16.826,1.446-28.757,15.586-28.757,34.698c0,13.898,6.449,38.721,7.928,44.229v6.681c0,17.249,5.969,33.193,15.538,45.087
		l-0.022,17.32c-0.43,0.684-2.427,1.992-4.954,2.736l-29.809,7.741c-0.049,0.013-0.099,0.026-0.148,0.04
		C233.927,235.98,224,254.581,224,270.208v8.641c0,9.457,8.277,17.151,18.452,17.151l85.418-0.009
		c0.062,0.001,0.121,0.009,0.183,0.009c0.062,0,0.122-0.008,0.184-0.009l85.419-0.009c10.174,0,18.451-7.694,18.451-17.151v-8.641
		C432.107,254.563,422.18,235.961,403.206,230.646z M328.087,246.69l-27.743-16.646c2.115-2.676,3.467-5.927,3.467-9.781
		l0.004-3.437c7.4,4.362,15.669,6.84,24.326,6.84c8.498,0,16.699-2.2,24.15-6.364l0.004,2.932c0,3.967,1.43,7.293,3.65,10.013
		L328.087,246.69z M288.296,155.007c0-7.952,3.365-19.58,5.88-26.936c36.247,0.832,63.597,9.537,74.026,13.396v4.44
		c0,0.024,0,0.049,0,0.073v13.276c0,14.103-5.303,27.023-13.576,35.964c-0.022,0.022-0.042,0.045-0.064,0.067
		c-7.112,7.656-16.405,12.379-26.42,12.379c-21.227,0-39.846-23.331-39.846-49.928V155.007z M295.992,88
		c0.025,0,0.05-0.003,0.075-0.004c0.238-0.002,0.476-0.013,0.714-0.036c0.078-0.007,0.154-0.022,0.232-0.032
		c0.182-0.023,0.364-0.047,0.545-0.083c0.098-0.02,0.194-0.047,0.291-0.07c0.156-0.037,0.313-0.073,0.467-0.12
		c0.106-0.032,0.209-0.072,0.314-0.109c0.141-0.049,0.283-0.097,0.422-0.155c0.111-0.046,0.217-0.1,0.325-0.15
		c0.128-0.06,0.256-0.117,0.381-0.184c0.122-0.065,0.238-0.139,0.355-0.21c0.105-0.063,0.213-0.123,0.316-0.192
		c0.149-0.1,0.29-0.209,0.432-0.318c0.063-0.049,0.13-0.091,0.192-0.142c11.771-9.619,27.047-5.96,43.221-2.089
		c8.705,2.085,17.645,4.22,26.325,4.252c2.086,7.707,4.137,21.364,1.934,37.631c-13.021-4.743-43.573-13.99-83.926-13.99
		c-0.017,0-0.034,0.002-0.051,0.002c-0.197,0.001-0.393,0.014-0.589,0.03c-0.075,0.006-0.15,0.008-0.224,0.016
		c-0.166,0.018-0.33,0.047-0.494,0.075c-0.102,0.018-0.205,0.031-0.305,0.052c-0.121,0.026-0.239,0.061-0.358,0.092
		c-0.137,0.036-0.276,0.068-0.41,0.11c-0.078,0.025-0.154,0.058-0.232,0.085c-0.167,0.059-0.335,0.117-0.497,0.187
		c-0.061,0.026-0.12,0.059-0.181,0.087c-0.171,0.079-0.342,0.158-0.506,0.248c-0.094,0.051-0.183,0.111-0.274,0.167
		c-0.125,0.075-0.252,0.147-0.372,0.229c-0.152,0.103-0.297,0.217-0.442,0.331c-0.054,0.042-0.111,0.08-0.163,0.124
		c-0.169,0.139-0.33,0.289-0.487,0.443c-0.025,0.024-0.053,0.047-0.078,0.072c-0.142,0.142-0.275,0.294-0.407,0.448
		c-0.037,0.043-0.078,0.083-0.114,0.127c-0.102,0.124-0.195,0.256-0.29,0.388c-0.061,0.083-0.125,0.164-0.182,0.25
		c-0.066,0.1-0.125,0.205-0.187,0.308c-0.077,0.127-0.156,0.254-0.226,0.387c-0.042,0.079-0.078,0.163-0.117,0.244
		c-0.052,0.106-0.107,0.211-0.154,0.32c-0.553-3.773-0.9-7.24-0.9-9.991C280.368,98.144,284.46,88,295.992,88z M242.451,280
		c-1.634,0-2.451-0.932-2.451-1.151v-8.641c0-9.578,5.891-20.926,17.152-24.119l27.103-7.038l35.799,21.479v19.461L242.451,280z
		 M416.107,278.83c0,0.22-0.817,1.151-2.452,1.151l-77.602,0.008v-19.422l36.278-21.412l26.625,6.915
		c11.259,3.193,17.15,14.54,17.15,24.118V278.83z"/>
</g>
<g>
</g>
<g>
</g>
<g>
</g>
<g>
</g>
<g>
</g>
<g>
</g>
<g>
</g>
<g>
</g>
<g>
</g>
<g>
</g>
<g>
</g>
<g>
</g>
<g>
</g>
<g>
</g>
<g>
</g>
</svg>
