<?xml version="1.0" encoding="iso-8859-1"?>
<!-- Generator: Adobe Illustrator 17.1.0, SVG Export Plug-In . SVG Version: 6.00 Build 0)  -->
<!DOCTYPE svg PUBLIC "-//W3C//DTD SVG 1.1//EN" "http://www.w3.org/Graphics/SVG/1.1/DTD/svg11.dtd">
<svg version="1.1" id="Capa_1" xmlns="http://www.w3.org/2000/svg" xmlns:xlink="http://www.w3.org/1999/xlink" x="0px" y="0px"
	 viewBox="0 0 512 512" style="enable-background:new 0 0 512 512;" xml:space="preserve">
<g>
	<path d="M256,208c14.537,0,27.995,6.931,31.309,16.132C287.768,225.398,288,226.7,288,228c0,13.233,10.766,24,24,24
		s24-10.767,24-24c0-6.854-1.189-13.633-3.536-20.149c-7.873-21.851-27.438-38.258-52.966-44.746
		C277.232,152.21,267.557,144,256,144c-11.533,0-21.191,8.178-23.484,19.038c-14.871,3.895-28.288,11.493-38.259,21.755
		C182.484,196.911,176,212.255,176,228c0,37.495,35.888,68,80,68c15.105,0,32,8.553,32,20s-16.895,20-32,20s-32-8.553-32-20
		c0-13.233-10.766-24-24-24s-24,10.767-24,24c0,15.745,6.484,31.089,18.257,43.207c9.971,10.262,23.388,17.86,38.259,21.755
		C234.809,391.822,244.467,400,256,400s21.191-8.178,23.484-19.038c14.871-3.895,28.288-11.493,38.259-21.755
		C329.516,347.089,336,331.745,336,316c0-37.495-35.888-68-80-68c-15.105,0-32-8.553-32-20S240.895,208,256,208z M256,264
		c35.29,0,64,23.327,64,52c0,23.865-20.815,45.144-49.494,50.596c-3.774,0.718-6.506,4.018-6.506,7.859V376c0,4.411-3.589,8-8,8
		s-8-3.589-8-8v-1.545c0-3.842-2.731-7.142-6.506-7.859C212.815,361.144,192,339.865,192,316c0-4.411,3.589-8,8-8s8,3.589,8,8
		c0,19.851,21.533,36,48,36s48-16.149,48-36s-21.533-36-48-36c-35.29,0-64-23.327-64-52c0-23.865,20.815-45.144,49.494-50.596
		c3.774-0.718,6.506-4.018,6.506-7.859V168c0-4.411,3.589-8,8-8s8,3.589,8,8v1.643c0,3.853,2.746,7.158,6.533,7.864
		c22.477,4.191,40.439,17.896,46.877,35.767C319.129,218.044,320,222.999,320,228c0,4.411-3.589,8-8,8s-8-3.589-8-8
		c0-3.161-0.554-6.295-1.641-9.301C296.696,202.979,277.633,192,256,192c-26.467,0-48,16.149-48,36S229.533,264,256,264z"/>
	<path d="M439.977,72.038H372c-22.307,0-44.455-6.686-64.049-19.334c-18.661-12.046-34.196-28.827-44.925-48.53
		C261.625,1.602,258.93,0,256,0s-5.625,1.602-7.026,4.174c-10.729,19.703-26.264,36.484-44.925,48.53
		C184.455,65.353,162.307,72.038,140,72.038H72.023C49.955,72.038,32,89.992,32,112.062V216c0,50.622,11.684,97.71,34.727,139.956
		c18.4,33.733,44.021,64.415,76.151,91.189c54.533,45.444,108.329,63.689,110.592,64.444c0.821,0.273,1.675,0.41,2.53,0.41
		c0.843,0,1.687-0.134,2.498-0.4c2.264-0.744,56.072-18.746,110.615-64.072c32.135-26.704,57.759-57.373,76.162-91.153
		C468.317,314.077,480,266.849,480,216V112.062C480,89.992,462.045,72.038,439.977,72.038z M464,216
		c0,48.027-10.974,92.584-32.617,132.43c-17.359,31.959-41.607,61.041-72.072,86.439c-45.751,38.144-92.142,56.545-103.293,60.638
		c-11.157-4.144-57.556-22.748-103.316-61.003c-30.47-25.474-54.723-54.575-72.084-86.497C58.974,308.213,48,263.8,48,216V112.062
		c0-13.247,10.777-24.023,24.023-24.023H140c25.392,0,50.54-7.57,72.727-21.892C229.851,55.093,244.62,40.488,256,23.447
		c11.38,17.041,26.149,31.646,43.273,42.699C321.46,80.468,346.608,88.038,372,88.038h67.977c13.247,0,24.023,10.776,24.023,24.023
		V216z"/>
	<path d="M440,152c-4.418,0-8,3.582-8,8v16.038c0,4.418,3.582,8,8,8s8-3.582,8-8V160C448,155.582,444.418,152,440,152z"/>
	<path d="M440.003,104.062L372,104.038c-39.134,0-79.352-17.779-110.342-48.78c-0.495-0.494-1.038-0.911-1.615-1.249
		c0-0.001-0.001-0.001-0.001-0.001c-0.003-0.002-0.006-0.004-0.009-0.006c-0.002,0.001-0.006-0.002-0.011-0.006
		c-0.001-0.001-0.003-0.002-0.004-0.002c-0.002-0.002-0.004-0.003-0.006-0.004c-0.003-0.002-0.006-0.004-0.011-0.006
		c-0.003-0.003-0.007-0.005-0.01-0.006c-0.003-0.002-0.006-0.004-0.009-0.005c-0.001-0.003-0.007-0.005-0.012-0.007
		c0,0,0-0.001-0.001-0.001c-1.168-0.668-2.47-1.019-3.777-1.05h0c-0.009,0-0.018,0-0.029,0c-0.006,0-0.015-0.001-0.019-0.001
		c-0.01-0.001-0.015,0-0.023,0c-0.042-0.001-0.081-0.001-0.121-0.001c-0.039,0-0.077,0-0.115,0.001
		c-0.008-0.001-0.018-0.001-0.025,0c-0.008,0-0.014,0.001-0.021,0.001c-1.322,0.026-2.638,0.378-3.818,1.057h-0.001
		c-0.003,0.002-0.006,0.004-0.009,0.006c-0.001,0-0.002,0.001-0.003,0.001c-0.002,0.002-0.005,0.004-0.008,0.005
		c-0.001,0.004-0.007,0.005-0.01,0.006c-0.003,0.002-0.006,0.004-0.011,0.007c-0.003,0.002-0.007,0.003-0.01,0.006
		c-0.003,0.002-0.007,0.007-0.011,0.006c-0.003,0.003-0.007,0.006-0.01,0.006c-0.573,0.337-1.113,0.752-1.604,1.243
		c-30.99,31.001-71.208,48.78-110.342,48.78H72.023c-4.417,0-7.999,3.581-8,7.998L64,216c0,81.404,32.88,150.44,97.727,205.188
		c36.091,30.473,72.66,48.102,91.246,55.897c0.99,0.415,2.042,0.623,3.095,0.623c1.043,0,2.086-0.204,3.069-0.612
		c18.571-7.714,55.11-25.189,91.176-55.562C415.133,366.948,448,297.796,448,216v-8c0-4.418-3.582-8-8-8s-8,3.582-8,8v8
		c0,76.857-30.952,141.892-91.995,193.297c-32.525,27.391-65.445,43.788-83.923,51.722c-18.5-8.017-51.467-24.559-84.034-52.055
		C110.97,357.396,80,292.474,80,216.002l0.021-95.964H140c40.979,0,82.848-17.417,116-48.03
		c33.152,30.613,75.021,48.03,115.997,48.03L432,120.059v7.943c0,4.418,3.582,8,8,8s8-3.582,8-8v-15.94
		C448,107.645,444.42,104.063,440.003,104.062z"/>
</g>
<g>
</g>
<g>
</g>
<g>
</g>
<g>
</g>
<g>
</g>
<g>
</g>
<g>
</g>
<g>
</g>
<g>
</g>
<g>
</g>
<g>
</g>
<g>
</g>
<g>
</g>
<g>
</g>
<g>
</g>
</svg>
