<?xml version="1.0" encoding="iso-8859-1"?>
<!-- Generator: Adobe Illustrator 17.1.0, SVG Export Plug-In . SVG Version: 6.00 Build 0)  -->
<!DOCTYPE svg PUBLIC "-//W3C//DTD SVG 1.1//EN" "http://www.w3.org/Graphics/SVG/1.1/DTD/svg11.dtd">
<svg version="1.1" id="Capa_1" xmlns="http://www.w3.org/2000/svg" xmlns:xlink="http://www.w3.org/1999/xlink" x="0px" y="0px"
	 viewBox="0 0 512.003 512.003" style="enable-background:new 0 0 512.003 512.003;" xml:space="preserve">
<g>
	<path d="M505.57,76.763L391.857,54.02c0.299-1.662,0.089-3.411-0.701-4.99l-16.186-32.371c-3.002-6.005-8.428-10.506-14.885-12.347
		c-6.362-1.815-13.233-0.907-18.904,2.485l-85.181,44.772L170.821,6.797c-5.67-3.393-12.543-4.3-18.904-2.485
		c-6.458,1.841-11.883,6.341-14.885,12.347L120.846,49.03c-0.79,1.579-1,3.328-0.701,4.99L6.433,76.763
		c-4.333,0.867-7.142,5.081-6.276,9.414c0.761,3.803,4.101,6.433,7.836,6.433c0.52,0,1.048-0.051,1.577-0.157l120-24
		c0.529-0.106,1.033-0.263,1.513-0.462l62.972,69.969c1.52,1.689,3.683,2.648,5.946,2.648c0.096,0,0.191-0.001,0.288-0.005
		c2.367-0.085,4.574-1.214,6.028-3.083l9.696-12.467c0.125,6.818,3.102,12.951,7.793,17.249L195.03,446.176
		c-0.225,2.375,0.621,4.725,2.308,6.411l53.677,53.677c1.562,1.562,3.609,2.343,5.657,2.343c2.047,0,4.095-0.781,5.657-2.343
		l53.677-53.677c1.695-1.695,2.541-4.06,2.304-6.445l-23.19-234.083c0.029-0.74-0.044-1.48-0.218-2.203l-4.493-45.353
		c-0.013-0.227-0.035-0.453-0.067-0.679l-2.133-21.533c4.685-4.297,7.658-10.426,7.783-17.239l9.696,12.467
		c1.454,1.869,3.661,2.998,6.028,3.083c0.096,0.004,0.192,0.005,0.288,0.005c2.263,0,4.426-0.959,5.946-2.648L380.92,67.99
		c0.479,0.199,0.984,0.357,1.513,0.462l120,24c0.53,0.106,1.057,0.157,1.577,0.157c3.735,0,7.076-2.63,7.836-6.433
		C512.712,81.844,509.903,77.629,505.57,76.763z M302.014,443.951l-5.678,5.678l-78.16-78.16l1.503-15.87l81.152,81.152
		c0.166,0.166,0.34,0.318,0.516,0.466L302.014,443.951z M276.336,469.629l-61.62-61.62l1.503-15.87l68.804,68.804L276.336,469.629z
		 M290.067,323.36l-61.511-61.511l1.503-15.87l58.098,58.097L290.067,323.36z M221.658,334.951c-0.007-0.007-0.015-0.013-0.022-0.02
		l1.503-15.872l73.815,73.815l1.91,19.283L221.658,334.951z M225.337,298.629c-0.078-0.078-0.162-0.145-0.243-0.219l1.505-15.892
		l63.746,63.746c0.643,0.643,1.37,1.146,2.143,1.524l1.978,19.97L225.337,298.629z M233.658,226.951
		c-0.511-0.511-1.078-0.93-1.677-1.274l1.538-16.238l50.2,50.2c0.012,0.012,0.026,0.023,0.039,0.035l1.911,19.287L233.658,226.951z
		 M236.036,189.328c-0.181-0.181-0.371-0.35-0.564-0.51l1.508-15.919l42.381,42.381l1.91,19.283L236.036,189.328z M272.002,132.607
		h-10.603l-28.835-28.835l8.767-11.272l36.603,36.603c0.13,0.13,0.269,0.247,0.406,0.367
		C276.876,131.373,274.583,132.607,272.002,132.607z M232.125,125.961l6.523,6.523C235.321,131.913,232.696,129.288,232.125,125.961
		z M199.554,120.152l-61.959-68.843l13.747-27.495c1.016-2.031,2.778-3.493,4.961-4.115c2.185-0.623,4.452-0.31,6.387,0.88
		c0.154,0.095,0.311,0.185,0.471,0.269l80.657,42.394L199.554,120.152z M240.002,148.607h14.77l19.961,19.961l2.14,21.596
		l-37.935-37.935l0.345-3.64C239.521,148.596,239.76,148.607,240.002,148.607z M256.671,489.293l-45.358-45.357l1.445-15.258
		l52.264,52.264L256.671,489.293z M280.005,108.547L251.23,79.773l4.771-6.135l24.685,31.738
		C280.257,106.348,280.013,107.418,280.005,108.547z M312.449,120.152l-44.264-56.911l80.657-42.394
		c0.16-0.084,0.317-0.174,0.471-0.269c1.935-1.19,4.202-1.502,6.387-0.88c2.184,0.623,3.946,2.084,4.961,4.115l13.747,27.495
		L312.449,120.152z"/>
	<path d="M160.002,212.607h-96c-13.234,0-24,10.766-24,24v96c0,13.234,10.766,24,24,24h96c13.234,0,24-10.766,24-24v-96
		C184.002,223.374,173.235,212.607,160.002,212.607z M64.002,228.607h96c4.411,0,8,3.589,8,8v26.456l-56,21l-56-21v-26.456
		C56.002,232.196,59.59,228.607,64.002,228.607z M160.002,340.607h-96c-4.411,0-8-3.589-8-8v-52.456l53.191,19.947
		c0.906,0.339,1.857,0.509,2.809,0.509s1.903-0.17,2.809-0.509l53.191-19.947v52.456
		C168.002,337.019,164.413,340.607,160.002,340.607z"/>
	<path d="M112.002,276.608c2.11,0,4.17-0.85,5.66-2.34c1.49-1.49,2.34-3.56,2.34-5.66c0-2.11-0.85-4.17-2.34-5.66
		c-1.49-1.49-3.55-2.34-5.66-2.34c-2.11,0-4.17,0.85-5.66,2.34c-1.49,1.49-2.34,3.55-2.34,5.66c0,2.11,0.85,4.17,2.34,5.66
		C107.832,275.758,109.891,276.608,112.002,276.608z"/>
	<path d="M464.002,228.607h-24c0-13.233-10.767-24-24-24v-16c0-8.822-7.178-16-16-16h-16c-8.822,0-16,7.178-16,16v40h-32
		c-4.418,0-8,3.582-8,8v96c0,13.234,10.766,24,24,24h96c13.234,0,24-10.766,24-24v-96
		C472.002,232.189,468.42,228.607,464.002,228.607z M424.002,228.607h-8v-8C420.413,220.607,424.002,224.196,424.002,228.607z
		 M384.002,188.607h16v40h-16V188.607z M456.002,332.607c0,4.411-3.589,8-8,8h-96c-4.411,0-8-3.589-8-8v-88h80v32
		c0,4.418,3.582,8,8,8s8-3.582,8-8v-32h16V332.607z"/>
</g>
<g>
</g>
<g>
</g>
<g>
</g>
<g>
</g>
<g>
</g>
<g>
</g>
<g>
</g>
<g>
</g>
<g>
</g>
<g>
</g>
<g>
</g>
<g>
</g>
<g>
</g>
<g>
</g>
<g>
</g>
</svg>
