<?xml version="1.0" encoding="iso-8859-1"?>
<!-- Generator: Adobe Illustrator 17.1.0, SVG Export Plug-In . SVG Version: 6.00 Build 0)  -->
<!DOCTYPE svg PUBLIC "-//W3C//DTD SVG 1.1//EN" "http://www.w3.org/Graphics/SVG/1.1/DTD/svg11.dtd">
<svg version="1.1" id="Capa_1" xmlns="http://www.w3.org/2000/svg" xmlns:xlink="http://www.w3.org/1999/xlink" x="0px" y="0px"
	 viewBox="0 0 512 512" style="enable-background:new 0 0 512 512;" xml:space="preserve">
<g>
	<path d="M344.001,464h-16.004c-4.418,0-8,3.582-8,8s3.582,8,8,8h16.004c4.418,0,8-3.582,8-8S348.42,464,344.001,464z"/>
	<path d="M408,465.376V16h8c4.418,0,8-3.582,8-8s-3.582-8-8-8H96c-4.418,0-8,3.582-8,8s3.582,8,8,8h8v449.376
		c-9.311,3.302-16,12.195-16,22.624v16c0,4.418,3.582,8,8,8h320c4.418,0,8-3.582,8-8v-16C424,477.571,417.311,468.679,408,465.376z
		 M408,496H104v-8c0-4.411,3.589-8,8-8h184.003c4.418,0,8-3.582,8-8s-3.582-8-8-8H120V16h272v448h-15.998c-4.418,0-8,3.582-8,8
		s3.582,8,8,8H400c4.411,0,8,3.589,8,8V496z"/>
	<path d="M376,200c0-48.523-39.477-88-88-88c-4.418,0-8,3.582-8,8v39.998v0.005v39.995c0,0.265,0.014,0.529,0.04,0.793
		c0.011,0.114,0.033,0.224,0.048,0.337c0.021,0.146,0.038,0.292,0.067,0.437c0.026,0.131,0.062,0.259,0.094,0.387
		c0.031,0.124,0.058,0.249,0.095,0.372c0.039,0.127,0.086,0.25,0.131,0.375c0.043,0.122,0.083,0.244,0.133,0.364
		c0.048,0.116,0.105,0.227,0.158,0.34c0.058,0.124,0.113,0.248,0.178,0.369c0.058,0.108,0.124,0.21,0.186,0.315
		c0.071,0.119,0.139,0.24,0.217,0.356c0.076,0.114,0.161,0.22,0.242,0.329c0.075,0.1,0.144,0.202,0.224,0.3
		c0.152,0.185,0.314,0.362,0.482,0.533c0.017,0.017,0.031,0.036,0.047,0.052c0.02,0.02,0.042,0.036,0.062,0.056
		c0.168,0.165,0.341,0.323,0.523,0.473c0.096,0.079,0.197,0.147,0.296,0.221c0.111,0.083,0.219,0.168,0.334,0.245
		c0.115,0.077,0.234,0.143,0.352,0.214c0.106,0.063,0.21,0.13,0.32,0.189c0.119,0.064,0.242,0.118,0.364,0.175
		c0.115,0.054,0.228,0.112,0.346,0.161c0.117,0.049,0.237,0.088,0.356,0.131c0.127,0.046,0.253,0.094,0.383,0.134
		c0.119,0.036,0.24,0.062,0.36,0.093c0.133,0.033,0.264,0.071,0.399,0.097c0.139,0.028,0.279,0.044,0.419,0.064
		c0.118,0.017,0.234,0.04,0.354,0.051c0.262,0.026,0.526,0.04,0.789,0.04h80C372.418,208,376,204.418,376,200z M351.178,165.508
		L324.686,192h-17.372l36.908-36.908C346.828,158.347,349.161,161.828,351.178,165.508z M296,163.314l26.492-26.492
		c3.68,2.017,7.161,4.351,10.416,6.956L296,180.686V163.314z M306.311,130.375L296,140.686v-12.245
		C299.521,128.833,302.96,129.493,306.311,130.375z M347.314,192l10.311-10.311c0.882,3.351,1.543,6.79,1.934,10.311H347.314z"/>
	<path d="M344,232c0-4.418-3.582-8-8-8h-72v-72c0-4.418-3.582-8-8-8c-48.523,0-88,39.477-88,88s39.477,88,88,88S344,280.523,344,232
		z M184,232c0-36.997,28.051-67.565,64-71.559V232c0,4.418,3.582,8,8,8h71.559c-3.993,35.949-34.562,64-71.559,64
		C216.299,304,184,271.701,184,232z"/>
	<path d="M176,352h-16c-4.418,0-8,3.582-8,8s3.582,8,8,8h16c4.418,0,8-3.582,8-8S180.418,352,176,352z"/>
	<path d="M176,384h-16c-4.418,0-8,3.582-8,8s3.582,8,8,8h16c4.418,0,8-3.582,8-8S180.418,384,176,384z"/>
	<path d="M352,352H208c-4.418,0-8,3.582-8,8s3.582,8,8,8h144c4.418,0,8-3.582,8-8S356.418,352,352,352z"/>
	<path d="M352,384H208c-4.418,0-8,3.582-8,8s3.582,8,8,8h144c4.418,0,8-3.582,8-8S356.418,384,352,384z"/>
	<path d="M176,416h-16c-4.418,0-8,3.582-8,8s3.582,8,8,8h16c4.418,0,8-3.582,8-8S180.418,416,176,416z"/>
	<path d="M352,416H208c-4.418,0-8,3.582-8,8s3.582,8,8,8h144c4.418,0,8-3.582,8-8S356.418,416,352,416z"/>
	<path d="M176,96c13.234,0,24-10.767,24-24c0-8.566-4.617-16.543-12.048-20.815C184.329,49.102,180.196,48,176,48
		c-13.234,0-24,10.767-24,24S162.766,96,176,96z M176,64c1.42,0,2.758,0.355,3.977,1.056C182.458,66.482,184,69.144,184,72
		c0,4.411-3.589,8-8,8s-8-3.589-8-8S171.589,64,176,64z"/>
	<path d="M224,80h128c4.418,0,8-3.582,8-8s-3.582-8-8-8H224c-4.418,0-8,3.582-8,8S219.582,80,224,80z"/>
</g>
<g>
</g>
<g>
</g>
<g>
</g>
<g>
</g>
<g>
</g>
<g>
</g>
<g>
</g>
<g>
</g>
<g>
</g>
<g>
</g>
<g>
</g>
<g>
</g>
<g>
</g>
<g>
</g>
<g>
</g>
</svg>
