<?xml version="1.0" encoding="iso-8859-1"?>
<!-- Generator: Adobe Illustrator 17.1.0, SVG Export Plug-In . SVG Version: 6.00 Build 0)  -->
<!DOCTYPE svg PUBLIC "-//W3C//DTD SVG 1.1//EN" "http://www.w3.org/Graphics/SVG/1.1/DTD/svg11.dtd">
<svg version="1.1" id="Capa_1" xmlns="http://www.w3.org/2000/svg" xmlns:xlink="http://www.w3.org/1999/xlink" x="0px" y="0px"
	 viewBox="0 0 512 512" style="enable-background:new 0 0 512 512;" xml:space="preserve">
<g>
	<path d="M408.735,143.265c-11.363-11.362-23.771-21.299-37.003-29.729l14.438-25.008l16.143,9.32
		c1.26,0.728,2.635,1.073,3.993,1.073c2.765,0,5.454-1.435,6.936-4.001c2.209-3.826,0.898-8.719-2.928-10.928l-45.883-26.49
		c-3.827-2.211-8.719-0.899-10.928,2.928c-2.209,3.826-0.898,8.719,2.928,10.928l15.883,9.17l-14.387,24.919
		C329.238,90.054,297.277,81.365,264,80.161v-0.966c18.236-3.716,32-19.878,32-39.195c0-22.056-17.944-40-40-40s-40,17.944-40,40
		c0,19.316,13.764,35.479,32,39.195v0.966c-54.694,1.979-105.83,24.199-144.735,63.104C62.468,184.063,40,238.305,40,296
		s22.468,111.938,63.265,152.735C144.062,489.532,198.304,512,256,512s111.938-22.468,152.735-63.265
		C449.532,407.938,472,353.695,472,296S449.532,184.063,408.735,143.265z M232,40c0-13.233,10.767-24,24-24s24,10.767,24,24
		c0,10.429-6.689,19.321-16,22.624V40c0-4.418-3.582-8-8-8s-8,3.582-8,8v22.624C238.689,59.321,232,50.429,232,40z M256,496
		c-110.28,0-200-89.72-200-200S145.72,96,256,96s200,89.72,200,200S366.28,496,256,496z"/>
	<path d="M412.772,199.628c-2.317-3.762-7.244-4.935-11.007-2.616c-3.762,2.317-4.933,7.245-2.616,11.007
		C415.407,234.412,424,264.835,424,296c0,92.636-75.364,168-168,168S88,388.636,88,296s75.364-168,168-168
		c31.154,0,61.567,8.587,87.953,24.834c3.763,2.315,8.69,1.146,11.006-2.618c2.317-3.762,1.145-8.69-2.618-11.007
		C323.433,121.409,290.118,112,256,112c-101.458,0-184,82.542-184,184s82.542,184,184,184s184-82.542,184-184
		C440,261.87,430.584,228.545,412.772,199.628z"/>
	<path d="M367.995,170.772c4.631,4.146,9.082,8.596,13.229,13.229c1.58,1.766,3.767,2.665,5.964,2.665
		c1.899,0,3.806-0.673,5.333-2.039c3.292-2.946,3.572-8.004,0.625-11.296c-4.539-5.071-9.411-9.943-14.481-14.48
		c-3.292-2.948-8.35-2.666-11.296,0.626C364.422,162.769,364.702,167.826,367.995,170.772z"/>
	<path d="M305.935,152.436C290.287,146.978,273.486,144,256,144c-4.418,0-8,3.582-8,8v55.998v0.005v47.995v0.005V296
		c0,2.122,0.843,4.156,2.343,5.657L352.167,403.48c1.562,1.562,3.609,2.343,5.657,2.343s4.095-0.781,5.657-2.343
		C392.189,374.771,408,336.601,408,296c0-12.752-1.587-25.139-4.559-36.983c-0.059-0.333-0.14-0.661-0.242-0.985
		c-3.191-12.364-7.909-24.12-13.929-35.062c-0.219-0.518-0.498-1.014-0.831-1.485c-5.697-10.086-12.508-19.463-20.273-27.956
		c-0.236-0.319-0.489-0.629-0.778-0.918c-0.157-0.157-0.322-0.3-0.488-0.44c-16.381-17.486-36.835-31.107-59.836-39.336
		C306.696,152.673,306.32,152.54,305.935,152.436z M323,177.686l-59,59v-25.372l41.846-41.847
		C311.779,171.813,317.508,174.563,323,177.686z M350.448,198.239L264,284.686v-25.372l72.705-72.705
		C341.539,190.185,346.133,194.068,350.448,198.239z M371.851,224.835L284,312.686L271.314,300l89.979-89.978
		C365.128,214.71,368.659,219.657,371.851,224.835z M386.611,258.076L308,336.687L295.314,324l84.418-84.418
		C382.455,245.53,384.759,251.708,386.611,258.076z M392,296c0,1.597-0.036,3.188-0.091,4.776L332,360.686L319.314,348
		l71.313-71.313C391.528,282.998,392,289.445,392,296z M288.701,163.984L264,188.686v-28.454
		C272.464,160.726,280.719,162.006,288.701,163.984z M357.661,386.347L343.314,372l45.205-45.205
		C383.448,348.81,372.937,369.203,357.661,386.347z"/>
</g>
<g>
</g>
<g>
</g>
<g>
</g>
<g>
</g>
<g>
</g>
<g>
</g>
<g>
</g>
<g>
</g>
<g>
</g>
<g>
</g>
<g>
</g>
<g>
</g>
<g>
</g>
<g>
</g>
<g>
</g>
</svg>
