<?xml version="1.0" encoding="iso-8859-1"?>
<!-- Generator: Adobe Illustrator 17.1.0, SVG Export Plug-In . SVG Version: 6.00 Build 0)  -->
<!DOCTYPE svg PUBLIC "-//W3C//DTD SVG 1.1//EN" "http://www.w3.org/Graphics/SVG/1.1/DTD/svg11.dtd">
<svg version="1.1" id="Capa_1" xmlns="http://www.w3.org/2000/svg" xmlns:xlink="http://www.w3.org/1999/xlink" x="0px" y="0px"
	 viewBox="0 0 512 512" style="enable-background:new 0 0 512 512;" xml:space="preserve">
<g>
	<path d="M504,440h-24V214.965c13.868-3.682,24-16.799,24-32.324v-22.639v-0.005v-47.995v-0.005V72c0-8.822-7.178-16-16-16H24
		c-8.822,0-16,7.178-16,16v110.642c0,15.525,10.132,28.642,24,32.324V440H8c-4.418,0-8,3.582-8,8s3.582,8,8,8h304h112h80
		c4.418,0,8-3.582,8-8S508.418,440,504,440z M48,215.002c5.204-1.332,10.005-3.974,14.025-7.789
		c0.694-0.658,1.355-1.346,1.983-2.061C69.876,211.801,78.457,216,88,216c9.547,0,18.132-4.203,24-10.855
		c5.868,6.652,14.453,10.855,24,10.855s18.132-4.203,24-10.855c5.868,6.652,14.453,10.855,24,10.855s18.132-4.203,24-10.855
		c5.868,6.652,14.453,10.855,24,10.855s18.132-4.203,24-10.855c5.868,6.652,14.453,10.855,24,10.855s18.132-4.203,24-10.855
		c0.124,0.141,0.257,0.274,0.383,0.413c-0.247,0.771-0.383,1.59-0.383,2.443v48v120H48V215.002z M432,256v-41.023
		c6.28-1.623,11.823-5.1,15.992-9.823c0.628,0.715,1.289,1.402,1.983,2.061c4.02,3.814,8.823,6.45,14.025,7.782V376h-32V256z
		 M472.872,199.977c-4.445,0.243-8.669-1.318-11.883-4.368C457.771,192.556,456,188.433,456,184v-4.686l20.104,20.104
		C475.062,199.722,473.982,199.918,472.872,199.977z M456,156.686v-25.372l32,32v19.328c0,1.825-0.282,3.591-0.784,5.261
		L456,156.686z M488,140.686l-32-32V83.314l32,32V140.686z M440,111.998v0.005v47.995v0.005V184c0,8.822-7.178,16-16,16
		s-16-7.178-16-16v-23.998v-0.005v-47.995v-0.005V72h32V111.998z M360,156.686v-25.372l32,32V184c0,1.429-0.206,2.808-0.559,4.127
		L360,156.686z M392,140.686l-32-32V83.314l32,32V140.686z M360,179.314l20.127,20.127C378.808,199.794,377.429,200,376,200
		c-8.822,0-16-7.178-16-16V179.314z M392,92.686L371.314,72H392V92.686z M344,111.998v0.005v47.995v0.005V184
		c0,8.822-7.178,16-16,16s-16-7.178-16-16v-23.998v-0.005v-47.995v-0.005V72h32V111.998z M264,156.686v-25.372l32,32V184
		c0,1.429-0.206,2.808-0.559,4.127L264,156.686z M296,140.686l-32-32V83.314l32,32V140.686z M264,179.314l20.127,20.127
		C282.808,199.794,281.429,200,280,200c-8.822,0-16-7.178-16-16V179.314z M296,92.686L275.314,72H296V92.686z M248,111.998v0.005
		v47.995v0.005V184c0,8.822-7.178,16-16,16s-16-7.178-16-16v-23.998v-0.005v-47.995v-0.005V72h32V111.998z M168,156.686v-25.372
		l32,32V184c0,1.429-0.206,2.808-0.559,4.127L168,156.686z M200,140.686l-32-32V83.314l32,32V140.686z M168,179.314l20.127,20.127
		C186.808,199.794,185.429,200,184,200c-8.822,0-16-7.178-16-16V179.314z M200,92.686L179.314,72H200V92.686z M152,111.998v0.005
		v47.995v0.005V184c0,8.822-7.178,16-16,16s-16-7.178-16-16v-23.998v-0.005v-47.995v-0.005V72h32V111.998z M104,140.686l-32-32
		V83.314l32,32V140.686z M104,163.314V184c0,1.429-0.206,2.808-0.559,4.127L72,156.686v-25.372L104,163.314z M72,179.314
		l20.127,20.127C90.808,199.794,89.429,200,88,200c-8.822,0-16-7.178-16-16V179.314z M104,92.686L83.314,72H104V92.686z
		 M320,214.977c2.559,0.661,5.237,1.023,8,1.023c9.547,0,18.132-4.203,24-10.855c5.868,6.652,14.453,10.855,24,10.855
		s18.132-4.203,24-10.855c4.17,4.728,9.716,8.208,16,9.832V248h-96V214.977z M432,392h32v16h-8c-4.418,0-8,3.582-8,8s3.582,8,8,8h8
		v16h-32V392z M488,92.686L467.314,72H488V92.686z M24,182.642V72h32v39.998v0.005v47.995v0.005V184
		c0,4.433-1.771,8.556-4.989,11.608c-3.214,3.049-7.438,4.607-11.883,4.368C30.786,199.54,24,191.764,24,182.642z M48,424h232
		c4.418,0,8-3.582,8-8s-3.582-8-8-8H48v-16h256v48H48V424z M320,440V264h96v176H320z"/>
	<path d="M336,336c-4.418,0-8,3.582-8,8v16c0,4.418,3.582,8,8,8s8-3.582,8-8v-16C344,339.582,340.418,336,336,336z"/>
	<path d="M109.657,234.343c-3.124-3.123-8.189-3.123-11.313,0c-3.125,3.125-3.125,8.189,0,11.314l112,112
		c1.562,1.562,3.609,2.343,5.657,2.343s4.095-0.781,5.657-2.343c3.125-3.125,3.125-8.189,0-11.314L109.657,234.343z"/>
	<path d="M181.657,258.343c-3.124-3.123-8.189-3.123-11.313,0c-3.125,3.125-3.125,8.189,0,11.314l64,64
		c1.562,1.562,3.609,2.343,5.657,2.343s4.095-0.781,5.657-2.343c3.125-3.125,3.125-8.189,0-11.314L181.657,258.343z"/>
</g>
<g>
</g>
<g>
</g>
<g>
</g>
<g>
</g>
<g>
</g>
<g>
</g>
<g>
</g>
<g>
</g>
<g>
</g>
<g>
</g>
<g>
</g>
<g>
</g>
<g>
</g>
<g>
</g>
<g>
</g>
</svg>
