<?xml version="1.0" encoding="iso-8859-1"?>
<!-- Generator: Adobe Illustrator 17.1.0, SVG Export Plug-In . SVG Version: 6.00 Build 0)  -->
<!DOCTYPE svg PUBLIC "-//W3C//DTD SVG 1.1//EN" "http://www.w3.org/Graphics/SVG/1.1/DTD/svg11.dtd">
<svg version="1.1" id="Capa_1" xmlns="http://www.w3.org/2000/svg" xmlns:xlink="http://www.w3.org/1999/xlink" x="0px" y="0px"
	 viewBox="0 0 512 512" style="enable-background:new 0 0 512 512;" xml:space="preserve">
<g>
	<path d="M432,196h-32c-4.418,0-8,3.582-8,8s3.582,8,8,8h32c4.418,0,8-3.582,8-8S436.418,196,432,196z"/>
	<path d="M80,212h288c4.418,0,8-3.582,8-8s-3.582-8-8-8H80c-4.418,0-8,3.582-8,8S75.582,212,80,212z"/>
	<path d="M432,372h-32c-4.418,0-8,3.582-8,8s3.582,8,8,8h32c4.418,0,8-3.582,8-8S436.418,372,432,372z"/>
	<path d="M368,372H80c-4.418,0-8,3.582-8,8s3.582,8,8,8h288c4.418,0,8-3.582,8-8S372.418,372,368,372z"/>
	<path d="M456,108h-96V92c0-30.879-25.122-56-56-56h-96c-30.878,0-56,25.121-56,56v16H56c-30.878,0-56,25.121-56,56v256
		c0,30.879,25.122,56,56,56h400c30.878,0,56-25.121,56-56V164C512,133.121,486.878,108,456,108z M168,92c0-22.056,17.944-40,40-40
		h96c22.056,0,40,17.944,40,40v16H168V92z M496,420c0,22.056-17.944,40-40,40H56c-22.056,0-40-17.944-40-40V164
		c0-22.056,17.944-40,40-40h400c22.056,0,40,17.944,40,40V420z"/>
	<path d="M80,300h32c4.418,0,8-3.582,8-8s-3.582-8-8-8H80c-4.418,0-8,3.582-8,8S75.582,300,80,300z"/>
	<path d="M432,284H144c-4.418,0-8,3.582-8,8s3.582,8,8,8h288c4.418,0,8-3.582,8-8S436.418,284,432,284z"/>
	<path d="M456,140h-48c-4.418,0-8,3.582-8,8s3.582,8,8,8h48c4.262,0,8,3.738,8,8v8c0,4.418,3.582,8,8,8s8-3.582,8-8v-8
		C480,150.99,469.009,140,456,140z"/>
	<path d="M360,156h16c4.418,0,8-3.582,8-8s-3.582-8-8-8h-16c-4.418,0-8,3.582-8,8S355.582,156,360,156z"/>
</g>
<g>
</g>
<g>
</g>
<g>
</g>
<g>
</g>
<g>
</g>
<g>
</g>
<g>
</g>
<g>
</g>
<g>
</g>
<g>
</g>
<g>
</g>
<g>
</g>
<g>
</g>
<g>
</g>
<g>
</g>
</svg>
