<?xml version="1.0" encoding="iso-8859-1"?>
<!-- Generator: Adobe Illustrator 17.1.0, SVG Export Plug-In . SVG Version: 6.00 Build 0)  -->
<!DOCTYPE svg PUBLIC "-//W3C//DTD SVG 1.1//EN" "http://www.w3.org/Graphics/SVG/1.1/DTD/svg11.dtd">
<svg version="1.1" id="Capa_1" xmlns="http://www.w3.org/2000/svg" xmlns:xlink="http://www.w3.org/1999/xlink" x="0px" y="0px"
	 viewBox="0 0 512 512" style="enable-background:new 0 0 512 512;" xml:space="preserve">
<g>
	<path d="M456,108h-96V92c0-30.878-25.122-56-56-56h-96c-30.878,0-56,25.122-56,56v16H56c-30.878,0-56,25.122-56,56v256
		c0,30.878,25.122,56,56,56h400c30.878,0,56-25.122,56-56V164C512,133.122,486.878,108,456,108z M168,92c0-22.056,17.944-40,40-40
		h96c22.056,0,40,17.944,40,40v16H168V92z M56,124h400c22.056,0,40,17.944,40,40v59.585c-41.686,32.026-101.681,54.52-170.06,63.768
		C320.633,271.478,305.637,260,288,260h-64c-17.637,0-32.634,11.479-37.94,27.354c-68.38-9.248-128.375-31.743-170.06-63.768V164
		C16,141.944,33.944,124,56,124z M312,300c0,13.234-10.767,24-24,24h-64c-13.234,0-24-10.766-24-24s10.766-24,24-24h64
		C301.233,276,312,286.766,312,300z M456,460H56c-22.056,0-40-17.944-40-40V243.391c43.234,29.947,102.056,50.936,168.143,59.849
		C185.799,323.785,203.036,340,224,340h64c20.964,0,38.201-16.215,39.857-36.76c66.086-8.912,124.909-29.902,168.143-59.849V420
		C496,442.056,478.056,460,456,460z"/>
	<path d="M440,156h16c4.418,0,8-3.582,8-8s-3.582-8-8-8h-16c-4.418,0-8,3.582-8,8S435.581,156,440,156z"/>
	<path d="M320,156h88c4.418,0,8-3.582,8-8s-3.582-8-8-8h-88c-4.418,0-8,3.582-8,8S315.581,156,320,156z"/>
</g>
<g>
</g>
<g>
</g>
<g>
</g>
<g>
</g>
<g>
</g>
<g>
</g>
<g>
</g>
<g>
</g>
<g>
</g>
<g>
</g>
<g>
</g>
<g>
</g>
<g>
</g>
<g>
</g>
<g>
</g>
</svg>
