<?xml version="1.0" encoding="iso-8859-1"?>
<!-- Generator: Adobe Illustrator 17.1.0, SVG Export Plug-In . SVG Version: 6.00 Build 0)  -->
<!DOCTYPE svg PUBLIC "-//W3C//DTD SVG 1.1//EN" "http://www.w3.org/Graphics/SVG/1.1/DTD/svg11.dtd">
<svg version="1.1" id="Capa_1" xmlns="http://www.w3.org/2000/svg" xmlns:xlink="http://www.w3.org/1999/xlink" x="0px" y="0px"
	 viewBox="0 0 512 512" style="enable-background:new 0 0 512 512;" xml:space="preserve">
<g>
	<path d="M432,0H80C66.766,0,56,10.766,56,24v464c0,13.233,10.766,24,24,24h352c13.234,0,24-10.767,24-24V24
		C456,10.766,445.234,0,432,0z M80,16h352c4.411,0,8,3.589,8,8v200H72V24C72,19.589,75.589,16,80,16z M432,496H80
		c-4.411,0-8-3.589-8-8V240h368v248C440,492.411,436.411,496,432,496z"/>
	<path d="M168,136c22.056,0,40-17.944,40-40v-8c0-22.056-17.944-40-40-40s-40,17.944-40,40v8C128,118.056,145.944,136,168,136z
		 M144,88c0-13.234,10.766-24,24-24s24,10.766,24,24v8c0,13.234-10.766,24-24,24s-24-10.766-24-24V88z"/>
	<path d="M118.672,200h98.689c8.071,0,14.638-6.567,14.638-14.639V168c0-6.964-3.244-14.757-8.678-20.847
		c-6.268-7.023-14.524-10.891-23.25-10.891h-6.79c-2.778,0-5.357,1.441-6.813,3.808C181.803,147.651,175.072,152,168,152
		s-13.803-4.349-18.469-11.93c-1.456-2.366-4.035-3.808-6.813-3.808h-6.79C117.947,136.262,104,153.323,104,168v17.328
		C104,193.418,110.582,200,118.672,200z M120,168c0-5.404,6.203-15.738,15.928-15.738h2.568C146.066,162.321,156.612,168,168,168
		s21.934-5.679,29.503-15.738h2.568c9.725,0,15.928,10.334,15.928,15.738v16h-96V168z"/>
	<path d="M256,72h88c4.418,0,8-3.582,8-8s-3.582-8-8-8h-88c-4.418,0-8,3.582-8,8S251.582,72,256,72z"/>
	<path d="M256,136h24c4.418,0,8-3.582,8-8s-3.582-8-8-8h-24c-4.418,0-8,3.582-8,8S251.582,136,256,136z"/>
	<path d="M336,120h-24c-4.418,0-8,3.582-8,8s3.582,8,8,8h24c4.418,0,8-3.582,8-8S340.418,120,336,120z"/>
	<path d="M392,120h-24c-4.418,0-8,3.582-8,8s3.582,8,8,8h24c4.418,0,8-3.582,8-8S396.418,120,392,120z"/>
	<path d="M256,104h136c4.418,0,8-3.582,8-8s-3.582-8-8-8H256c-4.418,0-8,3.582-8,8S251.582,104,256,104z"/>
	<path d="M112,280h16c4.418,0,8-3.582,8-8s-3.582-8-8-8h-16c-4.418,0-8,3.582-8,8S107.582,280,112,280z"/>
	<path d="M400,264H168c-4.418,0-8,3.582-8,8s3.582,8,8,8h232c4.418,0,8-3.582,8-8S404.418,264,400,264z"/>
	<path d="M112,312h16c4.418,0,8-3.582,8-8s-3.582-8-8-8h-16c-4.418,0-8,3.582-8,8S107.582,312,112,312z"/>
	<path d="M400,296H168c-4.418,0-8,3.582-8,8s3.582,8,8,8h232c4.418,0,8-3.582,8-8S404.418,296,400,296z"/>
	<path d="M304,344H112c-4.418,0-8,3.582-8,8s3.582,8,8,8h192c4.418,0,8-3.582,8-8S308.418,344,304,344z"/>
	<path d="M272,408H112c-4.418,0-8,3.582-8,8s3.582,8,8,8h160c4.418,0,8-3.582,8-8S276.418,408,272,408z"/>
	<path d="M112,392h128c4.418,0,8-3.582,8-8s-3.582-8-8-8H112c-4.418,0-8,3.582-8,8S107.582,392,112,392z"/>
	<path d="M200,440h-88c-4.418,0-8,3.582-8,8s3.582,8,8,8h88c4.418,0,8-3.582,8-8S204.418,440,200,440z"/>
	<path d="M400,440h-32c-4.418,0-8,3.582-8,8s3.582,8,8,8h32c4.418,0,8-3.582,8-8S404.418,440,400,440z"/>
	<path d="M400,408h-16c-4.418,0-8,3.582-8,8s3.582,8,8,8h16c4.418,0,8-3.582,8-8S404.418,408,400,408z"/>
</g>
<g>
</g>
<g>
</g>
<g>
</g>
<g>
</g>
<g>
</g>
<g>
</g>
<g>
</g>
<g>
</g>
<g>
</g>
<g>
</g>
<g>
</g>
<g>
</g>
<g>
</g>
<g>
</g>
<g>
</g>
</svg>
