<?xml version="1.0" encoding="iso-8859-1"?>
<!-- Generator: Adobe Illustrator 17.1.0, SVG Export Plug-In . SVG Version: 6.00 Build 0)  -->
<!DOCTYPE svg PUBLIC "-//W3C//DTD SVG 1.1//EN" "http://www.w3.org/Graphics/SVG/1.1/DTD/svg11.dtd">
<svg version="1.1" id="Capa_1" xmlns="http://www.w3.org/2000/svg" xmlns:xlink="http://www.w3.org/1999/xlink" x="0px" y="0px"
	 viewBox="0 0 496 496" style="enable-background:new 0 0 496 496;" xml:space="preserve">
<g>
	<path d="M456,64H40C17.944,64,0,81.944,0,104v288c0,22.056,17.944,40,40,40h416c22.056,0,40-17.944,40-40V104
		C496,81.944,478.056,64,456,64z M21.124,406.796C17.919,402.716,16,397.579,16,392v-8h43.117L21.124,406.796z M240,144v32h-64v-32
		H240z M320,144v32h-64v-32H320z M400,144v32h-64v-32H400z M480,144v32h-64v-32H480z M80,272H36.883L80,246.13V272z M96,240h64v32
		H96V240z M96,288h64v32H96V288z M80,320H36.883L80,294.13V320z M176,288h64v32h-64V288z M176,272v-32h64v32H176z M256,240h64v32
		h-64V240z M336,240h64v32h-64V240z M336,224v-32h64v32H336z M320,224h-64v-32h64V224z M240,224h-64v-32h64V224z M160,224H96v-32h64
		V224z M80,224H36.883L80,198.13V224z M16,192h43.117L16,217.87V192z M36.883,176L80,150.13V176H36.883z M16,240h43.117L16,265.87
		V240z M16,288h43.117L16,313.87V288z M16,336h43.117L16,361.87V336z M80,342.13V368H36.883L80,342.13z M96,336h64v32H96V336z
		 M176,336h64v32h-64V336z M256,336h64v32h-64V336z M256,320v-32h64v32H256z M336,288h64v32h-64V288z M416,288h64v32h-64V288z
		 M416,272v-32h64v32H416z M416,224v-32h64v32H416z M160,176H96v-32h64V176z M16,169.87V144h43.117L16,169.87z M160,384v32H96v-32
		H160z M176,384h64v32h-64V384z M256,384h64v32h-64V384z M336,384h64v32h-64V384z M336,368v-32h64v32H336z M416,336h64v32h-64V336z
		 M40,80h416c13.234,0,24,10.766,24,24v24H16v-24C16,90.766,26.766,80,40,80z M37.17,415.828L80,390.129V416H40
		C39.042,416,38.099,415.937,37.17,415.828z M456,416h-40v-32h64v8C480,405.234,469.234,416,456,416z"/>
	<path d="M40,112h16c4.418,0,8-3.582,8-8s-3.582-8-8-8H40c-4.418,0-8,3.582-8,8S35.582,112,40,112z"/>
	<path d="M120,112h16c4.418,0,8-3.582,8-8s-3.582-8-8-8h-16c-4.418,0-8,3.582-8,8S115.582,112,120,112z"/>
	<path d="M200,112h16c4.418,0,8-3.582,8-8s-3.582-8-8-8h-16c-4.418,0-8,3.582-8,8S195.582,112,200,112z"/>
	<path d="M280,112h16c4.418,0,8-3.582,8-8s-3.582-8-8-8h-16c-4.418,0-8,3.582-8,8S275.582,112,280,112z"/>
	<path d="M280,168h16c4.418,0,8-3.582,8-8s-3.582-8-8-8h-16c-4.418,0-8,3.582-8,8S275.582,168,280,168z"/>
	<path d="M280,216h16c4.418,0,8-3.582,8-8s-3.582-8-8-8h-16c-4.418,0-8,3.582-8,8S275.582,216,280,216z"/>
	<path d="M216,248h-16c-4.418,0-8,3.582-8,8s3.582,8,8,8h16c4.418,0,8-3.582,8-8S220.418,248,216,248z"/>
	<path d="M376,296h-16c-4.418,0-8,3.582-8,8s3.582,8,8,8h16c4.418,0,8-3.582,8-8S380.418,296,376,296z"/>
	<path d="M136,296h-16c-4.418,0-8,3.582-8,8s3.582,8,8,8h16c4.418,0,8-3.582,8-8S140.418,296,136,296z"/>
	<path d="M136,344h-16c-4.418,0-8,3.582-8,8s3.582,8,8,8h16c4.418,0,8-3.582,8-8S140.418,344,136,344z"/>
	<path d="M296,344h-16c-4.418,0-8,3.582-8,8s3.582,8,8,8h16c4.418,0,8-3.582,8-8S300.418,344,296,344z"/>
	<path d="M456,200h-16c-4.418,0-8,3.582-8,8s3.582,8,8,8h16c4.418,0,8-3.582,8-8S460.418,200,456,200z"/>
	<path d="M360,112h16c4.418,0,8-3.582,8-8s-3.582-8-8-8h-16c-4.418,0-8,3.582-8,8S355.582,112,360,112z"/>
	<path d="M440,112h16c4.418,0,8-3.582,8-8s-3.582-8-8-8h-16c-4.418,0-8,3.582-8,8S435.582,112,440,112z"/>
</g>
<g>
</g>
<g>
</g>
<g>
</g>
<g>
</g>
<g>
</g>
<g>
</g>
<g>
</g>
<g>
</g>
<g>
</g>
<g>
</g>
<g>
</g>
<g>
</g>
<g>
</g>
<g>
</g>
<g>
</g>
</svg>
