<?xml version="1.0" encoding="iso-8859-1"?>
<!-- Generator: Adobe Illustrator 17.1.0, SVG Export Plug-In . SVG Version: 6.00 Build 0)  -->
<!DOCTYPE svg PUBLIC "-//W3C//DTD SVG 1.1//EN" "http://www.w3.org/Graphics/SVG/1.1/DTD/svg11.dtd">
<svg version="1.1" id="Capa_1" xmlns="http://www.w3.org/2000/svg" xmlns:xlink="http://www.w3.org/1999/xlink" x="0px" y="0px"
	 viewBox="0 0 512 512" style="enable-background:new 0 0 512 512;" xml:space="preserve">
<g>
	<path d="M424,128h-8c-17.316,0-33.553,6.852-45.72,19.291c-1.462,1.495-2.28,3.503-2.28,5.594v190.23
		c0,2.091,0.818,4.099,2.28,5.594C382.447,361.148,398.684,368,416,368h8c30.878,0,56-25.121,56-56V184
		C480,153.121,454.878,128,424,128z M464,312c0,22.056-17.944,40-40,40h-8c-11.923,0-23.169-4.342-32-12.29V156.29
		c8.831-7.948,20.077-12.29,32-12.29h8c22.056,0,40,17.944,40,40V312z"/>
	<path d="M424,96h-8c-11.018,0-21.735,1.858-32,5.537V72c0-13.233-10.766-24-24-24h-80v-8c0-4.418-3.582-8-8-8s-8,3.582-8,8v8H24
		C10.766,48,0,58.767,0,72v368c0,22.056,17.944,40,40,40h304c22.056,0,40-17.944,40-40v-45.537c10.265,3.679,20.982,5.537,32,5.537
		h8c48.523,0,88-39.477,88-88V184C512,135.477,472.523,96,424,96z M496,312c0,39.701-32.299,72-72,72h-8
		c-12.696,0-24.925-2.972-36.348-8.833c-2.482-1.271-5.444-1.161-7.823,0.291c-2.379,1.453-3.83,4.04-3.83,6.827V432h-24
		c-4.418,0-8,3.582-8,8s3.582,8,8,8h22.624c-3.302,9.311-12.194,16-22.624,16H40c-10.429,0-19.321-6.689-22.624-16H264
		c4.418,0,8-3.582,8-8s-3.582-8-8-8H16V72c0-4.411,3.589-8,8-8h240v124.686l-35.313,35.313c-3.023,3.022-4.688,7.04-4.688,11.314
		V312c0,8.822,7.178,16,16,16h64c8.822,0,16-7.178,16-16v-76.687c0-4.274-1.665-8.292-4.687-11.313L280,188.686V64h80
		c4.411,0,8,3.589,8,8v41.715c0,2.787,1.451,5.374,3.83,6.827c2.379,1.454,5.343,1.563,7.823,0.291
		C391.075,114.972,403.304,112,416,112h8c39.701,0,72,32.299,72,72V312z M272,203.313l32,32L304.01,312c0,0-0.003,0-0.01,0h-64
		v-76.686L272,203.313z"/>
	<path d="M272,296c4.418,0,8-3.582,8-8v-48c0-4.418-3.582-8-8-8s-8,3.582-8,8v48C264,292.418,267.582,296,272,296z"/>
	<path d="M312,432h-16c-4.418,0-8,3.582-8,8s3.582,8,8,8h16c4.418,0,8-3.582,8-8S316.418,432,312,432z"/>
</g>
<g>
</g>
<g>
</g>
<g>
</g>
<g>
</g>
<g>
</g>
<g>
</g>
<g>
</g>
<g>
</g>
<g>
</g>
<g>
</g>
<g>
</g>
<g>
</g>
<g>
</g>
<g>
</g>
<g>
</g>
</svg>
