<?xml version="1.0" encoding="iso-8859-1"?>
<!-- Generator: Adobe Illustrator 17.1.0, SVG Export Plug-In . SVG Version: 6.00 Build 0)  -->
<!DOCTYPE svg PUBLIC "-//W3C//DTD SVG 1.1//EN" "http://www.w3.org/Graphics/SVG/1.1/DTD/svg11.dtd">
<svg version="1.1" id="Capa_1" xmlns="http://www.w3.org/2000/svg" xmlns:xlink="http://www.w3.org/1999/xlink" x="0px" y="0px"
	 viewBox="0 0 512 512" style="enable-background:new 0 0 512 512;" xml:space="preserve">
<g>
	<path d="M159.978,220.073c0,27.829,10.137,56.011,27.811,77.321c18.586,22.409,42.849,34.751,68.318,34.751
		c25.466,0,49.699-12.335,68.237-34.732c17.616-21.284,27.719-49.455,27.719-77.291v-24.518c7.124-30.679,8.618-57.229,8.607-74.163
		c-0.015-21.864-2.393-36.97-4.613-43.816c-1.179-3.637-4.716-5.846-8.372-5.492c-0.604-0.054-1.223-0.048-1.85,0.041
		c-14.879,2.126-33.132-1.54-52.458-5.421c-31.312-6.287-66.688-13.381-93.744,5.377c-0.241-0.022-0.484-0.037-0.731-0.037
		c-15.185,0-28.667,6.068-37.963,17.086c-8.587,10.178-13.316,24.181-13.316,39.43c0,24.975,10.624,71.13,12.354,78.481V220.073z
		 M312.018,287.212c-15.442,18.658-35.299,28.934-55.911,28.934c-20.623,0-40.512-10.287-56.003-28.965
		c-15.333-18.487-24.126-42.947-24.126-67.107v-9.595c0-19.787,13.287-46.686,18.33-56.181
		c71.946-8.221,120.102,11.646,131.034,16.762l10.721,25.262v23.801C336.063,244.296,327.299,268.749,312.018,287.212z
		 M198.903,88.093c0.58,0,1.145-0.065,1.69-0.183c2.198,0.468,4.578,0.019,6.509-1.447c21.571-16.384,52.864-10.101,83.127-4.023
		c16.195,3.252,31.687,6.362,46.087,6.362c1.994,0,3.967-0.06,5.919-0.188c2.411,13.547,4.358,42.711-1.064,78.784l-2.259-5.322
		c-0.704-1.658-1.945-3.029-3.525-3.894c-2.298-1.257-57.177-30.579-146.492-19.367c-2.619,0.133-5.121,1.543-6.531,3.983
		c-0.512,0.886-7.473,13.042-13.499,28.588c-2.735-14.816-5.242-31.478-5.242-42.779C163.624,100.621,181.342,88.093,198.903,88.093
		z"/>
	<path d="M393.884,349.856c-0.172-0.048-0.346-0.09-0.521-0.127l-47.598-9.956l-12.583-19.081c-0.088-0.135-0.182-0.267-0.278-0.396
		c-2.288-3.05-5.771-5.063-9.556-5.523c-3.784-0.459-7.649,0.661-10.601,3.076c-0.052,0.042-0.104,0.086-0.154,0.129L256,366.695
		l-56.594-48.716c-0.051-0.043-0.102-0.086-0.153-0.129c-2.952-2.415-6.817-3.536-10.601-3.077c-3.785,0.46-7.269,2.473-9.556,5.523
		c-0.097,0.129-0.19,0.261-0.278,0.396l-12.583,19.081l-47.598,9.956c-0.175,0.037-0.349,0.079-0.521,0.127
		c-13.84,3.877-25.614,12.458-34.05,24.815c-7.696,11.272-11.934,24.88-11.934,38.317v15.041c0,13.195,11.75,23.931,26.193,23.931
		h139.46c0.01,0,0.02,0.001,0.03,0.001c0.011,0,0.022-0.001,0.033-0.001h36.303c0.011,0,0.022,0.001,0.033,0.001
		c0.01,0,0.02-0.001,0.03-0.001h139.46c14.443,0,26.193-10.735,26.193-23.931v-15.041c0-13.438-4.238-27.045-11.934-38.317
		C419.499,362.315,407.724,353.734,393.884,349.856z M321.241,331.647l9.932,15.06l-39.749,54.654l-23.671-23.67L321.241,331.647z
		 M250.752,420.026h10.496l3.187,15.935h-16.87L250.752,420.026z M264,399.643c0,2.634-1.605,4.382-2.667,4.382h-10.667
		c-1.062,0-2.667-1.748-2.667-4.382v-3.079l8-8l8,8V399.643z M190.759,331.647l53.488,46.043l-23.671,23.67l-39.749-54.654
		L190.759,331.647z M88.131,428.029v-15.041c0-18.872,11.696-41.252,34.054-47.656l45.486-9.514l45.472,62.524
		c1.376,1.893,3.511,3.087,5.844,3.271c0.209,0.017,0.418,0.024,0.626,0.024c2.113,0,4.15-0.837,5.656-2.343l9.329-9.329
		c0.423,0.782,0.888,1.532,1.4,2.242l-4.75,23.752H98.325C92.799,435.96,88.131,432.328,88.131,428.029z M423.869,428.029
		c0,4.299-4.668,7.931-10.193,7.931H280.752l-4.75-23.752c0.512-0.71,0.977-1.46,1.4-2.242l9.329,9.329
		c1.506,1.506,3.543,2.343,5.656,2.343c0.208,0,0.417-0.008,0.626-0.024c2.333-0.183,4.468-1.378,5.844-3.271l45.472-62.524
		l45.486,9.514c22.358,6.404,34.054,28.784,34.054,47.656V428.029z"/>
	<path d="M64.165,235.079c0,19.437,6.614,37.677,18.623,51.361c12.189,13.889,28.467,21.538,45.834,21.538
		c13.021,0,25.557-4.346,36.254-12.567c3.503-2.692,4.16-7.715,1.467-11.218s-7.713-4.161-11.218-1.468
		c-7.875,6.053-17.04,9.253-26.503,9.253c-26.72,0-48.458-25.525-48.458-56.899v-4.702c0-12.644,5.229-29.382,7.969-37.288
		c17.266-1.53,32.684,0.734,45.276,2.594l1.427,0.21c0.396,0.058,0.788,0.086,1.176,0.086c3.902,0,7.319-2.859,7.904-6.836
		c0.644-4.371-2.378-8.436-6.749-9.08l-1.421-0.209c-14.702-2.172-32.995-4.872-54.363-2.136c-0.025,0.003-0.051,0.005-0.076,0.009
		c-0.003,0-0.006,0-0.009,0.001c-0.028,0.003-0.055,0.011-0.083,0.015c-0.229,0.032-0.457,0.071-0.682,0.123
		c-0.127,0.029-0.249,0.068-0.373,0.103c-0.123,0.035-0.246,0.065-0.367,0.105c-0.157,0.052-0.308,0.114-0.46,0.175
		c-0.085,0.035-0.172,0.065-0.257,0.103c-0.155,0.069-0.305,0.146-0.454,0.225c-0.08,0.042-0.161,0.08-0.24,0.125
		c-0.137,0.077-0.267,0.162-0.399,0.247c-0.089,0.058-0.179,0.112-0.266,0.173c-0.11,0.078-0.215,0.162-0.32,0.244
		c-0.102,0.08-0.205,0.157-0.303,0.242c-0.084,0.072-0.162,0.149-0.242,0.225c-0.111,0.104-0.222,0.207-0.327,0.317
		c-0.065,0.069-0.125,0.142-0.188,0.212c-0.109,0.124-0.219,0.246-0.321,0.377c-0.06,0.076-0.113,0.157-0.17,0.235
		c-0.093,0.129-0.188,0.257-0.274,0.393c-0.071,0.111-0.134,0.229-0.199,0.344c-0.061,0.108-0.126,0.212-0.183,0.324
		c-0.108,0.213-0.206,0.432-0.295,0.654c-0.008,0.019-0.017,0.037-0.025,0.056c0,0.001-0.002,0.006-0.003,0.007
		c-0.007,0.019-0.014,0.037-0.021,0.055c-0.139,0.357-0.716,1.852-1.539,4.187c-0.639-5.087-1.058-9.878-1.058-13.716
		c0-17.291,8.344-25.031,16.614-25.031c0.391,0,0.772-0.037,1.148-0.091c0.379,0.055,0.761,0.092,1.146,0.092
		c1.687,0,3.387-0.531,4.833-1.63c7.467-5.672,17.1-7.578,31.23-6.183c4.393,0.438,8.313-2.778,8.748-7.175
		c0.434-4.396-2.778-8.313-7.175-8.747c-10.842-1.071-26.535-1.355-40.191,7.742c-19.061,0.154-32.352,16.977-32.352,41.024
		c0,16.848,6.642,47.553,7.915,53.283V235.079z"/>
	<path d="M56,379.979H20.387c-2.511,0-4.387-1.502-4.387-2.846v-10.241c0-11.865,7.297-25.92,21.248-29.965l29.132-6.094
		l15.045,21.704c1.554,2.241,4.046,3.443,6.582,3.443c1.572,0,3.161-0.463,4.55-1.426c3.631-2.517,4.534-7.501,2.017-11.132
		L79.59,321.805l4.425-6.71l31.199,23.294c3.541,2.644,8.553,1.916,11.196-1.624c2.644-3.54,1.917-8.553-1.624-11.196
		l-34.243-25.566c-2.521-1.985-5.775-2.899-8.966-2.513c-3.264,0.396-6.268,2.132-8.241,4.763c-0.097,0.129-0.189,0.261-0.278,0.396
		l-7.988,12.113l-31.376,6.563c-0.175,0.037-0.349,0.079-0.521,0.127C11.395,327.552,0,348.929,0,366.892v10.241
		c0,10.392,9.146,18.846,20.387,18.846H56c4.418,0,8-3.582,8-8S60.418,379.979,56,379.979z"/>
	<path d="M375.84,131.977c11.762,0.235,24.766,2.34,37.343,4.375c9.502,1.537,18.604,2.996,26.508,3.504
		c-0.279,18.944-1.521,35.98-2.931,49.697c-0.016-0.012-0.033-0.022-0.049-0.034c-0.126-0.092-0.256-0.178-0.387-0.262
		c-0.061-0.039-0.115-0.083-0.177-0.12c-0.069-0.042-0.141-0.081-0.211-0.123c-0.009-0.005-0.018-0.011-0.028-0.016
		c-16.009-9.642-35.411-15.205-59.31-16.997c-4.41-0.334-8.245,2.974-8.576,7.379c-0.331,4.406,2.973,8.246,7.379,8.576
		c20.385,1.529,36.89,6.005,50.368,13.652c1.895,4.469,6.066,15.78,6.066,28.769v4.702c0,31.375-21.738,56.899-48.458,56.899
		c-9.463,0-18.627-3.2-26.503-9.253c-3.503-2.692-8.526-2.035-11.218,1.468s-2.036,8.525,1.467,11.218
		c10.697,8.222,23.233,12.567,36.254,12.567c17.368,0,33.646-7.649,45.834-21.538c12.009-13.685,18.623-31.925,18.623-51.361v-8.646
		c1.124-5.98,7.729-43.222,7.906-92.444c0.205-0.789,0.295-1.622,0.245-2.48c-0.251-4.269-3.81-7.551-8.035-7.52
		c-0.067-0.002-0.133-0.01-0.201-0.01c-0.155,0-0.306,0.015-0.459,0.023c-7.742,0.402-19.308-1.464-31.553-3.445
		c-12.511-2.024-26.691-4.319-39.578-4.576c-4.446-0.107-8.07,3.421-8.159,7.838C367.913,128.236,371.423,131.889,375.84,131.977z"
		/>
	<path d="M478.828,321.451c-0.172-0.048-0.346-0.09-0.521-0.127l-31.376-6.563l-7.988-12.113c-0.089-0.134-0.182-0.266-0.278-0.396
		c-1.973-2.631-4.977-4.367-8.241-4.763c-3.193-0.386-6.445,0.527-8.966,2.513l-34.243,25.566
		c-3.541,2.643-4.268,7.656-1.624,11.196c2.644,3.541,7.657,4.268,11.196,1.624l31.199-23.294l4.425,6.71l-14.985,21.616
		c-2.517,3.631-1.614,8.615,2.017,11.132c1.39,0.963,2.978,1.426,4.55,1.426c2.535,0,5.028-1.202,6.582-3.443l15.045-21.704
		l29.132,6.094c13.95,4.045,21.248,18.101,21.248,29.965v10.241c0,1.343-1.876,2.846-4.387,2.846H456c-4.418,0-8,3.582-8,8
		s3.582,8,8,8h35.613c11.241,0,20.387-8.454,20.387-18.846v-10.241C512,348.929,500.605,327.552,478.828,321.451z"/>
</g>
<g>
</g>
<g>
</g>
<g>
</g>
<g>
</g>
<g>
</g>
<g>
</g>
<g>
</g>
<g>
</g>
<g>
</g>
<g>
</g>
<g>
</g>
<g>
</g>
<g>
</g>
<g>
</g>
<g>
</g>
</svg>
