<?xml version="1.0" encoding="iso-8859-1"?>
<!-- Generator: Adobe Illustrator 17.1.0, SVG Export Plug-In . SVG Version: 6.00 Build 0)  -->
<!DOCTYPE svg PUBLIC "-//W3C//DTD SVG 1.1//EN" "http://www.w3.org/Graphics/SVG/1.1/DTD/svg11.dtd">
<svg version="1.1" id="Capa_1" xmlns="http://www.w3.org/2000/svg" xmlns:xlink="http://www.w3.org/1999/xlink" x="0px" y="0px"
	 viewBox="0 0 512 512" style="enable-background:new 0 0 512 512;" xml:space="preserve">
<path d="M327.953,439.136L288.228,73.663C293,69.275,295.998,62.984,296,56.005c0-0.003,0-0.005,0-0.008V24
	c0-13.233-10.767-24-24-24h-32c-13.233,0-24,10.767-24,24v7.998c0,0.001,0,0.003,0,0.005V56c0,6.981,2.998,13.273,7.772,17.663
	l-39.725,365.473c-0.262,2.409,0.583,4.808,2.296,6.521l64,64c1.562,1.562,3.609,2.343,5.657,2.343s4.095-0.781,5.657-2.343l64-64
	C327.371,443.943,328.215,441.545,327.953,439.136z M296,452.687l-87.79-87.79l1.703-15.67L304.687,444L296,452.687z M276,472.687
	l-70.343-70.343c-0.431-0.431-0.901-0.796-1.396-1.108l1.731-15.929L284.687,464L276,472.687z M237.202,16.515l42.283,42.283
	C278.347,61.832,275.426,64,272,64h-4.687L232,28.687V24C232,20.574,234.168,17.653,237.202,16.515z M244.687,64H240
	c-4.411,0-8-3.589-8-8v-4.687L244.687,64z M217.757,277.07l85.814,85.814l2.119,19.492l-89.636-89.636L217.757,277.07z
	 M281.299,157.986l-45.638-45.638l1.703-15.67l41.816,41.816L281.299,157.986z M284.059,183.372l2.119,19.492l-54.438-54.438
	l1.703-15.67L284.059,183.372z M288.937,228.25l2.119,19.492l-63.237-63.237l1.703-15.67L288.937,228.25z M293.815,273.128
	l2.119,19.492l-72.037-72.037l1.703-15.67L293.815,273.128z M298.693,318.006l2.119,19.492l-79.155-79.155
	c-0.525-0.525-1.107-0.953-1.723-1.302l1.744-16.05L298.693,318.006z M213.657,330.343c-0.478-0.478-1.005-0.874-1.56-1.205
	l1.738-15.99l92.508,92.508c0.614,0.614,1.303,1.102,2.037,1.475l2.187,20.123L213.657,330.343z M276.421,113.108L243.313,80H272
	c0.275,0,0.547-0.012,0.82-0.021L276.421,113.108z M280,24v12.687L259.313,16H272C276.411,16,280,19.589,280,24z M256,492.687
	l-55.633-55.633l1.703-15.67L264.687,484L256,492.687z"/>
<g>
</g>
<g>
</g>
<g>
</g>
<g>
</g>
<g>
</g>
<g>
</g>
<g>
</g>
<g>
</g>
<g>
</g>
<g>
</g>
<g>
</g>
<g>
</g>
<g>
</g>
<g>
</g>
<g>
</g>
</svg>
