<?xml version="1.0" encoding="iso-8859-1"?>
<!-- Generator: Adobe Illustrator 17.1.0, SVG Export Plug-In . SVG Version: 6.00 Build 0)  -->
<!DOCTYPE svg PUBLIC "-//W3C//DTD SVG 1.1//EN" "http://www.w3.org/Graphics/SVG/1.1/DTD/svg11.dtd">
<svg version="1.1" id="Capa_1" xmlns="http://www.w3.org/2000/svg" xmlns:xlink="http://www.w3.org/1999/xlink" x="0px" y="0px"
	 viewBox="0 0 512 512" style="enable-background:new 0 0 512 512;" xml:space="preserve">
<g>
	<path d="M144,128h360c4.418,0,8-3.582,8-8s-3.582-8-8-8H144c-4.418,0-8,3.582-8,8S139.582,128,144,128z"/>
	<path d="M8,128h32v8c0,22.056,17.944,40,40,40s40-17.944,40-40v-32c0-22.056-17.944-40-40-40c-14.172,0-27.43,7.654-34.599,19.977
		c-2.222,3.819-0.927,8.717,2.892,10.938c3.818,2.224,8.716,0.927,10.938-2.892C63.545,84.607,71.503,80,80,80
		c13.234,0,24,10.767,24,24v32c0,13.233-10.766,24-24,24s-24-10.767-24-24v-16c0-4.418-3.582-8-8-8h0h0H8c-4.418,0-8,3.582-8,8
		S3.582,128,8,128z"/>
	<path d="M504,248h-24c-4.418,0-8,3.582-8,8s3.582,8,8,8h24c4.418,0,8-3.582,8-8S508.418,248,504,248z"/>
	<path d="M8,264h368v8c0,22.056,17.944,40,40,40s40-17.944,40-40v-32c0-22.056-17.944-40-40-40c-14.172,0-27.43,7.654-34.599,19.977
		c-2.222,3.819-0.927,8.717,2.892,10.938c3.819,2.224,8.716,0.929,10.938-2.892C399.546,220.607,407.504,216,416,216
		c13.234,0,24,10.767,24,24v32c0,13.233-10.766,24-24,24s-24-10.767-24-24v-16c0-4.418-3.582-8-8-8h0h0H8c-4.418,0-8,3.582-8,8
		S3.582,264,8,264z"/>
	<path d="M504,384H320.002c-4.418,0-8,3.582-8,8s3.582,8,8,8H504c4.418,0,8-3.582,8-8S508.418,384,504,384z"/>
	<path d="M88,136v-32c0-4.418-3.582-8-8-8s-8,3.582-8,8v32c0,4.418,3.582,8,8,8S88,140.418,88,136z"/>
	<path d="M424,272v-32c0-4.418-3.582-8-8-8s-8,3.582-8,8v32c0,4.418,3.582,8,8,8S424,276.418,424,272z"/>
	<path d="M256,336c-14.172,0-27.43,7.654-34.599,19.977c-2.222,3.819-0.927,8.717,2.892,10.938s8.716,0.927,10.938-2.892
		C239.545,356.607,247.503,352,256,352c13.234,0,24,10.767,24,24v32c0,13.233-10.766,24-24,24s-24-10.767-24-24v-16
		c0-4.418-3.582-8-8-8h-0.001h-0.001H8c-4.418,0-8,3.582-8,8s3.582,8,8,8h208v8c0,22.056,17.944,40,40,40s40-17.944,40-40v-32
		C296,353.944,278.056,336,256,336z"/>
	<path d="M264,408v-32c0-4.418-3.582-8-8-8s-8,3.582-8,8v32c0,4.418,3.582,8,8,8S264,412.418,264,408z"/>
</g>
<g>
</g>
<g>
</g>
<g>
</g>
<g>
</g>
<g>
</g>
<g>
</g>
<g>
</g>
<g>
</g>
<g>
</g>
<g>
</g>
<g>
</g>
<g>
</g>
<g>
</g>
<g>
</g>
<g>
</g>
</svg>
