<?xml version="1.0" encoding="iso-8859-1"?>
<!-- Generator: Adobe Illustrator 17.1.0, SVG Export Plug-In . SVG Version: 6.00 Build 0)  -->
<!DOCTYPE svg PUBLIC "-//W3C//DTD SVG 1.1//EN" "http://www.w3.org/Graphics/SVG/1.1/DTD/svg11.dtd">
<svg version="1.1" id="Capa_1" xmlns="http://www.w3.org/2000/svg" xmlns:xlink="http://www.w3.org/1999/xlink" x="0px" y="0px"
	 viewBox="0 0 512 512" style="enable-background:new 0 0 512 512;" xml:space="preserve">
<g>
	<path d="M404.793,193.6c3.66-4.879,4.239-11.3,1.511-16.755c-2.728-5.456-8.211-8.845-14.311-8.845H135.992v-2.745
		c0-6.41,2.497-12.438,7.029-16.97l4.677-4.677c1.395,0.253,2.828,0.392,4.294,0.392c13.234,0,24-10.766,24-24s-10.766-24-24-24
		s-24,10.766-24,24c0,5.775,2.051,11.079,5.462,15.225l-1.746,1.746c-7.555,7.555-11.716,17.6-11.716,28.284V168
		c-6.094,0.005-11.571,3.393-14.296,8.844c-2.728,5.456-2.148,11.876,1.511,16.755l60.8,81.066V464h-16c-8.822,0-16,7.178-16,16v24
		c0,4.418,3.582,8,8,8h223.987c4.418,0,8-3.582,8-8v-24c0-8.822-7.178-16-16-16h-16V274.667L404.793,193.6z M151.992,112
		c4.411,0,8,3.589,8,8s-3.589,8-8,8s-8-3.589-8-8S147.581,112,151.992,112z M319.993,464c-4.418,0-8,3.582-8,8s3.582,8,8,8h40v16
		H152.007v-16h135.985c4.418,0,8-3.582,8-8s-3.582-8-8-8H184.007V232h103.987c4.418,0,8-3.582,8-8s-3.582-8-8-8H176.007
		c-4.418,0-8,3.582-8,8v24l-48-64h271.987l-48,64v-24c0-4.418-3.582-8-8-8h-16.005c-4.418,0-8,3.582-8,8s3.582,8,8,8h8.005v232
		H319.993z"/>
	<path d="M192.135,161.065c4.418,0,8-3.582,8-8v-17.328c0-5.404,6.203-15.738,15.928-15.738h12.727
		c3.988,3.971,12.606,12.61,19.273,19.304v12.434c0,4.418,3.582,8,8,8s8-3.582,8-8v-12.414c2.297-2.288,5.97-5.947,9.65-9.618
		c3.005-2.998,6.009-5.999,8.263-8.258c0.523-0.524,1.002-1.004,1.441-1.448h12.646c9.725,0,15.928,10.334,15.928,15.738v17.361
		c0,4.418,3.582,8,8,8s8-3.582,8-8v-17.361c0-6.964-3.244-14.758-8.678-20.847c-6.268-7.023-14.524-10.891-23.25-10.891h-16
		c-2.378,0-4.513,1.038-5.979,2.684c-1.216,1.264-10.147,10.18-17.999,18.003c-1.903-1.91-4.107-4.12-6.313-6.33
		c-2.997-3.003-5.997-6.007-8.256-8.261c-5.271-5.26-5.587-5.575-8.178-5.993c-0.422-0.068-0.848-0.102-1.275-0.102h-16
		c-8.726,0-16.982,3.868-23.25,10.891c-5.434,6.089-8.678,13.883-8.678,20.847v17.328
		C184.135,157.484,187.717,161.065,192.135,161.065z"/>
	<path d="M256.064,104c26.467,0,48-21.533,48-48v-7.927c0-0.006,0-0.012,0-0.018V8c0-4.418-3.582-8-8-8h-64
		c-13.234,0-24,10.766-24,24v32C208.064,82.467,229.596,104,256.064,104z M256.064,88c-17.645,0-32-14.355-32-32v-7.951l64,7.111V56
		C288.064,73.645,273.709,88,256.064,88z M232.064,16h56v23.062l-63.117-7.013c-0.297-0.033-0.591-0.046-0.883-0.046V24
		C224.064,19.589,227.653,16,232.064,16z"/>
</g>
<g>
</g>
<g>
</g>
<g>
</g>
<g>
</g>
<g>
</g>
<g>
</g>
<g>
</g>
<g>
</g>
<g>
</g>
<g>
</g>
<g>
</g>
<g>
</g>
<g>
</g>
<g>
</g>
<g>
</g>
</svg>
