<?xml version="1.0" encoding="iso-8859-1"?>
<!-- Generator: Adobe Illustrator 17.1.0, SVG Export Plug-In . SVG Version: 6.00 Build 0)  -->
<!DOCTYPE svg PUBLIC "-//W3C//DTD SVG 1.1//EN" "http://www.w3.org/Graphics/SVG/1.1/DTD/svg11.dtd">
<svg version="1.1" id="Capa_1" xmlns="http://www.w3.org/2000/svg" xmlns:xlink="http://www.w3.org/1999/xlink" x="0px" y="0px"
	 viewBox="0 0 512 512" style="enable-background:new 0 0 512 512;" xml:space="preserve">
<g>
	<path d="M400.001,103.994H416c4.418,0,8-3.582,8-8s-3.582-8-8-8h-15.999c-4.418,0-8,3.582-8,8S395.583,103.994,400.001,103.994z"/>
	<path d="M40,103.994h328c4.418,0,8-3.582,8-8s-3.582-8-8-8H40c-4.418,0-8,3.582-8,8S35.582,103.994,40,103.994z"/>
	<path d="M496,233.376V160V96c0-22.056-17.944-40-40-40H40C17.944,56,0,73.944,0,96v320c0,22.056,17.944,40,40,40h416
		c22.056,0,40-17.944,40-40v-73.362c9.311-3.303,16-12.195,16-22.624V256C512,245.571,505.311,236.679,496,233.376z M40,72h416
		c13.233,0,24,10.767,24,24v0.016c-6.69-5.034-15.002-8.022-24-8.022h-7.996c-4.418,0-8,3.582-8,8s3.582,8,8,8H456
		c13.234,0,24,10.767,24,24v0.028c-6.69-5.034-15.002-8.022-24-8.022H40c-13.234,0-24-10.767-24-24S26.767,72,40,72z M456,440H40
		c-13.234,0-24-10.767-24-24V127.978C22.69,133.012,31.002,136,40,136h416c13.233,0,24,10.767,24,24v72h-96
		c-17.645,0-32,14.355-32,32v48.015c0,17.645,14.355,32,32,32h96V416C480,429.233,469.234,440,456,440z M496,320.015
		c0,4.411-3.589,8-8,8H384c-8.822,0-16-7.178-16-16V264c0-8.822,7.178-16,16-16h103.884c0.039,0.001,0.077,0.006,0.116,0.006
		c0.02,0,0.038-0.003,0.058-0.003c4.384,0.032,7.942,3.605,7.942,7.997V320.015z"/>
	<path d="M432,280c-4.418,0-8,3.582-8,8c0,4.411-3.589,8-8,8s-8-3.589-8-8s3.589-8,8-8c4.418,0,8-3.582,8-8s-3.582-8-8-8
		c-13.234,0-24,10.767-24,24s10.766,24,24,24s24-10.767,24-24C440,283.582,436.418,280,432,280z"/>
</g>
<g>
</g>
<g>
</g>
<g>
</g>
<g>
</g>
<g>
</g>
<g>
</g>
<g>
</g>
<g>
</g>
<g>
</g>
<g>
</g>
<g>
</g>
<g>
</g>
<g>
</g>
<g>
</g>
<g>
</g>
</svg>
