<?xml version="1.0" encoding="iso-8859-1"?>
<!-- Generator: Adobe Illustrator 19.0.0, SVG Export Plug-In . SVG Version: 6.00 Build 0)  -->
<svg version="1.1" id="Capa_1" xmlns="http://www.w3.org/2000/svg" xmlns:xlink="http://www.w3.org/1999/xlink" x="0px" y="0px"
	 viewBox="0 0 512 512" style="enable-background:new 0 0 512 512;" xml:space="preserve">
<g>
	<g>
		<path d="M392.4,105.154H53.411c-3.932,0-7.12,3.188-7.12,7.12v40c0,1.75-0.694,3.426-1.932,4.663l-6.956,6.958
			c-1.236,1.236-1.932,2.914-1.932,4.662v34.268c0,3.642,2.953,6.595,6.595,6.595h11.344h43.692
			c0.668,7.591,7.034,13.547,14.799,13.547c7.765,0,14.13-5.956,14.799-13.547h147.643c0.668,7.591,7.034,13.547,14.799,13.547
			c7.765,0,14.13-5.956,14.799-13.547h1.952l85.958-12.705c4.406-0.651,7.669-4.432,7.669-8.886v-75.555
			C399.519,108.341,396.332,105.154,392.4,105.154z M78.741,192.163h-13.58c-1.895,0-3.431-1.535-3.431-3.431V125.84
			c0-1.894,1.535-3.431,3.431-3.431H78.74c1.895,0,3.43,1.536,3.43,3.431v62.892h0.001
			C82.171,190.627,80.636,192.163,78.741,192.163z M111.902,213.675c-3.079,0-5.575-2.496-5.575-5.574
			c0-3.079,2.496-5.575,5.575-5.575c3.079,0,5.574,2.496,5.574,5.575C117.477,211.179,114.981,213.675,111.902,213.675z
			 M158.452,144.81c0,1.894-1.535,3.429-3.429,3.429h-54.557c-1.894,0-3.429-1.535-3.429-3.429v-18.971
			c0-1.894,1.535-3.429,3.429-3.429h54.557c1.894,0,3.429,1.535,3.429,3.429V144.81z M232.479,144.81
			c0,1.894-1.535,3.429-3.429,3.429h-54.557c-1.894,0-3.429-1.535-3.429-3.429v-18.971c0-1.894,1.535-3.429,3.429-3.429h54.557
			c1.894,0,3.429,1.535,3.429,3.429V144.81z M289.143,213.675c-3.079,0-5.575-2.496-5.575-5.574c0-3.079,2.496-5.575,5.575-5.575
			c3.079,0,5.574,2.496,5.574,5.575C294.717,211.179,292.221,213.675,289.143,213.675z M306.506,144.81
			c0,1.894-1.535,3.429-3.429,3.429H248.52c-1.893,0-3.429-1.535-3.429-3.429v-18.971c0-1.894,1.535-3.429,3.429-3.429h54.557
			c1.894,0,3.429,1.535,3.429,3.429V144.81z M380.532,144.81c0,1.894-1.535,3.429-3.429,3.429h-54.557
			c-1.894,0-3.429-1.535-3.429-3.429v-18.971c0-1.894,1.535-3.429,3.429-3.429h54.557c1.894,0,3.429,1.535,3.429,3.429V144.81z"/>
	</g>
</g>
<g>
	<g>
		<path d="M504.498,142.819c4.144,0,7.502-3.358,7.502-7.502V74.21c0-6.895-5.609-12.503-12.503-12.503H12.503
			C5.609,61.707,0,67.315,0,74.21v259.758c0,4.144,3.358,7.502,7.502,7.502c4.144,0,7.502-3.358,7.502-7.502V76.711h407.07v358.578
			H15.004v-47.141c0-4.144-3.358-7.502-7.502-7.502c-4.144,0-7.502,3.358-7.502,7.502v49.641c0,6.895,5.609,12.503,12.503,12.503
			h486.993c6.895,0,12.503-5.609,12.503-12.503V189.512c0-4.144-3.358-7.502-7.502-7.502c-4.144,0-7.502,3.358-7.502,7.502v245.778
			h-59.918V76.711h59.918v58.606C496.996,139.46,500.355,142.819,504.498,142.819z"/>
	</g>
</g>
<g>
	<g>
		<path d="M234.002,334.839c-5.829,0-11.363,1.271-16.356,3.534l-20.55-29.882l2.792-12.951c0.09-0.418,0.135-0.834,0.153-1.247
			c4.781-0.902,8.734-4.547,9.864-9.38c1.092-4.671-0.473-10.011-13.332-10.011h-22.86c0,0-10.342,0-3.266,7.076
			c0,0,6.677,5.88,15.001,9.587c-0.089,0.265-0.167,0.535-0.227,0.814l-2.12,9.838l-78.282-4.498l0.62-2.269
			c0.927-3.391-0.624-6.972-3.733-8.612c-9.067-4.789-14.487-8.193-17.053-10.715c-0.932-0.915-1.255-1.4-1.329-1.852
			c3.644-0.866,14.311,1.273,23.227,4.771c3.855,1.519,8.211-0.378,9.73-4.231c1.518-3.855-0.377-8.211-4.231-9.73
			c-5.962-2.347-26.234-9.546-36.776-3.644c-3.587,2.009-5.954,5.336-6.666,9.372c-2.081,11.798,6.595,18.616,20.785,26.441
			l-10.711,39.147c-3.495-1.007-7.182-1.559-10.998-1.559c-21.925,0-39.763,17.838-39.763,39.763
			c0,21.925,17.838,39.763,39.763,39.763c21.926,0,39.764-17.838,39.764-39.763c0-12.627-5.925-23.891-15.132-31.18l2.893-10.578
			l56.27,37.534c-0.291,1.363-0.451,2.775-0.451,4.223c0,10.033,7.349,18.36,16.943,19.937l1.161,4.216
			c-3.32,0.773-5.796,3.744-5.796,7.3c0,4.144,3.358,7.502,7.502,7.502h13.654c4.144,0,7.502-3.358,7.502-7.502
			c0-4.094-3.28-7.415-7.355-7.495l-1.997-7.251c3.294-2.252,5.881-5.455,7.385-9.206h4.929
			c3.519,18.349,19.683,32.261,39.044,32.261c21.925,0,39.763-17.838,39.763-39.763
			C273.762,352.675,255.925,334.839,234.002,334.839z M92.443,374.602c0,13.652-11.107,24.759-24.76,24.759
			c-13.653,0-24.759-11.107-24.759-24.759c0-13.652,11.107-24.759,24.759-24.759c2.446,0,4.807,0.362,7.04,1.025l-3.291,12.03
			l-9.723,5.044c-3.678,1.908-5.111,6.437-3.204,10.114c1.335,2.573,3.953,4.049,6.665,4.049c1.164,0,2.345-0.271,3.449-0.845
			l12.637-6.557c1.857-0.964,3.229-2.661,3.781-4.68l2.709-9.904C90.698,364.196,92.443,369.197,92.443,374.602z M173.238,379.432
			c-0.523,0.03-1.05,0.112-1.575,0.257c-0.142,0.039-0.276,0.09-0.414,0.137c-2.876-0.005-5.215-2.347-5.215-5.224
			c-0.001-2.881,2.344-5.225,5.224-5.225s5.225,2.345,5.225,5.225C176.483,376.781,175.139,378.649,173.238,379.432z
			 M169.195,354.476c-3.447,0.351-6.638,1.575-9.356,3.442L99.381,317.59l1.388-5.076l78.636,4.518L169.195,354.476z M194.957,367.1
			h-4.929c-1.351-3.371-3.584-6.286-6.413-8.478l8.445-30.97l13.329,19.38C200.146,352.471,196.435,359.391,194.957,367.1z
			 M214.168,359.797l5.022,7.303h-8.783C211.253,364.444,212.534,361.98,214.168,359.797z M234.002,399.359
			c-11.038,0-20.409-7.261-23.593-17.257h23.046c2.786,0,5.343-1.544,6.64-4.01c1.297-2.466,1.12-5.448-0.458-7.743l-13.271-19.297
			c2.407-0.782,4.971-1.21,7.636-1.21c13.652,0,24.759,11.107,24.759,24.759C258.76,388.252,247.653,399.359,234.002,399.359z"/>
	</g>
</g>
<g>
</g>
<g>
</g>
<g>
</g>
<g>
</g>
<g>
</g>
<g>
</g>
<g>
</g>
<g>
</g>
<g>
</g>
<g>
</g>
<g>
</g>
<g>
</g>
<g>
</g>
<g>
</g>
<g>
</g>
</svg>
