<?xml version="1.0" encoding="iso-8859-1"?>
<!-- Generator: Adobe Illustrator 19.0.0, SVG Export Plug-In . SVG Version: 6.00 Build 0)  -->
<svg version="1.1" id="Capa_1" xmlns="http://www.w3.org/2000/svg" xmlns:xlink="http://www.w3.org/1999/xlink" x="0px" y="0px"
	 viewBox="0 0 512.001 512.001" style="enable-background:new 0 0 512.001 512.001;" xml:space="preserve">
<g>
	<g>
		<path d="M286.009,385.107H15.004V126.894h62.948c4.144,0,7.502-3.358,7.502-7.502s-3.358-7.502-7.502-7.502H12.503
			C5.609,111.89,0,117.498,0,124.393v263.214c0,6.895,5.609,12.503,12.503,12.503h273.505c4.144,0,7.502-3.358,7.502-7.502
			C293.511,388.465,290.152,385.107,286.009,385.107z"/>
	</g>
</g>
<g>
	<g>
		<path d="M499.497,111.89h-368.53c-4.144,0-7.502,3.358-7.502,7.502s3.358,7.502,7.502,7.502h232.122v258.213h-24.066
			c-4.144,0-7.502,3.358-7.502,7.502c0,4.144,3.358,7.502,7.502,7.502h160.475c6.895,0,12.503-5.609,12.503-12.503V124.393
			C512,117.499,506.391,111.89,499.497,111.89z M496.996,385.107L496.996,385.107H378.092V126.894h118.904V385.107z"/>
	</g>
</g>
<g>
	<g>
		<path d="M272.099,254.725c-6.614,0-12.883,1.492-18.498,4.15l-23.477-34.139l3.183-14.769c0.077-0.358,0.118-0.715,0.143-1.071
			c5.701-0.709,10.509-4.913,11.832-10.578c1.215-5.198-0.526-11.14-14.837-11.14h-25.439c0,0-11.509,0-3.634,7.874
			c0,0,7.847,6.914,17.469,11.009c-0.079,0.242-0.146,0.49-0.201,0.744l-2.512,11.655l-88.883-5.107l0.966-3.532
			c0.927-3.391-0.624-6.972-3.733-8.612c-10.306-5.442-16.219-9.164-19.175-12.068c-1.701-1.672-1.854-2.385-1.729-3.306
			c3.533-1.451,16.238,0.94,27.005,5.165c3.856,1.513,8.208-0.38,9.726-4.234c1.518-3.855-0.377-8.21-4.232-9.729
			c-6.546-2.577-28.797-10.49-40.201-4.104c-3.766,2.108-6.251,5.603-6.998,9.838c-2.251,12.758,7.475,20.19,23.289,28.857
			l-12.318,45.034c-4.056-1.257-8.365-1.937-12.83-1.937c-23.933,0-43.405,19.471-43.405,43.404s19.471,43.404,43.405,43.404
			c23.932,0,43.404-19.471,43.404-43.404c0-13.985-6.655-26.437-16.957-34.38l3.677-13.445l64.08,42.743
			c-0.394,1.631-0.608,3.332-0.608,5.082c0,10.935,8.144,19.997,18.684,21.455l1.678,6.095c-3.75,0.416-6.666,3.592-6.666,7.453
			c0,4.144,3.358,7.502,7.502,7.502h15.194c4.144,0,7.502-3.358,7.502-7.502c0-4.144-3.358-7.502-7.502-7.502h-0.482l-2.555-9.276
			c3.926-2.528,6.989-6.283,8.633-10.723h6.758c3.566,20.368,21.368,35.902,42.741,35.902c23.934,0,43.405-19.471,43.405-43.404
			S296.032,254.725,272.099,254.725z M115.413,298.128c0,15.659-12.739,28.4-28.4,28.4c-15.66,0-28.401-12.739-28.401-28.4
			s12.74-28.4,28.401-28.4c3.096,0,6.074,0.505,8.865,1.424l-3.974,14.531l-11.149,5.785c-3.678,1.908-5.111,6.437-3.204,10.114
			c1.335,2.574,3.953,4.049,6.665,4.049c1.164,0,2.346-0.271,3.449-0.845l14.064-7.297c1.858-0.964,3.23-2.661,3.781-4.68
			l3.465-12.666C112.996,285.046,115.413,291.31,115.413,298.128z M204.64,304.348c-0.56,0.023-1.125,0.102-1.689,0.258
			c-0.183,0.05-0.358,0.114-0.534,0.177c-0.047,0.001-0.093,0.007-0.141,0.007c-3.673,0-6.661-2.988-6.661-6.661
			s2.989-6.662,6.662-6.662c3.673,0,6.661,2.988,6.661,6.661C208.937,300.968,207.147,303.392,204.64,304.348z M200.639,276.532
			c-4.11,0.309-7.903,1.766-11.058,4.057l-68.271-45.538l1.887-6.902l89.237,5.128L200.639,276.532z M250.074,280.226l7.153,10.401
			h-12.513C245.77,286.772,247.617,283.242,250.074,280.226z M229.358,290.626H222.6c-1.488-4.018-4.136-7.476-7.535-9.971
			l10.025-36.76l16.255,23.637C235.209,273.701,230.921,281.7,229.358,290.626z M272.099,326.527
			c-13.063,0-24.087-8.867-27.386-20.898h26.777c2.786,0,5.343-1.544,6.64-4.01c1.297-2.466,1.12-5.448-0.458-7.743l-15.4-22.393
			c3.064-1.133,6.374-1.755,9.827-1.755c15.659,0,28.401,12.739,28.401,28.4S287.759,326.527,272.099,326.527z"/>
	</g>
</g>
<g>
</g>
<g>
</g>
<g>
</g>
<g>
</g>
<g>
</g>
<g>
</g>
<g>
</g>
<g>
</g>
<g>
</g>
<g>
</g>
<g>
</g>
<g>
</g>
<g>
</g>
<g>
</g>
<g>
</g>
</svg>
