<?xml version="1.0" encoding="iso-8859-1"?>
<!-- Generator: Adobe Illustrator 19.0.0, SVG Export Plug-In . SVG Version: 6.00 Build 0)  -->
<svg version="1.1" id="Capa_1" xmlns="http://www.w3.org/2000/svg" xmlns:xlink="http://www.w3.org/1999/xlink" x="0px" y="0px"
	 viewBox="0 0 512 512" style="enable-background:new 0 0 512 512;" xml:space="preserve">
<g>
	<g>
		<path d="M433.989,226.018l-12.278-42.515c-0.424-1.467-1.767-2.477-3.294-2.477H298.981c-0.677,0-1.339-0.201-1.902-0.576
			l-5.326-3.551c-0.563-0.376-1.225-0.576-1.902-0.576h-23.263l28.777-19.67c1.319-0.902,1.374-2.828,0.109-3.803l-30.139-23.232
			v-11.53c0-1.817-1.472-3.29-3.29-3.29H249.98c-1.817,0-3.29,1.474-3.29,3.29v11.53l-30.139,23.232
			c-1.266,0.976-1.211,2.902,0.109,3.804l28.777,19.67h-23.263c-0.677,0-1.339,0.201-1.902,0.576l-5.326,3.551
			c-0.563,0.376-1.225,0.576-1.902,0.576H93.607c-1.527,0-2.87,1.011-3.294,2.477l-12.278,42.514
			c-0.089,0.31-0.135,0.63-0.135,0.952v49.578c0,1.893,1.536,3.429,3.429,3.429h24.297c1.893,0,3.429,1.536,3.429,3.429
			s1.535,3.429,3.429,3.429h8.348c0.21,8.258,6.956,14.892,15.264,14.892c8.308,0,15.054-6.634,15.264-14.892h11.795
			c0.21,8.258,6.955,14.892,15.264,14.892c8.308,0,15.054-6.634,15.264-14.892h62.329h0.001h62.329
			c0.21,8.258,6.956,14.892,15.264,14.892s15.054-6.634,15.264-14.892h11.796c0.21,8.258,6.955,14.892,15.264,14.892
			c8.308,0,15.054-6.634,15.264-14.892h8.347c1.893,0,3.429-1.536,3.429-3.429v-0.588c0-1.893,1.536-3.429,3.429-3.429h24.297
			c1.893,0,3.429-1.536,3.429-3.429v-48.99C434.124,226.647,434.078,226.327,433.989,226.018z M119.048,222.37
			c0,1.947-1.579,3.527-3.527,3.527H95.501c-2.341,0-4.033-2.239-3.393-4.492l6.518-22.926c0.431-1.516,1.816-2.563,3.393-2.563
			h13.502c1.948,0,3.527,1.579,3.527,3.527V222.37z M136.096,292.174c-3.165,0-5.731-2.566-5.731-5.731
			c0-3.165,2.566-5.731,5.731-5.731c3.165,0,5.731,2.566,5.731,5.731C141.827,289.609,139.261,292.174,136.096,292.174z
			 M149.933,264.105c0,1.948-1.58,3.527-3.527,3.527h-13.961c-1.947,0-3.527-1.579-3.527-3.527v-64.661
			c0-1.947,1.58-3.527,3.527-3.527h13.961c1.947,0,3.527,1.579,3.527,3.527V264.105z M159.486,267.633
			c-1.948,0-3.527-1.579-3.527-3.527v-64.661c0-1.947,1.579-3.527,3.527-3.527h13.96c1.948,0,3.527,1.579,3.527,3.527v64.661
			c0,1.948-1.579,3.527-3.527,3.527H159.486z M178.418,292.174c-3.165,0-5.731-2.566-5.731-5.731c0-3.165,2.566-5.731,5.731-5.731
			c3.165,0,5.731,2.566,5.731,5.731C184.149,289.609,181.583,292.174,178.418,292.174z M227.147,155.813
			c-1.301-0.922-1.327-2.843-0.052-3.8l27.506-20.629c0.836-0.627,1.985-0.627,2.821,0l27.506,20.629
			c1.276,0.957,1.25,2.878-0.052,3.8l-27.506,19.484c-0.815,0.577-1.904,0.577-2.718,0L227.147,155.813z M234.556,220.018
			c0,3.247-2.632,5.878-5.878,5.878h-18.223c-3.247,0-5.878-2.631-5.878-5.878v-18.223c0-3.247,2.632-5.878,5.878-5.878h18.223
			c3.247,0,5.878,2.632,5.878,5.878V220.018z M271.001,220.018c0,3.247-2.632,5.878-5.878,5.878H246.9
			c-3.247,0-5.878-2.631-5.878-5.878v-18.223c0-3.247,2.632-5.878,5.878-5.878h18.223c3.247,0,5.878,2.632,5.878,5.878V220.018z
			 M307.447,220.018c0,3.247-2.632,5.878-5.878,5.878h-18.223c-3.247,0-5.878-2.631-5.878-5.878v-18.223
			c0-3.247,2.632-5.878,5.878-5.878h18.223c3.247,0,5.878,2.632,5.878,5.878V220.018z M333.606,292.174
			c-3.165,0-5.731-2.566-5.731-5.731c0-3.165,2.566-5.731,5.731-5.731s5.731,2.566,5.731,5.731
			C339.337,289.609,336.771,292.174,333.606,292.174z M356.065,264.105c0,1.948-1.579,3.527-3.527,3.527h-13.96
			c-1.948,0-3.527-1.579-3.527-3.527v-64.661c0-1.947,1.579-3.527,3.527-3.527h13.96c1.948,0,3.527,1.579,3.527,3.527V264.105z
			 M375.929,292.174c-3.165,0-5.731-2.566-5.731-5.731c0-3.165,2.566-5.731,5.731-5.731c3.165,0,5.731,2.566,5.731,5.731
			C381.66,289.609,379.095,292.174,375.929,292.174z M383.106,264.105c0,1.948-1.579,3.527-3.527,3.527h-13.961
			c-1.947,0-3.527-1.579-3.527-3.527v-64.661c0-1.947,1.579-3.527,3.527-3.527h13.961c1.947,0,3.527,1.579,3.527,3.527V264.105z
			 M416.523,225.896h-20.019c-1.948,0-3.527-1.579-3.527-3.527v-22.926c0-1.947,1.579-3.527,3.527-3.527h13.502
			c1.576,0,2.961,1.047,3.393,2.563l6.518,22.925C420.555,223.657,418.864,225.896,416.523,225.896z"/>
	</g>
</g>
<g>
	<g>
		<path d="M140.41,47.432h-26.582c-1.538,0-2.241,1.6-2.241,3.074c0,1.665,0.833,3.139,2.241,3.139h9.929v38.366
			c0,1.473,1.665,2.241,3.395,2.241c1.666,0,3.395-0.768,3.395-2.241V53.645h9.864c1.473,0,2.241-1.538,2.241-3.203
			C142.651,48.968,141.947,47.432,140.41,47.432z"/>
	</g>
</g>
<g>
	<g>
		<path d="M180.055,90.026l-8.967-16.846c5.124-1.283,9.031-5.061,9.031-12.683c0-9.928-6.662-13.066-14.731-13.066h-12.17
			c-1.346,0-2.242,1.025-2.242,2.177v42.403c0,1.473,1.665,2.241,3.331,2.241c1.73,0,3.395-0.768,3.395-2.241v-17.87h6.47
			l9.351,18.318c0.64,1.217,1.537,1.985,2.69,1.985c1.921,0,4.1-1.73,4.1-3.459C180.312,90.729,180.247,90.346,180.055,90.026z
			 M157.7,68.697V53.453h7.686c4.802,0,7.941,2.049,7.941,7.622c0,5.572-3.138,7.622-7.941,7.622H157.7z"/>
	</g>
</g>
<g>
	<g>
		<path d="M220.788,90.858l-12.683-41.505c-0.511-1.537-2.433-2.306-4.355-2.306c-1.921,0-3.779,0.769-4.292,2.306l-12.746,41.505
			c-0.064,0.192-0.064,0.384-0.064,0.576c0,1.665,2.37,2.818,4.227,2.818c1.153,0,2.05-0.385,2.37-1.409l2.626-9.096h15.821
			l2.626,9.096c0.321,1.024,1.217,1.409,2.305,1.409c1.922,0,4.292-1.217,4.292-2.818C220.915,91.242,220.851,91.05,220.788,90.858z
			 M197.346,78.303l6.405-21.97l6.405,21.97H197.346z"/>
	</g>
</g>
<g>
	<g>
		<path d="M261.329,47.432c-2.433,0-3.714,0.832-5.315,3.843l-9.096,16.973l-8.967-16.973c-1.601-3.011-2.946-3.843-5.38-3.843
			c-1.729,0-3.395,0.897-3.395,3.395v41.186c0,1.473,1.729,2.241,3.395,2.241c1.729,0,3.395-0.768,3.395-2.241V60.883l8.583,16.268
			c0.577,1.153,1.474,1.538,2.306,1.538c0.896,0,1.793-0.385,2.497-1.538l8.582-15.885v30.745c0,1.473,1.729,2.241,3.395,2.241
			c1.73,0,3.395-0.768,3.395-2.241V50.826C264.724,48.327,263.123,47.432,261.329,47.432z"/>
	</g>
</g>
<g>
	<g>
		<path d="M321.279,47.432c-1.089,0-2.113,0.448-2.369,1.409l-10.44,36.509l-5.829-22.931c-0.385-1.409-1.793-1.985-3.331-1.985
			c-1.665,0-3.075,0.577-3.395,1.985l-5.765,22.931L279.645,48.84c-0.256-0.961-1.281-1.409-2.369-1.409
			c-1.922,0-4.228,1.153-4.228,2.754c0,0.256,0,0.449,0.063,0.641l12.746,41.504c0.449,1.536,2.37,2.306,4.292,2.306
			c1.922,0,3.907-0.77,4.292-2.306l4.867-19.344l4.868,19.344c0.384,1.536,2.37,2.306,4.228,2.306c1.857,0,3.842-0.77,4.355-2.306
			l12.684-41.504c0.064-0.193,0.064-0.385,0.064-0.641C325.506,48.584,323.201,47.432,321.279,47.432z"/>
	</g>
</g>
<g>
	<g>
		<path d="M362.202,90.858L349.52,49.353c-0.512-1.537-2.433-2.306-4.356-2.306c-1.921,0-3.779,0.769-4.292,2.306l-12.746,41.505
			c-0.063,0.192-0.063,0.384-0.063,0.576c0,1.665,2.369,2.818,4.227,2.818c1.153,0,2.049-0.385,2.369-1.409l2.626-9.096h15.821
			l2.626,9.096c0.321,1.024,1.217,1.409,2.306,1.409c1.921,0,4.292-1.217,4.292-2.818C362.331,91.242,362.266,91.05,362.202,90.858z
			 M338.761,78.303l6.405-21.97l6.405,21.97H338.761z"/>
	</g>
</g>
<g>
	<g>
		<path d="M393.073,47.433c-1.089,0-1.729,0.512-2.241,1.536l-10.505,20.304l-10.569-20.304c-0.576-1.025-1.153-1.536-2.241-1.536
			c-1.793,0-4.292,1.153-4.292,2.817c0,0.257,0.065,0.577,0.256,0.962l13.259,23.89c0.064,0.192,0.192,0.448,0.192,0.705v16.205
			c0,1.473,1.665,2.241,3.395,2.241c1.665,0,3.395-0.768,3.395-2.241V75.806c0-0.257,0.065-0.513,0.128-0.705l13.259-23.89
			c0.192-0.385,0.192-0.705,0.192-0.962C397.301,48.585,394.867,47.433,393.073,47.433z"/>
	</g>
</g>
<g>
	<g>
		<path d="M123.565,374.957h-16.653v-38.623c0-1.536-1.665-2.177-3.395-2.177c-1.666,0-3.395,0.641-3.395,2.177v42.402
			c0,1.473,1.538,2.241,3.011,2.241v0.001h20.431c1.346,0,2.049-1.538,2.049-3.011C125.615,376.43,124.911,374.957,123.565,374.957z
			"/>
	</g>
</g>
<g>
	<g>
		<path d="M147.007,334.155c-8.135,0-14.348,3.907-14.348,14.282v18.64c0,10.376,6.213,14.283,14.348,14.283
			c8.069,0,14.411-3.908,14.411-14.283v-18.64C161.418,338.062,155.076,334.155,147.007,334.155z M154.628,367.078
			c0,5.636-2.882,8.262-7.622,8.262c-4.804,0-7.559-2.626-7.559-8.262v-18.64c0-5.636,2.754-8.262,7.559-8.262
			c4.739,0,7.622,2.626,7.622,8.262V367.078z"/>
	</g>
</g>
<g>
	<g>
		<path d="M186.46,334.155c-8.135,0-14.348,3.907-14.348,14.282v18.64c0,10.376,6.213,14.283,14.348,14.283
			c8.069,0,14.411-3.908,14.411-14.283v-18.64C200.871,338.062,194.529,334.155,186.46,334.155z M194.081,367.078
			c0,5.636-2.882,8.262-7.622,8.262c-4.804,0-7.559-2.626-7.559-8.262v-18.64c0-5.636,2.754-8.262,7.559-8.262
			c4.74,0,7.622,2.626,7.622,8.262V367.078z"/>
	</g>
</g>
<g>
	<g>
		<path d="M242.052,376.621l-14.603-22.226l12.298-15.372c0.384-0.449,0.513-1.026,0.513-1.346c0-1.728-2.178-3.522-3.907-3.522
			c-0.77,0-1.474,0.256-1.922,0.961l-15.628,20.688v-19.473c0-1.536-1.665-2.177-3.395-2.177c-1.666,0-3.395,0.641-3.395,2.177
			h-0.001v42.403c0,1.473,1.729,2.241,3.395,2.241c1.729,0,3.395-0.768,3.395-2.241v-13.388l4.163-5.252l13.066,19.793
			c0.578,0.896,1.474,1.281,2.435,1.281c1.921,0,3.971-1.665,3.971-3.331C242.435,377.39,242.307,377.005,242.052,376.621z"/>
	</g>
</g>
<g>
	<g>
		<path d="M288.037,355.613c3.331-1.474,5.444-5.06,5.444-10.377c0-9.031-6.085-11.08-12.938-11.08h-11.657
			c-1.538,0-3.011,0.768-3.011,2.241v42.401c0,1.154,1.154,2.178,3.011,2.178h13.003c7.174,0,12.746-3.523,12.746-13.451v-1.218
			C294.634,359.776,292.008,357.15,288.037,355.613z M272.601,340.176h7.494c4.036,0,6.598,1.857,6.598,6.148
			c0,4.357-2.114,6.598-6.469,6.598h-7.622V340.176z M287.844,367.013c0,5.508-2.689,7.942-7.238,7.942v0.001H272.6v-16.654h8.006
			c4.549,0,7.238,2.049,7.238,7.685V367.013z"/>
	</g>
</g>
<g>
	<g>
		<path d="M318.395,334.155c-8.134,0-14.347,3.907-14.347,14.282v18.64c0,10.376,6.212,14.283,14.347,14.283
			c8.07,0,14.412-3.908,14.412-14.283v-18.64C332.807,338.062,326.465,334.155,318.395,334.155z M326.016,367.078
			c0,5.636-2.882,8.262-7.622,8.262c-4.803,0-7.558-2.626-7.558-8.262v-18.64c0-5.636,2.754-8.262,7.558-8.262
			c4.74,0,7.622,2.626,7.622,8.262V367.078z"/>
	</g>
</g>
<g>
	<g>
		<path d="M368.609,334.156h-26.581c-1.537,0-2.241,1.6-2.241,3.074c0,1.666,0.832,3.139,2.241,3.139h9.928v38.366
			c0,1.473,1.665,2.241,3.395,2.241c1.665,0,3.395-0.768,3.395-2.241v-38.366h9.864c1.473,0,2.241-1.538,2.241-3.203
			C370.851,335.693,370.146,334.156,368.609,334.156z"/>
	</g>
</g>
<g>
	<g>
		<path d="M405.307,334.156c-1.666,0-3.395,0.641-3.395,2.177v17.678h-15.949v-17.678c0-1.536-1.667-2.177-3.395-2.177
			c-1.665,0-3.395,0.641-3.395,2.177v42.402c0,1.473,1.729,2.241,3.395,2.241c1.729,0,3.395-0.768,3.395-2.241v-19.344h15.949
			v19.344c0,1.473,1.729,2.241,3.395,2.241c1.729,0,3.395-0.768,3.395-2.241v-42.402
			C408.702,334.797,407.036,334.156,405.307,334.156z"/>
	</g>
</g>
<g>
	<g>
		<path d="M222.744,411.012c-1.09,0-2.113,0.448-2.37,1.409l-10.44,36.509l-5.829-22.93c-0.384-1.409-1.793-1.985-3.33-1.985
			c-1.665,0-3.075,0.577-3.395,1.985l-5.765,22.93l-10.504-36.509c-0.257-0.961-1.282-1.409-2.37-1.409
			c-1.921,0-4.228,1.153-4.228,2.754c0,0.256,0,0.449,0.063,0.641l12.747,41.505c0.448,1.537,2.369,2.306,4.291,2.306
			c1.922,0,3.908-0.77,4.292-2.306l4.868-19.344l4.867,19.344c0.385,1.537,2.37,2.306,4.228,2.306c1.857,0,3.843-0.77,4.356-2.306
			l12.683-41.505c0.064-0.193,0.064-0.385,0.064-0.641C226.971,412.165,224.665,411.012,222.744,411.012z"/>
	</g>
</g>
<g>
	<g>
		<path d="M263.668,454.439l-12.683-41.505c-0.511-1.537-2.433-2.306-4.355-2.306c-1.921,0-3.779,0.769-4.292,2.306l-12.746,41.505
			c-0.064,0.192-0.064,0.384-0.064,0.576c0,1.665,2.37,2.818,4.227,2.818c1.153,0,2.05-0.385,2.37-1.409l2.626-9.096h15.821
			l2.625,9.096c0.321,1.024,1.218,1.409,2.306,1.409c1.922,0,4.292-1.217,4.292-2.818
			C263.795,454.823,263.73,454.631,263.668,454.439z M240.225,441.884l6.405-21.97l6.405,21.97H240.225z"/>
	</g>
</g>
<g>
	<g>
		<path d="M294.537,411.013c-1.089,0-1.729,0.512-2.241,1.536l-10.505,20.304l-10.569-20.304c-0.576-1.025-1.153-1.536-2.241-1.536
			c-1.793,0-4.292,1.153-4.292,2.817c0,0.257,0.065,0.577,0.256,0.962l13.26,23.89c0.063,0.192,0.191,0.448,0.191,0.705v16.205
			c0,1.472,1.665,2.241,3.395,2.241c1.665,0,3.395-0.768,3.395-2.241v-16.205c0-0.257,0.065-0.513,0.128-0.705l13.259-23.89
			c0.192-0.385,0.192-0.705,0.192-0.962C298.765,412.166,296.331,411.013,294.537,411.013z"/>
	</g>
</g>
<g>
	<g>
		<path d="M312.215,422.476c0-4.036,3.331-5.829,8.006-5.829c5.445,0,7.111,2.434,8.84,2.434c1.921,0,2.817-2.369,2.817-3.65
			c0-3.523-7.494-4.612-11.657-4.612c-6.854,0-14.795,2.819-14.795,12.298c0,15.372,20.816,10.952,20.816,22.29
			c0,4.612-3.459,6.789-8.07,6.787c-7.11,0-8.646-5.06-10.952-5.06c-1.602,0-2.946,2.113-2.946,3.651
			c0,3.203,5.828,7.559,14.154,7.559c8.455,0,14.603-4.484,14.603-13.643C333.031,427.664,312.215,431.955,312.215,422.476z"/>
	</g>
</g>
<g>
	<g>
		<path d="M372.312,497.005H15.467V113.213c0-4.142-3.446-7.498-7.698-7.498c-4.252,0-7.698,3.356-7.698,7.498v386.291
			c0,6.891,5.755,12.496,12.829,12.496h359.411c4.251,0,7.697-3.356,7.697-7.498S376.564,497.005,372.312,497.005z"/>
	</g>
</g>
<g>
	<g>
		<path d="M499.1,0H12.901C5.828,0,0.072,5.605,0.072,12.496V58.65c0,4.142,3.446,7.498,7.698,7.498
			c4.252,0,7.697-3.356,7.697-7.498V14.995h481.068v481.177h-68.804c-4.252,0-7.697,3.356-7.697,7.498s3.446,7.498,7.697,7.498
			H499.1c7.074,0,12.829-5.605,12.829-12.496V12.496C511.928,5.605,506.173,0,499.1,0z"/>
	</g>
</g>
<g>
</g>
<g>
</g>
<g>
</g>
<g>
</g>
<g>
</g>
<g>
</g>
<g>
</g>
<g>
</g>
<g>
</g>
<g>
</g>
<g>
</g>
<g>
</g>
<g>
</g>
<g>
</g>
<g>
</g>
</svg>
