<?xml version="1.0" encoding="iso-8859-1"?>
<!-- Generator: Adobe Illustrator 19.0.0, SVG Export Plug-In . SVG Version: 6.00 Build 0)  -->
<svg version="1.1" id="Capa_1" xmlns="http://www.w3.org/2000/svg" xmlns:xlink="http://www.w3.org/1999/xlink" x="0px" y="0px"
	 viewBox="0 0 512 512" style="enable-background:new 0 0 512 512;" xml:space="preserve">
<g>
	<g>
		<path d="M478.642,129.555c-21.16-37.18-51.576-68.752-87.96-91.302c-3.519-2.18-8.139-1.095-10.319,2.422
			c-2.18,3.518-1.096,8.137,2.422,10.319C454.31,95.324,497.01,171.961,497.01,256.001c0,132.894-108.117,241.01-241.01,241.01
			S14.99,388.894,14.99,256.001C14.99,123.106,123.106,14.99,256,14.99c27.177,0,53.846,4.487,79.264,13.337
			c3.909,1.361,8.181-0.705,9.542-4.614c1.361-3.909-0.705-8.182-4.614-9.542C313.185,4.768,284.858,0,256,0
			C187.62,0,123.333,26.628,74.981,74.981C26.629,123.333,0,187.622,0,256.001s26.628,132.667,74.981,181.018
			C123.333,485.372,187.62,512,256,512s132.668-26.628,181.019-74.98C485.371,388.669,512,324.381,512,256.001
			C512,211.624,500.465,167.899,478.642,129.555z"/>
	</g>
</g>
<g>
	<g>
		<path d="M384.018,257.121c-9.577,0-18.605,2.379-26.542,6.559l-34.605-50.32l3.216-14.918c0.588,0.027,1.174,0.049,1.761,0.049
			c0.435,0,0.872-0.008,1.306-0.023c12.032-0.436,22.339-8.888,25.066-20.553c1.83-7.828-0.622-13.046-3.001-16.045
			c-4.572-5.765-12.691-8.566-24.821-8.566h-35.193c-2.871,0-12.476,0.574-15.536,7.961c-2.044,4.935-0.292,10.225,5.209,15.726
			c0.111,0.11,0.226,0.219,0.344,0.322c0.751,0.663,14.114,12.308,30.197,18.04l-2.53,11.739l-128.972-7.412l2.275-8.32
			c0.926-3.388-0.624-6.964-3.729-8.604c-29.474-15.565-31.152-20.16-30.307-24.951c0.101-0.572,0.22-0.787,0.81-1.119
			c5.915-3.318,25.54,0.903,40.333,6.713c3.85,1.516,8.202-0.378,9.719-4.227c1.517-3.851-0.377-8.203-4.228-9.72
			c-6.235-2.455-38.099-14.274-53.148-5.845c-4.503,2.521-7.356,6.53-8.248,11.593c-2.697,15.282,7.445,24.216,32.762,37.971
			l-18.451,67.457c-6.15-2.267-12.793-3.509-19.72-3.509c-31.517,0-57.158,25.64-57.158,57.157s25.641,57.158,57.158,57.158
			s57.158-25.641,57.158-57.158c0-19.106-9.431-36.039-23.873-46.423l6.661-24.352l93.707,62.506
			c-0.838,2.608-1.296,5.386-1.296,8.269c0,14.307,11.152,26.052,25.219,27.015l3.831,13.909h-2.607
			c-4.139,0-7.495,3.355-7.495,7.495c0,4.14,3.356,7.495,7.495,7.495h21.018c4.139,0,7.495-3.355,7.495-7.495
			c0-4.14-3.356-7.495-7.495-7.495h-3.029c-0.032-0.507-0.115-1.017-0.255-1.525l-4.28-15.541
			c6.349-3.423,11.177-9.307,13.213-16.364h13.914c3.683,27.986,27.676,49.663,56.651,49.663c31.517,0,57.158-25.641,57.158-57.158
			S415.535,257.121,384.018,257.121z M170.153,314.279c0,23.253-18.917,42.169-42.169,42.169s-42.169-18.917-42.169-42.169
			c0-23.252,18.917-42.168,42.169-42.168c5.564,0,10.875,1.093,15.743,3.061l-6.529,23.872l-16.541,8.583
			c-3.674,1.906-5.107,6.431-3.201,10.104c1.334,2.571,3.949,4.045,6.659,4.045c1.162,0,2.342-0.271,3.446-0.844l19.453-10.094
			c1.856-0.963,3.226-2.658,3.777-4.676l6.153-22.492C165.069,291.36,170.153,302.234,170.153,314.279z M368.926,306.784H342.53
			c1.522-8.445,5.561-16.022,11.318-21.925L368.926,306.784z M293.835,168.294h32.563c10.264,0,12.694,2.409,13.077,2.892
			c0.59,0.743,0.407,2.215,0.148,3.318c-1.191,5.099-5.72,8.794-11.012,8.985C316.45,183.927,301.279,174.117,293.835,168.294z
			 M291.232,325.753c-0.695-0.01-1.402,0.071-2.106,0.265c-0.311,0.086-0.609,0.196-0.898,0.317c-0.266,0.018-0.531,0.041-0.8,0.041
			c-6.669,0-12.097-5.427-12.097-12.098s5.427-12.097,12.098-12.097s12.097,5.427,12.097,12.097
			C299.525,319.619,296.042,324.155,291.232,325.753z M287.392,287.193c-6.62,0.009-12.689,2.408-17.395,6.375l-97.899-65.303
			l3.775-13.802l129.325,7.432L287.392,287.193z M327.366,306.784h-13.914c-1.866-6.466-6.077-11.944-11.652-15.448l16.043-58.832
			l27.394,39.835C335.679,281.183,329.149,293.244,327.366,306.784z M384.018,356.447c-20.694,0-37.94-14.987-41.488-34.674h40.646
			c2.783,0,5.337-1.543,6.633-4.006c1.296-2.463,1.119-5.442-0.458-7.736l-23.306-33.889c5.455-2.581,11.547-4.032,17.972-4.032
			c23.252,0,42.169,18.917,42.169,42.168C426.186,337.531,407.27,356.447,384.018,356.447z"/>
	</g>
</g>
<g>
</g>
<g>
</g>
<g>
</g>
<g>
</g>
<g>
</g>
<g>
</g>
<g>
</g>
<g>
</g>
<g>
</g>
<g>
</g>
<g>
</g>
<g>
</g>
<g>
</g>
<g>
</g>
<g>
</g>
</svg>
