<?xml version="1.0" encoding="iso-8859-1"?>
<!-- Generator: Adobe Illustrator 19.0.0, SVG Export Plug-In . SVG Version: 6.00 Build 0)  -->
<svg version="1.1" id="Capa_1" xmlns="http://www.w3.org/2000/svg" xmlns:xlink="http://www.w3.org/1999/xlink" x="0px" y="0px"
	 viewBox="0 0 512 512" style="enable-background:new 0 0 512 512;" xml:space="preserve">
<g>
	<g>
		<path d="M507.801,245.857L349.117,87.173c-2.928-2.927-7.675-2.929-10.606,0c-2.929,2.929-2.929,7.676,0,10.606l158.225,158.223
			L256.001,496.739L15.265,256.003L256.001,15.268l44.754,44.754c2.929,2.928,7.676,2.926,10.606,0
			c2.929-2.929,2.929-7.676,0-10.606L266.146,4.202C263.436,1.492,259.833,0,256,0c-3.832,0-7.435,1.492-10.145,4.202L4.199,245.857
			c-5.594,5.595-5.594,14.698,0,20.292l241.656,241.656C248.652,510.602,252.326,512,256,512c3.675,0,7.349-1.399,10.145-4.195
			l241.656-241.656C513.395,260.555,513.395,251.453,507.801,245.857z"/>
	</g>
</g>
<g>
	<g>
		<path d="M245.331,208.454c0.001,0,0.001,0,0.002,0c4.141,0,7.498-3.356,7.499-7.497l0.004-14.218
			c0.002-3.306-1.341-6.537-3.686-8.87l-41.233-41.005c-8.633-8.632-22.678-8.632-31.312,0l-28.764,28.765
			c-4.871,4.873-4.87,12.803,0.001,17.675l29.678,29.677v83.937l-29.678,29.677c-4.872,4.874-4.872,12.803,0,17.676l35.582,35.582
			c2.437,2.435,5.636,3.653,8.837,3.653c3.2,0,6.401-1.219,8.838-3.654l48.038-48.038c2.358-2.359,3.659-5.495,3.661-8.835
			l0.019-69.521c0.001-4.143-3.355-7.5-7.497-7.501c-0.001,0-0.001,0-0.002,0c-4.142,0-7.498,3.356-7.499,7.497l-0.019,68.486
			l-45.539,45.538l-32.045-32.046l28.643-28.642c2.36-2.361,3.66-5.5,3.66-8.838v-86.007c0-3.339-1.3-6.477-3.66-8.838
			l-28.643-28.642l26.994-26.995c2.787-2.786,7.316-2.783,10.116,0.015l40.511,40.285l-0.004,13.183
			C237.833,205.095,241.188,208.453,245.331,208.454z"/>
	</g>
</g>
<g>
	<g>
		<path d="M364.16,326.597l-29.678-29.677v-83.937l29.678-29.677c4.872-4.873,4.872-12.802,0-17.677l-28.764-28.763
			c-8.634-8.632-22.68-8.631-31.296-0.015l-41.25,41.02c-2.344,2.331-3.686,5.561-3.685,8.865l0.037,136.247
			c0.002,3.336,1.303,6.472,3.661,8.831l48.038,48.038c2.437,2.436,5.636,3.654,8.838,3.654c3.2,0,6.401-1.219,8.84-3.652
			l35.581-35.581C369.033,339.4,369.033,331.471,364.16,326.597z M319.741,367.479l-45.539-45.538l-0.037-134.171l40.526-40.3
			c2.784-2.785,7.315-2.785,10.1,0l26.995,26.995l-28.643,28.642c-2.36,2.361-3.66,5.499-3.66,8.838v86.007
			c0,3.339,1.3,6.477,3.66,8.838l28.643,28.642L319.741,367.479z"/>
	</g>
</g>
<g>
</g>
<g>
</g>
<g>
</g>
<g>
</g>
<g>
</g>
<g>
</g>
<g>
</g>
<g>
</g>
<g>
</g>
<g>
</g>
<g>
</g>
<g>
</g>
<g>
</g>
<g>
</g>
<g>
</g>
</svg>
