<?xml version="1.0" encoding="iso-8859-1"?>
<!-- Generator: Adobe Illustrator 19.0.0, SVG Export Plug-In . SVG Version: 6.00 Build 0)  -->
<svg version="1.1" id="Capa_1" xmlns="http://www.w3.org/2000/svg" xmlns:xlink="http://www.w3.org/1999/xlink" x="0px" y="0px"
	 viewBox="0 0 512 512" style="enable-background:new 0 0 512 512;" xml:space="preserve">
<g>
	<g>
		<path d="M507.801,245.859l-65.606-65.607c-2.928-2.928-7.675-2.928-10.606,0c-2.929,2.929-2.929,7.676,0,10.606l65.147,65.147
			L255.999,496.74L133.42,374.159c-2.93-2.93-7.677-2.928-10.606,0c-2.929,2.929-2.929,7.676,0,10.606l123.041,123.041
			c2.797,2.797,6.471,4.195,10.146,4.195c3.674,0,7.348-1.399,10.145-4.194L507.801,266.15
			C513.396,260.555,513.396,251.454,507.801,245.859z"/>
	</g>
</g>
<g>
	<g>
		<path d="M403.945,142.001L266.145,4.202C263.436,1.492,259.832,0,256.001,0c-3.833,0-7.436,1.492-10.146,4.202L4.199,245.857
			c-5.594,5.595-5.594,14.697,0,20.292l82.134,82.136c1.465,1.464,3.384,2.196,5.303,2.196c1.919,0,3.839-0.733,5.303-2.196
			c2.929-2.929,2.929-7.676,0-10.606l-81.675-81.675L256.001,15.268l137.338,137.338c2.929,2.928,7.676,2.928,10.606,0
			C406.873,149.678,406.873,144.931,403.945,142.001z"/>
	</g>
</g>
<g>
	<g>
		<path d="M322.822,117.116h-50.319c-6.892,0-12.499,5.606-12.499,12.499v49.995l-48.408-48.408
			c-2.361-2.362-5.499-3.663-8.839-3.663c-3.339,0-6.478,1.301-8.839,3.661l-35.581,35.582c-4.872,4.873-4.871,12.803,0.001,17.675
			l99.229,99.227c0.759,0.759,1.576,1.464,2.438,2.106v94.495c0,6.892,5.606,12.499,12.499,12.499h50.319
			c6.892,0,12.499-5.606,12.499-12.499v-250.67C335.321,122.723,329.714,117.116,322.822,117.116z M320.322,377.785h-45.318v-93.303
			c0-4.211-2.141-8.136-5.728-10.503c-0.394-0.259-0.763-0.559-1.099-0.897l-97.465-97.464l32.046-32.045l50.91,50.91
			c3.589,3.587,8.935,4.651,13.621,2.709c4.688-1.943,7.715-6.475,7.715-11.548v-53.53h45.32V377.785z"/>
	</g>
</g>
<g>
</g>
<g>
</g>
<g>
</g>
<g>
</g>
<g>
</g>
<g>
</g>
<g>
</g>
<g>
</g>
<g>
</g>
<g>
</g>
<g>
</g>
<g>
</g>
<g>
</g>
<g>
</g>
<g>
</g>
</svg>
