<?xml version="1.0" encoding="iso-8859-1"?>
<!-- Generator: Adobe Illustrator 19.0.0, SVG Export Plug-In . SVG Version: 6.00 Build 0)  -->
<svg version="1.1" id="Capa_1" xmlns="http://www.w3.org/2000/svg" xmlns:xlink="http://www.w3.org/1999/xlink" x="0px" y="0px"
	 viewBox="0 0 512 512" style="enable-background:new 0 0 512 512;" xml:space="preserve">
<g>
	<g>
		<path d="M389.9,373.433c-2.928-2.927-7.675-2.929-10.606,0L255.996,496.732L15.263,255.999l35.283-35.282
			c2.929-2.929,2.929-7.676,0-10.606c-2.928-2.928-7.676-2.928-10.605,0L4.199,245.854c-5.594,5.595-5.594,14.696,0,20.292
			l241.654,241.653c2.709,2.71,6.312,4.202,10.145,4.202c3.832,0,7.435-1.493,10.145-4.203L389.9,384.038
			C392.829,381.11,392.829,376.362,389.9,373.433z"/>
	</g>
</g>
<g>
	<g>
		<path d="M507.796,245.854L266.143,4.202C263.432,1.492,259.83,0,255.997,0c-3.833,0-7.436,1.492-10.146,4.202L77.792,172.261
			c-2.929,2.929-2.929,7.676,0,10.606c2.928,2.928,7.676,2.928,10.605,0l167.6-167.599L496.729,256l-79.801,79.802
			c-2.929,2.929-2.929,7.676,0,10.606c1.465,1.464,3.385,2.196,5.303,2.196c1.92,0,3.839-0.733,5.303-2.197l80.261-80.262
			c2.71-2.71,4.202-6.313,4.202-10.146C511.997,252.167,510.505,248.565,507.796,245.854z"/>
	</g>
</g>
<g>
	<g>
		<path d="M353.661,166.78c0-0.001-0.001-0.001-0.001-0.002l-35.58-35.58c-2.361-2.36-5.5-3.661-8.839-3.661
			c-3.34,0-6.478,1.301-8.838,3.661l-48.41,48.409v-49.994c0-6.892-5.606-12.499-12.499-12.499h-50.318
			c-6.892,0-12.499,5.606-12.499,12.499V380.28c0,6.892,5.606,12.499,12.499,12.499h50.318c6.891,0,12.499-5.606,12.5-12.498
			v-94.493c0.861-0.64,1.676-1.345,2.435-2.103l99.231-99.23C358.532,179.583,358.533,171.654,353.661,166.78z M243.823,273.078
			c-0.336,0.336-0.706,0.638-1.101,0.899c-3.587,2.364-5.727,6.29-5.727,10.501v93.302h-45.318V132.112h45.319v53.529
			c0,5.073,3.028,9.606,7.715,11.548c4.685,1.941,10.032,0.877,13.621-2.709l50.909-50.909l32.044,32.045L243.823,273.078z"/>
	</g>
</g>
<g>
</g>
<g>
</g>
<g>
</g>
<g>
</g>
<g>
</g>
<g>
</g>
<g>
</g>
<g>
</g>
<g>
</g>
<g>
</g>
<g>
</g>
<g>
</g>
<g>
</g>
<g>
</g>
<g>
</g>
</svg>
