<?xml version="1.0" encoding="iso-8859-1"?>
<!-- Generator: Adobe Illustrator 19.0.0, SVG Export Plug-In . SVG Version: 6.00 Build 0)  -->
<svg version="1.1" id="Capa_1" xmlns="http://www.w3.org/2000/svg" xmlns:xlink="http://www.w3.org/1999/xlink" x="0px" y="0px"
	 viewBox="0 0 511.999 511.999" style="enable-background:new 0 0 511.999 511.999;" xml:space="preserve">
<g>
	<g>
		<path d="M507.797,245.854L315.317,53.375c-2.928-2.928-7.676-2.928-10.605,0c-2.929,2.929-2.929,7.676,0,10.606l192.021,192.018
			L255.997,496.736L15.262,255.999L255.997,15.263l9.895,9.895c2.928,2.928,7.676,2.928,10.605,0c2.929-2.929,2.929-7.676,0-10.606
			L266.142,4.199c-5.594-5.593-14.697-5.594-20.291,0L4.196,245.854c-5.594,5.595-5.594,14.698,0,20.292l241.655,241.655
			c2.797,2.797,6.47,4.196,10.145,4.195c3.675,0,7.349-1.399,10.145-4.196l241.654-241.655c2.711-2.709,4.204-6.312,4.204-10.145
			C511.999,252.166,510.506,248.564,507.797,245.854z"/>
	</g>
</g>
<g>
	<g>
		<path d="M353.63,279.578h-59.975v-45.132c0-4.143-3.358-7.499-7.499-7.499c-4.142,0-7.499,3.357-7.499,7.499v47.632
			c0,6.892,5.606,12.499,12.499,12.499h59.975v45.319h-59.975c-6.892,0-12.499,5.606-12.499,12.499v25.387h-45.319V227.817
			c0-6.892-5.606-12.499-12.499-12.499h-59.975v-45.319h59.975c6.892,0,12.499-5.606,12.499-12.499v-25.388h45.319v49.343
			c0,4.143,3.358,7.499,7.499,7.499c4.142,0,7.499-3.357,7.499-7.499v-51.843c0-6.892-5.606-12.499-12.499-12.499h-50.319
			c-6.892,0-12.499,5.606-12.499,12.499V155h-59.975c-6.892,0-12.499,5.606-12.499,12.499v50.319
			c0,6.892,5.606,12.499,12.499,12.499h59.975v149.965c0,6.892,5.606,12.499,12.499,12.499h50.319
			c6.891,0,12.499-5.606,12.499-12.498v-25.388h59.975c6.892,0,12.499-5.606,12.499-12.499v-50.319
			C366.129,285.184,360.523,279.578,353.63,279.578z"/>
	</g>
</g>
<g>
</g>
<g>
</g>
<g>
</g>
<g>
</g>
<g>
</g>
<g>
</g>
<g>
</g>
<g>
</g>
<g>
</g>
<g>
</g>
<g>
</g>
<g>
</g>
<g>
</g>
<g>
</g>
<g>
</g>
</svg>
