<?xml version="1.0" encoding="iso-8859-1"?>
<!-- Generator: Adobe Illustrator 19.0.0, SVG Export Plug-In . SVG Version: 6.00 Build 0)  -->
<svg version="1.1" id="Capa_1" xmlns="http://www.w3.org/2000/svg" xmlns:xlink="http://www.w3.org/1999/xlink" x="0px" y="0px"
	 viewBox="0 0 512 512" style="enable-background:new 0 0 512 512;" xml:space="preserve">
<g>
	<g>
		<path d="M507.805,245.855L266.146,4.196c-5.593-5.592-14.696-5.594-20.291,0L122.482,127.568c-2.929,2.929-2.929,7.676,0,10.606
			c2.928,2.928,7.676,2.928,10.605,0L256.001,15.261L496.74,256L256.001,496.74l-80.566-80.567c-2.928-2.928-7.676-2.928-10.605,0
			c-2.929,2.929-2.929,7.676,0,10.606l81.026,81.026c2.797,2.797,6.47,4.195,10.145,4.195c3.674,0,7.348-1.398,10.145-4.194
			l241.659-241.659C513.399,260.553,513.399,251.45,507.805,245.855z"/>
	</g>
</g>
<g>
	<g>
		<path d="M139.203,379.941L15.261,256l78.83-78.83c2.929-2.929,2.929-7.676,0-10.606c-2.928-2.928-7.676-2.928-10.605,0
			l-79.29,79.29c-5.594,5.596-5.594,14.697,0,20.292l124.402,124.403c1.464,1.464,3.384,2.196,5.302,2.196
			c1.92,0,3.839-0.733,5.303-2.198C142.132,387.618,142.132,382.871,139.203,379.941z"/>
	</g>
</g>
<g>
	<g>
		<path d="M353.635,155h-59.976v-25.389c0-6.892-5.607-12.499-12.499-12.499h-50.32c-6.892,0-12.499,5.607-12.499,12.499v149.967
			h-59.976c-6.892,0-12.499,5.606-12.499,12.499v50.32c0,6.892,5.607,12.499,12.499,12.499h59.976v25.389
			c0,6.892,5.607,12.499,12.499,12.499h50.32c6.891,0,12.499-5.607,12.499-12.499V230.317h59.976
			c6.892,0,12.499-5.607,12.499-12.499v-50.32C366.134,160.606,360.528,155,353.635,155z M351.135,215.319H291.16
			c-6.892,0-12.499,5.607-12.499,12.499v149.967h-45.32v-25.389c0-6.892-5.607-12.499-12.499-12.499h-59.976v-45.32h59.976
			c6.892,0,12.499-5.607,12.499-12.499V132.111h45.32V157.5c0,6.892,5.607,12.499,12.499,12.499h59.976V215.319z"/>
	</g>
</g>
<g>
</g>
<g>
</g>
<g>
</g>
<g>
</g>
<g>
</g>
<g>
</g>
<g>
</g>
<g>
</g>
<g>
</g>
<g>
</g>
<g>
</g>
<g>
</g>
<g>
</g>
<g>
</g>
<g>
</g>
</svg>
