<?xml version="1.0" encoding="iso-8859-1"?>
<!-- Generator: Adobe Illustrator 19.0.0, SVG Export Plug-In . SVG Version: 6.00 Build 0)  -->
<svg version="1.1" id="Capa_1" xmlns="http://www.w3.org/2000/svg" xmlns:xlink="http://www.w3.org/1999/xlink" x="0px" y="0px"
	 viewBox="0 0 512 512" style="enable-background:new 0 0 512 512;" xml:space="preserve">
<g>
	<g>
		<path d="M406.786,144.843L266.145,4.202C263.436,1.492,259.832,0,256.001,0c-3.833,0-7.435,1.492-10.146,4.203L63.735,186.322
			c-2.929,2.929-2.929,7.676,0,10.606c1.465,1.464,3.385,2.196,5.303,2.196c1.919,0,3.839-0.733,5.303-2.197L256.001,15.268
			l140.18,140.18c2.929,2.928,7.676,2.928,10.606,0C409.715,152.52,409.715,147.772,406.786,144.843z"/>
	</g>
</g>
<g>
	<g>
		<path d="M507.798,245.853l-63.014-63.014c-2.93-2.929-7.677-2.927-10.606,0c-2.929,2.929-2.929,7.676,0,10.606l62.555,62.554
			L256.001,496.732L15.269,255.999l20.691-20.691c2.929-2.929,2.929-7.676,0-10.606c-2.929-2.928-7.676-2.928-10.606,0
			L4.202,245.854c-5.594,5.595-5.594,14.696,0,20.292l241.653,241.653c2.71,2.71,6.313,4.202,10.145,4.202
			c3.833,0,7.436-1.493,10.146-4.203l241.653-241.653C513.392,260.549,513.392,251.449,507.798,245.853z"/>
	</g>
</g>
<g>
	<g>
		<path d="M394.117,242.885c-2.581-4.946-7.65-8.02-13.229-8.02h-22.262v-25.7c0-56.643-46.083-102.725-102.725-102.725
			c-56.643,0-102.724,46.083-102.724,102.725v158.944c0,10.956,8.913,19.87,19.869,19.87h35.725c10.956,0,19.869-8.914,19.869-19.87
			V209.165c0-15.033,12.23-27.262,27.263-27.262c15.033,0,27.262,12.23,27.262,27.262v25.7h-22.261
			c-5.58,0-10.65,3.074-13.229,8.021c-2.581,4.946-2.2,10.863,0.993,15.437l59.993,85.983c2.789,3.997,7.363,6.382,12.237,6.382
			c4.873,0,9.448-2.386,12.237-6.382l59.992-85.983C396.316,253.748,396.697,247.833,394.117,242.885z M320.895,335.635
			l-59.844-85.771h29.611c4.143,0,7.499-3.357,7.499-7.499v-33.199c0-23.302-18.958-42.26-42.26-42.26
			c-23.303,0-42.261,18.958-42.261,42.26v158.944c0,2.686-2.185,4.871-4.87,4.871h-35.725c-2.685,0-4.87-2.185-4.87-4.871V209.165
			c0-48.373,39.354-87.727,87.727-87.727c48.372,0,87.726,39.355,87.728,87.727v33.199c0,4.143,3.357,7.499,7.499,7.499h29.613
			L320.895,335.635z"/>
	</g>
</g>
<g>
</g>
<g>
</g>
<g>
</g>
<g>
</g>
<g>
</g>
<g>
</g>
<g>
</g>
<g>
</g>
<g>
</g>
<g>
</g>
<g>
</g>
<g>
</g>
<g>
</g>
<g>
</g>
<g>
</g>
</svg>
