<?xml version="1.0" encoding="iso-8859-1"?>
<!-- Generator: Adobe Illustrator 19.0.0, SVG Export Plug-In . SVG Version: 6.00 Build 0)  -->
<svg version="1.1" id="Capa_1" xmlns="http://www.w3.org/2000/svg" xmlns:xlink="http://www.w3.org/1999/xlink" x="0px" y="0px"
	 viewBox="0 0 512 512" style="enable-background:new 0 0 512 512;" xml:space="preserve">
<g>
	<g>
		<path d="M507.801,245.859L362.262,100.318c-2.928-2.927-7.675-2.929-10.606,0c-2.929,2.929-2.929,7.676,0,10.606l145.08,145.079
			L256.001,496.739L15.264,256.003L256.001,15.268l56.249,56.249c2.929,2.928,7.676,2.927,10.606,0
			c2.929-2.929,2.929-7.676,0-10.606l-56.71-56.71C263.436,1.492,259.832,0,255.999,0c-3.832,0-7.435,1.492-10.145,4.202
			L4.199,245.857c-5.594,5.595-5.594,14.698,0,20.292l241.656,241.656c2.797,2.797,6.471,4.195,10.145,4.195
			c3.675,0,7.349-1.399,10.146-4.194L507.801,266.15C513.396,260.556,513.396,251.454,507.801,245.859z"/>
	</g>
</g>
<g>
	<g>
		<path d="M384.771,171.614l-26.419-23.804c-8.116-7.312-20.668-6.658-27.976,1.45l-74.373,82.34l-74.366-82.333
			c-7.313-8.116-19.865-8.77-27.982-1.457l-26.419,23.804c-8.114,7.312-8.768,19.864-1.451,27.989l29.936,33.143
			c2.777,3.074,7.518,3.315,10.592,0.538c3.074-2.777,3.314-7.518,0.538-10.592l-29.929-33.135c-1.777-1.973-1.619-5.024,0.354-6.8
			l26.419-23.804c0.955-0.86,2.187-1.308,3.474-1.231c1.284,0.067,2.466,0.63,3.333,1.592l76.225,84.393
			c2.366,2.619,5.746,4.121,9.276,4.121c3.53,0,6.91-1.502,9.275-4.121l76.233-84.4c0.86-0.955,2.042-1.519,3.326-1.585
			c1.299-0.079,2.519,0.371,3.474,1.231l26.419,23.804c1.972,1.776,2.131,4.828,0.361,6.792l-93.27,103.261
			c-2.079,2.302-3.225,5.276-3.225,8.378v96.992h-45.189v-96.992c0-3.102-1.146-6.076-3.225-8.378l-26.999-29.892
			c-2.777-3.074-7.518-3.315-10.592-0.538c-3.074,2.777-3.314,7.518-0.538,10.592l26.354,29.178v98.53
			c0,6.892,5.606,12.499,12.499,12.499h50.188c6.891,0,12.499-5.607,12.499-12.499v-98.53l92.636-102.555
			C393.54,191.478,392.885,178.926,384.771,171.614z"/>
	</g>
</g>
<g>
</g>
<g>
</g>
<g>
</g>
<g>
</g>
<g>
</g>
<g>
</g>
<g>
</g>
<g>
</g>
<g>
</g>
<g>
</g>
<g>
</g>
<g>
</g>
<g>
</g>
<g>
</g>
<g>
</g>
</svg>
