<?xml version="1.0" encoding="iso-8859-1"?>
<!-- Generator: Adobe Illustrator 19.0.0, SVG Export Plug-In . SVG Version: 6.00 Build 0)  -->
<svg version="1.1" id="Capa_1" xmlns="http://www.w3.org/2000/svg" xmlns:xlink="http://www.w3.org/1999/xlink" x="0px" y="0px"
	 viewBox="0 0 512 512" style="enable-background:new 0 0 512 512;" xml:space="preserve">
<g>
	<g>
		<path d="M362.969,400.37c-2.929-2.928-7.676-2.928-10.606,0L256,496.733l-12.469-12.469c-2.928-2.928-7.676-2.928-10.605,0
			c-2.929,2.929-2.929,7.676,0,10.606l12.929,12.929c2.709,2.71,6.312,4.202,10.145,4.202c3.833,0,7.435-1.492,10.146-4.202
			l96.823-96.823C365.898,408.047,365.898,403.299,362.969,400.37z"/>
	</g>
</g>
<g>
	<g>
		<path d="M507.802,245.851L266.146,4.195c-5.595-5.593-14.698-5.593-20.291,0L4.199,245.851c-5.594,5.594-5.594,14.697,0,20.292
			L195.87,457.815c1.464,1.464,3.384,2.196,5.302,2.196c1.92,0,3.839-0.733,5.302-2.197c2.929-2.929,2.929-7.676,0-10.606
			L15.264,255.998L256,15.262l240.736,240.734L390.393,362.339c-2.929,2.929-2.929,7.676,0,10.606c2.928,2.928,7.675,2.928,10.606,0
			l106.802-106.802C513.396,260.548,513.396,251.445,507.802,245.851z"/>
	</g>
</g>
<g>
	<g>
		<path d="M383.493,302.408c0-3.314-0.72-6.642-2.082-9.627l-51.969-113.866v-42.761c0-6.892-5.424-12.499-12.09-12.499h-46.197
			c-6.666,0-12.09,5.606-12.09,12.499v57.418c0,1.837,0.4,3.685,1.158,5.341l52.919,115.914v43.429
			c0,6.892,5.423,12.499,12.09,12.499h37.341c5.716,0,11.055-2.386,15.031-6.718c3.813-4.155,5.911-9.634,5.91-15.431
			L383.493,302.408z M366.555,353.896c-0.637,0.696-2.003,1.862-3.982,1.862h-34.433v-41.385c0-1.839-0.401-3.689-1.158-5.341
			l-52.919-115.915v-54.462h40.38v40.717c0,1.835,0.399,3.681,1.156,5.339l52.166,114.298c0.477,1.045,0.729,2.22,0.729,3.404
			l0.022,46.2C368.517,350.642,367.821,352.517,366.555,353.896z"/>
	</g>
</g>
<g>
	<g>
		<path d="M240.845,123.656h-46.198c-6.665,0-12.089,5.606-12.089,12.499v42.76l-51.969,113.868
			c-1.361,2.983-2.082,6.31-2.082,9.622l-0.022,46.204c-0.001,5.795,2.098,11.276,5.91,15.429c3.977,4.333,9.315,6.718,15.031,6.718
			h37.341c6.666,0,12.09-5.606,12.09-12.499v-43.43l52.92-115.915c0.757-1.659,1.157-3.506,1.157-5.339v-57.418
			C252.935,129.263,247.512,123.656,240.845,123.656z M237.938,193.116l-52.919,115.912c-0.758,1.659-1.158,3.507-1.158,5.344
			v41.386h-34.433c-1.978,0-3.344-1.166-3.982-1.861c-1.266-1.379-1.962-3.256-1.962-5.281l0.022-46.204
			c0-1.181,0.252-2.358,0.728-3.401l52.164-114.296c0.758-1.659,1.158-3.506,1.158-5.342v-40.717v-0.001h40.381V193.116z"/>
	</g>
</g>
<g>
</g>
<g>
</g>
<g>
</g>
<g>
</g>
<g>
</g>
<g>
</g>
<g>
</g>
<g>
</g>
<g>
</g>
<g>
</g>
<g>
</g>
<g>
</g>
<g>
</g>
<g>
</g>
<g>
</g>
</svg>
