<?xml version="1.0" encoding="iso-8859-1"?>
<!-- Generator: Adobe Illustrator 19.0.0, SVG Export Plug-In . SVG Version: 6.00 Build 0)  -->
<svg version="1.1" id="Capa_1" xmlns="http://www.w3.org/2000/svg" xmlns:xlink="http://www.w3.org/1999/xlink" x="0px" y="0px"
	 viewBox="0 0 512 512" style="enable-background:new 0 0 512 512;" xml:space="preserve">
<g>
	<g>
		<path d="M507.798,245.855L266.142,4.199c-5.594-5.593-14.696-5.594-20.291,0l-38.5,38.5c-2.929,2.929-2.929,7.676,0,10.606
			c2.928,2.928,7.676,2.928,10.605,0l38.04-38.041L496.732,256L255.996,496.736l-173.88-173.88c-2.928-2.928-7.676-2.928-10.605,0
			c-2.929,2.929-2.929,7.676,0,10.606l174.34,174.34c2.797,2.797,6.47,4.196,10.145,4.195c3.675,0,7.349-1.399,10.146-4.196
			l241.654-241.655c2.711-2.709,4.204-6.312,4.204-10.145C512,252.167,510.507,248.564,507.798,245.855z"/>
	</g>
</g>
<g>
	<g>
		<path d="M179.838,80.817c-2.928-2.928-7.676-2.928-10.605,0L4.196,245.855c-5.594,5.595-5.594,14.697,0,20.292l29.322,29.322
			c1.464,1.464,3.384,2.196,5.302,2.196c1.92,0,3.839-0.732,5.302-2.197c2.929-2.929,2.929-7.676,0-10.606l-28.862-28.861
			L179.838,91.423C182.767,88.495,182.767,83.747,179.838,80.817z"/>
	</g>
</g>
<g>
	<g>
		<path d="M362.352,311.148c-0.001-3.4-0.801-6.806-2.315-9.851L303.48,187.524v-42.629c0-6.892-5.606-12.499-12.499-12.499h-50.319
			c-6.892,0-12.499,5.606-12.499,12.499v57.419c0,1.919,0.453,3.844,1.308,5.564l57.593,115.819v43.3
			c0,6.892,5.606,12.499,12.499,12.499h40.672c5.915,0,11.477-2.303,15.658-6.487c4.182-4.184,6.484-9.744,6.482-15.661
			L362.352,311.148z M345.287,362.406c-1.349,1.35-3.144,2.093-5.052,2.093h-38.172v-41.387c0-1.919-0.452-3.841-1.308-5.565
			l-57.593-115.819v-54.331h45.319v40.716c0,1.919,0.452,3.844,1.307,5.563l56.818,114.298c0.489,0.982,0.747,2.081,0.747,3.18
			l0.024,46.2C347.379,359.262,346.636,361.056,345.287,362.406z"/>
	</g>
</g>
<g>
	<g>
		<path d="M212.435,132.397h-50.319c-6.892,0-12.499,5.606-12.499,12.499v222.102c0,6.892,5.606,12.499,12.499,12.499h50.319
			c6.891,0,12.499-5.606,12.499-12.499V144.896C224.933,138.004,219.327,132.397,212.435,132.397z M209.935,364.499h-45.319V147.396
			h45.319V364.499z"/>
	</g>
</g>
<g>
</g>
<g>
</g>
<g>
</g>
<g>
</g>
<g>
</g>
<g>
</g>
<g>
</g>
<g>
</g>
<g>
</g>
<g>
</g>
<g>
</g>
<g>
</g>
<g>
</g>
<g>
</g>
<g>
</g>
</svg>
