<?xml version="1.0" encoding="iso-8859-1"?>
<!-- Generator: Adobe Illustrator 19.0.0, SVG Export Plug-In . SVG Version: 6.00 Build 0)  -->
<svg version="1.1" id="Capa_1" xmlns="http://www.w3.org/2000/svg" xmlns:xlink="http://www.w3.org/1999/xlink" x="0px" y="0px"
	 viewBox="0 0 512 512" style="enable-background:new 0 0 512 512;" xml:space="preserve">
<g>
	<g>
		<path d="M507.804,245.854l-72.266-72.266c-2.928-2.928-7.676-2.928-10.605,0c-2.929,2.929-2.929,7.676,0,10.606L496.74,256
			L256.001,496.74L15.262,256L256.001,15.261L386.61,145.87c2.928,2.928,7.676,2.928,10.605,0c2.929-2.929,2.929-7.676,0-10.606
			L266.146,4.195c-5.593-5.593-14.696-5.594-20.291,0L4.196,245.854c-5.594,5.596-5.594,14.698,0,20.292l241.66,241.659
			c2.797,2.797,6.47,4.195,10.145,4.195c3.674,0,7.348-1.398,10.144-4.195l241.659-241.659
			C513.398,260.552,513.398,251.449,507.804,245.854z"/>
	</g>
</g>
<g>
	<g>
		<path d="M261.579,132.395h-50.32c-6.892,0-12.499,5.607-12.499,12.499v42.629l-27.201,54.719
			c-1.844,3.709-0.332,8.21,3.377,10.054c3.708,1.843,8.209,0.331,10.053-3.377l27.462-55.244c0.855-1.719,1.307-3.644,1.307-5.563
			v-40.717h45.32v54.332l-57.596,115.826c-0.854,1.72-1.305,3.643-1.305,5.562v41.387h-38.173c-1.908,0-3.703-0.743-5.052-2.093
			c-1.349-1.35-2.091-3.144-2.091-5.051l0.024-46.205c0-1.097,0.259-2.197,0.747-3.178l5.072-10.202
			c1.844-3.709,0.332-8.21-3.377-10.054c-3.712-1.845-8.211-0.333-10.054,3.377l-5.072,10.202c-1.514,3.045-2.315,6.452-2.315,9.849
			l-0.024,46.205c-0.002,5.915,2.3,11.476,6.482,15.66c4.182,4.184,9.743,6.487,15.659,6.487h40.672c6.891,0,12.499-5.607,12.5-12.5
			v-43.3l57.594-115.822c0.855-1.719,1.307-3.644,1.307-5.563v-57.42C274.078,138.001,268.472,132.395,261.579,132.395z"/>
	</g>
</g>
<g>
	<g>
		<path d="M340.126,132.396h-50.32c-6.892,0-12.499,5.607-12.499,12.499V367c0,6.892,5.607,12.499,12.499,12.499h50.32
			c6.892,0,12.499-5.607,12.499-12.499V144.895C352.625,138.002,347.019,132.396,340.126,132.396z M337.628,364.5h-45.32V147.395
			h45.32V364.5z"/>
	</g>
</g>
<g>
</g>
<g>
</g>
<g>
</g>
<g>
</g>
<g>
</g>
<g>
</g>
<g>
</g>
<g>
</g>
<g>
</g>
<g>
</g>
<g>
</g>
<g>
</g>
<g>
</g>
<g>
</g>
<g>
</g>
</svg>
