<?xml version="1.0" encoding="iso-8859-1"?>
<!-- Generator: Adobe Illustrator 19.0.0, SVG Export Plug-In . SVG Version: 6.00 Build 0)  -->
<svg version="1.1" id="Capa_1" xmlns="http://www.w3.org/2000/svg" xmlns:xlink="http://www.w3.org/1999/xlink" x="0px" y="0px"
	 viewBox="0 0 512 512" style="enable-background:new 0 0 512 512;" xml:space="preserve">
<g>
	<g>
		<path d="M333.978,429.359c-2.929-2.928-7.676-2.928-10.606,0l-67.372,67.373L15.267,255.999l29.38-29.379
			c2.929-2.929,2.929-7.676,0-10.606c-2.929-2.928-7.676-2.928-10.606,0L4.203,245.854c-5.594,5.595-5.594,14.697,0,20.293
			l241.652,241.652c2.71,2.71,6.313,4.202,10.146,4.202c3.832,0,7.434-1.493,10.145-4.203l67.832-67.833
			C336.906,437.036,336.906,432.288,333.978,429.359z"/>
	</g>
</g>
<g>
	<g>
		<path d="M507.797,245.854L266.145,4.202C263.436,1.492,259.832,0,255.999,0c-3.832,0-7.435,1.492-10.146,4.202L72.402,177.656
			c-2.929,2.929-2.929,7.676,0,10.606c2.928,2.927,7.675,2.929,10.606,0L256.001,15.268l240.732,240.731L360.904,391.828
			c-2.929,2.929-2.929,7.676,0,10.606c1.465,1.464,3.385,2.196,5.303,2.196c1.918,0,3.838-0.733,5.302-2.197l136.287-136.286
			C513.392,260.551,513.392,251.449,507.797,245.854z"/>
	</g>
</g>
<g>
	<g>
		<path d="M339.754,184.325H324.34c-0.08-0.003-0.159-0.004-0.233-0.004h-88.355v-25.76c0-4.673-2.574-8.92-6.718-11.082
			c-4.143-2.161-9.1-1.843-12.933,0.832l-89.868,62.704c-3.349,2.336-5.347,6.167-5.347,10.251c0,4.083,1.999,7.914,5.346,10.249
			l89.87,62.705c3.831,2.677,8.787,2.993,12.932,0.832c4.145-2.162,6.718-6.408,6.718-11.082v-25.76h42.612v93.197
			c0,6.892,5.606,12.499,12.499,12.499h48.891c6.892,0,12.499-5.606,12.499-12.498V196.823
			C352.252,189.931,346.646,184.325,339.754,184.325z M337.254,348.907h-43.892h-0.001V255.71c0-6.892-5.606-12.499-12.499-12.499
			h-47.612c-6.892,0-12.499,5.606-12.499,12.499v23.468l-83-57.913l83-57.912v23.468c0,6.892,5.606,12.499,12.499,12.499h90.677
			c0.08,0.003,0.161,0.004,0.242,0.004h13.084V348.907z"/>
	</g>
</g>
<g>
</g>
<g>
</g>
<g>
</g>
<g>
</g>
<g>
</g>
<g>
</g>
<g>
</g>
<g>
</g>
<g>
</g>
<g>
</g>
<g>
</g>
<g>
</g>
<g>
</g>
<g>
</g>
<g>
</g>
</svg>
