<?xml version="1.0" encoding="iso-8859-1"?>
<!-- Generator: Adobe Illustrator 19.0.0, SVG Export Plug-In . SVG Version: 6.00 Build 0)  -->
<svg version="1.1" id="Capa_1" xmlns="http://www.w3.org/2000/svg" xmlns:xlink="http://www.w3.org/1999/xlink" x="0px" y="0px"
	 viewBox="0 0 512 512" style="enable-background:new 0 0 512 512;" xml:space="preserve">
<g>
	<g>
		<path d="M507.799,245.854L266.143,4.198c-5.595-5.592-14.696-5.594-20.292,0L4.196,245.854c-5.594,5.595-5.594,14.698,0,20.293
			l95.565,95.565c2.929,2.928,7.676,2.927,10.606,0c2.929-2.929,2.929-7.676,0-10.606l-95.106-95.105L255.997,15.265
			l240.736,240.736L255.997,496.736L148.252,388.991c-2.928-2.928-7.675-2.928-10.606,0c-2.929,2.929-2.929,7.676,0,10.606
			l108.205,108.205c2.797,2.797,6.471,4.195,10.145,4.195c3.675,0,7.349-1.398,10.147-4.196l241.655-241.655
			c2.71-2.71,4.202-6.313,4.202-10.146C512,252.167,510.508,248.565,507.799,245.854z"/>
	</g>
</g>
<g>
	<g>
		<path d="M389.138,211.016l-24.307-16.959c-3.399-2.372-8.071-1.538-10.441,1.858c-2.371,3.397-1.538,8.071,1.858,10.441
			l21.368,14.909l-83.002,57.913V255.71c0-6.892-5.606-12.499-12.499-12.499h-47.612c-6.892,0-12.499,5.606-12.499,12.499v93.199
			h-43.893V199.322h13.085c0.081,0,0.162-0.001,0.242-0.004h90.678c6.892,0,12.499-5.606,12.499-12.499v-23.468l18.93,13.208
			c3.397,2.371,8.071,1.538,10.441-1.858c2.371-3.397,1.538-8.071-1.858-10.441l-22.861-15.95
			c-3.832-2.676-8.788-2.993-12.933-0.832c-4.145,2.162-6.718,6.408-6.718,11.082v25.76h-88.356c-0.074,0-0.152,0.001-0.232,0.004
			h-15.415c-6.892,0-12.499,5.606-12.499,12.499v154.586c0,6.892,5.606,12.499,12.499,12.499h48.892
			c6.892,0,12.499-5.607,12.498-12.499v-93.199h42.613v25.76c0,4.674,2.574,8.92,6.718,11.082c4.145,2.161,9.1,1.843,12.934-0.832
			l89.869-62.705c3.349-2.336,5.347-6.167,5.347-10.25C394.484,217.183,392.485,213.351,389.138,211.016z"/>
	</g>
</g>
<g>
</g>
<g>
</g>
<g>
</g>
<g>
</g>
<g>
</g>
<g>
</g>
<g>
</g>
<g>
</g>
<g>
</g>
<g>
</g>
<g>
</g>
<g>
</g>
<g>
</g>
<g>
</g>
<g>
</g>
</svg>
