<?xml version="1.0" encoding="iso-8859-1"?>
<!-- Generator: Adobe Illustrator 19.0.0, SVG Export Plug-In . SVG Version: 6.00 Build 0)  -->
<svg version="1.1" id="Capa_1" xmlns="http://www.w3.org/2000/svg" xmlns:xlink="http://www.w3.org/1999/xlink" x="0px" y="0px"
	 viewBox="0 0 512 512" style="enable-background:new 0 0 512 512;" xml:space="preserve">
<g>
	<g>
		<path d="M415.733,347.61c-2.929-2.928-7.676-2.928-10.606,0L255.999,496.739L15.264,256.003l30.127-30.127
			c2.929-2.929,2.929-7.676,0-10.606c-2.928-2.928-7.676-2.928-10.605,0L4.199,245.857c-5.594,5.595-5.594,14.697,0,20.293
			l241.655,241.655c2.797,2.797,6.471,4.195,10.145,4.195s7.348-1.399,10.146-4.196l149.588-149.589
			C418.662,355.287,418.662,350.539,415.733,347.61z"/>
	</g>
</g>
<g>
	<g>
		<path d="M507.801,245.857L266.145,4.202C263.435,1.492,259.832,0,255.999,0s-7.436,1.492-10.146,4.202L71.216,178.841
			c-2.929,2.929-2.929,7.676,0,10.606c2.928,2.928,7.676,2.928,10.605,0L255.999,15.268l240.736,240.736l-54.236,54.236
			c-2.929,2.929-2.929,7.676,0,10.606c1.465,1.464,3.385,2.196,5.303,2.196s3.838-0.732,5.303-2.196l54.695-54.695
			C513.395,260.555,513.395,251.452,507.801,245.857z"/>
	</g>
</g>
<g>
	<g>
		<path d="M312.166,128.593h-50.442c-6.892,0-12.499,5.606-12.499,12.499v77.192h-83.143c-6.892,0-12.499,5.606-12.499,12.499
			v50.442c0,6.892,5.606,12.499,12.499,12.499h83.143v77.192c0,6.892,5.607,12.499,12.499,12.499h50.442
			c6.892,0,12.499-5.606,12.499-12.498V141.092C324.665,134.199,319.058,128.593,312.166,128.593z M309.666,368.416h-45.442v-77.193
			c0-6.892-5.607-12.499-12.499-12.499h-83.143v-45.442h83.143c6.892,0,12.499-5.606,12.499-12.499V143.59h45.442V368.416z"/>
	</g>
</g>
<g>
</g>
<g>
</g>
<g>
</g>
<g>
</g>
<g>
</g>
<g>
</g>
<g>
</g>
<g>
</g>
<g>
</g>
<g>
</g>
<g>
</g>
<g>
</g>
<g>
</g>
<g>
</g>
<g>
</g>
</svg>
