<?xml version="1.0" encoding="iso-8859-1"?>
<!-- Generator: Adobe Illustrator 19.0.0, SVG Export Plug-In . SVG Version: 6.00 Build 0)  -->
<svg version="1.1" id="Capa_1" xmlns="http://www.w3.org/2000/svg" xmlns:xlink="http://www.w3.org/1999/xlink" x="0px" y="0px"
	 viewBox="0 0 511.999 511.999" style="enable-background:new 0 0 511.999 511.999;" xml:space="preserve">
<g>
	<g>
		<path d="M338.611,76.668l-72.469-72.47c-5.594-5.593-14.697-5.594-20.291,0L4.196,245.854c-5.594,5.595-5.594,14.697,0,20.293
			l241.656,241.655c2.797,2.797,6.47,4.195,10.145,4.195c3.673,0,7.348-1.399,10.144-4.196l32.57-32.571
			c2.929-2.928,2.929-7.675,0-10.605c-2.928-2.928-7.676-2.928-10.605,0l-32.11,32.111L15.261,256L255.997,15.263l72.009,72.011
			c2.928,2.928,7.676,2.928,10.605,0C341.54,84.345,341.54,79.597,338.611,76.668z"/>
	</g>
</g>
<g>
	<g>
		<path d="M507.797,245.855L375.221,113.279c-2.928-2.928-7.676-2.928-10.605,0c-2.929,2.929-2.929,7.676,0,10.606l132.117,132.116
			L326.352,426.38c-2.929,2.929-2.929,7.676,0,10.606c1.464,1.464,3.384,2.196,5.302,2.196c1.92,0,3.839-0.732,5.302-2.196
			l170.839-170.84c2.711-2.709,4.204-6.313,4.204-10.146C511.999,252.168,510.506,248.564,507.797,245.855z"/>
	</g>
</g>
<g>
	<g>
		<path d="M348.114,218.279h-83.143v-77.192c0-6.892-5.606-12.499-12.499-12.499h-50.442c-6.892,0-12.499,5.606-12.499,12.499
			v229.825c0,6.892,5.606,12.499,12.499,12.499h50.442c6.892,0,12.499-5.606,12.499-12.5v-77.192h83.143
			c6.892,0,12.499-5.606,12.499-12.499v-50.442C360.613,223.886,355.006,218.279,348.114,218.279z M345.614,278.721h-83.143
			c-6.892,0-12.499,5.606-12.499,12.499v77.192H204.53V143.588h45.442v77.192c0,6.892,5.606,12.499,12.499,12.499h83.143V278.721z"
			/>
	</g>
</g>
<g>
</g>
<g>
</g>
<g>
</g>
<g>
</g>
<g>
</g>
<g>
</g>
<g>
</g>
<g>
</g>
<g>
</g>
<g>
</g>
<g>
</g>
<g>
</g>
<g>
</g>
<g>
</g>
<g>
</g>
</svg>
