<?xml version="1.0" encoding="iso-8859-1"?>
<!-- Generator: Adobe Illustrator 19.0.0, SVG Export Plug-In . SVG Version: 6.00 Build 0)  -->
<svg version="1.1" id="Capa_1" xmlns="http://www.w3.org/2000/svg" xmlns:xlink="http://www.w3.org/1999/xlink" x="0px" y="0px"
	 viewBox="0 0 511.999 511.999" style="enable-background:new 0 0 511.999 511.999;" xml:space="preserve">
<g>
	<g>
		<path d="M507.804,245.854L266.145,4.196c-5.594-5.592-14.697-5.594-20.291,0l-43.469,43.47c-2.929,2.929-2.929,7.676,0,10.606
			c2.928,2.928,7.676,2.928,10.605,0L256,15.261L496.739,256L256,496.739L15.261,256l159.46-159.459
			c2.929-2.929,2.929-7.676,0-10.606c-2.928-2.928-7.676-2.928-10.605,0L4.196,245.853c-5.594,5.596-5.594,14.698,0,20.293
			l241.659,241.658c2.797,2.797,6.47,4.195,10.145,4.195c3.674,0,7.348-1.398,10.146-4.195l241.657-241.657
			C513.398,260.552,513.398,251.449,507.804,245.854z"/>
	</g>
</g>
<g>
	<g>
		<path d="M363.548,218.28h-69.827v-69.827c0-10.954-8.911-19.865-19.865-19.865h-35.711c-10.954,0-19.865,8.911-19.865,19.865
			v69.827h-69.827c-10.954,0-19.865,8.911-19.865,19.864v35.712c0,10.953,8.911,19.864,19.865,19.864h69.827v9.275
			c0,4.143,3.358,7.499,7.499,7.499c4.142,0,7.499-3.357,7.499-7.499v-11.775c0-6.892-5.606-12.499-12.499-12.499h-72.327
			c-2.684,0-4.867-2.182-4.867-4.866v-35.712c0-2.683,2.183-4.866,4.867-4.866h72.327c6.892,0,12.499-5.606,12.499-12.499v-72.327
			c0-2.683,2.183-4.867,4.867-4.867h35.711c2.684,0,4.867,2.183,4.867,4.867v72.327c0,6.892,5.606,12.499,12.499,12.499h72.327
			c2.684,0,4.867,2.182,4.867,4.866v35.712c0,2.683-2.183,4.866-4.867,4.866h-72.327c-6.892,0-12.499,5.607-12.499,12.499v72.326
			c0,2.683-2.183,4.867-4.867,4.867h-35.711c-2.684,0-4.867-2.183-4.867-4.867v-6.056c0-4.143-3.358-7.499-7.499-7.499
			c-4.142,0-7.499,3.357-7.499,7.499v6.056c0,10.954,8.911,19.865,19.865,19.865h35.711c10.954,0,19.865-8.911,19.865-19.865
			v-69.827h69.827c10.954,0,19.865-8.911,19.865-19.864v-35.712C383.413,227.192,374.502,218.28,363.548,218.28z"/>
	</g>
</g>
<g>
</g>
<g>
</g>
<g>
</g>
<g>
</g>
<g>
</g>
<g>
</g>
<g>
</g>
<g>
</g>
<g>
</g>
<g>
</g>
<g>
</g>
<g>
</g>
<g>
</g>
<g>
</g>
<g>
</g>
</svg>
