<?xml version="1.0" encoding="iso-8859-1"?>
<!-- Generator: Adobe Illustrator 19.0.0, SVG Export Plug-In . SVG Version: 6.00 Build 0)  -->
<svg version="1.1" id="Capa_1" xmlns="http://www.w3.org/2000/svg" xmlns:xlink="http://www.w3.org/1999/xlink" x="0px" y="0px"
	 viewBox="0 0 512 512" style="enable-background:new 0 0 512 512;" xml:space="preserve">
<g>
	<g>
		<path d="M468.274,0H43.726c-6.849,0-12.421,5.573-12.421,12.421v378.219c0,4.152,3.365,7.517,7.517,7.517
			c4.153,0,7.517-3.365,7.517-7.517V15.034h419.322V94.13c0,4.152,3.365,7.517,7.517,7.517c4.153,0,7.517-3.365,7.517-7.517V12.421
			C480.695,5.573,475.123,0,468.274,0z"/>
	</g>
</g>
<g>
	<g>
		<path d="M473.177,139.233c-4.153,0-7.517,3.365-7.517,7.517v350.215H46.339v-52.201c0-4.152-3.365-7.517-7.517-7.517
			c-4.152,0-7.517,3.365-7.517,7.517v54.814c0,6.849,5.573,12.421,12.421,12.421h424.548c6.849,0,12.421-5.572,12.42-12.421V146.75
			C480.694,142.598,477.33,139.233,473.177,139.233z"/>
	</g>
</g>
<g>
	<g>
		<path d="M198.674,389.345c-13.563,0-27.293-7.066-27.293-20.571V121.545c0-11.515,9.807-20.198,22.812-20.198h72.824
			c26.568,0,47.795,6.87,63.092,20.418c17.382,15.396,26.195,38.692,26.195,69.243v2.988c0,57.219-33.36,90.035-91.527,90.035
			h-38.809v84.743C225.967,380.693,214.489,389.345,198.674,389.345z M194.193,116.347c-5.074,0-7.812,2.678-7.812,5.198v247.229
			c0,2.916,5.859,5.571,12.293,5.571c5.937,0,12.293-2.238,12.293-5.571V269.03h53.809c34.911,0,76.527-13.018,76.527-75.035v-2.988
			c0-49.541-24.994-74.661-74.287-74.661H194.193z M264.776,252.659h-53.809V136.452h53.809c33.01,0,51.941,20.293,51.941,55.676
			v4.482C316.718,232.23,297.786,252.659,264.776,252.659z M225.967,237.659h38.809c24.513,0,36.941-13.811,36.941-41.049v-4.482
			c0-27.371-12.084-40.676-36.941-40.676h-38.809V237.659z"/>
	</g>
</g>
<g>
</g>
<g>
</g>
<g>
</g>
<g>
</g>
<g>
</g>
<g>
</g>
<g>
</g>
<g>
</g>
<g>
</g>
<g>
</g>
<g>
</g>
<g>
</g>
<g>
</g>
<g>
</g>
<g>
</g>
</svg>
