<?xml version="1.0" encoding="iso-8859-1"?>
<!-- Generator: Adobe Illustrator 19.0.0, SVG Export Plug-In . SVG Version: 6.00 Build 0)  -->
<svg version="1.1" id="Capa_1" xmlns="http://www.w3.org/2000/svg" xmlns:xlink="http://www.w3.org/1999/xlink" x="0px" y="0px"
	 viewBox="0 0 512 512" style="enable-background:new 0 0 512 512;" xml:space="preserve">
<g>
	<g>
		<path d="M437.019,74.981C388.668,26.628,324.38,0,256,0c-18.013,0-36.003,1.883-53.473,5.595c-4.048,0.86-6.633,4.84-5.773,8.889
			c0.86,4.048,4.843,6.637,8.889,5.773c16.447-3.496,33.39-5.267,50.357-5.267c132.894,0,241.01,108.117,241.01,241.011
			c0,132.894-108.117,241.01-241.01,241.01S14.99,388.894,14.99,256.001c0-93.779,55.056-179.744,140.259-219.008
			c3.759-1.732,5.402-6.184,3.67-9.943c-1.733-3.76-6.183-5.405-9.943-3.67c-43.84,20.201-80.998,52.294-107.459,92.808
			C14.356,157.771,0,206.119,0,256.001c0,68.379,26.629,132.667,74.981,181.018C123.332,485.372,187.62,512,256,512
			s132.668-26.628,181.019-74.98C485.372,388.669,512,324.381,512,256.001S485.371,123.333,437.019,74.981z"/>
	</g>
</g>
<g>
	<g>
		<path d="M436.73,238.788c-4.772-3.742-11.17-4.517-16.697-2.015l-25.052,11.337l-9.762-21.574
			c-1.707-3.771-6.15-5.445-9.918-3.738c-3.77,1.706-5.445,6.148-3.738,9.918l10.792,23.85c2.84,6.272,10.255,9.07,16.531,6.23
			l27.328-12.366c0.167-0.077,0.679-0.309,1.269,0.153c0.588,0.461,0.485,1.013,0.451,1.195l-22.588,121.188
			c-0.078,0.418-0.314,0.719-0.703,0.895c-0.392,0.176-0.773,0.154-1.139-0.063l-105.944-63.025
			c-0.16-0.095-0.643-0.383-0.601-1.128c0.042-0.745,0.554-0.978,0.723-1.054l27.329-12.366c6.275-2.841,9.069-10.256,6.229-16.529
			l-51.76-114.388c-1.602-3.543-0.025-7.728,3.517-9.331l38.269-17.317c3.544-1.603,7.729-0.024,9.331,3.518l19.044,42.086
			c1.706,3.77,6.146,5.445,9.918,3.738c3.77-1.707,5.445-6.148,3.738-9.918l-19.044-42.086
			c-5.011-11.07-18.092-16.002-29.167-10.994l-38.27,17.317c-11.071,5.011-16.003,18.095-10.992,29.167l50.731,112.111
			l-25.051,11.336c-5.527,2.5-9.171,7.817-9.509,13.873c-0.34,6.056,2.688,11.745,7.901,14.847l105.945,63.025
			c2.545,1.514,5.415,2.279,8.296,2.279c2.274,0,4.556-0.478,6.685-1.44c4.827-2.184,8.288-6.598,9.259-11.807l22.588-121.187
			C443.779,248.561,441.503,242.531,436.73,238.788z"/>
	</g>
</g>
<g>
	<g>
		<path d="M235.188,142.319L235.188,142.319l-38.27-17.317c-11.075-5.013-24.156-0.077-29.167,10.994l-50.731,112.111L91.969,236.77
			c-5.526-2.501-11.926-1.728-16.697,2.015c-4.773,3.743-7.048,9.773-5.937,15.737L91.923,375.71
			c0.97,5.208,4.432,9.622,9.259,11.808c2.13,0.963,4.411,1.441,6.686,1.441c2.88,0,5.751-0.766,8.295-2.28l105.945-63.025
			c5.213-3.101,8.241-8.79,7.901-14.847c-0.339-6.057-3.983-11.373-9.509-13.873l-25.051-11.336l50.731-112.111
			C251.191,160.413,246.26,147.331,235.188,142.319z M232.526,165.305l-51.76,114.386c-2.84,6.275-0.046,13.689,6.23,16.53
			l27.328,12.366c0.169,0.076,0.681,0.309,0.722,1.054c0.042,0.745-0.442,1.033-0.601,1.128l-105.945,63.025
			c-0.367,0.217-0.747,0.239-1.138,0.063c-0.389-0.175-0.625-0.477-0.703-0.896L84.072,251.776
			c-0.034-0.181-0.137-0.734,0.451-1.195c0.274-0.215,0.531-0.279,0.745-0.279c0.246,0,0.434,0.085,0.524,0.126l27.33,12.366
			c6.278,2.836,13.689,0.042,16.529-6.232l51.76-114.388c1.602-3.542,5.789-5.12,9.331-3.518l38.268,17.317
			C232.551,157.577,234.129,161.763,232.526,165.305z"/>
	</g>
</g>
<g>
</g>
<g>
</g>
<g>
</g>
<g>
</g>
<g>
</g>
<g>
</g>
<g>
</g>
<g>
</g>
<g>
</g>
<g>
</g>
<g>
</g>
<g>
</g>
<g>
</g>
<g>
</g>
<g>
</g>
</svg>
