<?xml version="1.0" encoding="iso-8859-1"?>
<!-- Generator: Adobe Illustrator 19.0.0, SVG Export Plug-In . SVG Version: 6.00 Build 0)  -->
<svg version="1.1" id="Capa_1" xmlns="http://www.w3.org/2000/svg" xmlns:xlink="http://www.w3.org/1999/xlink" x="0px" y="0px"
	 viewBox="0 0 512 512" style="enable-background:new 0 0 512 512;" xml:space="preserve">
<g>
	<g>
		<path d="M482.452,358.768c-3.717-1.827-8.207-0.296-10.032,3.42C431.536,445.35,348.61,497.011,256,497.011
			c-132.894,0-241.01-108.117-241.01-241.01c0-32.962,6.532-64.902,19.414-94.933c1.632-3.804-0.129-8.211-3.933-9.843
			c-3.803-1.633-8.21,0.13-9.842,3.933C6.94,187.068,0,220.996,0,256.001c0,68.379,26.628,132.667,74.981,181.018
			C123.333,485.372,187.621,512,256,512c48.76,0,96.183-13.761,137.145-39.796c39.863-25.338,71.928-61.094,92.727-103.404
			C487.697,365.085,486.167,360.593,482.452,358.768z"/>
	</g>
</g>
<g>
	<g>
		<path d="M437.019,74.981C388.668,26.628,324.38,0,256,0c-41.3,0-82.339,10.067-118.68,29.115
			c-35.168,18.432-66.039,45.25-89.276,77.553c-2.417,3.362-1.653,8.044,1.708,10.462c3.361,2.417,8.044,1.653,10.461-1.708
			C105.45,52.533,178.641,14.99,256,14.99c132.895,0,241.01,108.117,241.01,241.011c0,19.34-2.296,38.582-6.824,57.191
			c-0.978,4.022,1.489,8.076,5.51,9.055c0.595,0.146,1.191,0.215,1.778,0.215c3.377,0,6.443-2.298,7.276-5.725
			c4.812-19.768,7.25-40.203,7.25-60.736C512,187.621,485.371,123.333,437.019,74.981z"/>
	</g>
</g>
<g>
	<g>
		<path d="M388.381,242.697l-101.1-70.54c-4.976-3.473-11.408-3.883-16.784-1.079c-5.378,2.806-8.72,8.317-8.72,14.383v27.498
			H138.723c-12.153,0-22.04,9.887-22.04,22.04v42.005c0,12.153,9.887,22.041,22.04,22.041h123.054v27.498
			c0,6.067,3.342,11.577,8.721,14.383c2.369,1.237,4.944,1.848,7.508,1.848c3.255,0,6.495-0.986,9.277-2.929l101.099-70.539
			c4.344-3.033,6.938-8.005,6.938-13.304S392.726,245.729,388.381,242.697z M379.802,257.014l-101.099,70.539
			c-0.151,0.105-0.614,0.426-1.274,0.082c-0.663-0.346-0.663-0.907-0.663-1.092v-29.996c0-6.888-5.603-12.491-12.491-12.491H138.723
			c-3.887,0-7.05-3.163-7.05-7.051V235c0-3.887,3.163-7.05,7.05-7.05v0.001h125.554c6.888,0,12.491-5.603,12.491-12.491v-29.996
			c0-0.185,0-0.747,0.663-1.092c0.661-0.347,1.124-0.024,1.274,0.081l101.098,70.54c0.349,0.244,0.527,0.585,0.527,1.011
			S380.152,256.77,379.802,257.014z"/>
	</g>
</g>
<g>
</g>
<g>
</g>
<g>
</g>
<g>
</g>
<g>
</g>
<g>
</g>
<g>
</g>
<g>
</g>
<g>
</g>
<g>
</g>
<g>
</g>
<g>
</g>
<g>
</g>
<g>
</g>
<g>
</g>
</svg>
