<?xml version="1.0" encoding="iso-8859-1"?>
<!-- Generator: Adobe Illustrator 19.0.0, SVG Export Plug-In . SVG Version: 6.00 Build 0)  -->
<svg version="1.1" id="Capa_1" xmlns="http://www.w3.org/2000/svg" xmlns:xlink="http://www.w3.org/1999/xlink" x="0px" y="0px"
	 viewBox="0 0 512 512" style="enable-background:new 0 0 512 512;" xml:space="preserve">
<g>
	<g>
		<path d="M480.311,363.35c-3.678-1.902-8.199-0.463-10.1,3.215C428.594,447.026,346.513,497.01,256,497.01
			c-40.45,0-80.456-10.212-115.695-29.531c-3.63-1.993-8.184-0.661-10.175,2.969c-1.99,3.63-0.661,8.185,2.969,10.175
			C170.539,501.151,213.038,512,256,512c47.846,0,94.511-13.284,134.95-38.419c39.322-24.439,71.333-59.063,92.575-100.13
			C485.426,369.775,483.987,365.252,480.311,363.35z"/>
	</g>
</g>
<g>
	<g>
		<path d="M437.019,74.981C388.667,26.628,324.38,0,256,0S123.333,26.628,74.981,74.981C26.628,123.333,0,187.62,0,256.001
			c0,73.589,31.721,143.686,87.027,192.316c1.424,1.252,3.189,1.867,4.947,1.867c2.08,0,4.149-0.86,5.631-2.545
			c2.733-3.108,2.428-7.844-0.68-10.577C44.854,391.275,14.99,325.282,14.99,256.001C14.99,123.106,123.106,14.99,256,14.99
			s241.01,108.117,241.011,241.011c0,21.373-2.798,42.57-8.316,63.003c-1.079,3.996,1.285,8.11,5.281,9.189
			c3.998,1.076,8.109-1.285,9.19-5.281c5.862-21.707,8.834-44.218,8.834-66.91C512,187.621,485.371,123.333,437.019,74.981z"/>
	</g>
</g>
<g>
	<g>
		<path d="M373.278,212.96H250.224v-27.498c0-6.067-3.341-11.577-8.719-14.383c-5.378-2.806-11.811-2.392-16.785,1.079
			l-101.098,70.54c-4.345,3.032-6.939,8.005-6.939,13.304c0,5.298,2.593,10.273,6.939,13.304l101.098,70.539
			c2.783,1.943,6.022,2.928,9.278,2.928c2.564-0.001,5.138-0.613,7.507-1.847c5.379-2.806,8.72-8.317,8.72-14.383v-27.498h123.054
			c12.153,0,22.04-9.888,22.04-22.041V235C395.318,222.847,385.431,212.96,373.278,212.96z M380.33,277.003
			c0,3.888-3.163,7.051-7.05,7.051H247.727c-6.888,0-12.491,5.603-12.491,12.491v29.996c0,0.185,0,0.746-0.663,1.092
			c-0.664,0.344-1.124,0.023-1.275-0.082L132.2,257.014c-0.35-0.245-0.527-0.585-0.527-1.011s0.177-0.766,0.527-1.011
			l101.097-70.539c0.102-0.071,0.341-0.238,0.687-0.238c0.172,0,0.37,0.041,0.59,0.154c0.663,0.346,0.663,0.907,0.663,1.092v29.996
			c0,6.888,5.603,12.491,12.491,12.491h125.553c3.887,0,7.05,3.163,7.05,7.05V277.003z"/>
	</g>
</g>
<g>
</g>
<g>
</g>
<g>
</g>
<g>
</g>
<g>
</g>
<g>
</g>
<g>
</g>
<g>
</g>
<g>
</g>
<g>
</g>
<g>
</g>
<g>
</g>
<g>
</g>
<g>
</g>
<g>
</g>
</svg>
