<?xml version="1.0" encoding="iso-8859-1"?>
<!-- Generator: Adobe Illustrator 19.0.0, SVG Export Plug-In . SVG Version: 6.00 Build 0)  -->
<svg version="1.1" id="Capa_1" xmlns="http://www.w3.org/2000/svg" xmlns:xlink="http://www.w3.org/1999/xlink" x="0px" y="0px"
	 viewBox="0 0 512 512" style="enable-background:new 0 0 512 512;" xml:space="preserve">
<g>
	<g>
		<path d="M478.11,128.625c-21.503-37.418-52.365-69.055-89.251-91.491c-3.536-2.151-8.145-1.027-10.298,2.508
			c-2.151,3.536-1.028,8.147,2.508,10.298C453.668,94.101,497.01,171.133,497.01,256.001c0,132.894-108.117,241.01-241.01,241.01
			S14.99,388.894,14.99,256.001C14.99,123.106,123.106,14.99,256,14.99c27.177,0,53.846,4.487,79.264,13.337
			c3.909,1.36,8.181-0.705,9.542-4.614c1.361-3.909-0.705-8.182-4.614-9.542C313.185,4.768,284.858,0,256,0
			C187.62,0,123.333,26.628,74.981,74.981C26.629,123.333,0,187.622,0,256.001s26.628,132.667,74.981,181.018
			C123.333,485.372,187.62,512,256,512s132.668-26.628,181.019-74.98C485.371,388.669,512,324.381,512,256.001
			C512,211.25,500.281,167.203,478.11,128.625z"/>
	</g>
</g>
<g>
	<g>
		<path d="M339.845,224.721l-70.539-101.097c-3.032-4.345-8.005-6.94-13.304-6.94c-5.298,0-10.272,2.594-13.304,6.939
			l-70.539,101.098c-3.473,4.976-3.885,11.406-1.08,16.785c2.806,5.378,8.317,8.72,14.383,8.72h27.497v32.757
			c0,4.14,3.356,7.495,7.495,7.495c4.139,0,7.495-3.355,7.495-7.495v-35.255c0-6.888-5.603-12.491-12.491-12.491h-29.995
			c-0.185,0-0.746,0-1.092-0.663c-0.346-0.662-0.024-1.123,0.082-1.274l70.539-101.098c0.488-0.701,1.533-0.701,2.021,0
			L327.55,233.3c0.106,0.151,0.428,0.613,0.082,1.274c-0.345,0.663-0.907,0.663-1.092,0.663h-29.995
			c-6.888,0-12.491,5.603-12.491,12.491V373.28c0,3.888-3.163,7.051-7.05,7.051h-42.005c-6.363,0-7.05-10.106-7.05-14.452v-31.004
			c0-4.14-3.356-7.495-7.495-7.495s-7.495,3.355-7.495,7.495v31.004c0,21.708,11.385,29.442,22.04,29.442h42.005
			c12.153,0,22.04-9.888,22.041-22.041V250.226h27.497c6.066,0,11.577-3.342,14.383-8.72
			C343.729,236.127,343.316,229.696,339.845,224.721z"/>
	</g>
</g>
<g>
</g>
<g>
</g>
<g>
</g>
<g>
</g>
<g>
</g>
<g>
</g>
<g>
</g>
<g>
</g>
<g>
</g>
<g>
</g>
<g>
</g>
<g>
</g>
<g>
</g>
<g>
</g>
<g>
</g>
</svg>
