<?xml version="1.0" encoding="iso-8859-1"?>
<!-- Generator: Adobe Illustrator 19.0.0, SVG Export Plug-In . SVG Version: 6.00 Build 0)  -->
<svg version="1.1" id="Capa_1" xmlns="http://www.w3.org/2000/svg" xmlns:xlink="http://www.w3.org/1999/xlink" x="0px" y="0px"
	 viewBox="0 0 511.999 511.999" style="enable-background:new 0 0 511.999 511.999;" xml:space="preserve">
<g>
	<g>
		<path d="M437.02,74.981C388.668,26.628,324.381,0,256.001,0S123.333,26.628,74.981,74.981C26.63,123.332,0.001,187.62,0.001,256
			c0,93.025,50.587,178.868,132.019,224.027c3.619,2.007,8.182,0.7,10.189-2.92c2.008-3.619,0.701-8.182-2.919-10.189
			C62.619,424.399,14.99,343.58,14.99,256c0-50.865,15.853-98.09,42.857-137.023l30.178,30.177
			c-20.363,31.917-31.088,68.651-31.088,106.848c0,109.764,89.299,199.064,199.064,199.064c39.271,0,75.914-11.441,106.792-31.151
			l30.235,30.234c-38.934,27.007-86.16,42.861-137.028,42.861c-23.201,0-46.139-3.29-68.179-9.777
			c-3.974-1.17-8.138,1.103-9.307,5.073c-1.169,3.971,1.102,8.137,5.073,9.307c23.416,6.892,47.779,10.387,72.412,10.387
			c68.148,0,132.225-26.454,180.52-74.494c0.126-0.124,0.254-0.246,0.38-0.371c0.039-0.039,0.08-0.077,0.119-0.116
			c0.301-0.301,0.591-0.61,0.89-0.912c7.192-7.192,13.976-14.801,20.28-22.811c0.406-0.516,0.753-1.058,1.066-1.615
			c34.205-44.468,52.744-98.647,52.744-155.682C512,187.62,485.371,123.332,437.02,74.981z M256.001,440.076
			c-101.498,0-184.074-82.576-184.074-184.074c0-34.492,9.792-67.518,27.104-95.842l63.694,63.693v159.533
			c0,6.888,5.603,12.491,12.491,12.491h59.647c6.888,0,12.491-5.603,12.491-12.491v-74.907l17.295,17.294v57.613
			c0,6.888,5.603,12.491,12.491,12.491h57.615l17.168,17.168C323.971,430.181,291.122,440.076,256.001,440.076z M177.715,380.886
			V238.841l54.65,54.648v87.397H177.715z M279.638,380.887v-40.125l40.126,40.125H279.638z M413.881,437.951
			c-0.44,0.378-0.881,0.755-1.323,1.13c-0.75,0.643-1.505,1.28-2.262,1.914c-1.686,1.392-3.387,2.766-5.11,4.111L67.538,107.468
			l39.379-39.861L444.861,405.55C435.551,417.283,425.179,428.135,413.881,437.951z M191.626,131.117h40.739v40.739L191.626,131.117
			z M279.638,219.13v-88.012h54.65v142.661L279.638,219.13z M453.899,393.389l-30.225-30.225
			c19.855-30.956,31.391-67.734,31.391-107.163c0-109.764-89.299-199.064-199.064-199.064c-4.126,0-8.3,0.128-12.405,0.381
			c-4.131,0.254-7.274,3.809-7.02,7.94c0.254,4.13,3.775,7.273,7.941,7.02c3.8-0.234,7.664-0.353,11.484-0.353
			c101.498,0,184.074,82.576,184.074,184.074c0,35.279-9.989,68.263-27.269,96.295l-63.529-63.529V128.619
			c0-6.888-5.603-12.491-12.491-12.491H277.14c-6.888,0-12.491,5.603-12.491,12.491v75.521l-17.295-17.295v-58.227
			c0-6.888-5.603-12.491-12.491-12.491h-58.227l-16.964-16.964c10.066-6.223,20.816-11.524,32.163-15.745
			c3.88-1.443,5.855-5.758,4.412-9.637c-1.442-3.879-5.759-5.858-9.637-4.412c-13.358,4.969-26.023,11.307-37.854,18.878
			L118.609,58.1c39.005-27.158,86.367-43.11,137.391-43.11c132.893,0,241.01,108.117,241.01,241.01
			C497.011,307.025,481.058,354.387,453.899,393.389z"/>
	</g>
</g>
<g>
</g>
<g>
</g>
<g>
</g>
<g>
</g>
<g>
</g>
<g>
</g>
<g>
</g>
<g>
</g>
<g>
</g>
<g>
</g>
<g>
</g>
<g>
</g>
<g>
</g>
<g>
</g>
<g>
</g>
</svg>
