<?xml version="1.0" encoding="iso-8859-1"?>
<!-- Generator: Adobe Illustrator 19.0.0, SVG Export Plug-In . SVG Version: 6.00 Build 0)  -->
<svg version="1.1" id="Capa_1" xmlns="http://www.w3.org/2000/svg" xmlns:xlink="http://www.w3.org/1999/xlink" x="0px" y="0px"
	 viewBox="0 0 512.001 512.001" style="enable-background:new 0 0 512.001 512.001;" xml:space="preserve">
<g>
	<g>
		<path d="M437.019,74.982C388.668,26.629,324.38,0.001,256,0.001S123.332,26.629,74.981,74.982C26.629,123.333,0,187.621,0,256.001
			c0,24.58,3.479,48.889,10.341,72.254c1.166,3.97,5.329,6.244,9.304,5.079c3.972-1.166,6.246-5.331,5.079-9.304
			c-6.458-21.992-9.734-44.881-9.734-68.03c0-50.865,15.853-98.09,42.857-137.023l30.245,30.244
			c-19.708,30.877-31.155,67.513-31.155,106.781c0,109.764,89.299,199.064,199.064,199.064c39.271,0,75.915-11.44,106.795-31.149
			l30.233,30.232C354.094,481.156,306.867,497.01,256,497.01c-87.904,0-168.867-47.89-211.294-124.979
			c-1.996-3.627-6.554-4.948-10.18-2.953c-3.627,1.997-4.948,6.553-2.952,10.18C76.637,461.136,162.631,512,256,512
			c68.148,0,132.225-26.454,180.521-74.494c0.126-0.124,0.254-0.246,0.38-0.371c0.039-0.039,0.08-0.077,0.119-0.116
			c0.301-0.301,0.591-0.61,0.89-0.912c7.192-7.192,13.976-14.801,20.28-22.811c0.406-0.516,0.753-1.058,1.067-1.615
			c34.204-44.468,52.744-98.647,52.744-155.682C512,187.621,485.37,123.333,437.019,74.982z M256.001,440.077
			c-101.498,0-184.074-82.576-184.074-184.074c0-35.119,9.896-67.964,27.032-95.914l114.727,114.724v108.573
			c0,6.888,5.603,12.491,12.491,12.491h59.646c6.888,0,12.491-5.603,12.491-12.491v-23.946l53.606,53.604
			C323.97,430.181,291.122,440.077,256.001,440.077z M228.676,380.888v-91.086l54.65,54.648v36.438H228.676z M413.88,437.952
			c-0.44,0.378-0.88,0.755-1.324,1.13c-0.75,0.643-1.504,1.28-2.262,1.914c-1.686,1.392-3.387,2.766-5.11,4.111L67.537,107.469
			l39.379-39.861l217.237,217.236c2.928,2.927,7.673,2.927,10.6,0c2.927-2.927,2.927-7.673,0-10.599l-36.438-36.438V128.619
			c0-6.888-5.603-12.491-12.491-12.491h-59.647c-6.888,0-12.491,5.603-12.491,12.491v24.559l-53.99-53.989
			c28.034-17.28,61.025-27.26,96.304-27.26c101.498,0,184.074,82.576,184.074,184.074c0,35.279-9.988,68.264-27.268,96.296
			l-39.279-39.279c-2.928-2.927-7.673-2.927-10.6,0s-2.927,7.673,0,10.599l81.932,81.931
			C435.55,417.284,425.178,428.136,413.88,437.952z M228.676,168.168v-37.05h54.65v91.699L228.676,168.168z M453.898,393.39
			l-30.226-30.226c19.855-30.955,31.392-67.733,31.392-107.161c0-109.764-89.299-199.064-199.064-199.064
			c-39.429,0-76.207,11.536-107.162,31.391l-30.228-30.228C157.613,30.942,204.975,14.991,256,14.991
			c132.893,0,241.01,108.117,241.01,241.01C497.01,307.025,481.057,354.388,453.898,393.39z"/>
	</g>
</g>
<g>
</g>
<g>
</g>
<g>
</g>
<g>
</g>
<g>
</g>
<g>
</g>
<g>
</g>
<g>
</g>
<g>
</g>
<g>
</g>
<g>
</g>
<g>
</g>
<g>
</g>
<g>
</g>
<g>
</g>
</svg>
