<?xml version="1.0" encoding="iso-8859-1"?>
<!-- Generator: Adobe Illustrator 19.0.0, SVG Export Plug-In . SVG Version: 6.00 Build 0)  -->
<svg version="1.1" id="Capa_1" xmlns="http://www.w3.org/2000/svg" xmlns:xlink="http://www.w3.org/1999/xlink" x="0px" y="0px"
	 viewBox="0 0 512.001 512.001" style="enable-background:new 0 0 512.001 512.001;" xml:space="preserve">
<g>
	<g>
		<path d="M437.019,74.981C388.668,26.628,324.38,0,256,0S123.333,26.628,74.981,74.981C26.629,123.333,0,187.62,0,256
			c0,44.879,11.782,89.034,34.072,127.693c5.737,9.95,12.154,19.473,19.151,28.537c0.188,0.283,0.382,0.562,0.595,0.832
			c0.56,0.712,1.145,1.402,1.713,2.108c1.071,1.347,2.157,2.68,3.255,4.005c0.067,0.08,0.133,0.159,0.2,0.239
			c18.288,22.016,40.193,40.972,64.781,55.833c3.544,2.141,8.15,1.004,10.291-2.538c2.141-3.543,1.004-8.15-2.538-10.291
			c-4.368-2.64-8.627-5.401-12.781-8.273l30.328-30.327c30.909,19.766,67.603,31.248,106.936,31.248
			c39.333,0,76.028-11.48,106.937-31.246l30.232,30.231c-38.961,27.067-86.241,42.96-137.17,42.96
			c-26.468,0-52.477-4.261-77.304-12.663c-3.92-1.327-8.174,0.775-9.501,4.697c-1.327,3.921,0.775,8.175,4.697,9.501
			c26.379,8.928,54.004,13.455,82.11,13.455c68.38,0,132.668-26.628,181.019-74.981c48.352-48.352,74.981-112.64,74.981-181.02
			S485.371,123.332,437.019,74.981z M256,14.99c50.964,0,98.273,15.914,137.249,43.015L363.01,88.244
			C332.087,68.442,295.367,56.939,256,56.939c-39.366,0-76.068,11.522-106.984,31.33l-30.265-30.265
			C157.727,30.904,205.036,14.99,256,14.99z M352.142,99.111l-96.141,96.141l-96.126-96.125
			c27.994-17.231,60.91-27.199,96.126-27.199S324.144,81.885,352.142,99.111z M57.763,393.491
			C30.225,353.91,14.99,306.352,14.99,256c0-50.927,15.891-98.205,42.956-137.164l30.236,30.235
			c-19.765,30.908-31.244,67.601-31.244,106.932c0,39.367,11.496,76.094,31.294,107.02L57.763,393.491z M99.05,159.94l96.134,96.13
			l-96.08,96.08c-17.224-28.001-27.177-60.931-27.177-96.147C71.927,220.822,81.859,187.922,99.05,159.94z M256.001,440.076
			c-35.183,0-68.085-9.932-96.068-27.126l96.068-96.065l96.069,96.066C324.086,430.145,291.184,440.076,256.001,440.076z
			 M434.677,417.571c-9.066,9.901-18.927,19.047-29.492,27.295l-140.35-140.346c-4.871-4.871-12.795-4.872-17.666,0L106.819,444.866
			c-14.739-11.505-28.133-24.733-39.866-39.367l140.596-140.596c2.359-2.359,3.659-5.496,3.659-8.833s-1.299-6.474-3.659-8.833
			L67.536,107.228l39.381-39.861l140.252,140.25c2.359,2.359,5.496,3.658,8.833,3.658s6.474-1.299,8.833-3.658l140.251-140.25
			l39.381,39.861l-68.461,68.459c-2.928,2.927-2.928,7.672-0.001,10.599c2.927,2.927,7.673,2.927,10.599,0l26.347-26.346
			c17.191,27.983,27.126,60.881,27.126,96.061c0,35.217-9.953,68.147-27.177,96.147l-96.079-96.08l30.812-30.812
			c2.928-2.927,2.928-7.672,0.001-10.599c-2.927-2.927-7.672-2.927-10.6,0l-32.579,32.578c-4.869,4.871-4.869,12.794,0,17.665
			l140.516,140.516C441.668,409.581,438.238,413.636,434.677,417.571z M423.773,363.025c19.797-30.927,31.291-67.656,31.291-107.023
			c0-39.331-11.476-76.027-31.24-106.936l30.231-30.23c27.064,38.959,42.955,86.237,42.955,137.163
			c0,50.964-15.914,98.273-43.014,137.249L423.773,363.025z"/>
	</g>
</g>
<g>
</g>
<g>
</g>
<g>
</g>
<g>
</g>
<g>
</g>
<g>
</g>
<g>
</g>
<g>
</g>
<g>
</g>
<g>
</g>
<g>
</g>
<g>
</g>
<g>
</g>
<g>
</g>
<g>
</g>
</svg>
