<?xml version="1.0" encoding="iso-8859-1"?>
<!-- Generator: Adobe Illustrator 19.0.0, SVG Export Plug-In . SVG Version: 6.00 Build 0)  -->
<svg version="1.1" id="Capa_1" xmlns="http://www.w3.org/2000/svg" xmlns:xlink="http://www.w3.org/1999/xlink" x="0px" y="0px"
	 viewBox="0 0 512.001 512.001" style="enable-background:new 0 0 512.001 512.001;" xml:space="preserve">
<g>
	<g>
		<path d="M437.02,74.981C388.667,26.628,324.381,0,256,0S123.334,26.628,74.981,74.981C26.629,123.333,0,187.62,0,256
			s26.628,132.668,74.981,181.02C123.334,485.372,187.62,512.001,256,512.001c68.155,0,132.239-26.46,180.536-74.509
			c0.118-0.116,0.238-0.23,0.355-0.347c0.042-0.042,0.086-0.083,0.128-0.125c0.324-0.324,0.635-0.656,0.956-0.98
			c7.166-7.172,13.929-14.758,20.214-22.743c0.406-0.516,0.753-1.058,1.066-1.614C493.461,367.215,512,313.035,512,256
			C512,187.62,485.372,123.332,437.02,74.981z M256,497.01C123.107,497.01,14.99,388.894,14.99,256
			c0-50.865,15.853-98.09,42.857-137.023l30.234,30.234c-19.707,30.879-31.144,67.522-31.144,106.792
			c0,48.549,17.674,95.31,49.765,131.671c31.805,36.037,75.432,59.351,122.843,65.648c0.335,0.044,0.668,0.066,0.996,0.066
			c3.7,0,6.919-2.741,7.42-6.508c0.545-4.103-2.339-7.872-6.443-8.416c-90.983-12.086-159.593-90.527-159.593-182.461
			c0-35.119,9.9-67.961,27.035-95.911l252.906,252.899c-20.515,12.647-43.716,21.391-68.626,25.086
			c-4.094,0.607-6.921,4.419-6.315,8.513c0.607,4.094,4.42,6.923,8.513,6.315c27.697-4.107,54.041-14.06,77.402-28.939
			l30.186,30.185C354.095,481.156,306.868,497.01,256,497.01z M413.877,437.956c-0.432,0.371-0.864,0.74-1.298,1.108
			c-0.76,0.651-1.522,1.295-2.289,1.937c-1.685,1.39-3.384,2.763-5.105,4.107L67.536,107.468l39.381-39.861l61.313,61.312
			c2.927,2.927,7.673,2.927,10.599,0c2.927-2.927,2.927-7.673,0-10.599l-19.11-19.11c28.029-17.285,61.003-27.283,96.282-27.283
			c101.498,0,184.074,82.576,184.074,184.074c0,34.875-10.014,67.92-27.429,96.136L216.469,155.961
			c-2.927-2.927-7.673-2.927-10.599,0c-2.927,2.927-2.927,7.673,0,10.599L444.861,405.55
			C435.55,417.284,425.176,428.138,413.877,437.956z M453.899,393.389l-30.183-30.183c20.352-31.826,31.349-68.989,31.349-107.204
			c0-109.764-89.3-199.064-199.064-199.064c-39.429,0-76.204,11.539-107.156,31.398L118.61,58.102
			C157.613,30.941,204.975,14.99,256,14.99c132.894,0,241.01,108.117,241.01,241.01
			C497.011,307.025,481.058,354.387,453.899,393.389z"/>
	</g>
</g>
<g>
</g>
<g>
</g>
<g>
</g>
<g>
</g>
<g>
</g>
<g>
</g>
<g>
</g>
<g>
</g>
<g>
</g>
<g>
</g>
<g>
</g>
<g>
</g>
<g>
</g>
<g>
</g>
<g>
</g>
</svg>
