<?xml version="1.0" encoding="iso-8859-1"?>
<!-- Generator: Adobe Illustrator 19.0.0, SVG Export Plug-In . SVG Version: 6.00 Build 0)  -->
<svg version="1.1" id="Capa_1" xmlns="http://www.w3.org/2000/svg" xmlns:xlink="http://www.w3.org/1999/xlink" x="0px" y="0px"
	 viewBox="0 0 512 512" style="enable-background:new 0 0 512 512;" xml:space="preserve">
<g>
	<g>
		<path d="M407.751,371.8L277.615,154.005c-4.589-7.679-12.67-12.264-21.616-12.264s-17.026,4.585-21.615,12.264L104.248,371.8
			c-4.709,7.882-4.815,17.356-0.284,25.342c4.531,7.986,12.718,12.754,21.9,12.754h260.272c9.182,0,17.37-4.767,21.9-12.754
			C412.567,389.156,412.461,379.682,407.751,371.8z M395.005,389.749c-1.835,3.234-5.151,5.165-8.87,5.165H125.863
			c-3.718,0-7.034-1.931-8.869-5.165c-1.835-3.234-1.791-7.071,0.116-10.263l130.136-217.795c1.886-3.156,5.077-4.966,8.754-4.967
			c3.677,0,6.868,1.81,8.754,4.967l130.135,217.795C396.797,382.678,396.84,386.515,395.005,389.749z"/>
	</g>
</g>
<g>
	<g>
		<path d="M506.665,419.926L339.87,140.779c-2.123-3.552-6.722-4.709-10.274-2.587c-3.551,2.123-4.709,6.723-2.587,10.274
			l166.793,279.146c4.16,6.961,4.254,15.328,0.252,22.381c-4.002,7.053-11.232,11.264-19.341,11.264H138.139
			c-4.137,0-7.491,3.354-7.491,7.491c0,4.137,3.354,7.491,7.491,7.491h336.575c13.572,0,25.674-7.047,32.372-18.853
			C513.784,445.581,513.627,431.577,506.665,419.926z"/>
	</g>
</g>
<g>
	<g>
		<path d="M312.618,95.173l-24.667-41.282c-6.783-11.353-18.727-18.13-31.951-18.13s-25.168,6.777-31.951,18.129L5.335,419.927
			c-6.961,11.652-7.119,25.655-0.421,37.46s18.8,18.852,32.372,18.852h46.417c4.137,0,7.491-3.354,7.491-7.491
			c0-4.137-3.354-7.491-7.491-7.491H37.286c-8.109,0-15.339-4.211-19.341-11.264c-4.002-7.053-3.908-15.42,0.252-22.381
			L236.911,61.574c4.053-6.782,11.189-10.831,19.09-10.831s15.037,4.049,19.089,10.832l24.666,41.284
			c2.122,3.551,6.722,4.71,10.274,2.588C313.581,103.324,314.74,98.725,312.618,95.173z"/>
	</g>
</g>
<g>
	<g>
		<path d="M358.932,350.307h-33.268c-10.811-20.039-38.502-33.646-69.664-33.646c-31.161,0-58.853,13.607-69.664,33.646h-33.268
			c-10.199,0-18.496,8.296-18.496,18.495c0,10.199,8.298,18.496,18.496,18.496h205.865c10.198,0,18.495-8.298,18.495-18.496
			S369.13,350.307,358.932,350.307z M358.933,372.315H153.068c-1.937,0-3.513-1.576-3.513-3.513s1.576-3.513,3.513-3.513h38.046
			c3.097,0,5.874-1.905,6.989-4.795c6.449-16.717,30.799-28.851,57.898-28.851s51.449,12.134,57.898,28.851
			c1.115,2.89,3.892,4.795,6.989,4.795h38.045c1.937,0,3.513,1.576,3.513,3.513S360.87,372.315,358.933,372.315z"/>
	</g>
</g>
<g>
</g>
<g>
</g>
<g>
</g>
<g>
</g>
<g>
</g>
<g>
</g>
<g>
</g>
<g>
</g>
<g>
</g>
<g>
</g>
<g>
</g>
<g>
</g>
<g>
</g>
<g>
</g>
<g>
</g>
</svg>
