<?xml version="1.0" encoding="iso-8859-1"?>
<!-- Generator: Adobe Illustrator 19.0.0, SVG Export Plug-In . SVG Version: 6.00 Build 0)  -->
<svg version="1.1" id="Capa_1" xmlns="http://www.w3.org/2000/svg" xmlns:xlink="http://www.w3.org/1999/xlink" x="0px" y="0px"
	 viewBox="0 0 512.001 512.001" style="enable-background:new 0 0 512.001 512.001;" xml:space="preserve">
<g>
	<g>
		<path d="M130.758,249.924L130.758,249.924L130.758,249.924z"/>
	</g>
</g>
<g>
	<g>
		<path d="M502.865,187.991c-1.097-3.99-5.211-6.338-9.214-5.24c-3.99,1.097-6.338,5.222-5.239,9.214
			c5.705,20.755,8.598,42.299,8.598,64.035c0,51.025-15.952,98.388-43.112,137.389l-30.24-30.24
			c19.861-30.951,31.407-67.719,31.407-107.148c0-109.764-89.299-199.064-199.064-199.064c-39.43,0-76.213,11.529-107.168,31.385
			l-30.448-30.448C158.013,30.27,205.638,14.99,256.001,14.99c89.945,0,171.789,49.529,213.591,129.257
			c1.34,2.555,3.946,4.016,6.644,4.016c1.172,0,2.362-0.276,3.474-0.858c3.666-1.923,5.079-6.453,3.158-10.118
			C438.469,52.605,351.538,0,256.001,0c-44.668,0-88.643,11.679-127.173,33.773C91.463,55.2,59.841,85.964,37.378,122.739
			c-2.157,3.533-1.043,8.145,2.489,10.303c3.529,2.157,8.145,1.043,10.303-2.489c2.43-3.979,4.966-7.864,7.59-11.664l30.328,30.328
			c-19.707,30.878-31.15,67.517-31.15,106.786c0,109.764,89.299,199.064,199.064,199.064c39.271,0,75.916-11.439,106.795-31.148
			l30.232,30.231c-38.934,27.007-86.16,42.861-137.028,42.861C123.108,497.01,14.991,388.894,14.991,256
			c0-27.347,4.542-54.173,13.5-79.733c1.369-3.906-0.688-8.182-4.595-9.552c-3.903-1.368-8.183,0.688-9.552,4.595
			C4.827,198.466,0.001,226.96,0.001,256c0,68.38,26.628,132.668,74.981,181.02c48.351,48.352,112.639,74.981,181.019,74.981
			c68.148,0,132.225-26.454,180.52-74.494c0.126-0.124,0.254-0.246,0.38-0.371c0.039-0.039,0.08-0.077,0.119-0.116
			c0.301-0.301,0.591-0.61,0.89-0.912c7.192-7.192,13.976-14.801,20.28-22.811c0.405-0.516,0.752-1.059,1.065-1.615
			C493.461,367.214,512,313.034,512,256C512,232.921,508.927,210.04,502.865,187.991z M256.002,71.928
			c101.498,0,184.074,82.576,184.074,184.074c0,35.279-9.995,68.257-27.278,96.287l-54.426-54.426v-88.614
			c0-56.61-46.056-102.666-102.666-102.666c-24.735,0-47.443,8.804-65.184,23.431l-30.806-30.806
			C187.746,81.923,220.723,71.928,256.002,71.928z M255.706,167.013c-8.05,0-15.569,2.28-21.974,6.21l-32.56-32.56
			c14.979-11.94,33.933-19.091,54.534-19.091c48.345,0,87.676,39.332,87.676,87.676v73.625l-45.441-45.441v-28.183
			C297.942,185.96,278.995,167.013,255.706,167.013z M282.953,209.25v13.193h-0.001l-38.143-38.143
			c3.341-1.466,7.022-2.295,10.898-2.295C270.731,182.003,282.953,194.226,282.953,209.25z M256.002,440.076
			c-101.498,0-184.074-82.576-184.074-184.074c0-35.119,9.899-67.961,27.035-95.911l54.077,54.075v20.767h-22.249
			c-5.576,0-10.643,3.072-13.222,8.016c-2.579,4.945-2.198,10.856,0.992,15.429l59.957,85.932c2.787,3.995,7.359,6.38,12.228,6.381
			c0.001,0,0.001,0,0.002,0c4.87,0,9.442-2.385,12.229-6.38l32.963-47.244l47.008,47.007V368.1c0,10.949,8.909,19.858,19.858,19.858
			h24.026l25.083,25.082C323.968,430.177,291.122,440.076,256.002,440.076z M160.535,249.923c4.139,0,7.495-3.356,7.495-7.495
			v-13.272l57.148,57.146l-34.427,49.342l-59.809-85.721H160.535z M297.943,359.065l13.904,13.903h-9.036
			c-2.685,0-4.869-2.184-4.869-4.869V359.065z M413.881,437.951c-0.44,0.378-0.881,0.755-1.323,1.13
			c-0.75,0.643-1.505,1.28-2.262,1.914c-1.687,1.392-3.388,2.765-5.111,4.111L67.538,107.468l39.379-39.861L444.862,405.55
			C435.552,417.283,425.179,428.135,413.881,437.951z"/>
	</g>
</g>
<g>
</g>
<g>
</g>
<g>
</g>
<g>
</g>
<g>
</g>
<g>
</g>
<g>
</g>
<g>
</g>
<g>
</g>
<g>
</g>
<g>
</g>
<g>
</g>
<g>
</g>
<g>
</g>
<g>
</g>
</svg>
