<?xml version="1.0" encoding="iso-8859-1"?>
<!-- Generator: Adobe Illustrator 19.0.0, SVG Export Plug-In . SVG Version: 6.00 Build 0)  -->
<svg version="1.1" id="Capa_1" xmlns="http://www.w3.org/2000/svg" xmlns:xlink="http://www.w3.org/1999/xlink" x="0px" y="0px"
	 viewBox="0 0 512.001 512.001" style="enable-background:new 0 0 512.001 512.001;" xml:space="preserve">
<g>
	<g>
		<path d="M380.849,249.924h0.011H380.849z"/>
	</g>
</g>
<g>
	<g>
		<path d="M437.019,74.981C388.668,26.628,324.38,0,256,0S123.332,26.628,74.981,74.981C26.629,123.332,0,187.62,0,256
			s26.628,132.668,74.981,181.02C123.332,485.372,187.62,512.001,256,512.001c68.148,0,132.225-26.454,180.52-74.494
			c0.126-0.124,0.254-0.246,0.38-0.371c0.039-0.039,0.08-0.077,0.119-0.116c0.301-0.301,0.591-0.61,0.89-0.912
			c7.192-7.192,13.976-14.801,20.28-22.811c0.406-0.516,0.753-1.058,1.067-1.615c34.204-44.468,52.744-98.647,52.744-155.682
			C512,187.62,485.37,123.332,437.019,74.981z M256,497.01C123.107,497.01,14.99,388.894,14.99,256
			c0-50.865,15.853-98.09,42.857-137.023l30.235,30.234c-19.708,30.878-31.145,67.521-31.145,106.791
			c0,109.764,89.299,199.064,199.064,199.064c39.271,0,75.915-11.44,106.795-31.148l30.232,30.232
			C354.095,481.156,306.868,497.01,256,497.01z M173.092,387.958h35.704c10.949,0,19.857-8.909,19.857-19.858v-78.322
			l123.269,123.266c-27.952,17.137-60.802,27.031-95.922,27.031c-101.498,0-184.074-82.576-184.074-184.074
			c0-35.119,9.892-67.968,27.027-95.919l54.28,54.279V368.1C153.234,379.049,162.142,387.958,173.092,387.958z M168.225,229.353
			l45.439,45.437v93.31c0,2.684-2.185,4.869-4.868,4.869h-35.704c-2.684,0-4.868-2.185-4.868-4.869V229.353z M413.88,437.951
			c-0.44,0.378-0.88,0.755-1.324,1.13c-0.75,0.643-1.504,1.28-2.262,1.914c-1.686,1.392-3.387,2.766-5.11,4.111L67.537,107.468
			l39.379-39.861L222.618,183.31c-0.028,0.036-0.058,0.069-0.086,0.105c0.052-0.014,0.103-0.023,0.154-0.036l71.705,71.705
			c2.929,2.927,7.674,2.925,10.6,0c2.927-2.927,2.927-7.673,0-10.599l-6.856-6.856V209.25c0-23.289-18.947-42.236-42.236-42.236
			c-8.101,0-15.663,2.31-22.095,6.284l-32.546-32.546c14.994-11.994,33.99-19.179,54.641-19.179
			c48.344,0,87.675,39.332,87.675,87.676v33.18c0,4.139,3.355,7.495,7.495,7.495h29.595l-28.865,41.369l-8.834-8.834
			c-2.927-2.927-7.672-2.928-10.6,0c-2.927,2.927-2.927,7.673,0,10.599L444.859,405.55
			C435.55,417.283,425.178,428.135,413.88,437.951z M244.855,184.346c3.378-1.505,7.115-2.343,11.045-2.343
			c15.023,0,27.246,12.223,27.246,27.246v13.389L244.855,184.346z M453.898,393.389l-30.224-30.225
			c19.855-30.956,31.391-67.734,31.391-107.163c0-31.99-7.359-62.542-21.874-90.808c-13.842-26.958-34.038-50.798-58.403-68.944
			c-3.318-2.472-8.015-1.786-10.488,1.535c-2.472,3.32-1.785,8.015,1.535,10.488c47.181,35.137,74.24,88.982,74.24,147.73
			c0,35.279-9.983,68.268-27.262,96.302l-50.245-50.245l30.476-43.679c3.191-4.574,3.572-10.486,0.992-15.43
			c-2.579-4.944-7.645-8.015-13.221-8.015h-22.25V209.25c0-56.61-46.056-102.666-102.666-102.666
			c-24.785,0-47.529,8.844-65.284,23.525l-30.913-30.912c28.033-17.281,61.019-27.267,96.297-27.267
			c21.91,0,43.344,3.809,63.706,11.32c3.884,1.434,8.193-0.555,9.625-4.438c1.433-3.883-0.555-8.193-4.437-9.625
			c-22.029-8.126-45.208-12.247-68.893-12.247c-39.429,0-76.209,11.533-107.164,31.389l-30.226-30.226
			C157.613,30.941,204.975,14.99,256,14.99c132.893,0,241.01,108.117,241.01,241.01C497.01,307.025,481.057,354.387,453.898,393.389
			z"/>
	</g>
</g>
<g>
</g>
<g>
</g>
<g>
</g>
<g>
</g>
<g>
</g>
<g>
</g>
<g>
</g>
<g>
</g>
<g>
</g>
<g>
</g>
<g>
</g>
<g>
</g>
<g>
</g>
<g>
</g>
<g>
</g>
</svg>
