<?xml version="1.0" encoding="iso-8859-1"?>
<!-- Generator: Adobe Illustrator 19.0.0, SVG Export Plug-In . SVG Version: 6.00 Build 0)  -->
<svg version="1.1" id="Capa_1" xmlns="http://www.w3.org/2000/svg" xmlns:xlink="http://www.w3.org/1999/xlink" x="0px" y="0px"
	 viewBox="0 0 512 512" style="enable-background:new 0 0 512 512;" xml:space="preserve">
<g>
	<g>
		<path d="M437.019,74.981C388.668,26.628,324.38,0,256,0S123.333,26.629,74.981,74.981C26.628,123.332,0,187.621,0,256
			s26.628,132.667,74.981,181.019C123.333,485.372,187.62,512,256,512s132.668-26.628,181.019-74.98
			C485.372,388.668,512,324.38,512,256S485.371,123.333,437.019,74.981z M256,497.01C123.106,497.01,14.99,388.894,14.99,256
			S123.106,14.99,256,14.99c132.893,0,241.01,108.117,241.01,241.01S388.893,497.01,256,497.01z"/>
	</g>
</g>
<g>
	<g>
		<path d="M256.001,56.938c-37.437,0-73.918,10.452-105.499,30.225c-30.715,19.232-55.621,46.443-72.029,78.691
			c-1.877,3.688-0.408,8.201,3.282,10.078c3.688,1.875,8.2,0.408,10.078-3.282c31.609-62.128,94.514-100.723,164.168-100.723
			c101.498,0,184.074,82.576,184.074,184.074c0,83.8-56.564,157.057-137.55,178.146c-4.006,1.043-6.408,5.135-5.364,9.142
			c0.878,3.373,3.918,5.608,7.248,5.608c0.625,0,1.261-0.079,1.894-0.244c87.589-22.809,148.763-102.03,148.763-192.652
			C455.065,146.238,365.766,56.938,256.001,56.938z"/>
	</g>
</g>
<g>
	<g>
		<path d="M249.94,439.978c-99.822-3.226-178.015-84.038-178.015-183.976c0-11.584,1.083-23.177,3.219-34.458
			c0.771-4.067-1.903-7.987-5.97-8.758c-4.063-0.772-7.987,1.903-8.758,5.97c-2.308,12.198-3.48,24.729-3.48,37.246
			c0,52.032,19.947,101.251,56.168,138.59c36.14,37.256,84.564,58.694,136.353,60.368c0.083,0.003,0.165,0.004,0.247,0.004
			c4.027,0,7.356-3.198,7.484-7.253C257.322,443.574,254.077,440.112,249.94,439.978z"/>
	</g>
</g>
<g>
	<g>
		<path d="M362.369,309.98h-24.942c-5.996,0-10.874,4.879-10.874,10.874v21.696h-42.928c-3.575-11.872-14.604-20.546-27.625-20.546
			c-13.022,0-24.05,8.674-27.626,20.546h-42.927v-21.696c0-5.996-4.878-10.874-10.874-10.874h-24.941
			c-5.996,0-10.874,4.879-10.874,10.874v57.928c0,5.996,4.879,10.874,10.874,10.874h24.941c5.996,0,10.874-4.879,10.874-10.874
			v-21.462h42.443c2.945,12.802,14.426,22.381,28.109,22.381c13.684,0,25.164-9.579,28.108-22.381h42.445v21.462
			c0,5.996,4.879,10.874,10.874,10.874h24.942c5.996,0,10.874-4.879,10.874-10.874v-57.928
			C373.243,314.859,368.365,309.98,362.369,309.98z M170.458,374.667h-16.711V324.97h16.711V374.667z M256.001,364.713
			c-7.642,0-13.859-6.218-13.859-13.859c0-7.642,6.218-13.859,13.859-13.859c7.641,0,13.858,6.218,13.858,13.859
			S263.642,364.713,256.001,364.713z M358.254,374.667h-16.711v-24.946c0-0.005,0-0.009,0-0.014c0-0.001,0-0.002,0-0.003V324.97
			h16.711V374.667z"/>
	</g>
</g>
<g>
	<g>
		<path d="M353.676,157.149h-79.309c-4.586,0-6.688,4.779-6.688,9.174c0,4.97,2.483,9.365,6.688,9.365h29.621v114.471
			c0,4.395,4.969,6.688,10.129,6.688c4.969,0,10.129-2.293,10.129-6.688V175.686h29.43c4.395,0,6.688-4.587,6.688-9.555
			C360.364,161.736,358.263,157.149,353.676,157.149z"/>
	</g>
</g>
<g>
	<g>
		<path d="M202.953,199.616v0.003h-19.536l3.073-42.579h50.701c4.829,0,7.243-5.048,7.243-10.316c0-5.049-2.414-10.316-7.243-10.316
			h-65.187c-3.292,0-4.829,2.854-5.267,7.683l-5.049,59.698c-0.219,1.536-0.439,3.73-0.439,5.267c0,5.487,2.195,8.999,9.877,8.999
			h31.825c16.242,0,26.119,8.999,26.119,27.655v4.17c0,18.875-9.876,27.655-26.338,27.655c-14.266,0-25.679-7.243-25.679-19.754
			c0-5.267-2.194-9.219-11.852-9.219c-7.023,0-11.413,2.414-11.413,10.755c0,20.412,17.559,38.848,49.384,38.848
			c27.216,0,49.164-13.169,49.164-48.286v-4.17C252.336,211.908,230.828,199.616,202.953,199.616z"/>
	</g>
</g>
<g>
</g>
<g>
</g>
<g>
</g>
<g>
</g>
<g>
</g>
<g>
</g>
<g>
</g>
<g>
</g>
<g>
</g>
<g>
</g>
<g>
</g>
<g>
</g>
<g>
</g>
<g>
</g>
<g>
</g>
</svg>
