<?xml version="1.0" encoding="iso-8859-1"?>
<!-- Generator: Adobe Illustrator 19.0.0, SVG Export Plug-In . SVG Version: 6.00 Build 0)  -->
<svg version="1.1" id="Capa_1" xmlns="http://www.w3.org/2000/svg" xmlns:xlink="http://www.w3.org/1999/xlink" x="0px" y="0px"
	 viewBox="0 0 512 512" style="enable-background:new 0 0 512 512;" xml:space="preserve">
<g>
	<g>
		<path d="M437.02,74.981C388.668,26.628,324.381,0,256.001,0c-55.642,0-108.573,17.635-152.415,50.256
			c-0.746,0.367-1.437,0.849-2.033,1.452l-0.382,0.387c-9.154,6.981-17.911,14.607-26.19,22.886
			C26.629,123.332,0.001,187.62,0.001,256c0,93.434,50.916,179.458,132.877,224.501c3.628,1.994,8.183,0.669,10.178-2.958
			c1.994-3.628,0.669-8.184-2.958-10.178C62.928,424.955,14.991,343.965,14.991,256c0-50.865,15.853-98.09,42.857-137.023
			l30.239,30.239c-19.708,30.878-31.149,67.518-31.149,106.787c0,109.764,89.3,199.064,199.064,199.064
			c39.271,0,75.914-11.441,106.793-31.15l30.234,30.233c-38.934,27.007-86.161,42.861-137.029,42.861
			c-23.417,0-46.56-3.35-68.785-9.956c-3.973-1.182-8.14,1.081-9.32,5.048c-1.179,3.968,1.081,8.14,5.049,9.32
			C206.555,508.441,231.135,512,255.999,512c67.571,0,131.134-26.017,179.285-73.288c9.269-9.006,17.871-18.71,25.719-29.059
			c0.313-0.412,0.572-0.848,0.786-1.299c32.592-43.83,50.209-96.738,50.209-152.354C512.001,187.62,485.372,123.332,437.02,74.981z
			 M256.002,440.076c-101.498,0-184.074-82.576-184.074-184.074c0-35.119,9.897-67.964,27.033-95.913l83.366,83.364v146.371
			c0,4.139,3.356,7.495,7.495,7.495h43.453c4.139,0,7.495-3.356,7.495-7.495v-87.931l111.15,111.147
			C323.968,430.177,291.123,440.076,256.002,440.076z M225.78,382.329h-28.463V258.442l28.463,29.05
			C225.407,288.38,225.78,382.329,225.78,382.329z M413.826,438c-0.349,0.3-0.699,0.598-1.049,0.895
			c-0.83,0.713-1.667,1.419-2.506,2.121c-1.678,1.384-3.37,2.751-5.085,4.09L67.538,107.468l39.38-39.861l337.944,337.944
			C435.536,417.302,425.145,428.171,413.826,438z M309.927,248.206c12.379-9.212,18.656-23.468,18.656-42.375
			c0-17.579-5.65-31.041-16.795-40.018c-10.807-8.7-26.618-12.929-48.333-12.929h-30.181c-4.139,0-7.495,3.356-7.495,7.495v4.893
			l-28.463-28.463v-5.296h69.048c31.274,0,54.785,6.279,69.879,18.662c14.855,12.19,22.076,29.919,22.076,54.203
			c0,25.618-8.015,44.59-24.506,58.002c-1.999,1.626-4.121,3.147-6.348,4.577l-18.247-18.247
			C309.454,248.541,309.697,248.378,309.927,248.206z M300.98,236.181c-0.806,0.6-1.679,1.162-2.581,1.709l-57.629-57.629v-12.387
			h22.686c17.908,0,31.007,3.236,38.933,9.614c7.541,6.074,11.206,15.344,11.206,28.343
			C313.595,219.938,309.468,229.865,300.98,236.181z M453.898,393.389l-30.241-30.241c19.86-30.951,31.408-67.719,31.408-107.147
			c0-73.241-40.064-140.39-104.557-175.241c-3.64-1.969-8.189-0.612-10.157,3.031c-1.968,3.641-0.611,8.188,3.031,10.157
			c59.643,32.23,96.694,94.325,96.694,162.054c0,35.279-9.997,68.255-27.281,96.284l-74.54-74.54c1.723-1.198,3.41-2.43,5.018-3.737
			c19.931-16.21,30.038-39.636,30.038-69.631c0-28.651-9.272-50.787-27.558-65.791c-17.845-14.64-44.554-22.064-79.387-22.064
			h-76.543c-3.469,0-6.378,2.359-7.233,5.558L159.718,99.21c28.029-17.285,61.006-27.28,96.285-27.28
			c13.072,0,26.119,1.376,38.78,4.091c4.052,0.868,8.032-1.71,8.9-5.757c0.867-4.047-1.71-8.032-5.757-8.9
			c-13.692-2.936-27.797-4.424-41.923-4.424c-39.429,0-76.202,11.541-107.155,31.399l-30.235-30.235
			c39.001-27.163,86.363-43.115,137.388-43.115c132.894,0,241.01,108.117,241.01,241.01
			C497.011,307.025,481.058,354.388,453.898,393.389z"/>
	</g>
</g>
<g>
</g>
<g>
</g>
<g>
</g>
<g>
</g>
<g>
</g>
<g>
</g>
<g>
</g>
<g>
</g>
<g>
</g>
<g>
</g>
<g>
</g>
<g>
</g>
<g>
</g>
<g>
</g>
<g>
</g>
</svg>
