<?xml version="1.0" encoding="iso-8859-1"?>
<!-- Generator: Adobe Illustrator 19.0.0, SVG Export Plug-In . SVG Version: 6.00 Build 0)  -->
<svg version="1.1" id="Capa_1" xmlns="http://www.w3.org/2000/svg" xmlns:xlink="http://www.w3.org/1999/xlink" x="0px" y="0px"
	 viewBox="0 0 512.001 512.001" style="enable-background:new 0 0 512.001 512.001;" xml:space="preserve">
<g>
	<g>
		<path d="M437.02,74.981C388.667,26.628,324.381,0,256,0S123.334,26.628,74.981,74.981C26.629,123.333,0,187.62,0,256
			s26.628,132.668,74.981,181.02C123.334,485.372,187.62,512.001,256,512.001c68.155,0,132.239-26.46,180.536-74.509
			c0.118-0.116,0.238-0.23,0.355-0.347c0.042-0.042,0.086-0.083,0.128-0.125c0.324-0.324,0.635-0.656,0.956-0.98
			c7.166-7.172,13.929-14.758,20.214-22.743c0.406-0.516,0.753-1.058,1.066-1.614C493.461,367.215,512,313.035,512,256
			C512,187.62,485.372,123.332,437.02,74.981z M256,497.01C123.107,497.01,14.99,388.894,14.99,256
			c0-50.865,15.853-98.09,42.857-137.023l30.239,30.238c-19.707,30.878-31.149,67.518-31.149,106.787
			c0,38.949,11.25,76.675,32.533,109.098c2.272,3.461,6.918,4.423,10.379,2.153c3.461-2.271,4.424-6.918,2.153-10.379
			c-19.675-29.973-30.075-64.854-30.075-100.873c0-35.119,9.893-67.967,27.028-95.918l70.62,70.618
			c-0.751,3.601-0.266,7.412,1.504,10.805c2.805,5.378,8.316,8.72,14.383,8.72h3.637l23.859,23.858v99.196
			c0,12.153,9.887,22.04,22.04,22.04h42.005c12.153,0,22.04-9.887,22.04-22.04v-13.114l52.876,52.875
			c-27.951,17.138-60.799,27.035-95.919,27.035c-43.859,0-86.339-15.682-119.615-44.157c-3.145-2.691-7.875-2.324-10.568,0.821
			c-2.691,3.145-2.323,7.876,0.821,10.568c35.989,30.797,81.93,47.758,129.361,47.758c39.271,0,75.917-11.438,106.797-31.146
			l30.23,30.229C354.095,481.156,306.868,497.01,256,497.01z M227.949,373.28v-84.207l56.106,56.104v28.103
			c0,3.887-3.163,7.05-7.05,7.05H235C231.112,380.331,227.949,377.168,227.949,373.28z M413.877,437.956
			c-0.432,0.371-0.864,0.74-1.298,1.108c-0.76,0.651-1.522,1.295-2.289,1.937c-1.685,1.39-3.384,2.763-5.105,4.107L67.536,107.468
			l39.381-39.861l51.347,51.346c2.927,2.927,7.673,2.927,10.599,0c2.927-2.927,2.927-7.673,0-10.599l-9.163-9.163
			c28.034-17.28,61.021-27.264,96.3-27.264c101.498,0,184.074,82.576,184.074,184.074c0,35.279-9.991,68.261-27.271,96.293
			l-102.069-102.07h15.807c6.067,0,11.578-3.342,14.383-8.72c2.805-5.378,2.392-11.81-1.079-16.784l-70.539-101.099
			c-3.032-4.345-8.005-6.939-13.304-6.939c-5.298,0-10.272,2.594-13.304,6.939l-24.069,34.496l-11.917-11.917
			c-2.927-2.927-7.673-2.927-10.599,0c-2.927,2.927-2.927,7.673,0,10.599l248.747,248.75
			C435.55,417.284,425.176,428.138,413.877,437.956z M296.545,235.234L296.545,235.234c-0.26,0.001-0.516,0.015-0.77,0.031
			l-66.38-66.38l25.596-36.685c0.244-0.35,0.584-0.528,1.01-0.528c0.427,0,0.766,0.178,1.01,0.527l70.539,101.098
			c0.105,0.151,0.427,0.613,0.082,1.274c-0.346,0.663-0.908,0.663-1.093,0.663H296.545z M453.899,393.389l-30.225-30.225
			c19.856-30.956,31.391-67.734,31.391-107.163c0-109.764-89.3-199.064-199.064-199.064c-39.429,0-76.208,11.535-107.164,31.39
			L118.61,58.103C157.613,30.943,204.975,14.99,256,14.99c132.894,0,241.01,108.117,241.01,241.01
			C497.011,307.025,481.058,354.387,453.899,393.389z"/>
	</g>
</g>
<g>
</g>
<g>
</g>
<g>
</g>
<g>
</g>
<g>
</g>
<g>
</g>
<g>
</g>
<g>
</g>
<g>
</g>
<g>
</g>
<g>
</g>
<g>
</g>
<g>
</g>
<g>
</g>
<g>
</g>
</svg>
