<?xml version="1.0" encoding="iso-8859-1"?>
<!-- Generator: Adobe Illustrator 19.0.0, SVG Export Plug-In . SVG Version: 6.00 Build 0)  -->
<svg version="1.1" id="Capa_1" xmlns="http://www.w3.org/2000/svg" xmlns:xlink="http://www.w3.org/1999/xlink" x="0px" y="0px"
	 viewBox="0 0 512 512" style="enable-background:new 0 0 512 512;" xml:space="preserve">
<g>
	<g>
		<path d="M437.019,74.981C388.668,26.628,324.38,0,256,0S123.332,26.628,74.981,74.981C26.629,123.332,0,187.621,0,256
			s26.629,132.668,74.981,181.019C123.332,485.372,187.62,512,256,512c44.775,0,88.84-11.731,127.436-33.923
			c37.431-21.525,69.072-52.416,91.501-89.332c2.149-3.538,1.024-8.147-2.513-10.297c-3.538-2.149-8.148-1.024-10.298,2.513
			C417.976,453.628,340.92,497.01,256,497.01C123.106,497.01,14.99,388.894,14.99,256S123.107,14.99,256,14.99
			S497.01,123.106,497.011,256c0,26.923-4.406,53.355-13.093,78.561c-1.349,3.913,0.729,8.179,4.644,9.528
			c3.911,1.349,8.177-0.73,9.527-4.644C507.319,312.666,512,284.59,512,256C512,187.62,485.371,123.333,437.019,74.981z"/>
	</g>
</g>
<g>
	<g>
		<path d="M256.002,56.938c-37.54,0-74.107,10.506-105.746,30.381c-30.776,19.332-55.689,46.671-72.047,79.06
			c-1.867,3.695-0.384,8.202,3.311,10.069c3.694,1.866,8.202,0.383,10.068-3.312c31.528-62.428,94.528-101.209,164.414-101.209
			c101.498,0,184.074,82.575,184.074,184.074s-82.576,184.074-184.074,184.074S71.927,357.5,71.927,256.002
			c0-11.506,1.069-23.025,3.178-34.236c0.766-4.068-1.913-7.986-5.981-8.751c-4.068-0.766-7.985,1.913-8.751,5.98
			c-2.28,12.123-3.436,24.574-3.436,37.007c0,109.764,89.299,199.064,199.064,199.064s199.065-89.3,199.065-199.064
			S365.767,56.938,256.002,56.938z"/>
	</g>
</g>
<g>
	<g>
		<path d="M364.373,351.965l-16.98-122.099c-0.836-6.009-4.905-11.007-10.618-13.045c-5.716-2.039-12.028-0.742-16.476,3.381
			l-20.169,18.691l-83.644-90.256c-8.26-8.914-22.233-9.445-31.146-1.185l-30.809,28.552c-8.914,8.26-9.446,22.233-1.185,31.146
			l83.644,90.256l-20.169,18.691c-4.449,4.123-6.221,10.32-4.623,16.172c1.599,5.852,6.273,10.288,12.201,11.578l120.457,26.204
			c1.143,0.249,2.297,0.371,3.444,0.371c4.049,0,8.003-1.517,11.032-4.324C363.218,362.496,365.102,357.213,364.373,351.965z
			 M349.141,355.103c-0.315,0.29-0.682,0.39-1.1,0.3l-120.456-26.204c-0.181-0.039-0.731-0.158-0.927-0.879
			c-0.197-0.721,0.215-1.103,0.351-1.228l22.002-20.389c2.447-2.267,3.865-5.353,3.991-8.687c0.127-3.335-1.051-6.518-3.32-8.966
			l-85.342-92.088c-2.642-2.852-2.473-7.321,0.379-9.964l30.809-28.551c1.355-1.255,3.074-1.876,4.791-1.876
			c1.896,0,3.786,0.758,5.173,2.254l85.342,92.088c2.267,2.448,5.353,3.865,8.687,3.992c3.372,0.133,6.52-1.053,8.966-3.321
			l22-20.389c0.136-0.126,0.542-0.512,1.252-0.257c0.704,0.251,0.781,0.808,0.806,0.991l16.98,122.099
			C349.582,354.453,349.454,354.813,349.141,355.103z"/>
	</g>
</g>
<g>
</g>
<g>
</g>
<g>
</g>
<g>
</g>
<g>
</g>
<g>
</g>
<g>
</g>
<g>
</g>
<g>
</g>
<g>
</g>
<g>
</g>
<g>
</g>
<g>
</g>
<g>
</g>
<g>
</g>
</svg>
