<?xml version="1.0" encoding="iso-8859-1"?>
<!-- Generator: Adobe Illustrator 19.0.0, SVG Export Plug-In . SVG Version: 6.00 Build 0)  -->
<svg version="1.1" id="Capa_1" xmlns="http://www.w3.org/2000/svg" xmlns:xlink="http://www.w3.org/1999/xlink" x="0px" y="0px"
	 viewBox="0 0 512 512" style="enable-background:new 0 0 512 512;" xml:space="preserve">
<g>
	<g>
		<path d="M394.016,40.354c-3.484-2.233-8.12-1.22-10.355,2.263c-2.234,3.485-1.22,8.12,2.263,10.355
			C455.483,97.579,497.011,173.477,497.011,256c0,132.894-108.117,241.01-241.01,241.01S14.99,388.894,14.99,256
			S123.108,14.99,256.001,14.99c28.487,0,56.368,4.92,82.868,14.622c3.887,1.425,8.191-0.574,9.614-4.461
			c1.423-3.887-0.575-8.192-4.462-9.615C315.865,5.226,286.25,0,256.001,0C187.62,0,123.333,26.628,74.981,74.981
			C26.63,123.332,0.001,187.621,0.001,256S26.63,388.668,74.981,437.019C123.333,485.372,187.62,512,256.001,512
			s132.668-26.628,181.018-74.98c48.352-48.352,74.981-112.64,74.981-181.02C511.999,168.347,467.894,87.731,394.016,40.354z"/>
	</g>
</g>
<g>
	<g>
		<path d="M256.002,56.938c-109.765,0-199.064,89.3-199.064,199.064s89.299,199.064,199.064,199.064s199.064-89.3,199.064-199.064
			S365.766,56.938,256.002,56.938z M256.002,440.076c-101.498,0-184.074-82.576-184.074-184.074S154.503,71.928,256.002,71.928
			s184.074,82.575,184.074,184.074S357.5,440.076,256.002,440.076z"/>
	</g>
</g>
<g>
	<g>
		<path d="M364.515,191.333c-0.224-5.883-2.725-11.326-7.043-15.328l-30.81-28.552c-4.317-4.001-9.918-6.092-15.818-5.858
			c-5.884,0.223-11.327,2.724-15.328,7.042l-83.644,90.256l-20.168-18.69c-4.45-4.125-10.762-5.418-16.476-3.382
			c-5.714,2.039-9.782,7.037-10.618,13.045l-5.253,37.769c-0.57,4.1,2.291,7.885,6.392,8.456c4.097,0.565,7.885-2.29,8.456-6.392
			l5.253-37.77c0.026-0.183,0.103-0.74,0.806-0.99c0.701-0.252,1.115,0.131,1.251,0.257l22.002,20.389
			c2.448,2.268,5.654,3.453,8.965,3.321c3.335-0.127,6.419-1.544,8.687-3.991l85.342-92.089c1.28-1.381,3.021-2.181,4.904-2.252
			c1.875-0.08,3.676,0.594,5.06,1.874l30.809,28.551c1.382,1.28,2.182,3.022,2.253,4.904c0.071,1.881-0.595,3.678-1.875,5.06
			L262.32,289.05c-4.681,5.052-4.38,12.971,0.673,17.653l22.001,20.389c0.136,0.125,0.548,0.508,0.352,1.228
			c-0.198,0.72-0.747,0.839-0.927,0.879L163.96,355.403c-0.415,0.09-0.785-0.01-1.099-0.3c-0.313-0.29-0.442-0.651-0.383-1.073
			l4.272-30.719c0.57-4.1-2.291-7.886-6.392-8.456c-4.088-0.561-7.885,2.291-8.456,6.392l-4.272,30.719
			c-0.729,5.247,1.154,10.531,5.041,14.132c3.028,2.807,6.982,4.324,11.031,4.324c1.145,0,2.3-0.122,3.443-0.371l120.458-26.204
			c5.929-1.289,10.603-5.725,12.202-11.577c1.599-5.852-0.173-12.049-4.623-16.172l-20.168-18.691l83.643-90.255
			C362.658,202.834,364.739,197.216,364.515,191.333z"/>
	</g>
</g>
<g>
</g>
<g>
</g>
<g>
</g>
<g>
</g>
<g>
</g>
<g>
</g>
<g>
</g>
<g>
</g>
<g>
</g>
<g>
</g>
<g>
</g>
<g>
</g>
<g>
</g>
<g>
</g>
<g>
</g>
</svg>
