<?xml version="1.0" encoding="iso-8859-1"?>
<!-- Generator: Adobe Illustrator 19.0.0, SVG Export Plug-In . SVG Version: 6.00 Build 0)  -->
<svg version="1.1" id="Capa_1" xmlns="http://www.w3.org/2000/svg" xmlns:xlink="http://www.w3.org/1999/xlink" x="0px" y="0px"
	 viewBox="0 0 512 512" style="enable-background:new 0 0 512 512;" xml:space="preserve">
<g>
	<g>
		<path d="M437.019,74.981C388.668,26.628,324.38,0,256,0S123.333,26.629,74.981,74.981C26.628,123.332,0,187.621,0,256
			s26.628,132.667,74.981,181.019C123.333,485.372,187.62,512,256,512c17.368,0,34.728-1.751,51.598-5.202
			c4.055-0.83,6.669-4.791,5.84-8.846c-0.83-4.055-4.786-6.674-8.846-5.84c-15.884,3.251-32.233,4.899-48.592,4.899
			C123.106,497.01,14.99,388.894,14.99,256S123.106,14.99,256,14.99c132.893,0,241.01,108.117,241.011,241.01
			c0,95.216-56.243,181.719-143.285,220.377c-3.784,1.68-5.489,6.109-3.808,9.892c1.681,3.783,6.111,5.488,9.891,3.807
			C452.262,449.016,512,357.136,512,256C512,187.62,485.371,123.333,437.019,74.981z"/>
	</g>
</g>
<g>
	<g>
		<path d="M256.001,56.938c-21.346,0-42.355,3.362-62.444,9.993c-3.93,1.297-6.065,5.535-4.768,9.466
			c1.298,3.93,5.535,6.062,9.466,4.768c18.569-6.13,37.998-9.238,57.745-9.238c101.498,0,184.074,82.575,184.074,184.074
			s-82.576,184.073-184.074,184.073S71.927,357.499,71.927,256.001c0-60.955,30.116-117.864,80.561-152.233
			c3.421-2.33,4.304-6.993,1.974-10.414c-2.33-3.421-6.992-4.303-10.414-1.974c-54.546,37.164-87.11,98.704-87.11,164.622
			c0,109.764,89.3,199.064,199.064,199.064c109.765,0,199.064-89.3,199.064-199.064S365.766,56.938,256.001,56.938z"/>
	</g>
</g>
<g>
	<g>
		<path d="M194.357,241.588v-0.001H174.81l3.074-42.61h50.737c4.834,0,7.249-5.05,7.249-10.323c0-5.05-2.416-10.323-7.249-10.323
			h-65.233c-3.295,0-4.832,2.856-5.271,7.689l-5.052,59.741c-0.219,1.538-0.44,3.733-0.44,5.272c0,5.49,2.197,9.005,9.884,9.005
			h31.848c16.254,0,26.138,9.005,26.138,27.675v4.173c0,18.889-9.884,27.675-26.357,27.675c-14.277,0-25.698-7.249-25.698-19.767
			c0-5.272-2.196-9.226-11.86-9.226c-7.028,0-11.422,2.416-11.422,10.763c0,20.426,17.572,38.876,49.42,38.876
			c27.235,0,49.199-13.178,49.199-48.32v-4.173C243.776,253.888,222.251,241.588,194.357,241.588z"/>
	</g>
</g>
<g>
	<g>
		<path d="M310.095,178.333c-27.893,0-49.199,13.399-49.199,48.98v63.915c0,35.581,21.306,48.98,49.199,48.98
			c27.675,0,49.42-13.399,49.42-48.98v-63.915C359.515,191.732,337.77,178.333,310.095,178.333z M336.233,291.227
			c0,19.33-9.884,28.334-26.138,28.334c-16.473,0-25.917-9.005-25.917-28.334v-63.915c0-19.328,9.444-28.334,25.917-28.334
			c16.254,0,26.138,9.007,26.138,28.334V291.227z"/>
	</g>
</g>
<g>
</g>
<g>
</g>
<g>
</g>
<g>
</g>
<g>
</g>
<g>
</g>
<g>
</g>
<g>
</g>
<g>
</g>
<g>
</g>
<g>
</g>
<g>
</g>
<g>
</g>
<g>
</g>
<g>
</g>
</svg>
