<?xml version="1.0" encoding="iso-8859-1"?>
<!-- Generator: Adobe Illustrator 19.0.0, SVG Export Plug-In . SVG Version: 6.00 Build 0)  -->
<svg version="1.1" id="Capa_1" xmlns="http://www.w3.org/2000/svg" xmlns:xlink="http://www.w3.org/1999/xlink" x="0px" y="0px"
	 viewBox="0 0 512 512" style="enable-background:new 0 0 512 512;" xml:space="preserve">
<g>
	<g>
		<path d="M256.042,14.99c131.706,0,237.535,103.081,240.929,234.675c0.107,4.137,3.519,7.398,7.686,7.299
			c4.137-0.107,7.406-3.548,7.299-7.686c-1.727-66.962-29.114-129.643-77.117-176.494C386.749,25.849,323.251,0,256.042,0
			c-68.38,0-132.667,26.629-181.019,74.981S0.042,187.621,0.042,256s26.628,132.667,74.981,181.019S187.662,512,256.042,512
			c123.071,0,228.878-87.65,251.584-208.412c0.765-4.068-1.913-7.985-5.981-8.751c-4.069-0.766-7.985,1.913-8.751,5.981
			C471.519,414.5,371.909,497.01,256.042,497.01c-132.894,0-241.01-108.117-241.01-241.01S123.149,14.99,256.042,14.99z"/>
	</g>
</g>
<g>
	<g>
		<path d="M256.044,56.938c-56.91,0-111.219,24.442-149.001,67.057c-2.746,3.097-2.461,7.834,0.636,10.58
			c3.097,2.746,7.834,2.461,10.58-0.636c34.94-39.41,85.16-62.012,137.785-62.012c101.498,0,184.074,82.575,184.074,184.074
			s-82.575,184.075-184.073,184.075S71.97,357.501,71.97,256.003c0-27.614,5.961-54.159,17.718-78.902
			c1.777-3.739,0.186-8.21-3.552-9.986c-3.738-1.777-8.209-0.186-9.986,3.552c-12.72,26.768-19.17,55.479-19.17,85.335
			c0,109.764,89.3,199.064,199.064,199.064s199.065-89.3,199.065-199.064S365.808,56.938,256.044,56.938z"/>
	</g>
</g>
<g>
	<g>
		<path d="M297.108,88.589c-1.96-3.757-5.81-6.091-10.047-6.091h-62.036c-4.237,0-8.087,2.334-10.047,6.091
			c-1.96,3.756-1.671,8.249,0.753,11.726l31.018,44.455c2.117,3.036,5.592,4.849,9.294,4.849s7.176-1.813,9.294-4.849l31.018-44.455
			C298.778,96.84,299.067,92.347,297.108,88.589z M256.042,131.894l-24.006-34.406h48.013L256.042,131.894z"/>
	</g>
</g>
<g>
	<g>
		<path d="M296.354,411.689l-31.018-44.455c-2.118-3.036-5.592-4.849-9.294-4.849c-3.701,0-7.175,1.813-9.294,4.849l-31.018,44.455
			c-2.423,3.476-2.712,7.968-0.753,11.726s5.81,6.091,10.047,6.091h62.036c4.238,0,8.087-2.333,10.047-6.091
			C299.067,419.658,298.778,415.165,296.354,411.689z M232.036,414.516l24.007-34.406l24.006,34.406H232.036z"/>
	</g>
</g>
<g>
	<g>
		<path d="M189.458,290.122h-45.546v-5.887c0-17.817,50.194-28.66,50.194-61.969c0-18.59-15.183-30.83-33.154-30.83
			c-16.886,0-31.759,10.844-31.758,27.422c0,6.971,3.098,9.14,7.436,9.14c5.423,0,8.676-3.098,8.676-6.197
			c0-10.535,6.971-15.337,15.647-15.337c11.774,0,16.731,8.675,16.731,16.267c0,23.857-50.659,36.406-50.659,61.503v15.028
			c0,3.254,4.182,5.422,7.281,5.422h55.152c2.789,0,5.422-3.564,5.422-7.436C194.881,293.376,192.248,290.122,189.458,290.122z"/>
	</g>
</g>
<g>
	<g>
		<path d="M213.472,287.023c-5.423,0-9.296,4.183-9.296,9.296c0,4.958,3.873,9.296,9.296,9.296c4.957,0,9.14-4.338,9.14-9.296
			C222.611,291.206,218.429,287.023,213.472,287.023z"/>
	</g>
</g>
<g>
	<g>
		<path d="M265.679,236.054L265.679,236.054l-13.787,0.001l2.169-30.054h35.787c3.409,0,5.112-3.564,5.112-7.282
			c0-3.564-1.704-7.282-5.112-7.282h-46.011c-2.324,0-3.409,2.014-3.718,5.422l-3.564,42.139c-0.155,1.085-0.31,2.634-0.31,3.718
			c0,3.873,1.55,6.352,6.972,6.352h22.463c11.464,0,18.436,6.352,18.436,19.52v2.943c0,13.324-6.972,19.52-18.591,19.52
			c-10.07,0-18.126-5.112-18.126-13.943c0-3.717-1.55-6.506-8.366-6.506c-4.958,0-8.056,1.704-8.056,7.591
			c0,14.408,12.393,27.421,34.857,27.421c19.211,0,34.703-9.294,34.703-34.082v-2.943
			C300.536,244.73,285.355,236.054,265.679,236.054z"/>
	</g>
</g>
<g>
	<g>
		<path d="M379.579,242.085c-3.208,0-4.896,1.096-7.005,5.063l-11.985,22.365l-11.816-22.365c-2.111-3.966-3.883-5.063-7.09-5.063
			c-2.278,0-4.473,1.181-4.473,4.473v54.268c0,1.941,2.278,2.954,4.473,2.954c2.279,0,4.474-1.013,4.474-2.954v-41.017
			l11.309,21.437c0.76,1.519,1.942,2.026,3.039,2.026c1.182,0,2.363-0.506,3.292-2.026l11.309-20.931v40.512
			c0,1.941,2.278,2.954,4.473,2.954c2.279,0,4.474-1.013,4.474-2.954v-54.268C384.053,243.266,381.943,242.085,379.579,242.085z"/>
	</g>
</g>
<g>
</g>
<g>
</g>
<g>
</g>
<g>
</g>
<g>
</g>
<g>
</g>
<g>
</g>
<g>
</g>
<g>
</g>
<g>
</g>
<g>
</g>
<g>
</g>
<g>
</g>
<g>
</g>
<g>
</g>
</svg>
