<?xml version="1.0" encoding="iso-8859-1"?>
<!-- Generator: Adobe Illustrator 19.0.0, SVG Export Plug-In . SVG Version: 6.00 Build 0)  -->
<svg version="1.1" id="Capa_1" xmlns="http://www.w3.org/2000/svg" xmlns:xlink="http://www.w3.org/1999/xlink" x="0px" y="0px"
	 viewBox="0 0 512 512" style="enable-background:new 0 0 512 512;" xml:space="preserve">
<g>
	<g>
		<path d="M483.461,138.425c-18.064-34.878-44.388-65.628-76.128-88.926c-3.336-2.448-8.027-1.73-10.477,1.607
			c-2.449,3.337-1.73,8.027,1.607,10.477C460.17,106.878,497.01,179.557,497.01,256c0,132.894-108.117,241.01-241.01,241.01
			S14.99,388.894,14.99,256S123.106,14.99,256,14.99c33.676,0,66.252,6.808,96.824,20.237c3.788,1.665,8.211-0.058,9.876-3.848
			c1.665-3.79-0.059-8.211-3.848-9.876C326.368,7.234,291.764,0,256,0C187.62,0,123.333,26.629,74.981,74.981
			C26.629,123.332,0,187.621,0,256s26.628,132.667,74.981,181.019C123.333,485.372,187.62,512,256,512s132.667-26.628,181.019-74.98
			S512,324.38,512,256C512,215.13,502.131,174.474,483.461,138.425z"/>
	</g>
</g>
<g>
	<g>
		<path d="M256.001,56.938c-109.764,0-199.064,89.3-199.064,199.064c0,48.463,17.62,95.164,49.612,131.498
			c31.702,36.004,75.212,59.357,122.514,65.758c0.341,0.047,0.68,0.069,1.014,0.069c3.692,0,6.908-2.73,7.417-6.492
			c0.556-4.102-2.32-7.878-6.422-8.432c-90.728-12.278-159.146-90.694-159.146-182.401c0-101.498,82.576-184.075,184.074-184.075
			s184.074,82.576,184.074,184.074c0,91.494-68.237,169.885-158.725,182.344c-4.1,0.565-6.966,4.346-6.403,8.447
			c0.565,4.1,4.346,6.972,8.447,6.403c47.198-6.498,90.598-29.887,122.202-65.86c31.9-36.308,49.468-82.949,49.468-131.333
			C455.065,146.238,365.765,56.938,256.001,56.938z"/>
	</g>
</g>
<g>
	<g>
		<path d="M155.198,249.568l-50.215-35.037c-3.627-2.532-8.317-2.834-12.24-0.788c-3.923,2.046-6.36,6.065-6.36,10.489v70.075
			c0,4.424,2.436,8.443,6.359,10.489c1.728,0.901,3.604,1.347,5.475,1.347c2.373,0,4.736-0.719,6.766-2.134l50.216-35.038
			c3.168-2.211,5.059-5.838,5.059-9.702C160.259,255.404,158.366,251.778,155.198,249.568z M101.373,288.25v-57.959l41.534,28.98
			L101.373,288.25z"/>
	</g>
</g>
<g>
	<g>
		<path d="M419.26,213.742c-3.921-2.045-8.612-1.744-12.24,0.787l-50.216,35.038c-3.168,2.211-5.06,5.837-5.06,9.7
			c0,3.863,1.892,7.491,5.06,9.702l50.216,35.038c2.03,1.416,4.391,2.135,6.764,2.135c1.87,0,3.747-0.446,5.476-1.347
			c3.922-2.047,6.359-6.065,6.359-10.489v-70.075C425.62,219.807,423.183,215.788,419.26,213.742z M410.63,288.249l-41.534-28.979
			l41.534-28.98V288.249z"/>
	</g>
</g>
<g>
	<g>
		<path d="M228.993,244.882c7.76-3.631,13.374-13.373,13.374-27.738c0-21.463-13.044-29.224-31.536-29.224
			c-26.747,0-33.517,17.336-33.517,27.243c0,5.448,1.321,7.099,7.265,7.099c4.789,0,6.604-2.476,6.604-6.109
			c0-6.934,3.797-15.85,19.318-15.85c12.383,0,18.492,5.944,18.492,19.318c0,15.851-7.431,19.813-19.153,19.813
			c-3.468,0-4.789,2.972-4.789,5.779c0,2.972,1.321,5.779,4.789,5.779c13.374,0,22.125,5.778,22.125,20.143v3.137
			c0,15.851-7.595,22.785-22.124,22.783c-16.016,0-21.63-9.411-21.63-16.511c0-3.468-1.485-5.448-7.099-5.448
			c-4.623,0-6.439,1.32-6.439,6.439c0,12.548,10.732,28.068,35.168,28.068c19.813,0,35.993-9.576,35.993-35.332v-3.137
			C245.834,256.769,238.734,248.844,228.993,244.882z"/>
	</g>
</g>
<g>
	<g>
		<path d="M326.407,241.898c-2.698,0-4.318,1.62-6.027,4.768l-14.212,27.074l-14.122-27.074c-1.619-3.149-3.329-4.768-6.027-4.768
			c-1.98,0-3.778,0.988-3.778,3.687v59.367c0,1.799,1.89,2.698,3.778,2.698s3.777-0.899,3.777-2.698v-47.583l13.493,25.905
			c0.809,1.529,1.889,2.069,2.788,2.069c1.08,0,2.159-0.54,2.969-2.069l13.584-25.545v47.223c0,1.799,1.889,2.698,3.777,2.698
			c1.889,0,3.778-0.899,3.778-2.698v-59.367C330.185,242.887,328.386,241.898,326.407,241.898z"/>
	</g>
</g>
<g>
</g>
<g>
</g>
<g>
</g>
<g>
</g>
<g>
</g>
<g>
</g>
<g>
</g>
<g>
</g>
<g>
</g>
<g>
</g>
<g>
</g>
<g>
</g>
<g>
</g>
<g>
</g>
<g>
</g>
</svg>
