<?xml version="1.0" encoding="iso-8859-1"?>
<!-- Generator: Adobe Illustrator 19.0.0, SVG Export Plug-In . SVG Version: 6.00 Build 0)  -->
<svg version="1.1" id="Capa_1" xmlns="http://www.w3.org/2000/svg" xmlns:xlink="http://www.w3.org/1999/xlink" x="0px" y="0px"
	 viewBox="0 0 512.001 512.001" style="enable-background:new 0 0 512.001 512.001;" xml:space="preserve">
<g>
	<g>
		<path d="M437.02,74.981C388.668,26.628,324.381,0,256,0S123.333,26.628,74.981,74.981C26.63,123.332,0,187.62,0,256
			s26.628,132.668,74.981,181.02C123.333,485.372,187.62,512.001,256,512.001c62.645,0,121.847-22.363,168.516-63.292
			c0.785-0.687,1.567-1.377,2.343-2.074c0.514-0.461,1.026-0.922,1.537-1.388c2.851-2.597,5.642-5.259,8.373-7.983
			c0.083-0.082,0.167-0.162,0.25-0.244c0.131-0.131,0.257-0.265,0.387-0.396c1.204-1.21,2.397-2.431,3.578-3.665
			c0.255-0.266,0.512-0.531,0.765-0.798c1.272-1.341,2.532-2.693,3.775-4.062c0.528-0.58,1.042-1.166,1.563-1.75
			c0.619-0.694,1.238-1.388,1.849-2.09c0.794-0.908,1.581-1.822,2.361-2.74c0.144-0.17,0.287-0.341,0.431-0.511
			C490.733,374.897,512,317.088,512,256.001C512,187.62,485.371,123.332,437.02,74.981z M256,497.01
			C123.108,497.01,14.99,388.894,14.99,256c0-50.394,15.558-97.216,42.107-135.939l30.277,30.277
			c-19.271,30.641-30.436,66.87-30.436,105.664c0,109.764,89.299,199.064,199.064,199.064c38.796,0,75.023-11.172,105.666-30.445
			l30.28,30.279C353.222,481.451,306.396,497.01,256,497.01z M107.439,228.084l99.029,69.095c4.921,3.433,11.28,3.841,16.599,1.067
			c2.664-1.39,4.814-3.455,6.303-5.919l55.457,55.455v12.704c0,11.989,9.753,21.742,21.742,21.742h12.706l31.511,31.51
			c-27.704,16.709-60.14,26.337-94.784,26.337c-101.498,0-184.074-82.576-184.074-184.074c0-34.642,9.63-67.072,26.339-94.774
			l27.651,27.65l-18.477,12.892c-4.297,2.998-6.862,7.917-6.862,13.157C100.577,220.168,103.142,225.086,107.439,228.084z
			 M404.185,445.94L190.574,232.336c-2.925-2.926-7.671-2.927-10.599,0c-2.927,2.927-2.927,7.673,0.001,10.599l36.724,36.723v4.364
			c0,0.175,0,0.639-0.566,0.934c-0.566,0.294-0.947,0.03-1.09-0.07l-99.028-69.095c-0.3-0.208-0.451-0.5-0.451-0.864
			s0.151-0.656,0.451-0.863l20.666-14.419l7.229,7.229c2.928,2.927,7.673,2.927,10.6,0c2.927-2.927,2.927-7.673-0.001-10.599
			l-87.893-87.891l39.381-39.861l338.044,338.045C432.321,421.175,418.944,434.4,404.185,445.94z M208.33,149.654l6.714-4.685
			c0.146-0.1,0.525-0.366,1.091-0.07s0.566,0.759,0.566,0.934v12.193L208.33,149.654z M246.278,187.603h91.109
			c0.08,0.002,0.159,0.004,0.233,0.004h10.094c3.723,0,6.752,3.029,6.752,6.752v101.432L246.278,187.603z M422.951,364.277
			c20.297-31.185,32.114-68.371,32.114-108.274c0-58.701-25.732-114.129-70.598-152.068c-3.16-2.672-7.889-2.277-10.562,0.883
			c-2.672,3.161-2.277,7.89,0.883,10.563c41.492,35.086,65.288,86.34,65.288,140.622c0,35.755-10.251,69.159-27.964,97.434
			l-42.656-42.656V194.359c0-11.989-9.753-21.742-21.742-21.742h-9.935c-0.08-0.002-0.159-0.004-0.233-0.004H231.69v-26.78
			c0-5.999-3.305-11.45-8.623-14.224c-5.317-2.774-11.68-2.365-16.6,1.067l-8.903,6.213l-38.982-38.982
			c28.271-17.716,61.665-27.978,97.42-27.978c26.627,0,52.308,5.558,76.331,16.521c3.763,1.718,8.211,0.058,9.93-3.706
			c1.719-3.766,0.059-8.211-3.707-9.93c-25.99-11.86-53.765-17.874-82.553-17.874c-39.902,0-77.087,11.818-108.271,32.117
			l-30.204-30.203C156.735,31.233,204.504,14.99,256,14.99c132.893,0,241.01,108.117,241.01,241.01
			c0,51.496-16.244,99.266-43.864,138.473L422.951,364.277z"/>
	</g>
</g>
<g>
</g>
<g>
</g>
<g>
</g>
<g>
</g>
<g>
</g>
<g>
</g>
<g>
</g>
<g>
</g>
<g>
</g>
<g>
</g>
<g>
</g>
<g>
</g>
<g>
</g>
<g>
</g>
<g>
</g>
</svg>
