<?xml version="1.0" encoding="iso-8859-1"?>
<!-- Generator: Adobe Illustrator 19.0.0, SVG Export Plug-In . SVG Version: 6.00 Build 0)  -->
<svg version="1.1" id="Capa_1" xmlns="http://www.w3.org/2000/svg" xmlns:xlink="http://www.w3.org/1999/xlink" x="0px" y="0px"
	 viewBox="0 0 512 512" style="enable-background:new 0 0 512 512;" xml:space="preserve">
<g>
	<g>
		<path d="M436.883,74.981C388.531,26.628,324.244,0,255.864,0C189.595,0,126.741,25.226,78.882,71.031
			C31.176,116.689,3.213,178.076,0.145,243.883c-0.192,4.135,3.003,7.643,7.138,7.836c4.113,0.202,7.643-3.002,7.837-7.138
			c2.159-46.315,17.229-89.019,41.644-124.718l30.479,30.478c-19.272,30.642-30.442,66.867-30.442,105.661
			c0,109.764,89.299,199.064,199.064,199.064c38.796,0,75.024-11.171,105.666-30.445l30.28,30.279
			c-38.725,26.552-85.55,42.111-135.946,42.111c-118.435,0-218.425-84.66-237.756-201.303c-0.677-4.083-4.539-6.849-8.62-6.169
			c-4.083,0.677-6.845,4.536-6.169,8.619c9.797,59.115,40.402,113.244,86.176,152.419C135.777,490.186,194.861,512,255.863,512
			c62.645,0,121.847-22.363,168.516-63.292c0.785-0.687,1.567-1.377,2.343-2.074c0.514-0.461,1.026-0.922,1.537-1.388
			c2.85-2.597,5.642-5.259,8.373-7.983c0.083-0.082,0.168-0.162,0.25-0.244c0.131-0.131,0.257-0.265,0.387-0.396
			c1.204-1.21,2.397-2.431,3.578-3.665c0.255-0.266,0.512-0.531,0.765-0.798c1.272-1.341,2.532-2.693,3.775-4.062
			c0.527-0.58,1.042-1.166,1.563-1.75c0.619-0.694,1.237-1.388,1.849-2.09c0.794-0.908,1.581-1.822,2.361-2.74
			c0.144-0.17,0.287-0.341,0.431-0.511c39.005-46.111,60.272-103.921,60.272-165.007C511.864,187.62,485.235,123.332,436.883,74.981
			z M255.865,440.076c-101.498,0-184.074-82.576-184.074-184.074c0-34.643,9.622-67.079,26.332-94.782l34.61,34.609v164.659
			c0,11.989,9.754,21.742,21.743,21.742h41.144c11.989,0,21.743-9.753,21.743-21.742v-80.032L350.642,413.73
			C322.938,430.442,290.509,440.076,255.865,440.076z M147.721,360.488V210.817h0.001l54.65,54.649v95.022
			c0,3.723-3.029,6.752-6.753,6.752h-41.144C150.75,367.241,147.721,364.212,147.721,360.488z M404.05,445.941L66.481,108.383
			l39.381-39.861l238.416,238.417c2.928,2.927,7.673,2.927,10.6,0c2.927-2.927,2.927-7.673,0-10.599l-23.817-23.817l63.687-44.437
			c4.298-2.998,6.864-7.917,6.864-13.158c0-5.24-2.566-10.159-6.864-13.157h0.001l-99.029-69.095
			c-4.921-3.433-11.28-3.84-16.599-1.067c-5.318,2.774-8.623,8.224-8.623,14.224v26.78h-39.346l-72.711-72.712
			c28.274-17.713,61.671-27.973,97.425-27.973c101.498,0,184.074,82.576,184.074,184.074c0,35.754-10.26,69.151-27.973,97.426
			l-19.103-19.103c-2.927-2.926-7.672-2.927-10.6,0c-2.927,2.927-2.927,7.673,0,10.599l61.642,61.641
			C432.185,421.175,418.808,434.401,404.05,445.941z M246.141,187.603h26.854c6.888,0,12.491-5.603,12.491-12.491v-29.279
			c0-0.175,0-0.639,0.566-0.934s0.946-0.03,1.09,0.07l99.028,69.095c0.001,0,0.001,0,0.001,0c0.299,0.208,0.451,0.5,0.451,0.863
			c0,0.365-0.152,0.656-0.452,0.864l-65.876,45.964L246.141,187.603z M422.823,364.284c20.296-31.186,32.107-68.378,32.107-108.282
			c0-109.764-89.299-199.064-199.064-199.064c-39.902,0-77.09,11.815-108.277,32.111L117.22,58.68
			c39.247-27.566,87.083-43.691,138.644-43.691c132.894,0,241.01,108.117,241.01,241.01c0,51.496-16.244,99.266-43.863,138.473
			L422.823,364.284z"/>
	</g>
</g>
<g>
</g>
<g>
</g>
<g>
</g>
<g>
</g>
<g>
</g>
<g>
</g>
<g>
</g>
<g>
</g>
<g>
</g>
<g>
</g>
<g>
</g>
<g>
</g>
<g>
</g>
<g>
</g>
<g>
</g>
</svg>
