<?xml version="1.0" encoding="iso-8859-1"?>
<!-- Generator: Adobe Illustrator 19.0.0, SVG Export Plug-In . SVG Version: 6.00 Build 0)  -->
<svg version="1.1" id="Capa_1" xmlns="http://www.w3.org/2000/svg" xmlns:xlink="http://www.w3.org/1999/xlink" x="0px" y="0px"
	 viewBox="0 0 512 512" style="enable-background:new 0 0 512 512;" xml:space="preserve">
<g>
	<g>
		<path d="M437.019,74.981C388.668,26.628,324.38,0,256,0c-22.426,0-44.683,2.904-66.151,8.63c-3.998,1.067-6.377,5.174-5.309,9.174
			c1.067,3.999,5.176,6.378,9.174,5.309c20.208-5.39,41.163-8.123,62.287-8.123c132.893,0,241.01,108.117,241.01,241.01
			S388.893,497.01,256,497.01C123.106,497.01,14.99,388.894,14.99,256c0-90.358,49.859-172.374,130.121-214.042
			c3.674-1.907,5.106-6.432,3.199-10.105c-1.907-3.673-6.431-5.105-10.105-3.199c-40.975,21.271-75.515,53.278-99.888,92.56
			C13.25,161.614,0,208.222,0,256c0,68.379,26.628,132.667,74.981,181.019C123.333,485.372,187.62,512,256,512
			s132.668-26.628,181.019-74.98C485.372,388.668,512,324.38,512,256S485.371,123.333,437.019,74.981z"/>
	</g>
</g>
<g>
	<g>
		<path d="M256.001,56.938c-109.764,0-199.064,89.3-199.064,199.064s89.3,199.064,199.064,199.064
			c109.765,0,199.064-89.3,199.064-199.064S365.766,56.938,256.001,56.938z M256.001,440.076
			c-101.498,0-184.074-82.576-184.074-184.074S154.503,71.928,256.001,71.928s184.074,82.575,184.074,184.074
			S357.499,440.076,256.001,440.076z"/>
	</g>
</g>
<g>
	<g>
		<path d="M373.278,205.559h-33.004c-4.14,0-7.495,3.356-7.495,7.495c0,4.139,3.355,7.495,7.495,7.495h33.004
			c3.887,0,7.05,3.163,7.05,7.05v42.006c0,3.887-3.163,7.05-7.051,7.05H242.728c-1.988,0-3.894,0.789-5.299,2.195
			c-1.406,1.405-2.195,3.312-2.195,5.299v42.392c0,0.185,0,0.746-0.663,1.092c-0.661,0.346-1.122,0.024-1.274-0.082l-101.098-70.539
			c-0.35-0.244-0.528-0.584-0.528-1.01c0-0.427,0.177-0.766,0.527-1.01l101.099-70.539c0.151-0.106,0.612-0.429,1.274-0.082
			c0.663,0.345,0.663,0.907,0.663,1.092v22.595c0,6.888,5.603,12.491,12.491,12.491h41.919c4.139,0,7.495-3.356,7.495-7.495
			c0-4.139-3.355-7.495-7.495-7.495h-39.421v-20.097c0-6.066-3.342-11.577-8.72-14.383c-5.378-2.805-11.81-2.392-16.783,1.079
			l-101.099,70.539c-4.345,3.032-6.939,8.005-6.939,13.304c0,5.298,2.594,10.272,6.939,13.304l101.098,70.539
			c2.783,1.942,6.022,2.927,9.277,2.927c2.564,0,5.138-0.612,7.508-1.848c5.378-2.806,8.72-8.317,8.72-14.383v-34.897h123.054
			c12.153,0,22.041-9.887,22.041-22.04v-42.006C395.318,215.446,385.431,205.559,373.278,205.559z"/>
	</g>
</g>
<g>
</g>
<g>
</g>
<g>
</g>
<g>
</g>
<g>
</g>
<g>
</g>
<g>
</g>
<g>
</g>
<g>
</g>
<g>
</g>
<g>
</g>
<g>
</g>
<g>
</g>
<g>
</g>
<g>
</g>
</svg>
