<?xml version="1.0" encoding="iso-8859-1"?>
<!-- Generator: Adobe Illustrator 19.0.0, SVG Export Plug-In . SVG Version: 6.00 Build 0)  -->
<svg version="1.1" id="Capa_1" xmlns="http://www.w3.org/2000/svg" xmlns:xlink="http://www.w3.org/1999/xlink" x="0px" y="0px"
	 viewBox="0 0 512 512" style="enable-background:new 0 0 512 512;" xml:space="preserve">
<g>
	<g>
		<path d="M437.019,74.981C388.667,26.628,324.38,0,256,0S123.333,26.629,74.981,74.981C26.628,123.332,0,187.62,0,256
			c0,36.635,7.578,72.012,22.522,105.148c14.437,32.009,34.965,60.284,61.013,84.043c3.058,2.789,7.799,2.572,10.589-0.487
			c2.789-3.059,2.572-7.799-0.487-10.589C43.656,388.528,14.99,323.607,14.99,256C14.99,123.106,123.106,14.99,256,14.99
			s241.01,108.117,241.01,241.009c0,132.894-108.117,241.01-241.01,241.01c-42.02,0-83.385-10.973-119.624-31.734
			c-3.589-2.056-8.17-0.813-10.229,2.778c-2.058,3.591-0.813,8.171,2.778,10.229C167.429,500.341,211.37,512,256,512
			c68.38,0,132.667-26.628,181.019-74.98C485.372,388.668,512,324.38,512,256S485.371,123.333,437.019,74.981z"/>
	</g>
</g>
<g>
	<g>
		<path d="M256.001,56.937c-8.299,0-16.656,0.517-24.839,1.536c-4.108,0.512-7.023,4.256-6.511,8.363
			c0.512,4.107,4.249,7.019,8.363,6.511c7.571-0.941,15.304-1.42,22.987-1.42c101.498,0,184.074,82.575,184.074,184.074
			s-82.576,184.074-184.074,184.074S71.927,357.5,71.927,256.002c0-74.148,44.129-140.725,112.427-169.611
			c3.812-1.613,5.595-6.011,3.983-9.823c-1.614-3.812-6.011-5.597-9.823-3.983C104.659,103.823,56.937,175.819,56.937,256.002
			c0,109.764,89.3,199.064,199.064,199.064s199.064-89.301,199.064-199.065S365.765,56.937,256.001,56.937z"/>
	</g>
</g>
<g>
	<g>
		<path d="M388.38,242.699L287.282,172.16c-4.975-3.473-11.408-3.886-16.784-1.08c-5.378,2.806-8.72,8.317-8.72,14.383v20.097
			H138.723c-12.153,0-22.04,9.887-22.04,22.04v42.005c0,12.153,9.887,22.04,22.04,22.04h123.055v34.897
			c0,6.066,3.342,11.577,8.72,14.383c2.369,1.236,4.944,1.848,7.508,1.848c3.255,0,6.493-0.985,9.276-2.926l101.099-70.539
			c4.345-3.032,6.939-8.005,6.939-13.304C395.319,250.705,392.725,245.731,388.38,242.699z M379.803,257.011l-101.099,70.54
			c-0.152,0.105-0.613,0.428-1.274,0.082c-0.663-0.345-0.663-0.907-0.663-1.092v-37.395c0-6.888-5.603-12.491-12.491-12.491H138.723
			c-3.887,0-7.05-3.163-7.05-7.05V227.6c0-3.887,3.163-7.05,7.05-7.05v-0.001h125.554c6.888,0,12.491-5.603,12.491-12.491v-22.595
			c0-0.185,0-0.747,0.663-1.092c0.662-0.346,1.122-0.024,1.274,0.082l101.098,70.539c0.35,0.244,0.528,0.584,0.528,1.01
			S380.153,256.767,379.803,257.011z"/>
	</g>
</g>
<g>
</g>
<g>
</g>
<g>
</g>
<g>
</g>
<g>
</g>
<g>
</g>
<g>
</g>
<g>
</g>
<g>
</g>
<g>
</g>
<g>
</g>
<g>
</g>
<g>
</g>
<g>
</g>
<g>
</g>
</svg>
