<?xml version="1.0" encoding="iso-8859-1"?>
<!-- Generator: Adobe Illustrator 19.0.0, SVG Export Plug-In . SVG Version: 6.00 Build 0)  -->
<svg version="1.1" id="Capa_1" xmlns="http://www.w3.org/2000/svg" xmlns:xlink="http://www.w3.org/1999/xlink" x="0px" y="0px"
	 viewBox="0 0 512 512" style="enable-background:new 0 0 512 512;" xml:space="preserve">
<g>
	<g>
		<path d="M437.019,74.981C388.667,26.628,324.38,0,256,0C171.144,0,91.957,41.945,44.173,112.203
			c-2.327,3.422-1.44,8.083,1.983,10.412c3.423,2.328,8.083,1.44,10.412-1.983C101.557,54.482,176.112,14.99,256,14.99
			c132.894,0,241.01,108.117,241.01,241.01S388.893,497.01,256,497.01S14.99,388.894,14.99,256c0-31.376,5.938-61.892,17.647-90.7
			c1.559-3.834-0.287-8.206-4.121-9.765c-3.835-1.558-8.207,0.286-9.765,4.121C6.309,190.265,0,222.679,0,256
			c0,68.379,26.628,132.667,74.981,181.019C123.333,485.372,187.62,512,256,512s132.667-26.628,181.019-74.98
			C485.372,388.668,512,324.38,512,256S485.371,123.333,437.019,74.981z"/>
	</g>
</g>
<g>
	<g>
		<path d="M309.225,256.003l60.863-60.863c2.359-2.359,3.658-5.496,3.658-8.833c0-3.336-1.299-6.472-3.658-8.832l-35.559-35.559
			c-2.358-2.359-5.496-3.658-8.832-3.658c-3.337,0-6.474,1.299-8.833,3.658l-60.863,60.863l-60.863-60.863
			c-2.359-2.359-5.496-3.658-8.833-3.658c-3.336,0-6.473,1.299-8.832,3.658l-35.559,35.559c-2.359,2.358-3.658,5.496-3.658,8.832
			c0,3.337,1.299,6.474,3.658,8.833l60.863,60.863l-60.863,60.863c-2.359,2.359-3.658,5.496-3.658,8.833
			c0,3.336,1.299,6.473,3.658,8.832l35.559,35.559c2.358,2.359,5.496,3.658,8.832,3.658c3.337,0,6.474-1.299,8.833-3.658
			l60.863-60.863l60.863,60.863c2.359,2.359,5.496,3.658,8.833,3.658c3.336,0,6.474-1.299,8.832-3.658l35.559-35.559
			c2.359-2.358,3.658-5.496,3.658-8.832c0-3.337-1.299-6.473-3.658-8.833L309.225,256.003z M325.696,357.724l-60.863-60.863
			c-2.359-2.359-5.496-3.658-8.833-3.658s-6.474,1.299-8.833,3.658l-60.863,60.863l-32.026-32.026l60.863-60.863
			c2.359-2.359,3.658-5.496,3.658-8.833s-1.299-6.473-3.658-8.833l-60.863-60.863l32.026-32.026l60.863,60.863
			c2.359,2.359,5.496,3.658,8.833,3.658s6.474-1.299,8.833-3.658l60.863-60.863l32.026,32.026L296.86,247.17
			c-2.359,2.359-3.658,5.496-3.658,8.833s1.299,6.474,3.658,8.833l60.863,60.863L325.696,357.724z"/>
	</g>
</g>
<g>
	<g>
		<path d="M256.001,56.938c-109.764,0-199.064,89.3-199.064,199.064s89.3,199.064,199.064,199.064
			c45.302,0,89.637-15.626,124.837-44.001c3.223-2.597,3.729-7.316,1.132-10.539c-2.597-3.223-7.316-3.727-10.539-1.131
			c-32.545,26.234-73.54,40.682-115.431,40.682c-101.498,0-184.074-82.576-184.074-184.074S154.504,71.929,256.002,71.929
			s184.074,82.576,184.074,184.074c0,37.58-11.248,73.72-32.527,104.514c-0.56,0.81-1.127,1.617-1.7,2.418
			c-2.408,3.367-1.631,8.047,1.737,10.456c3.366,2.406,8.047,1.63,10.456-1.738c0.62-0.866,1.232-1.738,1.839-2.615
			c23.018-33.311,35.185-72.399,35.185-113.036C455.065,146.238,365.765,56.938,256.001,56.938z"/>
	</g>
</g>
<g>
</g>
<g>
</g>
<g>
</g>
<g>
</g>
<g>
</g>
<g>
</g>
<g>
</g>
<g>
</g>
<g>
</g>
<g>
</g>
<g>
</g>
<g>
</g>
<g>
</g>
<g>
</g>
<g>
</g>
</svg>
