<?xml version="1.0" encoding="iso-8859-1"?>
<!-- Generator: Adobe Illustrator 19.0.0, SVG Export Plug-In . SVG Version: 6.00 Build 0)  -->
<svg version="1.1" id="Capa_1" xmlns="http://www.w3.org/2000/svg" xmlns:xlink="http://www.w3.org/1999/xlink" x="0px" y="0px"
	 viewBox="0 0 512.001 512.001" style="enable-background:new 0 0 512.001 512.001;" xml:space="preserve">
<g>
	<g>
		<path d="M378.496,31.156C341.161,10.774,298.802,0,256,0C187.62,0,123.332,26.629,74.981,74.981C26.629,123.333,0,187.62,0,256
			c0,49.042,13.91,96.7,40.228,137.819c25.619,40.028,61.726,72.104,104.42,92.758c1.052,0.509,2.163,0.75,3.259,0.75
			c2.784,0,5.459-1.558,6.751-4.232c1.804-3.726,0.245-8.208-3.482-10.011C68.446,433.061,14.99,347.851,14.99,256
			C14.99,123.107,123.106,14.99,256,14.99c40.3,0,80.174,10.139,115.313,29.323c3.633,1.985,8.187,0.646,10.17-2.987
			C383.466,37.692,382.129,33.139,378.496,31.156z"/>
	</g>
</g>
<g>
	<g>
		<path d="M423.879,62.726c-3.126-2.714-7.857-2.384-10.574,0.74c-2.716,3.124-2.385,7.859,0.739,10.574
			C466.77,119.875,497.01,186.197,497.01,256c0,132.894-108.117,241.01-241.01,241.01c-18.338,0-36.611-2.067-54.312-6.143
			c-1.126-0.26-2.249-0.527-3.369-0.801c-4.023-0.988-8.079,1.469-9.067,5.489c-0.987,4.019,1.47,8.078,5.489,9.067
			c1.191,0.293,2.387,0.578,3.585,0.852C217.128,509.805,236.533,512,256,512c68.38,0,132.668-26.628,181.02-74.98
			c48.352-48.352,74.981-112.64,74.981-181.02C512.001,181.856,479.881,111.41,423.879,62.726z"/>
	</g>
</g>
<g>
	<g>
		<path d="M366.174,216.381H145.828c-9.889,0-17.935,8.045-17.935,17.935v43.374c0,9.889,8.045,17.935,17.935,17.935h220.347
			c9.889,0,17.935-8.045,17.935-17.935v-43.374C384.109,224.426,376.063,216.381,366.174,216.381z M369.119,277.689
			c0,1.624-1.321,2.945-2.945,2.945H145.828c-1.624,0-2.945-1.321-2.945-2.945v-43.374c0-1.624,1.321-2.945,2.945-2.945h220.347
			c1.624,0,2.945,1.321,2.945,2.945V277.689z"/>
	</g>
</g>
<g>
	<g>
		<path d="M256.001,56.937C146.236,56.937,56.937,146.236,56.937,256s89.299,199.064,199.064,199.064S455.065,365.764,455.065,256
			S365.766,56.937,256.001,56.937z M256.001,440.074c-101.498,0-184.074-82.576-184.074-184.074S154.503,71.926,256.001,71.926
			S440.075,154.501,440.075,256S357.499,440.074,256.001,440.074z"/>
	</g>
</g>
<g>
	<g>
		<path d="M176.141,145.149c0-5.538,4.571-7.999,10.988-7.999c7.472,0,9.757,3.34,12.131,3.34c2.638,0,3.868-3.253,3.868-5.01
			c0-4.835-10.285-6.33-15.999-6.33c-9.406,0-20.306,3.868-20.306,16.878c0,21.098,28.569,15.033,28.569,30.592
			c0,6.329-4.747,9.318-11.076,9.318c-9.757,0-11.867-6.944-15.032-6.944c-2.197,0-4.044,2.901-4.044,5.011
			c0,4.396,7.998,10.373,19.427,10.373c11.604,0,20.042-6.154,20.042-18.724C204.71,152.269,176.141,158.159,176.141,145.149z"/>
	</g>
</g>
<g>
	<g>
		<path d="M248.484,129.414v-0.001h-36.481c-2.11,0-3.077,2.198-3.077,4.219c0,2.286,1.142,4.308,3.077,4.308h13.625v52.655
			c0,2.022,2.285,3.077,4.659,3.077c2.285,0,4.659-1.055,4.659-3.077V137.94h13.538c2.022,0,3.077-2.109,3.077-4.395
			C251.561,131.523,250.594,129.414,248.484,129.414z"/>
	</g>
</g>
<g>
	<g>
		<path d="M276.526,129.414c-11.164,0-19.69,5.362-19.69,19.603v25.58c0,14.24,8.526,19.602,19.69,19.603
			c11.076,0,19.779-5.363,19.779-19.603v-25.58C296.305,134.776,287.602,129.414,276.526,129.414z M286.986,174.596
			c0,7.737-3.955,11.34-10.461,11.34c-6.593,0-10.373-3.604-10.373-11.34v-25.58c0-7.736,3.779-11.34,10.373-11.34
			c6.505,0,10.461,3.604,10.461,11.34V174.596z"/>
	</g>
</g>
<g>
	<g>
		<path d="M327.949,129.412h-17.142c-2.197,0-3.604,1.407-3.604,2.989v58.195c0,2.022,2.373,3.077,4.659,3.077
			c2.373,0,4.659-1.055,4.659-3.077v-21.713h10.9c11.076,0,19.779-5.362,19.779-19.427v-0.703
			C347.201,134.599,338.76,129.412,327.949,129.412z M337.882,150.07c0,7.736-3.955,11.428-10.461,11.428h-10.9v-23.822v-0.001h10.9
			c6.505,0,10.461,3.604,10.461,11.34V150.07z"/>
	</g>
</g>
<g>
	<g>
		<path d="M171.768,317.672h-14.371c-1.842,0-3.021,1.179-3.021,2.505v48.786c0,1.695,1.99,2.579,3.905,2.579
			c1.99,0,3.906-0.884,3.906-2.579v-18.202h9.138c9.286,0,16.581-4.496,16.581-16.287v-0.59
			C187.906,322.02,180.831,317.672,171.768,317.672z M180.095,334.989c0,6.484-3.316,9.58-8.769,9.58h-9.139v-19.971v0h9.139
			c5.453,0,8.769,3.021,8.769,9.506V334.989z"/>
	</g>
</g>
<g>
	<g>
		<path d="M210.532,317.672c-9.36,0-16.509,4.495-16.509,16.434v21.445c0,11.938,7.149,16.434,16.509,16.434
			c9.286,0,16.581-4.495,16.581-16.434v-21.445C227.113,322.167,219.817,317.672,210.532,317.672z M219.301,355.55
			c0,6.485-3.316,9.506-8.769,9.506c-5.527,0-8.696-3.021-8.696-9.506v-21.445c0-6.485,3.169-9.506,8.696-9.506
			c5.453,0,8.769,3.021,8.769,9.506V355.55z"/>
	</g>
</g>
<g>
	<g>
		<path d="M263.223,364.615h-19.161v-44.438c0-1.769-1.917-2.505-3.906-2.505c-1.916,0-3.905,0.737-3.905,2.505v48.786
			c0,1.695,1.769,2.579,3.464,2.579h23.509c1.547,0,2.357-1.769,2.357-3.464C265.58,366.31,264.771,364.615,263.223,364.615z"/>
	</g>
</g>
<g>
	<g>
		<path d="M275.309,317.672c-1.916,0-3.905,0.737-3.905,2.505v48.786c0,1.695,1.99,2.579,3.905,2.579
			c1.99,0,3.906-0.884,3.906-2.579v-48.786C279.215,318.408,277.298,317.672,275.309,317.672z"/>
	</g>
</g>
<g>
	<g>
		<path d="M317.534,354.149c-2.137,0-3.685,0.664-3.832,2.579c-0.294,3.243-0.957,8.327-8.474,8.327
			c-5.822,0-8.991-3.021-8.991-9.506v-21.445c0-6.485,3.169-9.506,8.844-9.506c7.591,0,8.475,5.306,8.621,7.885
			c0.074,1.769,1.548,2.58,3.906,2.58c2.652,0,3.905-0.737,3.905-4.053c0-7.812-6.631-13.339-16.728-13.339
			c-8.918,0-16.361,4.495-16.361,16.434v21.445c0,11.938,7.37,16.434,16.287,16.434c10.096,0,16.802-5.675,16.802-13.781
			C321.513,354.96,320.261,354.149,317.534,354.149z"/>
	</g>
</g>
<g>
	<g>
		<path d="M358.51,364.613h-21.887v-16.949h11.348c1.768,0,2.579-1.621,2.579-3.021c0-1.695-0.958-3.169-2.579-3.169h-11.348
			v-16.876h21.887c1.621,0,2.579-1.622,2.579-3.538c0-1.622-0.81-3.391-2.579-3.391h-26.236c-1.695,0-3.464,0.884-3.464,2.579
			v48.712c0,1.695,1.769,2.579,3.464,2.579h26.236c1.768,0,2.579-1.769,2.579-3.39C361.089,366.235,360.131,364.613,358.51,364.613z
			"/>
	</g>
</g>
<g>
</g>
<g>
</g>
<g>
</g>
<g>
</g>
<g>
</g>
<g>
</g>
<g>
</g>
<g>
</g>
<g>
</g>
<g>
</g>
<g>
</g>
<g>
</g>
<g>
</g>
<g>
</g>
<g>
</g>
</svg>
