<?xml version="1.0" encoding="iso-8859-1"?>
<!-- Generator: Adobe Illustrator 19.0.0, SVG Export Plug-In . SVG Version: 6.00 Build 0)  -->
<svg version="1.1" id="Capa_1" xmlns="http://www.w3.org/2000/svg" xmlns:xlink="http://www.w3.org/1999/xlink" x="0px" y="0px"
	 viewBox="0 0 512 512" style="enable-background:new 0 0 512 512;" xml:space="preserve">
<g>
	<g>
		<path d="M509.696,247.375L390.317,40.605c-3.072-5.32-8.797-8.625-14.94-8.625h-34.841c-4.142,0-7.498,3.357-7.498,7.498
			c0,4.141,3.356,7.498,7.498,7.498h34.841c0.804,0,1.553,0.433,1.953,1.128l119.378,206.77c0.401,0.695,0.401,1.559,0,2.254
			l-14.494,25.105c-2.07,3.586-0.842,8.172,2.744,10.242c1.181,0.682,2.47,1.006,3.742,1.006c2.59,0,5.112-1.346,6.5-3.751
			l14.494-25.104C512.768,259.306,512.768,252.695,509.696,247.375z"/>
	</g>
</g>
<g>
	<g>
		<path d="M465.632,325.95c-3.588-2.071-8.174-0.842-10.242,2.744l-78.059,135.201c-0.402,0.696-1.15,1.129-1.953,1.129H136.622
			c-0.803,0-1.551-0.432-1.952-1.128L15.292,257.129c-0.402-0.696-0.402-1.562-0.001-2.256L134.67,48.103
			c0.4-0.695,1.149-1.127,1.951-1.127h148.891c4.142,0,7.498-3.357,7.498-7.498c0-4.141-3.356-7.498-7.498-7.498H136.621
			c-6.143,0-11.869,3.305-14.939,8.626L2.303,247.376c-3.07,5.32-3.07,11.93,0.001,17.25l119.378,206.767
			c3.071,5.321,8.796,8.627,14.94,8.627h238.756c6.143,0,11.868-3.305,14.94-8.626l78.059-135.202
			C470.447,332.606,469.219,328.02,465.632,325.95z"/>
	</g>
</g>
<g>
	<g>
		<path d="M465.296,248.253l-21.917-37.971c-3.073-5.324-8.802-8.631-14.948-8.631H83.571c-6.146,0-11.875,3.307-14.948,8.631
			l-21.924,37.982c-2.744,4.775-2.744,10.705,0.007,15.492l97.938,169.599c2.751,4.79,7.899,7.765,13.431,7.765h195.852
			c5.533,0,10.68-2.975,13.422-7.751l97.946-169.613c0.002-0.004,0.005-0.008,0.007-0.012
			C468.047,258.969,468.047,253.038,465.296,248.253z M452.305,256.264l-97.949,169.619c-0.088,0.152-0.244,0.239-0.429,0.239
			H158.075c-0.185,0-0.341-0.087-0.437-0.253L59.699,256.268c-0.096-0.166-0.096-0.364-0.006-0.519l21.916-37.97
			c0.403-0.699,1.155-1.133,1.961-1.133h344.86c0.807,0,1.559,0.434,1.96,1.132l21.911,37.96
			C452.398,255.902,452.399,256.098,452.305,256.264z"/>
	</g>
</g>
<g>
	<g>
		<path d="M159.52,121.793c0-6.69,5.521-9.664,13.274-9.664c9.028,0,11.789,4.036,14.656,4.036c3.186,0,4.673-3.929,4.673-6.053
			c0-5.841-12.426-7.647-19.329-7.647c-11.363,0-24.533,4.673-24.533,20.391c0,25.489,34.516,18.161,34.516,36.959
			c0,7.647-5.735,11.258-13.383,11.257c-11.789,0-14.337-8.39-18.16-8.39c-2.656,0-4.886,3.505-4.886,6.053
			c0,5.31,9.664,12.532,23.471,12.532c14.019,0,24.215-7.434,24.215-22.621C194.035,130.395,159.52,137.511,159.52,121.793z"/>
	</g>
</g>
<g>
	<g>
		<path d="M246.922,102.783L246.922,102.783l-44.074,0.001c-2.548,0-3.717,2.655-3.717,5.098c0,2.761,1.381,5.204,3.717,5.204
			h16.462v63.616c0,2.442,2.762,3.717,5.629,3.717c2.761,0,5.629-1.275,5.629-3.717v-63.616h16.355c2.443,0,3.718-2.549,3.718-5.311
			C250.64,105.332,249.471,102.783,246.922,102.783z"/>
	</g>
</g>
<g>
	<g>
		<path d="M280.801,102.783c-13.487,0-23.79,6.478-23.79,23.683v30.906c0,17.204,10.301,23.683,23.79,23.683
			c13.381,0,23.896-6.478,23.896-23.683v-30.906C304.696,109.261,294.183,102.783,280.801,102.783z M293.438,157.372
			c0,9.346-4.78,13.7-12.639,13.7c-7.966,0-12.532-4.355-12.532-13.7v-30.906c0-9.346,4.566-13.7,12.532-13.7
			c7.86,0,12.639,4.355,12.639,13.7V157.372z"/>
	</g>
</g>
<g>
	<g>
		<path d="M342.927,102.783h-20.71c-2.655,0-4.354,1.7-4.354,3.611v70.306c0,2.442,2.867,3.717,5.628,3.717
			c2.867,0,5.629-1.275,5.629-3.717v-26.232h13.169c13.381,0,23.896-6.478,23.896-23.471v-0.85
			C366.186,109.049,355.99,102.783,342.927,102.783z M354.929,127.742c0,9.345-4.78,13.806-12.639,13.806h-13.169v-28.781h13.169
			c7.86,0,12.639,4.355,12.639,13.7V127.742z"/>
	</g>
</g>
<g>
	<g>
		<path d="M202.842,229.294h-9.069c-1.163,0-1.908,0.745-1.908,1.582h-0.002v30.791c0,1.07,1.257,1.628,2.465,1.628
			c1.257,0,2.465-0.558,2.465-1.628v-11.488h5.768c5.86,0,10.465-2.837,10.465-10.279v-0.373
			C213.029,232.038,208.564,229.294,202.842,229.294z M208.099,240.224c0,4.093-2.093,6.046-5.535,6.046h-5.768v-12.604h5.768
			c3.441,0,5.535,1.906,5.535,5.999V240.224z"/>
	</g>
</g>
<g>
	<g>
		<path d="M227.307,229.294c-5.906,0-10.418,2.837-10.418,10.372v13.535c0,7.535,4.512,10.372,10.418,10.372
			c5.861,0,10.465-2.837,10.465-10.372v-13.535C237.772,232.131,233.167,229.294,227.307,229.294z M232.842,253.201
			c0,4.093-2.093,5.999-5.536,5.999c-3.488,0-5.488-1.907-5.488-5.999v-13.535c0-4.093,1.999-5.999,5.488-5.999
			c3.442,0,5.536,1.906,5.536,5.999V253.201z"/>
	</g>
</g>
<g>
	<g>
		<path d="M260.562,258.922h-12.094v-28.047c0-1.117-1.209-1.582-2.465-1.582c-1.209,0-2.465,0.465-2.465,1.582v30.791
			c0,1.07,1.118,1.628,2.186,1.628v0.001h14.838c0.976,0,1.488-1.117,1.488-2.186C262.05,259.991,261.539,258.922,260.562,258.922z"
			/>
	</g>
</g>
<g>
	<g>
		<path d="M268.189,229.294c-1.209,0-2.465,0.465-2.465,1.582v30.791c0,1.07,1.257,1.628,2.465,1.628
			c1.257,0,2.465-0.558,2.465-1.628v-30.791C270.654,229.758,269.446,229.294,268.189,229.294z"/>
	</g>
</g>
<g>
	<g>
		<path d="M294.839,252.316c-1.35,0-2.325,0.419-2.418,1.628c-0.187,2.046-0.606,5.256-5.35,5.256c-3.675,0-5.674-1.906-5.674-5.999
			v-13.535c0-4.093,1.999-5.999,5.582-5.999c4.791,0,5.349,3.349,5.444,4.977c0.046,1.116,0.977,1.628,2.464,1.628
			c1.676,0,2.465-0.465,2.465-2.558c0-4.93-4.186-8.419-10.558-8.419c-5.628,0-10.325,2.837-10.325,10.372V253.2
			c0,7.535,4.651,10.372,10.278,10.372c6.372,0,10.604-3.581,10.604-8.698C297.35,252.828,296.56,252.316,294.839,252.316z"/>
	</g>
</g>
<g>
	<g>
		<path d="M320.696,258.922h-13.813v-10.698h7.163c1.116,0,1.628-1.024,1.628-1.908c0-1.069-0.605-1.999-1.628-1.999h-7.163v-10.65
			h13.813c1.025,0,1.629-1.023,1.629-2.232c0-1.023-0.512-2.139-1.629-2.139h-16.559c-1.07,0-2.186,0.558-2.186,1.628v30.744
			c0,1.07,1.118,1.628,2.186,1.628h16.559c1.117,0,1.629-1.117,1.629-2.139C322.324,259.944,321.72,258.922,320.696,258.922z"/>
	</g>
</g>
<g>
	<g>
		<path d="M156.544,308.129c-1.35,0-2.325,0.419-2.418,1.628c-0.187,2.046-0.606,5.256-5.35,5.256c-3.675,0-5.674-1.907-5.674-5.999
			v-13.535c0-4.093,1.999-5.999,5.581-5.999c4.791,0,5.349,3.349,5.444,4.977c0.046,1.116,0.977,1.628,2.464,1.628
			c1.676,0,2.465-0.465,2.465-2.558c0-4.931-4.186-8.419-10.558-8.419c-5.628,0-10.325,2.837-10.325,10.372v13.535
			c0,7.535,4.651,10.372,10.278,10.372c6.372,0,10.604-3.581,10.604-8.698C159.055,308.64,158.265,308.129,156.544,308.129z"/>
	</g>
</g>
<g>
	<g>
		<path d="M182.635,285.105c-1.21,0-2.465,0.465-2.465,1.582v12.838h-11.582v-12.838c0-1.117-1.209-1.582-2.465-1.582
			c-1.209,0-2.465,0.465-2.465,1.582v30.791c0,1.07,1.257,1.628,2.465,1.628c1.257,0,2.465-0.558,2.465-1.628v-14.046h11.582v14.046
			c0,1.07,1.256,1.628,2.465,1.628c1.256,0,2.465-0.558,2.465-1.628v-30.791C185.1,285.57,183.89,285.105,182.635,285.105z"/>
	</g>
</g>
<g>
	<g>
		<path d="M209.98,314.734h-13.813v-10.698h7.163c1.116,0,1.628-1.024,1.628-1.907c0-1.069-0.605-1.999-1.628-1.999h-7.163v-10.65
			h13.813c1.025,0,1.629-1.023,1.629-2.232c0-1.023-0.512-2.139-1.629-2.139h-16.559c-1.07,0-2.186,0.558-2.186,1.628v30.744
			c0,1.07,1.118,1.628,2.186,1.628h16.559c1.117,0,1.629-1.117,1.629-2.139C211.609,315.757,211.004,314.734,209.98,314.734z"/>
	</g>
</g>
<g>
	<g>
		<path d="M233.191,308.129c-1.35,0-2.325,0.419-2.418,1.628c-0.187,2.046-0.606,5.256-5.35,5.256c-3.675,0-5.674-1.907-5.674-5.999
			v-13.535c0-4.093,1.999-5.999,5.581-5.999c4.791,0,5.349,3.349,5.444,4.977c0.046,1.116,0.977,1.628,2.464,1.628
			c1.676,0,2.465-0.465,2.465-2.558c0-4.931-4.186-8.419-10.558-8.419c-5.629,0-10.325,2.837-10.325,10.372v13.535
			c0,7.535,4.651,10.372,10.278,10.372c6.372,0,10.604-3.581,10.604-8.698C235.703,308.64,234.913,308.129,233.191,308.129z"/>
	</g>
</g>
<g>
	<g>
		<path d="M262.12,315.944l-10.604-16.14l8.931-11.163c0.279-0.326,0.372-0.745,0.372-0.977c0-1.256-1.582-2.558-2.837-2.558
			c-0.558,0-1.07,0.186-1.396,0.698l-11.349,15.023v-14.139c0-1.117-1.209-1.582-2.465-1.582c-1.209,0-2.465,0.465-2.465,1.582
			h-0.001v30.791c0,1.07,1.257,1.628,2.465,1.628c1.257,0,2.465-0.558,2.465-1.628v-9.721l3.023-3.814l9.488,14.372
			c0.418,0.652,1.07,0.931,1.768,0.931c1.396,0,2.884-1.209,2.884-2.418C262.398,316.501,262.306,316.222,262.12,315.944z"/>
	</g>
</g>
<g>
	<g>
		<path d="M276.443,285.106h-9.069c-1.163,0-1.907,0.745-1.907,1.582h-0.002v30.791c0,1.07,1.257,1.628,2.465,1.628
			c1.257,0,2.465-0.558,2.465-1.628V305.99h5.768c5.86,0,10.465-2.837,10.465-10.279v-0.373
			C286.629,287.85,282.164,285.106,276.443,285.106z M281.699,296.036c0,4.093-2.093,6.046-5.535,6.046h-5.768v-12.605h5.768
			c3.441,0,5.535,1.906,5.535,5.999V296.036z"/>
	</g>
</g>
<g>
	<g>
		<path d="M300.907,285.105c-5.906,0-10.418,2.837-10.418,10.372v13.535c0,7.535,4.512,10.372,10.418,10.372
			c5.861,0,10.465-2.837,10.465-10.372v-13.535C311.372,287.942,306.768,285.105,300.907,285.105z M306.443,309.013
			c0,4.093-2.093,5.999-5.535,5.999c-3.488,0-5.488-1.906-5.488-5.999v-13.535c0-4.093,2-5.999,5.488-5.999
			c3.442,0,5.535,1.906,5.535,5.999V309.013z"/>
	</g>
</g>
<g>
	<g>
		<path d="M319.603,285.106c-1.209,0-2.465,0.465-2.465,1.582v30.791c0,1.07,1.257,1.628,2.465,1.628
			c1.257,0,2.465-0.558,2.465-1.628v-30.791C322.069,285.571,320.86,285.106,319.603,285.106z"/>
	</g>
</g>
<g>
	<g>
		<path d="M347.185,285.107c-1.21,0-2.465,0.465-2.465,1.582v21.348l-10.326-20.14c-1.117-2.14-1.952-2.791-3.721-2.791
			c-1.256,0-2.465,0.465-2.465,1.628v30.744c0,1.07,1.257,1.628,2.465,1.628c1.257,0,2.465-0.558,2.465-1.628v-21.348l11.116,21.162
			c0.652,1.21,1.722,1.815,2.931,1.815c1.256,0,2.465-0.558,2.465-1.628v-30.791C349.65,285.572,348.441,285.107,347.185,285.107z"
			/>
	</g>
</g>
<g>
	<g>
		<path d="M374.299,285.106h-19.303c-1.116,0-1.628,1.163-1.628,2.232c0,1.21,0.605,2.279,1.628,2.279h7.21v27.861
			c0,1.07,1.209,1.628,2.465,1.628c1.209,0,2.465-0.558,2.465-1.628v-27.861h7.162c1.07,0,1.629-1.117,1.629-2.325
			C375.927,286.222,375.415,285.106,374.299,285.106z"/>
	</g>
</g>
<g>
</g>
<g>
</g>
<g>
</g>
<g>
</g>
<g>
</g>
<g>
</g>
<g>
</g>
<g>
</g>
<g>
</g>
<g>
</g>
<g>
</g>
<g>
</g>
<g>
</g>
<g>
</g>
<g>
</g>
</svg>
