<?xml version="1.0" encoding="iso-8859-1"?>
<!-- Generator: Adobe Illustrator 19.0.0, SVG Export Plug-In . SVG Version: 6.00 Build 0)  -->
<svg version="1.1" id="Capa_1" xmlns="http://www.w3.org/2000/svg" xmlns:xlink="http://www.w3.org/1999/xlink" x="0px" y="0px"
	 viewBox="0 0 512 512" style="enable-background:new 0 0 512 512;" xml:space="preserve">
<g>
	<g>
		<path d="M437.019,74.981C388.668,26.628,324.38,0,256,0c-35.581,0-70.023,7.163-102.371,21.289
			c-31.241,13.645-59.075,33.113-82.729,57.864c-2.86,2.993-2.753,7.737,0.24,10.597c2.993,2.86,7.737,2.753,10.597-0.24
			C127.663,41.454,189.551,14.99,256,14.99c132.893,0,241.01,108.117,241.01,241.01S388.893,497.01,256,497.01
			C123.106,497.01,14.99,388.894,14.99,256c0-44.839,12.396-88.594,35.849-126.536c2.176-3.521,1.085-8.139-2.435-10.316
			c-3.521-2.176-8.139-1.085-10.316,2.435C13.171,161.895,0,208.375,0,256c0,68.379,26.628,132.667,74.981,181.019
			C123.333,485.372,187.62,512,256,512s132.668-26.628,181.019-74.98C485.372,388.668,512,324.38,512,256
			S485.371,123.333,437.019,74.981z"/>
	</g>
</g>
<g>
	<g>
		<path d="M256,43.846C139.017,43.846,43.846,139.018,43.846,256c0,116.983,95.172,212.154,212.154,212.154
			c116.982,0,212.154-95.172,212.154-212.154S372.982,43.846,256,43.846z M256,453.165c-108.717,0-197.165-88.448-197.165-197.165
			S147.283,58.835,256,58.835S453.165,147.283,453.165,256S364.717,453.165,256,453.165z"/>
	</g>
</g>
<g>
	<g>
		<path d="M370.557,215.1h-48.936c-4.14,0-7.495,3.356-7.495,7.495c0,4.139,3.355,7.495,7.495,7.495h48.936
			c1.853,0,3.361,1.508,3.361,3.361v45.1c0,1.853-1.508,3.36-3.361,3.36H141.443c-1.853,0-3.361-1.507-3.361-3.36v-45.1
			c0-1.854,1.508-3.361,3.361-3.361h127.548c4.14,0,7.495-3.356,7.495-7.495c0-4.139-3.355-7.495-7.495-7.495H141.443
			c-10.119,0-18.35,8.232-18.35,18.35v45.1c0,10.118,8.232,18.349,18.35,18.349h229.115c10.119,0,18.35-8.231,18.35-18.349v-45.1
			C388.908,223.332,380.676,215.1,370.557,215.1z"/>
	</g>
</g>
<g>
</g>
<g>
</g>
<g>
</g>
<g>
</g>
<g>
</g>
<g>
</g>
<g>
</g>
<g>
</g>
<g>
</g>
<g>
</g>
<g>
</g>
<g>
</g>
<g>
</g>
<g>
</g>
<g>
</g>
</svg>
