<?xml version="1.0" encoding="iso-8859-1"?>
<!-- Generator: Adobe Illustrator 19.0.0, SVG Export Plug-In . SVG Version: 6.00 Build 0)  -->
<svg version="1.1" id="Capa_1" xmlns="http://www.w3.org/2000/svg" xmlns:xlink="http://www.w3.org/1999/xlink" x="0px" y="0px"
	 viewBox="0 0 512 512" style="enable-background:new 0 0 512 512;" xml:space="preserve">
<g>
	<g>
		<path d="M408.036,114.857c-4.531-7.987-12.718-12.754-21.9-12.754H125.864c-9.182,0-17.369,4.768-21.9,12.754
			c-4.531,7.987-4.425,17.46,0.285,25.343l130.136,217.794c4.589,7.68,12.669,12.264,21.616,12.264
			c8.944,0,17.026-4.586,21.617-12.266l28.355-47.455c2.122-3.552,0.963-8.15-2.589-10.273c-3.551-2.122-8.15-0.962-10.273,2.589
			l-28.355,47.454c-1.887,3.156-5.077,4.967-8.755,4.967c-3.677,0-6.868-1.811-8.754-4.967L117.11,132.514
			c-1.908-3.192-1.952-7.03-0.116-10.264c1.836-3.234,5.151-5.165,8.87-5.165h260.272c3.719,0,7.035,1.931,8.87,5.165
			s1.792,7.071-0.116,10.263l-73.718,123.373c-2.122,3.553-0.964,8.151,2.588,10.274c3.554,2.123,8.152,0.963,10.274-2.588
			l73.717-123.373C412.461,132.317,412.567,122.844,408.036,114.857z"/>
	</g>
</g>
<g>
	<g>
		<path d="M507.086,54.614c-6.698-11.805-18.801-18.853-32.373-18.853H205.887c-4.137,0-7.491,3.354-7.491,7.491
			c0,4.137,3.354,7.491,7.491,7.491h268.827c8.108,0,15.339,4.211,19.341,11.264s3.908,15.42-0.251,22.381L275.091,450.425
			c-4.053,6.782-11.189,10.831-19.09,10.831c-7.901,0-15.037-4.048-19.089-10.831L18.197,84.388
			c-4.159-6.962-4.253-15.328-0.252-22.381s11.232-11.264,19.341-11.264h113.837c4.137,0,7.491-3.354,7.491-7.491
			c0-4.137-3.354-7.491-7.491-7.491H37.286c-13.573,0-25.675,7.048-32.373,18.853c-6.697,11.804-6.54,25.808,0.422,37.459
			L224.049,458.11c6.782,11.352,18.727,18.129,31.95,18.129c13.224,0,25.169-6.777,31.951-18.129L506.666,92.073
			C513.626,80.422,513.784,66.418,507.086,54.614z"/>
	</g>
</g>
<g>
	<g>
		<path d="M209.262,142.069c-0.704,0-1.337,0.421-1.83,1.407l-13.021,25.69l-12.951-25.69c-0.492-0.986-1.056-1.407-1.83-1.407
			c-1.127,0-2.534,0.774-2.534,1.971c0,0.283,0.071,0.775,0.353,1.268l14.569,27.942c0.07,0.211,0.07,0.352,0.07,0.562v17.877
			c0,1.197,1.198,1.83,2.323,1.83c1.197,0,2.322-0.633,2.322-1.83v-17.877c0-0.21,0.07-0.352,0.141-0.562l14.64-27.942
			c0.212-0.493,0.282-0.986,0.282-1.268C211.796,142.843,210.387,142.069,209.262,142.069z"/>
	</g>
</g>
<g>
	<g>
		<path d="M220.806,142.07c-1.197,0-2.322,0.492-2.322,1.689v47.93c0,1.197,1.126,1.83,2.322,1.83c1.126,0,2.322-0.633,2.322-1.83
			v-47.93C223.128,142.563,221.932,142.07,220.806,142.07z"/>
	</g>
</g>
<g>
	<g>
		<path d="M260.994,189.225h-22.522v-19.496h11.05c1.267,0,1.76-0.985,1.76-1.9c0-1.127-0.634-2.112-1.76-2.112h-11.05v-19.355
			h22.522c1.127,0,1.76-1.056,1.76-2.252c0-0.985-0.492-2.041-1.76-2.041h-25.055c-1.056,0-2.112,0.562-2.112,1.759v47.861
			c0,1.197,1.056,1.83,2.112,1.83h25.055c1.268,0,1.76-1.127,1.76-2.112C262.754,190.281,262.12,189.225,260.994,189.225z"/>
	</g>
</g>
<g>
	<g>
		<path d="M294.287,189.226h-20.059v-45.467c0-1.197-1.197-1.689-2.322-1.689c-1.197,0-2.322,0.492-2.322,1.689v47.93
			c0,1.197,1.056,1.83,2.112,1.83v0.001h22.592c1.056,0,1.548-1.057,1.548-2.182C295.835,190.282,295.343,189.226,294.287,189.226z"
			/>
	</g>
</g>
<g>
	<g>
		<path d="M316.742,142.07h-12.457c-1.267,0-2.112,0.774-2.112,1.689v48c0,0.915,0.845,1.76,2.112,1.76h12.457
			c8.235,0,14.711-4.082,14.711-15.062v-21.396C331.452,146.152,324.977,142.07,316.742,142.07z M326.808,178.457
			c0,7.319-3.802,10.768-10.065,10.768h-9.924v-42.861h9.924c6.265,0,10.065,3.378,10.065,10.697V178.457z"/>
	</g>
</g>
<g>
</g>
<g>
</g>
<g>
</g>
<g>
</g>
<g>
</g>
<g>
</g>
<g>
</g>
<g>
</g>
<g>
</g>
<g>
</g>
<g>
</g>
<g>
</g>
<g>
</g>
<g>
</g>
<g>
</g>
</svg>
