<?xml version="1.0" encoding="iso-8859-1"?>
<!-- Generator: Adobe Illustrator 19.0.0, SVG Export Plug-In . SVG Version: 6.00 Build 0)  -->
<svg version="1.1" id="Capa_1" xmlns="http://www.w3.org/2000/svg" xmlns:xlink="http://www.w3.org/1999/xlink" x="0px" y="0px"
	 viewBox="0 0 512 512" style="enable-background:new 0 0 512 512;" xml:space="preserve">
<g>
	<g>
		<path d="M465.123,248.254L367.269,78.767c-2.757-4.777-7.898-7.745-13.415-7.745H158.146c-5.516,0-10.657,2.968-13.415,7.745
			L46.877,248.254c-2.758,4.777-2.758,10.714,0,15.491l97.854,169.488c2.758,4.777,7.899,7.745,13.415,7.745h195.708
			c5.517,0,10.657-2.967,13.414-7.745l97.855-169.488C467.881,258.966,467.881,253.032,465.123,248.254z M452.14,256.249
			l-97.855,169.488c-0.089,0.154-0.254,0.25-0.432,0.25H158.146c-0.178,0-0.344-0.096-0.433-0.25L59.859,256.249
			c-0.089-0.154-0.089-0.346,0-0.5l97.854-169.487c0.089-0.154,0.255-0.25,0.433-0.25h195.708c0.178,0,0.343,0.096,0.432,0.25
			l97.855,169.487C452.229,255.903,452.229,256.095,452.14,256.249z"/>
	</g>
</g>
<g>
	<g>
		<path d="M412.352,78.772l-22.036-38.167c-3.071-5.32-8.796-8.625-14.938-8.625H136.62c-6.142,0-11.866,3.305-14.938,8.625
			L2.303,247.375c-3.071,5.319-3.071,11.929,0,17.249l79.932,138.448c1.388,2.405,3.908,3.749,6.498,3.749
			c1.271,0,2.56-0.325,3.741-1.007c3.585-2.07,4.813-6.654,2.743-10.239L15.286,257.129c-0.402-0.697-0.402-1.562,0-2.259
			L134.665,48.1c0.402-0.697,1.151-1.129,1.956-1.129h238.758c0.805,0,1.554,0.433,1.956,1.129l22.036,38.167
			c2.071,3.586,6.655,4.814,10.239,2.743C413.194,86.941,414.422,82.357,412.352,78.772z"/>
	</g>
</g>
<g>
	<g>
		<path d="M509.696,247.374l-70.618-122.313c-2.07-3.585-6.654-4.813-10.239-2.743c-3.585,2.07-4.813,6.654-2.743,10.239
			l70.618,122.313c0.402,0.697,0.402,1.562,0,2.259L377.334,463.9c-0.402,0.696-1.151,1.128-1.955,1.128H136.621
			c-0.805,0-1.554-0.433-1.956-1.129l-12.584-21.798c-2.07-3.586-6.654-4.814-10.239-2.743c-3.585,2.07-4.813,6.654-2.743,10.239
			l12.585,21.799c3.071,5.319,8.796,8.624,14.938,8.624h238.758c6.142,0,11.867-3.305,14.938-8.625l119.379-206.772
			C512.767,259.304,512.767,252.694,509.696,247.374z"/>
	</g>
</g>
<g>
	<g>
		<path d="M146.364,227.421c0-7.602,6.275-10.981,15.084-10.981c10.258,0,13.395,4.585,16.653,4.585c3.621,0,5.31-4.464,5.31-6.878
			c0-6.637-14.119-8.688-21.962-8.688c-12.912,0-27.875,5.31-27.875,23.169c0,28.961,39.219,20.635,39.219,41.993
			c0,8.689-6.516,12.791-15.206,12.79c-13.394,0-16.29-9.533-20.635-9.533c-3.016,0-5.551,3.982-5.551,6.878
			c0,6.034,10.982,14.24,26.668,14.24c15.929,0,27.513-8.446,27.513-25.703C185.581,237.195,146.364,245.281,146.364,227.421z"/>
	</g>
</g>
<g>
	<g>
		<path d="M245.679,205.821L245.679,205.821l-50.077-0.001c-2.896,0-4.223,3.017-4.223,5.793c0,3.138,1.569,5.913,4.223,5.913
			h18.704v72.282c0,2.775,3.137,4.223,6.395,4.223c3.137,0,6.395-1.448,6.395-4.223v-72.282h18.583c2.775,0,4.224-2.896,4.224-6.033
			C249.903,208.717,248.576,205.821,245.679,205.821z"/>
	</g>
</g>
<g>
	<g>
		<path d="M284.177,205.821c-15.325,0-27.03,7.362-27.03,26.91v35.115c0,19.549,11.704,26.91,27.03,26.91
			c15.204,0,27.151-7.361,27.151-26.91v-35.115C311.328,213.183,299.381,205.821,284.177,205.821z M298.537,267.846
			c0,10.62-5.43,15.567-14.359,15.567c-9.051,0-14.24-4.948-14.24-15.567v-35.115c0-10.62,5.189-15.567,14.24-15.567
			c8.929,0,14.359,4.948,14.359,15.567V267.846z"/>
	</g>
</g>
<g>
	<g>
		<path d="M354.773,205.822h-23.531c-3.016,0-4.947,1.931-4.947,4.103h0.001v79.883c0,2.775,3.258,4.223,6.395,4.223
			c3.258,0,6.395-1.448,6.395-4.223v-29.805h14.963c15.204,0,27.151-7.361,27.151-26.668v-0.965
			C381.201,212.942,369.617,205.822,354.773,205.822z M368.409,234.179c0,10.619-5.431,15.687-14.36,15.687h-14.963v-32.701h14.963
			c8.93,0,14.36,4.948,14.36,15.567V234.179z"/>
	</g>
</g>
<g>
</g>
<g>
</g>
<g>
</g>
<g>
</g>
<g>
</g>
<g>
</g>
<g>
</g>
<g>
</g>
<g>
</g>
<g>
</g>
<g>
</g>
<g>
</g>
<g>
</g>
<g>
</g>
<g>
</g>
</svg>
