<?xml version="1.0" encoding="iso-8859-1"?>
<!-- Generator: Adobe Illustrator 19.0.0, SVG Export Plug-In . SVG Version: 6.00 Build 0)  -->
<svg xmlns="http://www.w3.org/2000/svg" xmlns:xlink="http://www.w3.org/1999/xlink" version="1.1" id="Layer_1" x="0px" y="0px" viewBox="0 0 512.002 512.002" style="enable-background:new 0 0 512.002 512.002;" xml:space="preserve">
<g>
	<g>
		<path d="M139.919,169.599c-1.087-0.725-27.125-17.657-69.76-9.13c-3.506,0.701-6.029,3.779-6.029,7.354v8.016    c0,4.142,3.358,7.5,7.5,7.5c4.142,0,7.499-3.358,7.499-7.5v-1.696c16.065-2.295,28.779-0.412,36.94,1.735    c9.833,2.587,15.377,6.104,15.56,6.222c1.271,0.839,2.705,1.24,4.123,1.24c2.423,0,4.802-1.173,6.247-3.341    C144.297,176.553,143.366,171.896,139.919,169.599z"/>
	</g>
</g>
<g>
	<g>
		<path d="M47.581,336.677c-4.142,0-7.5,3.358-7.5,7.5v40.081c0,4.142,3.358,7.5,7.5,7.5c4.142,0,7.5-3.358,7.5-7.5v-40.081    C55.081,340.035,51.723,336.677,47.581,336.677z"/>
	</g>
</g>
<g>
	<g>
		<path d="M186.916,299.238l-38.121-14.295c-3.312-1.242-5.537-4.453-5.537-7.989v-19.231c1.633-1.303,3.213-2.69,4.733-4.166    c12.456-12.088,19.315-28.301,19.315-45.654v-14.262l2.146-4.293c3.84-7.68,5.87-16.278,5.87-24.864v-44.759    c0-4.142-3.358-7.5-7.5-7.5H84.294c-28.8,0-52.23,23.43-52.23,52.259c0,8.586,2.03,17.184,5.87,24.864l2.146,4.293v11.909    c0,20.629,9.437,39.284,24.048,51.452v19.952c0,3.537-2.225,6.748-5.536,7.989L20.47,299.238C8.227,303.83,0,315.701,0,328.778    v55.479c0,4.142,3.358,7.5,7.5,7.5s7.5-3.358,7.5-7.5v-55.479c0-6.859,4.315-13.086,10.738-15.495l38.122-14.295    c2.063-0.774,3.963-1.837,5.684-3.113l26.649,19.987v68.395c0,4.142,3.358,7.5,7.5,7.5c4.142,0,7.5-3.358,7.5-7.5v-68.395    l26.65-19.987c1.721,1.276,3.621,2.339,5.684,3.113l38.122,14.295c6.422,2.409,10.738,8.635,10.738,15.495    c0,4.142,3.358,7.5,7.5,7.5c4.142,0,7.5-3.358,7.5-7.5C207.387,315.701,199.16,303.83,186.916,299.238z M103.694,302.737    l-25.542-19.156c0.63-2.123,0.977-4.348,0.977-6.627v-10.63c7.007,3.092,14.631,4.923,22.613,5.162    c0.66,0.02,1.318,0.03,1.975,0.03c8.565,0,16.865-1.691,24.542-4.905v10.343c0,2.279,0.347,4.504,0.977,6.627L103.694,302.737z     M137.544,242.793c-9.515,9.233-22.065,14.091-35.353,13.701c-25.976-0.78-47.11-23.634-47.11-50.944v-13.679    c0-1.165-0.271-2.313-0.792-3.354l-2.938-5.877c-2.804-5.608-4.286-11.886-4.286-18.185c0-20.529,16.701-37.23,37.23-37.23h76.028    v37.259c0,6.269-1.482,12.547-4.287,18.156l-2.938,5.877c-0.521,1.041-0.792,2.189-0.792,3.354v16.032    C152.306,221.164,147.063,233.555,137.544,242.793z"/>
	</g>
</g>
<g>
	<g>
		<path d="M494.561,306.774l-29.867-14.934c19.978-5.695,32.546-13.076,38.809-17.465c6.024-4.221,8.282-11.869,5.491-18.598    c-5.932-14.297-12.9-41.511-13.023-71.153c-0.171-41.199-31.857-76.369-72.137-80.068c-4.981-0.458-10.03-0.458-15.02,0    c-40.28,3.699-71.967,38.87-72.138,80.068c-0.123,29.643-7.092,56.856-13.023,71.153c-2.792,6.729-0.534,14.377,5.49,18.598    c6.264,4.39,18.833,11.77,38.809,17.465l-29.868,14.934c-7.775,3.888-13.656,10.898-16.134,19.232    c-1.18,3.97,1.082,8.146,5.053,9.326c0.713,0.212,1.433,0.313,2.14,0.313c3.233,0,6.218-2.108,7.187-5.365    c1.3-4.373,4.384-8.05,8.464-10.09l23.677-11.838c9.931,16.741,28.151,27.293,47.853,27.293c19.877,0,37.945-10.506,47.858-27.291    l23.673,11.836c5.643,2.821,9.147,8.492,9.147,14.801v49.266c0,4.142,3.357,7.5,7.5,7.5s7.5-3.358,7.5-7.5v-49.266    C512,322.964,505.317,312.152,494.561,306.774z M416.322,320.645c-14.027,0-27.014-7.333-34.378-19.03l4.822-2.411    c8.023-4.013,13.008-12.078,13.008-21.048v-8.836c5.28,1.424,10.824,2.197,16.548,2.197c5.659,0,11.217-0.76,16.549-2.203v8.842    c0,8.971,4.984,17.036,13.008,21.048l4.842,2.421C443.374,313.35,430.475,320.645,416.322,320.645z M448.185,280.447    c-0.203-0.734-0.313-1.503-0.313-2.292V263.11c9.763-5.58,18.057-13.726,23.792-23.82c10.52-18.512,6.718-42.408-9.04-56.819    c-11.046-10.104-30.827-22.149-62.333-22.149c-1.989,0-3.896,0.79-5.304,2.197l-16.032,16.032c-2.929,2.929-2.929,7.678,0,10.606    c2.93,2.929,7.678,2.929,10.607,0l13.793-13.793c20.043,0.561,36.565,6.668,49.146,18.175c10.641,9.732,13.216,25.857,6.122,38.34    c-8.635,15.196-24.843,24.636-42.3,24.636c-26.805,0-48.612-21.808-48.612-48.613c0-4.142-3.357-7.5-7.5-7.5s-7.5,3.358-7.5,7.5    c0,23.6,12.928,44.224,32.064,55.204v15.049c0,0.789-0.111,1.558-0.313,2.292c-25.287-5.238-40.091-13.719-46.711-18.357    c-0.139-0.097-0.355-0.299-0.243-0.565c6.453-15.557,14.036-45.015,14.168-76.839c0.139-33.557,25.839-62.193,58.51-65.193    c4.084-0.375,8.201-0.375,12.275,0c32.67,3,58.37,31.636,58.509,65.193c0.132,31.824,7.715,61.282,14.168,76.839    c0.11,0.267-0.104,0.469-0.244,0.566C488.276,266.729,473.474,275.209,448.185,280.447z"/>
	</g>
</g>
<g>
	<g>
		<path d="M472.436,344.693c-4.143,0-7.5,3.358-7.5,7.5v32.064c0,4.142,3.357,7.5,7.5,7.5s7.5-3.358,7.5-7.5v-32.064    C479.936,348.051,476.578,344.693,472.436,344.693z"/>
	</g>
</g>
<g>
	<g>
		<path d="M256.08,368.741H256c-4.142,0-7.46,3.358-7.46,7.5c0,4.142,3.398,7.5,7.54,7.5c4.143,0,7.5-3.358,7.5-7.5    C263.58,372.099,260.223,368.741,256.08,368.741z"/>
	</g>
</g>
<g>
	<g>
		<path d="M223.936,368.741h-65.677l14.064-10.548c3.313-2.485,3.985-7.187,1.5-10.5c-2.486-3.314-7.186-3.985-10.5-1.5    l-32.064,24.048c-1.889,1.417-3,3.639-3,6c0,2.361,1.111,4.583,3,6l32.064,24.049c1.349,1.012,2.928,1.5,4.494,1.5    c2.28,0,4.532-1.036,6.006-3c2.485-3.313,1.814-8.015-1.5-10.5l-14.065-10.549h65.677c4.142,0,7.5-3.358,7.5-7.5    C231.435,372.099,228.078,368.741,223.936,368.741z"/>
	</g>
</g>
<g>
	<g>
		<path d="M380.742,370.241l-32.064-24.048c-3.314-2.485-8.014-1.814-10.5,1.5c-2.485,3.313-1.813,8.015,1.5,10.5l14.064,10.548    h-65.678c-4.143,0-7.5,3.358-7.5,7.5c0,4.142,3.357,7.5,7.5,7.5h65.678l-14.064,10.548c-3.313,2.485-3.985,7.187-1.5,10.5    c1.474,1.965,3.726,3,6.006,3c1.565,0,3.146-0.489,4.494-1.5l32.064-24.048c1.889-1.417,3-3.639,3-6    C383.742,373.88,382.631,371.658,380.742,370.241z"/>
	</g>
</g>
<g>
</g>
<g>
</g>
<g>
</g>
<g>
</g>
<g>
</g>
<g>
</g>
<g>
</g>
<g>
</g>
<g>
</g>
<g>
</g>
<g>
</g>
<g>
</g>
<g>
</g>
<g>
</g>
<g>
</g>
</svg>
