<?xml version="1.0" encoding="iso-8859-1"?>
<!-- Generator: Adobe Illustrator 19.0.0, SVG Export Plug-In . SVG Version: 6.00 Build 0)  -->
<svg xmlns="http://www.w3.org/2000/svg" xmlns:xlink="http://www.w3.org/1999/xlink" version="1.1" id="Layer_1" x="0px" y="0px" viewBox="0 0 512 512" style="enable-background:new 0 0 512 512;" xml:space="preserve">
<g>
	<g>
		<path d="M320.129,64.129H127.742c-17.396,0-31.549,14.152-31.549,31.549v384.773c0,17.396,14.152,31.549,31.549,31.549h192.387    c17.396,0,31.549-14.152,31.549-31.549V95.678C351.678,78.281,337.525,64.129,320.129,64.129z M336.677,480.451    c0.001,9.125-7.423,16.549-16.548,16.549H127.742c-9.125,0-16.549-7.424-16.549-16.549v-32.58h225.484V480.451z M336.677,432.871    H111.193V111.193h225.484V432.871z M336.678,96.194H111.193v-0.516c0-9.125,7.424-16.549,16.549-16.549h192.387    c9.125,0,16.549,7.424,16.549,16.549V96.194z"/>
	</g>
</g>
<g>
	<g>
		<path d="M175.839,464.936h-8.017c-4.143,0-7.5,3.357-7.5,7.5s3.357,7.5,7.5,7.5h8.017c4.143,0,7.5-3.357,7.5-7.5    S179.981,464.936,175.839,464.936z"/>
	</g>
</g>
<g>
	<g>
		<path d="M280.049,464.936h-8.017c-4.143,0-7.5,3.357-7.5,7.5s3.357,7.5,7.5,7.5h8.017c4.143,0,7.5-3.357,7.5-7.5    S284.191,464.936,280.049,464.936z"/>
	</g>
</g>
<g>
	<g>
		<path d="M239.968,464.936h-32.064c-4.143,0-7.5,3.357-7.5,7.5s3.357,7.5,7.5,7.5h32.064c4.143,0,7.5-3.357,7.5-7.5    S244.11,464.936,239.968,464.936z"/>
	</g>
</g>
<g>
	<g>
		<path d="M302.769,185.724c-2.351-3.41-7.021-4.268-10.432-1.916s-4.268,7.021-1.916,10.432    c22.074,32.01,18.105,75.233-9.438,102.775c-0.474,0.474-0.967,0.921-1.45,1.381v-0.423c0-8.971-4.984-17.035-13.008-21.047    l-18.77-9.386c-0.178-0.088-0.287-0.266-0.287-0.463v-11.359c9.72-7.216,16.032-18.775,16.032-31.783v-16.032    c0-17.396-14.152-31.549-31.549-31.549h-16.032c-17.396,0-31.548,14.152-31.548,31.549v16.032    c0,13.008,6.312,24.567,16.032,31.783v11.359c0,0.197-0.109,0.375-0.286,0.463l-18.771,9.386    c-8.022,4.012-13.007,12.077-13.007,21.047v0.423c-0.483-0.46-0.976-0.907-1.45-1.381c-15.238-15.237-23.63-35.497-23.63-57.047    s8.392-41.81,23.63-57.047c27.541-27.543,70.766-31.514,102.775-9.438c3.41,2.353,8.081,1.495,10.432-1.916    c2.352-3.41,1.494-8.08-1.916-10.432c-37.97-26.186-89.235-21.484-121.898,11.179c-18.07,18.071-28.022,42.099-28.022,67.654    s9.952,49.583,28.022,67.654c18.655,18.654,43.15,27.98,67.654,27.978c24.498-0.002,49.004-9.328,67.654-27.978    C324.252,274.96,328.954,223.694,302.769,185.724z M199.372,223.935v-16.032h-0.001c0-9.125,7.424-16.549,16.548-16.549h16.032    c9.125,0,16.549,7.424,16.549,16.549v16.032c0,13.545-11.02,24.564-24.564,24.564    C210.392,248.499,199.372,237.479,199.372,223.935z M234.552,274.857L224.3,285.109c-0.038,0.037-0.151,0.151-0.364,0.151    c-0.213,0-0.326-0.114-0.364-0.152l-10.252-10.252c1.339-2.313,2.084-4.977,2.084-7.779v-4.514    c2.749,0.607,5.602,0.937,8.532,0.937c2.93,0,5.782-0.33,8.532-0.937v4.514C232.468,269.879,233.213,272.543,234.552,274.857z     M264.533,309.707c-12.193,7.125-26.099,10.939-40.597,10.939s-28.404-3.815-40.597-10.94v-11.733    c0-3.252,1.807-6.176,4.716-7.631l13.024-6.511l11.885,11.885c2.93,2.931,6.826,4.546,10.972,4.546s8.042-1.615,10.972-4.545    l11.886-11.886l13.022,6.512c2.909,1.455,4.717,4.379,4.717,7.631V309.707z"/>
	</g>
</g>
<g>
	<g>
		<path d="M191.871,376.758c-4.143,0-7.5,3.357-7.5,7.5c0,9.125-7.424,16.549-16.549,16.549s-16.548-7.424-16.548-16.549    s7.423-16.548,16.548-16.548c4.143,0,7.5-3.357,7.5-7.5s-3.357-7.5-7.5-7.5c-17.396,0-31.548,14.152-31.548,31.548    s14.152,31.549,31.548,31.549s31.549-14.152,31.549-31.549C199.371,380.115,196.014,376.758,191.871,376.758z"/>
	</g>
</g>
<g>
	<g>
		<path d="M304.097,376.758c-4.143,0-7.5,3.357-7.5,7.5c0,9.125-7.423,16.549-16.548,16.549s-16.549-7.424-16.549-16.549    s7.424-16.548,16.549-16.548c4.143,0,7.5-3.357,7.5-7.5s-3.357-7.5-7.5-7.5c-17.396,0-31.549,14.152-31.549,31.548    s14.152,31.549,31.549,31.549c17.396,0,31.548-14.152,31.548-31.549C311.597,380.115,308.239,376.758,304.097,376.758z"/>
	</g>
</g>
<g>
	<g>
		<path d="M328.146,32.064c-4.143,0-7.5,3.357-7.5,7.5c0,4.143,3.357,7.5,7.5,7.5c22.385,0,40.597,18.212,40.597,40.597    c0,4.143,3.357,7.5,7.5,7.5s7.5-3.357,7.5-7.5C383.742,57.005,358.802,32.064,328.146,32.064z"/>
	</g>
</g>
<g>
	<g>
		<path d="M328.146,0c-4.143,0-7.5,3.357-7.5,7.5s3.357,7.5,7.5,7.5c40.065,0,72.661,32.596,72.661,72.661    c0,4.143,3.357,7.5,7.5,7.5s7.5-3.357,7.5-7.5C415.807,39.324,376.482,0,328.146,0z"/>
	</g>
</g>
<g>
</g>
<g>
</g>
<g>
</g>
<g>
</g>
<g>
</g>
<g>
</g>
<g>
</g>
<g>
</g>
<g>
</g>
<g>
</g>
<g>
</g>
<g>
</g>
<g>
</g>
<g>
</g>
<g>
</g>
</svg>
