<?xml version="1.0" encoding="iso-8859-1"?>
<!-- Generator: Adobe Illustrator 19.0.0, SVG Export Plug-In . SVG Version: 6.00 Build 0)  -->
<svg xmlns="http://www.w3.org/2000/svg" xmlns:xlink="http://www.w3.org/1999/xlink" version="1.1" id="Layer_1" x="0px" y="0px" viewBox="0 0 512.001 512.001" style="enable-background:new 0 0 512.001 512.001;" xml:space="preserve">
<g>
	<g>
		<path d="M175.839,404.814c-4.142,0-7.5,3.358-7.5,7.5v32.064c0,4.142,3.358,7.5,7.5,7.5c4.142,0,7.5-3.358,7.5-7.5v-32.064    C183.339,408.172,179.981,404.814,175.839,404.814z"/>
	</g>
</g>
<g>
	<g>
		<path d="M336.161,404.814c-4.142,0-7.5,3.358-7.5,7.5v32.064c0,4.142,3.358,7.5,7.5,7.5c4.142,0,7.5-3.358,7.5-7.5v-32.064    C343.661,408.172,340.303,404.814,336.161,404.814z"/>
	</g>
</g>
<g>
	<g>
		<path d="M115.063,245.284c-17.416-8.708-50.069-8.808-51.451-8.808c-4.141,0-7.498,3.356-7.499,7.498    c-0.001,4.141,3.355,7.5,7.497,7.502c8.438,0.005,32.923,1.313,44.745,7.224c1.077,0.539,2.221,0.793,3.348,0.793    c2.751,0,5.4-1.52,6.714-4.147C120.27,251.641,118.768,247.136,115.063,245.284z"/>
	</g>
</g>
<g>
	<g>
		<path d="M39.564,388.782c-4.142,0-7.5,3.358-7.5,7.5v48.097c0,4.142,3.358,7.5,7.5,7.5c4.142,0,7.5-3.358,7.5-7.5v-48.097    C47.064,392.141,43.707,388.782,39.564,388.782z"/>
	</g>
</g>
<g>
	<g>
		<path d="M494.56,360.772l-30.372-15.184c-0.176-0.088-0.286-0.266-0.286-0.462l0.002-15.265    c12.468-8.585,21.293-22.157,23.501-38.085c5.608-9.691,8.563-20.637,8.563-31.767c0-20.755-9.994-39.217-25.419-50.835    c0.904-3.011,1.371-6.117,1.371-9.286c0-19.606-17.749-35.557-39.564-35.557s-39.564,15.951-39.564,35.557    c0,3.173,0.462,6.28,1.366,9.289c-9.197,6.928-16.449,16.296-20.815,27.126c-1.859-18.269-3.795-39.866-5.652-65.024    c-2.45-33.194-14.388-61.226-34.522-81.064C313.188,70.527,286.503,60.121,256,60.121s-57.188,10.406-77.167,30.093    c-20.134,19.839-32.072,47.871-34.522,81.064c-0.651,8.813-1.311,17.166-1.974,25.117H71.629    c-26.236,0-47.581,21.345-47.581,47.581v0.447c0,6.11,1.444,12.229,4.177,17.694l3.839,7.679v12.245    c0,19.406,9.563,36.819,24.048,47.298v10.832c0,1.389-0.933,2.625-2.268,3.007l-30.963,8.847C9.409,355.873,0,368.347,0,382.358    v62.021c0,4.142,3.358,7.5,7.5,7.5s7.5-3.358,7.5-7.5v-62.021c0-7.35,4.936-13.893,12.002-15.912l30.964-8.847    c1.117-0.319,2.178-0.752,3.188-1.266l19.007,19.007v69.039c0,4.142,3.358,7.5,7.5,7.5c4.142,0,7.5-3.358,7.5-7.5V375.34    l19.14-19.14c2.558,1.255,5.107,1.985,6.975,2.519l7.603,2.172c-10.303,7.326-16.653,19.275-16.653,32.232v51.254    c0,4.142,3.358,7.5,7.5,7.5c4.142,0,7.5-3.358,7.5-7.5v-51.254c0-9.722,5.747-18.542,14.641-22.47l42.88-18.939    c13.437,26.909,40.895,44.051,71.254,44.051c30.472,0,57.838-17.104,71.267-44.045l42.867,18.933    c8.894,3.928,14.641,12.748,14.641,22.47v51.254c0,4.142,3.358,7.5,7.5,7.5c4.142,0,7.5-3.358,7.5-7.5v-51.254    c0-9.594-3.487-18.632-9.472-25.658l11.607-5.803l8.713,8.28c6.094,5.792,13.912,8.686,21.733,8.686    c7.818,0,15.64-2.896,21.732-8.686l8.712-8.279l25.052,12.525c5.643,2.821,9.148,8.493,9.148,14.802v55.388    c0,4.142,3.358,7.5,7.5,7.5c4.142,0,7.5-3.358,7.5-7.5v-55.388C512,376.964,505.317,366.151,494.56,360.772z M432.355,179.33    c13.544,0,24.564,9.222,24.564,20.557c0,0.475-0.038,0.946-0.076,1.416c-7.542-3.158-15.814-4.908-24.488-4.908    c-8.673,0-16.944,1.75-24.484,4.907c-0.039-0.47-0.08-0.94-0.08-1.415C407.791,188.552,418.811,179.33,432.355,179.33z     M87.662,361.628l-17.09-17.09c0.353-1.408,0.542-2.873,0.542-4.368v-3.164c4.718,1.549,9.694,2.468,14.843,2.622    c0.577,0.018,1.151,0.026,1.726,0.026c5.688,0,11.241-0.859,16.525-2.498v3.011c0,1.627,0.167,3.103,0.464,4.451L87.662,361.628z     M86.407,324.633c-21.694-0.649-39.343-19.757-39.343-42.592v-14.016c0-1.164-0.271-2.313-0.792-3.354l-4.631-9.262    c-1.696-3.394-2.593-7.192-2.593-10.986v-0.447c0-17.965,14.616-32.581,32.581-32.581h64.646v31.135    c0,5.031-1.189,10.07-3.44,14.57l-3.785,7.57c-0.521,1.042-0.792,2.19-0.792,3.354v16.032c0,11.074-4.378,21.422-12.328,29.136    C107.984,320.902,97.493,324.969,86.407,324.633z M149.09,351.065l-23.693-6.769c-6.19-1.768-6.189-2.458-6.189-4.127    l0.002-10.333c2.519-1.745,4.921-3.698,7.168-5.879c1.512-1.467,2.92-3.011,4.24-4.611c1.205,2.444,3.052,4.579,5.439,6.124    c6.012,3.893,17.357,10.36,34.041,16.316L149.09,351.065z M256,380.766c-24.402,0-46.502-13.64-57.523-35.115l10.917-4.822    c8.52-3.763,14.025-12.212,14.025-21.526v-17.996c10.077,4.049,21.073,6.282,32.581,6.282s22.503-2.233,32.581-6.282v17.996    c0,9.314,5.505,17.764,14.025,21.526l10.915,4.821C302.508,367.149,280.493,380.766,256,380.766z M321.034,332.57l-12.368-5.463    c-3.089-1.364-5.085-4.428-5.085-7.805v-25.785c24.102-15.637,40.081-42.782,40.081-73.59v-14.063    c0-9.14-3.886-17.762-10.662-23.654c-15.069-13.106-49.18-35.977-108.318-41.891c-4.111-0.412-7.797,2.594-8.209,6.717    c-0.412,4.122,2.595,7.797,6.717,8.209c55.005,5.5,86.242,26.347,99.967,38.284c3.499,3.042,5.505,7.539,5.505,12.335v14.063    c0,40.065-32.596,72.661-72.661,72.661s-72.661-32.596-72.661-72.661v-6.274c0-2.882,1.598-5.522,4.274-7.063    c9.377-5.399,21.743-15.401,27.406-32.388c1.31-3.929-0.814-8.177-4.744-9.487c-3.928-1.31-8.177,0.814-9.487,4.744    c-4.172,12.516-13.538,20.031-20.66,24.132c-7.272,4.187-11.79,11.875-11.79,20.063v6.274c0,30.809,15.978,57.953,40.081,73.59    v25.785c0,3.377-1.996,6.44-5.085,7.805l-12.369,5.463c-24.156-6.463-39.634-15.08-46.757-19.691    c-0.142-0.092-0.222-0.197-0.182-0.434c2.616-15.464,9.338-60.069,15.244-140.063c2.178-29.515,12.583-54.235,30.09-71.485    C206.476,84.035,229.519,75.121,256,75.121s49.524,8.914,66.639,25.777c17.507,17.25,27.912,41.969,30.091,71.484    c5.905,79.991,12.627,124.598,15.244,140.063c0.04,0.238-0.04,0.343-0.183,0.435C360.658,317.497,345.18,326.109,321.034,332.57z     M400.807,345.125c0,0.197-0.109,0.374-0.285,0.462l-23.498,11.749c-0.279-0.131-0.547-0.278-0.829-0.403l-34.291-15.145    c16.676-5.954,28.019-12.418,34.039-16.316c5.172-3.349,7.85-9.443,6.821-15.528c-0.056-0.333-0.117-0.698-0.177-1.058    c4.218,8.482,10.525,15.677,18.22,20.975V345.125z M443.753,359.07c-6.391,6.076-16.405,6.075-22.798,0l-6.971-6.624    c1.176-2.204,1.822-4.704,1.822-7.321v-7.981c5.238,1.625,10.794,2.509,16.548,2.509c5.753,0,11.31-0.884,16.547-2.509    l-0.001,7.979c0,2.619,0.646,5.119,1.823,7.324L443.753,359.07z M432.355,324.652c-20.766,0-38.11-15.55-40.343-36.171    c-0.12-1.105-0.483-2.169-1.065-3.117c-4.714-7.677-7.205-16.445-7.205-25.357c0-26.804,21.807-48.612,48.613-48.612    c26.805,0,48.613,21.808,48.613,48.613c0,5.167-0.843,10.285-2.466,15.171c-21.296-21.635-58.759-30.114-60.565-30.512    c-2.218-0.489-4.54,0.055-6.312,1.478c-1.771,1.424-2.802,3.574-2.802,5.846c0,0.049-0.342,5.252-5.819,10.729    c-2.929,2.929-2.929,7.678,0,10.606c2.929,2.929,7.678,2.929,10.606,0c4.218-4.218,6.696-8.499,8.15-12.114    c12.62,3.749,38.813,13.217,50.568,29.836C468.992,310.377,452.248,324.652,432.355,324.652z"/>
	</g>
</g>
<g>
	<g>
		<path d="M472.436,398.692c-4.142,0-7.5,3.358-7.5,7.5v38.187c0,4.142,3.358,7.5,7.5,7.5c4.142,0,7.5-3.358,7.5-7.5v-38.187    C479.936,402.05,476.578,398.692,472.436,398.692z"/>
	</g>
</g>
<g>
</g>
<g>
</g>
<g>
</g>
<g>
</g>
<g>
</g>
<g>
</g>
<g>
</g>
<g>
</g>
<g>
</g>
<g>
</g>
<g>
</g>
<g>
</g>
<g>
</g>
<g>
</g>
<g>
</g>
</svg>
