<?xml version="1.0" encoding="iso-8859-1"?>
<!-- Generator: Adobe Illustrator 19.0.0, SVG Export Plug-In . SVG Version: 6.00 Build 0)  -->
<svg xmlns="http://www.w3.org/2000/svg" xmlns:xlink="http://www.w3.org/1999/xlink" version="1.1" id="Layer_1" x="0px" y="0px" viewBox="0 0 512 512" style="enable-background:new 0 0 512 512;" xml:space="preserve">
<g>
	<g>
		<path d="M472.436,108.218H334.161l-10.542-47.44c-3.232-14.546-15.897-24.705-30.797-24.705h-73.644    c-14.9,0-27.565,10.159-30.797,24.705l-10.542,47.44H39.564C17.749,108.218,0,125.966,0,147.781v112.226    c0,17.08,6.017,32.775,16.032,45.098v139.273c0,17.396,14.152,31.549,31.548,31.549h416.839c17.396,0,31.548-14.152,31.548-31.549    V305.104C505.983,292.782,512,277.086,512,260.008V147.781C512,125.966,494.251,108.218,472.436,108.218z M391.759,284.571    V123.218h17.064v161.354L391.759,284.571L391.759,284.571z M424.855,340.169c0,0.285-0.231,0.517-0.516,0.517h-48.097    c-0.285,0-0.516-0.231-0.516-0.517v-40.08c0-0.285,0.231-0.517,0.516-0.517h16.548v16.549c0,4.143,3.358,7.5,7.5,7.5    c4.142,0,7.5-3.357,7.5-7.5v-16.549h16.548c0.285,0,0.516,0.231,0.516,0.517v40.08H424.855z M203.023,64.031    c1.696-7.63,8.339-12.959,16.155-12.959h73.644c7.816,0,14.459,5.329,16.155,12.959l9.819,44.187H193.204L203.023,64.031z     M135.241,123.218h241.518v161.354h-0.516c-8.556,0-15.516,6.961-15.516,15.517v16.548H151.274v-16.548    c0-8.556-6.96-15.517-15.516-15.517h-0.517V123.218z M111.709,323.62c4.142,0,7.5-3.357,7.5-7.5v-16.549h16.549    c0.285,0,0.516,0.231,0.516,0.517v40.08c0,0.285-0.231,0.517-0.516,0.517H87.661c-0.285,0-0.516-0.231-0.516-0.517v-40.08    c0-0.285,0.231-0.517,0.516-0.517h16.548v16.549C104.209,320.263,107.567,323.62,111.709,323.62z M103.178,123.218h17.064v161.354    h-17.064V123.218z M15,260.008V147.781c0-13.545,11.02-24.564,24.564-24.564h48.613v161.354h-0.516    c-8.556,0-15.516,6.961-15.516,15.517v16.548h-0.516C40.404,316.636,15,291.232,15,260.008z M120.241,460.927h-17.064V380.25    c0-4.143-3.358-7.5-7.5-7.5c-4.142,0-7.5,3.357-7.5,7.5v80.678H47.581c-9.125,0-16.549-7.424-16.549-16.549V318.977    c11.548,7.975,25.532,12.66,40.597,12.66h0.516v8.532c0,8.556,6.96,15.517,15.516,15.517h32.58V460.927z M408.822,460.927h-17.064    V380.25c0-4.143-3.358-7.5-7.5-7.5c-4.142,0-7.5,3.357-7.5,7.5v80.678H135.241V355.685h0.517c8.556,0,15.516-6.961,15.516-15.517    v-8.532h209.452v8.532c0,8.556,6.96,15.517,15.516,15.517h32.58V460.927z M480.968,444.378c0,9.125-7.424,16.549-16.549,16.549    h-40.597V355.685h0.517c8.556,0,15.516-6.961,15.516-15.517v-8.532h0.516c15.064,0,29.049-4.685,40.597-12.66V444.378z     M440.371,316.636h-0.516v-16.548c0-8.556-6.96-15.517-15.516-15.517h-0.516V123.218h48.612c13.545,0,24.564,11.02,24.564,24.564    v112.226H497C497,291.234,471.596,316.636,440.371,316.636z"/>
	</g>
</g>
<g>
	<g>
		<path d="M288.065,252.506h-8.017c-4.142,0-7.5,3.357-7.5,7.5s3.358,7.5,7.5,7.5h8.017c0.285,0,0.516,0.231,0.516,0.517v16.032    c0,0.284-0.231,0.516-0.516,0.516h-64.129c-0.285,0-0.516-0.231-0.516-0.516v-16.032c0-0.285,0.231-0.517,0.516-0.517h24.051    c4.142,0,7.5-3.357,7.5-7.5s-3.358-7.5-7.5-7.5h-24.051c-8.556,0-15.516,6.961-15.516,15.517v16.032    c-0.001,8.556,6.96,15.516,15.516,15.516h64.129c8.556,0,15.516-6.96,15.516-15.516v-16.032    C303.581,259.467,296.621,252.506,288.065,252.506z"/>
	</g>
</g>
<g>
</g>
<g>
</g>
<g>
</g>
<g>
</g>
<g>
</g>
<g>
</g>
<g>
</g>
<g>
</g>
<g>
</g>
<g>
</g>
<g>
</g>
<g>
</g>
<g>
</g>
<g>
</g>
<g>
</g>
</svg>
