<?xml version="1.0" encoding="iso-8859-1"?>
<!-- Generator: Adobe Illustrator 19.0.0, SVG Export Plug-In . SVG Version: 6.00 Build 0)  -->
<svg xmlns="http://www.w3.org/2000/svg" xmlns:xlink="http://www.w3.org/1999/xlink" version="1.1" id="Layer_1" x="0px" y="0px" viewBox="0 0 512 512" style="enable-background:new 0 0 512 512;" xml:space="preserve">
<g>
	<g>
		<path d="M171.178,233.259c-17.416-8.708-50.069-8.809-51.451-8.809c-4.142,0-7.497,3.356-7.499,7.498    c-0.001,4.141,3.355,7.499,7.497,7.502c8.436,0.005,32.921,1.314,44.744,7.225c1.077,0.539,2.222,0.794,3.349,0.794    c2.751,0,5.4-1.52,6.714-4.147C176.385,239.617,174.883,235.112,171.178,233.259z"/>
	</g>
</g>
<g>
	<g>
		<path d="M95.678,376.757c-4.143,0-7.5,3.357-7.5,7.5V504.5c0,4.143,3.357,7.5,7.5,7.5c4.143,0,7.5-3.357,7.5-7.5V384.257    C103.178,380.114,99.82,376.757,95.678,376.757z"/>
	</g>
</g>
<g>
	<g>
		<path d="M422.413,348.747l-19.932-9.965c11.372-2.61,19.898-5.864,25.58-8.481c7.443-3.428,10.883-11.863,8-19.623    c-6.591-17.747-11.747-48.821-12.791-63.517c-2.557-35.961-29.896-63.08-63.594-63.08s-61.038,27.119-63.595,63.081    c-1.044,14.694-6.2,45.769-12.791,63.516c-2.883,7.76,0.557,16.195,7.999,19.623c5.808,2.675,14.576,6.011,26.313,8.647    l-19.599,9.8c-10.756,5.378-17.438,16.19-17.438,28.217V504.5c0,4.143,3.357,7.5,7.5,7.5s7.5-3.357,7.5-7.5V376.965    c0-6.309,3.505-11.979,9.147-14.801l25.052-12.526l8.713,8.28c6.095,5.791,13.912,8.686,21.733,8.686    c7.818,0,15.64-2.896,21.732-8.686l8.712-8.279l25.051,12.524c5.644,2.822,9.149,8.494,9.149,14.802V504.5    c0,4.143,3.357,7.5,7.5,7.5s7.5-3.357,7.5-7.5V376.965C439.854,364.938,433.172,354.127,422.413,348.747z M328.661,325.847    c-14.5-2.477-24.797-6.269-31.098-9.172c-0.407-0.187-0.248-0.678-0.212-0.775c3.197-8.608,6.039-19.824,8.309-31.026    c3.319,13.65,11.678,25.349,23.001,32.988V325.847z M371.61,347.045c-6.392,6.076-16.409,6.074-22.799,0l-6.971-6.625    c1.176-2.204,1.822-4.703,1.822-7.32v-8.122c5.074,1.529,10.448,2.361,16.015,2.361c5.949,0,11.688-0.944,17.081-2.677    l-0.001,8.436c-0.001,2.619,0.645,5.119,1.822,7.324L371.61,347.045z M359.675,312.339c-22.385,0-40.597-18.212-40.597-40.597    c0-4.143-3.357-7.5-7.5-7.5c-0.842,0-1.649,0.145-2.405,0.401c0.914-6.313,1.555-11.996,1.87-16.418    c0.958-13.469,6.341-25.882,15.157-34.953c8.896-9.151,20.784-14.191,33.476-14.191s24.579,5.04,33.476,14.191    c8.815,9.07,14.198,21.483,15.155,34.952c0.337,4.741,1.052,10.935,2.073,17.798c-8.078-13.723-21.189-23.786-38.428-29.325    c-15.039-4.832-27.978-4.537-28.517-4.518c-1.964,0.055-3.827,0.877-5.19,2.291l-13.527,14.03    c-2.876,2.981-2.789,7.729,0.192,10.604c2.981,2.875,7.729,2.79,10.604-0.192l11.25-11.667c4.151,0.207,12.225,0.987,21.013,3.868    c15.435,5.061,26.188,14.116,31.994,26.93C396.72,297.724,379.805,312.339,359.675,312.339z M391.758,317.173    c10.76-7.596,18.718-18.943,21.932-32.305c2.27,11.204,5.112,22.422,8.31,31.032c0.035,0.097,0.194,0.588-0.214,0.776    c-6.141,2.828-16.082,6.511-30.029,8.99L391.758,317.173z"/>
	</g>
</g>
<g>
	<g>
		<path d="M320.129,386.666c-4.143,0-7.5,3.357-7.5,7.5V504.5c0,4.143,3.357,7.5,7.5,7.5s7.5-3.357,7.5-7.5V394.166    C327.629,390.023,324.271,386.666,320.129,386.666z"/>
	</g>
</g>
<g>
	<g>
		<path d="M400.29,386.666c-4.143,0-7.5,3.357-7.5,7.5V504.5c0,4.143,3.357,7.5,7.5,7.5s7.5-3.357,7.5-7.5V394.166    C407.79,390.023,404.433,386.666,400.29,386.666z"/>
	</g>
</g>
<g>
	<g>
		<path d="M495.425,157.007c-15.235-37.883-47.022-71.864-89.505-95.683c-41.496-23.267-90.593-36.059-142.42-37.186V7.5    c0-4.143-3.357-7.5-7.5-7.5s-7.5,3.357-7.5,7.5v16.639c-51.827,1.127-100.924,13.919-142.42,37.186    c-42.482,23.818-74.27,57.8-89.505,95.683c-1.417,3.523,0.022,7.55,3.353,9.375c3.326,1.826,7.498,0.873,9.707-2.214    c4.469-6.251,21.954-12.895,45.558-12.895s41.089,6.644,45.558,12.895c1.325,1.853,3.42,3.003,5.694,3.127    c2.284,0.111,4.481-0.792,5.999-2.491c5.862-6.56,28.526-13.53,58.982-13.53c27.813,0,49.119,5.813,57.074,11.818V368.74h-8.532    c-3.009,0-5.885,0.574-8.532,1.608v-0.016c0-14.012-9.409-26.486-22.882-30.335l-30.964-8.847c-1.336-0.381-2.27-1.619-2.27-3.007    l0.003-10.333c2.519-1.745,4.921-3.698,7.167-5.878c10.886-10.564,16.881-24.735,16.881-39.901V257.77l2.993-5.986    c3.286-6.573,5.023-13.931,5.023-21.278V191.87c0-4.143-3.357-7.5-7.5-7.5h-72.146c-26.235,0-47.58,21.345-47.58,47.58v0.447    c0,6.109,1.444,12.228,4.177,17.694l3.839,7.678v12.245c0,19.407,9.563,36.819,24.049,47.298v10.831    c0,1.389-0.933,2.626-2.269,3.008l-30.963,8.847c-13.473,3.85-22.882,16.323-22.882,30.334V504.5c0,4.143,3.357,7.5,7.5,7.5    s7.5-3.357,7.5-7.5V370.332c0-7.349,4.936-13.893,12.003-15.912l30.963-8.847c1.117-0.319,2.178-0.752,3.188-1.265l19.007,19.007    V504.5c0,4.143,3.357,7.5,7.5,7.5s7.5-3.357,7.5-7.5V363.314l19.006-19.005c1.01,0.513,2.071,0.946,3.188,1.265l30.965,8.847    c7.066,2.019,12.002,8.562,12.002,15.911v78.054c0,4.143,3.357,7.5,7.5,7.5s7.5-3.357,7.5-7.5v-32.581H248.5v40.597    c0,13.545-11.02,24.564-24.564,24.564c-13.544,0-24.564-11.02-24.564-24.564v-72.145c0-4.143-3.357-7.5-7.5-7.5    s-7.5,3.357-7.5,7.5v72.145c0,8.947,2.989,17.207,8.017,23.843V504.5c0,4.143,3.357,7.5,7.5,7.5s7.5-3.357,7.5-7.5v-12.175    c5.039,2.33,10.642,3.641,16.548,3.641c21.815,0,39.564-17.749,39.564-39.564v-293.31c7.955-6.005,29.261-11.818,57.074-11.818    c30.456,0,53.12,6.971,58.982,13.53c1.518,1.699,3.736,2.601,5.999,2.491c2.274-0.124,4.369-1.274,5.694-3.127    c4.469-6.251,21.954-12.895,45.558-12.895c23.604,0,41.089,6.644,45.558,12.895c1.453,2.032,3.754,3.139,6.106,3.139    c1.224,0,2.462-0.3,3.601-0.925C495.402,164.557,496.842,160.53,495.425,157.007z M143.774,349.602l-17.089-17.09    c0.353-1.408,0.541-2.873,0.541-4.368v-3.163c4.72,1.548,9.696,2.467,14.844,2.622c0.576,0.017,1.151,0.025,1.726,0.025    c5.688,0,11.241-0.859,16.525-2.498l-0.001,3.012c0,1.497,0.188,2.963,0.542,4.373L143.774,349.602z M172.045,301.168    c-7.946,7.711-18.412,11.756-29.524,11.44c-21.695-0.65-39.343-19.758-39.343-42.593v-14.016c0-1.164-0.271-2.313-0.792-3.354    l-4.63-9.261c-1.697-3.394-2.594-7.192-2.594-10.986v-0.447c0-17.965,14.615-32.58,32.58-32.58h64.646v31.135    c0,5.031-1.189,10.069-3.439,14.57l-3.785,7.569c-0.521,1.042-0.792,2.19-0.792,3.354v16.032    C184.372,283.105,179.994,293.453,172.045,301.168z M248.5,400.804h-17.064v-0.515v-8.017c0-4.705,3.827-8.532,8.532-8.532h8.532    V400.804z M122.469,146.524c-11.205-6.418-28.194-10.249-47.277-10.249c-12.443-0.002-24.002,1.625-33.645,4.537    c15.99-25.931,40.823-48.997,71.869-66.404c22.906-12.843,48.295-22.318,75.25-28.212c-6.681,4.735-13.114,10.203-19.245,16.392    C148.142,84.064,131.713,113.543,122.469,146.524z M248.501,146c-13.601-6.096-34.084-9.727-57.075-9.727    c-20.589,0-39.168,2.909-52.593,7.894c8.8-27.933,23.111-52.723,41.244-71.023c20.089-20.274,43.607-31.858,68.424-33.801V146z     M320.575,136.273c-22.992,0-43.475,3.631-57.075,9.727V39.343c24.817,1.943,48.335,13.527,68.424,33.801    c18.132,18.3,32.443,43.09,41.244,71.023C359.743,139.182,341.164,136.273,320.575,136.273z M436.808,136.273    c-19.083,0-36.072,3.831-47.277,10.249c-9.243-32.981-25.672-62.46-46.952-83.936c-6.132-6.189-12.564-11.657-19.245-16.392    c26.955,5.894,52.344,15.369,75.25,28.212c31.046,17.407,55.879,40.474,71.869,66.404    C460.81,137.9,449.251,136.273,436.808,136.273z"/>
	</g>
</g>
<g>
</g>
<g>
</g>
<g>
</g>
<g>
</g>
<g>
</g>
<g>
</g>
<g>
</g>
<g>
</g>
<g>
</g>
<g>
</g>
<g>
</g>
<g>
</g>
<g>
</g>
<g>
</g>
<g>
</g>
</svg>
