<?xml version="1.0" encoding="iso-8859-1"?>
<!-- Generator: Adobe Illustrator 19.0.0, SVG Export Plug-In . SVG Version: 6.00 Build 0)  -->
<svg xmlns="http://www.w3.org/2000/svg" xmlns:xlink="http://www.w3.org/1999/xlink" version="1.1" id="Layer_1" x="0px" y="0px" viewBox="0 0 512.001 512.001" style="enable-background:new 0 0 512.001 512.001;" xml:space="preserve">
<g>
	<g>
		<path d="M338.752,215.396c6.381,0,12.036-3.828,14.406-9.754l25.653-64.13c1.914-4.786,1.332-10.192-1.559-14.461    c-2.891-4.269-7.693-6.817-12.848-6.817h-28.758V84.901c0-10.567-4.115-20.503-11.588-27.978l-11.611-11.61    c4.359-8.801,2.898-19.775-4.422-27.096L296.689,6.881c-9.174-9.174-24.104-9.175-33.281,0.001    c-9.174,9.175-9.174,24.105,0,33.281l11.336,11.336c4.588,4.587,10.614,6.881,16.64,6.881c3.588,0,7.17-0.833,10.455-2.459    l11.611,11.61c4.64,4.641,7.195,10.809,7.195,17.37v35.333h-173.05c-5.155,0-9.958,2.549-12.848,6.817    c-2.89,4.268-3.473,9.675-1.558,14.461l25.653,64.13c2.37,5.926,8.025,9.754,14.406,9.754h19.137v249.537h-24.565    c-8.556,0-15.516,6.96-15.516,15.516v16.032c0,8.556,6.96,15.517,15.516,15.517H344.18c8.556,0,15.516-6.961,15.516-15.517V480.45    c0-8.556-6.96-15.516-15.516-15.516h-24.565V215.396H338.752z M297.42,40.891c-3.327,3.329-8.74,3.328-12.067,0l-11.336-11.335    c-3.327-3.327-3.327-8.741,0-12.067c3.327-3.328,8.739-3.328,12.066,0l11.337,11.337c1.611,1.611,2.499,3.754,2.499,6.032    C299.919,37.137,299.032,39.28,297.42,40.891z M296.082,183.332h8.534v281.603h-56.633c-4.142,0-7.5,3.357-7.5,7.5    c0,4.143,3.358,7.5,7.5,7.5h96.196c0.285,0,0.516,0.231,0.516,0.516v16.032c0,0.285-0.231,0.517-0.516,0.517H167.821    c-0.285,0-0.516-0.231-0.516-0.517V480.45c0-0.284,0.231-0.516,0.516-0.516h48.096c4.142,0,7.5-3.357,7.5-7.5    c0-4.143-3.358-7.5-7.5-7.5h-8.53V183.332h56.628c4.142,0,7.5-3.357,7.5-7.5c0-4.143-3.358-7.5-7.5-7.5h-64.128    c-4.142,0-7.5,3.357-7.5,7.5v24.565h-19.137c-0.212,0-0.4-0.128-0.479-0.324l-25.652-64.13c-0.036-0.089-0.102-0.254,0.052-0.481    c0.153-0.227,0.332-0.227,0.427-0.227h216.809c0.096,0,0.274,0,0.427,0.227c0.154,0.228,0.087,0.393,0.052,0.481l-25.653,64.13    c-0.079,0.196-0.267,0.324-0.479,0.324h-19.137v-24.565c0-4.143-3.358-7.5-7.5-7.5h-16.034c-4.142,0-7.5,3.357-7.5,7.5    C288.582,179.975,291.94,183.332,296.082,183.332z"/>
	</g>
</g>
<g>
	<g>
		<path d="M280.05,200.396h-48.098c-4.142,0-7.5,3.357-7.5,7.5v32.065c0,4.143,3.358,7.5,7.5,7.5h48.098c4.142,0,7.5-3.357,7.5-7.5    v-32.065C287.55,203.754,284.192,200.396,280.05,200.396z M272.549,232.462h-33.098v-17.064h33.098V232.462z"/>
	</g>
</g>
<g>
</g>
<g>
</g>
<g>
</g>
<g>
</g>
<g>
</g>
<g>
</g>
<g>
</g>
<g>
</g>
<g>
</g>
<g>
</g>
<g>
</g>
<g>
</g>
<g>
</g>
<g>
</g>
<g>
</g>
</svg>
