<?xml version="1.0" encoding="iso-8859-1"?>
<!-- Generator: Adobe Illustrator 19.0.0, SVG Export Plug-In . SVG Version: 6.00 Build 0)  -->
<svg xmlns="http://www.w3.org/2000/svg" xmlns:xlink="http://www.w3.org/1999/xlink" version="1.1" id="Layer_1" x="0px" y="0px" viewBox="0 0 512.001 512.001" style="enable-background:new 0 0 512.001 512.001;" xml:space="preserve">
<g>
	<g>
		<path d="M296.875,105.949c-17.046-14.205-41.206-23.285-71.809-26.987c-24.615-2.979-48.15-1.843-63.56-0.366    c-12.1,1.159-21.224,11.229-21.224,23.424v17.707c0,4.143,3.357,7.5,7.5,7.5s7.5-3.357,7.5-7.5V102.02    c0-4.423,3.29-8.074,7.654-8.492c25.78-2.472,89.502-5.086,124.336,23.944c3.183,2.653,7.911,2.223,10.563-0.96    C300.486,113.329,300.057,108.6,296.875,105.949z"/>
	</g>
</g>
<g>
	<g>
		<path d="M300.09,0H195.878c-14.854,0-29.096,6.005-39.526,16.572c-27.221,3.685-48.133,27.31-48.133,55.057v22.317    c0,12.399,1.525,24.787,4.532,36.816l3.483,13.935v27.951c0,33.99,15.737,64.542,40.081,84.191v26.713    c-4.349,0.514-8.439,2.876-11.074,6.829l-10.349,15.524l-54.205,19.711c-21.891,7.959-36.598,28.956-36.598,52.249v70.521    c0,4.143,3.357,7.5,7.5,7.5s7.5-3.357,7.5-7.5v-70.521c0-17.008,10.739-32.34,26.724-38.151l51.163-18.605l31.267,43.775    c2.656,3.72,6.791,6.068,11.346,6.445c0.431,0.036,0.86,0.054,1.289,0.054c4.099,0,8.037-1.619,10.964-4.545l4.688-4.688    c0.438,3.492,2.029,6.63,4.395,9.005l-4.517,76.792c-0.243,4.135,2.912,7.685,7.047,7.928c0.15,0.009,0.299,0.013,0.447,0.013    c3.94,0,7.246-3.075,7.48-7.06l4.3-73.102h8.49l4.3,73.102c0.234,3.985,3.54,7.06,7.48,7.06c0.148,0,0.297-0.004,0.447-0.013    c4.135-0.243,7.29-3.793,7.047-7.928l-4.517-76.792c2.366-2.375,3.957-5.513,4.396-9.005l4.688,4.688    c2.926,2.927,6.863,4.546,10.964,4.546c0.427,0,0.857-0.018,1.287-0.054c4.555-0.376,8.69-2.726,11.346-6.444l34.581-48.412    c1.812-2.535,1.866-5.927,0.138-8.52l-11.714-17.571c-2.635-3.955-6.725-6.317-11.075-6.831V257.74    c3.134-2.445,6.152-5.079,9.032-7.907c20.022-19.659,31.049-45.938,31.049-73.994v-31.142l3.483-13.934    c3.007-12.026,4.532-24.413,4.532-36.817V31.549C331.638,14.152,317.485,0,300.09,0z M181.235,356.23    c-0.046,0.046-0.174,0.162-0.407,0.15c-0.238-0.02-0.339-0.161-0.378-0.215l-31.571-44.2l8.843-13.265    c0.155-0.232,0.463-0.302,0.704-0.151l49.533,30.959L181.235,356.23z M227.944,360.726h-16.032c-0.284,0-0.516-0.231-0.516-0.516    v-12.925l8.532-8.532l8.532,8.532v12.925h0.001C228.461,360.494,228.23,360.726,227.944,360.726z M219.929,319.301l-48.613-30.384    v-21.973c13.988,7.739,29.86,12.263,46.674,12.571c0.655,0.012,1.307,0.018,1.96,0.018c17.22-0.001,33.795-4.168,48.592-12.044    v21.41c0,0.006,0.001,0.013,0.001,0.019L219.929,319.301z M290.978,311.966l-31.572,44.201c-0.038,0.053-0.139,0.194-0.376,0.214    c-0.251,0.013-0.361-0.104-0.407-0.15l-26.724-26.722l49.533-30.959c0.234-0.146,0.55-0.078,0.703,0.151L290.978,311.966z     M316.638,93.946c0,11.178-1.374,22.341-4.085,33.18l-3.707,14.83c-0.148,0.595-0.224,1.205-0.224,1.818v32.064    c0,23.998-9.432,46.475-26.559,63.291c-17.121,16.812-39.811,25.854-63.8,25.387c-47.988-0.878-87.029-42.09-87.029-91.868    v-28.874c0-0.613-0.075-1.224-0.224-1.818l-3.707-14.831c-2.711-10.841-4.085-22.004-4.085-33.179V71.629    c0-20.986,16.387-38.743,37.305-40.425c1.931-0.155,3.726-1.051,5.011-2.499C173.259,19.995,184.319,15,195.878,15H300.09    c9.124,0,16.548,7.424,16.548,16.549V93.946z"/>
	</g>
</g>
<g>
	<g>
		<path d="M111.026,390.168l-4.631-9.264c-1.852-3.705-6.357-5.208-10.062-3.354c-3.705,1.852-5.207,6.356-3.354,10.062l4.631,9.264    c1.696,3.392,2.593,7.19,2.593,10.984v40.527c0,4.143,3.357,7.5,7.5,7.5c4.143,0,7.5-3.357,7.5-7.5V407.86    C115.203,401.749,113.759,395.631,111.026,390.168z"/>
	</g>
</g>
<g>
	<g>
		<path d="M372.234,320.646c-52.757,0-95.677,42.921-95.677,95.677c0,52.757,42.92,95.678,95.677,95.678    c52.757,0,95.678-42.921,95.678-95.678C467.912,363.566,424.991,320.646,372.234,320.646z M372.234,497    c-44.485,0-80.677-36.192-80.677-80.678c0-44.486,36.191-80.677,80.677-80.677c44.486,0,80.678,36.191,80.678,80.677    C452.912,460.808,416.721,497,372.234,497z"/>
	</g>
</g>
<g>
	<g>
		<path d="M407.506,408.822h-27.771v-27.771c0-4.143-3.357-7.5-7.5-7.5s-7.5,3.357-7.5,7.5v27.771h-27.771    c-4.143,0-7.5,3.357-7.5,7.5s3.357,7.5,7.5,7.5h27.771v27.771c0,4.143,3.357,7.5,7.5,7.5s7.5-3.357,7.5-7.5v-27.771h27.771    c4.143,0,7.5-3.357,7.5-7.5S411.648,408.822,407.506,408.822z"/>
	</g>
</g>
<g>
</g>
<g>
</g>
<g>
</g>
<g>
</g>
<g>
</g>
<g>
</g>
<g>
</g>
<g>
</g>
<g>
</g>
<g>
</g>
<g>
</g>
<g>
</g>
<g>
</g>
<g>
</g>
<g>
</g>
</svg>
