<?xml version="1.0" encoding="iso-8859-1"?>
<!-- Generator: Adobe Illustrator 19.0.0, SVG Export Plug-In . SVG Version: 6.00 Build 0)  -->
<svg xmlns="http://www.w3.org/2000/svg" xmlns:xlink="http://www.w3.org/1999/xlink" version="1.1" id="Layer_1" x="0px" y="0px" viewBox="0 0 511.999 511.999" style="enable-background:new 0 0 511.999 511.999;" xml:space="preserve">
<g>
	<g>
		<path d="M488.468,24.048H23.532C10.557,24.048,0,34.604,0,47.58v320.645c0,12.976,10.557,23.532,23.532,23.532h168.855v49.129    h-32.581c-8.556,0-15.516,6.961-15.516,15.517v16.032c0,8.556,6.96,15.516,15.516,15.516h192.387    c8.556,0,15.516-6.96,15.516-15.516v-16.032c0-8.556-6.96-15.517-15.516-15.517h-32.581v-49.129h168.855    c12.976,0,23.532-10.557,23.532-23.532V47.58C512,34.604,501.443,24.048,488.468,24.048z M352.194,455.886    c0.285,0,0.516,0.231,0.516,0.517v16.032c0,0.284-0.231,0.516-0.516,0.516H159.807c-0.285,0-0.516-0.231-0.516-0.516v-16.032    c0-0.285,0.231-0.517,0.516-0.517h104.209c4.142,0,7.5-3.357,7.5-7.5s-3.358-7.5-7.5-7.5h-56.629v-49.129h97.226v49.129h-8.534    c-4.142,0-7.5,3.357-7.5,7.5s3.358,7.5,7.5,7.5H352.194z M497,368.225L497,368.225c0,4.705-3.828,8.532-8.532,8.532H23.532    c-4.705,0-8.532-3.827-8.532-8.532V47.58c0-4.705,3.828-8.532,8.532-8.532h464.936c4.705,0,8.532,3.827,8.532,8.532V368.225z"/>
	</g>
</g>
<g>
	<g>
		<path d="M472.436,56.112H39.564c-4.142,0-7.5,3.357-7.5,7.5v288.58c0,4.143,3.358,7.5,7.5,7.5h432.871c4.142,0,7.5-3.357,7.5-7.5    V63.612C479.936,59.47,476.578,56.112,472.436,56.112z M175.323,103.177h89.209v17.064h-89.209V103.177z M160.322,344.693H47.064    V103.177h113.258V344.693z M160.323,88.176H47.064V71.112h113.259V88.176z M464.936,344.692H175.323V135.241h289.613V344.692z     M279.532,120.241v-17.064h81.198v17.064H279.532z M464.936,88.177h-24.561c-4.142,0-7.5,3.357-7.5,7.5s3.358,7.5,7.5,7.5h24.561    v17.064H375.73v-17.064h32.575c4.142,0,7.5-3.357,7.5-7.5c0-4.143-3.358-7.5-7.5-7.5H175.323V71.112h289.613V88.177z"/>
	</g>
</g>
<g>
	<g>
		<path d="M79.645,120.241h-8.016c-4.142,0-7.5,3.357-7.5,7.5s3.358,7.5,7.5,7.5h8.016c4.142,0,7.5-3.357,7.5-7.5    S83.787,120.241,79.645,120.241z"/>
	</g>
</g>
<g>
	<g>
		<path d="M135.758,120.241h-24.049c-4.142,0-7.5,3.357-7.5,7.5s3.358,7.5,7.5,7.5h24.049c4.142,0,7.5-3.357,7.5-7.5    S139.9,120.241,135.758,120.241z"/>
	</g>
</g>
<g>
	<g>
		<path d="M79.645,152.306h-8.016c-4.142,0-7.5,3.357-7.5,7.5s3.358,7.5,7.5,7.5h8.016c4.142,0,7.5-3.357,7.5-7.5    S83.787,152.306,79.645,152.306z"/>
	</g>
</g>
<g>
	<g>
		<path d="M135.758,152.306h-24.049c-4.142,0-7.5,3.357-7.5,7.5s3.358,7.5,7.5,7.5h24.049c4.142,0,7.5-3.357,7.5-7.5    S139.9,152.306,135.758,152.306z"/>
	</g>
</g>
<g>
	<g>
		<path d="M79.645,184.37h-8.016c-4.142,0-7.5,3.357-7.5,7.5s3.358,7.5,7.5,7.5h8.016c4.142,0,7.5-3.357,7.5-7.5    S83.787,184.37,79.645,184.37z"/>
	</g>
</g>
<g>
	<g>
		<path d="M135.758,184.37h-24.049c-4.142,0-7.5,3.357-7.5,7.5s3.358,7.5,7.5,7.5h24.049c4.142,0,7.5-3.357,7.5-7.5    S139.9,184.37,135.758,184.37z"/>
	</g>
</g>
<g>
	<g>
		<path d="M79.645,216.435h-8.016c-4.142,0-7.5,3.357-7.5,7.5s3.358,7.5,7.5,7.5h8.016c4.142,0,7.5-3.357,7.5-7.5    S83.787,216.435,79.645,216.435z"/>
	</g>
</g>
<g>
	<g>
		<path d="M135.758,216.435h-24.049c-4.142,0-7.5,3.357-7.5,7.5s3.358,7.5,7.5,7.5h24.049c4.142,0,7.5-3.357,7.5-7.5    S139.9,216.435,135.758,216.435z"/>
	</g>
</g>
<g>
	<g>
		<path d="M79.645,248.499h-8.016c-4.142,0-7.5,3.357-7.5,7.5c0,4.143,3.358,7.5,7.5,7.5h8.016c4.142,0,7.5-3.357,7.5-7.5    C87.145,251.856,83.787,248.499,79.645,248.499z"/>
	</g>
</g>
<g>
	<g>
		<path d="M135.758,248.499h-24.049c-4.142,0-7.5,3.357-7.5,7.5c0,4.143,3.358,7.5,7.5,7.5h24.049c4.142,0,7.5-3.357,7.5-7.5    C143.258,251.856,139.9,248.499,135.758,248.499z"/>
	</g>
</g>
<g>
	<g>
		<path d="M440.367,192.386h-7.21c-3.163,0-5.985,1.983-7.057,4.959l-21.802,60.559l-21.8-60.557    c-1.071-2.976-3.894-4.96-7.057-4.96h-7.215c-4.142,0-7.5,3.357-7.5,7.5v80.161c0,4.143,3.358,7.5,7.5,7.5    c4.142,0,7.5-3.357,7.5-7.5v-57.227l21.157,58.769c0.177,0.897,0.584,1.78,1.28,2.771c1.447,2.06,3.766,3.188,6.141,3.188    c1.169,0,2.353-0.274,3.453-0.846c1.747-0.907,3.001-2.419,3.616-4.16c0.372-1.04,13.073-36.319,21.496-59.713v57.218    c0,4.143,3.358,7.5,7.5,7.5c4.142,0,7.5-3.357,7.5-7.5v-80.162C447.867,195.743,444.509,192.386,440.367,192.386z"/>
	</g>
</g>
<g>
	<g>
		<path d="M327.911,253.452c11.923-4.506,20.427-16.035,20.427-29.517c0-17.396-14.152-31.549-31.548-31.549h-32.064    c-4.142,0-7.5,3.357-7.5,7.5v80.162c0,4.143,3.358,7.5,7.5,7.5c4.142,0,7.5-3.357,7.5-7.5v-24.565h19.929l13.96,27.92    c1.314,2.628,3.962,4.147,6.714,4.147c1.127,0,2.271-0.256,3.348-0.794c3.705-1.853,5.207-6.357,3.354-10.063L327.911,253.452z     M316.79,240.482h-24.564v-33.097h24.564c9.125,0,16.548,7.424,16.548,16.549S325.915,240.482,316.79,240.482z"/>
	</g>
</g>
<g>
	<g>
		<path d="M260.966,263.564c-3.106-2.74-7.846-2.443-10.586,0.662c-4.666,5.288-11.383,8.321-18.428,8.321    c-13.545,0-24.564-11.02-24.564-24.564V231.95c-0.001-13.545,11.019-24.564,24.564-24.564c7.047,0,13.765,3.034,18.431,8.324    c2.741,3.106,7.479,3.402,10.586,0.664c3.106-2.74,3.403-7.479,0.663-10.586c-7.513-8.518-18.331-13.402-29.68-13.402    c-21.816,0-39.564,17.748-39.564,39.564v16.033c0,21.816,17.749,39.564,39.564,39.564c11.347,0,22.164-4.883,29.676-13.397    C264.368,271.045,264.072,266.304,260.966,263.564z"/>
	</g>
</g>
<g>
</g>
<g>
</g>
<g>
</g>
<g>
</g>
<g>
</g>
<g>
</g>
<g>
</g>
<g>
</g>
<g>
</g>
<g>
</g>
<g>
</g>
<g>
</g>
<g>
</g>
<g>
</g>
<g>
</g>
</svg>
