<?xml version="1.0" encoding="iso-8859-1"?>
<!-- Generator: Adobe Illustrator 19.0.0, SVG Export Plug-In . SVG Version: 6.00 Build 0)  -->
<svg xmlns="http://www.w3.org/2000/svg" xmlns:xlink="http://www.w3.org/1999/xlink" version="1.1" id="Layer_1" x="0px" y="0px" viewBox="0 0 512 512" style="enable-background:new 0 0 512 512;" xml:space="preserve">
<g>
	<g>
		<path d="M234.458,421.216l-18.772-9.387c-0.175-0.087-0.284-0.264-0.284-0.461v-11.36c9.72-7.216,16.032-18.775,16.032-31.783    v-16.032c0-17.396-14.152-31.548-31.548-31.548h-16.032c-17.396,0-31.548,14.152-31.548,31.548v16.032    c0,13.008,6.312,24.567,16.032,31.783v11.36c0,0.194-0.112,0.375-0.285,0.462l-18.771,9.386    c-8.024,4.012-13.008,12.077-13.008,21.048V504.5c0,4.143,3.358,7.5,7.5,7.5c4.142,0,7.5-3.357,7.5-7.5v-62.236    c0-3.253,1.807-6.177,4.716-7.632l13.022-6.511l11.887,11.886c3.024,3.024,6.998,4.536,10.971,4.536    c3.973,0,7.947-1.512,10.972-4.536l11.886-11.886l13.022,6.511c2.91,1.455,4.717,4.379,4.717,7.632V504.5    c0,4.143,3.358,7.5,7.5,7.5c4.142,0,7.5-3.357,7.5-7.5v-62.236C247.467,433.293,242.482,425.228,234.458,421.216z     M192.235,429.399c-0.201,0.201-0.528,0.203-0.73,0l-10.251-10.251c1.339-2.313,2.084-4.977,2.084-7.78v-3.578h17.064v3.578    c0,2.802,0.745,5.466,2.084,7.78L192.235,429.399z M191.87,392.789c-13.544,0-24.564-11.02-24.564-24.564v-16.032    c0-9.124,7.423-16.548,16.548-16.548h16.032c9.125,0,16.548,7.424,16.548,16.548v16.032    C216.434,381.77,205.415,392.789,191.87,392.789z"/>
	</g>
</g>
<g>
	<g>
		<path d="M362.717,421.216l-18.771-9.386c-0.173-0.087-0.285-0.268-0.285-0.462v-11.36c9.72-7.216,16.032-18.775,16.032-31.783    v-16.032c0-17.396-14.152-31.548-31.548-31.548h-16.032c-17.396,0-31.548,14.152-31.548,31.548v16.032    c0,13.008,6.312,24.567,16.032,31.783v11.36c0,0.197-0.109,0.374-0.285,0.462l-18.771,9.386    c-8.023,4.012-13.008,12.077-13.008,21.048V504.5c0,4.143,3.358,7.5,7.5,7.5c4.142,0,7.5-3.357,7.5-7.5v-62.236    c0-3.253,1.807-6.177,4.716-7.632l13.023-6.511l11.887,11.886c3.024,3.024,6.998,4.536,10.971,4.536s7.947-1.512,10.972-4.536    l11.886-11.886l13.022,6.511c2.909,1.455,4.716,4.379,4.716,7.632V504.5c0,4.143,3.358,7.5,7.5,7.5c4.142,0,7.5-3.357,7.5-7.5    v-62.236C375.725,433.293,370.741,425.228,362.717,421.216z M320.493,429.398c-0.201,0.202-0.528,0.204-0.729,0.001    l-10.252-10.252c1.339-2.313,2.084-4.977,2.084-7.78v-3.578h17.064v3.578c0,2.803,0.745,5.467,2.084,7.78L320.493,429.398z     M320.128,392.789c-13.544,0-24.564-11.02-24.564-24.564v-16.032c0-9.124,7.423-16.548,16.548-16.548h16.032    c9.125,0,16.548,7.424,16.548,16.548v16.032C344.691,381.77,333.672,392.789,320.128,392.789z"/>
	</g>
</g>
<g>
	<g>
		<path d="M490.975,421.216l-18.772-9.387c-0.175-0.087-0.284-0.264-0.284-0.461v-11.36c9.72-7.216,16.032-18.775,16.032-31.783    v-16.032c0-17.396-14.152-31.548-31.548-31.548h-16.032c-17.396,0-31.548,14.152-31.548,31.548v16.032    c0,13.008,6.312,24.567,16.032,31.783v11.36c0,0.194-0.112,0.375-0.285,0.462l-18.771,9.386    c-8.024,4.012-13.008,12.077-13.008,21.048V504.5c0,4.143,3.358,7.5,7.5,7.5c4.142,0,7.5-3.357,7.5-7.5v-62.236    c0-3.253,1.807-6.177,4.716-7.632l13.022-6.511l11.887,11.886c3.024,3.024,6.998,4.536,10.971,4.536s7.947-1.512,10.972-4.536    l11.886-11.886l13.022,6.511c2.91,1.455,4.717,4.379,4.717,7.632V504.5c0,4.143,3.358,7.5,7.5,7.5c4.142,0,7.5-3.357,7.5-7.5    v-62.236C503.983,433.293,498.999,425.228,490.975,421.216z M448.751,429.399c-0.201,0.201-0.528,0.203-0.73,0l-10.251-10.251    c1.339-2.313,2.084-4.977,2.084-7.78v-3.578h17.064v3.578c0,2.802,0.745,5.466,2.084,7.78L448.751,429.399z M448.387,392.789    c-13.544,0-24.564-11.02-24.564-24.564v-16.032h0c0-9.124,7.423-16.548,16.548-16.548h16.032c9.125,0,16.548,7.424,16.548,16.548    v16.032C472.951,381.77,461.931,392.789,448.387,392.789z"/>
	</g>
</g>
<g>
	<g>
		<path d="M106.2,421.216l-18.771-9.386c-0.173-0.087-0.285-0.268-0.285-0.462v-11.36c9.72-7.216,16.032-18.775,16.032-31.783    v-16.032c0-17.396-14.152-31.548-31.548-31.548H55.596c-17.396,0-31.548,14.152-31.548,31.548v16.032    c0,13.008,6.312,24.567,16.032,31.783v11.36c0,0.197-0.109,0.374-0.285,0.462l-18.771,9.386    c-8.025,4.012-13.009,12.077-13.009,21.048V504.5c0,4.143,3.358,7.5,7.5,7.5c4.142,0,7.5-3.357,7.5-7.5v-62.236    c0-3.253,1.807-6.177,4.716-7.632l13.023-6.511l11.887,11.886c3.024,3.024,6.998,4.536,10.971,4.536    c3.973,0,7.947-1.512,10.972-4.536l11.886-11.886l13.022,6.511c2.909,1.455,4.716,4.379,4.716,7.632V504.5    c0,4.143,3.358,7.5,7.5,7.5c4.142,0,7.5-3.357,7.5-7.5v-62.236C119.208,433.293,114.224,425.228,106.2,421.216z M63.976,429.398    c-0.2,0.202-0.527,0.204-0.729,0.001l-10.252-10.252c1.339-2.313,2.084-4.977,2.084-7.78v-3.578h17.064v3.578    c0,2.803,0.745,5.467,2.084,7.78L63.976,429.398z M63.611,392.789c-13.544,0-24.564-11.02-24.564-24.564v-16.032    c0-9.124,7.423-16.548,16.548-16.548h16.032c9.125,0,16.548,7.424,16.548,16.548v16.032    C88.175,381.77,77.155,392.789,63.611,392.789z"/>
	</g>
</g>
<g>
	<g>
		<path d="M424.338,184.371H263.499v-145.1l9.84,19.681c1.314,2.628,3.962,4.147,6.714,4.147c1.127,0,2.271-0.256,3.348-0.794    c3.705-1.853,5.207-6.357,3.354-10.063L262.707,4.146C261.437,1.605,258.84,0,255.999,0c-2.841,0-5.438,1.605-6.708,4.146    l-24.048,48.097c-1.853,3.705-0.351,8.21,3.354,10.063c3.705,1.854,8.209,0.352,10.062-3.354l9.84-19.681v145.101H87.66    c-17.396,0-31.548,14.152-31.548,31.548v80.162c0,4.143,3.358,7.5,7.5,7.5c4.142,0,7.5-3.357,7.5-7.5V215.92    c0-9.125,7.423-16.548,16.548-16.548h96.71v96.71c0,4.143,3.358,7.5,7.5,7.5c4.142,0,7.5-3.357,7.5-7.5v-96.71h113.258v96.709    c0,4.143,3.358,7.5,7.5,7.5c4.142,0,7.5-3.357,7.5-7.5v-96.71h96.71c9.125,0,16.548,7.423,16.548,16.548v80.162    c0,4.143,3.358,7.5,7.5,7.5c4.142,0,7.5-3.357,7.5-7.5v-80.162C455.887,198.523,441.734,184.371,424.338,184.371z"/>
	</g>
</g>
<g>
</g>
<g>
</g>
<g>
</g>
<g>
</g>
<g>
</g>
<g>
</g>
<g>
</g>
<g>
</g>
<g>
</g>
<g>
</g>
<g>
</g>
<g>
</g>
<g>
</g>
<g>
</g>
<g>
</g>
</svg>
