<?xml version="1.0" encoding="iso-8859-1"?>
<!-- Generator: Adobe Illustrator 19.0.0, SVG Export Plug-In . SVG Version: 6.00 Build 0)  -->
<svg xmlns="http://www.w3.org/2000/svg" xmlns:xlink="http://www.w3.org/1999/xlink" version="1.1" id="Layer_1" x="0px" y="0px" viewBox="0 0 512 512" style="enable-background:new 0 0 512 512;" xml:space="preserve">
<g>
	<g>
		<path d="M480.451,88.178H339.268l-36.509-36.509c-7.473-7.473-17.408-11.588-27.976-11.588H31.549    C14.152,40.081,0,54.233,0,71.629v368.742c0,17.396,14.152,31.548,31.549,31.548h448.902c17.396,0,31.549-14.152,31.549-31.548    V119.727C512,102.331,497.848,88.178,480.451,88.178z M215.919,55.081c6.561,0.001,12.73,2.556,17.37,7.195l25.902,25.902H225.88    c-4.42,0-8.576-1.721-11.701-4.847l-28.25-28.25H215.919z M497.001,440.371L497.001,440.371    c-0.001,9.125-7.425,16.548-16.55,16.548H31.549c-9.125,0-16.549-7.423-16.549-16.548V71.629c0-9.125,7.424-16.548,16.549-16.548    h122.992c6.562,0,12.73,2.555,17.369,7.195l31.662,31.662c5.959,5.958,13.882,9.24,22.309,9.24h51.417    c3.033,0,5.769-1.827,6.929-4.63c1.161-2.803,0.52-6.028-1.625-8.173l-35.294-35.293h27.476c6.561,0,12.729,2.555,17.369,7.195    l25.902,25.902h-5.941c-4.143,0-7.5,3.358-7.5,7.5c0,4.142,3.357,7.5,7.5,7.5h168.338c9.125,0,16.549,7.424,16.549,16.548V440.371    z"/>
	</g>
</g>
<g>
	<g>
		<path d="M256,176.355c-57.177,0-103.693,46.517-103.693,103.693c0,57.176,46.516,103.694,103.693,103.694    s103.693-46.517,103.693-103.693S313.177,176.355,256,176.355z M296.597,358.89c-12.172,6.293-25.976,9.852-40.597,9.852    s-28.425-3.558-40.597-9.851v-20.837c0-3.252,1.807-6.176,4.717-7.631l13.022-6.512l11.886,11.885    c2.931,2.931,6.827,4.545,10.972,4.545s8.041-1.614,10.972-4.544l11.886-11.886l13.023,6.512c2.909,1.454,4.716,4.378,4.716,7.63    V358.89z M266.616,314.937l-10.252,10.253c-0.037,0.037-0.15,0.15-0.364,0.15c-0.214,0-0.327-0.113-0.364-0.151l-10.252-10.252    c1.339-2.313,2.084-4.977,2.084-7.779v-4.514c2.75,0.607,5.602,0.937,8.532,0.937s5.782-0.33,8.532-0.937v4.514    C264.532,309.96,265.277,312.624,266.616,314.937z M256,288.581c-13.545,0-24.564-11.02-24.564-24.564v-16.032    c0-9.125,7.424-16.548,16.548-16.548h16.033c9.124,0,16.548,7.423,16.548,16.548v16.032    C280.564,277.561,269.545,288.581,256,288.581z M311.597,349.098v-11.045c0-8.971-4.984-17.036-13.008-21.047l-18.771-9.386    c-0.177-0.088-0.286-0.265-0.286-0.462v-11.359c9.72-7.216,16.032-18.775,16.032-31.783v-16.032    c0-17.396-14.152-31.548-31.548-31.548h-16.033c-17.396,0-31.548,14.152-31.548,31.548v16.032    c0,13.008,6.312,24.567,16.032,31.783v11.359c0,0.197-0.109,0.374-0.286,0.462l-18.77,9.386    c-8.024,4.011-13.009,12.076-13.009,21.047v11.045c-20.169-16.272-33.097-41.177-33.097-69.05    c0-48.906,39.788-88.693,88.693-88.693s88.693,39.788,88.693,88.693C344.693,307.921,331.766,332.826,311.597,349.098z"/>
	</g>
</g>
<g>
	<g>
		<path d="M339.258,172.802c-53.861-41.917-130.923-37.079-179.255,11.252c-48.33,48.33-53.167,125.393-11.251,179.253    c1.479,1.9,3.689,2.895,5.924,2.895c1.61,0,3.232-0.516,4.602-1.582c3.269-2.544,3.856-7.256,1.313-10.525    c-37.278-47.901-32.971-116.443,10.02-159.434c42.99-42.991,111.533-47.299,159.435-10.021c3.269,2.543,7.981,1.956,10.525-1.313    S342.527,175.345,339.258,172.802z"/>
	</g>
</g>
<g>
	<g>
		<path d="M363.247,196.789c-2.544-3.269-7.256-3.855-10.525-1.312c-3.269,2.544-3.856,7.256-1.313,10.525    c37.278,47.901,32.971,116.444-10.021,159.435c-42.991,42.992-111.533,47.298-159.435,10.02    c-3.269-2.543-7.981-1.956-10.525,1.313c-2.544,3.269-1.956,7.981,1.313,10.525c24.534,19.093,53.882,28.485,83.136,28.485    c34.969,0,69.803-13.421,96.119-39.737C400.326,327.712,405.163,250.65,363.247,196.789z"/>
	</g>
</g>
<g>
</g>
<g>
</g>
<g>
</g>
<g>
</g>
<g>
</g>
<g>
</g>
<g>
</g>
<g>
</g>
<g>
</g>
<g>
</g>
<g>
</g>
<g>
</g>
<g>
</g>
<g>
</g>
<g>
</g>
</svg>
