<?xml version="1.0" encoding="iso-8859-1"?>
<!-- Generator: Adobe Illustrator 19.0.0, SVG Export Plug-In . SVG Version: 6.00 Build 0)  -->
<svg xmlns="http://www.w3.org/2000/svg" xmlns:xlink="http://www.w3.org/1999/xlink" version="1.1" id="Layer_1" x="0px" y="0px" viewBox="0 0 512 512" style="enable-background:new 0 0 512 512;" xml:space="preserve">
<g>
	<g>
		<path d="M487.359,146.279c-1.777-3.741-6.25-5.333-9.993-3.556c-3.742,1.777-5.333,6.251-3.556,9.993    C489.198,185.105,497,219.855,497,256c0,64.374-25.068,124.894-70.587,170.413C380.894,471.932,320.374,497,256,497    c-38.177,0-74.687-8.664-108.513-25.751c-28.185-14.238-53.648-34.227-74.324-58.247l29.591,9.864    c3.928,1.311,8.177-0.814,9.487-4.744s-0.814-8.177-4.744-9.487l-53.25-17.75c-2.466-0.821-5.182-0.309-7.177,1.357    c-1.995,1.666-2.986,4.246-2.619,6.819l8.875,62.125c0.535,3.741,3.743,6.44,7.416,6.44c0.353,0,0.71-0.025,1.07-0.076    c4.101-0.586,6.95-4.385,6.364-8.485l-4.952-34.663c21.699,24.78,48.207,45.438,77.501,60.236    C176.667,502.794,215.451,512,256,512c68.38,0,132.667-26.629,181.02-74.98C485.372,388.667,512,324.38,512,256    C512,217.612,503.709,180.696,487.359,146.279z"/>
	</g>
</g>
<g>
	<g>
		<path d="M467.551,112.939l-8.875-62.125c-0.586-4.101-4.392-6.952-8.485-6.364c-4.101,0.586-6.95,4.385-6.364,8.485l4.947,34.628    C400.068,31.76,330.538,0,256,0C187.62,0,123.333,26.629,74.98,74.98C26.629,123.333,0,187.62,0,256    c0,38.388,8.291,75.304,24.641,109.721c1.284,2.703,3.974,4.284,6.78,4.284c1.078,0,2.174-0.234,3.213-0.728    c3.741-1.777,5.333-6.251,3.556-9.993C22.802,326.895,15,292.145,15,256c0-64.374,25.068-124.894,70.587-170.413    C131.106,40.068,191.626,15,256,15c70.856,0,136.903,30.494,182.817,83.991l-29.57-9.857c-3.93-1.309-8.177,0.814-9.487,4.744    s0.814,8.177,4.744,9.487l53.25,17.75c0.775,0.258,1.576,0.385,2.371,0.385c1.732,0,3.439-0.6,4.807-1.742    C466.928,118.092,467.918,115.512,467.551,112.939z"/>
	</g>
</g>
<g>
	<g>
		<path d="M215.136,143.078c-0.063-4.103-3.409-7.384-7.497-7.384c-0.04,0-0.08,0-0.119,0.001c-4.142,0.064-7.447,3.474-7.383,7.615    l0.214,13.791l-5.56,5.282c-3,2.855-3.123,7.602-0.27,10.605c1.475,1.552,3.455,2.334,5.438,2.334    c1.855,0,3.713-0.684,5.165-2.063l7.944-7.547c1.52-1.444,2.366-3.458,2.333-5.554L215.136,143.078z"/>
	</g>
</g>
<g>
	<g>
		<path d="M402.958,132.622c-2.667-3.169-7.398-3.577-10.567-0.91c-3.169,2.667-3.577,7.398-0.91,10.567    c20.37,24.209,33.664,53.159,38.888,83.925l-2.248-2.207c-4.381-4.298-10.388-6.361-16.484-5.65    c-6.096,0.707-11.473,4.087-14.752,9.273l-1.285,2.031c-3.496-0.05-6.985,1.216-9.673,3.735l-9.871-11.688    c-2.672-3.165-7.405-3.563-10.569-0.891c-3.165,2.672-3.564,7.404-0.891,10.569l15.094,17.874    c1.348,1.596,3.301,2.558,5.388,2.653c2.088,0.092,4.119-0.685,5.607-2.151l4.839-4.77l5.951,4.127l-22.32,44.309l-1.214,0.09    c-1.688,0.119-3.338-0.582-4.413-1.891l-29.709-36.208c-2.628-3.203-7.354-3.668-10.555-1.041    c-3.202,2.627-3.668,7.353-1.041,10.555l29.709,36.208c4.167,5.079,10.561,7.823,17.117,7.335l9.664-0.716l-29.546,68.326    c-2.146,4.962-4.995,9.582-8.466,13.729l-23.589,28.181c-11.78,5.172-24.128,9.041-36.841,11.54l-13.008-11.302    c-1.6-1.353-2.232-3.521-1.611-5.521l2.273-7.323c0.943-3.039-0.134-6.343-2.688-8.242l-14.708-10.937    c-1.503-1.118-2.293-2.968-2.061-4.827l1.199-9.593c0.253-2.023-0.329-4.062-1.611-5.647c-1.282-1.585-3.155-2.58-5.186-2.755    l-66.877-5.774c-2.635-0.228-5.135-1.365-7.038-3.202l-20.029-19.338c-2.245-2.167-3.532-5.2-3.532-8.32v-27.91    c0-1.262,0.458-2.481,1.29-3.431l22.806-26.063c1.133-1.295,1.787-2.941,1.85-4.662l0.235-6.342    c0.074-1.981,1.293-3.777,3.108-4.576l17.837-7.848l33.53-0.828c0.767,0.004,1.423,0.533,1.55,1.329    c0.977,6.104,5.227,11.11,11.092,13.065l23.98,7.994c4.719,1.572,9.865,0.395,13.431-3.074c3.047-2.964,4.453-7.128,3.897-11.248    l30.11-2.385c5.752-0.456,11.048-3.357,14.527-7.961s4.826-10.49,3.695-16.149l-0.847-4.236    c-1.383-6.913-7.723-11.69-14.749-11.089l-15.759,1.327l-2.371-2.672l20.828-20.828c2.929-2.929,2.929-7.678,0-10.606    c-2.929-2.929-7.678-2.929-10.606,0l-25.205,25.202l-8.477,3.567l-23.577-17.993c-1.947-1.486-4.5-1.927-6.832-1.182    l-32.75,10.462c-0.941,0.3-1.853,0.668-2.729,1.097l2.32-9.794l25.93-18.984l26.764-3.965c3.288-0.487,5.863-3.08,6.327-6.371    l3.045-21.582c0.287-2.031-0.271-4.09-1.542-5.699l-10.989-13.902c-1.47-1.859-3.727-2.924-6.1-2.846    c-2.369,0.068-4.566,1.252-5.926,3.192l-8.39,11.971l-8.779-0.715l14.603-27.833h15.1l11.413,20.551    c1.39,2.503,4.077,3.986,6.943,3.849c2.859-0.148,5.385-1.911,6.51-4.543l10.542-24.673c1.875-4.391,1.357-9.371-1.31-13.263    c24.801,6.612,48.018,18.605,68.004,35.421c3.17,2.667,7.9,2.26,10.567-0.91c2.667-3.169,2.259-7.9-0.91-10.567    c-36.609-30.804-83.189-46.696-131.188-44.755c-48.271,1.955-93.68,21.856-127.863,56.04    c-34.183,34.183-54.084,79.592-56.04,127.862c-1.944,47.987,13.95,94.577,44.753,131.187c1.483,1.763,3.605,2.671,5.743,2.671    c1.704,0,3.418-0.578,4.825-1.761c3.169-2.667,3.577-7.398,0.91-10.567c-28.388-33.74-43.035-76.684-41.243-120.922    c1.802-44.495,20.148-86.353,51.658-117.863c31.511-31.511,73.369-49.856,117.864-51.658c10.096-0.409,20.123,0.048,29.99,1.32    l10.173,12.51l-4.252,9.952l-6.12-11.02c-1.322-2.382-3.833-3.859-6.557-3.859h-24.048c-2.788,0-5.346,1.547-6.642,4.016    l-16.894,32.201c-2.304,4.392-2.251,9.608,0.14,13.953c2.392,4.345,6.771,7.179,11.713,7.582l13.459,1.097    c2.649,0.214,5.223-0.991,6.751-3.17l5.077-7.244l2.752,3.482l-1.813,12.852l-23.054,3.416c-1.205,0.178-2.349,0.648-3.332,1.367    l-29.658,21.713c-1.439,1.054-2.456,2.587-2.868,4.323l-3.22,13.597l-10.073-1.229c-6.396-0.78-12.424,2.892-14.666,8.929    l-6.193,16.672c-1.338,3.604-1.112,7.639,0.622,11.071c1.733,3.432,4.847,6.009,8.543,7.07l0.223,0.064l-0.212,0.093    c-7.04,3.098-11.772,10.065-12.057,17.751l-0.137,3.683l-21.054,24.062c-3.225,3.686-5,8.412-5,13.309v27.91    c0,7.167,2.957,14.133,8.113,19.111l20.029,19.339c4.372,4.221,10.114,6.833,16.167,7.355l59.113,5.104l-0.232,1.861    c-0.901,7.213,2.162,14.388,7.995,18.725l10.445,7.767l-0.699,2.251c-2.409,7.762,0.044,16.169,6.173,21.354l3.053,2.653    c-2.44,0.2-4.888,0.359-7.346,0.458c-44.236,1.783-87.182-12.857-120.922-41.245c-3.169-2.667-7.9-2.259-10.567,0.91    c-2.667,3.169-2.259,7.901,0.91,10.567c34.608,29.119,78.129,44.914,123.323,44.913c2.614,0,5.24-0.053,7.864-0.159    c48.271-1.955,93.68-21.857,127.862-56.04c34.183-34.183,54.085-79.593,56.04-127.864    C449.656,215.822,433.762,169.232,402.958,132.622z M219.387,215.711c0.607-1.341,1.759-2.366,3.161-2.813l16.886-5.394    l14.815,18.175l-1.716,5.076c-1.327,3.923,0.778,8.18,4.702,9.507c0.796,0.27,1.607,0.397,2.404,0.397    c3.127,0,6.046-1.972,7.104-5.099l1.92-5.676c1.536-4.543,0.644-9.475-2.386-13.192l-3.986-4.89l13.208,10.08    c2.137,1.63,4.981,1.993,7.459,0.95l9.458-3.98l5.834,6.574c1.57,1.768,3.879,2.69,6.239,2.495l18.485-1.557l0.646,3.234    c0.399,1.998-0.425,3.466-0.953,4.164c-0.527,0.697-1.714,1.892-3.745,2.052l-32.101,2.543c-4.019,0.318-7.627,2.41-9.899,5.74    c-1.673,2.451-2.458,5.332-2.289,8.221l-21.201-7.067c-0.542-0.18-0.934-0.643-1.031-1.25c-1.28-7.998-8.255-13.914-16.318-13.914    c-0.135,0-0.271,0.002-0.407,0.005l-23.062,0.569L219.387,215.711z M189.403,211.132l10.194,1.243    c1.706,0.208,3.381,0.097,4.965-0.29l-7.869,17.371l-12.738-3.657L189.403,211.132z M432.726,263.204    c-1.802,44.495-20.148,86.354-51.658,117.864c-4.821,4.821-9.887,9.33-15.165,13.523c2.756-3.936,5.117-8.137,7.029-12.559    l34.464-79.698c1.042-2.409,0.749-5.186-0.772-7.324s-4.051-3.327-6.666-3.132l-3.358,0.249l18.718-37.158    c3.087-6.131,1.162-13.705-4.479-17.618l-1.641-1.138l0.363-0.574c1.158-1.831,2.879-2.284,3.803-2.391    c0.923-0.109,2.704-0.061,4.25,1.457l15.134,14.852C432.91,254.087,432.911,258.638,432.726,263.204z"/>
	</g>
</g>
<g>
</g>
<g>
</g>
<g>
</g>
<g>
</g>
<g>
</g>
<g>
</g>
<g>
</g>
<g>
</g>
<g>
</g>
<g>
</g>
<g>
</g>
<g>
</g>
<g>
</g>
<g>
</g>
<g>
</g>
</svg>
