<?xml version="1.0" encoding="iso-8859-1"?>
<!-- Generator: Adobe Illustrator 19.0.0, SVG Export Plug-In . SVG Version: 6.00 Build 0)  -->
<svg xmlns="http://www.w3.org/2000/svg" xmlns:xlink="http://www.w3.org/1999/xlink" version="1.1" id="Layer_1" x="0px" y="0px" viewBox="0 0 512 512" style="enable-background:new 0 0 512 512;" xml:space="preserve">
<g>
	<g>
		<path d="M511.429,52.727c-1.16-2.803-3.896-4.63-6.929-4.63h-40.597V7.5c0-3.034-1.827-5.768-4.63-6.929    c-2.803-1.161-6.028-0.519-8.174,1.626l-80.161,80.161c-1.406,1.406-2.196,3.314-2.196,5.303v44.989l-19.307,19.307    c-37.142-34.576-86.905-55.764-141.532-55.764C93.265,96.194,0,189.459,0,304.097S93.265,512,207.903,512    s207.903-93.265,207.903-207.903c0-54.627-21.188-104.391-55.764-141.532l19.306-19.306h44.991c1.989,0,3.896-0.79,5.304-2.197    L509.804,60.9C511.948,58.755,512.59,55.53,511.429,52.727z M400.807,304.097C400.807,410.464,314.271,497,207.903,497    S15,410.464,15,304.097s86.536-192.903,192.903-192.903c50.491,0,96.505,19.508,130.924,51.372L202.6,298.794    c-2.929,2.929-2.929,7.678,0,10.606c1.465,1.464,3.384,2.197,5.304,2.197c1.919,0,3.839-0.732,5.304-2.197l33.967-33.967    c6.063,8.275,9.343,18.231,9.343,28.663c0,26.805-21.808,48.613-48.613,48.613c-26.805,0-48.613-21.808-48.613-48.613    s21.808-48.613,48.613-48.613c3.044,0,6.088,0.282,9.049,0.839c4.069,0.77,7.991-1.913,8.758-5.984    c0.766-4.071-1.914-7.992-5.984-8.757c-3.873-0.729-7.851-1.098-11.822-1.098c-35.076,0-63.613,28.537-63.613,63.613    s28.537,63.613,63.613,63.613s63.613-28.537,63.613-63.613c0-14.441-4.81-28.18-13.646-39.36l23.508-23.508    c15.014,17.515,23.234,39.639,23.234,62.869c0,53.326-43.384,96.71-96.71,96.71s-96.71-43.384-96.71-96.71    s43.384-96.709,96.71-96.709c16.052,0,31.945,4.011,45.964,11.598c3.644,1.973,8.194,0.616,10.166-3.026    c1.972-3.643,0.617-8.194-3.025-10.166c-16.204-8.771-34.567-13.407-53.105-13.407c-61.597,0-111.71,50.113-111.71,111.709    c0,61.597,50.113,111.71,111.71,111.71s111.71-50.113,111.71-111.71c0-27.224-9.767-53.138-27.596-73.507l23.443-23.443    c24.041,26.646,37.25,60.956,37.25,96.95c0,79.847-64.96,144.807-144.807,144.807S63.097,383.944,63.097,304.097    c0-79.846,64.96-144.806,144.807-144.806c27.812,0,54.822,7.902,78.112,22.853c3.485,2.238,8.126,1.227,10.363-2.26    c2.237-3.486,1.226-8.125-2.26-10.363c-25.714-16.505-55.526-25.229-86.216-25.229c-88.117,0-159.807,71.689-159.807,159.806    c0,88.118,71.689,159.807,159.807,159.807s159.807-71.69,159.807-159.808c0-39.981-14.772-78.078-41.634-107.566l23.359-23.359    C381.298,207.592,400.807,253.606,400.807,304.097z M421.233,128.259h-26.884l43.31-43.31c2.929-2.929,2.929-7.678,0-10.606    c-2.93-2.929-7.678-2.929-10.607,0l-43.309,43.309V90.768l65.161-65.161v29.99c0,4.142,3.357,7.5,7.5,7.5h29.99L421.233,128.259z"/>
	</g>
</g>
<g>
</g>
<g>
</g>
<g>
</g>
<g>
</g>
<g>
</g>
<g>
</g>
<g>
</g>
<g>
</g>
<g>
</g>
<g>
</g>
<g>
</g>
<g>
</g>
<g>
</g>
<g>
</g>
<g>
</g>
</svg>
