<?xml version="1.0" encoding="iso-8859-1"?>
<!-- Generator: Adobe Illustrator 19.0.0, SVG Export Plug-In . SVG Version: 6.00 Build 0)  -->
<svg xmlns="http://www.w3.org/2000/svg" xmlns:xlink="http://www.w3.org/1999/xlink" version="1.1" id="Layer_1" x="0px" y="0px" viewBox="0 0 511.999 511.999" style="enable-background:new 0 0 511.999 511.999;" xml:space="preserve">
<g>
	<g>
		<path d="M408.307,32.064h-73.894c-3.139-9.308-11.946-16.032-22.3-16.032H287.64C280.218,6.047,268.457,0,256,0    c-12.458,0-24.218,6.047-31.641,16.032h-24.472c-10.353,0-19.16,6.724-22.3,16.032h-73.894c-17.396,0-31.548,14.152-31.548,31.548    v416.839c0,17.396,14.152,31.548,31.548,31.548h304.613c17.396,0,31.548-14.152,31.548-31.548V63.613    C439.855,46.217,425.702,32.064,408.307,32.064z M191.355,39.564c0-4.705,3.828-8.532,8.532-8.532h28.495    c2.67,0,5.139-1.419,6.482-3.728C239.349,19.6,247.25,15,256,15s16.65,4.6,21.135,12.305c1.344,2.308,3.813,3.728,6.482,3.728    h28.496c4.705,0,8.532,3.828,8.532,8.532v24.564h-129.29V39.564z M424.856,480.452L424.856,480.452    c-0.001,9.125-7.424,16.548-16.549,16.548H103.694c-9.125,0-16.548-7.423-16.548-16.548V63.613    c0-9.125,7.423-16.548,16.548-16.548h72.662v24.564c0,4.142,3.358,7.5,7.5,7.5h144.291c4.143,0,7.5-3.358,7.5-7.5V47.064h72.661    c9.125,0,16.548,7.423,16.548,16.548V480.452z"/>
	</g>
</g>
<g>
	<g>
		<path d="M256.08,32.064H256c-4.142,0-7.46,3.358-7.46,7.5c0,4.142,3.398,7.5,7.54,7.5c4.143,0,7.5-3.358,7.5-7.5    C263.58,35.422,260.223,32.064,256.08,32.064z"/>
	</g>
</g>
<g>
	<g>
		<path d="M400.29,64.129h-40.081c-4.143,0-7.5,3.358-7.5,7.5c0,4.142,3.357,7.5,7.5,7.5h32.581v369.774H119.21V79.129h32.579    c4.142,0,7.5-3.358,7.5-7.5c0-4.142-3.358-7.5-7.5-7.5H111.71c-4.142,0-7.5,3.358-7.5,7.5v384.774c0,4.142,3.358,7.5,7.5,7.5    h288.58c4.143,0,7.5-3.358,7.5-7.5V71.629C407.79,67.487,404.433,64.129,400.29,64.129z"/>
	</g>
</g>
<g>
	<g>
		<path d="M242.476,204.78l-18.771-9.386c-0.176-0.088-0.285-0.265-0.285-0.462v-11.359c9.72-7.216,16.032-18.775,16.032-31.783    v-16.032c0-17.396-14.152-31.549-31.548-31.549h-16.032c-17.396,0-31.548,14.153-31.548,31.549v16.032    c-0.001,13.009,6.311,24.568,16.031,31.783v11.359c0,0.197-0.109,0.374-0.286,0.462l-18.771,9.386    c-8.023,4.012-13.007,12.077-13.007,21.047v14.14c0,8.556,6.96,15.516,15.516,15.516h80.161c8.556,0,15.516-6.96,15.516-15.516    v-14.14C255.484,216.856,250.5,208.791,242.476,204.78z M175.323,151.79v-16.032c0-9.125,7.423-16.549,16.548-16.549h16.032    c9.125,0,16.548,7.424,16.548,16.549v16.032c0,13.545-11.02,24.564-24.564,24.564S175.323,165.334,175.323,151.79z     M210.504,202.712l-10.252,10.252c-0.037,0.037-0.151,0.151-0.365,0.151c-0.213,0-0.327-0.114-0.365-0.151l-10.251-10.251    c1.339-2.314,2.084-4.977,2.084-7.78v-4.514c2.75,0.607,5.603,0.937,8.532,0.937c2.929,0,5.782-0.33,8.532-0.937v4.514    C208.42,197.735,209.165,200.399,210.504,202.712z M240.484,239.968c0,0.285-0.231,0.516-0.516,0.516h-80.161    c-0.285,0-0.516-0.231-0.516-0.516v-14.14c0-3.252,1.807-6.177,4.716-7.631l13.023-6.512l11.885,11.885    c2.931,2.931,6.827,4.545,10.972,4.545s8.042-1.614,10.972-4.545l11.886-11.886l13.023,6.512c2.909,1.455,4.716,4.379,4.716,7.632    V239.968z"/>
	</g>
</g>
<g>
	<g>
		<path d="M360.21,112.226h-80.161c-4.143,0-7.5,3.358-7.5,7.5v32.065c0,4.142,3.357,7.5,7.5,7.5h80.161c4.143,0,7.5-3.358,7.5-7.5    v-32.065C367.71,115.584,364.353,112.226,360.21,112.226z M352.71,144.291h-65.161v-17.065h65.161V144.291z"/>
	</g>
</g>
<g>
	<g>
		<path d="M360.21,176.355h-80.161c-4.143,0-7.5,3.358-7.5,7.5c0,4.142,3.357,7.5,7.5,7.5h80.161c4.143,0,7.5-3.358,7.5-7.5    C367.71,179.713,364.353,176.355,360.21,176.355z"/>
	</g>
</g>
<g>
	<g>
		<path d="M312.113,208.419h-32.064c-4.143,0-7.5,3.358-7.5,7.5c0,4.142,3.357,7.5,7.5,7.5h32.064c4.143,0,7.5-3.358,7.5-7.5    C319.613,211.777,316.256,208.419,312.113,208.419z"/>
	</g>
</g>
<g>
	<g>
		<path d="M360.21,272.548H151.791c-4.142,0-7.5,3.358-7.5,7.5c0,4.142,3.358,7.5,7.5,7.5H360.21c4.143,0,7.5-3.358,7.5-7.5    C367.71,275.906,364.353,272.548,360.21,272.548z"/>
	</g>
</g>
<g>
	<g>
		<path d="M167.823,304.613h-16.032c-4.142,0-7.5,3.358-7.5,7.5c0,4.142,3.358,7.5,7.5,7.5h16.032c4.142,0,7.5-3.358,7.5-7.5    C175.323,307.971,171.965,304.613,167.823,304.613z"/>
	</g>
</g>
<g>
	<g>
		<path d="M167.823,400.807h-16.032c-4.142,0-7.5,3.358-7.5,7.5c0,4.142,3.358,7.5,7.5,7.5h16.032c4.142,0,7.5-3.358,7.5-7.5    C175.323,404.165,171.965,400.807,167.823,400.807z"/>
	</g>
</g>
<g>
	<g>
		<path d="M167.823,368.742h-16.032c-4.142,0-7.5,3.358-7.5,7.5c0,4.142,3.358,7.5,7.5,7.5h16.032c4.142,0,7.5-3.358,7.5-7.5    C175.323,372.1,171.965,368.742,167.823,368.742z"/>
	</g>
</g>
<g>
	<g>
		<path d="M167.823,336.677h-16.032c-4.142,0-7.5,3.358-7.5,7.5c0,4.142,3.358,7.5,7.5,7.5h16.032c4.142,0,7.5-3.358,7.5-7.5    C175.323,340.035,171.965,336.677,167.823,336.677z"/>
	</g>
</g>
<g>
	<g>
		<path d="M247.984,304.613h-48.097c-4.142,0-7.5,3.358-7.5,7.5c0,4.142,3.358,7.5,7.5,7.5h48.097c4.142,0,7.5-3.358,7.5-7.5    C255.484,307.971,252.126,304.613,247.984,304.613z"/>
	</g>
</g>
<g>
	<g>
		<path d="M280.049,400.807h-80.162c-4.142,0-7.5,3.358-7.5,7.5c0,4.142,3.358,7.5,7.5,7.5h80.162c4.143,0,7.5-3.358,7.5-7.5    C287.549,404.165,284.192,400.807,280.049,400.807z"/>
	</g>
</g>
<g>
	<g>
		<path d="M247.984,368.742h-48.097c-4.142,0-7.5,3.358-7.5,7.5c0,4.142,3.358,7.5,7.5,7.5h48.097c4.142,0,7.5-3.358,7.5-7.5    C255.484,372.1,252.126,368.742,247.984,368.742z"/>
	</g>
</g>
<g>
	<g>
		<path d="M280.049,336.677h-80.162c-4.142,0-7.5,3.358-7.5,7.5c0,4.142,3.358,7.5,7.5,7.5h80.162c4.143,0,7.5-3.358,7.5-7.5    C287.549,340.035,284.192,336.677,280.049,336.677z"/>
	</g>
</g>
<g>
	<g>
		<path d="M360.21,336.677h-40.081c-4.143,0-7.5,3.358-7.5,7.5c0,4.142,3.357,7.5,7.5,7.5h40.081c4.143,0,7.5-3.358,7.5-7.5    C367.71,340.035,364.353,336.677,360.21,336.677z"/>
	</g>
</g>
<g>
	<g>
		<path d="M360.21,304.613h-40.081c-4.143,0-7.5,3.358-7.5,7.5c0,4.142,3.357,7.5,7.5,7.5h40.081c4.143,0,7.5-3.358,7.5-7.5    C367.71,307.971,364.353,304.613,360.21,304.613z"/>
	</g>
</g>
<g>
	<g>
		<path d="M360.21,368.742h-40.081c-4.143,0-7.5,3.358-7.5,7.5c0,4.142,3.357,7.5,7.5,7.5h40.081c4.143,0,7.5-3.358,7.5-7.5    C367.71,372.1,364.353,368.742,360.21,368.742z"/>
	</g>
</g>
<g>
	<g>
		<path d="M360.21,400.807h-40.081c-4.143,0-7.5,3.358-7.5,7.5c0,4.142,3.357,7.5,7.5,7.5h40.081c4.143,0,7.5-3.358,7.5-7.5    C367.71,404.165,364.353,400.807,360.21,400.807z"/>
	</g>
</g>
<g>
</g>
<g>
</g>
<g>
</g>
<g>
</g>
<g>
</g>
<g>
</g>
<g>
</g>
<g>
</g>
<g>
</g>
<g>
</g>
<g>
</g>
<g>
</g>
<g>
</g>
<g>
</g>
<g>
</g>
</svg>
