<?xml version="1.0" encoding="iso-8859-1"?>
<!-- Generator: Adobe Illustrator 19.0.0, SVG Export Plug-In . SVG Version: 6.00 Build 0)  -->
<svg xmlns="http://www.w3.org/2000/svg" xmlns:xlink="http://www.w3.org/1999/xlink" version="1.1" id="Layer_1" x="0px" y="0px" viewBox="0 0 512 512" style="enable-background:new 0 0 512 512;" xml:space="preserve">
<g>
	<g>
		<path d="M348.975,258.831l-48.343-21.486c-3.078-1.368-5.067-4.428-5.067-7.797v-18.086c12.887-8.573,22.841-21.203,28.045-36.053    c12.932-15.686,20.052-35.39,20.052-55.684c0-31.09-16.27-58.448-40.741-74.016c0.441-2.092,0.661-4.13,0.661-6.145    C303.581,17.749,282.236,0,256,0c-26.236,0-47.581,17.749-47.581,39.564c0,2.016,0.22,4.054,0.661,6.146    c-24.471,15.568-40.741,42.926-40.741,74.016c0,20.294,7.121,39.998,20.052,55.684c5.203,14.85,15.158,27.479,28.044,36.052    v18.086c0,3.368-1.989,6.429-5.067,7.797l-48.343,21.486c-11.381,5.058-18.735,16.374-18.735,28.829v40.485    c0.001,4.142,3.358,7.5,7.501,7.5c4.142,0,7.5-3.358,7.5-7.5V287.66c0-6.533,3.857-12.469,9.827-15.122l48.343-21.486    c1.759-0.782,3.38-1.773,4.859-2.922l24.371,18.278c2.741,2.056,6.025,3.083,9.31,3.083c3.285,0,6.569-1.028,9.309-3.083    l24.371-18.278c1.479,1.149,3.1,2.14,4.859,2.922l48.343,21.486c5.97,2.653,9.827,8.589,9.827,15.122v40.485    c0,4.142,3.357,7.5,7.5,7.5s7.5-3.358,7.5-7.5V287.66C367.71,275.205,360.356,263.889,348.975,258.831z M256,15    c17.416,0,31.684,10.356,32.539,23.33c-10.066-4.039-21.047-6.266-32.539-6.266s-22.473,2.227-32.539,6.265    C224.317,25.356,238.584,15,256,15z M256.308,254.409c-0.18,0.137-0.435,0.137-0.619,0l-25.065-18.799    c0.522-1.951,0.81-3.982,0.81-6.061v-10.47c7.667,2.807,15.941,4.34,24.566,4.34s16.899-1.533,24.564-4.34v10.47    c0,2.079,0.289,4.11,0.81,6.061L256.308,254.409z M255.999,208.418c-31.224,0.001-56.628-25.402-56.628-56.628    c0-2.295,1.075-4.378,2.95-5.714c6.242-4.448,14.833-12.049,20.306-22.996c1.853-3.705,0.351-8.21-3.354-10.062    c-3.704-1.853-8.21-0.35-10.062,3.354c-4.093,8.186-10.74,14.029-15.596,17.489c-2.914,2.077-5.235,4.808-6.824,7.913    c-2.269-7.083-3.453-14.517-3.453-22.048c0-40.066,32.596-72.661,72.661-72.661s72.661,32.596,72.661,72.661    c0,5.848-0.72,11.635-2.102,17.246c-1.595-5.98-4.927-11.446-9.667-15.652c-29.299-25.99-81.79-32.808-84.01-33.085    c-4.102-0.513-7.854,2.4-8.37,6.509c-0.516,4.108,2.398,7.858,6.506,8.375c0.499,0.063,50.127,6.542,75.92,29.422    c3.617,3.209,5.691,7.782,5.691,12.548v6.7C312.628,183.014,287.225,208.418,255.999,208.418z"/>
	</g>
</g>
<g>
	<g>
		<path d="M256,280.564c-4.142,0-7.5,3.358-7.5,7.5v40.081c0,4.142,3.358,7.5,7.5,7.5c4.143,0,7.5-3.358,7.5-7.5v-40.081    C263.5,283.922,260.143,280.564,256,280.564z"/>
	</g>
</g>
<g>
	<g>
		<path d="M191.871,296.597c-4.142,0-7.5,3.358-7.5,7.5v24.049c0,4.142,3.358,7.5,7.5,7.5c4.142,0,7.5-3.358,7.5-7.5v-24.049    C199.371,299.955,196.013,296.597,191.871,296.597z"/>
	</g>
</g>
<g>
	<g>
		<path d="M320.129,296.597c-4.143,0-7.5,3.358-7.5,7.5v24.049c0,4.142,3.357,7.5,7.5,7.5s7.5-3.358,7.5-7.5v-24.049    C327.629,299.955,324.272,296.597,320.129,296.597z"/>
	</g>
</g>
<g>
	<g>
		<path d="M256,464.936c-12.976,0-23.532,10.557-23.532,23.532C232.468,501.443,243.024,512,256,512s23.532-10.557,23.532-23.532    C279.532,475.493,268.976,464.936,256,464.936z M256,497c-4.705,0-8.532-3.828-8.532-8.532c0-4.704,3.828-8.532,8.532-8.532    c4.705,0,8.532,3.828,8.532,8.532C264.532,493.172,260.705,497,256,497z"/>
	</g>
</g>
<g>
	<g>
		<path d="M103.693,464.936c-12.976,0-23.532,10.557-23.532,23.532c0,12.975,10.557,23.532,23.532,23.532    c12.975,0,23.532-10.557,23.532-23.532C127.225,475.493,116.669,464.936,103.693,464.936z M103.693,497    c-4.705,0-8.532-3.828-8.532-8.532c0-4.704,3.828-8.532,8.532-8.532s8.532,3.828,8.532,8.532    C112.225,493.172,108.398,497,103.693,497z"/>
	</g>
</g>
<g>
	<g>
		<path d="M408.307,464.936c-12.976,0-23.532,10.557-23.532,23.532c0,12.975,10.556,23.532,23.532,23.532    s23.532-10.557,23.532-23.532C431.839,475.493,421.282,464.936,408.307,464.936z M408.307,497c-4.705,0-8.532-3.828-8.532-8.532    c0-4.704,3.827-8.532,8.532-8.532s8.532,3.828,8.532,8.532C416.839,493.172,413.012,497,408.307,497z"/>
	</g>
</g>
<g>
	<g>
		<path d="M385.78,444.028l-44.339-62.075c-5.909-8.272-15.506-13.211-25.672-13.211H263.5v-8.532c0-4.142-3.357-7.5-7.5-7.5    c-4.142,0-7.5,3.358-7.5,7.5v8.532h-52.27c-10.166,0-19.763,4.939-25.672,13.211l-44.339,62.075    c-2.408,3.371-1.627,8.055,1.744,10.462c3.371,2.408,8.055,1.627,10.462-1.744l44.339-62.075c3.1-4.339,8.133-6.93,13.466-6.93    h52.27v56.629c0,4.142,3.358,7.5,7.5,7.5c4.143,0,7.5-3.358,7.5-7.5v-56.629h52.27c5.332,0,10.366,2.591,13.467,6.93    l44.338,62.075c1.464,2.05,3.77,3.141,6.11,3.141c1.508,0,3.031-0.454,4.353-1.397    C387.407,452.083,388.188,447.399,385.78,444.028z"/>
	</g>
</g>
<g>
</g>
<g>
</g>
<g>
</g>
<g>
</g>
<g>
</g>
<g>
</g>
<g>
</g>
<g>
</g>
<g>
</g>
<g>
</g>
<g>
</g>
<g>
</g>
<g>
</g>
<g>
</g>
<g>
</g>
</svg>
