<?xml version="1.0" encoding="iso-8859-1"?>
<!-- Generator: Adobe Illustrator 19.0.0, SVG Export Plug-In . SVG Version: 6.00 Build 0)  -->
<svg xmlns="http://www.w3.org/2000/svg" xmlns:xlink="http://www.w3.org/1999/xlink" version="1.1" id="Layer_1" x="0px" y="0px" viewBox="0 0 512 512" style="enable-background:new 0 0 512 512;" xml:space="preserve">
<g>
	<g>
		<path d="M256,80.161c-96.958,0-175.839,78.881-175.839,175.839S159.042,431.839,256,431.839S431.839,352.958,431.839,256    S352.958,80.161,256,80.161z M336.677,395.096c-5.491,3.197-11.188,6.076-17.064,8.617v-27.47c0-4.142-3.357-7.5-7.5-7.5    s-7.5,3.358-7.5,7.5v33.081c-15.344,4.876-31.675,7.516-48.613,7.516c-16.937-0.001-33.268-2.64-48.613-7.516v-33.082    c0-4.142-3.358-7.5-7.5-7.5c-4.142,0-7.5,3.358-7.5,7.5v27.47c-5.877-2.541-11.574-5.419-17.064-8.617V359.04    c0-6.309,3.505-11.98,9.147-14.801l23.676-11.838c9.931,16.741,28.151,27.293,47.853,27.293c19.877,0,37.945-10.506,47.858-27.291    l23.673,11.837c5.643,2.821,9.147,8.492,9.147,14.801V395.096z M285.557,323.252l4.841,2.421    c-7.347,11.727-20.245,19.021-34.398,19.021c-14.028,0-27.014-7.334-34.378-19.03l4.822-2.412    c8.023-4.012,13.008-12.077,13.008-21.047v-8.837c5.28,1.424,10.825,2.197,16.548,2.197c5.659,0,11.217-0.76,16.549-2.203v8.843    C272.549,311.176,277.533,319.241,285.557,323.252z M287.863,304.496c-0.203-0.734-0.313-1.502-0.313-2.291v-15.046    c9.763-5.58,18.057-13.726,23.792-23.82c10.52-18.512,6.718-42.408-9.04-56.819c-11.047-10.104-30.829-22.149-62.333-22.149    c-1.989,0-3.897,0.79-5.303,2.197L218.633,202.6c-2.929,2.929-2.929,7.678,0,10.606c2.929,2.929,7.678,2.929,10.606,0    l13.793-13.793c20.042,0.561,36.565,6.668,49.146,18.175c10.641,9.732,13.216,25.857,6.122,38.34    c-8.635,15.196-24.843,24.636-42.3,24.636c-26.805,0-48.613-21.808-48.613-48.613c0-4.142-3.358-7.5-7.5-7.5    c-4.142,0-7.5,3.358-7.5,7.5c0,23.6,12.928,44.224,32.064,55.203v15.05c0,0.789-0.111,1.557-0.313,2.292    c-25.288-5.238-40.091-13.719-46.711-18.357c-0.138-0.097-0.354-0.3-0.243-0.566c6.454-15.558,14.037-45.016,14.168-76.839    c0.139-33.557,25.839-62.193,58.509-65.193c4.083-0.375,8.197-0.375,12.275,0c32.67,3,58.37,31.636,58.509,65.193    c0.132,31.822,7.715,61.281,14.169,76.839c0.11,0.267-0.104,0.469-0.244,0.566C327.954,290.778,313.152,299.258,287.863,304.496z     M351.678,385.205V359.04c0-12.027-6.683-22.839-17.439-28.217l-29.867-14.934c19.978-5.696,32.546-13.076,38.809-17.465    c6.024-4.221,8.282-11.869,5.491-18.598c-5.932-14.298-12.901-41.513-13.024-71.153c-0.171-41.199-31.857-76.369-72.137-80.068    c-4.987-0.458-10.03-0.458-15.02,0c-40.28,3.699-71.967,38.87-72.137,80.068c-0.123,29.642-7.092,56.855-13.024,71.154    c-2.791,6.729-0.533,14.376,5.491,18.597c6.264,4.39,18.833,11.77,38.81,17.466l-29.867,14.933    c-10.757,5.378-17.439,16.19-17.439,28.218v26.165C120.814,355.871,95.161,308.877,95.161,256    c0-88.687,72.152-160.839,160.839-160.839S416.839,167.313,416.839,256C416.839,308.877,391.187,355.871,351.678,385.205z"/>
	</g>
</g>
<g>
	<g>
		<path d="M117.012,106.407l-87.66-87.662l25.012,4.169c4.084,0.679,7.95-2.079,8.631-6.165c0.681-4.085-2.079-7.95-6.165-8.631    L8.733,0.102C6.346-0.295,3.91,0.484,2.197,2.197C0.484,3.909-0.296,6.344,0.102,8.733L8.118,56.83    c0.611,3.668,3.789,6.268,7.389,6.268c0.409,0,0.825-0.034,1.242-0.103c4.086-0.681,6.846-4.545,6.165-8.631l-4.169-25.012    l87.661,87.661c1.464,1.464,3.384,2.197,5.303,2.197c1.919,0,3.839-0.732,5.303-2.197    C119.941,114.084,119.941,109.335,117.012,106.407z"/>
	</g>
</g>
<g>
	<g>
		<path d="M509.804,2.197c-1.713-1.712-4.143-2.493-6.537-2.095L455.17,8.118c-4.085,0.681-6.846,4.545-6.164,8.631    c0.681,4.085,4.534,6.843,8.631,6.165l25.011-4.169l-87.661,87.661c-2.929,2.929-2.929,7.678,0,10.606    c1.464,1.465,3.383,2.198,5.303,2.198c1.919,0,3.839-0.732,5.304-2.197l87.66-87.66l-4.169,25.011    c-0.681,4.085,2.08,7.95,6.165,8.631c0.418,0.069,0.833,0.103,1.242,0.103c3.601,0,6.777-2.6,7.389-6.268l8.017-48.097    C512.296,6.344,511.516,3.91,509.804,2.197z"/>
	</g>
</g>
<g>
	<g>
		<path d="M511.898,503.267l-8.017-48.096c-0.681-4.086-4.534-6.845-8.631-6.165c-4.085,0.681-6.846,4.545-6.165,8.631l4.169,25.011    l-87.66-87.66c-2.932-2.93-7.68-2.928-10.607,0c-2.929,2.929-2.929,7.678,0,10.606l87.661,87.661l-25.011-4.169    c-4.099-0.683-7.95,2.08-8.631,6.165c-0.682,4.085,2.079,7.95,6.164,8.631l48.097,8.016c0.411,0.068,0.824,0.102,1.233,0.102    c1.973,0,3.886-0.779,5.304-2.197C511.516,508.09,512.296,505.656,511.898,503.267z"/>
	</g>
</g>
<g>
	<g>
		<path d="M117.013,394.988c-2.929-2.929-7.678-2.929-10.606-0.001l-87.661,87.661l4.169-25.012c0.681-4.086-2.079-7.95-6.165-8.631    c-4.085-0.68-7.95,2.08-8.631,6.165l-8.016,48.097c-0.398,2.389,0.382,4.824,2.095,6.536C3.615,511.221,5.528,512,7.5,512    c0.41,0,0.823-0.034,1.233-0.102l48.097-8.016c4.086-0.681,6.846-4.545,6.165-8.631c-0.681-4.086-4.548-6.845-8.631-6.165    l-25.012,4.169l87.661-87.661C119.942,402.665,119.942,397.916,117.013,394.988z"/>
	</g>
</g>
<g>
</g>
<g>
</g>
<g>
</g>
<g>
</g>
<g>
</g>
<g>
</g>
<g>
</g>
<g>
</g>
<g>
</g>
<g>
</g>
<g>
</g>
<g>
</g>
<g>
</g>
<g>
</g>
<g>
</g>
</svg>
