<?xml version="1.0" encoding="iso-8859-1"?>
<!-- Generator: Adobe Illustrator 19.0.0, SVG Export Plug-In . SVG Version: 6.00 Build 0)  -->
<svg xmlns="http://www.w3.org/2000/svg" xmlns:xlink="http://www.w3.org/1999/xlink" version="1.1" id="Layer_1" x="0px" y="0px" viewBox="0 0 512.002 512.002" style="enable-background:new 0 0 512.002 512.002;" xml:space="preserve">
<g>
	<g>
		<path d="M400.291,24.048h-136.79V7.5c0-4.142-3.358-7.5-7.5-7.5c-4.142,0-7.5,3.358-7.5,7.5v16.548H111.71    c-8.556,0-15.516,6.96-15.516,15.516v16.032c0,8.556,6.96,15.516,15.516,15.516h0.516V336.16c0,8.556,6.96,15.516,15.516,15.516    h30.932l-30.27,151.352c-0.812,4.062,1.822,8.013,5.884,8.825c0.497,0.099,0.991,0.147,1.479,0.147    c3.502,0,6.633-2.465,7.347-6.031l5.207-26.035h100.18V504.5c0,4.142,3.358,7.5,7.5,7.5c4.142,0,7.5-3.358,7.5-7.5v-24.564h100.18    l5.207,26.035c0.713,3.565,3.845,6.031,7.347,6.031c0.487,0,0.982-0.048,1.479-0.147c4.062-0.813,6.696-4.764,5.884-8.825    l-30.27-151.352h30.932c8.556,0,15.516-6.96,15.516-15.516V71.113h0.516c8.556,0,15.516-6.96,15.516-15.516V39.564    C415.807,31.009,408.847,24.048,400.291,24.048z M360.681,464.936h-97.18v-88.694c0-4.142-3.358-7.5-7.5-7.5    c-4.142,0-7.5,3.358-7.5,7.5v88.694h-97.18l22.652-113.258H338.03L360.681,464.936z M400.807,55.597    c0,0.285-0.231,0.516-0.516,0.516h-24.046c-4.142,0-7.5,3.358-7.5,7.5c0,4.142,3.358,7.5,7.5,7.5h8.53v265.048    c0,0.285-0.231,0.516-0.516,0.516H127.742c-0.285,0-0.516-0.231-0.516-0.516V71.113h216.953c4.142,0,7.5-3.358,7.5-7.5    c0-4.142-3.358-7.5-7.5-7.5H111.71c-0.285,0-0.516-0.231-0.516-0.516V39.564c0-0.285,0.231-0.516,0.516-0.516h288.581    c0.285,0,0.516,0.231,0.516,0.516V55.597z"/>
	</g>
</g>
<g>
	<g>
		<path d="M352.194,128.258h-40.081c-4.142,0-7.5,3.358-7.5,7.5c0,4.142,3.358,7.5,7.5,7.5h21.974l-73.714,73.714    c-0.202,0.201-0.529,0.2-0.73,0l-16.72-16.72c-6.048-6.048-15.892-6.049-21.943,0l-66.477,66.477    c-2.929,2.929-2.929,7.678,0,10.606c1.464,1.464,3.384,2.197,5.303,2.197s3.839-0.732,5.303-2.197l66.476-66.477    c0.202-0.201,0.529-0.202,0.73,0l16.72,16.72c2.931,2.931,6.827,4.544,10.971,4.544c4.144,0,8.041-1.614,10.972-4.544    l73.714-73.714v21.974c0,4.142,3.358,7.5,7.5,7.5c4.142,0,7.5-3.358,7.5-7.5v-40.081    C359.694,131.616,356.336,128.258,352.194,128.258z"/>
	</g>
</g>
<g>
</g>
<g>
</g>
<g>
</g>
<g>
</g>
<g>
</g>
<g>
</g>
<g>
</g>
<g>
</g>
<g>
</g>
<g>
</g>
<g>
</g>
<g>
</g>
<g>
</g>
<g>
</g>
<g>
</g>
</svg>
