<?xml version="1.0" encoding="iso-8859-1"?>
<!-- Generator: Adobe Illustrator 19.0.0, SVG Export Plug-In . SVG Version: 6.00 Build 0)  -->
<svg xmlns="http://www.w3.org/2000/svg" xmlns:xlink="http://www.w3.org/1999/xlink" version="1.1" id="Layer_1" x="0px" y="0px" viewBox="0 0 511.999 511.999" style="enable-background:new 0 0 511.999 511.999;" xml:space="preserve">
<g>
	<g>
		<path d="M408.307,32.064h-73.894c-3.139-9.308-11.946-16.032-22.3-16.032h-24.472C280.218,6.047,268.458,0,256,0    s-24.218,6.047-31.641,16.032h-24.472c-10.353,0-19.16,6.724-22.3,16.032h-73.894c-17.396,0-31.548,14.152-31.548,31.548v416.839    c0,17.396,14.152,31.548,31.548,31.548h304.613c17.396,0,31.548-14.152,31.548-31.548V63.613    C439.855,46.217,425.703,32.064,408.307,32.064z M191.355,39.594c0-0.01,0.001-0.019,0.001-0.029c0-0.005-0.001-0.01-0.001-0.014    c0.009-4.699,3.833-8.519,8.532-8.519h28.495c2.67,0,5.139-1.419,6.482-3.728C239.349,19.6,247.25,15,256,15    s16.651,4.6,21.136,12.305c1.343,2.308,3.812,3.728,6.482,3.728h28.495c4.705,0,8.532,3.828,8.532,8.532v24.564h-129.29V39.594z     M424.855,480.452c0,9.125-7.423,16.548-16.548,16.548H103.693c-9.125,0-16.548-7.423-16.548-16.548V63.613    c0-9.125,7.423-16.548,16.548-16.548h72.662v24.564c0,4.142,3.358,7.5,7.5,7.5h144.29c4.142,0,7.5-3.358,7.5-7.5V47.064h72.662    c9.125,0,16.548,7.423,16.548,16.548V480.452z"/>
	</g>
</g>
<g>
	<g>
		<path d="M256.08,32.064H256c-4.142,0-7.46,3.358-7.46,7.5c0,4.142,3.398,7.5,7.54,7.5c4.142,0,7.5-3.358,7.5-7.5    C263.58,35.422,260.222,32.064,256.08,32.064z"/>
	</g>
</g>
<g>
	<g>
		<path d="M400.291,64.129h-40.082c-4.142,0-7.5,3.358-7.5,7.5c0,4.142,3.358,7.5,7.5,7.5h32.582v369.774H119.209V79.129h32.579    c4.142,0,7.5-3.358,7.5-7.5c0-4.142-3.358-7.5-7.5-7.5h-40.079c-4.142,0-7.5,3.358-7.5,7.5v384.774c0,4.142,3.358,7.5,7.5,7.5    H400.29c4.142,0,7.5-3.358,7.5-7.5V71.629C407.791,67.487,404.433,64.129,400.291,64.129z"/>
	</g>
</g>
<g>
	<g>
		<path d="M175.839,224.452c-12.976,0-23.532,10.557-23.532,23.532c0,12.975,10.557,23.532,23.532,23.532    c12.975,0,23.532-10.557,23.532-23.532C199.371,235.009,188.814,224.452,175.839,224.452z M175.839,256.516    c-4.705,0-8.532-3.828-8.532-8.532c0-4.704,3.828-8.532,8.532-8.532c4.704,0,8.532,3.828,8.532,8.532    C184.371,252.688,180.543,256.516,175.839,256.516z"/>
	</g>
</g>
<g>
	<g>
		<path d="M175.839,296.597c-12.976,0-23.532,10.557-23.532,23.532c0,12.975,10.557,23.532,23.532,23.532    c12.975,0,23.532-10.557,23.532-23.532C199.371,307.154,188.814,296.597,175.839,296.597z M175.839,328.661    c-4.705,0-8.532-3.828-8.532-8.532c0-4.704,3.828-8.532,8.532-8.532c4.704,0,8.532,3.828,8.532,8.532    C184.371,324.833,180.543,328.661,175.839,328.661z"/>
	</g>
</g>
<g>
	<g>
		<path d="M175.839,368.742c-12.976,0-23.532,10.557-23.532,23.533c0,12.976,10.557,23.532,23.532,23.532    c12.975,0,23.532-10.557,23.532-23.532C199.371,379.298,188.814,368.742,175.839,368.742z M175.839,400.807    c-4.705,0-8.532-3.828-8.532-8.532c0-4.705,3.828-8.533,8.532-8.533c4.704,0,8.532,3.828,8.532,8.533    C184.371,396.979,180.543,400.807,175.839,400.807z"/>
	</g>
</g>
<g>
	<g>
		<path d="M296.081,224.452h-72.145c-4.142,0-7.5,3.358-7.5,7.5c0,4.142,3.357,7.5,7.5,7.5h72.145c4.142,0,7.5-3.358,7.5-7.5    C303.581,227.81,300.223,224.452,296.081,224.452z"/>
	</g>
</g>
<g>
	<g>
		<path d="M352.193,256.516H223.936c-4.142,0-7.5,3.358-7.5,7.5c0,4.142,3.358,7.5,7.5,7.5h128.258c4.142,0,7.5-3.358,7.5-7.5    C359.694,259.874,356.335,256.516,352.193,256.516z"/>
	</g>
</g>
<g>
	<g>
		<path d="M296.081,296.597h-72.145c-4.142,0-7.5,3.358-7.5,7.5c0,4.142,3.357,7.5,7.5,7.5h72.145c4.142,0,7.5-3.358,7.5-7.5    C303.581,299.955,300.223,296.597,296.081,296.597z"/>
	</g>
</g>
<g>
	<g>
		<path d="M352.193,328.661H223.936c-4.142,0-7.5,3.358-7.5,7.5c0,4.142,3.358,7.5,7.5,7.5h128.258c4.142,0,7.5-3.358,7.5-7.5    C359.694,332.019,356.335,328.661,352.193,328.661z"/>
	</g>
</g>
<g>
	<g>
		<path d="M296.081,368.742h-72.145c-4.142,0-7.5,3.358-7.5,7.5c0,4.142,3.357,7.5,7.5,7.5h72.145c4.142,0,7.5-3.358,7.5-7.5    C303.581,372.1,300.223,368.742,296.081,368.742z"/>
	</g>
</g>
<g>
	<g>
		<path d="M352.194,400.807H223.936c-4.142,0-7.5,3.358-7.5,7.5c0,4.142,3.357,7.5,7.5,7.5h128.258c4.142,0,7.5-3.358,7.5-7.5    C359.694,404.165,356.336,400.807,352.194,400.807z"/>
	</g>
</g>
<g>
	<g>
		<path d="M352.194,104.209H223.936c-4.142,0-7.5,3.358-7.5,7.5c0,4.142,3.357,7.5,7.5,7.5h128.258c4.142,0,7.5-3.358,7.5-7.5    C359.694,107.567,356.336,104.209,352.194,104.209z"/>
	</g>
</g>
<g>
	<g>
		<path d="M352.193,176.355H159.807c-4.142,0-7.5,3.358-7.5,7.5c0,4.142,3.358,7.5,7.5,7.5h192.387c4.142,0,7.5-3.358,7.5-7.5    C359.694,179.713,356.335,176.355,352.193,176.355z"/>
	</g>
</g>
<g>
	<g>
		<path d="M247.984,136.274h-24.048c-4.142,0-7.5,3.358-7.5,7.5c0,4.142,3.357,7.5,7.5,7.5h24.048c4.142,0,7.5-3.358,7.5-7.5    C255.484,139.632,252.126,136.274,247.984,136.274z"/>
	</g>
</g>
<g>
	<g>
		<path d="M304.097,136.274h-24.048c-4.142,0-7.5,3.358-7.5,7.5c0,4.142,3.358,7.5,7.5,7.5h24.048c4.142,0,7.5-3.358,7.5-7.5    C311.597,139.632,308.239,136.274,304.097,136.274z"/>
	</g>
</g>
<g>
	<g>
		<path d="M191.871,104.209h-32.064c-4.142,0-7.5,3.358-7.5,7.5v32.065c0,4.142,3.358,7.5,7.5,7.5h32.064c4.142,0,7.5-3.358,7.5-7.5    v-32.065C199.371,107.567,196.013,104.209,191.871,104.209z M184.371,136.274h-17.064v-17.065h17.064V136.274z"/>
	</g>
</g>
<g>
</g>
<g>
</g>
<g>
</g>
<g>
</g>
<g>
</g>
<g>
</g>
<g>
</g>
<g>
</g>
<g>
</g>
<g>
</g>
<g>
</g>
<g>
</g>
<g>
</g>
<g>
</g>
<g>
</g>
</svg>
