<?xml version="1.0" encoding="iso-8859-1"?>
<!-- Generator: Adobe Illustrator 19.0.0, SVG Export Plug-In . SVG Version: 6.00 Build 0)  -->
<svg xmlns="http://www.w3.org/2000/svg" xmlns:xlink="http://www.w3.org/1999/xlink" version="1.1" id="Layer_1" x="0px" y="0px" viewBox="0 0 511.998 511.998" style="enable-background:new 0 0 511.998 511.998;" xml:space="preserve">
<g>
	<g>
		<path d="M392.275,177.438H79.646c-4.143,0-7.5,3.358-7.5,7.5c0,4.142,3.357,7.5,7.5,7.5h312.629c4.143,0,7.5-3.358,7.5-7.5    C399.775,180.796,396.418,177.438,392.275,177.438z"/>
	</g>
</g>
<g>
	<g>
		<path d="M280.049,137.357H79.646c-4.143,0-7.5,3.358-7.5,7.5c0,4.142,3.357,7.5,7.5,7.5h200.403c4.143,0,7.5-3.358,7.5-7.5    C287.549,140.714,284.192,137.357,280.049,137.357z"/>
	</g>
</g>
<g>
	<g>
		<path d="M392.274,137.357h-80.161c-4.143,0-7.5,3.358-7.5,7.5c0,4.142,3.357,7.5,7.5,7.5h80.161c4.143,0,7.5-3.358,7.5-7.5    C399.774,140.714,396.417,137.357,392.274,137.357z"/>
	</g>
</g>
<g>
	<g>
		<path d="M183.855,217.518H79.646c-4.143,0-7.5,3.358-7.5,7.5c0,4.142,3.357,7.5,7.5,7.5h104.209c4.143,0,7.5-3.358,7.5-7.5    C191.355,220.877,187.998,217.518,183.855,217.518z"/>
	</g>
</g>
<g>
	<g>
		<path d="M392.274,217.518H231.948c-4.143,0-7.5,3.358-7.5,7.5c0,4.142,3.357,7.5,7.5,7.5h160.326c4.143,0,7.5-3.358,7.5-7.5    C399.774,220.877,396.417,217.518,392.274,217.518z"/>
	</g>
</g>
<g>
	<g>
		<path d="M119.727,97.276H79.646c-4.143,0-7.5,3.358-7.5,7.5c0,4.142,3.358,7.5,7.5,7.5h40.081c4.143,0,7.5-3.358,7.5-7.5    C127.227,100.635,123.87,97.276,119.727,97.276z"/>
	</g>
</g>
<g>
	<g>
		<path d="M392.275,97.276H151.794c-4.143,0-7.5,3.358-7.5,7.5c0,4.142,3.357,7.5,7.5,7.5h240.481c4.143,0,7.5-3.358,7.5-7.5    C399.775,100.635,396.418,97.276,392.275,97.276z"/>
	</g>
</g>
<g>
	<g>
		<path d="M312.111,257.601H79.646c-4.143,0-7.5,3.358-7.5,7.5c0,4.142,3.357,7.5,7.5,7.5h232.465c4.143,0,7.5-3.358,7.5-7.5    C319.611,260.958,316.254,257.601,312.111,257.601z"/>
	</g>
</g>
<g>
	<g>
		<path d="M392.275,257.601h-48.1c-4.143,0-7.5,3.358-7.5,7.5c0,4.142,3.357,7.5,7.5,7.5h48.1c4.143,0,7.5-3.358,7.5-7.5    C399.775,260.958,396.418,257.601,392.275,257.601z"/>
	</g>
</g>
<g>
	<g>
		<path d="M472.436,81.244h-8.532v-8.532c0-21.816-17.748-39.564-39.564-39.564H39.564C17.749,33.148,0,50.896,0,72.711v224.452    c0,21.816,17.749,39.564,39.564,39.564h8.532v8.532c0,21.816,17.749,39.564,39.564,39.564h59.635l-6.209,26.905    c-1.449,6.275,1.053,12.676,6.373,16.306c2.657,1.813,5.701,2.72,8.745,2.719c3.051,0,6.102-0.911,8.762-2.73l55.885-38.237    l126.181,86.333c2.66,1.821,5.711,2.731,8.762,2.731c3.044,0,6.088-0.906,8.745-2.719c5.32-3.63,7.822-10.031,6.373-16.306    l-17.308-75.002h118.83c21.816,0,39.564-17.749,39.564-39.564V120.809C512,98.993,494.252,81.244,472.436,81.244z M87.661,369.826    L87.661,369.826c-13.545-0.001-24.564-11.021-24.564-24.565v-8.532h95.298l-7.637,33.097H87.661z M156.496,415.646    c-0.155,0.107-0.289,0.2-0.582,0c-0.291-0.199-0.254-0.357-0.212-0.542l19.428-84.189c0.515-2.227-0.016-4.567-1.438-6.355    c-1.423-1.789-3.584-2.831-5.869-2.831H39.564C26.02,321.727,15,310.708,15,297.164V72.711c0-13.545,11.02-24.564,24.564-24.564    h384.774c13.545,0,24.564,11.02,24.564,24.564v224.452c0,13.545-11.02,24.564-24.564,24.564H296.081    c-1.512,0-2.987,0.457-4.235,1.31L156.496,415.646z M472.436,369.823H344.178c-2.285,0-4.446,1.042-5.869,2.831    s-1.953,4.128-1.438,6.355l19.428,84.189c0.042,0.184,0.079,0.343-0.212,0.542c-0.291,0.198-0.426,0.106-0.582,0L234.134,380.7    l64.267-43.972h125.938c21.816,0,39.564-17.749,39.564-39.564V96.244h8.532c13.545,0,24.564,11.02,24.564,24.564V345.26H497    C497,358.805,485.98,369.823,472.436,369.823z"/>
	</g>
</g>
<g>
</g>
<g>
</g>
<g>
</g>
<g>
</g>
<g>
</g>
<g>
</g>
<g>
</g>
<g>
</g>
<g>
</g>
<g>
</g>
<g>
</g>
<g>
</g>
<g>
</g>
<g>
</g>
<g>
</g>
</svg>
