<?xml version="1.0" encoding="iso-8859-1"?>
<!-- Generator: Adobe Illustrator 19.0.0, SVG Export Plug-In . SVG Version: 6.00 Build 0)  -->
<svg xmlns="http://www.w3.org/2000/svg" xmlns:xlink="http://www.w3.org/1999/xlink" version="1.1" id="Layer_1" x="0px" y="0px" viewBox="0 0 512.001 512.001" style="enable-background:new 0 0 512.001 512.001;" xml:space="preserve">
<g>
	<g>
		<path d="M498.696,286.13l-19.396-9.698c-0.269-0.134-0.435-0.403-0.435-0.702v-11.867c10.04-7.405,16.567-19.31,16.567-32.714    v-16.566c0-17.838-14.513-32.35-32.351-32.35h-16.566c-0.263,0-0.522,0.014-0.783,0.02v-15.414    c0-9.175-5.098-17.424-13.304-21.526l-19.396-9.698c-0.269-0.134-0.435-0.403-0.435-0.701v-11.867    c10.04-7.405,16.567-19.31,16.567-32.714V73.767c0-17.838-14.513-32.35-32.351-32.35H380.25c-17.838,0-32.35,14.512-32.35,32.35    v16.567c0,13.404,6.527,25.308,16.566,32.714v11.867c0,0.298-0.166,0.567-0.434,0.701l-19.396,9.698    c-8.206,4.103-13.304,12.351-13.304,21.526v15.414c-0.261-0.006-0.521-0.02-0.783-0.02h-16.566c-0.263,0-0.522,0.014-0.783,0.02    V166.84c0-9.175-5.098-17.423-13.304-21.526l-19.396-9.698c-0.268-0.134-0.434-0.402-0.434-0.701v-11.867    c10.04-7.405,16.567-19.31,16.567-32.714V73.767c0-17.838-14.513-32.35-32.351-32.35h-16.566c-17.838,0-32.35,14.512-32.35,32.35    v16.567c0,13.404,6.527,25.308,16.566,32.714v11.867c0,0.299-0.166,0.567-0.433,0.701l-19.396,9.698    c-8.206,4.103-13.304,12.352-13.304,21.526v15.414c-0.261-0.006-0.521-0.02-0.783-0.02H181.45c-0.263,0-0.522,0.014-0.784,0.02    V166.84c0-9.175-5.098-17.423-13.304-21.526l-19.396-9.698c-0.268-0.134-0.434-0.402-0.434-0.701v-11.867    c10.039-7.405,16.567-19.31,16.567-32.714V73.767c0-17.838-14.512-32.35-32.35-32.35h-16.567c-17.837,0-32.35,14.512-32.35,32.35    v16.567c0,13.404,6.527,25.308,16.566,32.714v11.867c0,0.299-0.166,0.567-0.433,0.701l-19.397,9.698    c-8.206,4.103-13.304,12.351-13.304,21.526v15.414c-0.261-0.006-0.521-0.02-0.783-0.02H48.917c-17.837,0-32.35,14.512-32.35,32.35    v16.566c0,13.404,6.527,25.308,16.566,32.714v11.867c0,0.299-0.166,0.567-0.433,0.701l-19.396,9.698    C5.098,290.233,0,298.481,0,307.655v81.637c0,6.408,1.878,12.613,5.433,17.945l8.219,12.329c1.907,2.86,2.915,6.188,2.915,9.624    v33.893c0,4.142,3.358,7.5,7.5,7.5c4.142,0,7.5-3.358,7.5-7.5V429.19c0-6.407-1.879-12.612-5.434-17.944l-8.219-12.329    c-1.906-2.859-2.914-6.188-2.914-9.625v-81.637c0-3.456,1.92-6.563,5.012-8.109l13.618-6.809l12.409,12.409    c3.077,3.078,7.118,4.616,11.161,4.616c4.041,0,8.083-1.539,11.16-4.616l12.41-12.409l13.618,6.809    c3.091,1.546,5.012,4.653,5.012,8.109v81.637c0,3.437-1.008,6.765-2.914,9.625l-8.22,12.329    c-3.554,5.332-5.433,11.537-5.433,17.944v33.893c0,4.142,3.358,7.5,7.5,7.5c4.142,0,7.5-3.358,7.5-7.5V429.19    c0-3.437,1.008-6.765,2.914-9.624l8.22-12.329c3.554-5.332,5.433-11.537,5.433-17.945v-81.637c0-9.174-5.098-17.422-13.304-21.525    L81.7,276.432c-0.268-0.134-0.434-0.402-0.434-0.701v-11.867c10.039-7.405,16.567-19.31,16.567-32.714v-16.566    c0-12.109-6.691-22.679-16.567-28.224v-19.521c0-3.457,1.92-6.564,5.012-8.11l13.619-6.809l12.41,12.41    c3.077,3.076,7.118,4.615,11.16,4.615c4.042,0,8.083-1.539,11.161-4.615l12.41-12.41l13.618,6.809    c3.091,1.545,5.012,4.653,5.012,8.109v19.521c-9.875,5.545-16.566,16.115-16.566,28.223v16.566    c0,13.404,6.527,25.308,16.566,32.714v11.867c0,0.299-0.166,0.567-0.433,0.701l-19.397,9.698    c-8.206,4.103-13.304,12.351-13.304,21.525v81.637c0,6.408,1.879,12.614,5.434,17.945l8.219,12.33    c1.906,2.859,2.914,6.187,2.914,9.624v33.893c0,4.142,3.358,7.5,7.5,7.5c4.142,0,7.5-3.358,7.5-7.5V429.19    c0-6.408-1.879-12.613-5.434-17.944l-8.219-12.33c-1.906-2.859-2.914-6.187-2.914-9.624v-81.637c0-3.456,1.92-6.563,5.012-8.109    l13.619-6.809l12.409,12.409c3.077,3.078,7.118,4.616,11.161,4.616c4.041,0,8.083-1.539,11.16-4.616l12.41-12.409l13.618,6.81    c3.091,1.545,5.012,4.652,5.012,8.109v81.637c0,3.437-1.008,6.765-2.914,9.625l-8.22,12.329    c-3.554,5.332-5.433,11.537-5.433,17.944v33.893c0,4.142,3.358,7.5,7.5,7.5c4.142,0,7.5-3.358,7.5-7.5V429.19    c0-3.437,1.008-6.765,2.914-9.624l8.22-12.329c3.554-5.332,5.433-11.537,5.433-17.945v-81.637c0-9.175-5.098-17.423-13.304-21.525    l-19.396-9.698c-0.268-0.134-0.434-0.402-0.434-0.701v-11.867c10.039-7.405,16.567-19.31,16.567-32.714v-16.566    c0-12.109-6.691-22.679-16.567-28.224v-19.521c0-3.457,1.92-6.564,5.012-8.11l13.618-6.809l12.41,12.41    c3.077,3.076,7.118,4.614,11.16,4.614s8.083-1.538,11.162-4.615l12.409-12.409l13.618,6.809c3.092,1.546,5.013,4.653,5.013,8.11    v19.521c-9.875,5.545-16.566,16.115-16.566,28.223v16.566c0,13.404,6.527,25.308,16.566,32.714v11.867    c0,0.299-0.166,0.567-0.434,0.701l-19.396,9.698c-8.206,4.103-13.304,12.351-13.304,21.525v81.637    c0,6.408,1.879,12.614,5.434,17.945l8.219,12.329c1.907,2.861,2.915,6.189,2.915,9.625v33.893c0,4.142,3.357,7.5,7.5,7.5    s7.5-3.358,7.5-7.5V429.19c0-6.406-1.879-12.611-5.434-17.944l-8.22-12.33c-1.906-2.859-2.914-6.187-2.914-9.624v-81.637    c0-3.456,1.921-6.563,5.013-8.109l13.618-6.809l12.409,12.409c3.077,3.077,7.118,4.615,11.16,4.615s8.084-1.539,11.16-4.615    l12.409-12.409l13.618,6.809c3.092,1.546,5.013,4.653,5.013,8.109v81.637c0,3.437-1.008,6.765-2.914,9.625l-8.221,12.33    c-3.554,5.332-5.432,11.537-5.432,17.944v33.893c0,4.142,3.357,7.5,7.5,7.5s7.5-3.358,7.5-7.5V429.19    c0-3.437,1.008-6.765,2.913-9.624l8.22-12.329c3.555-5.332,5.434-11.537,5.434-17.945v-81.637c0-9.174-5.098-17.422-13.304-21.525    l-19.396-9.698c-0.269-0.134-0.435-0.403-0.435-0.702v-11.867c10.04-7.405,16.567-19.31,16.567-32.714v-16.566    c0-12.109-6.692-22.679-16.567-28.224v-19.521c0-3.457,1.921-6.564,5.013-8.11l13.618-6.809l12.41,12.41    c3.077,3.076,7.118,4.614,11.16,4.614c4.041,0,8.084-1.539,11.161-4.615l12.409-12.409l13.618,6.809    c3.091,1.545,5.012,4.653,5.012,8.109v19.521c-9.875,5.545-16.566,16.115-16.566,28.223v16.566    c0,13.404,6.527,25.308,16.566,32.714v11.867c0,0.299-0.166,0.567-0.434,0.701l-19.396,9.698    c-8.206,4.103-13.304,12.351-13.304,21.525v81.637c0,6.408,1.879,12.614,5.434,17.945l8.22,12.33    c1.906,2.859,2.914,6.187,2.914,9.624v33.893c0,4.142,3.357,7.5,7.5,7.5s7.5-3.358,7.5-7.5V429.19    c0-6.408-1.879-12.613-5.434-17.944l-8.22-12.33c-1.906-2.859-2.914-6.187-2.914-9.624v-81.637c0-3.456,1.921-6.563,5.013-8.109    l13.618-6.809l12.409,12.409c3.077,3.077,7.118,4.615,11.16,4.615s8.084-1.539,11.16-4.615l12.409-12.409l13.619,6.809    c3.091,1.545,5.012,4.652,5.012,8.109v81.637c0,3.437-1.008,6.765-2.914,9.625l-8.221,12.33    c-3.554,5.332-5.432,11.537-5.432,17.944v33.893c0,4.142,3.357,7.5,7.5,7.5s7.5-3.358,7.5-7.5V429.19    c0-3.437,1.008-6.765,2.913-9.624l8.22-12.329c3.555-5.332,5.434-11.537,5.434-17.945v-81.637    C512,298.48,506.902,290.232,498.696,286.13z M57.754,294.54c-0.305,0.306-0.801,0.306-1.108,0l-10.728-10.728    c1.424-2.391,2.216-5.163,2.216-8.081v-3.947h18.133v3.946c0,2.918,0.792,5.689,2.216,8.081L57.754,294.54z M82.834,214.584    v16.566h-0.001c0,14.134-11.499,25.633-25.633,25.633c-14.134,0-25.633-11.499-25.633-25.633v-16.566    c0-9.567,7.783-17.35,17.35-17.35h16.567C75.051,197.234,82.834,205.017,82.834,214.584z M124.021,153.723    c-0.306,0.306-0.803,0.305-1.108,0l-10.728-10.729c1.424-2.391,2.216-5.163,2.216-8.081v-3.947h18.133v3.947    c0,2.918,0.792,5.689,2.216,8.08L124.021,153.723z M123.467,115.967c-14.134,0-25.633-11.499-25.633-25.633V73.767h-0.001    c0-9.567,7.783-17.35,17.35-17.35h16.567c9.567,0,17.35,7.783,17.35,17.35v16.567C149.1,104.468,137.601,115.967,123.467,115.967z     M190.287,294.539c-0.305,0.306-0.801,0.306-1.108,0l-10.728-10.728c1.424-2.391,2.216-5.163,2.216-8.081v-3.947H198.8v3.947    c0,2.918,0.792,5.689,2.216,8.081L190.287,294.539z M215.366,214.584v16.566h0.001c0,14.134-11.499,25.633-25.633,25.633    c-14.134,0-25.634-11.499-25.634-25.633v-16.566c0-9.567,7.783-17.35,17.35-17.35h16.566    C207.583,197.234,215.366,205.017,215.366,214.584z M256.555,153.722c-0.306,0.306-0.804,0.306-1.109,0.001l-10.728-10.729    c1.424-2.391,2.216-5.163,2.216-8.081v-3.947h18.133v3.947c0,2.918,0.792,5.689,2.215,8.08L256.555,153.722z M256,115.967    c-14.134,0-25.633-11.499-25.633-25.633V73.767h0c0-9.567,7.783-17.35,17.35-17.35h16.566c9.567,0,17.351,7.783,17.351,17.35    v16.567C281.634,104.468,270.135,115.967,256,115.967z M322.821,294.538c-0.308,0.306-0.805,0.305-1.108,0l-10.728-10.729    c1.423-2.391,2.215-5.163,2.215-8.081v-3.947h18.133v0.002v3.947c0,2.918,0.792,5.69,2.216,8.081L322.821,294.538z M347.9,214.584    v16.566c0,14.134-11.499,25.633-25.634,25.633c-14.134,0-25.633-11.499-25.633-25.633v-16.566c0-9.567,7.783-17.35,17.35-17.35    h16.566C340.116,197.234,347.9,205.017,347.9,214.584z M389.088,153.722c-0.308,0.307-0.805,0.305-1.108,0.001l-10.728-10.729    c1.423-2.391,2.215-5.163,2.215-8.08v-3.947H397.6v3.947c0,2.917,0.792,5.689,2.216,8.08L389.088,153.722z M388.533,115.967    c-14.134,0-25.633-11.499-25.633-25.633V73.767c0-9.567,7.783-17.35,17.35-17.35h16.566c9.567,0,17.351,7.783,17.351,17.35v16.567    C414.167,104.468,402.668,115.967,388.533,115.967z M455.354,294.539c-0.308,0.306-0.805,0.305-1.108,0l-10.728-10.729    c1.423-2.391,2.215-5.163,2.215-8.081v-3.947h18.133v3.947c0,2.918,0.792,5.69,2.216,8.081L455.354,294.539z M454.8,256.782    c-14.134,0-25.633-11.499-25.633-25.633v-16.566h0c0-9.567,7.783-17.35,17.35-17.35h16.566c9.567,0,17.351,7.783,17.351,17.35    v16.566C480.434,245.283,468.935,256.782,454.8,256.782z"/>
	</g>
</g>
<g>
</g>
<g>
</g>
<g>
</g>
<g>
</g>
<g>
</g>
<g>
</g>
<g>
</g>
<g>
</g>
<g>
</g>
<g>
</g>
<g>
</g>
<g>
</g>
<g>
</g>
<g>
</g>
<g>
</g>
</svg>
