<?xml version="1.0" encoding="iso-8859-1"?>
<!-- Generator: Adobe Illustrator 19.0.0, SVG Export Plug-In . SVG Version: 6.00 Build 0)  -->
<svg xmlns="http://www.w3.org/2000/svg" xmlns:xlink="http://www.w3.org/1999/xlink" version="1.1" id="Layer_1" x="0px" y="0px" viewBox="0 0 512 512" style="enable-background:new 0 0 512 512;" xml:space="preserve">
<g>
	<g>
		<path d="M444.076,427.361l-20.249-8.099v-6.932c9.985-7.423,16.032-19.183,16.032-31.64v-20.393    c0-8.448-3.296-16.385-9.281-22.348c-5.957-5.936-13.859-9.2-22.264-9.2c-0.039,0-0.079,0-0.118,0l-16.032,0.058    c-11.51,0.042-21.59,6.3-27.067,15.574l-13.416-5.366v-6.932c9.985-7.422,16.032-19.182,16.032-31.64V280.05    c0-8.448-3.296-16.385-9.28-22.348c-5.958-5.936-13.86-9.2-22.265-9.2c-0.039,0-0.078,0-0.117,0l-16.032,0.058    c-17.333,0.062-31.435,14.214-31.435,31.548v20.335c0,12.458,6.047,24.217,16.032,31.64v6.932l-13.362,5.345    c-1.358-2.312-3.017-4.467-4.967-6.41c-5.957-5.935-13.859-9.199-22.263-9.199c-0.039,0-0.079,0-0.118,0l-16.033,0.058    c-11.51,0.042-21.59,6.3-27.067,15.574l-13.416-5.366v-6.932c9.985-7.423,16.032-19.183,16.032-31.64v-20.393    c0-8.448-3.296-16.385-9.28-22.348c-5.958-5.936-13.86-9.2-22.266-9.2c-0.039,0-0.078,0-0.117,0l-16.032,0.058    c-17.333,0.062-31.435,14.214-31.435,31.548v20.335c0,12.458,6.047,24.218,16.032,31.64v6.931l-13.362,5.345    c-1.358-2.312-3.017-4.467-4.967-6.41c-5.957-5.936-13.859-9.2-22.264-9.2c-0.039,0-0.079,0-0.118,0l-16.032,0.058    c-17.333,0.063-31.435,14.215-31.435,31.548v20.335c0,12.458,6.047,24.217,16.032,31.64v6.932l-20.249,8.099    c-12.047,4.819-19.832,16.316-19.832,29.292V504.5c0,4.142,3.358,7.5,7.5,7.5c4.142,0,7.5-3.358,7.5-7.5v-47.848    c0-6.806,4.083-12.837,10.403-15.365l23.622-9.449h29.175l23.624,9.449c6.319,2.528,10.402,8.559,10.402,15.365V504.5    c0,4.142,3.358,7.5,7.5,7.5c4.142,0,7.5-3.358,7.5-7.5v-47.847c0-12.976-7.785-24.474-19.832-29.292l-20.249-8.099v-6.931    c9.985-7.423,16.033-19.183,16.033-31.641v-20.393c0-0.5-0.013-0.998-0.036-1.494l18.029-7.211h29.176l18.032,7.213    c-0.025,0.514-0.039,1.031-0.039,1.551v20.335c0,12.458,6.047,24.217,16.032,31.64v6.931l-20.249,8.1    c-12.047,4.818-19.832,16.316-19.832,29.292V504.5c0,4.142,3.358,7.5,7.5,7.5c4.142,0,7.5-3.358,7.5-7.5v-47.848    c0-6.806,4.083-12.837,10.402-15.365l23.622-9.449h29.176l23.623,9.449c6.319,2.527,10.402,8.559,10.402,15.365V504.5    c0,4.142,3.358,7.5,7.5,7.5c4.142,0,7.5-3.358,7.5-7.5v-47.847c0-12.976-7.785-24.474-19.832-29.292l-20.249-8.099v-6.932    c9.985-7.423,16.032-19.183,16.032-31.64v-20.393c0-0.5-0.013-0.998-0.036-1.494l18.029-7.212h29.175l18.032,7.212    c-0.025,0.514-0.039,1.031-0.039,1.551v20.335c0,12.458,6.047,24.218,16.033,31.641v6.931l-20.249,8.099    c-12.047,4.819-19.832,16.316-19.832,29.292V504.5c0,4.142,3.358,7.5,7.5,7.5c4.142,0,7.5-3.358,7.5-7.5v-47.848    c0-6.806,4.083-12.837,10.403-15.365l23.622-9.449h29.175l23.624,9.449c6.319,2.527,10.402,8.559,10.402,15.365V504.5    c0,4.142,3.358,7.5,7.5,7.5c4.142,0,7.5-3.358,7.5-7.5v-47.847C463.908,443.677,456.124,432.179,444.076,427.361z     M136.279,380.689c0,8.75-4.6,16.651-12.305,21.135c-2.308,1.343-3.728,3.812-3.728,6.482v8.532h-17.064v-8.532    c0-2.67-1.419-5.139-3.728-6.482c-7.705-4.484-12.305-12.385-12.305-21.135v-20.335c0-9.092,7.397-16.516,16.489-16.548    l16.033-0.058c4.432,0.02,8.601,1.698,11.74,4.825c3.139,3.128,4.868,7.291,4.868,11.723V380.689z M196.121,321.576    c-2.308,1.343-3.728,3.812-3.728,6.482v8.533h-17.064v-8.533c0-2.67-1.42-5.139-3.728-6.482    c-7.706-4.484-12.305-12.385-12.305-21.135v-20.335c0-9.092,7.396-16.516,16.489-16.548l16.032-0.058c0.021,0,0.041,0,0.062,0    c4.409,0,8.554,1.712,11.679,4.826c3.139,3.128,4.868,7.291,4.868,11.723v20.393C208.426,309.192,203.826,317.092,196.121,321.576    z M268.264,401.824c-2.308,1.343-3.728,3.812-3.728,6.482v8.532h-17.064v-8.532c0-2.67-1.419-5.139-3.728-6.482    c-7.705-4.484-12.305-12.385-12.305-21.135v-20.335c0-9.092,7.396-16.516,16.488-16.548l16.033-0.058c0.021,0,0.041,0,0.062,0    c4.408,0,8.553,1.712,11.678,4.825c3.139,3.128,4.868,7.291,4.868,11.723v20.393h0.001    C280.569,389.439,275.969,397.34,268.264,401.824z M340.41,321.576c-2.308,1.343-3.728,3.812-3.728,6.482v8.533h-17.064v-8.533    c0-2.67-1.42-5.139-3.728-6.482c-7.704-4.484-12.304-12.385-12.304-21.135v-20.335c0-9.092,7.397-16.516,16.489-16.548    l16.032-0.058c0.021,0,0.041,0,0.062,0c4.408,0,8.554,1.712,11.678,4.826c3.139,3.128,4.868,7.291,4.868,11.723v20.393    C352.715,309.192,348.115,317.093,340.41,321.576z M412.556,401.824c-2.308,1.343-3.728,3.812-3.728,6.482v8.532h-17.064v-8.532    c0-2.67-1.419-5.139-3.728-6.482c-7.705-4.484-12.305-12.385-12.305-21.135v-20.335c0-9.092,7.397-16.516,16.489-16.548    l16.033-0.058c4.458,0.02,8.601,1.698,11.74,4.825c3.139,3.128,4.868,7.291,4.868,11.723v20.393    C424.861,389.439,420.261,397.34,412.556,401.824z"/>
	</g>
</g>
<g>
	<g>
		<path d="M342.545,139.832c-1.367-2.211-3.781-3.557-6.38-3.557h-24.564v-14.656c0-8.971-4.984-17.036-13.008-21.048l-18.771-9.385    c-0.176-0.088-0.285-0.265-0.285-0.462V79.645c0-0.092-0.01-0.181-0.014-0.272c9.728-7.215,16.046-18.779,16.046-31.793V31.548    C295.569,14.152,281.417,0,264.021,0h-16.032c-17.396,0-31.548,14.152-31.548,31.548V47.58c0,13.014,6.318,24.578,16.046,31.793    c-0.003,0.091-0.014,0.18-0.014,0.272v11.078c0,0.197-0.109,0.374-0.285,0.462l-18.771,9.385    c-8.024,4.012-13.008,12.077-13.008,21.048v14.656h-24.564c-2.599,0-5.013,1.346-6.38,3.557s-1.491,4.972-0.328,7.297    l16.031,32.065c1.27,2.541,3.867,4.146,6.708,4.146h8.532v48.613c0,4.142,3.358,7.5,7.5,7.5c4.142,0,7.5-3.358,7.5-7.5v-48.613    h81.193v48.613c0,4.142,3.358,7.5,7.5,7.5c4.142,0,7.5-3.358,7.5-7.5v-48.613h8.532c2.841,0,5.438-1.605,6.708-4.146    l16.032-32.064C344.036,144.804,343.912,142.043,342.545,139.832z M231.441,47.58V31.548c0-9.125,7.423-16.548,16.548-16.548    h16.032c9.125,0,16.548,7.423,16.548,16.548V47.58c0,13.545-11.02,24.564-24.564,24.564    C242.461,72.144,231.441,61.124,231.441,47.58z M266.621,98.503l-10.251,10.251c-0.202,0.202-0.53,0.202-0.731,0l-10.251-10.252    c1.339-2.313,2.084-4.977,2.084-7.78v-4.515c2.751,0.608,5.603,0.938,8.533,0.938c2.93,0,5.782-0.33,8.532-0.937v4.515    C264.537,93.525,265.282,96.189,266.621,98.503z M215.407,121.618L215.407,121.618c0.001-3.253,1.808-6.177,4.717-7.632    l13.023-6.511l11.886,11.886c3.025,3.024,6.998,4.537,10.971,4.537c3.973,0,7.947-1.513,10.972-4.537l11.885-11.886l13.023,6.511    c2.909,1.455,4.716,4.379,4.716,7.632v14.656h-81.193V121.618z M315.499,168.338H196.511l-8.532-17.064h136.052L315.499,168.338z"/>
	</g>
</g>
<g>
	<g>
		<path d="M272.037,200.403h-32.064c-4.142,0-7.5,3.358-7.5,7.5c0,4.142,3.358,7.5,7.5,7.5h32.064c4.142,0,7.5-3.358,7.5-7.5    C279.537,203.761,276.179,200.403,272.037,200.403z"/>
	</g>
</g>
<g>
</g>
<g>
</g>
<g>
</g>
<g>
</g>
<g>
</g>
<g>
</g>
<g>
</g>
<g>
</g>
<g>
</g>
<g>
</g>
<g>
</g>
<g>
</g>
<g>
</g>
<g>
</g>
<g>
</g>
</svg>
