<?xml version="1.0" encoding="iso-8859-1"?>
<!-- Generator: Adobe Illustrator 19.0.0, SVG Export Plug-In . SVG Version: 6.00 Build 0)  -->
<svg xmlns="http://www.w3.org/2000/svg" xmlns:xlink="http://www.w3.org/1999/xlink" version="1.1" id="Layer_1" x="0px" y="0px" viewBox="0 0 512 512" style="enable-background:new 0 0 512 512;" xml:space="preserve">
<g>
	<g>
		<path d="M488.468,56.112H23.532C10.557,56.112,0,66.669,0,79.645v272.548c0,12.976,10.557,23.532,23.532,23.532h16.029    c4.142,0,7.5-3.358,7.5-7.5c0-4.142-3.358-7.5-7.5-7.5H23.532c-4.705,0-8.532-3.828-8.532-8.532V79.645    c0-4.705,3.828-8.532,8.532-8.532h464.936c4.705,0,8.532,3.828,8.532,8.532v272.548c0,4.705-3.828,8.532-8.532,8.532h-16.035    c-4.142,0-7.5,3.358-7.5,7.5c0,4.142,3.358,7.5,7.5,7.5h16.035c12.976,0,23.532-10.557,23.532-23.532V79.645    C512,66.669,501.443,56.112,488.468,56.112z"/>
	</g>
</g>
<g>
	<g>
		<path d="M299.781,371.247l-20.249-8.1v-6.932c9.985-7.423,16.032-19.183,16.032-31.64v-20.393c0-8.448-3.296-16.385-9.28-22.348    c-5.958-5.936-13.86-9.2-22.265-9.2c-0.039,0-0.078,0-0.117,0l-16.032,0.058c-17.333,0.062-31.435,14.214-31.435,31.548v20.335    c0,12.457,6.047,24.217,16.032,31.64v6.932l-20.249,8.1c-12.047,4.818-19.832,16.316-19.832,29.292v23.799v24.048    c0,4.142,3.358,7.5,7.5,7.5c4.142,0,7.5-3.358,7.5-7.5v-24.048c0-9.125,7.423-16.548,16.548-16.548h64.129    c9.125,0,16.548,7.423,16.548,16.548v24.048c0,4.142,3.358,7.5,7.5,7.5c4.142,0,7.5-3.358,7.5-7.5v-24.048v-23.799    C319.613,387.563,311.828,376.065,299.781,371.247z M231.436,324.576v-20.335c0-9.092,7.396-16.516,16.489-16.548l16.032-0.058    c0.021,0,0.041,0,0.061,0c4.409,0,8.554,1.712,11.679,4.826c3.139,3.128,4.868,7.291,4.868,11.723v20.393    c0,8.75-4.6,16.65-12.305,21.135c-2.308,1.343-3.728,3.812-3.728,6.482v8.532h-17.064v-8.532c0-2.67-1.419-5.139-3.728-6.482    C236.036,341.227,231.436,333.326,231.436,324.576z M288.064,392.79h-64.129c-5.928,0-11.478,1.646-16.221,4.501    c1.072-5.426,4.785-10.001,10.075-12.117l23.622-9.449h29.176l23.623,9.45c5.29,2.116,9.003,6.691,10.075,12.117    C299.542,394.437,293.993,392.79,288.064,392.79z"/>
	</g>
</g>
<g>
	<g>
		<path d="M444.072,371.247l-20.249-8.1v-6.932c9.985-7.423,16.032-19.183,16.032-31.64v-20.393c0-8.448-3.296-16.385-9.28-22.348    c-5.958-5.936-13.86-9.2-22.266-9.2c-0.039,0-0.078,0-0.117,0l-16.032,0.058c-17.333,0.062-31.435,14.214-31.435,31.548v20.335    c0,12.458,6.047,24.217,16.033,31.64v6.931l-20.249,8.1c-12.047,4.819-19.832,16.316-19.832,29.292v23.799v24.048    c0,4.142,3.358,7.5,7.5,7.5c4.142,0,7.5-3.358,7.5-7.5v-24.048c0-9.125,7.423-16.548,16.548-16.548h64.129    c9.125,0,16.548,7.423,16.548,16.548v24.048c0,4.142,3.358,7.5,7.5,7.5c4.142,0,7.5-3.358,7.5-7.5v-24.048v-23.798    C463.903,387.563,456.119,376.065,444.072,371.247z M375.726,324.576v-20.335c0-9.092,7.397-16.516,16.489-16.548l16.032-0.058    c0.021,0,0.041,0,0.061,0c4.409,0,8.555,1.712,11.679,4.826c3.139,3.128,4.868,7.291,4.868,11.723v20.393    c0,8.75-4.6,16.65-12.305,21.135c-2.308,1.343-3.728,3.812-3.728,6.482v8.532h-17.064v-8.532c0-2.67-1.419-5.139-3.728-6.482    C380.326,341.227,375.726,333.326,375.726,324.576z M432.355,392.79h-64.129c-5.928,0-11.478,1.646-16.221,4.501    c1.072-5.426,4.785-10.001,10.076-12.117l23.622-9.449h29.175l23.624,9.45c5.29,2.116,9.003,6.691,10.075,12.117    C443.833,394.437,438.283,392.79,432.355,392.79z"/>
	</g>
</g>
<g>
	<g>
		<path d="M155.491,371.247l-20.25-8.1v-6.931c9.985-7.423,16.033-19.183,16.033-31.64v-20.393c0-8.448-3.296-16.385-9.28-22.348    c-5.985-5.963-13.894-9.213-22.382-9.2l-16.032,0.058c-17.333,0.062-31.435,14.214-31.435,31.548v20.335    c0,12.457,6.047,24.217,16.032,31.64v6.932l-20.249,8.1c-12.047,4.819-19.832,16.316-19.832,29.292v23.799v24.048    c0,4.142,3.358,7.5,7.5,7.5c4.142,0,7.5-3.358,7.5-7.5v-24.048c0-9.125,7.423-16.548,16.548-16.548h64.129    c9.125,0,16.548,7.423,16.548,16.548v24.048c0,4.142,3.358,7.5,7.5,7.5c4.142,0,7.5-3.358,7.5-7.5v-24.048v-23.8    C175.323,387.563,167.538,376.065,155.491,371.247z M87.145,324.576v-20.335c0-9.092,7.397-16.516,16.489-16.548l16.032-0.058    c0.021,0,0.041,0,0.061,0c4.409,0,8.555,1.712,11.679,4.826c3.139,3.128,4.868,7.291,4.868,11.723v20.393    c0,8.75-4.6,16.65-12.305,21.135c-2.308,1.343-3.728,3.812-3.728,6.482v8.532h-17.064v-8.532c0-2.67-1.419-5.139-3.728-6.482    C91.745,341.227,87.145,333.326,87.145,324.576z M143.774,392.79H79.645c-5.928,0-11.478,1.646-16.221,4.501    c1.072-5.426,4.785-10.001,10.076-12.117l23.622-9.449h29.175l23.624,9.449c5.29,2.116,9.003,6.691,10.075,12.117    C155.252,394.437,149.703,392.79,143.774,392.79z"/>
	</g>
</g>
<g>
	<g>
		<path d="M256,104.208c-61.597,0-111.709,50.113-111.709,111.71c0,34.623,15.664,66.722,42.976,88.066    c1.371,1.072,2.998,1.591,4.613,1.591c2.229,0,4.436-0.99,5.915-2.882c2.551-3.264,1.973-7.977-1.291-10.527    c-23.648-18.482-37.212-46.273-37.212-76.248c0-53.326,43.384-96.71,96.709-96.71c53.325,0,96.709,43.384,96.709,96.71    c0,29.968-13.558,57.755-37.198,76.237c-3.264,2.551-3.841,7.265-1.29,10.528c2.551,3.263,7.265,3.84,10.528,1.29    c27.301-21.344,42.959-53.439,42.959-88.054C367.709,154.322,317.597,104.208,256,104.208z"/>
	</g>
</g>
<g>
	<g>
		<path d="M305.304,205.227l-70.696-39.277c-3.829-2.128-8.368-2.073-12.144,0.149c-3.775,2.221-6.029,6.163-6.029,10.543v78.553    c0,4.38,2.253,8.32,6.028,10.542c1.933,1.137,4.065,1.707,6.201,1.707c2.036,0,4.074-0.518,5.943-1.556l70.697-39.277    c3.881-2.156,6.292-6.253,6.292-10.692C311.596,211.481,309.185,207.383,305.304,205.227z M231.436,250.492v-69.145l62.229,34.572    L231.436,250.492z"/>
	</g>
</g>
<g>
</g>
<g>
</g>
<g>
</g>
<g>
</g>
<g>
</g>
<g>
</g>
<g>
</g>
<g>
</g>
<g>
</g>
<g>
</g>
<g>
</g>
<g>
</g>
<g>
</g>
<g>
</g>
<g>
</g>
</svg>
