<?xml version="1.0" encoding="iso-8859-1"?>
<!-- Generator: Adobe Illustrator 19.0.0, SVG Export Plug-In . SVG Version: 6.00 Build 0)  -->
<svg xmlns="http://www.w3.org/2000/svg" xmlns:xlink="http://www.w3.org/1999/xlink" version="1.1" id="Layer_1" x="0px" y="0px" viewBox="0 0 512 512" style="enable-background:new 0 0 512 512;" xml:space="preserve">
<g>
	<g>
		<path d="M145.859,436.926l-30.373-15.185c-0.176-0.088-0.286-0.265-0.286-0.462l0.002-15.265    c12.468-8.585,21.293-22.157,23.501-38.085c5.608-9.691,8.563-20.637,8.563-31.767c0-20.755-9.994-39.217-25.419-50.835    c0.904-3.011,1.371-6.118,1.371-9.286c0-19.606-17.749-35.556-39.564-35.556s-39.564,15.95-39.564,35.556    c0,3.173,0.462,6.281,1.366,9.29c-15.422,11.619-25.414,30.079-25.414,50.831c0,11.13,2.957,22.078,8.563,31.767    c2.208,15.928,11.033,29.5,23.501,38.085v15.264c0,0.197-0.109,0.374-0.285,0.462l-30.372,15.186    C10.692,442.304,4.01,453.117,4.01,465.144V504.5c0,4.142,3.358,7.5,7.5,7.5c4.142,0,7.5-3.358,7.5-7.5v-39.356    c0-6.309,3.505-11.98,9.147-14.801l25.052-12.526l22.946,21.806V504.5c0,4.142,3.358,7.5,7.5,7.5c4.142,0,7.5-3.358,7.5-7.5    v-44.878l22.945-21.805l25.052,12.525c5.643,2.821,9.148,8.493,9.148,14.802V504.5c0,4.142,3.358,7.5,7.5,7.5    c4.142,0,7.5-3.358,7.5-7.5v-39.356C163.299,453.117,156.617,442.304,145.859,436.926z M83.654,255.484    c13.544,0,24.564,9.222,24.564,20.556c0,0.475-0.038,0.946-0.076,1.417c-7.542-3.158-15.814-4.908-24.488-4.908    c-8.673,0-16.944,1.75-24.484,4.907c-0.038-0.471-0.08-0.94-0.08-1.416C59.09,264.705,70.11,255.484,83.654,255.484z     M83.654,446.056l-18.371-17.458c1.176-2.204,1.822-4.703,1.822-7.321v-7.981c5.239,1.626,10.795,2.51,16.549,2.51    c5.753,0,11.31-0.884,16.547-2.509l-0.001,7.979c0,2.619,0.646,5.119,1.823,7.324L83.654,446.056z M83.654,400.805    c-20.765,0.001-38.109-15.549-40.343-36.17c-0.12-1.105-0.483-2.169-1.065-3.116c-4.713-7.676-7.205-16.445-7.205-25.358    c0-26.805,21.808-48.613,48.613-48.613s48.613,21.808,48.613,48.613c0,5.168-0.843,10.285-2.466,15.172    c-21.296-21.636-58.759-30.114-60.565-30.512c-2.275-0.502-4.661-0.085-6.447,1.416c-1.764,1.485-2.75,3.532-2.67,5.83    c-0.057,0.728-0.624,5.614-5.816,10.807c-2.929,2.929-2.929,7.677,0,10.606c2.929,2.929,7.678,2.929,10.606,0    c4.218-4.218,6.695-8.499,8.15-12.114c12.62,3.749,38.813,13.217,50.568,29.835C120.291,386.53,103.547,400.805,83.654,400.805z"/>
	</g>
</g>
<g>
	<g>
		<path d="M43.574,474.846c-4.142,0-7.5,3.358-7.5,7.5V504.5c0,4.142,3.358,7.5,7.5,7.5c4.142,0,7.5-3.358,7.5-7.5v-22.154    C51.074,478.204,47.716,474.846,43.574,474.846z"/>
	</g>
</g>
<g>
	<g>
		<path d="M123.735,474.846c-4.142,0-7.5,3.358-7.5,7.5V504.5c0,4.142,3.358,7.5,7.5,7.5c4.142,0,7.5-3.358,7.5-7.5v-22.154    C131.235,478.204,127.877,474.846,123.735,474.846z"/>
	</g>
</g>
<g>
	<g>
		<path d="M344.197,401.979l-84.704-53.902v-84.061c0-4.142-3.358-7.5-7.5-7.5c-4.142,0-7.5,3.358-7.5,7.5v84.061l-84.704,53.902    c-3.495,2.224-4.525,6.859-2.301,10.354c1.43,2.246,3.856,3.474,6.335,3.474c1.377,0,2.771-0.379,4.019-1.174l84.151-53.55    l84.151,53.55c3.495,2.225,8.13,1.194,10.354-2.3C348.722,408.838,347.691,404.203,344.197,401.979z"/>
	</g>
</g>
<g>
	<g>
		<path d="M314.197,164.378l-19.368-9.683c11.357-2.609,19.872-5.859,25.549-8.474c7.443-3.427,10.882-11.864,8-19.623    c-6.591-17.747-11.748-48.822-12.792-63.516C313.031,27.119,285.691,0,251.993,0s-61.038,27.119-63.594,63.081    c-1.044,14.695-6.201,45.769-12.792,63.516c-2.882,7.759,0.557,16.196,8,19.623c5.682,2.617,14.195,5.866,25.547,8.474    l-19.367,9.684c-10.757,5.379-17.439,16.191-17.439,28.218v39.356c0,4.142,3.358,7.5,7.5,7.5c4.142,0,7.5-3.358,7.5-7.5v-39.356    c0-6.308,3.505-11.98,9.147-14.801l25.052-12.526l8.713,8.28c6.093,5.79,13.913,8.686,21.732,8.686    c7.82,0,15.64-2.895,21.733-8.686l8.712-8.28l25.052,12.525c5.643,2.821,9.148,8.493,9.148,14.802v39.356    c0,4.142,3.358,7.5,7.5,7.5c4.142,0,7.5-3.358,7.5-7.5v-39.356C331.637,180.569,324.954,169.756,314.197,164.378z     M220.444,141.677c-14.221-2.478-24.338-6.216-30.563-9.083c-0.407-0.186-0.249-0.677-0.213-0.774    c3.197-8.608,6.039-19.823,8.309-31.025c3.267,13.431,11.419,24.966,22.467,32.609V141.677z M263.392,162.675    c-6.391,6.075-16.406,6.075-22.799,0l-6.971-6.625c1.176-2.204,1.822-4.703,1.822-7.321v-7.987    c5.229,1.634,10.788,2.515,16.548,2.515c5.754,0,11.31-0.885,16.548-2.51l-0.001,7.981c0,2.619,0.646,5.119,1.822,7.324    L263.392,162.675z M251.992,128.257c-22.385,0-40.597-18.212-40.597-40.597c0-4.142-3.358-7.5-7.5-7.5    c-0.842,0-1.649,0.145-2.404,0.401c0.914-6.313,1.555-11.996,1.869-16.418c0.958-13.468,6.341-25.882,15.157-34.951    C227.413,20.04,239.301,15,251.993,15s24.58,5.04,33.476,14.192c8.816,9.07,14.199,21.483,15.156,34.953    c0.337,4.741,1.051,10.935,2.073,17.798c-8.078-13.723-21.189-23.786-38.428-29.325c-15.039-4.832-27.976-4.535-28.518-4.518    c-1.964,0.054-3.828,0.877-5.191,2.291l-13.527,14.028c-2.875,2.982-2.789,7.73,0.193,10.605s7.73,2.788,10.605-0.193    l11.25-11.667c4.151,0.207,12.224,0.987,21.013,3.868c15.434,5.06,26.188,14.115,31.994,26.93    C289.039,113.642,272.123,128.257,251.992,128.257z M283.541,133.474c11.032-7.595,19.199-19.101,22.466-32.683    c2.27,11.203,5.112,22.421,8.31,31.031c0.037,0.095,0.195,0.586-0.213,0.774c-6.218,2.864-16.337,6.602-30.564,9.082    L283.541,133.474z"/>
	</g>
</g>
<g>
	<g>
		<path d="M211.912,202.297c-4.142,0-7.5,3.358-7.5,7.5v22.155c0,4.142,3.358,7.5,7.5,7.5c4.142,0,7.5-3.358,7.5-7.5v-22.155    C219.412,205.655,216.054,202.297,211.912,202.297z"/>
	</g>
</g>
<g>
	<g>
		<path d="M292.074,202.297c-4.142,0-7.5,3.358-7.5,7.5v22.155c0,4.142,3.358,7.5,7.5,7.5c4.142,0,7.5-3.358,7.5-7.5v-22.155    C299.574,205.655,296.216,202.297,292.074,202.297z"/>
	</g>
</g>
<g>
	<g>
		<path d="M447.734,321.437c-17.416-8.708-50.069-8.808-51.451-8.808c-4.141,0-7.498,3.356-7.499,7.498    c-0.001,4.141,3.355,7.5,7.497,7.502c8.437,0.005,32.923,1.313,44.745,7.225c1.077,0.538,2.221,0.793,3.348,0.793    c2.751,0,5.4-1.52,6.714-4.148C452.941,327.794,451.439,323.289,447.734,321.437z"/>
	</g>
</g>
<g>
	<g>
		<path d="M485.111,428.177l-27.045-7.727c-3.644-1.041-6.188-4.415-6.188-8.205l0.001-6.256c2.519-1.745,4.921-3.698,7.167-5.878    c10.886-10.564,16.881-24.735,16.881-39.901v-14.262l2.993-5.986c3.287-6.572,5.023-13.93,5.023-21.279v-38.635    c0-4.142-3.358-7.5-7.5-7.5h-72.145c-26.236,0-47.581,21.345-47.581,47.581v0.447c0,6.11,1.444,12.228,4.177,17.694l3.839,7.678    v12.245c0,19.406,9.563,36.819,24.048,47.298v6.755c0,3.789-2.544,7.163-6.188,8.204l-27.043,7.727    c-13.472,3.849-22.881,16.324-22.881,30.335V504.5c0,4.142,3.358,7.5,7.5,7.5c4.142,0,7.5-3.358,7.5-7.5v-45.989    c0-7.35,4.936-13.893,12.002-15.912l27.042-7.727c2.347-0.671,4.52-1.704,6.486-3.009l4.822,4.823    c6.15,6.15,14.229,9.225,22.308,9.225c8.079,0,16.158-3.075,22.308-9.225l4.821-4.821c1.965,1.305,4.138,2.338,6.485,3.009    l27.045,7.727c7.066,2.019,12.002,8.562,12.002,15.912V504.5c0,4.142,3.358,7.5,7.5,7.5c4.142,0,7.5-3.358,7.5-7.5v-45.989    C507.993,444.499,498.584,432.025,485.111,428.177z M432.034,426.079c-6.453,6.452-16.951,6.452-23.404,0l-6.154-6.154    c0.75-2.152,1.179-4.433,1.27-6.779c4.73,1.556,9.719,2.479,14.882,2.634c0.577,0.017,1.151,0.026,1.726,0.026    c5.704,0,11.272-0.864,16.569-2.512c0.104,2.294,0.529,4.525,1.264,6.632L432.034,426.079z M419.078,400.787    c-21.694-0.651-39.343-19.758-39.343-42.594v-14.016c0-1.164-0.271-2.313-0.792-3.354l-4.63-9.262    c-1.697-3.394-2.594-7.192-2.594-10.986v-0.447c0-17.965,14.616-32.581,32.581-32.581h64.645v31.135    c0,5.031-1.189,10.07-3.439,14.571l-3.785,7.57c-0.521,1.042-0.792,2.19-0.792,3.354v16.032c0,11.075-4.378,21.422-12.328,29.137    C440.656,397.057,430.159,401.119,419.078,400.787z"/>
	</g>
</g>
<g>
	<g>
		<path d="M372.235,464.936c-4.142,0-7.5,3.358-7.5,7.5V504.5c0,4.142,3.358,7.5,7.5,7.5c4.142,0,7.5-3.358,7.5-7.5v-32.064    C379.735,468.293,376.377,464.936,372.235,464.936z"/>
	</g>
</g>
<g>
	<g>
		<path d="M468.428,464.936c-4.142,0-7.5,3.358-7.5,7.5V504.5c0,4.142,3.358,7.5,7.5,7.5c4.142,0,7.5-3.358,7.5-7.5v-32.064    C475.928,468.293,472.57,464.936,468.428,464.936z"/>
	</g>
</g>
<g>
</g>
<g>
</g>
<g>
</g>
<g>
</g>
<g>
</g>
<g>
</g>
<g>
</g>
<g>
</g>
<g>
</g>
<g>
</g>
<g>
</g>
<g>
</g>
<g>
</g>
<g>
</g>
<g>
</g>
</svg>
