<?xml version="1.0" encoding="iso-8859-1"?>
<!-- Generator: Adobe Illustrator 19.0.0, SVG Export Plug-In . SVG Version: 6.00 Build 0)  -->
<svg xmlns="http://www.w3.org/2000/svg" xmlns:xlink="http://www.w3.org/1999/xlink" version="1.1" id="Layer_1" x="0px" y="0px" viewBox="0 0 512 512" style="enable-background:new 0 0 512 512;" xml:space="preserve">
<g>
	<g>
		<path d="M504.5,384.773H255.458c0.006-0.173,0.026-0.342,0.026-0.516v-64.129c0-8.556-6.96-15.516-15.516-15.516h-16.556    c-0.077-11.943-6.739-22.662-17.433-28.009l-30.374-15.186c-0.176-0.088-0.285-0.265-0.285-0.461l0.002-15.265    c12.468-8.585,21.293-22.157,23.501-38.085c5.608-9.691,8.563-20.637,8.563-31.767c0-20.755-9.994-39.217-25.419-50.835    c0.904-3.011,1.371-6.117,1.371-9.286c0-19.606-17.749-35.557-39.564-35.557c-21.816,0-39.565,15.951-39.565,35.557    c0,3.173,0.462,6.28,1.366,9.29c-15.422,11.619-25.414,30.079-25.414,50.832c0,11.13,2.957,22.077,8.564,31.767    c2.208,15.928,11.032,29.5,23.5,38.085v15.265c0,0.196-0.109,0.373-0.285,0.461l-30.373,15.187    c-10.757,5.378-17.439,16.191-17.439,28.217v63.404c0,6.066,1.725,11.734,4.703,16.549H7.5c-4.142,0-7.5,3.358-7.5,7.5    c0,4.142,3.358,7.5,7.5,7.5h8.532v72.661c0,4.142,3.358,7.5,7.5,7.5c4.142,0,7.5-3.358,7.5-7.5v-40.597h449.936v40.597    c0,4.142,3.357,7.5,7.5,7.5s7.5-3.358,7.5-7.5v-72.661h8.532c4.143,0,7.5-3.358,7.5-7.5    C512,388.133,508.643,384.773,504.5,384.773z M239.968,319.612c0.284,0,0.516,0.231,0.516,0.516v64.129    c0,0.285-0.231,0.516-0.516,0.516h-96.193c-0.285,0-0.516-0.231-0.516-0.516v-64.129c0-0.285,0.231-0.516,0.516-0.516H239.968z     M143.774,95.16c13.545,0,24.564,9.222,24.564,20.557c0,0.475-0.038,0.946-0.076,1.416c-7.542-3.158-15.814-4.908-24.488-4.908    c-8.673,0-16.944,1.75-24.485,4.907c-0.038-0.47-0.08-0.94-0.08-1.415C119.209,104.382,130.229,95.16,143.774,95.16z     M103.431,204.312c-0.12-1.105-0.483-2.169-1.065-3.117c-4.714-7.677-7.205-16.445-7.205-25.357    c0-26.806,21.808-48.613,48.613-48.613s48.613,21.808,48.613,48.613c0,5.167-0.843,10.285-2.466,15.172    c-21.296-21.635-58.759-30.114-60.566-30.512c-2.276-0.501-4.662-0.085-6.447,1.417c-1.764,1.484-2.75,3.532-2.67,5.83    c-0.057,0.728-0.624,5.614-5.816,10.807c-2.929,2.929-2.929,7.678,0,10.606c2.929,2.929,7.678,2.929,10.606,0    c4.218-4.218,6.696-8.499,8.15-12.114c12.62,3.749,38.814,13.217,50.569,29.835c-3.336,19.329-20.08,33.604-39.973,33.604    C123.008,240.483,105.665,224.933,103.431,204.312z M162.142,268.278l-6.969,6.623c-6.391,6.074-16.406,6.074-22.799,0    l-6.971-6.625c1.176-2.204,1.822-4.703,1.822-7.321v-7.982c5.238,1.626,10.795,2.51,16.549,2.51c5.753,0,11.31-0.884,16.547-2.509    l-0.001,7.98C160.32,263.573,160.966,266.073,162.142,268.278z M79.129,304.821c0-6.308,3.505-11.979,9.147-14.801l25.052-12.526    l8.713,8.281c6.093,5.791,13.913,8.686,21.732,8.686c7.82,0,15.64-2.895,21.733-8.686l8.712-8.279l25.052,12.525    c5.58,2.789,9.064,8.368,9.141,14.592h-64.638c-8.556,0-15.516,6.96-15.516,15.516v32.581h-17.065v-30.687    c0-4.142-3.358-7.5-7.5-7.5c-4.142,0-7.5,3.358-7.5,7.5v38.187c0,4.142,3.358,7.5,7.5,7.5h24.565v16.549    c0,0.174,0.02,0.343,0.026,0.516H95.677c-9.125-0.002-16.548-7.425-16.548-16.55V304.821z M480.968,416.838H31.032v-17.064    h449.936V416.838z"/>
	</g>
</g>
<g>
	<g>
		<path d="M199.887,344.692h-16.032c-4.142,0-7.5,3.358-7.5,7.5c0,4.142,3.358,7.5,7.5,7.5h16.032c4.142,0,7.5-3.358,7.5-7.5    C207.387,348.05,204.029,344.692,199.887,344.692z"/>
	</g>
</g>
<g>
	<g>
		<path d="M464.421,32.064H272.032c-17.396,0-31.548,14.152-31.548,31.548V191.87c0,17.396,14.152,31.548,31.548,31.548h14.443    l-11.028,44.108c-1.188,4.751,0.668,9.592,4.729,12.331c1.972,1.33,4.208,1.993,6.44,1.993c2.365,0,4.727-0.744,6.765-2.226    l77.283-56.206h93.757c17.396,0,31.549-14.152,31.549-31.548V63.612C495.97,46.216,481.818,32.064,464.421,32.064z M480.97,191.87    c0,9.125-7.424,16.548-16.549,16.548h-96.195c-1.585,0-3.129,0.502-4.411,1.435l-71.483,51.988l11.026-44.103    c0.56-2.241,0.057-4.614-1.365-6.435c-1.421-1.82-3.602-2.884-5.911-2.884h-24.049c-9.125,0-16.548-7.423-16.548-16.548V63.612    h-0.001c0-9.125,7.423-16.548,16.548-16.548h192.389c9.125,0,16.549,7.423,16.549,16.548V191.87z"/>
	</g>
</g>
<g>
	<g>
		<path d="M320.126,80.161h-24.045c-4.143,0-7.5,3.358-7.5,7.5c0,4.142,3.357,7.5,7.5,7.5h24.045c4.143,0,7.5-3.358,7.5-7.5    C327.626,83.519,324.269,80.161,320.126,80.161z"/>
	</g>
</g>
<g>
	<g>
		<path d="M440.373,80.161h-88.178c-4.143,0-7.5,3.358-7.5,7.5c0,4.142,3.358,7.5,7.5,7.5h88.178c4.143,0,7.5-3.358,7.5-7.5    C447.873,83.519,444.516,80.161,440.373,80.161z"/>
	</g>
</g>
<g>
	<g>
		<path d="M440.373,120.241H296.081c-4.143,0-7.5,3.358-7.5,7.5c0,4.142,3.357,7.5,7.5,7.5h144.292c4.143,0,7.5-3.358,7.5-7.5    C447.873,123.599,444.516,120.241,440.373,120.241z"/>
	</g>
</g>
<g>
	<g>
		<path d="M384.258,160.322h-88.177c-4.143,0-7.5,3.358-7.5,7.5c0,4.142,3.357,7.5,7.5,7.5h88.177c4.143,0,7.5-3.358,7.5-7.5    C391.758,163.68,388.401,160.322,384.258,160.322z"/>
	</g>
</g>
<g>
	<g>
		<path d="M440.373,160.322h-24.046c-4.143,0-7.5,3.358-7.5,7.5c0,4.142,3.357,7.5,7.5,7.5h24.046c4.143,0,7.5-3.358,7.5-7.5    C447.873,163.68,444.516,160.322,440.373,160.322z"/>
	</g>
</g>
<g>
</g>
<g>
</g>
<g>
</g>
<g>
</g>
<g>
</g>
<g>
</g>
<g>
</g>
<g>
</g>
<g>
</g>
<g>
</g>
<g>
</g>
<g>
</g>
<g>
</g>
<g>
</g>
<g>
</g>
</svg>
