<?xml version="1.0" encoding="iso-8859-1"?>
<!-- Generator: Adobe Illustrator 19.0.0, SVG Export Plug-In . SVG Version: 6.00 Build 0)  -->
<svg xmlns="http://www.w3.org/2000/svg" xmlns:xlink="http://www.w3.org/1999/xlink" version="1.1" id="Layer_1" x="0px" y="0px" viewBox="0 0 512 512" style="enable-background:new 0 0 512 512;" xml:space="preserve">
<g>
	<g>
		<path d="M403.645,125.044c-17.416-8.708-50.07-8.808-51.451-8.808c-4.142,0-7.5,3.358-7.5,7.5c0,4.142,3.358,7.5,7.5,7.5    c8.426,0,32.889,1.298,44.743,7.224c1.077,0.539,2.221,0.793,3.348,0.793c2.751,0,5.4-1.52,6.714-4.147    C408.852,131.401,407.35,126.896,403.645,125.044z"/>
	</g>
</g>
<g>
	<g>
		<path d="M504.5,348.704h-45.3c2.979-4.814,4.703-10.483,4.703-16.548v-70.038c0-14.011-9.41-26.485-22.882-30.334l-27.045-7.727    c-3.644-1.041-6.188-4.415-6.187-8.205l0.001-6.256c2.519-1.745,4.921-3.698,7.167-5.878    c10.886-10.564,16.881-24.735,16.881-39.901v-14.262l2.993-5.986c3.287-6.572,5.023-13.931,5.023-21.279V83.655    c0-4.142-3.358-7.5-7.5-7.5h-72.146c-26.236,0-47.581,21.345-47.581,47.581v0.447c0,6.109,1.444,12.228,4.177,17.694l3.839,7.678    V161.8c0,19.406,9.563,36.819,24.048,47.298v6.755c0,3.789-2.545,7.163-6.188,8.204l-27.043,7.727    c-13.472,3.849-22.881,16.324-22.881,30.335v6.424h-0.516c-8.556,0-15.516,6.96-15.516,15.516v64.129    c0,0.174,0.02,0.343,0.026,0.516h-37.826c2.979-4.814,4.703-10.483,4.703-16.548v-70.038c0-14.011-9.41-26.485-22.882-30.334    l-27.045-7.727c-0.293-0.083-0.57-0.198-0.849-0.311c12.832-2.501,23.292-5.777,30.002-8.175c3.903-1.395,7.028-4.23,8.797-7.986    c1.753-3.721,1.953-7.889,0.562-11.737c-6.611-18.28-11.597-48.876-12.654-63.936c-2.552-36.358-29.891-63.775-63.591-63.774    c-33.702,0-61.042,27.417-63.594,63.774c-1.058,15.058-6.043,45.654-12.655,63.936c-1.391,3.847-1.191,8.015,0.562,11.736    c1.77,3.755,4.893,6.592,8.796,7.986c6.71,2.398,17.172,5.674,30.006,8.176c-0.279,0.112-0.559,0.225-0.853,0.309l-27.043,7.727    c-13.472,3.849-22.881,16.323-22.881,30.334v70.038c0,6.065,1.725,11.734,4.703,16.548H7.5c-4.142,0-7.5,3.358-7.5,7.5    c0,4.142,3.358,7.5,7.5,7.5h8.532v72.661c0,4.142,3.358,7.5,7.5,7.5c4.142,0,7.5-3.358,7.5-7.5v-40.597h65.161v40.597    c0,4.142,3.358,7.5,7.5,7.5c4.142,0,7.5-3.358,7.5-7.5v-24.564h81.194v24.564c0,4.142,3.358,7.5,7.5,7.5    c4.142,0,7.5-3.358,7.5-7.5v-40.597h273.581v40.597c0,4.142,3.358,7.5,7.5,7.5c4.142,0,7.5-3.358,7.5-7.5v-72.661h8.532    c4.142,0,7.5-3.358,7.5-7.5C512,352.059,508.642,348.704,504.5,348.704z M335.645,161.8v-14.016c0-1.165-0.271-2.313-0.792-3.354    l-4.63-9.262c-1.697-3.394-2.594-7.192-2.594-10.986v-0.447c0-17.965,14.616-32.581,32.581-32.581h64.646v31.135    c0,5.032-1.189,10.07-3.439,14.571l-3.785,7.569c-0.521,1.042-0.792,2.189-0.792,3.354v16.032    c0,11.075-4.378,21.422-12.328,29.137c-7.946,7.711-18.44,11.773-29.523,11.441C353.294,203.744,335.645,184.635,335.645,161.8z     M394.096,223.533l-6.153,6.153c-3.125,3.125-7.281,4.847-11.702,4.847c-4.42,0-8.576-1.722-11.701-4.847l-6.154-6.154    c0.75-2.152,1.178-4.433,1.27-6.778c4.73,1.556,9.719,2.479,14.882,2.634c0.577,0.018,1.151,0.026,1.726,0.026    c5.704,0,11.272-0.864,16.57-2.512C392.936,219.195,393.362,221.426,394.096,223.533z M303.58,262.118L303.58,262.118    c0.001-7.35,4.937-13.893,12.003-15.912l27.044-7.727c2.347-0.671,4.519-1.704,6.485-3.009l4.822,4.822    c5.958,5.959,13.881,9.241,22.308,9.241s16.35-3.282,22.308-9.241l4.821-4.821c1.965,1.305,4.138,2.338,6.485,3.008l27.044,7.727    c7.067,2.019,12.003,8.562,12.003,15.912v70.038c0,9.125-7.423,16.548-16.548,16.548h-32.607c0.006-0.173,0.026-0.342,0.026-0.516    V331.64h24.564c4.142,0,7.5-3.358,7.5-7.5v-48.097c0-4.142-3.358-7.5-7.5-7.5c-4.142,0-7.5,3.358-7.5,7.5v40.597h-17.064v-32.581    c0-8.556-6.96-15.516-15.516-15.516H303.58V262.118z M287.548,284.059c0-0.285,0.231-0.516,0.516-0.516h96.194    c0.285,0,0.516,0.231,0.516,0.516v64.129c0,0.285-0.231,0.516-0.516,0.516h-96.194c-0.285,0-0.516-0.231-0.516-0.516V284.059z     M89.948,201.447c-0.154-0.055-0.234-0.168-0.275-0.254c-0.063-0.135-0.036-0.209-0.024-0.242    c7.075-19.564,12.393-52.055,13.511-67.986c0.96-13.67,6.354-26.266,15.187-35.465c9.021-9.395,20.586-14.36,33.445-14.36    c12.856,0,24.419,4.965,33.44,14.36c8.833,9.199,14.227,21.794,15.187,35.465c1.119,15.933,6.437,48.424,13.511,67.986    c0.012,0.032,0.039,0.107-0.025,0.242c-0.04,0.085-0.121,0.199-0.274,0.254c-11.479,4.102-34.777,10.982-61.843,10.982    C124.721,212.429,101.426,205.548,89.948,201.447z M96.193,380.768H31.032v-17.064h65.161V380.768z M111.193,396.8V292.075    c0-4.705,3.828-8.532,8.532-8.532h64.129c4.705,0,8.532,3.828,8.532,8.532V396.8H111.193z M183.855,268.543h-64.129    c-12.976,0-23.532,10.557-23.532,23.532v56.629h-0.516c-9.125,0-16.548-7.423-16.548-16.548v-70.038    c0-7.35,4.936-13.893,12.002-15.912l27.043-7.727c6.464-1.847,11.675-6.254,14.574-12.059c6.072,0.632,12.449,1.009,19.04,1.009    c6.603,0,12.991-0.379,19.074-1.013c2.915,5.774,8.14,10.234,14.543,12.064l27.044,7.727c7.067,2.019,12.003,8.562,12.003,15.912    v70.038c0,9.125-7.423,16.548-16.548,16.548h-0.516v-56.629C207.387,279.099,196.831,268.543,183.855,268.543z M207.387,380.768    v-17.064h0.516h273.064v17.064H207.387z"/>
	</g>
</g>
<g>
	<g>
		<circle cx="336" cy="316.002" r="7.5"/>
	</g>
</g>
<g>
</g>
<g>
</g>
<g>
</g>
<g>
</g>
<g>
</g>
<g>
</g>
<g>
</g>
<g>
</g>
<g>
</g>
<g>
</g>
<g>
</g>
<g>
</g>
<g>
</g>
<g>
</g>
<g>
</g>
</svg>
