<?xml version="1.0" encoding="iso-8859-1"?>
<!-- Generator: Adobe Illustrator 19.0.0, SVG Export Plug-In . SVG Version: 6.00 Build 0)  -->
<svg xmlns="http://www.w3.org/2000/svg" xmlns:xlink="http://www.w3.org/1999/xlink" version="1.1" id="Layer_1" x="0px" y="0px" viewBox="0 0 512 512" style="enable-background:new 0 0 512 512;" xml:space="preserve">
<g>
	<g>
		<path d="M496.484,208.419h-21.316c-0.248,0-0.412-0.239-0.464-0.478c-5.66-25.886-15.776-50.319-30.067-72.62    c-0.121-0.188-0.194-0.475-0.004-0.666l15.06-15.06c6.049-6.049,6.05-15.893,0-21.943l-45.346-45.346    c-6.05-6.05-15.893-6.049-21.943,0l-15.06,15.061c-0.191,0.189-0.478,0.117-0.665-0.003    c-22.302-14.292-46.735-24.408-72.621-30.068c-0.237-0.052-0.477-0.215-0.477-0.463V15.516C303.581,6.96,296.62,0,288.064,0    h-64.129c-8.556,0-15.516,6.96-15.516,15.516v21.316c0,0.248-0.239,0.412-0.478,0.464c-25.885,5.66-50.318,15.776-72.62,30.067    c-0.188,0.122-0.474,0.194-0.666,0.004l-15.06-15.061c-6.05-6.05-15.893-6.049-21.943,0L52.307,97.654    c-6.049,6.05-6.049,15.894,0,21.943l15.06,15.06c0.19,0.19,0.117,0.478-0.003,0.666c-14.292,22.301-24.408,46.734-30.068,72.621    c-0.052,0.237-0.215,0.477-0.463,0.477H15.516C6.96,208.419,0,215.38,0,223.936v64.129c0,8.556,6.96,15.516,15.516,15.516h21.316    c0.248,0,0.412,0.239,0.464,0.478c5.66,25.886,15.776,50.319,30.067,72.62c0.121,0.188,0.194,0.475,0.004,0.666l-15.06,15.06    c-6.05,6.05-6.05,15.893,0,21.943l45.346,45.346c6.051,6.051,15.894,6.05,21.943,0l15.06-15.06c0.19-0.19,0.477-0.117,0.666,0.003    c22.301,14.292,46.734,24.408,72.621,30.068c0.237,0.052,0.477,0.215,0.477,0.463v21.316c0,8.556,6.96,15.516,15.516,15.516    h64.129c8.556,0,15.516-6.96,15.516-15.516v-21.316c0-0.248,0.239-0.412,0.478-0.464c25.886-5.66,50.319-15.776,72.62-30.067    c0.189-0.121,0.476-0.193,0.666-0.004l15.06,15.06c6.051,6.051,15.894,6.05,21.943,0l45.346-45.346    c6.05-6.05,6.05-15.893,0-21.943l-15.06-15.06c-0.19-0.19-0.117-0.478,0.003-0.666c14.292-22.301,24.408-46.734,30.068-72.621    c0.052-0.237,0.215-0.477,0.463-0.477h21.316c8.556,0,15.516-6.96,15.516-15.516v-64.129    C512,215.38,505.04,208.419,496.484,208.419z M496.484,288.58h-21.316c-7.322,0-13.538,5.047-15.117,12.273    c-5.279,24.143-14.714,46.931-28.044,67.731c-3.988,6.224-3.158,14.188,2.02,19.365l15.06,15.06c0.201,0.201,0.201,0.529,0,0.73    l-45.346,45.346c-0.201,0.201-0.529,0.202-0.73,0l-15.06-15.06c-5.178-5.178-13.141-6.008-19.365-2.019    c-20.8,13.329-43.588,22.764-67.73,28.043c-7.227,1.58-12.274,7.796-12.274,15.118v21.316c0,0.285-0.231,0.516-0.516,0.516    h-64.129c-0.285,0-0.516-0.231-0.516-0.516v-21.316c0-7.322-5.047-13.538-12.273-15.117    c-24.143-5.279-46.931-14.714-67.731-28.044c-2.63-1.686-5.571-2.51-8.481-2.51c-3.976,0-7.895,1.541-10.884,4.53l-15.06,15.06    c-0.202,0.201-0.53,0.201-0.73,0L62.914,403.74c-0.201-0.201-0.201-0.529,0-0.73l15.06-15.06    c5.178-5.177,6.008-13.141,2.019-19.365c-13.329-20.8-22.764-43.588-28.043-67.73c-1.58-7.227-7.796-12.274-15.118-12.274H15.516    c-0.285,0-0.516-0.231-0.516-0.516v-64.129c0-0.285,0.231-0.516,0.516-0.516h21.316c7.322,0,13.538-5.047,15.117-12.273    c5.279-24.143,14.714-46.931,28.044-67.731c3.988-6.224,3.158-14.188-2.02-19.365l-15.06-15.06c-0.201-0.201-0.201-0.529,0-0.73    l45.346-45.346c0.201-0.201,0.528-0.201,0.73,0l15.06,15.061c5.177,5.177,13.141,6.008,19.365,2.019    c20.8-13.329,43.588-22.764,67.73-28.043c7.227-1.58,12.274-7.796,12.274-15.118V15.516c0-0.285,0.231-0.516,0.516-0.516h64.129    c0.285,0,0.516,0.231,0.516,0.516v21.316c0,7.322,5.047,13.538,12.273,15.117c24.143,5.279,46.931,14.714,67.731,28.044    c6.224,3.988,14.188,3.158,19.365-2.02l15.06-15.061c0.201-0.202,0.529-0.201,0.73,0l45.346,45.346    c0.202,0.202,0.202,0.53,0,0.731l-15.06,15.06c-5.178,5.177-6.008,13.141-2.019,19.365c13.329,20.8,22.764,43.588,28.043,67.73    c1.58,7.227,7.796,12.274,15.118,12.274h21.316c0.285,0,0.516,0.231,0.516,0.516v64.13H497    C497,288.349,496.769,288.58,496.484,288.58z"/>
	</g>
</g>
<g>
	<g>
		<path d="M356.49,131.727c-30.505-24.726-68.995-37.278-108.385-35.339C208.434,98.338,171.107,114.893,143,143    c-28.108,28.108-44.662,65.437-46.612,105.108c-1.936,39.39,10.616,77.882,35.344,108.387c1.482,1.829,3.647,2.778,5.831,2.778    c1.659,0,3.33-0.548,4.718-1.674c3.218-2.608,3.712-7.331,1.104-10.549c-22.4-27.633-33.77-62.509-32.015-98.205    c1.767-35.945,16.767-69.768,42.237-95.238c25.469-25.469,59.291-40.469,95.235-42.237c35.7-1.758,70.57,9.613,98.203,32.01    c3.219,2.608,7.941,2.114,10.549-1.104C360.202,139.058,359.708,134.335,356.49,131.727z"/>
	</g>
</g>
<g>
	<g>
		<path d="M380.273,155.511c-2.608-3.219-7.331-3.713-10.548-1.105c-3.218,2.608-3.712,7.332-1.104,10.549    c22.397,27.633,33.766,62.509,32.01,98.204c-1.768,35.944-16.768,69.766-42.237,95.235c-4.645,4.645-9.57,8.937-14.733,12.868    v-41.01c0-14.012-9.409-26.486-22.882-30.334l-27.044-7.727c-3.644-1.041-6.189-4.415-6.188-8.205l0.001-6.256    c2.519-1.745,4.921-3.698,7.168-5.878c10.886-10.564,16.881-24.734,16.881-39.901V217.69l2.993-5.986    c3.287-6.572,5.023-13.931,5.023-21.279V151.79c0-4.142-3.358-7.5-7.5-7.5h-72.145c-26.236,0-47.581,21.345-47.581,47.581v0.447    c0,6.111,1.444,12.229,4.177,17.693l3.839,7.679v12.245c0,19.407,9.563,36.82,24.048,47.298v6.754    c0,3.789-2.544,7.163-6.188,8.204l-27.043,7.727c-13.472,3.849-22.881,16.323-22.881,30.335v41.017    c-1.14-0.869-2.272-1.749-3.389-2.654c-3.217-2.607-7.94-2.114-10.549,1.104c-2.608,3.217-2.114,7.94,1.104,10.549    c28.457,23.068,63.86,35.54,100.463,35.539c2.634,0,5.279-0.065,7.924-0.195c39.672-1.95,77-18.504,105.108-46.612    c28.107-28.107,44.662-65.434,46.612-105.104C417.549,224.509,404.999,186.017,380.273,155.511z M215.403,229.935v-14.016    c0-1.164-0.271-2.313-0.792-3.354l-4.631-9.263c-1.697-3.393-2.593-7.191-2.593-10.985v-0.447    c0-17.965,14.616-32.581,32.581-32.581h64.645v31.135c0,5.032-1.189,10.07-3.439,14.571l-3.785,7.569    c-0.521,1.042-0.792,2.189-0.792,3.354v16.032c0,11.075-4.378,21.422-12.327,29.137c-7.946,7.711-18.426,11.773-29.524,11.441    C233.052,271.878,215.403,252.771,215.403,229.935z M273.855,291.668l-6.153,6.153c-3.125,3.125-7.281,4.847-11.702,4.847    c-4.421,0-8.576-1.722-11.702-4.847l-6.154-6.154c0.75-2.152,1.178-4.433,1.27-6.778c4.73,1.556,9.719,2.479,14.881,2.633    c0.577,0.018,1.151,0.026,1.726,0.026c5.704,0,11.272-0.864,16.57-2.512C272.695,287.33,273.12,289.561,273.855,291.668z     M328.661,381.273c-5.502,3.195-11.2,6.025-17.064,8.463v-45.557c0-4.142-3.358-7.5-7.5-7.5c-4.142,0-7.5,3.358-7.5,7.5v50.838    c-10.8,3.147-22.012,5.052-33.441,5.614c-2.401,0.118-4.792,0.177-7.184,0.177c-13.839,0-27.486-1.975-40.568-5.785v-50.845    c0-4.142-3.358-7.5-7.5-7.5c-4.142,0-7.5,3.358-7.5,7.5v45.562c-5.856-2.433-11.557-5.252-17.064-8.45v-51.036    c0-7.35,4.936-13.893,12.002-15.912l27.042-7.727c2.347-0.671,4.52-1.704,6.486-3.009l4.822,4.822    c6.15,6.15,14.229,9.226,22.308,9.226s16.158-3.075,22.308-9.226l4.821-4.821c1.965,1.305,4.138,2.338,6.485,3.009l27.045,7.727    c7.066,2.019,12.002,8.562,12.002,15.912V381.273z"/>
	</g>
</g>
<g>
	<g>
		<path d="M283.402,193.179c-17.416-8.708-50.069-8.808-51.451-8.808c-4.141,0-7.498,3.356-7.499,7.498    c-0.001,4.141,3.355,7.5,7.497,7.502c8.438,0.005,32.923,1.314,44.745,7.224c1.077,0.539,2.221,0.793,3.348,0.793    c2.751,0,5.4-1.52,6.714-4.147C288.609,199.536,287.107,195.031,283.402,193.179z"/>
	</g>
</g>
<g>
</g>
<g>
</g>
<g>
</g>
<g>
</g>
<g>
</g>
<g>
</g>
<g>
</g>
<g>
</g>
<g>
</g>
<g>
</g>
<g>
</g>
<g>
</g>
<g>
</g>
<g>
</g>
<g>
</g>
</svg>
