<?xml version="1.0" encoding="iso-8859-1"?>
<!-- Generator: Adobe Illustrator 19.0.0, SVG Export Plug-In . SVG Version: 6.00 Build 0)  -->
<svg xmlns="http://www.w3.org/2000/svg" xmlns:xlink="http://www.w3.org/1999/xlink" version="1.1" id="Layer_1" x="0px" y="0px" viewBox="0 0 512 512" style="enable-background:new 0 0 512 512;" xml:space="preserve">
<g>
	<g>
		<path d="M287.411,48.888c-17.416-8.708-50.07-8.808-51.451-8.808c-4.142,0-7.5,3.358-7.5,7.5c0,4.142,3.358,7.5,7.5,7.5    c8.426,0.001,32.89,1.298,44.743,7.225c1.077,0.538,2.221,0.793,3.348,0.793c2.751,0,5.4-1.52,6.714-4.148    C292.618,55.245,291.116,50.74,287.411,48.888z"/>
	</g>
</g>
<g>
	<g>
		<path d="M324.788,155.627l-27.045-7.727c-3.644-1.041-6.188-4.415-6.188-8.205l0.001-6.256c2.519-1.745,4.921-3.698,7.168-5.878    c10.886-10.564,16.881-24.735,16.881-39.901V73.4l2.993-5.986c3.287-6.572,5.023-13.93,5.023-21.279V7.5    c0-4.142-3.358-7.5-7.5-7.5h-72.146c-26.236,0-47.581,21.344-47.581,47.581v0.447c0,6.11,1.444,12.229,4.177,17.694l3.839,7.679    v12.245c0,19.406,9.563,36.819,24.048,47.298v10.832c0,1.389-0.933,2.625-2.268,3.007l-30.963,8.847    c-13.473,3.849-22.882,16.323-22.882,30.335v45.989c0.002,4.14,3.36,7.498,7.502,7.498c4.142,0,7.5-3.358,7.5-7.5v-45.989    c0-7.35,4.936-13.893,12.003-15.912l30.963-8.847c1.117-0.319,2.178-0.752,3.189-1.266l19.007,19.007v53.006    c0,4.142,3.358,7.5,7.5,7.5c4.142,0,7.5-3.358,7.5-7.5v-53.007l19.629-19.629c1.965,1.305,4.138,2.338,6.485,3.008l27.044,7.727    c7.067,2.019,12.003,8.562,12.003,15.912v45.989c0,4.142,3.358,7.5,7.5,7.5c4.142,0,7.5-3.358,7.5-7.5v-45.989    C347.67,171.951,338.261,159.476,324.788,155.627z M260.009,165.232l-17.09-17.09c0.353-1.408,0.541-2.873,0.541-4.368v-3.164    c4.719,1.549,9.695,2.468,14.844,2.622c0.577,0.017,1.151,0.026,1.725,0.026c5.704,0,11.272-0.864,16.57-2.512    c0.104,2.294,0.529,4.525,1.264,6.632L260.009,165.232z M258.755,128.238c-21.695-0.65-39.344-19.758-39.344-42.593V71.629    c0-1.164-0.271-2.313-0.792-3.354l-4.631-9.262c-1.696-3.393-2.593-7.192-2.593-10.986V47.58    c0-17.965,14.616-32.581,32.581-32.581h64.646v31.135c0,5.031-1.189,10.07-3.44,14.571l-3.784,7.57    c-0.521,1.042-0.792,2.19-0.792,3.354v16.032c0,11.074-4.378,21.422-12.327,29.136    C280.333,124.508,269.847,128.568,258.755,128.238z"/>
	</g>
</g>
<g>
	<g>
		<path d="M211.911,192.387c-4.142,0-7.5,3.358-7.5,7.5v32.064c0,4.142,3.358,7.5,7.5,7.5c4.142,0,7.5-3.358,7.5-7.5v-32.064    C219.411,195.745,216.053,192.387,211.911,192.387z"/>
	</g>
</g>
<g>
	<g>
		<path d="M308.105,192.387c-4.142,0-7.5,3.358-7.5,7.5v32.064c0,4.142,3.358,7.5,7.5,7.5c4.142,0,7.5-3.358,7.5-7.5v-32.064    C315.605,195.745,312.247,192.387,308.105,192.387z"/>
	</g>
</g>
<g>
	<g>
		<path d="M119.072,321.437c-17.416-8.708-50.069-8.808-51.451-8.808c-4.141,0-7.498,3.356-7.499,7.498    c-0.001,4.141,3.355,7.5,7.497,7.502c8.437,0.005,32.923,1.313,44.745,7.225c1.077,0.538,2.221,0.793,3.348,0.793    c2.751,0,5.4-1.52,6.714-4.148C124.279,327.794,122.777,323.289,119.072,321.437z"/>
	</g>
</g>
<g>
	<g>
		<path d="M156.449,428.177l-30.965-8.846c-1.336-0.382-2.269-1.619-2.269-3.008l0.002-10.333c2.519-1.745,4.921-3.698,7.167-5.878    c10.886-10.564,16.881-24.735,16.881-39.901v-14.262l2.993-5.986c3.287-6.572,5.023-13.93,5.023-21.279v-38.635    c0-4.142-3.358-7.5-7.5-7.5H75.637c-26.236,0-47.581,21.345-47.581,47.581v0.447c0,6.111,1.444,12.229,4.177,17.694l3.839,7.678    v12.245c0,19.406,9.563,36.819,24.048,47.298v10.831c0,1.389-0.933,2.625-2.269,3.007l-30.963,8.847    c-13.471,3.849-22.88,16.323-22.88,30.334V504.5c0,4.142,3.358,7.5,7.5,7.5c4.142,0,7.5-3.358,7.5-7.5v-45.989    c0-7.35,4.936-13.893,12.002-15.912l30.963-8.847c1.117-0.319,2.178-0.752,3.189-1.266l19.007,19.007V504.5    c0,4.142,3.358,7.5,7.5,7.5c4.142,0,7.5-3.358,7.5-7.5v-53.006l19.006-19.006c1.01,0.513,2.072,0.946,3.189,1.265l30.965,8.846    c7.066,2.019,12.002,8.562,12.002,15.912V504.5c0,4.142,3.358,7.5,7.5,7.5c4.142,0,7.5-3.358,7.5-7.5v-45.989    C179.331,444.499,169.921,432.025,156.449,428.177z M91.67,437.781l-17.09-17.09c0.353-1.408,0.541-2.873,0.541-4.368v-3.164    c4.719,1.548,9.695,2.467,14.844,2.622c0.577,0.017,1.151,0.026,1.726,0.026c5.688,0,11.241-0.859,16.526-2.498l-0.001,3.011    c0,1.497,0.188,2.963,0.542,4.373L91.67,437.781z M119.939,389.346c-7.945,7.711-18.438,11.777-29.523,11.441    c-21.694-0.651-39.343-19.758-39.343-42.594v-14.016c0-1.165-0.271-2.313-0.792-3.354l-4.631-9.262    c-1.697-3.393-2.593-7.192-2.593-10.986v-0.447c0-17.965,14.616-32.581,32.581-32.581h64.645v31.135    c0,5.031-1.189,10.07-3.439,14.571l-3.785,7.57c-0.521,1.042-0.792,2.19-0.792,3.354v16.032    C132.267,371.284,127.889,381.631,119.939,389.346z"/>
	</g>
</g>
<g>
	<g>
		<path d="M43.573,464.936c-4.142,0-7.5,3.358-7.5,7.5V504.5c0,4.142,3.358,7.5,7.5,7.5c4.142,0,7.5-3.358,7.5-7.5v-32.064    C51.073,468.293,47.715,464.936,43.573,464.936z"/>
	</g>
</g>
<g>
	<g>
		<path d="M139.766,464.936c-4.142,0-7.5,3.358-7.5,7.5V504.5c0,4.142,3.358,7.5,7.5,7.5c4.142,0,7.5-3.358,7.5-7.5v-32.064    C147.266,468.293,143.908,464.936,139.766,464.936z"/>
	</g>
</g>
<g>
	<g>
		<path d="M490.552,436.926l-30.373-15.185c-0.176-0.088-0.286-0.265-0.286-0.462l0.002-15.265    c12.468-8.585,21.293-22.157,23.501-38.085c5.607-9.69,8.563-20.637,8.563-31.767c0-20.755-9.994-39.217-25.419-50.835    c0.904-3.011,1.371-6.118,1.371-9.286c0-19.606-17.749-35.556-39.564-35.556s-39.564,15.95-39.564,35.556    c0,3.173,0.462,6.28,1.366,9.29c-15.422,11.619-25.414,30.079-25.414,50.832c0,11.13,2.956,22.076,8.563,31.767    c2.208,15.928,11.033,29.5,23.501,38.085v15.265c0,0.197-0.109,0.374-0.285,0.462l-30.372,15.186    c-10.757,5.379-17.439,16.191-17.439,28.218V504.5c0,4.142,3.358,7.5,7.5,7.5c4.142,0,7.5-3.358,7.5-7.5v-39.356    c0-6.309,3.505-11.98,9.147-14.801l25.052-12.526l8.713,8.28c6.094,5.792,13.912,8.686,21.732,8.686    c7.819,0,15.64-2.896,21.733-8.686l8.712-8.279l25.052,12.525c5.643,2.821,9.148,8.493,9.148,14.802V504.5    c0,4.142,3.358,7.5,7.5,7.5c4.142,0,7.5-3.358,7.5-7.5v-39.356C507.992,453.117,501.309,442.304,490.552,436.926z     M428.346,255.484c13.544,0,24.564,9.222,24.564,20.556c0,0.475-0.038,0.946-0.076,1.417c-7.542-3.158-15.814-4.908-24.488-4.908    c-8.673,0-16.943,1.75-24.484,4.907c-0.038-0.471-0.08-0.941-0.08-1.416C403.782,264.705,414.802,255.484,428.346,255.484z     M439.746,435.224c-6.391,6.074-16.405,6.075-22.799-0.001l-6.971-6.625c1.176-2.204,1.822-4.703,1.822-7.321v-7.981    c5.238,1.625,10.794,2.51,16.548,2.51c5.753,0,11.31-0.884,16.547-2.509l-0.001,7.981c0,2.618,0.646,5.118,1.823,7.323    L439.746,435.224z M428.345,400.805c-20.764,0.001-38.108-15.549-40.342-36.17c-0.12-1.105-0.483-2.169-1.065-3.116    c-4.713-7.677-7.205-16.446-7.205-25.358c0-26.805,21.808-48.613,48.613-48.613s48.613,21.808,48.613,48.613    c0,5.168-0.843,10.286-2.466,15.172c-21.296-21.636-58.759-30.114-60.566-30.512c-2.277-0.503-4.662-0.085-6.447,1.416    c-1.764,1.485-2.75,3.532-2.67,5.83c-0.057,0.728-0.624,5.614-5.816,10.807c-2.929,2.929-2.929,7.677,0,10.606    c2.929,2.929,7.678,2.929,10.606,0c4.218-4.218,6.696-8.499,8.15-12.114c12.62,3.749,38.814,13.217,50.568,29.835    C464.982,386.53,448.238,400.805,428.345,400.805z"/>
	</g>
</g>
<g>
	<g>
		<path d="M388.266,474.846c-4.142,0-7.5,3.358-7.5,7.5V504.5c0,4.142,3.358,7.5,7.5,7.5c4.142,0,7.5-3.358,7.5-7.5v-22.154    C395.766,478.204,392.408,474.846,388.266,474.846z"/>
	</g>
</g>
<g>
	<g>
		<path d="M468.427,474.846c-4.142,0-7.5,3.358-7.5,7.5V504.5c0,4.142,3.358,7.5,7.5,7.5c4.142,0,7.5-3.358,7.5-7.5v-22.154    C475.927,478.204,472.569,474.846,468.427,474.846z"/>
	</g>
</g>
<g>
	<g>
		<path d="M352.212,401.979l-84.704-53.902v-84.061c0-4.142-3.358-7.5-7.5-7.5c-4.142,0-7.5,3.358-7.5,7.5v84.061l-84.704,53.902    c-3.495,2.224-4.525,6.859-2.301,10.354c2.225,3.495,6.861,4.525,10.354,2.301l84.151-53.55l84.151,53.55    c1.248,0.794,2.642,1.174,4.019,1.174c2.479-0.001,4.905-1.229,6.335-3.475C356.737,408.838,355.706,404.203,352.212,401.979z"/>
	</g>
</g>
<g>
</g>
<g>
</g>
<g>
</g>
<g>
</g>
<g>
</g>
<g>
</g>
<g>
</g>
<g>
</g>
<g>
</g>
<g>
</g>
<g>
</g>
<g>
</g>
<g>
</g>
<g>
</g>
<g>
</g>
</svg>
